<?xml version="1.0" encoding="utf-8"?>
<!-- Generator: Adobe Illustrator 19.0.0, SVG Export Plug-In . SVG Version: 6.00 Build 0)  -->
<svg version="1.1" id="Layer_1" xmlns="http://www.w3.org/2000/svg" xmlns:xlink="http://www.w3.org/1999/xlink" x="0px" y="0px"
	 viewBox="0 0 1212 1200" style="enable-background:new 0 0 1212 1200;" xml:space="preserve">
<style type="text/css">
	.st0{clip-path:url(#XMLID_270_);}
	.st1{fill:none;stroke:#4EA19F;stroke-width:3.25;stroke-linecap:round;stroke-linejoin:round;stroke-dasharray:0,6.539;}
	.st2{opacity:0.9231;}
	.st3{opacity:0.8462;}
	.st4{opacity:0.7692;}
	.st5{opacity:0.6923;}
	.st6{opacity:0.6154;}
	.st7{opacity:0.5385;}
	.st8{opacity:0.4615;}
	.st9{opacity:0.3846;}
	.st10{opacity:0.3077;}
	.st11{opacity:0.2308;}
	.st12{opacity:0.1538;}
	.st13{opacity:7.691960e-02;}
	.st14{opacity:0;}
	.st15{fill:#4EA19F;}
</style>
<g id="XMLID_1624_">
	<defs>
		<polyline id="XMLID_1625_" points="-740,1200 1212,1200 1212,0 -740,0 		"/>
	</defs>
	<clipPath id="XMLID_270_">
		<use xlink:href="#XMLID_1625_"  style="overflow:visible;"/>
	</clipPath>
	<g id="XMLID_1626_" class="st0">
		<g id="XMLID_1729_">
			<g id="XMLID_1730_">
				<path id="XMLID_1731_" class="st1" d="M755.7,813.6c3.4,81.2,71.9,144.3,153.1,140.9c81.2-3.4,144.3-71.9,140.9-153.1
					c-3.4-81.2-71.9-144.3-153.1-140.9S752.3,732.5,755.7,813.6z"/>
			</g>
		</g>
		<g id="XMLID_1724_" class="st2">
			<g id="XMLID_1725_">
				<g id="XMLID_1726_">
					<g id="XMLID_1727_">
						<path id="XMLID_1728_" class="st1" d="M733.6,814.6c3.9,93.4,82.7,165.9,176.1,162c93.4-3.9,165.9-82.7,162-176.1
							c-3.9-93.4-82.7-165.9-176.1-162C802.3,642.4,729.7,721.2,733.6,814.6z"/>
					</g>
				</g>
			</g>
		</g>
		<g id="XMLID_1719_" class="st3">
			<g id="XMLID_1720_">
				<g id="XMLID_1721_">
					<g id="XMLID_1722_">
						<path id="XMLID_1723_" class="st1" d="M711.5,815.5c4.4,105.6,93.5,187.6,199.1,183.2c105.6-4.4,187.6-93.5,183.2-199.1
							c-4.4-105.6-93.5-187.6-199.1-183.2C789.2,620.8,707.2,709.9,711.5,815.5z"/>
					</g>
				</g>
			</g>
		</g>
		<g id="XMLID_1714_" class="st4">
			<g id="XMLID_1715_">
				<g id="XMLID_1716_">
					<g id="XMLID_1717_">
						<path id="XMLID_1718_" class="st1" d="M689.5,816.4c4.9,117.7,104.3,209.2,222.1,204.4c117.7-4.9,209.2-104.3,204.4-222.1
							c-4.9-117.7-104.3-209.2-222.1-204.4C776.1,599.2,684.6,698.6,689.5,816.4z"/>
					</g>
				</g>
			</g>
		</g>
		<g id="XMLID_1709_" class="st5">
			<g id="XMLID_1710_">
				<g id="XMLID_1711_">
					<g id="XMLID_1712_">
						<circle id="XMLID_1713_" class="st1" cx="902.7" cy="807.5" r="235.5"/>
					</g>
				</g>
			</g>
		</g>
		<g id="XMLID_1704_" class="st6">
			<g id="XMLID_1705_">
				<g id="XMLID_1706_">
					<g id="XMLID_1707_">
						<circle id="XMLID_1708_" class="st1" cx="902.7" cy="807.5" r="257.6"/>
					</g>
				</g>
			</g>
		</g>
		<g id="XMLID_1699_" class="st7">
			<g id="XMLID_1700_">
				<g id="XMLID_1701_">
					<g id="XMLID_1702_">
						<path id="XMLID_1703_" class="st1" d="M623.3,819.1c6.4,154.3,136.7,274.2,291,267.8c154.3-6.4,274.2-136.7,267.8-291
							c-6.4-154.3-136.7-274.2-291-267.8C736.8,534.5,616.8,664.8,623.3,819.1z"/>
					</g>
				</g>
			</g>
		</g>
		<g id="XMLID_1694_" class="st8">
			<g id="XMLID_1695_">
				<g id="XMLID_1696_">
					<g id="XMLID_1697_">
						<path id="XMLID_1698_" class="st1" d="M601.2,820.1c6.9,166.5,147.5,295.9,314,289c166.5-6.9,295.9-147.5,289-314
							c-6.9-166.5-147.5-295.9-314-289C723.7,513,594.3,653.5,601.2,820.1z"/>
					</g>
				</g>
			</g>
		</g>
		<g id="XMLID_1689_" class="st9">
			<g id="XMLID_1690_">
				<g id="XMLID_1691_">
					<g id="XMLID_1692_">
						<path id="XMLID_1693_" class="st1" d="M579.1,821c7.4,178.7,158.3,317.6,337,310.1c178.7-7.4,317.6-158.3,310.1-337
							c-7.4-178.7-158.3-317.6-337-310.1C710.5,491.4,571.7,642.3,579.1,821z"/>
					</g>
				</g>
			</g>
		</g>
		<g id="XMLID_1684_" class="st10">
			<g id="XMLID_1685_">
				<g id="XMLID_1686_">
					<g id="XMLID_1687_">
						<path id="XMLID_1688_" class="st1" d="M557,821.9c7.9,190.9,169.1,339.2,360,331.3s339.2-169.1,331.3-360
							c-7.9-190.9-169.1-339.2-360-331.3C697.4,469.8,549.1,631,557,821.9z"/>
					</g>
				</g>
			</g>
		</g>
		<g id="XMLID_1679_" class="st11">
			<g id="XMLID_1680_">
				<g id="XMLID_1681_">
					<g id="XMLID_1682_">
						<path id="XMLID_1683_" class="st1" d="M535,822.8c8.4,203.1,179.9,360.9,383,352.5c203.1-8.4,360.9-179.9,352.5-383
							c-8.4-203.1-179.9-360.9-383-352.5C684.3,448.3,526.5,619.7,535,822.8z"/>
					</g>
				</g>
			</g>
		</g>
		<g id="XMLID_1674_" class="st12">
			<g id="XMLID_1675_">
				<g id="XMLID_1676_">
					<g id="XMLID_1677_">
						<path id="XMLID_1678_" class="st1" d="M512.9,823.7c8.9,215.3,190.7,382.5,406,373.6c215.3-8.9,382.5-190.7,373.6-406
							c-8.9-215.3-190.7-382.5-406-373.6C671.2,426.7,504,608.5,512.9,823.7z"/>
					</g>
				</g>
			</g>
		</g>
		<g id="XMLID_1669_" class="st13">
			<g id="XMLID_1670_">
				<g id="XMLID_1671_">
					<g id="XMLID_1672_">
						<path id="XMLID_1673_" class="st1" d="M490.8,824.6c9.4,227.5,201.5,404.2,429,394.8c227.5-9.4,404.2-201.5,394.8-429
							c-9.4-227.5-201.5-404.2-429-394.8C658.1,405.1,481.4,597.2,490.8,824.6z"/>
					</g>
				</g>
			</g>
		</g>
		<g id="XMLID_1666_" class="st14">
			<g id="XMLID_1667_">
				<path id="XMLID_1668_" class="st1" d="M468.7,825.6c9.9,239.7,212.3,425.9,451.9,415.9c239.7-9.9,425.9-212.3,415.9-451.9
					c-9.9-239.7-212.3-425.9-451.9-415.9C645,383.6,458.8,585.9,468.7,825.6z"/>
			</g>
		</g>
		<g id="XMLID_1663_" class="st13">
			<g id="XMLID_1664_">
				<path id="XMLID_1665_" class="st1" d="M433.4,827c10.8,259.2,229.6,460.6,488.8,449.8c259.2-10.8,460.6-229.6,449.8-488.8
					c-10.8-259.2-229.6-460.6-488.8-449.8C624,349,422.6,567.9,433.4,827z"/>
			</g>
		</g>
		<g id="XMLID_1660_" class="st12">
			<g id="XMLID_1661_">
				<path id="XMLID_1662_" class="st1" d="M398.1,828.5c11.6,278.7,246.9,495.2,525.6,483.7c278.7-11.6,495.2-246.9,483.7-525.6
					c-11.6-278.7-246.9-495.2-525.6-483.7C603,314.5,386.5,549.8,398.1,828.5z"/>
			</g>
		</g>
		<g id="XMLID_1657_" class="st11">
			<g id="XMLID_1658_">
				<circle id="XMLID_1659_" class="st1" cx="902.7" cy="807.5" r="540.4"/>
			</g>
		</g>
		<g id="XMLID_1654_" class="st10">
			<g id="XMLID_1655_">
				<path id="XMLID_1656_" class="st1" d="M327.4,831.4c13.2,317.7,281.4,564.6,599.2,551.4c317.7-13.2,564.6-281.4,551.4-599.2
					c-13.2-317.7-281.4-564.6-599.2-551.4C561.1,245.4,314.2,513.7,327.4,831.4z"/>
			</g>
		</g>
		<g id="XMLID_1651_" class="st9">
			<g id="XMLID_1652_">
				<path id="XMLID_1653_" class="st1" d="M292,832.9c14,337.2,298.7,599.3,636,585.3c337.2-14,599.3-298.7,585.3-636
					c-14-337.2-298.7-599.3-636-585.3C540.1,210.9,278,495.6,292,832.9z"/>
			</g>
		</g>
		<g id="XMLID_1648_" class="st8">
			<g id="XMLID_1649_">
				<path id="XMLID_1650_" class="st1" d="M256.7,834.4c14.8,356.8,316,634,672.8,619.2c356.8-14.8,634-316,619.2-672.8
					c-14.8-356.8-316-634-672.8-619.2C519.1,176.4,241.9,477.6,256.7,834.4z"/>
			</g>
		</g>
		<g id="XMLID_1645_" class="st7">
			<g id="XMLID_1646_">
				<path id="XMLID_1647_" class="st1" d="M221.4,835.8c15.6,376.3,333.3,668.7,709.6,653c376.3-15.6,668.7-333.3,653-709.6
					c-15.6-376.3-333.3-668.7-709.6-653C498.1,141.8,205.7,459.5,221.4,835.8z"/>
			</g>
		</g>
		<g id="XMLID_1642_" class="st6">
			<g id="XMLID_1643_">
				<circle id="XMLID_1644_" class="st1" cx="902.7" cy="807.5" r="717.3"/>
			</g>
		</g>
		<g id="XMLID_1639_" class="st5">
			<g id="XMLID_1640_">
				<circle id="XMLID_1641_" class="st1" cx="902.7" cy="807.5" r="752.6"/>
			</g>
		</g>
		<g id="XMLID_1636_" class="st4">
			<g id="XMLID_1637_">
				<path id="XMLID_1638_" class="st1" d="M115.3,840.2c18,434.8,385.2,772.7,820,754.7c434.8-18,772.7-385.2,754.7-820
					C1672,340,1304.8,2.2,870,20.2C435.2,38.3,97.3,405.4,115.3,840.2z"/>
			</g>
		</g>
		<g id="XMLID_1633_" class="st3">
			<g id="XMLID_1634_">
				<path id="XMLID_1635_" class="st1" d="M80,841.7c18.9,454.4,402.5,807.4,856.8,788.5c454.4-18.9,807.4-402.5,788.5-856.8
					C1706.5,319.1,1322.9-34,868.5-15.1C414.2,3.7,61.1,387.3,80,841.7z"/>
			</g>
		</g>
		<g id="XMLID_1630_" class="st2">
			<g id="XMLID_1631_">
				<path id="XMLID_1632_" class="st1" d="M44.7,843.2c19.7,473.9,419.8,842.1,893.6,822.4c473.9-19.7,842.1-419.8,822.4-893.6
					C1741,298.1,1340.9-70.1,867.1-50.5C393.2-30.8,25,369.3,44.7,843.2z"/>
			</g>
		</g>
		<g id="XMLID_1627_">
			<g id="XMLID_1628_">
				<path id="XMLID_1629_" class="st1" d="M9.3,844.6c20.5,493.4,437,876.8,930.4,856.3c493.4-20.5,876.8-437,856.3-930.4
					C1775.6,277.1,1359-106.3,865.6-85.8C372.2-65.3-11.2,351.2,9.3,844.6z"/>
			</g>
		</g>
	</g>
</g>
<g id="XMLID_1401_">
	<path id="XMLID_1598_" class="st15" d="M911.3,874.5c-0.2,0-0.4,0-0.6,0c-2.5,0-4.8-1.9-5.1-4.5c-0.3-2.8,1.7-5.3,4.5-5.7v0
		c2.8-0.3,5.3,1.7,5.7,4.5C916.1,871.7,914.1,874.2,911.3,874.5 M895.9,869.7c-0.5,2.4-2.6,4.1-5,4.1c-0.3,0-0.7,0-1-0.1
		c-2.8-0.5-4.6-3.2-4-6c0.6-2.8,3.2-4.6,6-4C894.6,864.3,896.4,867,895.9,869.7 M931.9,868.7c-0.7,0.3-1.4,0.5-2.1,0.5
		c-1.9,0-3.8-1.1-4.6-3c-1.2-2.6-0.1-5.6,2.5-6.8c2.6-1.2,5.6-0.1,6.8,2.5C935.6,864.5,934.5,867.5,931.9,868.7 M876.7,864.4
		c-0.9,1.7-2.7,2.6-4.5,2.6c-0.8,0-1.7-0.2-2.5-0.6c-2.5-1.4-3.3-4.5-2-6.9c1.4-2.5,4.5-3.3,6.9-2
		C877.2,858.9,878.1,862,876.7,864.4 M949.7,856.7c-1,0.9-2.2,1.4-3.5,1.4c-1.4,0-2.7-0.6-3.7-1.6c-1.9-2.1-1.8-5.3,0.3-7.2
		c2.1-1.9,5.3-1.8,7.2,0.3C951.9,851.6,951.8,854.8,949.7,856.7 M860.1,853.4c-1,0.9-2.2,1.4-3.5,1.4c-1.4,0-2.7-0.5-3.7-1.6
		c-1.9-2.1-1.8-5.3,0.3-7.2c2.1-1.9,5.3-1.8,7.2,0.3C862.3,848.3,862.2,851.5,860.1,853.4 M962.9,839.9c-0.9,1.7-2.7,2.6-4.5,2.6
		c-0.8,0-1.7-0.2-2.5-0.6c-2.5-1.4-3.3-4.5-2-6.9c1.4-2.5,4.5-3.3,6.9-2C963.4,834.3,964.3,837.4,962.9,839.9 M847.7,837.9
		c-0.7,0.3-1.4,0.5-2.1,0.5c-1.9,0-3.8-1.1-4.6-3c-1.2-2.6-0.1-5.6,2.5-6.8c2.6-1.2,5.6-0.1,6.8,2.5
		C851.4,833.7,850.3,836.7,847.7,837.9 M970.3,819.7c-0.5,2.4-2.6,4.1-5,4.1c-0.3,0-0.7,0-1-0.1c-2.8-0.5-4.6-3.2-4-6v0
		c0.5-2.8,3.2-4.6,6-4C969,814.3,970.8,817,970.3,819.7L970.3,819.7 M840.7,819.2c-0.2,0-0.4,0-0.6,0c-2.5,0-4.8-1.9-5.1-4.5
		c0,0,0,0,0,0c0,0,0,0,0-0.1v0v0c-0.3-2.8,1.7-5.3,4.5-5.6c2.8-0.3,5.3,1.7,5.7,4.4v0l0,0c0,0,0,0.1,0,0.1
		C845.5,816.4,843.5,818.9,840.7,819.2 M966.6,804c-0.2,0-0.4,0-0.6,0c-2.5,0-4.7-1.9-5.1-4.5c-0.3-2.8,1.7-5.3,4.5-5.7
		c2.8-0.3,5.3,1.7,5.7,4.4C971.4,801.1,969.4,803.7,966.6,804 M845.9,795.3c-0.5,2.4-2.6,4.1-5,4.1c-0.3,0-0.7,0-1-0.1
		c-2.8-0.5-4.6-3.2-4-6c0.5-2.8,3.2-4.6,6-4C844.6,789.8,846.4,792.5,845.9,795.3 M962.7,784.5c-0.7,0.3-1.4,0.5-2.1,0.5
		c-1.9,0-3.8-1.1-4.6-3c-1.2-2.6-0.1-5.6,2.5-6.8c2.6-1.2,5.6-0.1,6.8,2.5C966.4,780.3,965.3,783.3,962.7,784.5 M852.1,778.2
		c-0.9,1.7-2.7,2.6-4.5,2.6c-0.8,0-1.7-0.2-2.5-0.6c-2.5-1.4-3.3-4.5-2-6.9c1.4-2.5,4.5-3.3,6.9-2
		C852.6,772.6,853.5,775.7,852.1,778.2 M953,767.1c-1,0.9-2.2,1.4-3.5,1.4c-1.4,0-2.7-0.5-3.7-1.6c-1.9-2.1-1.8-5.3,0.3-7.2
		c2.1-1.9,5.3-1.8,7.2,0.3C955.2,762,955.1,765.2,953,767.1 M863.4,763.8c-1,0.9-2.2,1.4-3.5,1.4c-1.4,0-2.7-0.5-3.7-1.6
		c-1.9-2.1-1.8-5.3,0.3-7.2c2.1-1.9,5.3-1.8,7.2,0.3C865.6,758.7,865.5,761.9,863.4,763.8L863.4,763.8 M938.4,753.7
		c-0.9,1.7-2.7,2.6-4.5,2.6c-0.8,0-1.7-0.2-2.5-0.7c-2.5-1.4-3.3-4.5-2-6.9c1.4-2.5,4.5-3.3,6.9-2
		C938.9,748.1,939.8,751.2,938.4,753.7 M878.6,753.6c-0.7,0.3-1.4,0.5-2.1,0.5c-1.9,0-3.8-1.1-4.6-3c-1.2-2.6-0.1-5.6,2.5-6.8
		c2.6-1.2,5.6-0.1,6.8,2.5C882.2,749.4,881.1,752.4,878.6,753.6 M920.3,745.3c-0.5,2.4-2.6,4.1-5,4.1c-0.3,0-0.7,0-1-0.1
		c-2.8-0.5-4.6-3.2-4-6c0.5-2.8,3.2-4.6,6-4C919.1,739.9,920.9,742.5,920.3,745.3 M896.1,748.7c-0.2,0-0.4,0-0.6,0
		c-2.5,0-4.8-1.9-5.1-4.5c-0.3-2.8,1.7-5.3,4.4-5.7h0c2.8-0.3,5.3,1.7,5.7,4.5C900.9,745.8,898.9,748.3,896.1,748.7L896.1,748.7"/>
	<path id="XMLID_1583_" class="st15" d="M903.6,849.3c-0.3,2.5-2.4,4.4-4.9,4.4c-0.2,0-0.3,0-0.5,0c-2.7-0.3-4.7-2.7-4.4-5.4
		c0.3-2.7,2.7-4.7,5.4-4.4C901.9,844.1,903.8,846.6,903.6,849.3 M919.1,851.2c-0.6,0.2-1.1,0.3-1.7,0.3c-2,0-3.9-1.3-4.7-3.3
		c-0.9-2.6,0.4-5.4,3-6.3c2.6-0.9,5.4,0.4,6.3,3C923,847.4,921.6,850.2,919.1,851.2 M885,845.3c-0.9,1.5-2.5,2.3-4.2,2.3
		c-0.9,0-1.8-0.2-2.6-0.7c-2.3-1.4-3-4.5-1.6-6.8c1.4-2.3,4.5-3,6.8-1.6C885.7,839.9,886.4,843,885,845.3 M936.8,839.8
		c-1,1-2.2,1.5-3.5,1.5c-1.2,0-2.5-0.5-3.5-1.4c-1.9-1.9-2-5-0.1-7c1.9-1.9,5-2,7-0.1C938.7,834.7,938.7,837.9,936.8,839.8
		 M870,833.6c-0.8,0.5-1.7,0.8-2.7,0.8c-1.6,0-3.2-0.8-4.2-2.3c-1.5-2.3-0.8-5.3,1.5-6.8c2.3-1.5,5.4-0.8,6.8,1.5
		C872.9,829.1,872.3,832.1,870,833.6 M947.9,821.9c-0.7,2.1-2.6,3.3-4.7,3.3c-0.5,0-1.1-0.1-1.6-0.3c-2.6-0.9-4-3.7-3.1-6.3
		c0.9-2.6,3.7-4,6.3-3.1C947.4,816.5,948.8,819.3,947.9,821.9 M861.5,816.6c-0.2,0-0.4,0-0.6,0c-2.5,0-4.6-1.8-4.9-4.3
		c0,0,0,0,0-0.1c0,0,0-0.1,0-0.1c-0.3-2.7,1.6-5.2,4.3-5.5c2.7-0.3,5.2,1.6,5.5,4.3v0.1c0,0,0,0,0,0.1
		C866.1,813.8,864.2,816.2,861.5,816.6 M945.8,806.4c-0.2,0-0.4,0-0.6,0c-2.5,0-4.6-1.8-4.9-4.3c-0.3-2.7,1.6-5.2,4.3-5.5
		c2.7-0.3,5.2,1.6,5.5,4.3C950.4,803.6,948.5,806.1,945.8,806.4 M867.6,794.3c-0.7,2-2.6,3.3-4.7,3.3c-0.5,0-1.1-0.1-1.6-0.3
		c-2.6-0.9-4-3.7-3.1-6.3c0.9-2.6,3.7-3.9,6.3-3.1C867.1,789,868.5,791.8,867.6,794.3 M941.5,787.9c-0.8,0.5-1.7,0.8-2.7,0.8
		c-1.6,0-3.2-0.8-4.2-2.3c-1.5-2.3-0.8-5.4,1.5-6.8c2.3-1.5,5.4-0.8,6.8,1.5C944.5,783.3,943.8,786.4,941.5,787.9 M876.4,780.2
		c-1,1-2.2,1.5-3.5,1.5c-1.3,0-2.5-0.5-3.5-1.4c-1.9-1.9-2-5,0-7c1.9-1.9,5-2,7-0.1C878.3,775.1,878.3,778.2,876.4,780.2 M929.6,773
		c-0.9,1.5-2.6,2.3-4.2,2.3c-0.9,0-1.8-0.2-2.6-0.7c-2.3-1.4-3-4.5-1.6-6.8c1.4-2.3,4.5-3,6.8-1.6C930.3,767.7,931,770.7,929.6,773
		 M890.4,771.2c-0.6,0.2-1.1,0.3-1.7,0.3c-2,0-3.9-1.3-4.7-3.3c-0.9-2.6,0.4-5.4,3-6.3c2.6-0.9,5.4,0.4,6.3,3
		C894.4,767.5,893,770.3,890.4,771.2 M912.5,764.8c-0.3,2.5-2.4,4.4-4.9,4.4c-0.2,0-0.3,0-0.5,0h0c-2.7-0.3-4.7-2.7-4.4-5.4
		c0.3-2.7,2.7-4.7,5.4-4.4C910.8,759.7,912.7,762.1,912.5,764.8"/>
	<path id="XMLID_1575_" class="st15" d="M912.2,832c-0.6,0.2-1.1,0.3-1.7,0.3c-2,0-3.9-1.3-4.7-3.3c-0.9-2.6,0.4-5.4,3-6.3
		c2.6-0.9,5.4,0.4,6.3,3C916.1,828.3,914.8,831.1,912.2,832 M895.6,828c-0.9,1.5-2.6,2.3-4.2,2.3c-0.9,0-1.8-0.2-2.6-0.7
		c-2.3-1.4-3-4.5-1.6-6.8c1.4-2.3,4.5-3,6.8-1.6C896.4,822.6,897.1,825.7,895.6,828 M928.7,815.3c-0.7,2.1-2.6,3.3-4.7,3.3
		c-0.5,0-1.1-0.1-1.6-0.3c-2.6-0.9-4-3.7-3.1-6.3c0.9-2.6,3.7-4,6.3-3.1C928.2,809.9,929.6,812.7,928.7,815.3 M881.7,814.1
		c-0.2,0-0.4,0-0.6,0c-2.5,0-4.6-1.8-4.9-4.3h0c0,0,0,0,0,0c0,0,0-0.1,0-0.1c-0.3-2.7,1.6-5.2,4.3-5.5c2.7-0.3,5.2,1.6,5.5,4.3
		c0,0,0,0.1,0,0.1C886.3,811.4,884.4,813.8,881.7,814.1 M924.4,798.8c-0.8,0.5-1.7,0.8-2.7,0.8c-1.6,0-3.2-0.8-4.2-2.3
		c-1.5-2.3-0.8-5.4,1.5-6.8c2.3-1.5,5.4-0.8,6.8,1.5C927.4,794.3,926.7,797.3,924.4,798.8 M890.8,794.4c-1,1-2.2,1.5-3.5,1.5
		c-1.3,0-2.5-0.5-3.5-1.4c-1.9-1.9-2-5,0-7c1.9-1.9,5-2,7,0C892.7,789.4,892.8,792.5,890.8,794.4 M910.3,785
		c-0.3,2.5-2.4,4.4-4.9,4.4c-0.2,0-0.3,0-0.5,0c-2.7-0.3-4.7-2.7-4.4-5.4c0.3-2.7,2.7-4.7,5.4-4.4
		C908.6,779.9,910.6,782.3,910.3,785"/>
	<path id="XMLID_1574_" class="st15" d="M907.1,895.8c2.8-0.1,5-2.5,4.9-5.3c-0.1-2.8-2.5-5-5.3-4.9c-2.8,0.1-5,2.5-4.9,5.3
		c0.1,2.7,2.4,4.9,5.1,4.9C907,895.8,907.1,895.8,907.1,895.8"/>
	<path id="XMLID_1573_" class="st15" d="M891.7,890.1c0.6-2.8-1.3-5.5-4-6c-2.8-0.6-5.4,1.2-6,4c-0.5,2.8,1.2,5.4,4,6
		c0.3,0.1,0.7,0.1,1,0.1C889.1,894.2,891.2,892.6,891.7,890.1"/>
	<path id="XMLID_1572_" class="st15" d="M928.4,892.2c2.7-0.8,4.2-3.6,3.4-6.3c-0.8-2.7-3.6-4.2-6.3-3.4c-2.7,0.8-4.2,3.6-3.4,6.3
		c0.7,2.2,2.7,3.7,4.9,3.7C927.4,892.4,927.9,892.3,928.4,892.2"/>
	<path id="XMLID_1571_" class="st15" d="M872,885c1.2-2.6,0.1-5.6-2.5-6.8h0c-2.6-1.2-5.6-0.1-6.8,2.5c-1.2,2.6-0.1,5.6,2.5,6.8v0
		c0.7,0.3,1.4,0.5,2.2,0.5C869.3,887.9,871.1,886.8,872,885"/>
	<path id="XMLID_1570_" class="st15" d="M948.1,883.6c2.4-1.4,3.2-4.6,1.8-7c-1.4-2.4-4.5-3.2-7-1.8c-2.4,1.4-3.3,4.5-1.8,7
		c0.9,1.6,2.7,2.5,4.4,2.5C946.4,884.3,947.3,884.1,948.1,883.6"/>
	<path id="XMLID_1569_" class="st15" d="M854.2,875.3c1.8-2.2,1.4-5.4-0.8-7.2c-2.2-1.8-5.4-1.4-7.2,0.8c-1.8,2.2-1.4,5.4,0.8,7.2
		c0.9,0.8,2.1,1.1,3.2,1.1C851.7,877.2,853.1,876.5,854.2,875.3"/>
	<path id="XMLID_1568_" class="st15" d="M965.3,870.6c2-2,2.1-5.2,0.1-7.2c-2-2-5.2-2.1-7.2-0.1c-2,2-2.1,5.2-0.1,7.2
		c1,1,2.3,1.5,3.7,1.5C963,872.1,964.3,871.6,965.3,870.6"/>
	<path id="XMLID_1567_" class="st15" d="M839.1,861.6c2.2-1.7,2.7-4.9,1-7.2c-1.7-2.2-4.9-2.7-7.2-1c-2.2,1.7-2.7,4.9-1,7.2h0
		c1,1.3,2.5,2,4.1,2C837.1,862.6,838.2,862.3,839.1,861.6"/>
	<path id="XMLID_1566_" class="st15" d="M978.8,853.9c1.5-2.4,0.8-5.5-1.6-7c-2.4-1.5-5.5-0.8-7,1.6c-1.5,2.4-0.8,5.5,1.6,7
		c0.8,0.5,1.8,0.8,2.7,0.8C976.2,856.3,977.8,855.4,978.8,853.9"/>
	<path id="XMLID_1565_" class="st15" d="M827.8,844.7c2.6-1.1,3.8-4.1,2.6-6.7c-1.1-2.6-4.1-3.8-6.7-2.6c-2.6,1.1-3.8,4.1-2.7,6.7
		c0.8,1.9,2.7,3.1,4.7,3.1C826.5,845.1,827.1,845,827.8,844.7"/>
	<path id="XMLID_1564_" class="st15" d="M987.9,834.4L987.9,834.4c0.9-2.7-0.6-5.6-3.3-6.4c-2.7-0.9-5.6,0.6-6.4,3.3
		c-0.9,2.7,0.6,5.6,3.3,6.4c0.5,0.2,1.1,0.3,1.6,0.3C985.2,837.9,987.2,836.5,987.9,834.4"/>
	<path id="XMLID_1563_" class="st15" d="M820.9,825.6c2.8-0.5,4.7-3.1,4.2-5.9c-0.5-2.8-3.1-4.7-5.9-4.2c-2.8,0.5-4.7,3.1-4.2,5.9
		c0.4,2.5,2.6,4.3,5,4.3C820.3,825.6,820.6,825.6,820.9,825.6"/>
	<path id="XMLID_1562_" class="st15" d="M992.1,813.3L992.1,813.3c0.2-2.8-1.9-5.3-4.7-5.5c-2.8-0.2-5.3,1.9-5.5,4.7
		c-0.2,2.8,1.9,5.3,4.7,5.5c0.1,0,0.3,0,0.4,0C989.7,818,991.9,816,992.1,813.3"/>
	<path id="XMLID_1561_" class="st15" d="M824.2,800.6L824.2,800.6C824.2,800.6,824.2,800.6,824.2,800.6c0-0.1,0-0.1,0-0.2
		c0.2-2.8-1.9-5.3-4.7-5.5c-2.8-0.2-5.3,1.9-5.5,4.7v0c0,0,0,0,0,0c0,0,0,0.1,0,0.1c-0.2,2.8,1.9,5.3,4.7,5.5c0.1,0,0.3,0,0.4,0
		C821.8,805.4,824,803.3,824.2,800.6"/>
	<path id="XMLID_1560_" class="st15" d="M987,797.7c2.8-0.5,4.7-3.1,4.2-5.9c-0.5-2.8-3.1-4.7-5.9-4.2c-2.8,0.5-4.7,3.1-4.2,5.9
		c0.4,2.5,2.6,4.3,5,4.3C986.4,797.7,986.7,797.7,987,797.7"/>
	<path id="XMLID_1559_" class="st15" d="M827.9,781.8c0.9-2.7-0.6-5.6-3.3-6.4c-2.7-0.9-5.6,0.6-6.4,3.3v0c-0.9,2.7,0.6,5.6,3.3,6.4
		c0.5,0.2,1.1,0.3,1.6,0.3C825.2,785.3,827.2,783.9,827.9,781.8"/>
	<path id="XMLID_1558_" class="st15" d="M982.4,777.8c2.6-1.1,3.8-4.1,2.7-6.7c-1.1-2.6-4.1-3.8-6.7-2.7c-2.6,1.1-3.8,4.1-2.7,6.7
		c0.8,1.9,2.7,3.1,4.7,3.1C981.1,778.3,981.7,778.1,982.4,777.8"/>
	<path id="XMLID_1557_" class="st15" d="M836,764.5L836,764.5c1.5-2.4,0.8-5.5-1.6-7c-2.4-1.5-5.5-0.8-7,1.6c-1.5,2.4-0.8,5.5,1.6,7
		c0.8,0.5,1.8,0.8,2.7,0.8C833.4,766.9,835,766.1,836,764.5"/>
	<path id="XMLID_1556_" class="st15" d="M973.2,759.7c2.3-1.7,2.7-4.9,1-7.2c-1.7-2.2-4.9-2.7-7.1-1c-2.2,1.7-2.7,4.9-1,7.2
		c1,1.3,2.5,2,4.1,2C971.2,760.7,972.3,760.4,973.2,759.7"/>
	<path id="XMLID_1555_" class="st15" d="M848,749.7c2-2,2.1-5.2,0.1-7.2c-2-2-5.2-2.1-7.2-0.1v0c-2,2-2.1,5.2-0.1,7.2
		c1,1,2.3,1.6,3.7,1.6C845.7,751.2,847,750.7,848,749.7"/>
	<path id="XMLID_1554_" class="st15" d="M960,744.3c1.8-2.2,1.4-5.4-0.8-7.2v0c-2.2-1.8-5.4-1.4-7.2,0.7c-1.8,2.2-1.4,5.4,0.8,7.2h0
		c0.9,0.8,2.1,1.1,3.2,1.1C957.5,746.2,959,745.5,960,744.3"/>
	<path id="XMLID_1553_" class="st15" d="M863.2,738.2c2.4-1.4,3.3-4.5,1.8-7c-1.4-2.4-4.6-3.3-7-1.8c-2.4,1.4-3.3,4.5-1.8,7
		c1,1.6,2.7,2.5,4.4,2.5C861.5,738.9,862.4,738.7,863.2,738.2"/>
	<path id="XMLID_1552_" class="st15" d="M943.4,732.5c1.2-2.6,0.1-5.6-2.5-6.8c-2.6-1.2-5.6-0.1-6.8,2.4c-1.2,2.6-0.1,5.6,2.5,6.8
		c0.7,0.3,1.4,0.5,2.2,0.5C940.7,735.4,942.6,734.3,943.4,732.5"/>
	<path id="XMLID_1551_" class="st15" d="M880.7,730.6c2.7-0.8,4.3-3.6,3.4-6.3c-0.8-2.7-3.6-4.3-6.3-3.5c-2.7,0.8-4.2,3.6-3.4,6.3
		c0.7,2.2,2.7,3.7,4.9,3.7C879.7,730.9,880.2,730.8,880.7,730.6"/>
	<path id="XMLID_1550_" class="st15" d="M924.5,725c0.6-2.8-1.2-5.4-4-6c-2.8-0.6-5.4,1.2-6,4c-0.5,2.8,1.2,5.4,4,6
		c0.3,0.1,0.7,0.1,1,0.1C921.9,729.1,924.1,727.4,924.5,725"/>
	<path id="XMLID_1549_" class="st15" d="M899.5,727.5L899.5,727.5c2.8-0.1,5-2.5,4.9-5.3c-0.1-2.8-2.5-5-5.3-4.9
		c-2.8,0.1-5,2.5-4.9,5.3c0.1,2.7,2.4,4.9,5.1,4.9C899.4,727.5,899.4,727.5,899.5,727.5"/>
	<path id="XMLID_1548_" class="st15" d="M903.8,932.7c0.1-2.8-2.1-5.2-4.9-5.3c-2.8-0.1-5.2,2.1-5.3,4.9c-0.1,2.8,2.1,5.2,4.9,5.3
		c0.1,0,0.1,0,0.2,0C901.4,937.6,903.7,935.5,903.8,932.7"/>
	<path id="XMLID_1547_" class="st15" d="M919.6,936.7L919.6,936.7c2.8-0.4,4.8-2.9,4.4-5.7c-0.3-2.8-2.9-4.8-5.7-4.4
		c-2.8,0.3-4.8,2.9-4.4,5.7c0.3,2.6,2.5,4.5,5.1,4.5C919.1,936.7,919.4,936.7,919.6,936.7"/>
	<path id="XMLID_1546_" class="st15" d="M883.5,931.2c0.6-2.8-1.3-5.5-4-6c-2.8-0.6-5.4,1.2-6,4c-0.6,2.8,1.2,5.4,4,6
		c0.3,0.1,0.7,0.1,1,0.1C880.9,935.3,883.1,933.6,883.5,931.2"/>
	<path id="XMLID_1545_" class="st15" d="M940.2,932.3c2.7-0.8,4.2-3.6,3.4-6.3c-0.8-2.7-3.6-4.2-6.3-3.4c-2.7,0.8-4.2,3.6-3.4,6.3
		c0.7,2.2,2.7,3.7,4.9,3.7C939.3,932.6,939.8,932.5,940.2,932.3"/>
	<path id="XMLID_1544_" class="st15" d="M863.8,926.5c1-2.6-0.4-5.6-3-6.6c-2.6-1-5.6,0.4-6.6,3s0.4,5.6,3,6.6
		c0.6,0.2,1.2,0.3,1.8,0.3C861.1,929.8,863,928.5,863.8,926.5"/>
	<path id="XMLID_1543_" class="st15" d="M959.9,924.7L959.9,924.7c2.5-1.2,3.6-4.3,2.4-6.8c-1.2-2.5-4.3-3.6-6.8-2.4
		c-2.5,1.2-3.6,4.3-2.4,6.8c0.9,1.8,2.7,2.9,4.6,2.9C958.5,925.2,959.2,925.1,959.9,924.7"/>
	<path id="XMLID_1542_" class="st15" d="M845.1,918.6c1.4-2.4,0.6-5.6-1.9-7c-2.4-1.4-5.6-0.5-7,1.9c-1.4,2.5-0.6,5.6,1.9,7
		c0.8,0.5,1.7,0.7,2.5,0.7C842.4,921.2,844.1,920.3,845.1,918.6"/>
	<path id="XMLID_1541_" class="st15" d="M978.2,914.1c2.3-1.6,2.9-4.8,1.3-7.1c-1.6-2.3-4.8-2.9-7.1-1.3c-2.3,1.6-2.9,4.8-1.3,7.1
		c1,1.4,2.6,2.2,4.2,2.2C976.2,915,977.3,914.7,978.2,914.1"/>
	<path id="XMLID_1540_" class="st15" d="M827.9,907.9c1.8-2.2,1.4-5.4-0.8-7.2c-2.2-1.8-5.4-1.4-7.2,0.8c-1.8,2.2-1.4,5.4,0.8,7.2
		c0.9,0.8,2.1,1.1,3.2,1.1C825.4,909.8,826.9,909.1,827.9,907.9"/>
	<path id="XMLID_1539_" class="st15" d="M994.4,900.6c2-2,2.1-5.2,0.1-7.2c-2-2-5.2-2.1-7.2-0.1c-2,2-2.1,5.2-0.1,7.2
		c1,1,2.3,1.6,3.7,1.6C992.1,902.1,993.4,901.6,994.4,900.6"/>
	<path id="XMLID_1538_" class="st15" d="M812.6,894.5c2.1-1.9,2.3-5.1,0.4-7.2c-1.9-2.1-5.1-2.3-7.2-0.4c-2.1,1.9-2.3,5.1-0.4,7.2
		c1,1.1,2.4,1.7,3.8,1.7C810.4,895.8,811.6,895.3,812.6,894.5"/>
	<path id="XMLID_1537_" class="st15" d="M1008.3,884.8c1.7-2.3,1.2-5.5-1-7.1c-2.3-1.7-5.5-1.2-7.1,1c-1.7,2.3-1.2,5.5,1,7.1
		c0.9,0.7,2,1,3,1C1005.8,886.8,1007.3,886.1,1008.3,884.8"/>
	<path id="XMLID_1536_" class="st15" d="M799.7,878.8c2.4-1.5,3.1-4.7,1.5-7.1c-1.5-2.4-4.7-3.1-7-1.5c-2.4,1.5-3.1,4.7-1.5,7.1
		c1,1.5,2.6,2.3,4.3,2.3C797.9,879.6,798.8,879.4,799.7,878.8"/>
	<path id="XMLID_1535_" class="st15" d="M1019.5,866.9c1.3-2.5,0.3-5.6-2.2-6.9c-2.5-1.3-5.6-0.3-6.9,2.2c-1.3,2.5-0.3,5.6,2.2,6.9
		c0.8,0.4,1.6,0.6,2.3,0.6C1016.8,869.7,1018.6,868.7,1019.5,866.9"/>
	<path id="XMLID_1534_" class="st15" d="M789.4,861.3c2.6-1.1,3.8-4.1,2.6-6.7c-1.1-2.6-4.1-3.8-6.7-2.7c-2.6,1.1-3.8,4.1-2.6,6.7
		c0.8,1.9,2.7,3.1,4.7,3.1C788,861.7,788.7,861.6,789.4,861.3"/>
	<path id="XMLID_1533_" class="st15" d="M1027.7,847.4c0.9-2.7-0.6-5.6-3.3-6.4c-2.7-0.9-5.6,0.6-6.4,3.3c-0.9,2.7,0.6,5.6,3.3,6.4
		c0.5,0.2,1.1,0.3,1.6,0.3C1025,851,1027,849.6,1027.7,847.4"/>
	<path id="XMLID_1532_" class="st15" d="M782.1,842.4c2.7-0.7,4.4-3.5,3.7-6.2c-0.7-2.7-3.5-4.4-6.2-3.7c-2.7,0.7-4.4,3.5-3.7,6.2
		c0.6,2.3,2.7,3.9,4.9,3.9C781.2,842.5,781.7,842.5,782.1,842.4"/>
	<path id="XMLID_1531_" class="st15" d="M1032.6,826.9c0.4-2.8-1.5-5.4-4.3-5.8c-2.8-0.4-5.4,1.5-5.8,4.2c-0.4,2.8,1.5,5.4,4.3,5.8
		c0.3,0,0.5,0.1,0.8,0.1C1030.1,831.2,1032.2,829.4,1032.6,826.9"/>
	<path id="XMLID_1530_" class="st15" d="M777.9,822.5c2.8-0.2,4.9-2.7,4.7-5.5v0c-0.2-2.8-2.7-4.9-5.5-4.7c-2.8,0.2-4.9,2.7-4.7,5.5
		c0.2,2.7,2.5,4.7,5.1,4.7C777.6,822.5,777.8,822.5,777.9,822.5"/>
	<path id="XMLID_1529_" class="st15" d="M1029.1,811c2.8,0,5.1-2.3,5.1-5.1c0-2.8-2.3-5.1-5.1-5.1c-2.8,0-5.1,2.3-5.1,5.1
		C1024,808.7,1026.3,811,1029.1,811L1029.1,811z"/>
	<path id="XMLID_1528_" class="st15" d="M782.5,797.5L782.5,797.5c0,0,0-0.1,0-0.1c0,0,0-0.1,0-0.1c0.2-2.8-1.9-5.3-4.7-5.5
		c-2.8-0.2-5.3,1.9-5.5,4.7c0,0.1,0,0.1,0,0.1c0,0,0,0.1,0,0.1c-0.2,2.8,1.9,5.3,4.7,5.5c0.1,0,0.3,0,0.4,0
		C780,802.3,782.3,800.2,782.5,797.5"/>
	<path id="XMLID_1527_" class="st15" d="M1028.2,790.7c2.8-0.5,4.7-3.1,4.2-5.9c-0.5-2.8-3.1-4.7-5.9-4.2c-2.8,0.5-4.7,3.1-4.2,5.9
		c0.4,2.5,2.6,4.3,5,4.3C1027.7,790.8,1028,790.8,1028.2,790.7"/>
	<path id="XMLID_1526_" class="st15" d="M785.5,778.1c0.7-2.7-1-5.5-3.8-6.2c-2.7-0.7-5.5,1-6.2,3.8c-0.7,2.8,1,5.5,3.8,6.2
		c0.4,0.1,0.8,0.1,1.2,0.1C782.8,782,784.9,780.4,785.5,778.1"/>
	<path id="XMLID_1525_" class="st15" d="M1024.1,770.9c2.7-0.9,4.1-3.8,3.2-6.5h0c-0.9-2.7-3.8-4.1-6.5-3.2
		c-2.7,0.9-4.1,3.8-3.2,6.5c0.7,2.1,2.7,3.5,4.8,3.5C1023,771.1,1023.6,771,1024.1,770.9"/>
	<path id="XMLID_1524_" class="st15" d="M791.6,759.6c1.1-2.6-0.1-5.6-2.7-6.7c-2.6-1.1-5.6,0.1-6.7,2.7c-1.1,2.6,0.1,5.6,2.7,6.7
		c0.6,0.3,1.3,0.4,2,0.4C788.9,762.7,790.8,761.5,791.6,759.6"/>
	<path id="XMLID_1523_" class="st15" d="M1016.8,751.9c2.5-1.3,3.4-4.4,2.1-6.9c-1.3-2.5-4.4-3.4-6.9-2.1c-2.5,1.3-3.4,4.4-2.1,6.9
		c0.9,1.7,2.7,2.7,4.5,2.7C1015.2,752.5,1016,752.3,1016.8,751.9"/>
	<path id="XMLID_1522_" class="st15" d="M800.5,742.3c1.5-2.4,0.8-5.5-1.6-7c-2.4-1.5-5.5-0.8-7,1.6c-1.5,2.4-0.8,5.5,1.6,7
		c0.8,0.5,1.8,0.8,2.7,0.8C797.9,744.7,799.6,743.9,800.5,742.3"/>
	<path id="XMLID_1521_" class="st15" d="M1006.5,734.4c2.3-1.7,2.7-4.9,1-7.2c-1.7-2.2-4.9-2.7-7.1-1c-2.2,1.7-2.7,4.9-1,7.2
		c1,1.3,2.5,2,4.1,2C1004.5,735.4,1005.6,735.1,1006.5,734.4"/>
	<path id="XMLID_1520_" class="st15" d="M812.2,726.7c1.9-2.1,1.7-5.3-0.5-7.2c-2.1-1.9-5.3-1.7-7.2,0.5c-1.9,2.1-1.7,5.3,0.5,7.2
		c1,0.8,2.2,1.3,3.4,1.3C809.8,728.5,811.2,727.9,812.2,726.7"/>
	<path id="XMLID_1519_" class="st15" d="M993.6,718.7c1.9-2,1.9-5.3-0.2-7.2c-2-1.9-5.3-1.9-7.2,0.2c-1.9,2-1.9,5.3,0.2,7.2
		c1,0.9,2.3,1.4,3.5,1.4C991.3,720.3,992.6,719.8,993.6,718.7"/>
	<path id="XMLID_1518_" class="st15" d="M826.2,713.2c2.2-1.8,2.5-5,0.7-7.2c-1.8-2.2-5-2.5-7.2-0.7c-2.2,1.8-2.5,5-0.7,7.2
		c1,1.2,2.5,1.9,3.9,1.9C824.1,714.4,825.2,714,826.2,713.2"/>
	<path id="XMLID_1517_" class="st15" d="M978.4,705.3c1.6-2.3,1-5.5-1.3-7.1c-2.3-1.6-5.5-1-7.1,1.3c-1.6,2.3-1,5.5,1.3,7.1
		c0.9,0.6,1.9,0.9,2.9,0.9C975.8,707.5,977.4,706.8,978.4,705.3"/>
	<path id="XMLID_1516_" class="st15" d="M842.1,702.1c2.4-1.4,3.3-4.5,1.8-7c-1.4-2.4-4.6-3.3-7-1.8c-2.4,1.4-3.3,4.5-1.8,7
		c1,1.6,2.7,2.5,4.4,2.5C840.4,702.7,841.3,702.5,842.1,702.1"/>
	<path id="XMLID_1515_" class="st15" d="M961.2,694.5c1.2-2.6,0.1-5.6-2.4-6.8h0c-2.6-1.2-5.6-0.1-6.8,2.5c-1.2,2.6-0.1,5.6,2.5,6.8
		h0c0.7,0.3,1.4,0.5,2.2,0.5C958.5,697.5,960.3,696.4,961.2,694.5"/>
	<path id="XMLID_1514_" class="st15" d="M859.7,693.6c2.6-1,3.9-4,2.9-6.6c-1-2.6-4-3.9-6.6-2.9c-2.6,1-3.9,4-2.9,6.6
		c0.8,2,2.7,3.3,4.8,3.3C858.4,694,859.1,693.8,859.7,693.6"/>
	<path id="XMLID_1513_" class="st15" d="M942.5,686.7c0.8-2.7-0.8-5.5-3.5-6.3c-2.7-0.8-5.5,0.8-6.3,3.5c-0.8,2.7,0.8,5.5,3.5,6.3v0
		c0.5,0.1,0.9,0.2,1.4,0.2C939.8,690.4,941.9,688.9,942.5,686.7"/>
	<path id="XMLID_1512_" class="st15" d="M878.3,688.1L878.3,688.1c2.8-0.6,4.5-3.3,4-6c-0.6-2.8-3.3-4.5-6-4c-2.8,0.6-4.5,3.3-4,6
		c0.5,2.4,2.6,4.1,5,4.1C877.6,688.2,878,688.2,878.3,688.1"/>
	<path id="XMLID_1511_" class="st15" d="M922.8,681.9c0.3-2.8-1.7-5.3-4.5-5.7c-2.8-0.3-5.3,1.7-5.7,4.5c-0.3,2.8,1.7,5.3,4.5,5.7
		c0.2,0,0.4,0,0.6,0C920.3,686.4,922.5,684.5,922.8,681.9"/>
	<path id="XMLID_1510_" class="st15" d="M897.6,685.7L897.6,685.7c2.8-0.1,5-2.5,4.9-5.3c-0.1-2.8-2.5-5-5.3-4.9
		c-2.8,0.1-5,2.5-4.9,5.3c0.1,2.7,2.4,4.9,5.1,4.9C897.5,685.7,897.6,685.7,897.6,685.7"/>
	<path id="XMLID_1509_" class="st1" d="M798.2,810.9c2.4,57.9,51.3,102.9,109.2,100.5c57.9-2.4,102.9-51.3,100.5-109.2
		c-2.4-57.9-51.3-102.9-109.2-100.5C840.8,704.1,795.8,753,798.2,810.9z"/>
	<path id="XMLID_1508_" class="st15" d="M907.6,916.5c2.8-0.1,5-2.5,4.9-5.3c-0.1-2.8-2.5-5-5.3-4.9c-2.8,0.1-5,2.5-4.9,5.3
		c0.1,2.8,2.4,4.9,5.1,4.9C907.4,916.5,907.5,916.5,907.6,916.5"/>
	<path id="XMLID_1507_" class="st15" d="M891.9,911c0.4-2.8-1.5-5.4-4.3-5.8c-2.8-0.4-5.4,1.5-5.8,4.3c-0.4,2.8,1.5,5.4,4.3,5.8
		c0.3,0,0.5,0.1,0.8,0.1C889.3,915.4,891.5,913.6,891.9,911"/>
	<path id="XMLID_1506_" class="st15" d="M928.9,913.5c2.7-0.7,4.4-3.4,3.8-6.2c-0.7-2.7-3.4-4.4-6.2-3.8c-2.7,0.7-4.4,3.4-3.8,6.2
		c0.6,2.3,2.6,3.9,5,3.9C928.1,913.7,928.5,913.6,928.9,913.5"/>
	<path id="XMLID_1505_" class="st15" d="M871.7,906.9c1-2.6-0.4-5.6-3-6.5c-2.7-1-5.6,0.4-6.5,3c-1,2.6,0.4,5.6,3,6.5
		c0.6,0.2,1.2,0.3,1.8,0.3C869,910.2,870.9,908.9,871.7,906.9"/>
	<path id="XMLID_1504_" class="st15" d="M949.3,906.4c2.6-1.2,3.7-4.2,2.5-6.8c-1.2-2.6-4.2-3.7-6.8-2.5c-2.6,1.2-3.7,4.2-2.5,6.8
		c0.9,1.9,2.7,3,4.6,3C947.9,906.9,948.6,906.8,949.3,906.4"/>
	<path id="XMLID_1503_" class="st15" d="M852.7,898.8c1.5-2.4,0.7-5.5-1.7-7c-2.4-1.5-5.5-0.7-7,1.7c-1.5,2.4-0.7,5.5,1.7,7
		c0.8,0.5,1.8,0.7,2.7,0.7C850.1,901.2,851.8,900.4,852.7,898.8"/>
	<path id="XMLID_1502_" class="st15" d="M967.9,895.5c2.3-1.7,2.8-4.9,1.1-7.1c-1.7-2.3-4.9-2.8-7.1-1.1c-2.3,1.7-2.8,4.9-1.1,7.1
		c1,1.4,2.5,2.1,4.1,2.1C965.9,896.5,967,896.2,967.9,895.5"/>
	<path id="XMLID_1501_" class="st15" d="M835.7,887.2c1.9-2.1,1.8-5.3-0.3-7.2c-2.1-1.9-5.3-1.8-7.2,0.3c-1.9,2.1-1.8,5.3,0.3,7.2v0
		c1,0.9,2.2,1.3,3.5,1.3C833.3,888.9,834.7,888.3,835.7,887.2"/>
	<path id="XMLID_1500_" class="st15" d="M984,881.1c1.9-2.1,1.8-5.3-0.3-7.2c-2.1-1.9-5.3-1.8-7.2,0.3c-1.9,2.1-1.8,5.3,0.3,7.2
		c1,0.9,2.2,1.4,3.5,1.4C981.6,882.8,983,882.2,984,881.1"/>
	<path id="XMLID_1499_" class="st15" d="M821.3,872.5c2.3-1.7,2.8-4.9,1.1-7.1v0c-1.7-2.3-4.9-2.8-7.1-1.1c-2.3,1.7-2.8,4.9-1.1,7.1
		c1,1.4,2.6,2.1,4.1,2.1C819.3,873.5,820.4,873.2,821.3,872.5"/>
	<path id="XMLID_1498_" class="st15" d="M997,863.9c1.5-2.4,0.7-5.5-1.7-7c-2.4-1.5-5.5-0.7-7,1.7c-1.5,2.4-0.7,5.5,1.7,7
		c0.8,0.5,1.7,0.7,2.7,0.7C994.4,866.4,996,865.5,997,863.9"/>
	<path id="XMLID_1497_" class="st15" d="M810,855.3c2.6-1.2,3.7-4.2,2.5-6.8c-1.2-2.6-4.2-3.7-6.8-2.5c-2.6,1.2-3.7,4.2-2.5,6.8
		c0.9,1.9,2.7,3,4.6,3C808.5,855.8,809.3,855.6,810,855.3"/>
	<path id="XMLID_1496_" class="st15" d="M1006.4,844.5c1-2.6-0.4-5.6-3-6.5c-2.6-1-5.6,0.4-6.5,3v0c-1,2.6,0.4,5.6,3,6.6
		c0.6,0.2,1.2,0.3,1.8,0.3C1003.7,847.9,1005.6,846.6,1006.4,844.5"/>
	<path id="XMLID_1495_" class="st15" d="M802.2,836.2c2.7-0.7,4.4-3.4,3.8-6.2c-0.7-2.7-3.4-4.4-6.2-3.8c-2.7,0.7-4.4,3.4-3.8,6.2h0
		c0.6,2.3,2.7,3.9,5,3.9C801.4,836.4,801.8,836.3,802.2,836.2"/>
	<path id="XMLID_1494_" class="st15" d="M1011.8,823.6c0.4-2.8-1.5-5.4-4.3-5.8c-2.8-0.4-5.4,1.5-5.8,4.2c-0.4,2.8,1.5,5.4,4.3,5.8
		c0.3,0,0.5,0.1,0.8,0.1C1009.2,827.9,1011.4,826.1,1011.8,823.6"/>
	<path id="XMLID_1493_" class="st15" d="M798.4,816c2.8-0.1,5-2.5,4.9-5.3c0,0,0-0.1,0-0.1c0,0,0-0.1,0-0.1c-0.1-2.8-2.5-5-5.3-4.9
		c-2.8,0.1-5,2.5-4.9,5.3c0,0,0,0.1,0,0.1v0.1c0.1,2.8,2.4,4.9,5.1,4.9C798.3,816,798.3,816,798.4,816"/>
	<path id="XMLID_1492_" class="st15" d="M1008.1,807.4c2.8-0.1,5-2.5,4.9-5.3c-0.1-2.8-2.5-5-5.3-4.9c-2.8,0.1-5,2.5-4.9,5.3
		c0.1,2.7,2.4,4.9,5.1,4.9C1008,807.4,1008.1,807.4,1008.1,807.4"/>
	<path id="XMLID_1491_" class="st15" d="M804.4,790.9c0.4-2.8-1.5-5.4-4.2-5.8c-2.8-0.4-5.4,1.5-5.8,4.2h0c-0.4,2.8,1.5,5.4,4.2,5.8
		c0.3,0,0.5,0.1,0.8,0.1C801.8,795.2,804,793.4,804.4,790.9"/>
	<path id="XMLID_1490_" class="st15" d="M1006.3,786.9c2.7-0.7,4.4-3.4,3.8-6.1c-0.7-2.7-3.4-4.4-6.2-3.8c-2.7,0.7-4.4,3.4-3.8,6.2
		c0.6,2.3,2.7,3.9,5,3.9C1005.5,787,1005.9,787,1006.3,786.9"/>
	<path id="XMLID_1489_" class="st15" d="M809.3,772c1-2.6-0.4-5.6-3-6.6c-2.6-1-5.6,0.4-6.6,3c-1,2.6,0.4,5.6,3,6.6
		c0.6,0.2,1.2,0.3,1.8,0.3C806.6,775.3,808.6,774,809.3,772"/>
	<path id="XMLID_1488_" class="st15" d="M1000.5,767.1c2.6-1.2,3.7-4.2,2.5-6.8c-1.2-2.6-4.2-3.7-6.8-2.5c-2.6,1.2-3.7,4.2-2.5,6.8
		c0.9,1.9,2.7,3,4.6,3C999.1,767.6,999.8,767.4,1000.5,767.1"/>
	<path id="XMLID_1487_" class="st15" d="M817.9,754.4c1.5-2.4,0.7-5.5-1.7-7c-2.4-1.5-5.5-0.7-7,1.7c-1.5,2.4-0.7,5.5,1.7,7
		c0.8,0.5,1.8,0.8,2.7,0.8C815.3,756.8,816.9,756,817.9,754.4"/>
	<path id="XMLID_1486_" class="st15" d="M990.9,748.9c2.3-1.7,2.8-4.9,1.1-7.1c-1.7-2.3-4.8-2.8-7.1-1.1c-2.3,1.7-2.8,4.9-1.1,7.1
		c1,1.4,2.5,2.1,4.1,2.1C989,749.9,990,749.5,990.9,748.9"/>
	<path id="XMLID_1485_" class="st15" d="M829.7,738.8L829.7,738.8c1.9-2.1,1.8-5.3-0.3-7.2c-2.1-1.9-5.3-1.8-7.2,0.3
		c-1.9,2.1-1.8,5.3,0.3,7.2c1,0.9,2.2,1.3,3.5,1.3C827.3,740.4,828.7,739.9,829.7,738.8"/>
	<path id="XMLID_1484_" class="st15" d="M978,732.9c1.9-2.1,1.8-5.3-0.3-7.2c-2.1-1.9-5.3-1.8-7.2,0.3c-1.9,2.1-1.8,5.3,0.3,7.2
		c1,0.9,2.2,1.4,3.5,1.4C975.6,734.5,977,734,978,732.9"/>
	<path id="XMLID_1483_" class="st15" d="M844.3,725.8c2.3-1.7,2.8-4.8,1.1-7.1c-1.7-2.3-4.9-2.8-7.1-1.1c-2.3,1.7-2.8,4.9-1.1,7.1
		c1,1.4,2.6,2.1,4.1,2.1C842.4,726.7,843.4,726.4,844.3,725.8"/>
	<path id="XMLID_1482_" class="st15" d="M962.2,719.7c1.5-2.4,0.7-5.5-1.7-7c-2.4-1.5-5.5-0.7-7,1.7c-1.5,2.4-0.7,5.5,1.7,7
		c0.8,0.5,1.7,0.8,2.7,0.8C959.5,722.1,961.2,721.2,962.2,719.7"/>
	<path id="XMLID_1481_" class="st15" d="M861.2,715.9c2.6-1.2,3.7-4.2,2.5-6.8c-1.2-2.6-4.2-3.7-6.8-2.5c-2.6,1.2-3.7,4.2-2.5,6.8
		c0.9,1.9,2.7,3,4.6,3C859.8,716.3,860.5,716.2,861.2,715.9"/>
	<path id="XMLID_1480_" class="st15" d="M944.1,709.8c1-2.6-0.4-5.6-3-6.6c-2.6-1-5.6,0.4-6.6,3c-1,2.6,0.4,5.6,3,6.5
		c0.6,0.2,1.2,0.3,1.8,0.3C941.4,713.1,943.4,711.8,944.1,709.8"/>
	<path id="XMLID_1479_" class="st15" d="M879.7,709.4c2.7-0.7,4.4-3.4,3.8-6.1c-0.7-2.7-3.4-4.4-6.2-3.8c-2.7,0.7-4.4,3.4-3.8,6.2
		c0.6,2.3,2.7,3.9,5,3.9C878.9,709.6,879.3,709.5,879.7,709.4"/>
	<path id="XMLID_1478_" class="st15" d="M924.5,703.6c0.4-2.8-1.5-5.4-4.3-5.8c-2.8-0.4-5.4,1.5-5.8,4.2c-0.4,2.8,1.5,5.4,4.3,5.8
		c0.3,0,0.5,0.1,0.8,0.1C921.9,707.9,924.1,706.1,924.5,703.6"/>
	<path id="XMLID_1477_" class="st15" d="M899.1,706.8L899.1,706.8c2.8-0.1,5-2.5,4.9-5.3c-0.1-2.8-2.5-5-5.3-4.9
		c-2.8,0.1-5,2.5-4.9,5.3c0.1,2.7,2.4,4.9,5.1,4.9H899.1z"/>
	<path id="XMLID_1476_" class="st15" d="M813.2,923.2c1.8-2.2,1.4-5.4-0.8-7.2c-2.2-1.8-5.4-1.4-7.2,0.8c-1.8,2.2-1.4,5.4,0.8,7.2
		c0.9,0.8,2.1,1.1,3.2,1.1C810.7,925.1,812.2,924.4,813.2,923.2"/>
	<path id="XMLID_1475_" class="st15" d="M798.3,909.1c1.8-2.2,1.4-5.4-0.8-7.2c-2.2-1.8-5.4-1.4-7.2,0.8c-1.8,2.2-1.4,5.4,0.8,7.2
		c0.9,0.8,2.1,1.1,3.2,1.1C795.8,911,797.3,910.3,798.3,909.1"/>
	<path id="XMLID_1474_" class="st15" d="M785.5,893c1.8-2.2,1.4-5.4-0.8-7.2c-2.2-1.8-5.4-1.4-7.2,0.8c-1.8,2.2-1.4,5.4,0.8,7.2
		c0.9,0.8,2.1,1.1,3.2,1.1C783,894.9,784.4,894.2,785.5,893"/>
	<path id="XMLID_1473_" class="st15" d="M775.2,875.2c1.8-2.2,1.4-5.4-0.8-7.2c-2.2-1.8-5.4-1.4-7.2,0.8c-1.8,2.2-1.4,5.4,0.8,7.2
		c0.9,0.8,2.1,1.1,3.2,1.1C772.8,877.1,774.2,876.5,775.2,875.2"/>
	<path id="XMLID_1472_" class="st15" d="M767.4,856.1c1.8-2.2,1.4-5.4-0.8-7.2c-2.2-1.8-5.4-1.4-7.2,0.8c-1.8,2.2-1.4,5.4,0.8,7.2
		c0.9,0.8,2.1,1.1,3.2,1.1C764.9,858,766.4,857.3,767.4,856.1"/>
	<path id="XMLID_1471_" class="st15" d="M762.3,836.3c1.8-2.2,1.4-5.4-0.8-7.2c-2.2-1.8-5.4-1.4-7.2,0.8c-1.8,2.2-1.4,5.4,0.8,7.2
		c0.9,0.8,2.1,1.1,3.2,1.1C759.8,838.2,761.3,837.5,762.3,836.3"/>
	<path id="XMLID_1470_" class="st15" d="M740.1,837.1c1.8-2.2,1.4-5.4-0.8-7.2c-2.2-1.8-5.4-1.4-7.2,0.8c-1.8,2.2-1.4,5.4,0.8,7.2
		c0.9,0.8,2.1,1.1,3.2,1.1C737.6,839,739.1,838.3,740.1,837.1"/>
	<path id="XMLID_1469_" class="st15" d="M744.6,857c1.8-2.2,1.4-5.4-0.8-7.2c-2.2-1.8-5.4-1.4-7.2,0.8c-1.8,2.2-1.4,5.4,0.8,7.2
		c0.9,0.8,2.1,1.1,3.2,1.1C742.1,858.9,743.6,858.2,744.6,857"/>
	<path id="XMLID_1468_" class="st15" d="M751.4,876.4c1.8-2.2,1.4-5.4-0.8-7.2c-2.2-1.8-5.4-1.4-7.2,0.8c-1.8,2.2-1.4,5.4,0.8,7.2
		c0.9,0.8,2.1,1.1,3.2,1.1C749,878.3,750.4,877.7,751.4,876.4"/>
	<path id="XMLID_1467_" class="st15" d="M722.5,916.7c1.8-2.2,1.4-5.4-0.8-7.2c-2.2-1.8-5.4-1.4-7.2,0.8c-1.8,2.2-1.4,5.4,0.8,7.2
		c0.9,0.8,2.1,1.1,3.2,1.1C720,918.6,721.5,918,722.5,916.7"/>
	<path id="XMLID_1466_" class="st15" d="M736.4,896c1.8-2.2,1.4-5.4-0.8-7.2c-2.2-1.8-5.4-1.4-7.2,0.8c-1.8,2.2-1.4,5.4,0.8,7.2
		c0.9,0.8,2.1,1.1,3.2,1.1C733.9,897.9,735.4,897.2,736.4,896"/>
	<path id="XMLID_1465_" class="st15" d="M746.3,913.8c1.8-2.2,1.4-5.4-0.8-7.2c-2.2-1.8-5.4-1.4-7.2,0.8c-1.8,2.2-1.4,5.4,0.8,7.2
		c0.9,0.8,2.1,1.1,3.2,1.1C743.8,915.7,745.3,915,746.3,913.8"/>
	<path id="XMLID_1464_" class="st15" d="M758.1,929.8c1.8-2.2,1.4-5.4-0.8-7.2c-2.2-1.8-5.4-1.4-7.2,0.8c-1.8,2.2-1.4,5.4,0.8,7.2
		c0.9,0.8,2.1,1.1,3.2,1.1C755.6,931.7,757.1,931.1,758.1,929.8"/>
	<path id="XMLID_1463_" class="st15" d="M771.8,945.3c1.8-2.2,1.4-5.4-0.8-7.2c-2.2-1.8-5.4-1.4-7.2,0.8c-1.8,2.2-1.4,5.4,0.8,7.2
		c0.9,0.8,2.1,1.1,3.2,1.1C769.4,947.2,770.8,946.5,771.8,945.3"/>
	<path id="XMLID_1462_" class="st15" d="M746.3,950.4c1.8-2.2,1.4-5.4-0.8-7.2c-2.2-1.8-5.4-1.4-7.2,0.8c-1.8,2.2-1.4,5.4,0.8,7.2
		c0.9,0.8,2.1,1.1,3.2,1.1C743.8,952.3,745.3,951.6,746.3,950.4"/>
	<path id="XMLID_1461_" class="st15" d="M733.3,934.1c1.8-2.2,1.4-5.4-0.8-7.2c-2.2-1.8-5.4-1.4-7.2,0.8c-1.8,2.2-1.4,5.4,0.8,7.2
		c0.9,0.8,2.1,1.1,3.2,1.1C730.8,936,732.3,935.3,733.3,934.1"/>
	<path id="XMLID_1460_" class="st15" d="M760.5,965c1.8-2.2,1.4-5.4-0.8-7.2c-2.2-1.8-5.4-1.4-7.2,0.8c-1.8,2.2-1.4,5.4,0.8,7.2
		c0.9,0.8,2.1,1.1,3.2,1.1C758,966.9,759.5,966.2,760.5,965"/>
	<path id="XMLID_1459_" class="st15" d="M776.1,978.5c1.8-2.2,1.4-5.4-0.8-7.2c-2.2-1.8-5.4-1.4-7.2,0.8c-1.8,2.2-1.4,5.4,0.8,7.2
		c0.9,0.8,2.1,1.1,3.2,1.1C773.7,980.4,775.1,979.8,776.1,978.5"/>
	<path id="XMLID_1458_" class="st15" d="M787,958.9c1.8-2.2,1.4-5.4-0.8-7.2c-2.2-1.8-5.4-1.4-7.2,0.8c-1.8,2.2-1.4,5.4,0.8,7.2
		c0.9,0.8,2.1,1.1,3.2,1.1C784.6,960.8,786,960.2,787,958.9"/>
	<path id="XMLID_1457_" class="st15" d="M803.5,970.8c1.8-2.2,1.4-5.4-0.8-7.2c-2.2-1.8-5.4-1.4-7.2,0.8c-1.8,2.2-1.4,5.4,0.8,7.2
		c0.9,0.8,2.1,1.1,3.2,1.1C801.1,972.7,802.5,972,803.5,970.8"/>
	<path id="XMLID_1456_" class="st15" d="M793.2,989.9c1.8-2.2,1.4-5.4-0.8-7.2c-2.2-1.8-5.4-1.4-7.2,0.8c-1.8,2.2-1.4,5.4,0.8,7.2
		c0.9,0.8,2.1,1.1,3.2,1.1C790.7,991.8,792.2,991.2,793.2,989.9"/>
	<path id="XMLID_1455_" class="st15" d="M800.2,941.2c1.8-2.2,1.4-5.4-0.8-7.2c-2.2-1.8-5.4-1.4-7.2,0.8c-1.8,2.2-1.4,5.4,0.8,7.2
		c0.9,0.8,2.1,1.1,3.2,1.1C797.7,943.1,799.2,942.5,800.2,941.2"/>
	<path id="XMLID_1454_" class="st15" d="M816.7,952.9c1.8-2.2,1.4-5.4-0.8-7.2c-2.2-1.8-5.4-1.4-7.2,0.8c-1.8,2.2-1.4,5.4,0.8,7.2
		c0.9,0.8,2.1,1.1,3.2,1.1C814.2,954.8,815.7,954.2,816.7,952.9"/>
	<path id="XMLID_1453_" class="st15" d="M829.8,935c1.8-2.2,1.4-5.4-0.8-7.2c-2.2-1.8-5.4-1.4-7.2,0.8c-1.8,2.2-1.4,5.4,0.8,7.2
		c0.9,0.8,2.1,1.1,3.2,1.1C827.3,936.9,828.8,936.2,829.8,935"/>
	<path id="XMLID_1452_" class="st15" d="M848,944.4c1.8-2.2,1.4-5.4-0.8-7.2c-2.2-1.8-5.4-1.4-7.2,0.8c-1.8,2.2-1.4,5.4,0.8,7.2
		c0.9,0.8,2.1,1.1,3.2,1.1C845.6,946.3,847,945.6,848,944.4"/>
	<path id="XMLID_1451_" class="st15" d="M834.7,962.7c1.8-2.2,1.4-5.4-0.8-7.2c-2.2-1.8-5.4-1.4-7.2,0.8c-1.8,2.2-1.4,5.4,0.8,7.2
		c0.9,0.8,2.1,1.1,3.2,1.1C832.2,964.6,833.7,963.9,834.7,962.7"/>
	<path id="XMLID_1450_" class="st15" d="M821.2,980.6c1.8-2.2,1.4-5.4-0.8-7.2c-2.2-1.8-5.4-1.4-7.2,0.8c-1.8,2.2-1.4,5.4,0.8,7.2
		c0.9,0.8,2.1,1.1,3.2,1.1C818.8,982.5,820.2,981.8,821.2,980.6"/>
	<path id="XMLID_1449_" class="st15" d="M811,1000.5c1.8-2.2,1.4-5.4-0.8-7.2c-2.2-1.8-5.4-1.4-7.2,0.8c-1.8,2.2-1.4,5.4,0.8,7.2
		c0.9,0.8,2.1,1.1,3.2,1.1C808.6,1002.4,810,1001.7,811,1000.5"/>
	<path id="XMLID_1448_" class="st15" d="M839.8,988.7c1.8-2.2,1.4-5.4-0.8-7.2c-2.2-1.8-5.4-1.4-7.2,0.8c-1.8,2.2-1.4,5.4,0.8,7.2
		c0.9,0.8,2.1,1.1,3.2,1.1C837.3,990.6,838.8,990,839.8,988.7"/>
	<path id="XMLID_1447_" class="st15" d="M829.9,1008.8c1.8-2.2,1.4-5.4-0.8-7.2c-2.2-1.8-5.4-1.4-7.2,0.8c-1.8,2.2-1.4,5.4,0.8,7.2
		c0.9,0.8,2.1,1.1,3.2,1.1C827.4,1010.7,828.9,1010.1,829.9,1008.8"/>
	<path id="XMLID_1446_" class="st15" d="M853.6,970.4c1.8-2.2,1.4-5.4-0.8-7.2c-2.2-1.8-5.4-1.4-7.2,0.8c-1.8,2.2-1.4,5.4,0.8,7.2
		c0.9,0.8,2.1,1.1,3.2,1.1C851.1,972.3,852.6,971.6,853.6,970.4"/>
	<path id="XMLID_1445_" class="st15" d="M867.4,951.4c1.8-2.2,1.4-5.4-0.8-7.2c-2.2-1.8-5.4-1.4-7.2,0.8c-1.8,2.2-1.4,5.4,0.8,7.2
		c0.9,0.8,2.1,1.1,3.2,1.1C864.9,953.3,866.4,952.7,867.4,951.4"/>
	<path id="XMLID_1444_" class="st15" d="M873.2,975.9c1.8-2.2,1.4-5.4-0.8-7.2c-2.2-1.8-5.4-1.4-7.2,0.8c-1.8,2.2-1.4,5.4,0.8,7.2
		c0.9,0.8,2.1,1.1,3.2,1.1C870.7,977.8,872.2,977.2,873.2,975.9"/>
	<path id="XMLID_1443_" class="st15" d="M879.2,999c1.8-2.2,1.4-5.4-0.8-7.2c-2.2-1.8-5.4-1.4-7.2,0.8c-1.8,2.2-1.4,5.4,0.8,7.2
		c0.9,0.8,2.1,1.1,3.2,1.1C876.7,1000.9,878.2,1000.2,879.2,999"/>
	<path id="XMLID_1442_" class="st15" d="M869.6,1019.8c1.8-2.2,1.4-5.4-0.8-7.2c-2.2-1.8-5.4-1.4-7.2,0.8c-1.8,2.2-1.4,5.4,0.8,7.2
		c0.9,0.8,2.1,1.1,3.2,1.1C867.1,1021.7,868.6,1021.1,869.6,1019.8"/>
	<path id="XMLID_1441_" class="st15" d="M859.4,995c1.8-2.2,1.4-5.4-0.8-7.2c-2.2-1.8-5.4-1.4-7.2,0.8c-1.8,2.2-1.4,5.4,0.8,7.2
		c0.9,0.8,2.1,1.1,3.2,1.1C856.9,996.9,858.4,996.3,859.4,995"/>
	<path id="XMLID_1440_" class="st15" d="M849.5,1015.3c1.8-2.2,1.4-5.4-0.8-7.2c-2.2-1.8-5.4-1.4-7.2,0.8c-1.8,2.2-1.4,5.4,0.8,7.2
		c0.9,0.8,2.1,1.1,3.2,1.1C847,1017.2,848.5,1016.6,849.5,1015.3"/>
	<path id="XMLID_1439_" class="st15" d="M887.6,955.5c1.8-2.2,1.4-5.4-0.8-7.2c-2.2-1.8-5.4-1.4-7.2,0.8c-1.8,2.2-1.4,5.4,0.8,7.2
		c0.9,0.8,2.1,1.1,3.2,1.1C885.1,957.4,886.6,956.7,887.6,955.5"/>
	<path id="XMLID_1438_" class="st15" d="M893.8,978.5c1.8-2.2,1.4-5.4-0.8-7.2c-2.2-1.8-5.4-1.4-7.2,0.8c-1.8,2.2-1.4,5.4,0.8,7.2
		c0.9,0.8,2.1,1.1,3.2,1.1C891.3,980.4,892.8,979.8,893.8,978.5"/>
	<path id="XMLID_1437_" class="st15" d="M899.5,1001.1c1.8-2.2,1.4-5.4-0.8-7.2c-2.2-1.8-5.4-1.4-7.2,0.8c-1.8,2.2-1.4,5.4,0.8,7.2
		c0.9,0.8,2.1,1.1,3.2,1.1C897.1,1003,898.5,1002.4,899.5,1001.1"/>
	<path id="XMLID_1436_" class="st15" d="M889.7,1022.4c1.8-2.2,1.4-5.4-0.8-7.2c-2.2-1.8-5.4-1.4-7.2,0.8c-1.8,2.2-1.4,5.4,0.8,7.2
		c0.9,0.8,2.1,1.1,3.2,1.1C887.2,1024.3,888.7,1023.6,889.7,1022.4"/>
	<path id="XMLID_1435_" class="st15" d="M910.7,1023.2c1.8-2.2,1.4-5.4-0.8-7.2c-2.2-1.8-5.4-1.4-7.2,0.8c-1.8,2.2-1.4,5.4,0.8,7.2
		c0.9,0.8,2.1,1.1,3.2,1.1C908.2,1025.1,909.7,1024.5,910.7,1023.2"/>
	<path id="XMLID_1434_" class="st15" d="M919.9,1000.6c1.8-2.2,1.4-5.4-0.8-7.2c-2.2-1.8-5.4-1.4-7.2,0.8c-1.8,2.2-1.4,5.4,0.8,7.2
		c0.9,0.8,2.1,1.1,3.2,1.1C917.4,1002.5,918.9,1001.9,919.9,1000.6"/>
	<path id="XMLID_1433_" class="st15" d="M940.1,998c1.8-2.2,1.4-5.4-0.8-7.2c-2.2-1.8-5.4-1.4-7.2,0.8c-1.8,2.2-1.4,5.4,0.8,7.2
		c0.9,0.8,2.1,1.1,3.2,1.1C937.6,999.9,939.1,999.3,940.1,998"/>
	<path id="XMLID_1432_" class="st15" d="M908.1,956.9c1.8-2.2,1.4-5.4-0.8-7.2c-2.2-1.8-5.4-1.4-7.2,0.8c-1.8,2.2-1.4,5.4,0.8,7.2
		c0.9,0.8,2.1,1.1,3.2,1.1C905.7,958.8,907.1,958.1,908.1,956.9"/>
	<path id="XMLID_1431_" class="st15" d="M914.2,978.5c1.8-2.2,1.4-5.4-0.8-7.2c-2.2-1.8-5.4-1.4-7.2,0.8c-1.8,2.2-1.4,5.4,0.8,7.2
		c0.9,0.8,2.1,1.1,3.2,1.1C911.7,980.4,913.2,979.8,914.2,978.5"/>
	<path id="XMLID_1430_" class="st15" d="M928.5,955.2c1.8-2.2,1.4-5.4-0.8-7.2c-2.2-1.8-5.4-1.4-7.2,0.8c-1.8,2.2-1.4,5.4,0.8,7.2
		c0.9,0.8,2.1,1.1,3.2,1.1C926,957.1,927.5,956.5,928.5,955.2"/>
	<path id="XMLID_1429_" class="st15" d="M934.3,976.6c1.8-2.2,1.4-5.4-0.8-7.2c-2.2-1.8-5.4-1.4-7.2,0.8c-1.8,2.2-1.4,5.4,0.8,7.2
		c0.9,0.8,2.1,1.1,3.2,1.1C931.8,978.5,933.3,977.9,934.3,976.6"/>
	<path id="XMLID_1428_" class="st15" d="M948.5,950.9c1.8-2.2,1.4-5.4-0.8-7.2c-2.2-1.8-5.4-1.4-7.2,0.8c-1.8,2.2-1.4,5.4,0.8,7.2
		c0.9,0.8,2.1,1.1,3.2,1.1C946,952.8,947.5,952.2,948.5,950.9"/>
	<path id="XMLID_1427_" class="st15" d="M954.3,972.2c1.8-2.2,1.4-5.4-0.8-7.2c-2.2-1.8-5.4-1.4-7.2,0.8c-1.8,2.2-1.4,5.4,0.8,7.2
		c0.9,0.8,2.1,1.1,3.2,1.1C951.8,974.1,953.3,973.4,954.3,972.2"/>
	<path id="XMLID_1426_" class="st15" d="M967.5,943.6c1.8-2.2,1.4-5.4-0.8-7.2c-2.2-1.8-5.4-1.4-7.2,0.8c-1.8,2.2-1.4,5.4,0.8,7.2
		c0.9,0.8,2.1,1.1,3.2,1.1C965.1,945.5,966.5,944.9,967.5,943.6"/>
	<path id="XMLID_1425_" class="st15" d="M985.6,934.2c1.8-2.2,1.4-5.4-0.8-7.2c-2.2-1.8-5.4-1.4-7.2,0.8c-1.8,2.2-1.4,5.4,0.8,7.2
		c0.9,0.8,2.1,1.1,3.2,1.1C983.2,936.1,984.6,935.4,985.6,934.2"/>
	<path id="XMLID_1424_" class="st15" d="M760.4,894.6c1.8-2.2,1.4-5.4-0.8-7.2c-2.2-1.8-5.4-1.4-7.2,0.8c-1.8,2.2-1.4,5.4,0.8,7.2
		c0.9,0.8,2.1,1.1,3.2,1.1C758,896.5,759.4,895.9,760.4,894.6"/>
	<path id="XMLID_1423_" class="st15" d="M771.8,911.6c1.8-2.2,1.4-5.4-0.8-7.2c-2.2-1.8-5.4-1.4-7.2,0.8c-1.8,2.2-1.4,5.4,0.8,7.2
		c0.9,0.8,2.1,1.1,3.2,1.1C769.4,913.5,770.8,912.9,771.8,911.6"/>
	<path id="XMLID_1422_" class="st15" d="M785.2,927.2c1.8-2.2,1.4-5.4-0.8-7.2c-2.2-1.8-5.4-1.4-7.2,0.8c-1.8,2.2-1.4,5.4,0.8,7.2
		c0.9,0.8,2.1,1.1,3.2,1.1C782.7,929.1,784.1,928.4,785.2,927.2"/>
	<path id="XMLID_1421_" class="st15" d="M957.6,669.5c0.8-2.7-0.8-5.5-3.5-6.3c-2.7-0.8-5.5,0.8-6.3,3.5c-0.8,2.7,0.8,5.5,3.5,6.3v0
		c0.5,0.1,0.9,0.2,1.4,0.2C955,673.2,957,671.7,957.6,669.5"/>
	<path id="XMLID_1420_" class="st15" d="M976.1,678.4c1.2-2.6,0.1-5.6-2.4-6.8h0c-2.6-1.2-5.6-0.1-6.8,2.4c-1.2,2.6-0.1,5.6,2.5,6.8
		h0c0.7,0.3,1.4,0.5,2.2,0.5C973.4,681.3,975.2,680.3,976.1,678.4"/>
	<path id="XMLID_1419_" class="st15" d="M993.5,689.4c1.2-2.6,0.1-5.6-2.4-6.8h0c-2.6-1.2-5.6-0.1-6.8,2.5c-1.2,2.6-0.1,5.6,2.5,6.8
		h0c0.7,0.3,1.4,0.5,2.2,0.5C990.8,692.4,992.6,691.3,993.5,689.4"/>
	<path id="XMLID_1418_" class="st15" d="M1009.3,702.5c1.2-2.6,0.1-5.6-2.4-6.8h0c-2.6-1.2-5.6-0.1-6.8,2.5
		c-1.2,2.6-0.1,5.6,2.5,6.8h0c0.7,0.3,1.4,0.5,2.2,0.5C1006.7,705.4,1008.5,704.3,1009.3,702.5"/>
	<path id="XMLID_1417_" class="st15" d="M1029.7,691.6c1.2-2.6,0.1-5.6-2.4-6.8h0c-2.6-1.2-5.6-0.1-6.8,2.4
		c-1.2,2.6-0.1,5.6,2.5,6.8h0c0.7,0.3,1.4,0.5,2.2,0.5C1027,694.5,1028.8,693.4,1029.7,691.6"/>
	<path id="XMLID_1416_" class="st15" d="M1023.1,717.4c1.2-2.6,0.1-5.6-2.4-6.8h0c-2.6-1.2-5.6-0.1-6.8,2.5
		c-1.2,2.6-0.1,5.6,2.5,6.8h0c0.7,0.3,1.4,0.5,2.2,0.5C1020.4,720.3,1022.2,719.2,1023.1,717.4"/>
	<path id="XMLID_1415_" class="st15" d="M1034.8,734.4c1.2-2.6,0.1-5.6-2.4-6.8h0c-2.6-1.2-5.6-0.1-6.8,2.5
		c-1.2,2.6-0.1,5.6,2.5,6.8h0c0.7,0.3,1.4,0.5,2.2,0.5C1032.1,737.4,1034,736.3,1034.8,734.4"/>
	<path id="XMLID_1414_" class="st15" d="M1043.8,752.7c1.2-2.6,0.1-5.6-2.4-6.8h0c-2.6-1.2-5.6-0.1-6.8,2.5
		c-1.2,2.6-0.1,5.6,2.5,6.8h0c0.7,0.3,1.4,0.5,2.2,0.5C1041.1,755.6,1042.9,754.5,1043.8,752.7"/>
	<path id="XMLID_1413_" class="st15" d="M1050.2,772.4c1.2-2.6,0.1-5.6-2.4-6.8h0c-2.6-1.2-5.6-0.1-6.8,2.4
		c-1.2,2.6-0.1,5.6,2.5,6.8h0c0.7,0.3,1.4,0.5,2.2,0.5C1047.5,775.3,1049.3,774.2,1050.2,772.4"/>
	<path id="XMLID_1412_" class="st15" d="M1070.2,761.7c1.2-2.6,0.1-5.6-2.4-6.8h0c-2.6-1.2-5.6-0.1-6.8,2.5
		c-1.2,2.6-0.1,5.6,2.5,6.8h0c0.7,0.3,1.4,0.5,2.2,0.5C1067.5,764.6,1069.4,763.5,1070.2,761.7"/>
	<path id="XMLID_1411_" class="st15" d="M1063.4,742.3c1.2-2.6,0.1-5.6-2.4-6.8h0c-2.6-1.2-5.6-0.1-6.8,2.4
		c-1.2,2.6-0.1,5.6,2.5,6.8h0c0.7,0.3,1.4,0.5,2.2,0.5C1060.7,745.2,1062.5,744.2,1063.4,742.3"/>
	<path id="XMLID_1410_" class="st15" d="M1054.2,724c1.2-2.6,0.1-5.6-2.4-6.8h0c-2.6-1.2-5.6-0.1-6.8,2.4c-1.2,2.6-0.1,5.6,2.5,6.8
		h0c0.7,0.3,1.4,0.5,2.2,0.5C1051.5,727,1053.3,725.9,1054.2,724"/>
	<path id="XMLID_1409_" class="st15" d="M1043,707.2c1.2-2.6,0.1-5.6-2.4-6.8h0c-2.6-1.2-5.6-0.1-6.8,2.5c-1.2,2.6-0.1,5.6,2.5,6.8
		h0c0.7,0.3,1.4,0.5,2.2,0.5C1040.3,710.1,1042.1,709,1043,707.2"/>
	<path id="XMLID_1408_" class="st15" d="M1073.6,713.8c1.2-2.6,0.1-5.6-2.4-6.8h0c-2.6-1.2-5.6-0.1-6.8,2.4
		c-1.2,2.6-0.1,5.6,2.5,6.8h0c0.7,0.3,1.4,0.5,2.2,0.5C1070.9,716.8,1072.8,715.7,1073.6,713.8"/>
	<path id="XMLID_1407_" class="st15" d="M1083,731.7c1.2-2.6,0.1-5.6-2.4-6.8h0c-2.6-1.2-5.6-0.1-6.8,2.4c-1.2,2.6-0.1,5.6,2.5,6.8
		h0c0.7,0.3,1.4,0.5,2.2,0.5C1080.3,734.6,1082.1,733.5,1083,731.7"/>
	<path id="XMLID_1406_" class="st15" d="M1090.2,750.7c1.2-2.6,0.1-5.6-2.4-6.8h0c-2.6-1.2-5.6-0.1-6.8,2.4
		c-1.2,2.6-0.1,5.6,2.5,6.8h0c0.7,0.3,1.4,0.5,2.2,0.5C1087.5,753.6,1089.3,752.5,1090.2,750.7"/>
	<path id="XMLID_1405_" class="st15" d="M1053.8,792.5c1.2-2.6,0.1-5.6-2.4-6.8h0c-2.6-1.2-5.6-0.1-6.8,2.4
		c-1.2,2.6-0.1,5.6,2.5,6.8h0c0.7,0.3,1.4,0.5,2.2,0.5C1051.1,795.5,1053,794.4,1053.8,792.5"/>
	<path id="XMLID_1404_" class="st15" d="M1054.8,813.2c1.2-2.6,0.1-5.6-2.4-6.8h0c-2.6-1.2-5.6-0.1-6.8,2.4
		c-1.2,2.6-0.1,5.6,2.5,6.8h0c0.7,0.3,1.4,0.5,2.2,0.5C1052.1,816.1,1053.9,815,1054.8,813.2"/>
	<path id="XMLID_1403_" class="st15" d="M1052.6,833.4c1.2-2.6,0.1-5.6-2.4-6.8h0c-2.6-1.2-5.6-0.1-6.8,2.4
		c-1.2,2.6-0.1,5.6,2.5,6.8h0c0.7,0.3,1.4,0.5,2.2,0.5C1049.9,836.3,1051.7,835.3,1052.6,833.4"/>
	<path id="XMLID_1402_" class="st15" d="M1052.6,833.4c1.2-2.6,0.1-5.6-2.4-6.8h0c-2.6-1.2-5.6-0.1-6.8,2.4
		c-1.2,2.6-0.1,5.6,2.5,6.8h0c0.7,0.3,1.4,0.5,2.2,0.5C1049.9,836.3,1051.7,835.3,1052.6,833.4"/>
</g>
</svg>
