<?xml version="1.0" encoding="UTF-8"?>
<svg width="210px" height="50px" viewBox="0 0 210 50" version="1.1" xmlns="http://www.w3.org/2000/svg" xmlns:xlink="http://www.w3.org/1999/xlink">
    <!-- Generator: sketchtool 51.3 (57544) - http://www.bohemiancoding.com/sketch -->
    <title>F196721A-652D-4F80-B40A-4B99EB1E9F4C@1.5x</title>
    <desc>Created with sketchtool.</desc>
    <defs>
        <rect id="path-1" x="0" y="0" width="222.818011" height="50.9626"></rect>
        <polygon id="path-3" points="0.117 15.5804444 0.432 15.8204444 17.6445 1.68533333 15.1632 0.589333333"></polygon>
        <linearGradient x1="-29.1768269%" y1="-46.8100776%" x2="158.317451%" y2="183.363065%" id="linearGradient-5">
            <stop stop-color="#2EC000" offset="0%"></stop>
            <stop stop-color="#2CBF06" offset="4.29%"></stop>
            <stop stop-color="#28BB18" offset="10.12%"></stop>
            <stop stop-color="#21B534" offset="16.84%"></stop>
            <stop stop-color="#17AD5C" offset="24.21%"></stop>
            <stop stop-color="#0BA38E" offset="32.03%"></stop>
            <stop stop-color="#009ABA" offset="38.01%"></stop>
            <stop stop-color="#092270" offset="100%"></stop>
        </linearGradient>
        <polygon id="path-6" points="0.511923077 1.72363636 15.9483077 9.14181818 21.384 8.43454545 1.62715385 0.727272727"></polygon>
        <linearGradient x1="-48.7718933%" y1="-72.6233722%" x2="136.331115%" y2="156.452331%" id="linearGradient-8">
            <stop stop-color="#2EC000" offset="0%"></stop>
            <stop stop-color="#2CBF06" offset="4.24%"></stop>
            <stop stop-color="#28BB18" offset="10%"></stop>
            <stop stop-color="#21B534" offset="16.64%"></stop>
            <stop stop-color="#17AD5C" offset="23.93%"></stop>
            <stop stop-color="#0BA38E" offset="31.66%"></stop>
            <stop stop-color="#009ABA" offset="37.57%"></stop>
            <stop stop-color="#092270" offset="100%"></stop>
        </linearGradient>
        <polygon id="path-9" points="0.6784 1.663 2.884 2.896 3.9384 1.8 1.4616 0.676"></polygon>
        <linearGradient x1="-364.676855%" y1="-461.253806%" x2="634.595028%" y2="771.152826%" id="linearGradient-11">
            <stop stop-color="#2EC000" offset="0%"></stop>
            <stop stop-color="#2CBF06" offset="4.24%"></stop>
            <stop stop-color="#28BB18" offset="10%"></stop>
            <stop stop-color="#21B534" offset="16.64%"></stop>
            <stop stop-color="#17AD5C" offset="23.93%"></stop>
            <stop stop-color="#0BA38E" offset="31.66%"></stop>
            <stop stop-color="#009ABA" offset="37.57%"></stop>
            <stop stop-color="#092270" offset="100%"></stop>
        </linearGradient>
        <polygon id="path-12" points="0.583333333 0.871 0.89 2.72 3.954 2.536 2.556 0.513"></polygon>
        <linearGradient x1="-590.297557%" y1="389.036707%" x2="507.964467%" y2="-192.162708%" id="linearGradient-14">
            <stop stop-color="#2EC000" offset="0%"></stop>
            <stop stop-color="#009ABA" offset="39.63%"></stop>
            <stop stop-color="#0284AC" offset="52.17%"></stop>
            <stop stop-color="#064B89" offset="78.16%"></stop>
            <stop stop-color="#092270" offset="95.49%"></stop>
            <stop stop-color="#092270" offset="100%"></stop>
        </linearGradient>
        <polygon id="path-15" points="0.527058824 0.879 2.51752941 2.5575 13.3131765 2.1615 8.11011765 0.042"></polygon>
        <linearGradient x1="-240.421914%" y1="213.313351%" x2="169.852557%" y2="-17.7917281%" id="linearGradient-17">
            <stop stop-color="#2EC000" offset="0%"></stop>
            <stop stop-color="#009ABA" offset="39.63%"></stop>
            <stop stop-color="#0284AC" offset="52.17%"></stop>
            <stop stop-color="#064B89" offset="78.16%"></stop>
            <stop stop-color="#092270" offset="95.49%"></stop>
            <stop stop-color="#092270" offset="100%"></stop>
        </linearGradient>
        <polygon id="path-18" points="0.302076923 1.51 0.673538462 2.265 10.2579231 1.809 9.96346154 0.127"></polygon>
        <linearGradient x1="-210.06846%" y1="197.758096%" x2="343.966967%" y2="-118.09776%" id="linearGradient-20">
            <stop stop-color="#2EC000" offset="0%"></stop>
            <stop stop-color="#009ABA" offset="39.63%"></stop>
            <stop stop-color="#0284AC" offset="52.17%"></stop>
            <stop stop-color="#064B89" offset="78.16%"></stop>
            <stop stop-color="#092270" offset="95.49%"></stop>
            <stop stop-color="#092270" offset="100%"></stop>
        </linearGradient>
        <polygon id="path-21" points="0.742 0.792 6.27025 2.9115 6.363 0.2085"></polygon>
        <linearGradient x1="-563.713488%" y1="366.000789%" x2="242.090799%" y2="-48.9104536%" id="linearGradient-23">
            <stop stop-color="#2EC000" offset="0%"></stop>
            <stop stop-color="#009ABA" offset="39.63%"></stop>
            <stop stop-color="#0284AC" offset="52.17%"></stop>
            <stop stop-color="#064B89" offset="78.16%"></stop>
            <stop stop-color="#092270" offset="95.49%"></stop>
            <stop stop-color="#092270" offset="100%"></stop>
        </linearGradient>
        <polygon id="path-24" points="0.351818182 0.277069767 19.9436364 36.3813256 17.7654545 26.4455349 1.63272727 0.228023256"></polygon>
        <linearGradient x1="-5.56388122%" y1="74.7154971%" x2="134.928106%" y2="12.3711336%" id="linearGradient-26">
            <stop stop-color="#2EC000" offset="0%"></stop>
            <stop stop-color="#009ABA" offset="39.62%"></stop>
            <stop stop-color="#0282AB" offset="49.49%"></stop>
            <stop stop-color="#064E8B" offset="72.76%"></stop>
            <stop stop-color="#082E77" offset="90.32%"></stop>
            <stop stop-color="#092270" offset="100%"></stop>
        </linearGradient>
        <polygon id="path-27" points="0.29025 0.9915 1.347 0.94875 1.01775 0.3825"></polygon>
        <linearGradient x1="-1435.78181%" y1="815.103013%" x2="2301.80018%" y2="-1103.45347%" id="linearGradient-29">
            <stop stop-color="#2EC000" offset="0%"></stop>
            <stop stop-color="#009ABA" offset="39.62%"></stop>
            <stop stop-color="#0282AB" offset="49.49%"></stop>
            <stop stop-color="#064E8B" offset="72.76%"></stop>
            <stop stop-color="#082E77" offset="90.32%"></stop>
            <stop stop-color="#092270" offset="100%"></stop>
        </linearGradient>
        <polygon id="path-30" points="1.33125 6.236125 2.90625 6.012125 2.118 2.31525 0.26175 0.226625"></polygon>
        <linearGradient x1="-192.588592%" y1="-361.857874%" x2="417.428491%" y2="677.545127%" id="linearGradient-32">
            <stop stop-color="#009ABA" offset="0%"></stop>
            <stop stop-color="#009ABA" offset="17.12%"></stop>
            <stop stop-color="#0094B6" offset="29.45%"></stop>
            <stop stop-color="#0282AB" offset="46.38%"></stop>
            <stop stop-color="#046599" offset="65.98%"></stop>
            <stop stop-color="#073D81" offset="87.41%"></stop>
            <stop stop-color="#092270" offset="100%"></stop>
        </linearGradient>
        <polygon id="path-33" points="0.104076923 0.696116279 5.53553846 27.306 10.7080769 36.3365814 1.97576923 0.619534884"></polygon>
        <linearGradient x1="-23.4461257%" y1="-70.8516709%" x2="96.0115142%" y2="125.727519%" id="linearGradient-35">
            <stop stop-color="#009ABA" offset="0%"></stop>
            <stop stop-color="#009ABA" offset="17.12%"></stop>
            <stop stop-color="#0094B6" offset="29.45%"></stop>
            <stop stop-color="#0282AB" offset="46.38%"></stop>
            <stop stop-color="#046599" offset="65.98%"></stop>
            <stop stop-color="#073D81" offset="87.41%"></stop>
            <stop stop-color="#092270" offset="100%"></stop>
        </linearGradient>
        <polygon id="path-36" points="0.58125 1.127 0.84225 2.809 2.50125 2.72 2.15625 0.871"></polygon>
        <linearGradient x1="-535.050915%" y1="-1025.84904%" x2="822.700986%" y2="1466.79802%" id="linearGradient-38">
            <stop stop-color="#009ABA" offset="0%"></stop>
            <stop stop-color="#009ABA" offset="17.12%"></stop>
            <stop stop-color="#0094B6" offset="29.45%"></stop>
            <stop stop-color="#0282AB" offset="46.38%"></stop>
            <stop stop-color="#046599" offset="65.98%"></stop>
            <stop stop-color="#073D81" offset="87.41%"></stop>
            <stop stop-color="#092270" offset="100%"></stop>
        </linearGradient>
        <polygon id="path-39" points="2.938 10.3916154 6.655 9.50146154 0.542 0.621076923"></polygon>
        <linearGradient x1="-218.025872%" y1="-407.462604%" x2="140.586982%" y2="204.944085%" id="linearGradient-41">
            <stop stop-color="#009ABA" offset="0%"></stop>
            <stop stop-color="#009ABA" offset="17.12%"></stop>
            <stop stop-color="#0094B6" offset="29.45%"></stop>
            <stop stop-color="#0282AB" offset="46.38%"></stop>
            <stop stop-color="#046599" offset="65.98%"></stop>
            <stop stop-color="#073D81" offset="87.41%"></stop>
            <stop stop-color="#092270" offset="100%"></stop>
        </linearGradient>
        <polygon id="path-42" points="0.818151515 0.443586207 25.9725758 23.2874483 28.5026061 22.0742069 3.56524242 0.339310345"></polygon>
        <linearGradient x1="102.800904%" y1="89.9346686%" x2="-81.4436207%" y2="-48.7257084%" id="linearGradient-44">
            <stop stop-color="#2EC000" offset="0%"></stop>
            <stop stop-color="#009ABA" offset="34.04%"></stop>
            <stop stop-color="#092270" offset="100%"></stop>
        </linearGradient>
        <polygon id="path-45" points="1.824 3.19025 5.834 6.573875 8.64 6.2755 0.926 0.02975"></polygon>
        <linearGradient x1="400.018906%" y1="313.697735%" x2="-318.9627%" y2="-226.366083%" id="linearGradient-47">
            <stop stop-color="#2EC000" offset="0%"></stop>
            <stop stop-color="#009ABA" offset="34.04%"></stop>
            <stop stop-color="#092270" offset="100%"></stop>
        </linearGradient>
        <polygon id="path-48" points="0.896 1.9456 2.735 3.3632 6.159 2.4952 3.712 0.6848"></polygon>
        <linearGradient x1="199.86176%" y1="162.642935%" x2="-1063.40198%" y2="-794.31338%" id="linearGradient-50">
            <stop stop-color="#2EC000" offset="0%"></stop>
            <stop stop-color="#009ABA" offset="34.04%"></stop>
            <stop stop-color="#092270" offset="100%"></stop>
        </linearGradient>
        <polygon id="path-51" points="0.834 0.513 2.931 2.536 6.057 2.41 3.64 0.172"></polygon>
        <linearGradient x1="685.619808%" y1="536.292613%" x2="-743.707564%" y2="-553.203253%" id="linearGradient-53">
            <stop stop-color="#2EC000" offset="0%"></stop>
            <stop stop-color="#009ABA" offset="34.04%"></stop>
            <stop stop-color="#092270" offset="100%"></stop>
        </linearGradient>
        <polygon id="path-54" points="0.349 0.94425 2.824 2.7345 1.926 0.0255"></polygon>
        <linearGradient x1="988.876931%" y1="750.935538%" x2="-813.234797%" y2="-591.647963%" id="linearGradient-56">
            <stop stop-color="#2EC000" offset="0%"></stop>
            <stop stop-color="#009ABA" offset="34.04%"></stop>
            <stop stop-color="#092270" offset="100%"></stop>
        </linearGradient>
        <polygon id="path-57" points="9.95785185 3.49909091 0.604592593 9.34181818 21.7205185 2.74818182 19.3396296 0.185454545"></polygon>
        <linearGradient x1="119.572119%" y1="16.2159056%" x2="-129.783304%" y2="137.566151%" id="linearGradient-59">
            <stop stop-color="#2EC000" offset="0%"></stop>
            <stop stop-color="#009ABA" offset="22.06%"></stop>
            <stop stop-color="#092270" offset="100%"></stop>
        </linearGradient>
        <polygon id="path-60" points="0.588 0.9632 2.9256 3.2184 3.3272 0.0952"></polygon>
        <linearGradient x1="236.25784%" y1="-26.0573447%" x2="-1092.68775%" y2="520.114309%" id="linearGradient-62">
            <stop stop-color="#2EC000" offset="0%"></stop>
            <stop stop-color="#009ABA" offset="22.06%"></stop>
            <stop stop-color="#092270" offset="100%"></stop>
        </linearGradient>
        <polygon id="path-63" points="0.327826087 9.92363636 11.4965217 6.22636364 19.9095652 1.30181818 18.7434783 0.126363636"></polygon>
        <linearGradient x1="151.528965%" y1="1.67038281%" x2="-167.310022%" y2="152.354697%" id="linearGradient-65">
            <stop stop-color="#2EC000" offset="0%"></stop>
            <stop stop-color="#009ABA" offset="25.66%"></stop>
            <stop stop-color="#0097B8" offset="26.94%"></stop>
            <stop stop-color="#046599" offset="51.03%"></stop>
            <stop stop-color="#074083" offset="72.09%"></stop>
            <stop stop-color="#082A75" offset="89.13%"></stop>
            <stop stop-color="#092270" offset="100%"></stop>
        </linearGradient>
        <polygon id="path-66" points="0.3255 1.673 1.284 2.856 2.775 1.744 2.16825 0.422"></polygon>
        <linearGradient x1="368.167894%" y1="-92.1459815%" x2="-1557.03594%" y2="757.042017%" id="linearGradient-68">
            <stop stop-color="#2EC000" offset="0%"></stop>
            <stop stop-color="#009ABA" offset="25.66%"></stop>
            <stop stop-color="#0097B8" offset="26.94%"></stop>
            <stop stop-color="#046599" offset="51.03%"></stop>
            <stop stop-color="#074083" offset="72.09%"></stop>
            <stop stop-color="#082A75" offset="89.13%"></stop>
            <stop stop-color="#092270" offset="100%"></stop>
        </linearGradient>
        <polygon id="path-69" points="0.148 2.85 0.992 3.64066667 7.288 1.29 8.106 0.149333333"></polygon>
        <linearGradient x1="123.265935%" y1="16.1170817%" x2="-700.269712%" y2="386.74254%" id="linearGradient-71">
            <stop stop-color="#2EC000" offset="0%"></stop>
            <stop stop-color="#009ABA" offset="25.66%"></stop>
            <stop stop-color="#0097B8" offset="26.94%"></stop>
            <stop stop-color="#046599" offset="51.03%"></stop>
            <stop stop-color="#074083" offset="72.09%"></stop>
            <stop stop-color="#082A75" offset="89.13%"></stop>
            <stop stop-color="#092270" offset="100%"></stop>
        </linearGradient>
        <polygon id="path-72" points="0.444 1.60425 1.5168 2.574 3.7696 1.392 2.7472 0.50475"></polygon>
        <linearGradient x1="352.930733%" y1="-85.2130426%" x2="-1219.40809%" y2="621.356441%" id="linearGradient-74">
            <stop stop-color="#2EC000" offset="0%"></stop>
            <stop stop-color="#009ABA" offset="25.66%"></stop>
            <stop stop-color="#0097B8" offset="26.94%"></stop>
            <stop stop-color="#046599" offset="51.03%"></stop>
            <stop stop-color="#074083" offset="72.09%"></stop>
            <stop stop-color="#082A75" offset="89.13%"></stop>
            <stop stop-color="#092270" offset="100%"></stop>
        </linearGradient>
        <polygon id="path-75" points="0.296214286 4.3015 1.36871429 6.3665 10.3879286 0.742875"></polygon>
        <linearGradient x1="258.662748%" y1="-49.0285429%" x2="-293.919563%" y2="210.425909%" id="linearGradient-77">
            <stop stop-color="#2EC000" offset="0%"></stop>
            <stop stop-color="#009ABA" offset="25.66%"></stop>
            <stop stop-color="#0097B8" offset="26.94%"></stop>
            <stop stop-color="#046599" offset="51.03%"></stop>
            <stop stop-color="#074083" offset="72.09%"></stop>
            <stop stop-color="#082A75" offset="89.13%"></stop>
            <stop stop-color="#092270" offset="100%"></stop>
        </linearGradient>
        <polygon id="path-78" points="2.85866667 1.52035714 0.497333333 7.33464286 2.24866667 10.2355 3.99866667 0.768428571"></polygon>
        <linearGradient x1="112.070613%" y1="27.6671687%" x2="-656.052493%" y2="310.700713%" id="linearGradient-80">
            <stop stop-color="#2EC000" offset="0%"></stop>
            <stop stop-color="#009ABA" offset="33.77%"></stop>
            <stop stop-color="#092270" offset="100%"></stop>
        </linearGradient>
        <polygon id="path-81" points="0.216 1.45125 1.4985 0.7335 0.8295 0.168"></polygon>
        <linearGradient x1="220.558984%" y1="-21.7031367%" x2="-3409.9492%" y2="1502.99171%" id="linearGradient-83">
            <stop stop-color="#2EC000" offset="0%"></stop>
            <stop stop-color="#009ABA" offset="33.77%"></stop>
            <stop stop-color="#092270" offset="100%"></stop>
        </linearGradient>
        <polygon id="path-84" points="0.466666667 1.526 2.816 6.575625 3.83066667 3.793125 1.99466667 0.403375"></polygon>
        <linearGradient x1="180.514696%" y1="-3.41638441%" x2="-863.639409%" y2="411.61927%" id="linearGradient-86">
            <stop stop-color="#2EC000" offset="0%"></stop>
            <stop stop-color="#009ABA" offset="30.62%"></stop>
            <stop stop-color="#092270" offset="100%"></stop>
        </linearGradient>
        <polygon id="path-87" points="0.436444444 0.70644 13.2364444 20.51448 15.2426667 19.551 0.853333333 0.43596"></polygon>
        <linearGradient x1="96.3251631%" y1="31.3970083%" x2="-215.856111%" y2="154.960516%" id="linearGradient-89">
            <stop stop-color="#2EC000" offset="0%"></stop>
            <stop stop-color="#009ABA" offset="30.62%"></stop>
            <stop stop-color="#092270" offset="100%"></stop>
        </linearGradient>
        <polygon id="path-90" points="0.66825 1.422 1.275 2.744 2.994 1.461 2.361 0.275"></polygon>
        <linearGradient x1="326.846268%" y1="-72.8551078%" x2="-1837.43945%" y2="871.519358%" id="linearGradient-92">
            <stop stop-color="#2EC000" offset="0%"></stop>
            <stop stop-color="#009ABA" offset="30.62%"></stop>
            <stop stop-color="#092270" offset="100%"></stop>
        </linearGradient>
        <polygon id="path-93" points="0.1792 2.812 3.4984 3.2216 1.3968 0.268"></polygon>
        <linearGradient x1="218.641657%" y1="-21.8456161%" x2="-1333.20064%" y2="642.835075%" id="linearGradient-95">
            <stop stop-color="#2EC000" offset="0%"></stop>
            <stop stop-color="#009ABA" offset="30.62%"></stop>
            <stop stop-color="#092270" offset="100%"></stop>
        </linearGradient>
        <rect id="path-96" x="0" y="0" width="222.818011" height="50.9626"></rect>
    </defs>
    <g id="Page-1" stroke="none" stroke-width="1" fill="none" fill-rule="evenodd">
        <g id="AboutUs" transform="translate(-1084.000000, -1413.000000)">
            <g id="MCIT_LOGOTYPE_H_RGB_ar" style="mix-blend-mode: darken;" transform="translate(1077.000000, 1412.000000)">
                <g id="Clipped">
                    <mask id="mask-2" fill="white">
                        <use xlink:href="#path-1"></use>
                    </mask>
                    <g id="SVGID_1_"></g>
                    <path d="M45.3621303,34.63495 C45.2792529,34.63155 45.1980843,34.62985 45.1169157,34.62985 C43.430318,34.62985 42.1025709,35.3447 40.8021648,36.34175 C40.6056513,35.1798 40.5424253,34.05525 40.5424253,33.07095 C40.5424253,31.94385 40.6253027,30.9995 40.6816935,30.39005 C41.1781034,30.6986 41.3207893,31.32165 41.3207893,31.8886 C41.3207893,32.3357 41.231931,32.74965 41.1575977,32.9494 C41.6676782,32.34505 41.8240345,31.71265 41.8240345,31.17035 C41.8240345,30.5439 41.614705,30.039 41.4993602,29.83755 C42.3033563,30.4861 42.4272452,31.3055 42.4272452,31.9107 C42.4272452,32.0518 42.4212644,32.1793 42.4152835,32.2932 C42.5750575,31.97615 42.6904023,31.56985 42.6904023,31.12785 C42.6904023,30.4725 42.4374981,29.7347 41.7061264,29.0853 C42.8066015,29.3454 43.2543103,30.3824 43.266272,31.1576 C43.266272,31.17035 43.2671264,31.1831 43.2833602,31.1984 C43.3542759,30.93575 43.3858889,30.6969 43.3858889,30.4776 C43.3858889,30.2124 43.339751,29.9778 43.2611456,29.7704 C42.9398889,28.9187 42.0760843,28.54895 41.6582797,28.4818 C41.7616628,28.4716 41.8599195,28.4665 41.9547586,28.4665 C42.5998352,28.4665 43.0099502,28.68665 43.2585824,28.9034 C43.43459,29.05725 43.5294291,29.20855 43.5849655,29.27315 C43.5524981,28.9612 43.4320268,28.7028 43.257728,28.49625 C42.9142567,28.09335 42.3614559,27.89445 41.8556475,27.89445 C41.642046,27.89445 41.4361341,27.9293 41.2584176,27.99985 C41.5164483,27.62755 41.9521954,27.4822 42.3349693,27.4822 C42.5143946,27.4822 42.6818582,27.5145 42.8151456,27.56975 C42.5203755,27.23655 42.1350383,27.06145 41.7531188,27.06145 C41.3498391,27.06145 40.9508314,27.25695 40.672295,27.6709 C40.613341,27.5689 40.5578046,27.45585 40.5048314,27.336 C40.4142644,27.1286 40.3510383,26.89655 40.3014828,26.6628 C40.2972107,26.6407 40.2775594,26.62455 40.2544904,26.62455 C40.2322759,26.62455 40.2126245,26.6407 40.2083525,26.6628 C40.1587969,26.89655 40.0955709,27.1286 40.0041494,27.336 C39.9520307,27.45585 39.8964943,27.56805 39.8238697,27.6709 C39.553023,27.2612 39.1599962,27.064 38.7609885,27.064 C38.3807778,27.064 37.9954406,27.24165 37.7040881,27.5842 C37.8365211,27.52215 38.0074023,27.48645 38.1893908,27.48645 C38.5653295,27.48645 38.9925326,27.6369 39.2411648,28.01345 C39.0617395,27.9378 38.85241,27.89955 38.633682,27.89955 C38.1355632,27.89955 37.5913065,28.0976 37.2521073,28.49625 C37.0778084,28.7028 36.9564828,28.9612 36.9376858,29.28845 C36.9795517,29.2094 37.0752452,29.0581 37.2512529,28.90425 C37.4930498,28.69345 37.8894943,28.4784 38.5089387,28.4784 C38.6165939,28.4784 38.7310843,28.4852 38.8532644,28.49795 C38.433751,28.5498 37.5699464,28.9187 37.2478352,29.7704 C37.1717931,29.971 37.1256552,30.19795 37.1256552,30.4555 C37.1256552,30.6799 37.1615402,30.92725 37.2427088,31.1967 C37.2427088,31.1831 37.2435632,31.17035 37.2435632,31.1576 C37.2546705,30.38325 37.7032337,29.3454 38.8190881,29.0938 C38.0808812,29.7364 37.8228506,30.46825 37.8228506,31.12105 C37.8228506,31.56475 37.9424674,31.9719 38.1116398,32.2898 C38.1005326,32.164 38.0894253,32.01695 38.0894253,31.8546 C38.0894253,31.25705 38.2321111,30.46825 39.0232912,29.84945 C38.9011111,30.0441 38.688364,30.5439 38.688364,31.16695 C38.688364,31.70755 38.8489923,32.33995 39.3676169,32.94175 C39.2864483,32.74455 39.1924636,32.32975 39.1924636,31.88095 C39.1924636,31.3174 39.3394215,30.70115 39.8409579,30.39685 C39.8905134,30.9978 39.9682644,31.926 39.9682644,33.03695 C39.9682644,34.0289 39.9058927,35.1662 39.7076705,36.3426 C38.4029923,35.343 37.0752452,34.6307 35.3920651,34.6307 C35.3108966,34.6307 35.229728,34.6324 35.147705,34.6358 C34.2582682,34.67235 33.4064253,34.92735 32.7827088,35.2835 C32.7758736,35.28775 32.7724559,35.2937 32.7724559,35.3005 C32.7724559,35.31155 32.781,35.32175 32.7938161,35.32175 C32.7938161,35.32175 32.7989425,35.32175 32.8015057,35.3209 C33.3970268,35.13645 34.0087816,35.03785 34.6273716,35.03785 C34.7999617,35.03785 34.9725517,35.04465 35.1459962,35.0608 C35.8867663,35.12795 36.5813985,35.33195 37.2298927,35.6269 C38.1406897,36.0383 38.9643372,36.62565 39.7076705,37.24445 C39.2445824,37.6448 37.6588046,39.1357 37.1393257,39.3958 C37.0333793,39.2513 36.8633525,39.15525 36.6685479,39.15525 C36.626682,39.15525 36.5839617,39.16035 36.540387,39.1697 C36.3276398,39.21645 36.1524866,39.3856 36.102931,39.59725 C36.0918238,39.64485 36.0875517,39.69245 36.0875517,39.7392 C36.0875517,39.882 36.1345441,40.0163 36.2148582,40.09705 C36.3857395,40.2679 36.5728544,40.3444 36.7770575,40.3444 C36.9154713,40.3444 37.0615747,40.30955 37.2153678,40.2458 C37.9450307,39.9432 38.8549732,38.98525 39.9708276,37.9729 C40.0648123,37.88875 40.1587969,37.80375 40.2544904,37.71875 C40.3604368,37.81225 40.4501494,37.893 40.5381533,37.9729 C41.6548621,38.9844 42.5648046,39.94235 43.293613,40.2458 C43.4482605,40.30955 43.594364,40.3444 43.7319234,40.3444 C43.9361264,40.3444 44.1240958,40.2679 44.294977,40.09705 C44.3752912,40.0163 44.4222835,39.882 44.4222835,39.74005 C44.4222835,39.69245 44.4171571,39.64485 44.4060498,39.59725 C44.3573487,39.3856 44.1821954,39.21645 43.9694483,39.1697 C43.9250192,39.16035 43.8822989,39.15525 43.840433,39.15525 C43.6464828,39.15525 43.4764559,39.2513 43.3705096,39.3958 C42.8629923,39.1459 41.2532912,37.63375 40.8021648,37.24445 C41.5446437,36.6248 42.3691456,36.0383 43.2790881,35.6269 C43.9284368,35.33195 44.623069,35.12795 45.3629847,35.0608 C45.5364291,35.0438 45.7090192,35.03785 45.8816092,35.03785 C46.5001992,35.03785 47.111954,35.13645 47.7083295,35.3209 C47.7108927,35.32175 47.7126015,35.32175 47.7126015,35.32175 C47.7279808,35.32175 47.7365249,35.3107 47.7365249,35.3005 C47.7365249,35.2937 47.7331073,35.28775 47.7271264,35.2835 C47.0888851,34.92055 46.2447318,34.67065 45.3621303,34.63495" id="Shape" fill="#092270" fill-rule="nonzero" mask="url(#mask-2)"></path>
                </g>
                <g id="Clipped" transform="translate(7.000000, 1.000000)">
                    <mask id="mask-4" fill="white">
                        <use xlink:href="#path-3"></use>
                    </mask>
                    <g id="SVGID_3_"></g>
                    <polygon id="Shape" fill="url(#linearGradient-5)" fill-rule="nonzero" mask="url(#mask-4)" points="10.6425 -7.88977778 25.1982 9.736 7.1199 24.2995556 -7.4367 6.67466667"></polygon>
                </g>
                <g id="Clipped" transform="translate(22.000000, 1.000000)">
                    <mask id="mask-7" fill="white">
                        <use xlink:href="#path-6"></use>
                    </mask>
                    <g id="SVGID_6_"></g>
                    <polygon id="Shape" fill="url(#linearGradient-8)" fill-rule="nonzero" mask="url(#mask-7)" points="13.0451538 -10.2563636 25.2204615 5.78 8.84992308 20.1254545 -3.32453846 4.08909091"></polygon>
                </g>
                <g id="Clipped" transform="translate(20.000000, 1.000000)">
                    <mask id="mask-10" fill="white">
                        <use xlink:href="#path-9"></use>
                    </mask>
                    <g id="SVGID_9_"></g>
                    <polygon id="Shape" fill="url(#linearGradient-11)" fill-rule="nonzero" mask="url(#mask-10)" points="2.636 -1.32 4.808 2.009 1.9808 4.892 -0.1912 1.563"></polygon>
                </g>
                <g id="Clipped" transform="translate(24.000000, 11.000000)">
                    <mask id="mask-13" fill="white">
                        <use xlink:href="#path-12"></use>
                    </mask>
                    <g id="SVGID_12_"></g>
                    <polygon id="Shape" fill="url(#linearGradient-14)" fill-rule="nonzero" mask="url(#mask-13)" points="0.00933333333 0.927 3.322 -1.46 4.528 2.306 1.21533333 4.693"></polygon>
                </g>
                <g id="Clipped" transform="translate(30.000000, 10.000000)">
                    <mask id="mask-16" fill="white">
                        <use xlink:href="#path-15"></use>
                    </mask>
                    <g id="SVGID_15_"></g>
                    <polygon id="Shape" fill="url(#linearGradient-17)" fill-rule="nonzero" mask="url(#mask-16)" points="-0.550941176 0.51375 10.9158824 -4.503 14.3911765 2.08575 2.92435294 7.1025"></polygon>
                </g>
                <g id="Clipped" transform="translate(14.000000, 11.000000)">
                    <mask id="mask-19" fill="white">
                        <use xlink:href="#path-18"></use>
                    </mask>
                    <g id="SVGID_18_"></g>
                    <polygon id="Shape" fill="url(#linearGradient-20)" fill-rule="nonzero" mask="url(#mask-19)" points="-0.404461538 0.528 8.39130769 -4.465 10.9644615 1.864 2.16869231 6.857"></polygon>
                </g>
                <g id="Clipped" transform="translate(37.000000, 10.000000)">
                    <mask id="mask-22" fill="white">
                        <use xlink:href="#path-21"></use>
                    </mask>
                    <g id="SVGID_21_"></g>
                    <polygon id="Shape" fill="url(#linearGradient-23)" fill-rule="nonzero" mask="url(#mask-22)" points="-0.489125 0.7155 5.308625 -1.67175 7.594125 2.4045 1.796375 4.7925"></polygon>
                </g>
                <g id="Clipped" transform="translate(12.000000, 14.000000)">
                    <mask id="mask-25" fill="white">
                        <use xlink:href="#path-24"></use>
                    </mask>
                    <g id="SVGID_24_"></g>
                    <polygon id="Shape" fill="url(#linearGradient-26)" fill-rule="nonzero" mask="url(#mask-25)" points="-14.5572727 7.00762791 16.27 -7.0102093 34.8527273 29.6017209 4.02545455 43.6186977"></polygon>
                </g>
                <g id="Clipped" transform="translate(12.000000, 12.000000)">
                    <mask id="mask-28" fill="white">
                        <use xlink:href="#path-27"></use>
                    </mask>
                    <g id="SVGID_27_"></g>
                    <polygon id="Shape" fill="url(#linearGradient-29)" fill-rule="nonzero" mask="url(#mask-28)" points="0.0525 0.4965 1.149 -0.03 1.58475 0.8775 0.48825 1.404"></polygon>
                </g>
                <g id="Clipped" transform="translate(22.000000, 7.000000)">
                    <mask id="mask-31" fill="white">
                        <use xlink:href="#path-30"></use>
                    </mask>
                    <g id="SVGID_30_"></g>
                    <polygon id="Shape" fill="url(#linearGradient-32)" fill-rule="nonzero" mask="url(#mask-31)" points="2.28 -1.085 5.09625 4.8125 0.888 7.54775 -1.92825 1.65025"></polygon>
                </g>
                <g id="Clipped" transform="translate(24.000000, 12.000000)">
                    <mask id="mask-34" fill="white">
                        <use xlink:href="#path-33"></use>
                    </mask>
                    <g id="SVGID_33_"></g>
                    <polygon id="Shape" fill="url(#linearGradient-35)" fill-rule="nonzero" mask="url(#mask-34)" points="8.19669231 -3.96502326 25.641 27.8756279 2.61630769 40.922 -14.8288462 9.08048837"></polygon>
                </g>
                <g id="Clipped" transform="translate(22.000000, 11.000000)">
                    <mask id="mask-37" fill="white">
                        <use xlink:href="#path-36"></use>
                    </mask>
                    <g id="SVGID_36_"></g>
                    <polygon id="Shape" fill="url(#linearGradient-38)" fill-rule="nonzero" mask="url(#mask-37)" points="2.04675 -0.217 3.11925 2.35 1.03575 3.897 -0.03675 1.33"></polygon>
                </g>
                <g id="Clipped" transform="translate(29.000000, 40.000000)">
                    <mask id="mask-40" fill="white">
                        <use xlink:href="#path-39"></use>
                    </mask>
                    <g id="SVGID_39_"></g>
                    <polygon id="Shape" fill="url(#linearGradient-41)" fill-rule="nonzero" mask="url(#mask-40)" points="5.207 -1.57807692 11.564 8.07738462 1.99 12.5907692 -4.368 2.93615385"></polygon>
                </g>
                <g id="Clipped" transform="translate(29.000000, 12.000000)">
                    <mask id="mask-43" fill="white">
                        <use xlink:href="#path-42"></use>
                    </mask>
                    <g id="SVGID_42_"></g>
                    <polygon id="Shape" fill="url(#linearGradient-44)" fill-rule="nonzero" mask="url(#mask-43)" points="18.5257273 35.8046897 -10.8811515 15.0173793 10.7959091 -12.177931 40.2019091 8.60937931"></polygon>
                </g>
                <g id="Clipped" transform="translate(22.000000, 4.000000)">
                    <mask id="mask-46" fill="white">
                        <use xlink:href="#path-45"></use>
                    </mask>
                    <g id="SVGID_45_"></g>
                    <polygon id="Shape" fill="url(#linearGradient-47)" fill-rule="nonzero" mask="url(#mask-46)" points="5.86 9.814875 -2.665 4.21575 3.706 -3.210375 12.231 2.387875"></polygon>
                </g>
                <g id="Clipped" transform="translate(54.000000, 35.000000)">
                    <mask id="mask-49" fill="white">
                        <use xlink:href="#path-48"></use>
                    </mask>
                    <g id="SVGID_48_"></g>
                    <polygon id="Shape" fill="url(#linearGradient-50)" fill-rule="nonzero" mask="url(#mask-49)" points="4.262 5.384 -0.711 2.3976 2.793 -1.3368 7.767 1.6504"></polygon>
                </g>
                <g id="Clipped" transform="translate(27.000000, 11.000000)">
                    <mask id="mask-52" fill="white">
                        <use xlink:href="#path-51"></use>
                    </mask>
                    <g id="SVGID_51_"></g>
                    <polygon id="Shape" fill="url(#linearGradient-53)" fill-rule="nonzero" mask="url(#mask-52)" points="4.175 5.044 -0.301 1.684 2.716 -2.335 7.192 1.024"></polygon>
                </g>
                <g id="Clipped" transform="translate(22.000000, 4.000000)">
                    <mask id="mask-55" fill="white">
                        <use xlink:href="#path-54"></use>
                    </mask>
                    <g id="SVGID_54_"></g>
                    <polygon id="Shape" fill="url(#linearGradient-56)" fill-rule="nonzero" mask="url(#mask-55)" points="1.932 3.6255 -1.385 1.758 1.241 -0.8655 4.558 1.002"></polygon>
                </g>
                <g id="Clipped" transform="translate(37.000000, 40.000000)">
                    <mask id="mask-58" fill="white">
                        <use xlink:href="#path-57"></use>
                    </mask>
                    <g id="SVGID_57_"></g>
                    <polygon id="Shape" fill="url(#linearGradient-59)" fill-rule="nonzero" mask="url(#mask-58)" points="24.6505926 7.96818182 3.77259259 17.7545455 -2.32548148 1.55909091 18.5533333 -8.22727273"></polygon>
                </g>
                <g id="Clipped" transform="translate(57.000000, 39.000000)">
                    <mask id="mask-61" fill="white">
                        <use xlink:href="#path-60"></use>
                    </mask>
                    <g id="SVGID_60_"></g>
                    <polygon id="Shape" fill="url(#linearGradient-62)" fill-rule="nonzero" mask="url(#mask-61)" points="4.4424 2.7504 0.9992 4.1968 -0.5272 0.564 2.9168 -0.8832"></polygon>
                </g>
                <g id="Clipped" transform="translate(35.000000, 37.000000)">
                    <mask id="mask-64" fill="white">
                        <use xlink:href="#path-63"></use>
                    </mask>
                    <g id="SVGID_63_"></g>
                    <polygon id="Shape" fill="url(#linearGradient-65)" fill-rule="nonzero" mask="url(#mask-64)" points="23.2556522 8.45454545 3.26521739 17.2336364 -3.01826087 1.59636364 16.9721739 -7.18363636"></polygon>
                </g>
                <g id="Clipped" transform="translate(57.000000, 33.000000)">
                    <mask id="mask-67" fill="white">
                        <use xlink:href="#path-66"></use>
                    </mask>
                    <g id="SVGID_66_"></g>
                    <polygon id="Shape" fill="url(#linearGradient-68)" fill-rule="nonzero" mask="url(#mask-67)" points="3.42675 2.491 0.693 4.022 -0.32625 0.787 2.4075 -0.744"></polygon>
                </g>
                <g id="Clipped" transform="translate(61.000000, 30.000000)">
                    <mask id="mask-70" fill="white">
                        <use xlink:href="#path-69"></use>
                    </mask>
                    <g id="SVGID_69_"></g>
                    <polygon id="Shape" fill="url(#linearGradient-71)" fill-rule="nonzero" mask="url(#mask-70)" points="9.976 3.11733333 1.342 5.53533333 -1.722 0.673333333 6.912 -1.74466667"></polygon>
                </g>
                <g id="Clipped" transform="translate(54.000000, 35.000000)">
                    <mask id="mask-73" fill="white">
                        <use xlink:href="#path-72"></use>
                    </mask>
                    <g id="SVGID_72_"></g>
                    <polygon id="Shape" fill="url(#linearGradient-74)" fill-rule="nonzero" mask="url(#mask-73)" points="4.5576 2.26425 0.9432 3.687 -0.344 0.81525 3.2704 -0.609"></polygon>
                </g>
                <g id="Clipped" transform="translate(35.000000, 41.000000)">
                    <mask id="mask-76" fill="white">
                        <use xlink:href="#path-75"></use>
                    </mask>
                    <g id="SVGID_75_"></g>
                    <polygon id="Shape" fill="url(#linearGradient-77)" fill-rule="nonzero" mask="url(#mask-76)" points="12.1911429 5.523 1.81028571 10.37925 -1.507 1.586375 8.87385714 -3.269875"></polygon>
                </g>
                <g id="Clipped" transform="translate(62.000000, 30.000000)">
                    <mask id="mask-79" fill="white">
                        <use xlink:href="#path-78"></use>
                    </mask>
                    <g id="SVGID_78_"></g>
                    <polygon id="Shape" fill="url(#linearGradient-80)" fill-rule="nonzero" mask="url(#mask-79)" points="6.86733333 8.81571429 1.02266667 11.7087143 -2.37133333 2.18821429 3.47333333 -0.705571429"></polygon>
                </g>
                <g id="Clipped" transform="translate(67.000000, 30.000000)">
                    <mask id="mask-82" fill="white">
                        <use xlink:href="#path-81"></use>
                    </mask>
                    <g id="SVGID_81_"></g>
                    <polygon id="Shape" fill="url(#linearGradient-83)" fill-rule="nonzero" mask="url(#mask-82)" points="1.95675 1.25925 0.408 1.9095 -0.24225 0.36 1.3065 -0.29025"></polygon>
                </g>
                <g id="Clipped" transform="translate(60.000000, 33.000000)">
                    <mask id="mask-85" fill="white">
                        <use xlink:href="#path-84"></use>
                    </mask>
                    <g id="SVGID_84_"></g>
                    <polygon id="Shape" fill="url(#linearGradient-86)" fill-rule="nonzero" mask="url(#mask-85)" points="5.51 5.649875 0.971333333 8.152375 -1.21266667 1.33 3.326 -1.173375"></polygon>
                </g>
                <g id="Clipped" transform="translate(47.000000, 14.000000)">
                    <mask id="mask-88" fill="white">
                        <use xlink:href="#path-87"></use>
                    </mask>
                    <g id="SVGID_87_"></g>
                    <polygon id="Shape" fill="url(#linearGradient-89)" fill-rule="nonzero" mask="url(#mask-88)" points="22.8302222 17.50224 2.65777778 25.5108 -7.15022222 3.4482 13.0213333 -4.56036"></polygon>
                </g>
                <g id="Clipped" transform="translate(58.000000, 33.000000)">
                    <mask id="mask-91" fill="white">
                        <use xlink:href="#path-90"></use>
                    </mask>
                    <g id="SVGID_90_"></g>
                    <polygon id="Shape" fill="url(#linearGradient-92)" fill-rule="nonzero" mask="url(#mask-91)" points="3.6555 2.374 1.017 3.852 0.00675 0.646 2.64525 -0.832"></polygon>
                </g>
                <g id="Clipped" transform="translate(62.000000, 37.000000)">
                    <mask id="mask-94" fill="white">
                        <use xlink:href="#path-93"></use>
                    </mask>
                    <g id="SVGID_93_"></g>
                    <polygon id="Shape" fill="url(#linearGradient-95)" fill-rule="nonzero" mask="url(#mask-94)" points="4.5528 2.7792 0.6768 4.4072 -0.8752 0.7112 3 -0.9168"></polygon>
                </g>
                <g id="Clipped">
                    <mask id="mask-97" fill="white">
                        <use xlink:href="#path-96"></use>
                    </mask>
                    <g id="SVGID_96_"></g>
                    <path d="M149.110103,26.52425 C149.317724,26.7835 149.406582,27.098 149.406582,27.57485 L149.406582,29.0615 L150.139663,29.0615 L150.139663,27.455 C150.139663,26.8957 149.968782,26.38145 149.667176,26.0423 C149.243391,25.56375 148.781157,25.35975 148.120701,25.35975 L144.885065,25.35975 L144.885065,26.0916 L148.178801,26.0916 C148.528253,26.09245 148.902483,26.26585 149.110103,26.52425 Z M173.607636,24.6857 L172.874556,24.6857 L172.874556,29.0615 L173.607636,29.0615 L173.607636,24.6857 Z M172.659245,23.16505 L171.917621,23.16505 L171.917621,24.23095 L172.659245,24.23095 L172.659245,23.16505 Z M184.080092,23.14975 L183.347011,23.14975 L183.347011,30.22515 L184.080092,30.22515 L184.080092,23.14975 Z M174.462897,23.16505 L173.722126,23.16505 L173.722126,24.23095 L174.462897,24.23095 L174.462897,23.16505 Z M177.885648,24.15445 L177.153421,24.15445 L177.153421,29.0615 L177.885648,29.0615 L177.885648,24.15445 Z M177.861724,30.22515 C178.782774,30.22515 179.558575,30.00585 180.101123,29.59275 C180.663322,29.17115 180.863253,28.4121 180.863253,27.89275 L180.863253,23.14975 L180.130172,23.14975 L180.130172,27.7933 C180.130172,28.3968 179.964418,28.7929 179.592751,29.07595 C179.233046,29.3454 178.716985,29.4933 178.140261,29.4933 L175.300215,29.4933 L175.381383,30.2243 L177.861724,30.2243 L177.861724,30.22515 Z M137.244966,36.2219 L137.51923,35.55635 C136.825452,35.1594 136.112877,34.93245 135.48318,34.93245 C134.833831,34.93245 134.120402,35.15685 133.441149,35.547 L133.72054,36.2236 C134.284448,35.86745 134.899621,35.66515 135.48318,35.66515 C136.123985,35.6643 136.779314,35.938 137.244966,36.2219 Z M138.436008,36.31625 L138.477019,36.2202 L138.396705,36.15305 C138.274525,36.0519 138.139529,35.94905 137.980609,35.8377 L137.891751,35.7748 L136.440969,39.2853 L137.209935,39.2853 L138.436008,36.31625 Z M132.981479,35.83005 C132.821705,35.94395 132.685854,36.0502 132.567092,36.15475 L132.491904,36.22105 L133.70687,39.28445 L134.525391,39.28445 L133.071192,35.7663 L132.981479,35.83005 Z M128.781218,33.43135 L128.048992,33.43135 L128.048992,39.28445 L128.781218,39.28445 L128.781218,33.43135 Z M173.607636,29.4916 L90.8618199,29.4916 L90.8618199,30.2243 L173.607636,30.2243 L173.607636,29.4916 Z M189.568797,34.93245 L188.835716,34.93245 L188.835716,39.28275 L189.568797,39.28275 L189.568797,34.93245 Z M91.5957548,23.14975 L90.8618199,23.14975 L90.8618199,29.06235 L91.5957548,29.06235 L91.5957548,23.14975 Z M144.457862,24.68655 L143.738452,24.68655 L143.738452,29.0615 L144.457862,29.0615 L144.457862,24.68655 Z M200.216406,31.9838 C201.488617,31.9838 201.650954,30.9961 201.650954,30.1359 L201.650954,24.6857 L200.918728,24.6857 L200.918728,30.1359 C200.918728,30.80485 200.805946,31.2511 200.257418,31.2511 C200.154889,31.2511 200.043816,31.22815 199.936161,31.18395 L199.799456,31.12615 L199.538862,31.80785 L199.663605,31.8631 C199.834487,31.93705 200.046379,31.9838 200.216406,31.9838 Z M203.977502,33.40075 L203.235877,33.40075 L203.235877,34.4658 L203.977502,34.4658 L203.977502,33.40075 Z M195.282211,34.93245 L194.548276,34.93245 L194.548276,39.28275 L195.281356,39.28275 L195.281356,34.93245 L195.282211,34.93245 Z M205.297559,23.14975 L204.565333,23.14975 L204.565333,30.22515 L205.297559,30.22515 L205.297559,23.14975 Z M203.250402,39.2836 L203.983483,39.2836 L203.983483,34.9333 L203.250402,34.9333 L203.250402,39.2836 Z M85.3167241,24.15445 L84.5844981,24.15445 L84.5844981,29.0615 L85.3167241,29.0615 L85.3167241,24.15445 Z M215.227467,30.22515 L215.243701,30.22515 L215.243701,29.49415 L214.948931,29.49415 C213.172621,29.49415 212.542069,28.3968 212.542069,27.4567 C212.542069,26.19955 213.792065,25.4201 214.948931,25.4201 L215.243701,25.4201 L215.243701,24.6874 L215.227467,24.6874 C213.149552,24.6874 211.808989,25.77455 211.808989,27.4567 C211.808989,29.18985 213.086326,30.22515 215.227467,30.22515 Z M209.544812,23.16505 L208.804042,23.16505 L208.804042,24.23095 L209.544812,24.23095 L209.544812,23.16505 Z M208.106847,31.9838 C209.376494,31.9838 209.539686,30.9961 209.539686,30.1359 L209.539686,24.6857 L208.806605,24.6857 L208.806605,30.1359 C208.806605,30.80485 208.693824,31.2511 208.147004,31.2511 C208.043621,31.2511 207.933402,31.22815 207.825747,31.18395 L207.688188,31.12615 L207.428448,31.80785 L207.553192,31.8631 C207.726636,31.9379 207.933402,31.9838 208.106847,31.9838 Z M208.954418,33.40075 L208.213648,33.40075 L208.213648,34.4658 L208.954418,34.4658 L208.954418,33.40075 Z M195.666693,23.16505 L194.925923,23.16505 L194.925923,24.23095 L195.666693,24.23095 L195.666693,23.16505 Z M196.281866,30.22515 L196.302372,30.22515 L196.302372,29.49415 L196.004184,29.49415 C194.615774,29.49415 193.645169,28.6569 193.645169,27.4567 C193.645169,26.19955 194.869533,25.4201 196.004184,25.4201 L196.302372,25.4201 L196.302372,24.6874 L196.281866,24.6874 C194.297935,24.6874 192.912943,25.82725 192.912943,27.45755 C192.912088,28.7946 193.798107,30.22515 196.281866,30.22515 Z M201.432226,34.4658 L202.172996,34.4658 L202.172996,33.40075 L201.432226,33.40075 L201.432226,34.4658 Z M195.283065,33.40075 L194.543149,33.40075 L194.543149,34.4658 L195.283065,34.4658 L195.283065,33.40075 Z M197.466927,24.68655 L196.733847,24.68655 L196.733847,30.226 L197.466927,30.226 L197.466927,24.68655 Z M200.767498,39.2836 C200.374471,38.93425 200.010494,38.41745 200.010494,37.68475 C200.010494,36.37235 201.205808,35.6643 202.331061,35.6643 L202.827471,35.6643 L202.827471,34.93245 L202.608743,34.93245 C200.553897,34.93245 199.278268,35.98815 199.278268,37.68475 C199.278268,38.29505 199.454276,38.8297 199.797747,39.2836 L200.767498,39.2836 Z M197.470345,23.16505 L196.72872,23.16505 L196.72872,24.23095 L197.470345,24.23095 L197.470345,23.16505 Z M167.175667,33.40075 L166.434897,33.40075 L166.434897,34.4658 L167.175667,34.4658 L167.175667,33.40075 Z M154.533019,40.4566 L155.2661,40.4566 L155.2661,33.4305 L154.533019,33.4305 L154.533019,40.4566 Z M164.428751,37.6941 C164.428751,39.02945 165.313916,40.4566 167.799383,40.4566 L167.819034,40.4566 L167.819034,39.72645 L167.520847,39.72645 C166.132437,39.72645 165.160123,38.89175 165.160123,37.6941 C165.160123,36.44035 166.386195,35.6643 167.520847,35.6643 L167.819034,35.6643 L167.819034,34.93245 L167.799383,34.93245 C165.816307,34.93245 164.428751,36.06805 164.428751,37.6941 Z M168.252218,40.4566 L168.961375,40.4566 L168.961375,34.93245 L168.252218,34.93245 L168.252218,40.4566 Z M168.237693,34.4658 L168.980172,34.4658 L168.980172,33.40075 L168.237693,33.40075 L168.237693,34.4658 Z M147.477333,39.78255 C147.385912,39.9704 147.282529,40.1438 147.170602,40.29765 L147.055257,40.4566 L152.047552,40.4566 L152.047552,39.7273 L147.50382,39.72645 L147.477333,39.78255 Z M187.833498,42.21525 L188.575123,42.21525 L188.575123,41.14935 L187.833498,41.14935 L187.833498,42.21525 Z M151.315326,39.2836 L152.048406,39.2836 L152.048406,33.43135 L151.315326,33.43135 L151.315326,39.2836 Z M147.084307,39.7256 C147.115065,39.66355 147.144969,39.59895 147.173165,39.5318 C147.183418,39.50715 147.192816,39.4808 147.200506,39.4553 L147.214176,39.41535 C147.234682,39.3584 147.254333,39.30145 147.27313,39.24195 C147.355153,38.9606 147.396165,38.6631 147.396165,38.3588 C147.396165,37.79015 147.250061,37.2453 146.974088,36.78375 C146.687008,36.31115 146.271766,35.93715 145.768521,35.6966 C145.436157,35.5402 145.069617,35.45435 144.681716,35.42375 L144.681716,36.14965 C145.859088,36.2661 146.674192,37.1552 146.674192,38.35625 C146.674192,39.54625 145.859088,40.4277 144.681716,40.54245 L144.681716,41.2675 C145.097812,41.2352 145.488276,41.14085 145.847981,40.96235 L145.872759,40.95045 C145.887284,40.9428 145.901808,40.93345 145.917188,40.92495 L145.97187,40.8935 C146.023989,40.8646 146.076107,40.8357 146.127372,40.80255 L146.174364,40.76855 C146.236736,40.72605 146.298253,40.68185 146.357207,40.63425 C146.397364,40.60195 146.434958,40.5688 146.486222,40.52035 L146.511,40.49655 C146.527234,40.4838 146.541759,40.47105 146.557992,40.4549 C146.725456,40.29 146.875831,40.0945 147.002284,39.87605 L147.090287,39.7256 L147.084307,39.7256 Z M215.226613,40.4566 L215.243701,40.4566 L215.243701,39.72645 L214.948077,39.72645 C213.170057,39.72645 212.538651,38.6325 212.538651,37.6941 C212.538651,36.44035 213.789502,35.6643 214.948077,35.6643 L215.243701,35.6643 L215.243701,34.93245 L215.226613,34.93245 C213.146989,34.93245 211.805571,36.01705 211.805571,37.6941 C211.805571,39.4247 213.084617,40.4566 215.226613,40.4566 Z M215.679448,40.37415 C215.679448,40.38945 215.670904,40.4005 215.670904,40.4175 C215.669195,40.45065 215.657234,40.47615 215.653816,40.50845 C215.588027,41.1247 215.12323,41.48425 214.321797,41.48425 C213.820261,41.48425 213.413563,41.2913 212.968418,41.05585 L212.841966,40.9904 L212.501057,41.63555 L212.624946,41.7044 C213.150406,41.99425 213.606659,42.21695 214.282494,42.21695 C215.57692,42.21695 216.412529,41.49275 216.412529,40.37415 L216.412529,34.93245 L215.679448,34.93245 L215.679448,40.37415 Z M78.7864981,23.16505 L78.045728,23.16505 L78.045728,24.23095 L78.7864981,24.23095 L78.7864981,23.16505 Z M189.637149,42.21525 L190.37792,42.21525 L190.37792,41.14935 L189.637149,41.14935 L189.637149,42.21525 Z M169.388579,40.4566 L209.895119,40.4566 L209.895119,39.72645 L169.388579,39.72645 L169.388579,40.4566 Z M209.162038,39.2836 L209.895119,39.2836 L209.895119,34.9333 L209.162038,34.9333 L209.162038,39.2836 Z M210.016444,34.4658 L210.757215,34.4658 L210.757215,33.40075 L210.016444,33.40075 L210.016444,34.4658 Z M215.680303,24.68655 L215.680303,30.1257 C215.680303,30.14355 215.675176,30.158 215.670904,30.1733 L215.670904,30.24895 L215.65467,30.24895 C215.594008,30.87455 215.129211,31.24175 214.323506,31.24175 C213.823678,31.24175 213.415272,31.0471 212.971835,30.8125 L212.844529,30.74535 L212.504475,31.3922 L212.62751,31.45935 C213.151261,31.75175 213.606659,31.9736 214.285057,31.9736 C215.578628,31.9736 216.412529,31.2477 216.412529,30.1257 L216.412529,24.68655 L215.680303,24.68655 Z M87.533908,29.5919 C88.0952529,29.1703 88.2951839,28.41125 88.2951839,27.8919 L88.2951839,23.1489 L87.561249,23.1489 L87.561249,27.79245 C87.561249,28.39595 87.3954943,28.79205 87.0238276,29.0751 C86.7068429,29.3114 86.2480268,29.4559 85.7285479,29.4814 L85.4013103,29.4831 L84.4606092,29.4865 L82.7312912,29.4933 L82.8116054,30.2243 L85.2928008,30.2243 C86.2155594,30.22515 86.9905057,30.00585 87.533908,29.5919 Z M141.863031,36.97925 L141.862176,36.98095 C141.648575,37.40765 141.540065,37.87175 141.540065,38.35965 C141.540065,39.93555 142.725126,41.19185 144.254513,41.27515 L144.254513,40.54925 C143.131824,40.46085 142.262893,39.525 142.262893,38.35795 C142.262893,37.1807 143.131824,36.23465 144.254513,36.14625 L144.254513,35.42205 C144.038349,35.43395 143.824747,35.4569 143.61969,35.5164 C142.869521,35.7391 142.229571,36.27205 141.863031,36.97925 Z M78.045728,34.4658 L78.7864981,34.4658 L78.7864981,33.40075 L78.045728,33.40075 L78.045728,34.4658 Z M80.8609962,29.0615 L81.5932222,29.0615 L81.5932222,24.6857 L80.8609962,24.6857 L80.8609962,29.0615 Z M74.9331264,29.0768 C74.5614598,28.7929 74.3948506,28.3968 74.3948506,27.7933 L74.3948506,25.6683 L73.6600613,25.6683 L73.6600613,27.89105 C73.6600613,28.41125 73.8608467,29.17115 74.423046,29.59105 C75.0356552,30.0594 75.6209234,30.2243 76.6624444,30.2243 L81.5932222,30.2243 L81.5932222,29.49245 L76.3856169,29.4933 C75.8080383,29.4933 75.291977,29.3454 74.9331264,29.0768 Z M76.9845556,23.16505 L76.2420766,23.16505 L76.2420766,24.23095 L76.9845556,24.23095 L76.9845556,23.16505 Z M74.9331264,39.3108 C74.5614598,39.02775 74.3948506,38.6325 74.3948506,38.03155 L74.3948506,35.91165 L73.6600613,35.91165 L73.6600613,38.1293 C73.6600613,38.6478 73.8608467,39.4043 74.423046,39.8242 C75.0365096,40.29085 75.6226322,40.45575 76.6641533,40.45575 L81.5599004,40.45575 L81.5599004,39.72475 L76.3873257,39.7256 C75.8080383,39.7256 75.291977,39.57855 74.9331264,39.3108 Z M76.9845556,33.40075 L76.2420766,33.40075 L76.2420766,34.4658 L76.9845556,34.4658 L76.9845556,33.40075 Z M80.8276743,39.28445 L81.5599004,39.28445 L81.5599004,34.9333 L80.8276743,34.9333 L80.8276743,39.28445 Z M115.109011,40.37415 L115.107303,40.4736 C115.058602,41.1128 114.568172,41.48425 113.752215,41.48425 C113.249824,41.48425 112.843981,41.2913 112.398835,41.05585 L112.273238,40.9904 L111.93233,41.63555 L112.055364,41.70355 C112.579969,41.99425 113.035368,42.21695 113.712912,42.21695 C114.767249,42.21695 115.843801,42.04695 115.843801,40.78725 L115.843801,34.9316 L115.109866,34.9316 L115.109866,40.37415 L115.109011,40.37415 Z M114.657031,40.4566 L114.679245,40.4566 L114.679245,39.72645 L114.376785,39.72645 C112.599621,39.72645 111.96736,38.6325 111.96736,37.6941 C111.96736,36.44035 113.219065,35.6643 114.376785,35.6643 L114.679245,35.6643 L114.679245,34.93245 L114.657031,34.93245 C112.576552,34.93245 111.235989,36.01705 111.235989,37.6941 C111.235989,39.4247 112.51418,40.4566 114.657031,40.4566 Z M141.460605,39.7817 L141.43241,39.72645 L137.178322,39.72645 L137.180031,39.7256 L116.271858,39.72645 L116.271858,40.4566 L141.884391,40.4566 L141.767337,40.29765 C141.65541,40.14465 141.555444,39.97635 141.460605,39.7817 Z M104.633992,36.97925 L104.633992,36.98095 C104.418682,37.40765 104.310172,37.87005 104.310172,38.35965 C104.310172,39.93555 105.495234,41.19185 107.025475,41.27515 L107.025475,40.54925 C105.901077,40.46085 105.033,39.525 105.033,38.35795 C105.033,37.1807 105.901077,36.23465 107.025475,36.14625 L107.025475,35.42205 C106.80931,35.43395 106.594854,35.45775 106.389797,35.5164 C105.638774,35.7391 104.999678,36.2729 104.633992,36.97925 Z M108.538628,35.69745 C108.207119,35.54105 107.839724,35.4552 107.452678,35.4246 L107.452678,36.1505 C108.629195,36.26695 109.445153,37.15605 109.445153,38.3571 C109.445153,39.5471 108.629195,40.4277 107.452678,40.5433 L107.452678,41.26835 C107.86792,41.23605 108.258383,41.1417 108.615525,40.96405 L108.641157,40.9513 C108.6591,40.9428 108.677897,40.9326 108.69413,40.92155 L108.720617,40.9071 C108.78128,40.87395 108.839379,40.8408 108.897479,40.80255 C108.909441,40.79575 108.919693,40.78725 108.944471,40.76855 C109.007697,40.72605 109.06836,40.68185 109.128169,40.63425 C109.173452,40.5977 109.214464,40.5586 109.273418,40.5059 C109.293069,40.4889 109.311866,40.47275 109.3281,40.4549 C109.498126,40.2883 109.648502,40.09195 109.772391,39.87605 L109.858686,39.7256 L109.853559,39.7256 C109.886027,39.66355 109.915931,39.59895 109.944126,39.5318 C109.954379,39.50715 109.963778,39.4808 109.972322,39.4553 L109.985992,39.41705 C110.007352,39.3584 110.026149,39.3023 110.045801,39.2411 C110.126115,38.9589 110.167981,38.6614 110.167981,38.3588 C110.167981,37.78845 110.022732,37.24445 109.745904,36.78375 C109.458824,36.31285 109.041019,35.93715 108.538628,35.69745 Z M104.231567,39.78255 L104.20508,39.72645 L98.2097126,39.72645 L98.2114215,39.7256 L83.5609195,39.7256 L83.5609195,39.82675 L83.5609195,40.4566 L104.654498,40.4566 L104.537444,40.29765 C104.425517,40.1438 104.322134,39.96955 104.231567,39.78255 Z M84.2931456,33.43135 L83.5609195,33.43135 L83.5609195,39.28445 L84.2931456,39.28445 L84.2931456,33.43135 Z" id="Shape" fill="#092270" fill-rule="nonzero" mask="url(#mask-97)"></path>
                </g>
            </g>
        </g>
    </g>
</svg>