<?xml version="1.0" encoding="UTF-8"?>
<svg width="86px" height="98px" viewBox="0 0 86 98" version="1.1" xmlns="http://www.w3.org/2000/svg" xmlns:xlink="http://www.w3.org/1999/xlink">
    <!-- Generator: sketchtool 51.3 (57544) - http://www.bohemiancoding.com/sketch -->
    <title>5B5FD3F4-D4EB-4F53-9B7E-68B680426A63@1.5x</title>
    <desc>Created with sketchtool.</desc>
    <defs>
        <linearGradient x1="94.6234953%" y1="50%" x2="5.66269137%" y2="55.7266874%" id="linearGradient-1">
            <stop stop-color="#039747" offset="0%"></stop>
            <stop stop-color="#7DB442" offset="100%"></stop>
        </linearGradient>
        <radialGradient cx="92.3872425%" cy="50.1439546%" fx="92.3872425%" fy="50.1439546%" r="84.2845291%" gradientTransform="translate(0.923872,0.501440),scale(1.000000,0.923077),rotate(176.010789),translate(-0.923872,-0.501440)" id="radialGradient-2">
            <stop stop-color="#F7C859" offset="0%"></stop>
            <stop stop-color="#E4AB25" offset="100%"></stop>
        </radialGradient>
        <radialGradient cx="92.3872425%" cy="50.1439546%" fx="92.3872425%" fy="50.1439546%" r="200.931459%" gradientTransform="translate(0.923872,0.501440),scale(0.418605,1.000000),rotate(178.456430),translate(-0.923872,-0.501440)" id="radialGradient-3">
            <stop stop-color="#F7C859" offset="0%"></stop>
            <stop stop-color="#E4AB25" offset="100%"></stop>
        </radialGradient>
    </defs>
    <g id="Page-1" stroke="none" stroke-width="1" fill="none" fill-rule="evenodd">
        <g id="ThankYouMeesage" transform="translate(-787.000000, -331.000000)">
            <g id="Thank" transform="translate(787.000000, 331.000000)">
                <path d="M43,0 C19.2902899,0 0,19.6532861 0,43.8104019 C0,67.9663593 19.2902899,87.6200315 43,87.6200315 C44.523167,87.6200315 46.0539137,87.5381718 47.5664689,87.3752246 L61.6820085,97.4292987 C62.2125966,97.8057762 62.8356587,98 63.4628897,98 C63.8668946,98 64.2716576,97.9200709 64.655955,97.757896 C65.6367851,97.3424192 66.3417093,96.4446651 66.5251412,95.3789441 L69.446029,78.3563672 C79.8353238,70.0839007 86,57.2670607 86,43.8104019 C86,19.6532861 66.7100891,0 43,0" id="Fill-7" fill="url(#linearGradient-1)"></path>
                <path d="M7,43.2106383 C7,63.1762766 22.9257044,79.4206383 42.5,79.4206383 C43.7574983,79.4206383 45.0212544,79.3529787 46.2699918,79.2182979 L57.9235186,87.5282979 C58.3615623,87.8394681 58.8759508,88 59.393781,88 C59.72732,88 60.0614848,87.9339362 60.3787536,87.7998936 C61.1885086,87.4564894 61.770481,86.7144681 61.9219189,85.833617 L64.3333495,71.7639362 C72.910558,64.9264894 78,54.3329787 78,43.2106383 C78,23.2440426 62.0746084,7 42.5,7 C22.9257044,7 7,23.2440426 7,43.2106383 Z" id="Fill-7" fill="#FFFFFF"></path>
                <path d="M30.9998171,37 C34.313744,37 37,34.0900061 37,30.5001877 C37,26.9099939 34.313744,24 30.9998171,24 C27.6866218,24 25,26.9099939 25,30.5001877 C25,34.0900061 27.6866218,37 30.9998171,37" id="Fill-1" fill="url(#radialGradient-2)"></path>
                <path d="M55.0001829,37 C58.313744,37 61,34.0900061 61,30.5001877 C61,26.9099939 58.313744,24 55.0001829,24 C51.686256,24 49,26.9099939 49,30.5001877 C49,34.0900061 51.686256,37 55.0001829,37" id="Fill-3" fill="url(#radialGradient-2)"></path>
                <path d="M62.0958861,46.2418235 C60.5143003,45.5818976 58.6909096,46.3189528 58.0249987,47.8905095 C55.4678552,53.9276649 49.3745997,57.8289029 42.5005949,57.8289029 C35.6265901,57.8289029 29.5321976,53.9276649 26.9746752,47.8893808 C26.3102803,46.3189528 24.4865106,45.5818976 22.9041667,46.2418235 C21.3214439,46.9025019 20.578595,48.7110901 21.243748,50.2822705 C24.773796,58.6156219 33.1183383,64 42.5005949,64 C51.8836096,64 60.2270149,58.6156219 63.7563049,50.2822705 C64.4214578,48.7107138 63.6782299,46.9017494 62.0958861,46.2418235" id="Fill-5" fill="url(#radialGradient-3)" transform="translate(42.500000, 55.000000) scale(1, -1) translate(-42.500000, -55.000000) "></path>
            </g>
        </g>
    </g>
</svg>