<?xml version="1.0" encoding="UTF-8"?>
<svg width="22px" height="20px" viewBox="0 0 22 20" version="1.1" xmlns="http://www.w3.org/2000/svg" xmlns:xlink="http://www.w3.org/1999/xlink">
    <!-- Generator: sketchtool 51.3 (57544) - http://www.bohemiancoding.com/sketch -->
    <title>03C3FC30-D680-4052-84D2-D40E44E090D3@1.5x</title>
    <desc>Created with sketchtool.</desc>
    <defs></defs>
    <g id="Page-1" stroke="none" stroke-width="1" fill="none" fill-rule="evenodd">
        <g id="Aamar" transform="translate(-950.000000, -529.000000)" fill="#8F98A1">
            <g id="Talk" transform="translate(950.000000, 529.000000)">
                <path d="M11,1.33333333 C5.6925,1.33333333 1.375,4.77266667 1.375,9 C1.375,11.3713333 2.7335,13.574 5.1019375,15.0446667 C5.3604375,15.2046667 5.478,15.512 5.39,15.796 C5.0964375,16.7526667 4.6206875,17.5593333 4.137375,18.1953333 C5.0545,17.8686667 6.1565625,17.3173333 7.2015625,16.388 C7.3775625,16.2326667 7.6250625,16.1766667 7.8546875,16.238 C8.8825,16.5226667 9.94125,16.6666667 11,16.6666667 C16.3075,16.6666667 20.625,13.2273333 20.625,9 C20.625,4.77266667 16.3075,1.33333333 11,1.33333333 M2.0625,20 C1.7703125,20 1.508375,19.82 1.4128125,19.5513333 C1.3145,19.2753333 1.4128125,18.9686667 1.6555,18.796 L1.6555,18.7953333 C1.672,18.7846667 3.17625,17.6906667 3.9098125,15.8733333 C1.417625,14.1566667 0,11.678 0,9 C0,4.038 4.934875,0 11,0 C17.065125,0 22,4.038 22,9 C22,13.962 17.065125,18 11,18 C9.9391875,18 8.87975,17.8713333 7.844375,17.6166667 C5.1184375,19.8733333 2.2130625,19.9953333 2.085875,19.9993333 C2.077625,20 2.07075,20 2.0625,20" id="Fill-1"></path>
            </g>
        </g>
    </g>
</svg>