<?xml version="1.0" encoding="UTF-8"?>
<svg width="17px" height="26px" viewBox="0 0 17 26" version="1.1" xmlns="http://www.w3.org/2000/svg" xmlns:xlink="http://www.w3.org/1999/xlink">
    <!-- Generator: sketchtool 51.3 (57544) - http://www.bohemiancoding.com/sketch -->
    <title>EE7DAE6D-F86A-4EDD-BECE-F420A6A9051D@1.5x</title>
    <desc>Created with sketchtool.</desc>
    <defs></defs>
    <g id="Page-1" stroke="none" stroke-width="1" fill="none" fill-rule="evenodd">
        <g id="Aamar" transform="translate(-1051.000000, -474.000000)" fill="#919AA2">
            <g id="MobileH" transform="translate(1051.000000, 474.000000)">
                <path d="M14.625,11.375 L1.625,11.375 L1.625,2.4375 C1.625,1.989 1.989,1.625 2.4375,1.625 L13.8125,1.625 C14.261,1.625 14.625,1.989 14.625,2.4375 L14.625,11.375 Z M14.625,23.5625 C14.625,24.011 14.261,24.375 13.8125,24.375 L2.4375,24.375 C1.989,24.375 1.625,24.011 1.625,23.5625 L1.625,13 L14.625,13 L14.625,23.5625 Z M13.8125,0 L2.4375,0 C1.093625,0 0,1.093625 0,2.4375 L0,23.5625 C0,24.906375 1.093625,26 2.4375,26 L13.8125,26 C15.156375,26 16.25,24.906375 16.25,23.5625 L16.25,2.4375 C16.25,1.093625 15.156375,0 13.8125,0 Z" id="Fill-1"></path>
                <path d="M7.3125,22.75 L8.9375,22.75 C9.3868125,22.75 9.75,22.386 9.75,21.9375 C9.75,21.489 9.3868125,21.125 8.9375,21.125 L7.3125,21.125 C6.8631875,21.125 6.5,21.489 6.5,21.9375 C6.5,22.386 6.8631875,22.75 7.3125,22.75" id="Fill-3"></path>
                <path d="M7.3125,19.5 L8.9375,19.5 C9.3868125,19.5 9.75,19.136 9.75,18.6875 C9.75,18.239 9.3868125,17.875 8.9375,17.875 L7.3125,17.875 C6.8631875,17.875 6.5,18.239 6.5,18.6875 C6.5,19.136 6.8631875,19.5 7.3125,19.5" id="Fill-5"></path>
                <path d="M7.3125,16.25 L8.9375,16.25 C9.3868125,16.25 9.75,15.886 9.75,15.4375 C9.75,14.989 9.3868125,14.625 8.9375,14.625 L7.3125,14.625 C6.8631875,14.625 6.5,14.989 6.5,15.4375 C6.5,15.886 6.8631875,16.25 7.3125,16.25" id="Fill-7"></path>
                <path d="M11.375,19.5 L13,19.5 C13.4493125,19.5 13.8125,19.136 13.8125,18.6875 C13.8125,18.239 13.4493125,17.875 13,17.875 L11.375,17.875 C10.9256875,17.875 10.5625,18.239 10.5625,18.6875 C10.5625,19.136 10.9256875,19.5 11.375,19.5" id="Fill-9"></path>
                <path d="M11.375,16.25 L13,16.25 C13.4493125,16.25 13.8125,15.886 13.8125,15.4375 C13.8125,14.989 13.4493125,14.625 13,14.625 L11.375,14.625 C10.9256875,14.625 10.5625,14.989 10.5625,15.4375 C10.5625,15.886 10.9256875,16.25 11.375,16.25" id="Fill-11"></path>
                <path d="M3.25,19.5 L4.875,19.5 C5.3243125,19.5 5.6875,19.136 5.6875,18.6875 C5.6875,18.239 5.3243125,17.875 4.875,17.875 L3.25,17.875 C2.8006875,17.875 2.4375,18.239 2.4375,18.6875 C2.4375,19.136 2.8006875,19.5 3.25,19.5" id="Fill-13"></path>
                <path d="M11.375,22.75 L13,22.75 C13.4493125,22.75 13.8125,22.386 13.8125,21.9375 C13.8125,21.489 13.4493125,21.125 13,21.125 L11.375,21.125 C10.9256875,21.125 10.5625,21.489 10.5625,21.9375 C10.5625,22.386 10.9256875,22.75 11.375,22.75" id="Fill-15"></path>
                <path d="M3.25,22.75 L4.875,22.75 C5.3243125,22.75 5.6875,22.386 5.6875,21.9375 C5.6875,21.489 5.3243125,21.125 4.875,21.125 L3.25,21.125 C2.8006875,21.125 2.4375,21.489 2.4375,21.9375 C2.4375,22.386 2.8006875,22.75 3.25,22.75" id="Fill-17"></path>
                <path d="M3.25,16.25 L4.875,16.25 C5.3243125,16.25 5.6875,15.886 5.6875,15.4375 C5.6875,14.989 5.3243125,14.625 4.875,14.625 L3.25,14.625 C2.8006875,14.625 2.4375,14.989 2.4375,15.4375 C2.4375,15.886 2.8006875,16.25 3.25,16.25" id="Fill-19"></path>
            </g>
        </g>
    </g>
</svg>