<?xml version="1.0" encoding="UTF-8"?>
<svg width="18px" height="23px" viewBox="0 0 18 23" version="1.1" xmlns="http://www.w3.org/2000/svg" xmlns:xlink="http://www.w3.org/1999/xlink">
    <!-- Generator: sketchtool 51.3 (57544) - http://www.bohemiancoding.com/sketch -->
    <title>A0191722-8457-4FCE-AB6D-77D56969AB38@1.5x</title>
    <desc>Created with sketchtool.</desc>
    <defs></defs>
    <g id="Page-1" stroke="none" stroke-width="1" fill="none" fill-rule="evenodd">
        <g id="Aamar" transform="translate(-1050.000000, -420.000000)" fill="#FFFFFF">
            <g id="FormH" transform="translate(1050.000000, 420.000000)">
                <path d="M15.617284,22.0416667 L1.41975309,22.0416667 C1.15884979,22.0416667 0.946502058,21.8269042 0.946502058,21.5625 L0.946502058,1.4375 C0.946502058,1.17338333 1.15884979,0.958333333 1.41975309,0.958333333 L10.8847737,0.958333333 L10.8847737,4.79166667 C10.8847737,5.58435208 11.5216276,6.22916667 12.3045267,6.22916667 L16.090535,6.22916667 L16.090535,21.5625 C16.090535,21.8269042 15.8781872,22.0416667 15.617284,22.0416667 Z M11.8312757,1.63592292 L15.4213107,5.27083333 L12.3045267,5.27083333 C12.0436235,5.27083333 11.8312757,5.05583125 11.8312757,4.79166667 L11.8312757,1.63592292 Z M16.6210967,5.13048542 L11.9699383,0.4211875 C11.7018889,0.149547917 11.3451049,0 10.9658889,0 L1.41975309,0 C0.636853909,0 0,0.6448625 0,1.4375 L0,21.5625 C0,22.3551854 0.636853909,23 1.41975309,23 L15.617284,23 C16.4001831,23 17.037037,22.3551854 17.037037,21.5625 L17.037037,6.14708542 C17.037037,5.76312917 16.8893827,5.40188542 16.6210967,5.13048542 Z" id="Fill-1"></path>
                <path d="M13.6126543,9 L3.46141975,9 C3.20662377,9 3,9.19072963 3,9.42592593 C3,9.66112222 3.20662377,9.85185185 3.46141975,9.85185185 L13.6126543,9.85185185 C13.8674503,9.85185185 14.0740741,9.66112222 14.0740741,9.42592593 C14.0740741,9.19072963 13.8674503,9 13.6126543,9" id="Fill-4"></path>
                <path d="M13.6126543,11 L3.46141975,11 C3.20662377,11 3,11.1907296 3,11.4259259 C3,11.6611222 3.20662377,11.8518519 3.46141975,11.8518519 L13.6126543,11.8518519 C13.8674503,11.8518519 14.0740741,11.6611222 14.0740741,11.4259259 C14.0740741,11.1907296 13.8674503,11 13.6126543,11" id="Fill-6"></path>
                <path d="M13.6126543,14 L3.46141975,14 C3.20662377,14 3,14.1907296 3,14.4259259 C3,14.6611222 3.20662377,14.8518519 3.46141975,14.8518519 L13.6126543,14.8518519 C13.8674503,14.8518519 14.0740741,14.6611222 14.0740741,14.4259259 C14.0740741,14.1907296 13.8674503,14 13.6126543,14" id="Fill-8"></path>
                <path d="M13.6126543,17 L3.46141975,17 C3.20662377,17 3,17.1905167 3,17.4259259 C3,17.6613352 3.20662377,17.8518519 3.46141975,17.8518519 L13.6126543,17.8518519 C13.8674503,17.8518519 14.0740741,17.6613352 14.0740741,17.4259259 C14.0740741,17.1905167 13.8674503,17 13.6126543,17" id="Fill-10"></path>
            </g>
        </g>
    </g>
</svg>