<?xml version="1.0" encoding="UTF-8"?>
<svg width="733px" height="416px" viewBox="0 0 733 416" version="1.1" xmlns="http://www.w3.org/2000/svg" xmlns:xlink="http://www.w3.org/1999/xlink">
    <!-- Generator: sketchtool 51.3 (57544) - http://www.bohemiancoding.com/sketch -->
    <title>EC366936-85E2-454F-9DF8-495B08516326@1.5x</title>
    <desc>Created with sketchtool.</desc>
    <defs>
        <radialGradient cx="5.66269137%" cy="55.7266874%" fx="5.66269137%" fy="55.7266874%" r="459.669865%" gradientTransform="translate(0.056627,0.557267),scale(0.242446,1.000000),rotate(-6.963209),translate(-0.056627,-0.557267)" id="radialGradient-1">
            <stop stop-color="#7DB442" offset="0%"></stop>
            <stop stop-color="#039747" offset="100%"></stop>
        </radialGradient>
        <path d="M0.866895898,50.1446186 C0.866895898,77.6470798 23.1842639,99.9462791 50.71341,99.9462791 C78.2425562,99.9462791 100.563392,77.6470798 100.563392,50.1446186 C100.563392,22.6421573 78.2425562,0.346422235 50.71341,0.346422235 C23.1842639,0.346422235 0.866895898,22.6421573 0.866895898,50.1446186" id="path-2"></path>
        <linearGradient x1="14.6441898%" y1="85.3530733%" x2="85.352425%" y2="14.6448381%" id="linearGradient-4">
            <stop stop-color="#CCCCCC" offset="0%"></stop>
            <stop stop-color="#EFEFEF" offset="100%"></stop>
        </linearGradient>
        <path d="M137.837141,206.053987 C137.837141,233.078386 115.908143,254.986128 88.857523,254.986128 C61.8069034,254.986128 39.8779048,233.078386 39.8779048,206.053987 C39.8779048,179.029589 61.8069034,157.121847 88.857523,157.121847 C115.908143,157.121847 137.837141,179.029589 137.837141,206.053987" id="path-5"></path>
        <filter x="-35.2%" y="-19.9%" width="148.0%" height="148.0%" filterUnits="objectBoundingBox" id="filter-6">
            <feOffset dx="-11" dy="4" in="SourceAlpha" result="shadowOffsetOuter1"></feOffset>
            <feGaussianBlur stdDeviation="6" in="shadowOffsetOuter1" result="shadowBlurOuter1"></feGaussianBlur>
            <feColorMatrix values="0 0 0 0 0   0 0 0 0 0   0 0 0 0 0  0 0 0 0.186197917 0" type="matrix" in="shadowBlurOuter1"></feColorMatrix>
        </filter>
        <path d="M0.794076642,50.1446186 C0.794076642,77.6470798 23.1079771,99.9462791 50.6405908,99.9462791 C78.1662693,99.9462791 100.487105,77.6470798 100.487105,50.1446186 C100.487105,22.6421573 78.1662693,0.346422235 50.6405908,0.346422235 C23.1079771,0.346422235 0.794076642,22.6421573 0.794076642,50.1446186" id="path-7"></path>
        <linearGradient x1="14.6443645%" y1="85.3530733%" x2="85.3550591%" y2="14.6448381%" id="linearGradient-9">
            <stop stop-color="#CCCCCC" offset="0%"></stop>
            <stop stop-color="#EFEFEF" offset="100%"></stop>
        </linearGradient>
        <path d="M692.577697,206.053987 C692.577697,233.078386 670.648698,254.986128 643.598078,254.986128 C616.543991,254.986128 594.61846,233.078386 594.61846,206.053987 C594.61846,179.029589 616.543991,157.121847 643.598078,157.121847 C670.648698,157.121847 692.577697,179.029589 692.577697,206.053987" id="path-10"></path>
        <filter x="-35.2%" y="-19.9%" width="148.0%" height="148.0%" filterUnits="objectBoundingBox" id="filter-11">
            <feOffset dx="-11" dy="4" in="SourceAlpha" result="shadowOffsetOuter1"></feOffset>
            <feGaussianBlur stdDeviation="6" in="shadowOffsetOuter1" result="shadowBlurOuter1"></feGaussianBlur>
            <feColorMatrix values="0 0 0 0 0   0 0 0 0 0   0 0 0 0 0  0 0 0 0.186197917 0" type="matrix" in="shadowBlurOuter1"></feColorMatrix>
        </filter>
        <path d="M0.870363481,50.1446186 C0.870363481,77.6470798 23.1842639,99.9462791 50.71341,99.9462791 C78.2425562,99.9462791 100.559924,77.6470798 100.559924,50.1446186 C100.559924,22.6421573 78.2425562,0.346422235 50.71341,0.346422235 C23.1842639,0.346422235 0.870363481,22.6421573 0.870363481,50.1446186" id="path-12"></path>
        <linearGradient x1="14.6417267%" y1="85.3530733%" x2="85.3548809%" y2="14.6448381%" id="linearGradient-14">
            <stop stop-color="#CCCCCC" offset="0%"></stop>
            <stop stop-color="#EFEFEF" offset="100%"></stop>
        </linearGradient>
        <path d="M276.540485,206.053987 C276.540485,233.078386 254.611486,254.986128 227.560867,254.986128 C200.510247,254.986128 178.581248,233.078386 178.581248,206.053987 C178.581248,179.029589 200.510247,157.121847 227.560867,157.121847 C254.611486,157.121847 276.540485,179.029589 276.540485,206.053987" id="path-15"></path>
        <filter x="-35.2%" y="-19.9%" width="148.0%" height="148.0%" filterUnits="objectBoundingBox" id="filter-16">
            <feOffset dx="-11" dy="4" in="SourceAlpha" result="shadowOffsetOuter1"></feOffset>
            <feGaussianBlur stdDeviation="6" in="shadowOffsetOuter1" result="shadowBlurOuter1"></feGaussianBlur>
            <feColorMatrix values="0 0 0 0 0   0 0 0 0 0   0 0 0 0 0  0 0 0 0.186197917 0" type="matrix" in="shadowBlurOuter1"></feColorMatrix>
        </filter>
        <path d="M0.866895898,50.1446186 C0.866895898,77.6470798 23.1842639,99.9462791 50.71341,99.9462791 C78.2425562,99.9462791 100.559924,77.6470798 100.559924,50.1446186 C100.559924,22.6421573 78.2425562,0.346422235 50.71341,0.346422235 C23.1842639,0.346422235 0.866895898,22.6421573 0.866895898,50.1446186" id="path-17"></path>
        <linearGradient x1="14.6446957%" y1="85.3530733%" x2="85.3553903%" y2="14.6448381%" id="linearGradient-19">
            <stop stop-color="#CCCCCC" offset="0%"></stop>
            <stop stop-color="#EFEFEF" offset="100%"></stop>
        </linearGradient>
        <path d="M415.242095,206.053987 C415.242095,233.078386 393.316564,254.986128 366.262477,254.986128 C339.211857,254.986128 317.282858,233.078386 317.282858,206.053987 C317.282858,179.029589 339.211857,157.121847 366.262477,157.121847 C393.316564,157.121847 415.242095,179.029589 415.242095,206.053987" id="path-20"></path>
        <filter x="-35.2%" y="-19.9%" width="148.0%" height="148.0%" filterUnits="objectBoundingBox" id="filter-21">
            <feOffset dx="-11" dy="4" in="SourceAlpha" result="shadowOffsetOuter1"></feOffset>
            <feGaussianBlur stdDeviation="6" in="shadowOffsetOuter1" result="shadowBlurOuter1"></feGaussianBlur>
            <feColorMatrix values="0 0 0 0 0   0 0 0 0 0   0 0 0 0 0  0 0 0 0.186197917 0" type="matrix" in="shadowBlurOuter1"></feColorMatrix>
        </filter>
        <path d="M0.866895898,50.1446186 C0.866895898,77.6470798 23.1842639,99.9462791 50.7099424,99.9462791 C78.2425562,99.9462791 100.556457,77.6470798 100.556457,50.1446186 C100.556457,22.6421573 78.2425562,0.346422235 50.7099424,0.346422235 C23.1842639,0.346422235 0.866895898,22.6421573 0.866895898,50.1446186" id="path-22"></path>
        <linearGradient x1="14.6451786%" y1="85.3530733%" x2="85.3583328%" y2="14.6448381%" id="linearGradient-24">
            <stop stop-color="#CCCCCC" offset="0%"></stop>
            <stop stop-color="#EFEFEF" offset="100%"></stop>
        </linearGradient>
        <path d="M553.945438,206.053987 C553.945438,233.078386 532.019907,254.986128 504.96582,254.986128 C477.915201,254.986128 455.986202,233.078386 455.986202,206.053987 C455.986202,179.029589 477.915201,157.121847 504.96582,157.121847 C532.019907,157.121847 553.945438,179.029589 553.945438,206.053987" id="path-25"></path>
        <filter x="-35.2%" y="-19.9%" width="148.0%" height="148.0%" filterUnits="objectBoundingBox" id="filter-26">
            <feOffset dx="-11" dy="4" in="SourceAlpha" result="shadowOffsetOuter1"></feOffset>
            <feGaussianBlur stdDeviation="6" in="shadowOffsetOuter1" result="shadowBlurOuter1"></feGaussianBlur>
            <feColorMatrix values="0 0 0 0 0   0 0 0 0 0   0 0 0 0 0  0 0 0 0.186197917 0" type="matrix" in="shadowBlurOuter1"></feColorMatrix>
        </filter>
    </defs>
    <g id="Page-1" stroke="none" stroke-width="1" fill="none" fill-rule="evenodd">
        <g id="AboutUs" transform="translate(-464.000000, -850.000000)">
            <g id="GrpahRoad" transform="translate(464.000000, 847.000000)">
                <path d="M593.588935,206.052255 L593.82265,206.052255 C593.82265,255.001717 553.962776,294.822953 504.96582,294.822953 C455.968864,294.822953 416.108991,255.001717 416.108991,206.052255 C416.108991,178.594829 393.750012,156.254059 366.262477,156.254059 C338.778409,156.254059 316.415962,178.594829 316.415962,206.052255 C316.415962,255.001717 276.556089,294.822953 227.559133,294.822953 C178.565644,294.822953 138.702303,255.001717 138.702303,206.052255 C138.703097,178.595621 116.341013,156.255791 88.857523,156.255791 C61.3699879,156.255791 39.0110089,178.596561 39.0110089,206.053987 C39.0110089,216.817326 30.2761659,225.540238 19.5058512,225.540238 C8.732069,225.540238 0.000693516718,216.817326 0.000693516718,206.053987 C0.000693516718,157.10799 39.8605669,117.28329 88.857523,117.28329 C137.851012,117.28329 177.714353,157.10799 177.714353,206.053987 C177.713559,233.514085 200.075643,255.850452 227.559133,255.850452 C255.046668,255.850452 277.405647,233.513146 277.405647,206.052255 C277.405647,157.106258 317.268988,117.281557 366.262477,117.281557 C415.259433,117.281557 455.119306,157.106258 455.119306,206.052255 C455.119306,233.513146 477.478285,255.850452 504.96582,255.850452 C532.452777,255.850452 554.811394,233.514085 554.812334,206.053987 L554.578619,206.053987 C554.578619,157.10799 594.438493,117.28329 643.435449,117.28329 C692.432405,117.28329 732.292278,157.10799 732.292278,206.053987 C732.292278,216.817326 723.557435,225.540238 712.787121,225.540238 C702.016806,225.540238 693.281963,216.817326 693.281963,206.053987 C693.281963,178.596561 670.922984,156.255791 643.435449,156.255791 C615.951959,156.255791 593.589875,178.595621 593.588935,206.052255 Z" id="Combined-Shape" fill="url(#radialGradient-1)"></path>
                <polygon id="Fill-1" fill="#B3B3B3" points="88.4268492 334.749501 89.2902775 334.749501 89.2902775 206.053641 88.4268492 206.053641"></polygon>
                <path d="M99.6937218,345.575196 C99.6937218,351.554444 94.8425723,356.400891 88.857523,356.400891 C82.8724738,356.400891 78.0213243,351.554444 78.0213243,345.575196 C78.0213243,339.595948 82.8724738,334.749501 88.857523,334.749501 C94.8425723,334.749501 99.6937218,339.595948 99.6937218,345.575196 Z" id="Stroke-2" stroke="#B3B3B3" stroke-width="0.25"></path>
                <path d="M95.3592423,345.575196 C95.3592423,349.160666 92.4464721,352.070613 88.857523,352.070613 C85.2651064,352.070613 82.3558038,349.160666 82.3558038,345.575196 C82.3558038,341.989726 85.2651064,339.079779 88.857523,339.079779 C92.4464721,339.079779 95.3592423,341.989726 95.3592423,345.575196" id="Fill-4" fill="#D3CB69"></path>
                <polygon id="Fill-6" fill="#B3B3B3" points="227.362521 206.053641 228.229417 206.053641 228.229417 77.3577805 227.362521 77.3577805"></polygon>
                <path d="M238.630781,66.5327785 C238.630781,60.5535307 233.779631,55.7070836 227.794582,55.7070836 C221.809533,55.7070836 216.958383,60.5535307 216.958383,66.5327785 C216.958383,72.5120263 221.809533,77.3584733 227.794582,77.3584733 C233.779631,77.3584733 238.630781,72.5120263 238.630781,66.5327785 Z" id="Stroke-8" stroke="#B3B3B3" stroke-width="0.25"></path>
                <path d="M234.296301,66.5327785 C234.296301,62.9473083 231.386998,60.0373616 227.794582,60.0373616 C224.202165,60.0373616 221.292863,62.9473083 221.292863,66.5327785 C221.292863,70.1217128 224.202165,73.0281954 227.794582,73.0281954 C231.386998,73.0281954 234.296301,70.1217128 234.296301,66.5327785" id="Fill-9" fill="#D3CB69"></path>
                <polygon id="Fill-10" fill="#B3B3B3" points="365.712171 334.749501 366.579067 334.749501 366.579067 206.053641 365.712171 206.053641"></polygon>
                <path d="M376.983551,345.575196 C376.983551,351.554444 372.132402,356.400891 366.147353,356.400891 C360.162303,356.400891 355.311154,351.554444 355.311154,345.575196 C355.311154,339.595948 360.162303,334.749501 366.147353,334.749501 C372.132402,334.749501 376.983551,339.595948 376.983551,345.575196 Z" id="Stroke-11" stroke="#B3B3B3" stroke-width="0.25"></path>
                <path d="M372.649072,345.575196 C372.649072,349.160666 369.736302,352.070613 366.147353,352.070613 C362.554936,352.070613 359.645634,349.160666 359.645634,345.575196 C359.645634,341.989726 362.554936,339.079779 366.147353,339.079779 C369.736302,339.079779 372.649072,341.989726 372.649072,345.575196" id="Fill-12" fill="#D3CB69"></path>
                <polygon id="Fill-13" fill="#B3B3B3" points="643.163937 334.749501 644.030833 334.749501 644.030833 206.053641 643.163937 206.053641"></polygon>
                <path d="M654.434277,345.575196 C654.434277,351.554444 649.583128,356.400891 643.598078,356.400891 C637.609562,356.400891 632.76188,351.554444 632.76188,345.575196 C632.76188,339.595948 637.609562,334.749501 643.598078,334.749501 C649.583128,334.749501 654.434277,339.595948 654.434277,345.575196 Z" id="Stroke-14" stroke="#B3B3B3" stroke-width="0.25"></path>
                <path d="M650.099798,345.575196 C650.099798,349.160666 647.187027,352.070613 643.598078,352.070613 C640.005662,352.070613 637.096359,349.160666 637.096359,345.575196 C637.096359,341.989726 640.005662,339.079779 643.598078,339.079779 C647.187027,339.079779 650.099798,341.989726 650.099798,345.575196" id="Fill-15" fill="#D3CB69"></path>
                <polygon id="Fill-16" fill="#B3B3B3" points="504.65131 206.053641 505.518206 206.053641 505.518206 77.3577805 504.65131 77.3577805"></polygon>
                <path d="M515.92061,66.5327785 C515.92061,60.5535307 511.069461,55.7070836 505.084412,55.7070836 C499.099362,55.7070836 494.248213,60.5535307 494.248213,66.5327785 C494.248213,72.5120263 499.099362,77.3584733 505.084412,77.3584733 C511.069461,77.3584733 515.92061,72.5120263 515.92061,66.5327785 Z" id="Stroke-17" stroke="#B3B3B3" stroke-width="0.25"></path>
                <path d="M511.586131,66.5327785 C511.586131,62.9473083 508.673361,60.0373616 505.084412,60.0373616 C501.491995,60.0373616 498.582692,62.9473083 498.582692,66.5327785 C498.582692,70.1217128 501.491995,73.0281954 505.084412,73.0281954 C508.673361,73.0281954 511.586131,70.1217128 511.586131,66.5327785" id="Fill-18" fill="#D3CB69"></path>
                <path d="M647.489054,138.176707 C647.464781,138.176707 647.440508,138.176707 647.416235,138.173243 C645.176176,138.048531 642.870233,138.034674 640.616303,138.131673 C639.901981,138.162851 639.291686,137.608575 639.260478,136.891481 C639.22927,136.174387 639.784083,135.568148 640.501873,135.53697 C642.842492,135.436508 645.235125,135.450364 647.561873,135.578541 C648.279663,135.620111 648.831009,136.233279 648.789398,136.950373 C648.747787,137.639753 648.175635,138.176707 647.489054,138.176707 Z M362.304577,138.180172 C361.621463,138.180172 361.049311,137.646681 361.0077,136.953837 C360.969557,136.236743 361.517435,135.623576 362.235225,135.582005 C364.558506,135.453829 366.937268,135.436508 369.291758,135.533506 C370.009547,135.564684 370.571296,136.170923 370.540088,136.884552 C370.508879,137.605111 369.89165,138.159386 369.184262,138.128208 C366.909528,138.034674 364.617455,138.051995 362.380863,138.176707 C362.35659,138.180172 362.332317,138.180172 362.304577,138.180172 Z M83.909628,138.242528 C83.2334492,138.242528 82.6612979,137.71943 82.6127518,137.033514 C82.560738,136.319884 83.101681,135.699788 83.8194708,135.647825 C86.149687,135.485007 88.5353845,135.433043 90.8760034,135.498864 C91.5937933,135.519649 92.162477,136.118959 92.1382039,136.836053 C92.1173984,137.549683 91.520974,138.114351 90.8031842,138.09703 C88.5457873,138.034674 86.2467794,138.083173 84.0032528,138.239063 C83.9720445,138.242528 83.9373687,138.242528 83.909628,138.242528 Z M111.234187,141.755249 C111.095483,141.755249 110.953312,141.731 110.814609,141.685965 C108.678578,140.958478 106.476662,140.331454 104.274746,139.822213 C103.577762,139.659395 103.140847,138.963086 103.300355,138.263313 C103.463332,137.56354 104.163784,137.127048 104.864236,137.289866 C107.149373,137.819892 109.434511,138.471166 111.653764,139.226367 C112.333411,139.45847 112.694039,140.196349 112.465179,140.875337 C112.281397,141.415755 111.77513,141.755249 111.234187,141.755249 Z M389.577122,142.080886 C389.434951,142.080886 389.285845,142.056636 389.140206,142.004673 C387.014577,141.246008 384.823064,140.587806 382.631552,140.047387 C381.9311,139.874176 381.508055,139.170939 381.681434,138.474631 C381.854813,137.778322 382.558732,137.355687 383.255717,137.525434 C385.530452,138.086638 387.805186,138.769089 390.017505,139.558932 C390.690216,139.801428 391.043909,140.542771 390.804646,141.218295 C390.613929,141.751785 390.111129,142.080886 389.577122,142.080886 Z M620.223444,142.101671 C619.689436,142.101671 619.190104,141.77257 618.999387,141.242544 C618.756656,140.563557 619.106882,139.822213 619.786529,139.579717 C621.991912,138.789875 624.270114,138.103959 626.544849,137.53929 C627.245301,137.369544 627.945753,137.792179 628.119132,138.488487 C628.292511,139.184796 627.869466,139.891497 627.172482,140.061244 C624.977501,140.605127 622.789456,141.266794 620.66036,142.025458 C620.518189,142.077422 620.369083,142.101671 620.223444,142.101671 Z M667.777886,142.39613 C667.625312,142.39613 667.472738,142.368416 667.323632,142.312989 C665.204938,141.52661 663.023828,140.840694 660.839251,140.269098 C660.142266,140.088958 659.726156,139.378793 659.909938,138.682484 C660.090253,137.989639 660.79764,137.573933 661.494624,137.754072 C663.765891,138.346454 666.033691,139.063548 668.228671,139.881105 C668.901383,140.130529 669.244673,140.878801 668.995007,141.55086 C668.800823,142.073958 668.304958,142.39613 667.777886,142.39613 Z M342.026148,142.416916 C341.499075,142.416916 341.003211,142.094743 340.809026,141.571645 C340.555892,140.899586 340.899183,140.151314 341.571894,139.90189 C343.766875,139.084334 346.031207,138.36724 348.302474,137.771393 C348.999458,137.591254 349.710313,138.00696 349.890627,138.699805 C350.074409,139.392649 349.658299,140.102815 348.964783,140.286419 C346.776737,140.858015 344.595627,141.547396 342.480401,142.337238 C342.331295,142.392666 342.178721,142.416916 342.026148,142.416916 Z M63.6936157,142.77373 C63.1734781,142.77373 62.6810813,142.458486 62.4799614,141.942317 C62.2198927,141.277186 62.5527807,140.521986 63.2185567,140.262169 C65.4031344,139.409971 67.6605313,138.661699 69.9213958,138.034674 C70.6114449,137.844142 71.3292347,138.249456 71.5199518,138.938836 C71.7141365,139.628217 71.3084292,140.345311 70.6183801,140.539307 C68.43727,141.142082 66.2665627,141.86264 64.165207,142.683661 C64.0091658,142.742552 63.8496569,142.77373 63.6936157,142.77373 Z M129.622782,151.299182 C129.359246,151.299182 129.088775,151.21604 128.859914,151.049758 C127.032498,149.719496 125.114924,148.468912 123.166142,147.329183 C122.548912,146.968904 122.340857,146.172133 122.701486,145.552037 C123.065582,144.931941 123.859659,144.724088 124.480356,145.087831 C126.505425,146.269131 128.49235,147.568214 130.389118,148.946975 C130.971673,149.36961 131.099973,150.183702 130.676928,150.762227 C130.420327,151.112114 130.025022,151.299182 129.622782,151.299182 Z M407.830482,151.888099 C407.56001,151.888099 407.286071,151.804958 407.050275,151.628283 C405.243664,150.273772 403.346896,148.995474 401.411984,147.828031 C400.794754,147.453895 400.60057,146.657124 400.971601,146.043956 C401.3461,145.427325 402.140177,145.233328 402.757407,145.604 C404.765138,146.816478 406.734725,148.143275 408.610688,149.549749 C409.182839,149.979313 409.300737,150.793405 408.870757,151.368466 C408.614155,151.70796 408.222319,151.888099 407.830482,151.888099 Z M601.983954,151.922742 C601.58865,151.922742 601.196813,151.746066 600.940212,151.406573 C600.510231,150.831512 600.624662,150.017419 601.200281,149.584392 C603.076243,148.177917 605.045831,146.847656 607.050094,145.635178 C607.667324,145.264506 608.461401,145.461967 608.839367,146.075134 C609.206931,146.688302 609.009279,147.488537 608.398984,147.859209 C606.46754,149.026652 604.570772,150.30495 602.764161,151.662925 C602.528365,151.8396 602.254426,151.922742 601.983954,151.922742 Z M685.892542,152.442375 C685.615136,152.442375 685.337729,152.355769 685.101933,152.172166 C683.309192,150.796869 681.429762,149.490858 679.512188,148.299165 C678.905361,147.918101 678.718112,147.117865 679.096078,146.508162 C679.477513,145.898459 680.278524,145.714855 680.888819,146.092455 C682.879212,147.332647 684.831462,148.683694 686.690086,150.114418 C687.25877,150.554374 687.362798,151.368466 686.925882,151.936599 C686.669281,152.269164 686.284379,152.442375 685.892542,152.442375 Z M323.918426,152.480481 C323.530057,152.480481 323.145155,152.30727 322.888554,151.974705 C322.448171,151.406573 322.552198,150.59248 323.120882,150.152524 C324.979507,148.7218 326.928289,147.367289 328.918682,146.123633 C329.528977,145.746033 330.329988,145.933101 330.711423,146.542804 C331.089389,147.149043 330.905607,147.949279 330.295313,148.330343 C328.377739,149.5255 326.498308,150.831512 324.712503,152.210272 C324.47324,152.393876 324.195833,152.480481 323.918426,152.480481 Z M45.7280651,153.093649 C45.3466309,153.093649 44.9686643,152.923902 44.7085955,152.601729 C44.2647448,152.040525 44.354902,151.222969 44.9201181,150.776084 C46.7544698,149.317646 48.6859139,147.935422 50.6555014,146.667516 C51.2623285,146.279523 52.0668079,146.452735 52.4551773,147.055509 C52.8435466,147.658284 52.6701674,148.461984 52.0668079,148.853441 C50.1665721,150.076311 48.3079473,151.406573 46.5360121,152.809583 C46.2967488,153.000115 46.0124069,153.093649 45.7280651,153.093649 Z M144.384286,165.835059 C143.988981,165.835059 143.597144,165.654919 143.340543,165.315425 C141.984718,163.507101 140.521398,161.750741 138.995661,160.087914 C138.510199,159.557888 138.544875,158.736867 139.075415,158.251876 C139.605956,157.766885 140.427773,157.801527 140.913235,158.328089 C142.49792,160.053272 144.016722,161.878917 145.421093,163.756525 C145.854541,164.328122 145.736643,165.145678 145.161025,165.575242 C144.928696,165.748453 144.654757,165.835059 144.384286,165.835059 Z M422.380462,166.63183 C421.978223,166.63183 421.582918,166.448226 421.326317,166.09834 C420.0017,164.276159 418.562653,162.495548 417.057722,160.808472 C416.579195,160.271518 416.627741,159.453961 417.161749,158.972434 C417.695757,158.494371 418.521042,158.542871 418.996101,159.079825 C420.563449,160.829257 422.051042,162.675688 423.43114,164.570618 C423.854185,165.149143 423.725885,165.963235 423.146798,166.38587 C422.911003,166.552153 422.643999,166.63183 422.380462,166.63183 Z M587.444376,166.683793 C587.177373,166.683793 586.910369,166.604116 586.681508,166.434369 C586.098954,166.011734 585.970653,165.201106 586.393699,164.619117 C587.770329,162.720723 589.26139,160.874292 590.821803,159.12486 C591.300329,158.59137 592.118679,158.542871 592.656155,159.020933 C593.19363,159.495532 593.238709,160.320017 592.76365,160.853507 C591.262186,162.537119 589.826606,164.317729 588.495054,166.146839 C588.241921,166.496725 587.846616,166.683793 587.444376,166.683793 Z M700.248338,167.380102 C699.842631,167.380102 699.440391,167.18957 699.18379,166.82929 C697.879979,164.989788 696.468672,163.191857 694.984546,161.483995 C694.516423,160.943577 694.571904,160.122556 695.112847,159.651422 C695.657258,159.180288 696.479075,159.239179 696.950666,159.779598 C698.490273,161.55328 699.957061,163.417031 701.309419,165.329282 C701.725529,165.914736 701.586826,166.725364 701.000804,167.137606 C700.771943,167.300425 700.508407,167.380102 700.248338,167.380102 Z M309.576501,167.428601 C309.316432,167.428601 309.052895,167.352388 308.827502,167.18957 C308.241481,166.777327 308.09931,165.966699 308.51542,165.381246 C309.867778,163.468995 311.331098,161.601779 312.870705,159.828097 C313.342296,159.287678 314.164114,159.228787 314.705057,159.696457 C315.246,160.167591 315.304949,160.988612 314.833357,161.532495 C313.352699,163.236892 311.941393,165.038288 310.637581,166.881254 C310.387915,167.238069 309.982208,167.428601 309.576501,167.428601 Z M31.6011295,168.242693 C31.3479959,168.242693 31.0913948,168.169945 30.8694694,168.017519 C30.2765126,167.612205 30.1239389,166.801577 30.5296462,166.209195 C31.8542631,164.276159 33.2933103,162.388157 34.8086444,160.597154 C35.269833,160.049807 36.0916503,159.977059 36.6395285,160.441264 C37.1874067,160.902006 37.2567584,161.723027 36.7955698,162.270374 C35.3391847,163.995557 33.9521512,165.817738 32.6760805,167.678025 C32.4229469,168.048697 32.0172396,168.242693 31.6011295,168.242693 Z M154.19408,184.067261 C153.660072,184.067261 153.157272,183.734696 152.970023,183.20467 C152.210622,181.081101 151.333323,178.967926 150.365868,176.930963 C150.057253,176.283153 150.331192,175.507167 150.97963,175.198852 C151.631536,174.894 152.408274,175.167674 152.713422,175.815483 C153.719021,177.932123 154.630995,180.124976 155.418137,182.331686 C155.660868,183.007209 155.307174,183.752017 154.630995,183.991048 C154.485357,184.043011 154.339718,184.067261 154.19408,184.067261 Z M431.92672,185.006065 C431.385777,185.006065 430.87951,184.663107 430.695728,184.122688 C429.971003,181.985263 429.121445,179.865159 428.18173,177.810875 C427.883518,177.159602 428.171327,176.38708 428.823233,176.089157 C429.478606,175.791234 430.251877,176.078764 430.546622,176.730038 C431.52448,178.863999 432.401779,181.067244 433.157712,183.284347 C433.39004,183.963334 433.025944,184.704678 432.346298,184.936781 C432.207594,184.981816 432.065423,185.006065 431.92672,185.006065 Z M577.911989,185.064957 C577.776753,185.064957 577.631115,185.044172 577.492412,184.995673 C576.812765,184.76357 576.452136,184.02569 576.680997,183.350167 C577.433463,181.133065 578.310761,178.926355 579.285152,176.78893 C579.583364,176.137656 580.356636,175.850125 581.008541,176.148049 C581.660447,176.445972 581.951724,177.215029 581.653512,177.869767 C580.710329,179.924051 579.867706,182.051084 579.142981,184.185044 C578.959199,184.725463 578.452932,185.064957 577.911989,185.064957 Z M709.551865,185.875585 C709.003987,185.875585 708.494252,185.525699 708.317405,184.978351 C707.616953,182.830534 706.798604,180.693108 705.886629,178.631896 C705.59882,177.977158 705.893564,177.211565 706.548938,176.92057 C707.211246,176.63304 707.974115,176.927499 708.265392,177.582237 C709.212042,179.72659 710.0616,181.940228 710.789792,184.171188 C711.011718,184.853639 710.640686,185.588055 709.957572,185.809765 C709.822337,185.8548 709.687101,185.875585 709.551865,185.875585 Z M300.290312,185.937941 C300.155076,185.937941 300.01984,185.917156 299.888072,185.875585 C299.204958,185.653875 298.830459,184.91946 299.052384,184.237008 C299.777109,182.009513 300.6232,179.792411 301.566382,177.644593 C301.857659,176.98639 302.627463,176.691932 303.282836,176.979462 C303.93821,177.270457 304.236422,178.03605 303.948612,178.690788 C303.040105,180.758929 302.221756,182.896354 301.524771,185.037243 C301.347925,185.588055 300.83819,185.937941 300.290312,185.937941 Z M22.5819446,186.883674 C22.4571116,186.883674 22.3253434,186.862888 22.1970428,186.824782 C21.5139289,186.613464 21.1290271,185.885978 21.3405497,185.200062 C22.0305988,182.962174 22.845481,180.731215 23.760923,178.573004 C24.0417973,177.911338 24.8011981,177.599558 25.4669742,177.88016 C26.1258151,178.160762 26.43443,178.922891 26.1570233,179.584557 C25.2762571,181.663091 24.4891156,183.810908 23.8268071,185.965655 C23.653428,186.526859 23.136758,186.883674 22.5819446,186.883674 Z M158.143658,204.388389 C157.453608,204.388389 156.87799,203.841042 156.846781,203.141269 C156.753157,200.882596 156.541634,198.606602 156.226084,196.379107 C156.122056,195.668942 156.617921,195.010739 157.328775,194.906813 C158.043098,194.80635 158.698471,195.301734 158.799031,196.0119 C159.128451,198.326 159.346909,200.6886 159.444001,203.033878 C159.47521,203.750972 158.920396,204.357211 158.199139,204.384925 C158.181801,204.388389 158.164463,204.388389 158.143658,204.388389 Z M435.588488,205.379157 C434.884569,205.379157 434.305482,204.821417 434.288144,204.11818 C434.22226,201.849114 434.045414,199.57312 433.761072,197.342161 C433.670915,196.631995 434.173714,195.980722 434.884569,195.890652 C435.602359,195.804046 436.250797,196.29943 436.340954,197.01306 C436.635698,199.32716 436.81948,201.68976 436.888832,204.041967 C436.90617,204.759061 436.340954,205.358371 435.623164,205.375693 C435.612761,205.379157 435.602359,205.379157 435.588488,205.379157 Z M574.274494,205.441513 L574.236351,205.441513 C573.518561,205.424192 572.953345,204.824881 572.97415,204.107787 C573.033099,201.759044 573.216881,199.392981 573.511626,197.075416 C573.601783,196.36525 574.250221,195.862938 574.968011,195.953008 C575.678865,196.043078 576.185133,196.694351 576.091508,197.404517 C575.807166,199.63894 575.633787,201.914934 575.57137,204.180536 C575.554032,204.883773 574.974946,205.441513 574.274494,205.441513 Z M712.939694,206.297176 C712.232307,206.297176 711.653221,205.729043 711.63935,205.015413 C711.608142,202.760205 711.459036,200.477282 711.202435,198.23593 C711.12268,197.522301 711.635883,196.877955 712.346737,196.798278 C713.064527,196.715137 713.70603,197.227842 713.789252,197.941471 C714.052789,200.265965 714.205362,202.632029 714.240038,204.977307 C714.253908,205.694401 713.67829,206.286783 712.9605,206.297176 L712.939694,206.297176 Z M296.91982,206.362996 L296.902483,206.362996 C296.181225,206.352603 295.609074,205.763686 295.619477,205.043127 C295.650685,202.697849 295.803259,200.328321 296.066795,198.007292 C296.146549,197.293662 296.79152,196.777493 297.505842,196.864098 C298.216697,196.943775 298.729899,197.588121 298.650145,198.301751 C298.397011,200.536174 298.251373,202.819097 298.220164,205.081234 C298.209762,205.791399 297.627207,206.362996 296.91982,206.362996 Z M19.506198,207.353764 C18.7884082,207.353764 18.2058541,206.771774 18.2058541,206.05468 C18.2058541,203.709402 18.323752,201.336409 18.5526125,199.011916 C18.6219642,198.298286 19.2704023,197.782117 19.9743218,197.847937 C20.688644,197.917222 21.2122491,198.554639 21.1394298,199.268269 C20.9175045,201.50962 20.8065418,203.792543 20.8065418,206.05468 C20.8065418,206.771774 20.2239878,207.353764 19.506198,207.353764 Z M160.470406,224.969334 C159.894787,224.969334 159.364247,224.584806 159.211673,224.002816 C158.618716,221.740679 158.133255,219.416186 157.769159,217.095157 C157.658196,216.388455 158.14019,215.723325 158.851045,215.61247 C159.561899,215.501615 160.224208,215.983141 160.338638,216.693307 C160.688864,218.924266 161.156988,221.165618 161.729139,223.34115 C161.912921,224.037458 161.496811,224.747624 160.799827,224.927764 C160.688864,224.955477 160.581369,224.969334 160.470406,224.969334 Z M571.802107,225.921995 C571.687677,225.921995 571.566311,225.908138 571.451881,225.873496 C570.758364,225.6795 570.356125,224.96587 570.550309,224.27649 C571.150201,222.100958 571.649533,219.873463 572.030967,217.645968 C572.152333,216.939267 572.825044,216.468133 573.535899,216.585916 C574.243286,216.707164 574.718345,217.379223 574.596979,218.085924 C574.198207,220.396561 573.681537,222.714125 573.050437,224.969334 C572.890928,225.544395 572.370791,225.921995 571.802107,225.921995 Z M438.133695,225.928924 C437.565011,225.928924 437.044873,225.551324 436.885365,224.976263 C436.257732,222.724518 435.737594,220.410418 435.338822,218.096317 C435.213989,217.386152 435.692516,216.714092 436.399903,216.592845 C437.10729,216.478525 437.780001,216.946195 437.901367,217.652897 C438.286268,219.880392 438.782133,222.111351 439.38896,224.279954 C439.579677,224.972798 439.177437,225.689892 438.483921,225.880425 C438.366023,225.915067 438.248125,225.928924 438.133695,225.928924 Z M294.12148,226.874657 C294.000115,226.874657 293.875282,226.857335 293.753917,226.819229 C293.067335,226.621768 292.672031,225.897746 292.87315,225.21183 C293.507718,223.050155 294.038258,220.826124 294.454369,218.602094 C294.586137,217.898856 295.269251,217.431186 295.969703,217.566291 C296.67709,217.697932 297.141746,218.376919 297.009978,219.080156 C296.579997,221.387328 296.028651,223.6945 295.369811,225.939316 C295.203367,226.510913 294.683229,226.874657 294.12148,226.874657 Z M168.681644,243.980987 C168.248196,243.980987 167.825151,243.762741 167.578952,243.371283 C166.33409,241.38282 165.179385,239.307751 164.142577,237.204968 C163.827027,236.560622 164.090563,235.781172 164.735534,235.462464 C165.380504,235.150684 166.160711,235.413965 166.476261,236.054846 C167.474925,238.077952 168.588019,240.080272 169.784336,241.992523 C170.16577,242.602226 169.97852,243.402461 169.371693,243.783526 C169.156703,243.918631 168.91744,243.980987 168.681644,243.980987 Z M563.320397,244.8124 C563.077667,244.8124 562.834936,244.743115 562.616478,244.601082 C562.013118,244.213089 561.836272,243.40939 562.224641,242.810079 C563.452166,240.908221 564.589533,238.926686 565.615938,236.917437 C565.941891,236.28002 566.725565,236.027132 567.367067,236.352769 C568.005103,236.678406 568.258236,237.46132 567.935751,238.098737 C566.867735,240.184199 565.681822,242.241947 564.412686,244.213089 C564.166488,244.597618 563.74691,244.8124 563.320397,244.8124 Z M446.618872,244.819328 C446.192359,244.819328 445.772781,244.608011 445.526583,244.223482 C444.25398,242.248875 443.068066,240.191127 442.003518,238.105665 C441.674097,237.471713 441.930699,236.685334 442.568734,236.359697 C443.210237,236.037525 443.993911,236.286949 444.319864,236.924366 C445.346268,238.93015 446.487103,240.91515 447.71116,242.817008 C448.09953,243.416318 447.926151,244.223482 447.322791,244.611475 C447.104333,244.750044 446.861603,244.819328 446.618872,244.819328 Z M285.369299,245.640349 C285.123101,245.640349 284.873435,245.5676 284.65151,245.422103 C284.051618,245.023717 283.888641,244.220018 284.287413,243.620707 C285.539211,241.739635 286.707787,239.778885 287.761932,237.780029 C288.098288,237.14954 288.881962,236.907044 289.519997,237.23961 C290.154565,237.575639 290.397296,238.362018 290.06094,238.995971 C288.965184,241.067576 287.751529,243.108002 286.454653,245.05836 C286.204987,245.43596 285.788877,245.640349 285.369299,245.640349 Z M182.146271,259.718949 C181.844591,259.718949 181.542912,259.615022 181.296713,259.403704 C179.524778,257.869054 177.811792,256.230477 176.195898,254.519151 C175.703501,253.999518 175.727774,253.178497 176.251379,252.686577 C176.771517,252.194658 177.593334,252.215443 178.089198,252.738541 C179.642676,254.380582 181.296713,255.960267 182.999297,257.436026 C183.543707,257.90716 183.602656,258.728181 183.131065,259.272064 C182.874464,259.569987 182.510367,259.718949 182.146271,259.718949 Z M549.633845,260.356366 C549.262814,260.356366 548.89525,260.197011 548.638648,259.89216 C548.173992,259.344813 548.246812,258.527256 548.79469,258.06305 C550.521546,256.608077 552.196389,255.052641 553.77414,253.431385 C554.270004,252.91868 555.095289,252.904823 555.611959,253.403671 C556.125161,253.905984 556.135564,254.727004 555.6397,255.239709 C553.999533,256.923321 552.262273,258.544577 550.469533,260.04805 C550.226802,260.255903 549.92859,260.356366 549.633845,260.356366 Z M460.308892,260.363294 C460.014147,260.363294 459.715935,260.262832 459.469736,260.058442 C457.673528,258.544577 455.936269,256.926785 454.303037,255.250102 C453.807172,254.737397 453.814108,253.912912 454.330778,253.414064 C454.84398,252.915216 455.669265,252.929073 456.168597,253.438314 C457.739412,255.052641 459.417723,256.611541 461.148047,258.069979 C461.695925,258.534185 461.765277,259.351741 461.304088,259.899088 C461.044019,260.207404 460.676456,260.363294 460.308892,260.363294 Z M271.464289,260.990318 C271.086323,260.990318 270.715291,260.8275 270.45869,260.512256 C270.000969,259.95798 270.084191,259.136959 270.639004,258.68661 C272.390134,257.255887 274.085782,255.717772 275.680871,254.12423 C276.187138,253.618453 277.012423,253.618453 277.522158,254.12423 C278.028425,254.63347 278.028425,255.454491 277.522158,255.960267 C275.864653,257.616166 274.10312,259.209708 272.286107,260.695859 C272.046843,260.89332 271.755566,260.990318 271.464289,260.990318 Z M199.650633,270.797532 C199.477254,270.797532 199.300407,270.76289 199.127028,270.686677 C196.990997,269.747872 194.865368,268.684356 192.816026,267.523842 C192.191861,267.173955 191.969935,266.380648 192.323629,265.757088 C192.677323,265.130064 193.471399,264.908354 194.099032,265.265169 C196.068619,266.380648 198.114494,267.406058 200.174238,268.31022 C200.833079,268.597751 201.131291,269.366808 200.840014,270.021546 C200.628492,270.510001 200.149965,270.797532 199.650633,270.797532 Z M531.973442,271.188989 C531.463707,271.188989 530.981713,270.891066 530.773658,270.395682 C530.492784,269.734015 530.804866,268.971887 531.463707,268.691285 C533.54079,267.814836 535.600534,266.81714 537.58746,265.736303 C538.211625,265.386416 539.005701,265.621984 539.348992,266.252472 C539.69575,266.88296 539.463422,267.669339 538.83579,268.015761 C536.772577,269.138169 534.633078,270.173972 532.479709,271.088526 C532.309797,271.154347 532.139886,271.188989 531.973442,271.188989 Z M477.965827,271.192453 C477.795916,271.192453 477.629472,271.157811 477.463028,271.091991 C475.299256,270.173972 473.163224,269.141633 471.106947,268.019225 C470.475847,267.672803 470.243519,266.886425 470.586809,266.255936 C470.933568,265.628912 471.724177,265.396809 472.355277,265.739767 C474.3318,266.820604 476.391544,267.814836 478.475562,268.694749 C479.134403,268.975351 479.446486,269.740944 479.165611,270.399146 C478.954089,270.89453 478.475562,271.192453 477.965827,271.192453 Z M253.647845,271.566589 C253.134642,271.566589 252.649181,271.261738 252.444593,270.755961 C252.174122,270.094295 252.493139,269.33563 253.158916,269.065421 C255.253336,268.216686 257.326951,267.246704 259.324279,266.197044 C259.958847,265.861015 260.745988,266.100046 261.078876,266.737463 C261.415232,267.367952 261.172501,268.157794 260.537933,268.493824 C258.467786,269.585054 256.314417,270.589678 254.136774,271.473055 C253.977265,271.538875 253.810821,271.566589 253.647845,271.566589 Z M219.65859,276.191326 C219.606577,276.191326 219.558031,276.187862 219.509484,276.180933 C217.175801,275.921117 214.835182,275.536588 212.543109,275.03774 C211.842657,274.885314 211.395339,274.195934 211.547912,273.496161 C211.700486,272.792924 212.394003,272.346039 213.094455,272.501929 C215.299838,272.979992 217.557235,273.347199 219.804229,273.600088 C220.515084,273.683229 221.028286,274.32411 220.948532,275.03774 C220.872245,275.702871 220.310496,276.191326 219.65859,276.191326 Z M511.892665,276.298717 C511.226889,276.298717 510.661673,275.79294 510.595789,275.12781 C510.526437,274.410716 511.046575,273.773299 511.760897,273.704014 C514.011359,273.482304 516.272223,273.139346 518.488009,272.69939 C519.188461,272.560821 519.875043,273.007706 520.017214,273.714407 C520.159384,274.421108 519.705131,275.10356 518.997744,275.245593 C516.702204,275.706335 514.351182,276.056221 512.020966,276.291788 C511.975887,276.295253 511.930809,276.298717 511.892665,276.298717 Z M498.050071,276.298717 C498.00846,276.298717 497.963382,276.295253 497.921771,276.291788 C495.581152,276.056221 493.233598,275.709799 490.941525,275.245593 C490.234138,275.10356 489.783352,274.421108 489.922056,273.714407 C490.064226,273.01117 490.754276,272.560821 491.45126,272.69939 C493.663578,273.14281 495.924443,273.482304 498.174904,273.704014 C498.889227,273.773299 499.416299,274.410716 499.34348,275.12781 C499.277596,275.796405 498.71238,276.298717 498.050071,276.298717 Z M233.494249,276.385322 C232.825005,276.385322 232.259789,275.876082 232.20084,275.197094 C232.141891,274.483464 232.672432,273.85644 233.386754,273.794084 C235.640683,273.600088 237.908483,273.295236 240.124269,272.882994 C240.835123,272.751353 241.511302,273.219023 241.64307,273.92226 C241.774839,274.625497 241.310182,275.304485 240.602795,275.43959 C238.30032,275.865689 235.945831,276.180933 233.608679,276.381858 C233.570536,276.385322 233.532392,276.385322 233.494249,276.385322 Z" id="Fill-22" fill="#FFFFFF"></path>
                <path d="M137.837141,206.053987 C137.837141,233.078386 115.908143,254.986128 88.857523,254.986128 C61.8069034,254.986128 39.8779048,233.078386 39.8779048,206.053987 C39.8779048,179.029589 61.8069034,157.121847 88.857523,157.121847 C115.908143,157.121847 137.837141,179.029589 137.837141,206.053987" id="Fill-23" fill="#808080"></path>
                <g id="Group-27" transform="translate(38.143420, 155.909022)">
                    <mask id="mask-3" fill="white">
                        <use xlink:href="#path-2"></use>
                    </mask>
                    <g id="Clip-26"></g>
                    <path d="M0.866895898,50.1446186 C0.866895898,77.6470798 23.1842639,99.9462791 50.71341,99.9462791 C78.2425562,99.9462791 100.563392,77.6470798 100.563392,50.1446186 C100.563392,22.6421573 78.2425562,0.346422235 50.71341,0.346422235 C23.1842639,0.346422235 0.866895898,22.6421573 0.866895898,50.1446186" id="Fill-25" fill="url(#linearGradient-4)" mask="url(#mask-3)"></path>
                </g>
                <g id="Fill-28">
                    <use fill="black" fill-opacity="1" filter="url(#filter-6)" xlink:href="#path-5"></use>
                    <use fill="#FFFFFF" fill-rule="evenodd" xlink:href="#path-5"></use>
                </g>
                <path d="M692.577697,206.053987 C692.577697,233.078386 670.648698,254.986128 643.598078,254.986128 C616.543991,254.986128 594.61846,233.078386 594.61846,206.053987 C594.61846,179.029589 616.543991,157.121847 643.598078,157.121847 C670.648698,157.121847 692.577697,179.029589 692.577697,206.053987" id="Fill-30" fill="#808080"></path>
                <g id="Group-35" transform="translate(592.956794, 155.909022)">
                    <mask id="mask-8" fill="white">
                        <use xlink:href="#path-7"></use>
                    </mask>
                    <g id="Clip-34"></g>
                    <path d="M0.794076642,50.1446186 C0.794076642,77.6470798 23.1079771,99.9462791 50.6405908,99.9462791 C78.1662693,99.9462791 100.487105,77.6470798 100.487105,50.1446186 C100.487105,22.6421573 78.1662693,0.346422235 50.6405908,0.346422235 C23.1079771,0.346422235 0.794076642,22.6421573 0.794076642,50.1446186" id="Fill-33" fill="url(#linearGradient-9)" mask="url(#mask-8)"></path>
                </g>
                <g id="Fill-36">
                    <use fill="black" fill-opacity="1" filter="url(#filter-11)" xlink:href="#path-10"></use>
                    <use fill="#FFFFFF" fill-rule="evenodd" xlink:href="#path-10"></use>
                </g>
                <path d="M276.540485,206.053987 C276.540485,233.078386 254.611486,254.986128 227.560867,254.986128 C200.510247,254.986128 178.581248,233.078386 178.581248,206.053987 C178.581248,179.029589 200.510247,157.121847 227.560867,157.121847 C254.611486,157.121847 276.540485,179.029589 276.540485,206.053987" id="Fill-38" fill="#808080"></path>
                <g id="Group-43" transform="translate(176.846763, 155.909022)">
                    <mask id="mask-13" fill="white">
                        <use xlink:href="#path-12"></use>
                    </mask>
                    <g id="Clip-42"></g>
                    <path d="M0.870363481,50.1446186 C0.870363481,77.6470798 23.1842639,99.9462791 50.71341,99.9462791 C78.2425562,99.9462791 100.559924,77.6470798 100.559924,50.1446186 C100.559924,22.6421573 78.2425562,0.346422235 50.71341,0.346422235 C23.1842639,0.346422235 0.870363481,22.6421573 0.870363481,50.1446186" id="Fill-41" fill="url(#linearGradient-14)" mask="url(#mask-13)"></path>
                </g>
                <g id="Fill-44">
                    <use fill="black" fill-opacity="1" filter="url(#filter-16)" xlink:href="#path-15"></use>
                    <use fill="#FFFFFF" fill-rule="evenodd" xlink:href="#path-15"></use>
                </g>
                <path d="M415.242095,206.053987 C415.242095,233.078386 393.316564,254.986128 366.262477,254.986128 C339.211857,254.986128 317.282858,233.078386 317.282858,206.053987 C317.282858,179.029589 339.211857,157.121847 366.262477,157.121847 C393.316564,157.121847 415.242095,179.029589 415.242095,206.053987" id="Fill-46" fill="#808080"></path>
                <g id="Group-51" transform="translate(315.550107, 155.909022)">
                    <mask id="mask-18" fill="white">
                        <use xlink:href="#path-17"></use>
                    </mask>
                    <g id="Clip-50"></g>
                    <path d="M0.866895898,50.1446186 C0.866895898,77.6470798 23.1842639,99.9462791 50.71341,99.9462791 C78.2425562,99.9462791 100.559924,77.6470798 100.559924,50.1446186 C100.559924,22.6421573 78.2425562,0.346422235 50.71341,0.346422235 C23.1842639,0.346422235 0.866895898,22.6421573 0.866895898,50.1446186" id="Fill-49" fill="url(#linearGradient-19)" mask="url(#mask-18)"></path>
                </g>
                <g id="Fill-52">
                    <use fill="black" fill-opacity="1" filter="url(#filter-21)" xlink:href="#path-20"></use>
                    <use fill="#FFFFFF" fill-rule="evenodd" xlink:href="#path-20"></use>
                </g>
                <path d="M553.945438,206.053987 C553.945438,233.078386 532.019907,254.986128 504.96582,254.986128 C477.915201,254.986128 455.986202,233.078386 455.986202,206.053987 C455.986202,179.029589 477.915201,157.121847 504.96582,157.121847 C532.019907,157.121847 553.945438,179.029589 553.945438,206.053987" id="Fill-54" fill="#808080"></path>
                <g id="Group-59" transform="translate(454.253450, 155.909022)">
                    <mask id="mask-23" fill="white">
                        <use xlink:href="#path-22"></use>
                    </mask>
                    <g id="Clip-58"></g>
                    <path d="M0.866895898,50.1446186 C0.866895898,77.6470798 23.1842639,99.9462791 50.7099424,99.9462791 C78.2425562,99.9462791 100.556457,77.6470798 100.556457,50.1446186 C100.556457,22.6421573 78.2425562,0.346422235 50.7099424,0.346422235 C23.1842639,0.346422235 0.866895898,22.6421573 0.866895898,50.1446186" id="Fill-57" fill="url(#linearGradient-24)" mask="url(#mask-23)"></path>
                </g>
                <g id="Fill-60">
                    <use fill="black" fill-opacity="1" filter="url(#filter-26)" xlink:href="#path-25"></use>
                    <use fill="#FFFFFF" fill-rule="evenodd" xlink:href="#path-25"></use>
                </g>
                <text id="وقد-نُقل-الإشراف-على" font-family="DroidArabicKufi-Bold, Droid Arabic Kufi" font-size="13" font-weight="bold" line-spacing="24" fill="#000000">
                    <tspan x="307.912842" y="391">وقد نُقل الإشراف </tspan>
                    <tspan x="299" y="415">على برنامج التعاملات </tspan>
                </text>
                <text id="وقد-نُقل-الإشراف-على-copy" font-family="DroidArabicKufi-Bold, Droid Arabic Kufi" font-size="13" font-weight="bold" line-spacing="24" fill="#000000">
                    <tspan x="25.9128418" y="391">وقد نُقل الإشراف </tspan>
                    <tspan x="17" y="415">على برنامج التعاملات </tspan>
                </text>
                <text id="وقد-نُقل-الإشراف-على-copy-4" font-family="DroidArabicKufi-Bold, Droid Arabic Kufi" font-size="13" font-weight="bold" line-spacing="24" fill="#000000">
                    <tspan x="171.912842" y="17">وقد نُقل الإشراف </tspan>
                    <tspan x="163" y="41">على برنامج التعاملات </tspan>
                </text>
                <text id="وقد-نُقل-الإشراف-على-copy-2" font-family="DroidArabicKufi-Bold, Droid Arabic Kufi" font-size="13" font-weight="bold" line-spacing="24" fill="#000000">
                    <tspan x="578.912842" y="391">وقد نُقل الإشراف </tspan>
                    <tspan x="570" y="415">على برنامج التعاملات </tspan>
                </text>
                <text id="وقد-نُقل-الإشراف-على-copy-5" font-family="DroidArabicKufi-Bold, Droid Arabic Kufi" font-size="13" font-weight="bold" line-spacing="24" fill="#000000">
                    <tspan x="442.912842" y="17">وقد نُقل الإشراف </tspan>
                    <tspan x="434" y="41">على برنامج التعاملات </tspan>
                </text>
                <text id="2020" font-family="Lato-Semibold, Lato" font-size="21" font-weight="500" fill="#3A884B">
                    <tspan x="621.14" y="214">2020</tspan>
                </text>
                <text id="2019" font-family="Lato-Semibold, Lato" font-size="21" font-weight="500" fill="#3A884B">
                    <tspan x="481.14" y="214">2019</tspan>
                </text>
                <text id="2018" font-family="Lato-Semibold, Lato" font-size="21" font-weight="500" fill="#3A884B">
                    <tspan x="343.14" y="214">2018</tspan>
                </text>
                <text id="2017" font-family="Lato-Semibold, Lato" font-size="21" font-weight="500" fill="#3A884B">
                    <tspan x="204.14" y="214">2017</tspan>
                </text>
                <text id="2016" font-family="Lato-Semibold, Lato" font-size="21" font-weight="500" fill="#3A884B">
                    <tspan x="65.0668492" y="214">2016</tspan>
                </text>
            </g>
        </g>
    </g>
</svg>