<?xml version="1.0" encoding="UTF-8"?>
<svg width="55px" height="46px" viewBox="0 0 55 46" version="1.1" xmlns="http://www.w3.org/2000/svg" xmlns:xlink="http://www.w3.org/1999/xlink">
    <!-- Generator: Sketch 51.3 (57544) - http://www.bohemiancoding.com/sketch -->
    <title>CTA14@1.5x</title>
    <desc>Created with Sketch.</desc>
    <defs>
        <linearGradient x1="94.6234953%" y1="50%" x2="5.66269137%" y2="55.7266874%" id="linearGradient-1">
            <stop stop-color="#0A6C6E" offset="0%"></stop>
            <stop stop-color="#349D80" offset="100%"></stop>
        </linearGradient>
    </defs>
    <g id="Page-1" stroke="none" stroke-width="1" fill="none" fill-rule="evenodd">
        <g id="Home_2" transform="translate(-899.000000, -1210.000000)">
            <g id="CTA14" transform="translate(899.000000, 1210.000000)">
                <path d="M24.7641974,8.947 L26.6453557,4.41815625 C27.131189,3.25090625 26.6988552,2.92171875 25.6874253,3.68575 L21.7653333,6.65346875 C21.5491664,6.81878125 21.3322765,6.92515625 21.1240623,6.98553125 C22.478901,7.62234375 23.6645657,8.53659375 24.6109286,9.65353125 C24.6167123,9.43503125 24.6608132,9.2 24.7641974,8.947" id="Fill-1" fill="url(#linearGradient-1)"></path>
                <path d="M6.52057738,14.6703344 C6.35357217,14.8018656 6.14608085,14.9161469 5.89593452,14.9988031 L1.22123462,16.5520219 C0.0160498512,16.9530844 0.0478603671,17.4935844 1.29280828,17.7523344 L6.1149933,18.7535531 C6.36658557,18.8067406 6.57986062,18.8901156 6.75626438,18.9979281 C6.44321999,17.8615844 6.32103869,16.6512094 6.42731473,15.4070531 C6.44828075,15.1583656 6.4815372,14.9139906 6.52057738,14.6703344" id="Fill-3" fill="url(#linearGradient-1)"></path>
                <path d="M27.4618738,14.4312781 L31.50687,11.6317469 C32.5501104,10.9101219 32.3671999,10.4026844 31.09984,10.5018719 L26.1872842,10.8899969 C25.9147259,10.9108406 25.677593,10.8806531 25.4657639,10.8188406 C26.2422297,12.0428719 26.7591505,13.4386844 26.9565203,14.9221844 C27.0787016,14.7489656 27.2449839,14.5829344 27.4618738,14.4312781" id="Fill-5" fill="url(#linearGradient-1)"></path>
                <path d="M13.3753821,5.94456562 L10.01142,2.36447187 C9.14386049,1.43872187 8.66308792,1.69315937 8.94359883,2.92437812 L10.0309401,7.70478437 C10.0909463,7.97072187 10.0938382,8.21006562 10.0605817,8.42640937 C11.1847943,7.48484687 12.5085455,6.78119062 13.9515862,6.38084687 C13.7556623,6.28525312 13.5611844,6.14365937 13.3753821,5.94456562" id="Fill-7" fill="url(#linearGradient-1)"></path>
                <path d="M8.29979737,9.38076562 L3.52243626,8.17542187 C2.2890558,7.86564062 2.02300422,8.33426562 2.92815799,9.22048437 L6.44032812,12.6575469 C6.62902232,12.8437031 6.76566295,13.0348906 6.85603373,13.2289531 C7.30138095,11.7972031 8.04748214,10.5084844 9.02131771,9.43035937 C8.80225893,9.45695312 8.56368006,9.44689062 8.29979737,9.38076562" id="Fill-9" fill="url(#linearGradient-1)"></path>
                <path d="M19.7634397,6.46364687 C19.6492111,6.27892812 19.5624551,6.05180312 19.5125704,5.78370937 L18.6327205,0.964490625 C18.4042631,-0.280384375 17.8627614,-0.326384375 17.4282587,0.863146875 L15.7423013,5.46602187 C15.6497617,5.72189687 15.5246885,5.93105312 15.3808182,6.09349062 C16.1008926,6.00077187 16.8383182,5.98136562 17.5916491,6.04461562 C18.3442569,6.10786562 19.0701151,6.25233437 19.7634397,6.46364687" id="Fill-11" fill="url(#linearGradient-1)"></path>
                <path d="M17.4117028,8.08399688 C12.9170215,7.70449688 8.96456486,11.0186531 8.5842846,15.4864031 C8.45270474,17.0151844 8.76719506,18.4749656 9.40412835,19.7564969 C14.7229912,18.1824344 20.1654813,17.3199344 24.8589783,16.8584969 C25.2385356,12.3907469 21.9056611,8.46349688 17.4117028,8.08399688" id="Fill-13" fill="url(#linearGradient-1)"></path>
                <path d="M0.0378834325,26.2471688 C0.0378834325,26.2471688 -0.368423611,28.3753875 1.48309301,33.1787938 C16.1817202,23.9478875 31.8816558,20.0558562 37.8960122,18.8181687 C33.2979467,18.61045 13.3252805,18.6111687 0.0378834325,26.2471688" id="Fill-15" fill="url(#linearGradient-1)"></path>
                <path d="M37.8002191,19.9535063 C23.4587372,24.8180063 10.7677873,33.892225 5.18070399,38.9680375 C7.18910429,40.740475 10.6376534,42.8198188 13.8215969,43.845475 C21.9723186,31.4463188 33.0850331,23.3251625 38.1262769,20.0426313 C38.3482276,19.8988813 38.5578878,19.7630375 38.7552576,19.637975 C38.4364294,19.741475 38.1168783,19.8464125 37.8002191,19.9535063" id="Fill-17" fill="url(#linearGradient-1)"></path>
                <path d="M42.1626699,21.11975 C44.9844072,25.047 49.0641059,32.3955 50.9098388,36.1797188 C52.2241915,35.1741875 54.6822768,32.3279375 54.6822768,32.3279375 C54.6822768,32.3279375 48.9057763,24.3045313 42.1626699,21.11975" id="Fill-19" fill="url(#linearGradient-1)"></path>
                <path d="M39.5193606,20.5147062 C39.5085161,20.5103937 39.4991176,20.5068 39.488996,20.5024875 C30.1974335,28.1442375 24.9168879,38.6214562 22.2664936,45.3863312 C23.0899521,45.4388 23.929316,45.46755 24.7831391,45.46755 C28.0213051,45.46755 31.2905585,45.0492375 34.3306317,44.314675 C33.810096,33.09355 37.8442478,23.8353312 39.5193606,20.5147062" id="Fill-21" fill="url(#linearGradient-1)"></path>
                <path d="M41.1862316,21.7497344 C41.0250102,21.1668281 40.9584973,21.2178594 40.9180112,21.0769844 C40.8283633,21.3422031 40.7054591,21.5995156 40.6548514,21.8726406 C39.099751,30.1792344 39.4258088,36.9433906 40.6801553,42.1708594 C42.6495154,41.2803281 45.1300126,40.1001406 46.4747299,38.9673906 C44.8473328,31.7741406 41.9836634,24.6283281 41.1862316,21.7497344" id="Fill-24" fill="url(#linearGradient-1)"></path>
                <path d="M40.8996478,21.0102844 C40.8996478,21.0102844 40.9076004,21.0390344 40.917722,21.0771281 C40.9220598,21.0663469 40.9256746,21.0548469 40.9300124,21.0440656 C40.9198909,21.0340031 40.9104923,21.0210656 40.8996478,21.0102844" id="Fill-26" fill="#000000"></path>
            </g>
        </g>
    </g>
</svg>