<?xml version="1.0" encoding="UTF-8"?>
<svg width="26px" height="26px" viewBox="0 0 26 26" version="1.1" xmlns="http://www.w3.org/2000/svg" xmlns:xlink="http://www.w3.org/1999/xlink">
    <!-- Generator: sketchtool 51.3 (57544) - http://www.bohemiancoding.com/sketch -->
    <title>54821BF7-8BFD-4B52-989C-185612C6E5D8@1.5x</title>
    <desc>Created with sketchtool.</desc>
    <defs></defs>
    <g id="Page-1" stroke="none" stroke-width="1" fill="none" fill-rule="evenodd">
        <g id="Home_2" transform="translate(-1262.000000, -2356.000000)" fill="#B48C2D">
            <g id="CalanderColor" transform="translate(1262.000000, 2356.000000)">
                <path d="M23.5925926,25.037037 L2.40740741,25.037037 C1.61103704,25.037037 0.962962963,24.388963 0.962962963,23.5925926 L0.962962963,9.62962963 L25.037037,9.62962963 L25.037037,23.5925926 C25.037037,24.388963 24.388963,25.037037 23.5925926,25.037037 M2.40740741,3.37037037 L5.77777778,3.37037037 L5.77777778,4.33333333 C5.77777778,5.1297037 6.42585185,5.77777778 7.22222222,5.77777778 L8.66666667,5.77777778 C8.93244444,5.77777778 9.14814815,5.56207407 9.14814815,5.2962963 C9.14814815,5.03051852 8.93244444,4.81481481 8.66666667,4.81481481 L7.22222222,4.81481481 C6.95692593,4.81481481 6.74074074,4.59862963 6.74074074,4.33333333 L6.74074074,1.44444444 C6.74074074,1.17914815 6.95692593,0.962962963 7.22222222,0.962962963 L7.7037037,0.962962963 C7.969,0.962962963 8.18518519,1.17914815 8.18518519,1.44444444 L8.18518519,2.40740741 C7.91940741,2.40740741 7.7037037,2.62311111 7.7037037,2.88888889 C7.7037037,3.15466667 7.91940741,3.37037037 8.18518519,3.37037037 L16.8518519,3.37037037 L16.8518519,4.33333333 C16.8518519,5.1297037 17.4999259,5.77777778 18.2962963,5.77777778 L19.7407407,5.77777778 C20.0065185,5.77777778 20.2222222,5.56207407 20.2222222,5.2962963 C20.2222222,5.03051852 20.0065185,4.81481481 19.7407407,4.81481481 L18.2962963,4.81481481 C18.031,4.81481481 17.8148148,4.59862963 17.8148148,4.33333333 L17.8148148,1.44444444 C17.8148148,1.17914815 18.031,0.962962963 18.2962963,0.962962963 L18.7777778,0.962962963 C19.0430741,0.962962963 19.2592593,1.17914815 19.2592593,1.44444444 L19.2592593,2.40740741 C18.9934815,2.40740741 18.7777778,2.62311111 18.7777778,2.88888889 C18.7777778,3.15466667 18.9934815,3.37037037 19.2592593,3.37037037 L23.5925926,3.37037037 C24.388963,3.37037037 25.037037,4.01844444 25.037037,4.81481481 L25.037037,8.66666667 L0.962962963,8.66666667 L0.962962963,4.81481481 C0.962962963,4.01844444 1.61103704,3.37037037 2.40740741,3.37037037 M23.5925926,2.40740741 L20.2222222,2.40740741 L20.2222222,1.44444444 C20.2222222,0.648074074 19.5741481,0 18.7777778,0 L18.2962963,0 C17.4999259,0 16.8518519,0.648074074 16.8518519,1.44444444 L16.8518519,2.40740741 L9.14814815,2.40740741 L9.14814815,1.44444444 C9.14814815,0.648074074 8.50007407,0 7.7037037,0 L7.22222222,0 C6.42585185,0 5.77777778,0.648074074 5.77777778,1.44444444 L5.77777778,2.40740741 L2.40740741,2.40740741 C1.07996296,2.40740741 0,3.48737037 0,4.81481481 L0,23.5925926 C0,24.920037 1.07996296,26 2.40740741,26 L23.5925926,26 C24.920037,26 26,24.920037 26,23.5925926 L26,4.81481481 C26,3.48737037 24.920037,2.40740741 23.5925926,2.40740741"></path>
            </g>
        </g>
    </g>
</svg>