<?xml version="1.0" encoding="UTF-8"?>
<svg width="53px" height="47px" viewBox="0 0 53 47" version="1.1" xmlns="http://www.w3.org/2000/svg" xmlns:xlink="http://www.w3.org/1999/xlink">
    <!-- Generator: sketchtool 51.3 (57544) - http://www.bohemiancoding.com/sketch -->
    <title>86CE485D-5F2C-4C7B-A28A-FE3D939594AE@1.5x</title>
    <desc>Created with sketchtool.</desc>
    <defs></defs>
    <g id="Page-1" stroke="none" stroke-width="1" fill="none" fill-rule="evenodd">
        <g id="Contact" transform="translate(-484.000000, -361.000000)" fill="#3A884B">
            <g id="COntact" transform="translate(484.000000, 361.000000)">
                <path d="M26.4427975,7.64503875 C36.7009742,7.64503875 38.7390652,9.60618405 39.0434136,9.99932365 C39.1356283,10.1183635 39.1977293,10.2578906 39.2246308,10.4061214 L40.0383682,14.8949561 C40.0403758,14.9056684 40.0419818,14.9163806 40.0435879,14.9272268 C40.1434313,15.6132125 40.7412874,16.1306142 41.4343025,16.1306142 L49.4854843,16.1306142 C49.9334414,16.1306142 50.34205,15.9444889 50.6363606,15.6067852 C50.9305374,15.2689476 51.0587545,14.838449 50.9974566,14.3945601 L50.664199,11.9821613 C50.6631283,11.9754661 50.6623253,11.968637 50.6615222,11.961808 C49.8097747,4.6180245 37.5924717,2.00142336 26.4427975,2.00142336 C20.2444742,2.00142336 14.5111056,2.80725242 10.2984086,4.27054587 C5.23329495,6.02989915 2.5175803,8.6088735 2.2267495,11.935563 C2.22541111,11.9510957 2.22367121,11.9666285 2.22139596,11.9821613 L1.88813838,14.3945601 C1.82684041,14.838449 1.95505758,15.2689476 2.24923434,15.6067852 C2.54354495,15.9444889 2.95215354,16.1306142 3.40011061,16.1306142 L11.4514263,16.1306142 C12.1444414,16.1306142 12.7422975,15.6133464 12.8420071,14.9272268 C12.8436131,14.9165145 12.8452192,14.9056684 12.8472268,14.8949561 L13.661098,10.4059875 C13.689204,10.2507937 13.7561232,10.1051071 13.8555652,9.98271966 C14.1720929,9.59225812 16.2674667,7.64503875 26.4427975,7.64503875 M49.4854843,18.0052581 L41.4343025,18.0052581 C39.8232899,18.0052581 38.4325753,16.806959 38.1920677,15.2148507 L37.4429742,11.0834034 C36.8299944,10.7015117 34.2967015,9.51968262 26.4427975,9.51968262 C18.6424288,9.51968262 16.0736687,10.7021812 15.4414162,11.0900986 L14.6936611,15.2145829 C14.4531535,16.8068251 13.0625727,18.0052581 11.4514263,18.0052581 L3.40011061,18.0052581 C2.4168,18.0052581 1.48247424,17.5798479 0.836570203,16.8381584 C0.190800001,16.0964689 -0.102573736,15.1122809 0.0320676779,14.1378678 L0.362380809,11.7479647 C0.728830304,7.68828946 3.95139091,4.49081652 9.68382273,2.49954302 C14.0889793,0.969431909 20.0407722,0.126779487 26.4427975,0.126779487 C32.895146,0.126779487 38.8639364,0.984964672 43.2494187,2.54332934 C48.8437293,4.53112137 52.0496939,7.70931225 52.5216081,11.7352439 L52.8535273,14.1378678 C52.9881687,15.1122809 52.694795,16.0964689 52.0490247,16.8381584 C51.4031207,17.5798479 50.468795,18.0052581 49.4854843,18.0052581" id="Fill-1"></path>
                <path d="M21.3066644,13.9498066 C20.5484348,13.9498066 19.8922436,14.5203132 19.7803913,15.2767397 L19.2419677,18.9182453 C18.9090996,21.1677257 17.1107243,22.9050113 14.8683008,23.1430049 L9.41886211,23.7215125 C7.33615078,23.942555 5.62489125,25.549656 5.25733814,27.629354 L3.16077971,39.4929627 C2.91448955,40.8866153 3.29010893,42.3084746 4.19124591,43.3937526 C5.09251733,44.4790306 6.41417593,45.1014755 7.81757276,45.1014755 L45.1825595,45.1014755 C46.5859563,45.1014755 47.9076149,44.4790306 48.8087519,43.3937526 C49.7098889,42.3084746 50.0853738,40.8866153 49.8390837,39.4929627 L47.7426597,27.629354 C47.3751066,25.549656 45.663847,23.942555 43.5811357,23.7215125 L38.1315626,23.1430049 C35.8892735,22.9050113 34.0908983,21.1677257 33.7580301,18.9182453 L33.219472,15.2767397 C33.1077542,14.5203132 32.451563,13.9498066 31.6933335,13.9498066 L21.3066644,13.9498066 Z M45.1825595,47 L7.81757276,47 C5.85572106,47 4.00800711,46.1299333 2.74845879,44.612741 C1.4886416,43.0955487 0.963661757,41.1080647 1.30782268,39.1597717 L3.40438111,27.296163 C3.91806818,24.3888438 6.3103899,22.1424825 9.22191065,21.8334298 L14.6714838,21.2550578 C16.0603613,21.1075154 17.1743134,20.0314588 17.3802722,18.6380774 L17.9188303,14.9967073 C18.167137,13.3174623 19.6236368,12.0512821 21.3066644,12.0512821 L31.6933335,12.0512821 C33.3764955,12.0512821 34.8328608,13.3175979 35.0811675,14.9967073 L35.6197256,18.6380774 C35.8256844,20.0314588 36.9396365,21.1075154 38.3285141,21.2550578 L43.7779527,21.8334298 C46.6896079,22.1424825 49.0819296,24.3888438 49.5956167,27.296163 L51.6921751,39.1597717 C52.0363361,41.1080647 51.5113562,43.0955487 50.2518079,44.612741 C48.9921251,46.1299333 47.1444112,47 45.1825595,47 Z" id="Fill-4"></path>
                <path d="M26.5,23.582357 C22.8923974,23.582357 19.9573323,26.5188185 19.9573323,30.1281376 C19.9573323,33.7375917 22.8923974,36.6740533 26.5,36.6740533 C30.1076026,36.6740533 33.0426677,33.7375917 33.0426677,30.1281376 C33.0426677,26.5188185 30.1076026,23.582357 26.5,23.582357 M26.5,38.5641026 C21.8506658,38.5641026 18.0681818,34.7798189 18.0681818,30.1281376 C18.0681818,25.4765914 21.8506658,21.6923077 26.5,21.6923077 C31.1493342,21.6923077 34.9318182,25.4765914 34.9318182,30.1281376 C34.9318182,34.7798189 31.1493342,38.5641026 26.5,38.5641026" id="Fill-6"></path>
            </g>
        </g>
    </g>
</svg>