<?xml version="1.0" encoding="UTF-8"?>
<svg width="60px" height="54px" viewBox="0 0 60 54" version="1.1" xmlns="http://www.w3.org/2000/svg" xmlns:xlink="http://www.w3.org/1999/xlink">
    <!-- Generator: Sketch 51.3 (57544) - http://www.bohemiancoding.com/sketch -->
    <title>Inq@1.5x</title>
    <desc>Created with Sketch.</desc>
    <defs></defs>
    <g id="Page-1" stroke="none" stroke-width="1" fill="none" fill-rule="evenodd">
        <g id="Contact" transform="translate(-1120.000000, -354.000000)" fill="#3A884B" fill-rule="nonzero">
            <g id="Inq" transform="translate(1120.000000, 354.000000)">
                <path d="M59.0040936,0.00546982759 L0.878947368,0.00546982759 C0.393567251,0.00546982759 0,0.397086207 0,0.880060345 L0,53.120056 C0,53.6030302 0.393567251,53.9946466 0.878947368,53.9946466 L59.0042105,53.9946466 C59.4895906,53.9946466 59.8831579,53.6030302 59.8831579,53.120056 L59.8831579,0.880060345 C59.8830409,0.397086207 59.4894737,0.00546982759 59.0040936,0.00546982759 Z M58.1252632,7.4682931 L11.6991813,7.4682931 C11.2138012,7.4682931 10.8202339,7.85990948 10.8202339,8.34288362 C10.8202339,8.82585776 11.2138012,9.21747414 11.6991813,9.21747414 L58.1251462,9.21747414 L58.1252632,52.2454655 L1.75777778,52.2454655 L1.75777778,9.21747414 L7.63672515,9.21747414 C8.12210526,9.21747414 8.51567251,8.82585776 8.51567251,8.34288362 C8.51567251,7.85990948 8.12210526,7.4682931 7.63672515,7.4682931 L1.75777778,7.4682931 L1.75777778,1.75453448 L58.1252632,1.75453448 L58.1251462,7.4682931 L58.1252632,7.4682931 Z" id="Shape"></path>
                <path d="M32.7540351,41.0511724 L27.1290058,41.0511724 C25.0935673,41.0511724 23.4375439,42.6989871 23.4375439,44.7243362 C23.4375439,46.7496853 25.0935673,48.3975 27.1290058,48.3975 L32.7540351,48.3975 C34.7894737,48.3975 36.4454971,46.7496853 36.4454971,44.7243362 C36.4454971,42.6988707 34.7894737,41.0511724 32.7540351,41.0511724 Z M32.7540351,46.648319 L27.1290058,46.648319 C26.062807,46.648319 25.1954386,45.78525 25.1954386,44.7243362 C25.1954386,43.6634224 26.062924,42.8003534 27.1290058,42.8003534 L32.7540351,42.8003534 C33.8202339,42.8003534 34.6876023,43.6635388 34.6876023,44.7243362 C34.6876023,45.7851336 33.8202339,46.648319 32.7540351,46.648319 Z" id="Shape"></path>
                <path d="M51.5040936,3.73693966 L51.3869006,3.73693966 C50.9015205,3.73693966 50.5079532,4.12855603 50.5079532,4.61153017 C50.5079532,5.09450431 50.9015205,5.48612069 51.3869006,5.48612069 L51.5040936,5.48612069 C51.9894737,5.48612069 52.3830409,5.09450431 52.3830409,4.61153017 C52.3830409,4.12855603 51.9894737,3.73693966 51.5040936,3.73693966 Z" id="Shape"></path>
                <path d="M55.254152,3.73693966 L55.1369591,3.73693966 C54.6515789,3.73693966 54.2580117,4.12855603 54.2580117,4.61153017 C54.2580117,5.09450431 54.6515789,5.48612069 55.1369591,5.48612069 L55.254152,5.48612069 C55.7395322,5.48612069 56.1330994,5.09450431 56.1330994,4.61153017 C56.1330994,4.12855603 55.7395322,3.73693966 55.254152,3.73693966 Z" id="Shape"></path>
                <path d="M47.6368421,3.73693966 L47.5196491,3.73693966 C47.034269,3.73693966 46.6407018,4.12855603 46.6407018,4.61153017 C46.6407018,5.09450431 47.034269,5.48612069 47.5196491,5.48612069 L47.6368421,5.48612069 C48.1222222,5.48612069 48.5157895,5.09450431 48.5157895,4.61153017 C48.5157895,4.12855603 48.1223392,3.73693966 47.6368421,3.73693966 Z" id="Shape"></path>
                <path d="M54.9378947,43.3331379 L48.9304094,37.3551983 L52.2864327,34.0158103 C52.7554386,33.5491293 52.5347368,32.7269095 51.8962573,32.5536207 L45.8204678,30.9047586 L45.8204678,19.5370603 C45.8204678,19.0540862 45.4269006,18.6624698 44.9415205,18.6624698 L14.9415205,18.6624698 C14.4561404,18.6624698 14.0625731,19.0540862 14.0625731,19.5370603 L14.0625731,38.1941767 C14.0625731,38.6771509 14.4561404,39.0687672 14.9415205,39.0687672 L38.8091228,39.0687672 L40.2104094,44.1815431 C40.3845614,44.8169741 41.2108772,45.0364655 41.679883,44.5699009 L45.0359064,41.2305129 L51.0435088,47.2083362 C51.3821053,47.5452543 51.9478363,47.5452543 52.2864327,47.2083362 L54.9380117,44.5699009 C55.2811696,44.2283276 55.2811696,43.6745948 54.9378947,43.3331379 Z M15.8203509,37.3197026 L15.8203509,20.4116509 L44.0626901,20.4116509 L44.0626901,30.4277198 L37.3120468,28.5957931 C36.6680702,28.4209914 36.057193,29.0288405 36.2328655,29.669625 L38.3295906,37.3195862 L15.8203509,37.3197026 Z M51.6650292,45.35325 L45.6574269,39.3754267 C45.3188304,39.0383922 44.7530994,39.0385086 44.4145029,39.3754267 L41.5078363,42.267569 L38.3335673,30.6861983 L49.9726316,33.8447328 L47.0660819,36.7369914 C46.722807,37.0785647 46.722807,37.6322974 47.0660819,37.9737543 L53.0736842,43.9515776 L51.6650292,45.35325 Z" id="Shape"></path>
                <path d="M33.6915789,14.9311164 L14.9415205,14.9311164 C14.4561404,14.9311164 14.0625731,15.3227328 14.0625731,15.8057069 C14.0625731,16.288681 14.4561404,16.6802974 14.9415205,16.6802974 L33.6915789,16.6802974 C34.1769591,16.6802974 34.5705263,16.288681 34.5705263,15.8057069 C34.5705263,15.3227328 34.1769591,14.9311164 33.6915789,14.9311164 Z" id="Shape"></path>
                <path d="M45.8790643,14.9311164 L36.5040936,14.9311164 C36.0187135,14.9311164 35.6251462,15.3227328 35.6251462,15.8057069 C35.6251462,16.288681 36.0187135,16.6802974 36.5040936,16.6802974 L45.8791813,16.6802974 C46.3645614,16.6802974 46.7581287,16.288681 46.7581287,15.8057069 C46.7581287,15.3227328 46.3644444,14.9311164 45.8790643,14.9311164 Z" id="Shape"></path>
            </g>
        </g>
    </g>
</svg>