<?xml version="1.0" encoding="UTF-8"?>
<svg width="60px" height="56px" viewBox="0 0 60 56" version="1.1" xmlns="http://www.w3.org/2000/svg" xmlns:xlink="http://www.w3.org/1999/xlink">
    <!-- Generator: sketchtool 51.3 (57544) - http://www.bohemiancoding.com/sketch -->
    <title>052A04E2-A22D-4C8F-976B-EB2701458376@1.5x</title>
    <desc>Created with sketchtool.</desc>
    <defs></defs>
    <g id="Page-1" stroke="none" stroke-width="1" fill="none" fill-rule="evenodd">
        <g id="Contact" transform="translate(-800.000000, -354.000000)" fill="#3A884B" fill-rule="nonzero">
            <g id="Chat" transform="translate(800.000000, 354.000000)">
                <path d="M10,23.465 L23,23.465 C23.553,23.465 24,23.017 24,22.465 C24,21.913 23.553,21.465 23,21.465 L10,21.465 C9.447,21.465 9,21.913 9,22.465 C9,23.017 9.447,23.465 10,23.465 Z" id="Shape"></path>
                <path d="M36,27.465 L10,27.465 C9.447,27.465 9,27.913 9,28.465 C9,29.017 9.447,29.465 10,29.465 L36,29.465 C36.553,29.465 37,29.017 37,28.465 C37,27.913 36.553,27.465 36,27.465 Z" id="Shape"></path>
                <path d="M36,33.465 L10,33.465 C9.447,33.465 9,33.913 9,34.465 C9,35.017 9.447,35.465 10,35.465 L36,35.465 C36.553,35.465 37,35.017 37,34.465 C37,33.913 36.553,33.465 36,33.465 Z" id="Shape"></path>
                <path d="M54.072,0.535 L19.93,0.465 C16.66,0.465 14,3.125 14,6.395 L14,11.519 L5.93,11.536 C2.66,11.536 0,14.196 0,17.466 L0,38.607 C0,41.877 2.66,44.536 5.93,44.536 L12,44.536 L12,54.536 C12,54.949 12.254,55.32 12.64,55.469 C12.757,55.514 12.879,55.536 13,55.536 C13.276,55.536 13.547,55.421 13.74,55.209 L23.444,44.534 L40.07,44.466 C43.34,44.466 46,41.806 46,38.537 L46,38.424 L51.26,44.21 C51.453,44.422 51.724,44.537 52,44.537 C52.121,44.537 52.243,44.515 52.36,44.47 C52.746,44.321 53,43.95 53,43.537 L53,33.537 L54.07,33.537 C57.34,33.537 60,30.877 60,27.608 L60,6.465 C60,3.196 57.341,0.536 54.072,0.535 Z M44,38.536 C44,40.703 42.237,42.465 40.066,42.465 L22.996,42.535 C22.716,42.536 22.448,42.655 22.26,42.862 L14,51.949 L14,43.535 C14,42.983 13.553,42.535 13,42.535 L5.93,42.535 C3.763,42.535 2,40.772 2,38.606 L2,17.465 C2,15.298 3.763,13.535 5.932,13.535 L15,13.516 C15,13.516 15,13.516 15,13.516 C15.001,13.516 15.001,13.516 15.002,13.516 L40.07,13.464 C42.237,13.464 44,15.227 44,17.394 L44,35.835 L44,38.536 Z M58,27.606 C58,29.773 56.237,31.535 54.07,31.535 L52,31.535 C51.447,31.535 51,31.983 51,32.535 L51,40.949 L46,35.449 L46,17.395 C46,14.125 43.34,11.465 40.068,11.465 L16,11.514 L16,6.394 C16,4.227 17.763,2.464 19.928,2.464 L54.069,2.534 C54.07,2.534 54.07,2.534 54.071,2.534 C56.238,2.534 58.001,4.297 58.001,6.464 L58.001,27.606 L58,27.606 Z" id="Shape"></path>
            </g>
        </g>
    </g>
</svg>