<?xml version="1.0" encoding="UTF-8"?>
<svg width="50px" height="52px" viewBox="0 0 50 52" version="1.1" xmlns="http://www.w3.org/2000/svg" xmlns:xlink="http://www.w3.org/1999/xlink">
    <!-- Generator: sketchtool 51.3 (57544) - http://www.bohemiancoding.com/sketch -->
    <title>2D2EA7E4-1F09-4F06-9F73-D79E134C711F@1.5x</title>
    <desc>Created with sketchtool.</desc>
    <defs>
        <linearGradient x1="90.5978176%" y1="50.2591456%" x2="7.26964231%" y2="55.6232429%" id="linearGradient-1">
            <stop stop-color="#A4A9AF" offset="0%"></stop>
            <stop stop-color="#B0BABC" offset="100%"></stop>
        </linearGradient>
        <radialGradient cx="90.4716661%" cy="50.2672663%" fx="90.4716661%" fy="50.2672663%" r="82.4894183%" gradientTransform="translate(0.904717,0.502673),scale(1.000000,0.723404),rotate(174.914848),translate(-0.904717,-0.502673)" id="radialGradient-2">
            <stop stop-color="#B7C3CF" offset="0%"></stop>
            <stop stop-color="#C4C8CD" offset="100%"></stop>
        </radialGradient>
        <linearGradient x1="93.0687703%" y1="50.1000826%" x2="7.95058777%" y2="55.5794083%" id="linearGradient-3">
            <stop stop-color="#84919E" offset="0%"></stop>
            <stop stop-color="#BEC8D2" offset="100%"></stop>
        </linearGradient>
    </defs>
    <g id="Page-1" stroke="none" stroke-width="1" fill="none" fill-rule="evenodd">
        <g id="Download" transform="translate(-925.000000, -398.000000)">
            <g id="Group-5-Copy-18" transform="translate(925.000000, 398.000000)">
                <path d="M6.94541538,8 L6.94517216,8 L2.74580452,7.99878405 L1,7.99951362 L8,1 L8,6.94552529 C8,7.22714008 7.89030958,7.49197471 7.69087245,7.69139105 C7.49167854,7.89032101 7.22705952,8 6.94541538,8" id="Fill-1" fill="url(#linearGradient-1)"></path>
                <path d="M48.4090722,8.32134259 L36.0350231,5 L36.0350231,13.1667849 L42.1985416,14.8212596 C42.6565373,14.9441989 42.9282171,15.4156312 42.8054911,15.8744227 C42.6827651,16.3329662 42.2121504,16.605118 41.7541547,16.4824266 L36.0350231,14.9471732 L36.0350231,20.3220474 L40.1634176,21.4302356 C40.6211658,21.5531749 40.893093,22.0246073 40.770367,22.4833987 C40.647641,22.9419423 40.1767789,23.2140941 39.7190306,23.0914027 L36.0350231,22.1024357 L36.0350231,27.4778056 L38.3777045,28.1063821 C38.8354527,28.2293214 39.1071325,28.7007537 38.9846539,29.1595452 C38.8619279,29.6180887 38.3910658,29.8904884 37.9333175,29.7675491 L36.0350231,29.2579461 L36.0350231,34.6330682 L36.5919914,34.7822807 C37.0497396,34.90522 37.3214194,35.3769002 37.1986934,35.8354438 C37.0762148,36.2942352 36.6053527,36.5666349 36.1476044,36.4434477 L36.0350231,36.4132087 L36.0350231,43.171893 C36.0350231,44.9287345 34.6083331,46.3576554 32.8542912,46.3576554 L16,46.3576554 L36.7453989,51.9261093 C37.8902644,52.2337053 39.0668012,51.5528301 39.3736162,50.4062233 L49.9263221,10.9541262 C50.2331371,9.80727161 49.5536903,8.62869071 48.4090722,8.32134259" id="Fill-3" fill="url(#radialGradient-2)"></path>
                <path d="M5.95269698,15.9570858 C5.95269698,15.4731704 6.34293074,15.0809362 6.82381725,15.0809362 L28.1764339,15.0809362 C28.6575715,15.0809362 29.0475541,15.4731704 29.0475541,15.9570858 C29.0475541,16.4410013 28.6575715,16.8332354 28.1764339,16.8332354 L6.82381725,16.8332354 C6.34293074,16.8332354 5.95269698,16.4410013 5.95269698,15.9570858 Z M5.95269698,22.9998737 C5.95269698,22.5159583 6.34293074,22.1237241 6.82381725,22.1237241 L28.1764339,22.1237241 C28.6575715,22.1237241 29.0475541,22.5159583 29.0475541,22.9998737 C29.0475541,23.4837891 28.6575715,23.8760233 28.1764339,23.8760233 L6.82381725,23.8760233 C6.34293074,23.8760233 5.95269698,23.4837891 5.95269698,22.9998737 Z M5.95269698,30.0426616 C5.95269698,29.5587462 6.34293074,29.1662595 6.82381725,29.1662595 L28.1764339,29.1662595 C28.6575715,29.1662595 29.0475541,29.5587462 29.0475541,30.0426616 C29.0475541,30.526577 28.6575715,30.9188112 28.1764339,30.9188112 L6.82381725,30.9188112 C6.34293074,30.9188112 5.95269698,30.526577 5.95269698,30.0426616 Z M5.95269698,37.0854495 C5.95269698,36.6017866 6.34293074,36.2092999 6.82381725,36.2092999 L28.1764339,36.2092999 C28.6575715,36.2092999 29.0475541,36.6017866 29.0475541,37.0854495 C29.0475541,37.5693649 28.6575715,37.9618516 28.1764339,37.9618516 L6.82381725,37.9618516 C6.34293074,37.9618516 5.95269698,37.5693649 5.95269698,37.0854495 Z M28.4383475,9.79044754 L13.5110276,9.79044754 C13.0298899,9.79044754 12.6399073,9.39821337 12.6399073,8.91429795 C12.6399073,8.43063509 13.0298899,8.03814837 13.5110276,8.03814837 L28.4383475,8.03814837 C28.9194851,8.03814837 29.3097189,8.43063509 29.3097189,8.91429795 C29.3097189,9.39821337 28.9194851,9.79044754 28.4383475,9.79044754 Z M0,8.58949877 L0,43.8094998 C0,45.0192883 0.975082151,46 2.17792622,46 L32.8220738,46 C34.025169,46 35,45.0192883 35,43.8094998 L35,2.19050024 C35,0.980711686 34.025169,0 32.8220738,0 L9.19384695,0 L9.19384695,6.83164316 C9.19384695,7.47517995 8.94448909,8.08057936 8.49172753,8.53570232 C8.03921709,8.99057272 7.43779506,9.24111766 6.79820345,9.24111766 L6.79719898,9.24111766 C2.74368982,9.2393497 0.144893742,9.2393497 0.017578097,9.24162279 L0.000251115671,8.58949877 L0,8.58949877 Z" id="Fill-5" fill="url(#linearGradient-3)"></path>
            </g>
        </g>
    </g>
</svg>