<?xml version="1.0" encoding="UTF-8"?>
<svg width="17px" height="17px" viewBox="0 0 17 17" version="1.1" xmlns="http://www.w3.org/2000/svg" xmlns:xlink="http://www.w3.org/1999/xlink">
    <!-- Generator: sketchtool 51.3 (57544) - http://www.bohemiancoding.com/sketch -->
    <title>971F17E4-0EDF-46A3-AE15-67F40E87D1FA@1.5x</title>
    <desc>Created with sketchtool.</desc>
    <defs></defs>
    <g id="Page-1" stroke="none" stroke-width="1" fill="none" fill-rule="evenodd">
        <g id="Download" transform="translate(-623.000000, -926.000000)" fill="#FFFFFF" stroke="#FFFFFF" stroke-width="0.4">
            <g id="DOwn" transform="translate(624.000000, 927.000000)">
                <path d="M14.7171216,15 L1.07230887,15 C0.481038989,15 0,14.5489312 0,13.9944907 L0,10.7380976 C0,10.475807 0.222579956,10.2631579 0.497119732,10.2631579 C0.771659507,10.2631579 0.994239463,10.475807 0.994239463,10.7380976 L0.994239463,13.9944907 C0.994239463,14.0207982 1.02631449,14.0501206 1.07230887,14.0501206 L14.7171216,14.0501206 C14.7631592,14.0501206 14.7952342,14.0207982 14.7952342,13.9944907 L14.7952342,10.7380976 C14.7952342,10.475807 15.0178142,10.2631579 15.292354,10.2631579 C15.5668937,10.2631579 15.7894737,10.475807 15.7894737,10.7380976 L15.7894737,13.9944907 C15.7894737,14.5489312 15.3083915,15 14.7171216,15" id="Fill-1"></path>
                <path d="M7.5,10.2631579 C7.28200229,10.2631579 7.10526316,10.037502 7.10526316,9.75916823 L7.10526316,0.503989665 C7.10526316,0.225655895 7.28200229,0 7.5,0 C7.71799771,0 7.89473684,0.225655895 7.89473684,0.503989665 L7.89473684,9.75916823 C7.89473684,10.037502 7.71799771,10.2631579 7.5,10.2631579" id="Fill-2"></path>
                <path d="M7.89473684,11.8421053 C7.76330812,11.8421053 7.63722272,11.78699 7.54431769,11.6888201 L3.30300498,7.2092342 C3.10952466,7.00483882 3.10952466,6.67346433 3.30300498,6.46906895 C3.49657148,6.26471907 3.81027677,6.26467356 4.00384327,6.46906895 L7.89473684,10.5785495 L11.7856304,6.46906895 C11.9791538,6.26471907 12.2929022,6.26467356 12.4864687,6.46906895 C12.679949,6.67346433 12.679949,7.00483882 12.4864687,7.2092342 L8.2451129,11.6888201 C8.15220787,11.78699 8.02612248,11.8421053 7.89473684,11.8421053" id="Fill-3"></path>
            </g>
        </g>
    </g>
</svg>