<?xml version="1.0" encoding="UTF-8"?>
<svg width="29px" height="29px" viewBox="0 0 29 29" version="1.1" xmlns="http://www.w3.org/2000/svg" xmlns:xlink="http://www.w3.org/1999/xlink">
    <!-- Generator: sketchtool 51.3 (57544) - http://www.bohemiancoding.com/sketch -->
    <title>E411B5EC-FAC5-4651-B316-6861792A22F4@1.5x</title>
    <desc>Created with sketchtool.</desc>
    <defs></defs>
    <g id="Page-1" stroke="none" stroke-width="1" fill="none" fill-rule="evenodd">
        <g id="Service-Page_1" transform="translate(-620.000000, -363.000000)" fill="#3A884B" fill-rule="nonzero" stroke="#3A884B" stroke-width="0.2">
            <g id="Eservices" transform="translate(621.000000, 364.000000)">
                <path d="M20.6225678,7.4586907 L20.6225678,5.78191138 C20.6225678,2.59377896 18.0539142,0 14.8967636,0 L14.7930978,0 C11.6358481,0 9.0671945,2.59377896 9.0671945,5.78191138 L9.0671945,11.0051966 C9.0671945,13.1731506 7.32053386,14.9368963 5.1736794,14.9368963 L5.08299655,14.9368963 C2.93594388,14.9368963 1.18928324,13.1731506 1.18928324,11.0051966 L1.18928324,0.600458127 C1.18928324,0.268905165 0.922982899,0 0.594641618,0 C0.266300338,0 0,0.268905165 0,0.600458127 L0,11.0051966 C0,13.8352558 2.28015329,16.1378126 5.08289745,16.1378126 L5.17358029,16.1378126 C7.97622535,16.1378126 10.2563786,13.8353559 10.2563786,11.0051966 L10.2563786,5.78191138 C10.2563786,3.25588412 12.2915396,1.20091625 14.7929986,1.20091625 L14.8966645,1.20091625 C17.3981236,1.20091625 19.4331854,3.2559842 19.4331854,5.78191138 L19.4331854,7.46399475 C15.9067624,7.75571733 13.1250289,10.744998 13.1250289,14.3798713 L13.1250289,20.058704 C13.1250289,23.8862243 16.2086421,27 19.9989869,27 L20.1258438,27 C22.5834976,27 24.8700928,25.6611785 26.0934689,23.5059342 C26.2567971,23.2182146 26.1581857,22.8512346 25.8732532,22.6864089 C25.588519,22.5215831 25.2250939,22.621059 25.0617656,22.9087785 C24.0496856,24.6916388 22.1584279,25.7990837 20.1258438,25.7990837 L19.9989869,25.7990837 C16.8644327,25.7990837 14.3143121,23.223919 14.3143121,20.058704 L14.3143121,14.3798713 C14.3143121,11.4074034 16.5633459,8.95583297 19.4331854,8.66811345 L19.4331854,9.35303602 L19.4331854,14.9368963 L16.1758377,14.9368963 C15.8474964,14.9368963 15.5811961,15.2057014 15.5811961,15.5373544 C15.5811961,15.8690075 15.8474964,16.1378126 16.1758377,16.1378126 L25.8107168,16.1378126 L25.8107168,18.5038177 C25.8107168,18.8353707 26.0770171,19.1042759 26.4053584,19.1042759 C26.7336997,19.1042759 27,18.8353707 27,18.5038177 L27,14.3798713 C27.0000991,10.7211799 24.1817952,7.71678762 20.6225678,7.4586907 Z M20.6225678,14.9368963 L20.6225678,9.35303602 L20.6225678,8.66270933 C23.5254099,8.91780395 25.8108159,11.3836853 25.8108159,14.3798713 L25.8108159,14.9368963 L20.6225678,14.9368963 Z"></path>
            </g>
        </g>
    </g>
</svg>