<?xml version="1.0" encoding="UTF-8"?>
<svg width="28px" height="31px" viewBox="0 0 28 31" version="1.1" xmlns="http://www.w3.org/2000/svg" xmlns:xlink="http://www.w3.org/1999/xlink">
    <!-- Generator: sketchtool 51.3 (57544) - http://www.bohemiancoding.com/sketch -->
    <title>3C998C14-1FFD-4B1C-8AFC-F29BDC22467C@1.5x</title>
    <desc>Created with sketchtool.</desc>
    <defs></defs>
    <g id="Page-1" stroke="none" stroke-width="1" fill="none" fill-rule="evenodd">
        <g id="EventsDetails" transform="translate(-536.000000, -773.000000)" stroke="#D1A53C">
            <g id="Female" transform="translate(537.000000, 774.000000)">
                <path d="M19.1299995,11.1389708 C19.1145255,12.2983256 18.7594278,13.4100488 18.1286119,14.3621106 C17.8912772,14.7204913 17.6149562,15.0581045 17.3028641,15.3654241 C16.1443251,16.5061073 14.6134059,17.1569464 12.9868293,17.1689496 C12.9639198,17.1748559 12.9436228,17.2116276 12.9291536,17.2116276 L12.9285507,17.2116276 C12.9134786,17.2116276 12.8929806,17.1748559 12.8702721,17.1689496 C11.2449013,17.1569464 9.71418298,16.4881978 8.55524215,15.3465619 C8.39226295,15.1861385 8.24154237,15.0179034 8.09926213,14.8428094 C7.24598265,13.793579 6.77513154,12.4989502 6.75664314,11.1321118 C6.75644218,11.0991507 6.76488254,11.0722864 6.76789695,11.0545675 C6.76829887,11.0517096 6.77754307,11.0486611 6.77754307,11.0458032 L6.77754307,7.56354713 C6.77754307,7.55649764 6.76870079,7.54297025 6.76829887,7.53611128 C6.76669118,7.5204881 6.75724603,7.49400489 6.75744699,7.47133221 C6.77854787,5.87681444 7.41880892,4.37089158 8.56006521,3.24735576 C9.7228243,2.10229042 11.272031,1.44802181 12.9229238,1.44802181 L12.9343786,1.44802181 C14.5860752,1.44802181 16.1473396,2.10190937 17.3090938,3.2462126 C18.4517568,4.37089158 19.1042765,5.87910076 19.1253774,7.47133221 C19.1253774,7.4890512 19.1302005,11.1130591 19.1299995,11.1389708 M25.7056373,22.1843739 C25.4592593,20.9836748 24.9819775,19.8948148 24.3959758,19.1972966 C23.9257276,18.6365766 23.1120374,18.4776774 21.9516898,18.4028004 L20.0620556,18.2806728 L20.5134135,16.5358295 C20.6916657,15.8470755 20.7869211,15.1345057 20.7961653,14.4213644 C20.7963663,14.2007345 20.7897346,8.67469871 20.7889308,8.45902251 C20.7748635,7.33815407 20.5592326,6.23976777 20.1488707,5.20673212 C19.7413222,4.18169859 19.1627561,3.25516735 18.4290483,2.47858061 C16.9351058,0.896637601 14.9904083,1.90526676e-05 12.9532689,1.90526676e-05 L12.9355843,1.90526676e-05 C10.908091,1.90526676e-05 8.96299158,0.897399707 7.46824528,2.4806764 C5.98394894,4.05099729 5.16282318,6.18299082 5.11921469,8.43825511 L5.11921469,8.45635514 L5.12624832,8.4746457 C5.12504255,8.50760682 5.13127234,8.53618582 5.12966465,8.55847744 C5.12845888,8.62020808 5.11921469,8.6817482 5.11921469,8.74309779 L5.11921469,14.0765111 C5.11921469,14.1449102 5.12986561,14.2142619 5.13026753,14.2843757 C5.13267906,14.3182895 5.13006657,14.3603958 5.13046849,14.4074559 C5.13951173,15.1299331 5.23315945,15.8480282 5.40859822,16.5404021 L5.85010905,18.2814349 L3.96529787,18.3993709 C2.78646192,18.4731047 1.96091503,18.632004 1.48845623,19.1955819 C0.901248822,19.8948148 0.423565042,20.9834842 0.177388083,22.1836118 C-0.053917778,23.3103866 -0.058539876,24.4242055 0.160909299,25.2743356 C0.413918924,25.5326897 1.16973243,26.2227774 2.6098174,26.9115313 C3.74604966,27.4549134 5.06776873,27.8891237 6.5386007,28.2023495 C8.37899954,28.5936913 10.4535177,28.7945065 12.7054842,28.7994602 L12.9414122,28.7533527 L13.1775411,28.7994602 C15.4299096,28.7945065 17.5046287,28.5936913 19.3454295,28.202159 C20.8142518,27.8896953 22.1361718,27.4552944 23.2740118,26.9113408 C24.6194442,26.2677417 25.4256989,25.5869898 25.7199055,25.2821472 C25.9417662,24.430874 25.937546,23.3140066 25.7056373,22.1843739" id="Fill-1"></path>
                <path d="M8.13035077,8.74814675 L8.13035077,11.0502806 C8.13035077,13.7184162 10.2613389,15.8896582 12.930701,15.8900393 C15.6000631,15.8896582 17.7310512,13.7184162 17.7310512,11.0502806 L17.7310512,7.56345186 C17.7310512,7.05455511 17.6611168,6.55842364 17.5148174,6.08782274 C16.2192232,7.00959081 13.017918,8.82797743 8.13035077,8.74814675" id="Fill-4"></path>
            </g>
        </g>
    </g>
</svg>