<?xml version="1.0" encoding="UTF-8"?>
<svg width="16px" height="21px" viewBox="0 0 16 21" version="1.1" xmlns="http://www.w3.org/2000/svg" xmlns:xlink="http://www.w3.org/1999/xlink">
    <!-- Generator: sketchtool 51.3 (57544) - http://www.bohemiancoding.com/sketch -->
    <title>E338D36C-D560-455A-8717-73E5CF3C18B9@1.5x</title>
    <desc>Created with sketchtool.</desc>
    <defs></defs>
    <g id="Mobile" stroke="none" stroke-width="1" fill="none" fill-rule="evenodd">
        <g id="Home" transform="translate(-354.000000, -1945.000000)" fill="#3A884B">
            <g id="GreenArrow" transform="translate(362.000000, 1955.500000) rotate(-90.000000) translate(-362.000000, -1955.500000) translate(352.000000, 1948.000000)">
                <path d="M11.9147758,0.410014286 C11.4123061,0.9567 11.4123061,1.84298571 11.9148152,2.38967143 L15.3254636,6.10015714 L1.28672424,6.10015714 C0.57609697,6.10015714 0,6.72685714 0,7.5 C0,8.2731 0.57609697,8.8998 1.28672424,8.8998 L15.2822091,8.8998 L11.8715606,12.6103286 C11.3690515,13.1570143 11.3690515,14.0433 11.8715606,14.5899857 C12.3740697,15.1366714 13.1887758,15.1366714 13.6912455,14.5899857 L19.3200879,8.4663 C19.822597,7.91961429 19.822597,7.03328571 19.3200879,6.4866 L13.7344606,0.410014286 C13.2319909,-0.136671429 12.4172848,-0.136671429 11.9147758,0.410014286" id="Fill-3" transform="translate(9.848485, 7.500000) scale(-1, 1) translate(-9.848485, -7.500000) "></path>
            </g>
        </g>
    </g>
</svg>