<?xml version="1.0" encoding="UTF-8"?>
<svg width="47px" height="42px" viewBox="0 0 47 42" version="1.1" xmlns="http://www.w3.org/2000/svg" xmlns:xlink="http://www.w3.org/1999/xlink">
    <!-- Generator: Sketch 51.3 (57544) - http://www.bohemiancoding.com/sketch -->
    <title>CTA7@1.5x</title>
    <desc>Created with Sketch.</desc>
    <defs>
        <linearGradient x1="94.6234953%" y1="50%" x2="5.66269137%" y2="55.7266874%" id="linearGradient-1">
            <stop stop-color="#0A6C6E" offset="0%"></stop>
            <stop stop-color="#349D80" offset="100%"></stop>
        </linearGradient>
    </defs>
    <g id="Page-1" stroke="none" stroke-width="1" fill="none" fill-rule="evenodd">
        <g id="Home_2" transform="translate(-1218.000000, -963.000000)">
            <g id="CTA7" transform="translate(1218.000000, 963.000000)">
                <path d="M23.5035262,34.6938134 C17.8445049,34.6938134 13.2655034,30.0014736 13.2655034,24.2116069 C13.2655034,18.4238033 17.8445049,13.7273375 23.5035262,13.7273375 C29.1554951,13.7273375 33.7385265,18.4238033 33.7385265,24.2116069 C33.7385265,30.0014736 29.1554951,34.6938134 23.5035262,34.6938134 Z M17.4223704,4.73669475 C17.4223704,3.70209004 18.24246,2.85831471 19.2529635,2.85831471 L27.746029,2.85831471 C28.7555251,2.85831471 29.5756147,3.70209004 29.5756147,4.73669475 L29.5756147,6.25404622 L17.4223704,6.25404622 L17.4223704,4.73669475 Z M40.792909,6.25404622 L32.3713747,6.25404622 L32.3713747,4.73669475 C32.3713747,2.12491097 30.2919337,0 27.746029,0 L19.2529635,0 C16.7060513,0 14.6296328,2.12491097 14.6296328,4.73669475 L14.6296328,6.25404622 L6.20608347,6.25404622 C2.79273756,6.25404622 0,9.11132942 0,12.6060859 L0,35.6458973 C0,39.1427168 2.79273756,42 6.20608347,42 L40.792909,42 C44.2072624,42 47,39.1427168 47,35.6458973 L47,12.6060859 C47,9.11132942 44.2072624,6.25404622 40.792909,6.25404622 Z" id="Fill-1" fill="url(#linearGradient-1)"></path>
                <polygon id="Path" fill="#228879" points="30 26.2767233 25.2753871 26.2767233 25.2753871 31 20.7256119 31 20.7256119 26.2767233 16 26.2767233 16 21.7282717 20.7256119 21.7282717 20.7256119 17 25.2753871 17 25.2753871 21.7282717 30 21.7282717"></polygon>
            </g>
        </g>
    </g>
</svg>