<?xml version="1.0" encoding="utf-8"?>
<!-- Generator: Adobe Illustrator 19.0.0, SVG Export Plug-In . SVG Version: 6.00 Build 0)  -->
<svg version="1.1" id="Layer_1" xmlns="http://www.w3.org/2000/svg" xmlns:xlink="http://www.w3.org/1999/xlink" x="0px" y="0px"
	 viewBox="0 0 755 257.6" style="enable-background:new 0 0 755 257.6;" xml:space="preserve">
<style type="text/css">
	.st0{fill:#FFFFFF;}
</style>
<g id="XMLID_166_">
	<g id="XMLID_291_">
		<path id="XMLID_321_" class="st0" d="M317.7,151.3c-3.2,0-5.8,1-7.6,3c-1.7,1.8-2.6,4.2-2.6,7.1c0,6.3,3.6,9.5,10.7,9.5h8.2v-10.5
			C326.4,154.3,323.5,151.3,317.7,151.3z M322.7,167.9h-4c-4.9,0-7.4-2.3-7.4-6.9c0-2.1,0.5-3.7,1.6-4.9c1.1-1.2,2.6-1.9,4.5-1.9
			c3.6,0,5.4,2.3,5.4,6.8V167.9z"/>
		<path id="XMLID_320_" class="st0" d="M314.4,148c0.6,0,1.1-0.2,1.5-0.6c0.4-0.4,0.6-1,0.6-1.6c0-0.6-0.2-1.1-0.6-1.5
			c-0.4-0.4-0.9-0.6-1.5-0.6c-0.6,0-1.1,0.2-1.5,0.6c-0.4,0.4-0.6,0.9-0.6,1.5c0,0.6,0.2,1.2,0.6,1.6
			C313.3,147.8,313.8,148,314.4,148z"/>
		<path id="XMLID_319_" class="st0" d="M320.4,148c0.6,0,1.1-0.2,1.5-0.6c0.4-0.4,0.6-0.9,0.6-1.6c0-0.6-0.2-1.1-0.6-1.5
			c-0.4-0.4-0.9-0.6-1.5-0.6c-0.6,0-1.1,0.2-1.6,0.6c-0.4,0.4-0.6,0.9-0.6,1.5c0,0.6,0.2,1.2,0.6,1.6
			C319.3,147.8,319.8,148,320.4,148z"/>
		<path id="XMLID_318_" class="st0" d="M359.8,151.6c-1.8,0-3.4,0.1-4.9,0.3v2.9c1.4-0.2,2.9-0.3,4.5-0.3c3.2,0,5.6,0.8,7,2.3
			c1.3,1.4,1.9,3.7,1.9,6.9c0,1.1-0.1,2.5-0.3,4.2h-16.3h-0.6h-2.6c-0.1-4.7-1.3-8.4-3.4-11.1c-2-2.6-5.3-4.5-9.6-5.9l-0.9,3.2
			c3.6,1.1,6.2,2.7,7.8,4.9c1.6,2.2,2.4,5.1,2.5,8.9h-13.1v3h19.3h0.6h19.6c0.4-2.6,0.7-5.1,0.7-7.5c0-4-0.9-6.9-2.8-8.8
			C367.3,152.6,364.1,151.6,359.8,151.6z"/>
		<path id="XMLID_314_" class="st0" d="M429.7,167.9h-8.4v-7.5c0-6.1-2.9-9.1-8.7-9.1c-3.2,0-5.8,1-7.6,3c-1.7,1.8-2.5,4.1-2.5,7
			c0,2.5-0.5,4.3-1.4,5.4c-0.8,0.9-2,1.3-3.6,1.3v0h-3.1v-15.2c-2.5-1-5.2-1.4-8.2-1.4c-3.3,0-5.9,1-7.7,3c-1.7,1.8-2.5,4.2-2.5,7.1
			c0,6.3,3.6,9.5,10.7,9.5h4.1v1c0,4.2-2.6,6.4-7.8,6.4c-2.1,0-4.2-0.3-6.5-0.8l-0.3,3.1c2.1,0.4,4.3,0.6,6.4,0.6c4.1,0,7.1-1,9.2-3
			c1.8-1.7,2.6-3.9,2.6-6.5v-0.8h3.1v0h0.6c0,0,0,0,0,0h0.7v-0.1c3-0.2,4.8-1.4,5.5-3.8c1.5,2.6,4.7,3.8,9.4,3.8h19.8v-28.7h-3.7
			V167.9z M390.5,167.9h-3.6c-4.9,0-7.4-2.3-7.4-6.9c0-2,0.5-3.6,1.6-4.9c1.1-1.2,2.6-1.8,4.5-1.8c1.9,0,3.6,0.3,4.9,1V167.9z
			 M417.6,167.9h-4c-4.9,0-7.4-2.3-7.4-6.9c0-2.1,0.5-3.7,1.6-4.9c1.1-1.2,2.6-1.9,4.5-1.9c3.6,0,5.4,2.3,5.4,6.8V167.9z"/>
		<rect id="XMLID_313_" x="441.1" y="142.2" class="st0" width="3.7" height="28.7"/>
		<path id="XMLID_312_" class="st0" d="M465.4,148c0.6,0,1.1-0.2,1.5-0.6c0.4-0.4,0.6-1,0.6-1.6c0-0.6-0.2-1.1-0.6-1.5
			c-0.4-0.4-0.9-0.6-1.5-0.6c-0.6,0-1.1,0.2-1.5,0.6c-0.4,0.4-0.6,0.9-0.6,1.5c0,0.6,0.2,1.2,0.6,1.6
			C464.3,147.8,464.8,148,465.4,148z"/>
		<path id="XMLID_311_" class="st0" d="M471.4,148c0.6,0,1.1-0.2,1.5-0.6c0.4-0.4,0.6-0.9,0.6-1.6c0-0.6-0.2-1.1-0.6-1.5
			c-0.4-0.4-0.9-0.6-1.5-0.6c-0.6,0-1.1,0.2-1.6,0.6c-0.4,0.4-0.6,0.9-0.6,1.5c0,0.6,0.2,1.2,0.6,1.6
			C470.3,147.8,470.8,148,471.4,148z"/>
		<path id="XMLID_310_" class="st0" d="M490.3,174.8c-0.6,0-1.1,0.2-1.6,0.6c-0.4,0.4-0.6,0.9-0.6,1.5c0,0.6,0.2,1.1,0.6,1.6
			c0.4,0.4,0.9,0.6,1.6,0.6c0.6,0,1.1-0.2,1.5-0.7c0.4-0.4,0.6-0.9,0.6-1.6s-0.2-1.1-0.6-1.5C491.4,175,490.9,174.8,490.3,174.8z"/>
		<path id="XMLID_309_" class="st0" d="M484.3,174.8c-0.6,0-1.1,0.2-1.5,0.6c-0.4,0.4-0.6,0.9-0.6,1.5c0,0.6,0.2,1.2,0.6,1.6
			c0.4,0.4,0.9,0.6,1.5,0.6c0.6,0,1.1-0.2,1.5-0.7c0.4-0.4,0.6-0.9,0.6-1.6s-0.2-1.1-0.6-1.5C485.4,175,484.9,174.8,484.3,174.8z"/>
		<path id="XMLID_305_" class="st0" d="M509,151.3c-3.2,0-5.8,1-7.6,3c-1.7,1.8-2.6,4.1-2.6,7c0,3.3,1,5.6,3,6.9
			c-0.6-0.1-1.4-0.2-2.4-0.2h-3.2v0h-5.7v-16.2h-3.7v16.2h-5.3v0h-4.5v-15.2c-2.5-1-5.2-1.4-8.2-1.4c-3.3,0-5.9,1-7.7,3
			c-1.7,1.8-2.5,4.2-2.5,7.1c0,6.3,3.6,9.5,10.7,9.5h12.3v0h14.8v0h21.4v-10.5C517.7,154.3,514.8,151.3,509,151.3z M473.3,167.9
			h-3.6c-4.9,0-7.4-2.3-7.4-6.9c0-2,0.5-3.6,1.6-4.9c1.1-1.2,2.6-1.8,4.5-1.8c1.9,0,3.6,0.3,4.9,1V167.9z M514.1,167.9h-4
			c-4.9,0-7.4-2.3-7.4-6.9c0-2.1,0.5-3.7,1.6-4.9c1.1-1.2,2.6-1.9,4.5-1.9c3.6,0,5.4,2.3,5.4,6.8V167.9z"/>
		<path id="XMLID_302_" class="st0" d="M594.2,167.9h-5.1h-0.6h-3.1c0.2-1.7,0.3-3.2,0.3-4.5c0-4-0.9-6.9-2.8-8.8c-2-2-5.1-3-9.5-3
			c-1.8,0-3.4,0.1-4.9,0.3v2.9c1.4-0.2,2.9-0.3,4.5-0.3c3.2,0,5.6,0.8,7,2.3c1.3,1.4,1.9,3.7,1.9,6.9c0,1.1-0.1,2.5-0.3,4.2h-16.2
			h-0.6h-3.1c-0.1-4.3-1.1-7.7-2.8-10.3c-1.6-2.3-4-4.2-7.2-5.5l11.1-6.8v-3.8l-15.4,9.7v2.8c3.6,1,6.3,2.6,7.9,4.7
			c1.7,2.2,2.6,5.3,2.7,9.2h-13.1v0H541v-15.2c-2.5-1-5.2-1.4-8.2-1.4c-3.3,0-5.9,1-7.7,3c-1.7,1.8-2.5,4.2-2.5,7.1
			c0,6.3,3.6,9.5,10.7,9.5h4.1v1c0,4.2-2.6,6.4-7.8,6.4c-2.1,0-4.2-0.3-6.5-0.8l-0.3,3.1c2.1,0.4,4.3,0.6,6.4,0.6c4.1,0,7.1-1,9.2-3
			c1.8-1.7,2.6-3.9,2.6-6.5v-0.8h3.9v0h19.9h0.6h23.1h0.6h8.8v-28.7h-3.7V167.9z M537.3,167.9h-3.6c-4.9,0-7.4-2.3-7.4-6.9
			c0-2,0.5-3.6,1.6-4.9c1.1-1.2,2.6-1.8,4.5-1.8c1.9,0,3.6,0.3,4.9,1V167.9z"/>
		<rect id="XMLID_301_" x="605.6" y="142.2" class="st0" width="3.7" height="28.7"/>
		<path id="XMLID_300_" class="st0" d="M634.5,148c0.6,0,1.1-0.2,1.5-0.6c0.4-0.4,0.6-1,0.6-1.6c0-0.6-0.2-1.1-0.6-1.5
			c-0.4-0.4-0.9-0.6-1.5-0.6c-0.6,0-1.1,0.2-1.6,0.6c-0.4,0.4-0.6,0.9-0.6,1.5c0,0.6,0.2,1.2,0.6,1.6
			C633.4,147.8,633.9,148,634.5,148z"/>
		<path id="XMLID_299_" class="st0" d="M645.4,167.9h-6.9c-4.1,0-7-0.8-8.7-2.3c-1.5-1.4-2.3-3.7-2.3-7c0-2.6,0.5-4.9,1.6-7l-4,0.7
			c-0.9,1.9-1.4,4.2-1.4,6.8c0,4,1.1,6.9,3.3,8.8c2.3,2,6,3,11,3h11.1v-19.1h-3.7V167.9z"/>
		<path id="XMLID_298_" class="st0" d="M640.5,148c0.6,0,1.1-0.2,1.5-0.6c0.4-0.4,0.6-0.9,0.6-1.6c0-0.6-0.2-1.1-0.6-1.5
			c-0.4-0.4-0.9-0.6-1.5-0.6c-0.6,0-1.1,0.2-1.6,0.6c-0.4,0.4-0.7,0.9-0.7,1.5c0,0.6,0.2,1.2,0.7,1.6
			C639.4,147.8,639.9,148,640.5,148z"/>
		<path id="XMLID_295_" class="st0" d="M676.9,151.3c-3.2,0-5.8,1-7.6,3c-1.7,1.8-2.6,4.1-2.6,7c0,3.3,1,5.6,3,6.9
			c-0.6-0.1-1.4-0.2-2.4-0.2h-2.6h-0.6h-3.9v-25.7h-3.7v28.7h7.6h0.6h20.8v-10.5C685.6,154.3,682.7,151.3,676.9,151.3z M681.9,167.9
			h-4c-4.9,0-7.4-2.3-7.4-6.9c0-2.1,0.5-3.7,1.6-4.9c1.1-1.2,2.6-1.9,4.5-1.9c3.6,0,5.4,2.3,5.4,6.8V167.9z"/>
		<path id="XMLID_294_" class="st0" d="M720.1,147.4c0.6,0,1.2-0.2,1.6-0.6c0.4-0.4,0.7-0.9,0.7-1.6c0-0.6-0.2-1.2-0.7-1.6
			c-0.4-0.4-1-0.7-1.6-0.7c-0.6,0-1.1,0.2-1.6,0.7c-0.4,0.4-0.6,1-0.6,1.6c0,0.6,0.2,1.1,0.6,1.6C719,147.2,719.5,147.4,720.1,147.4
			z"/>
		<path id="XMLID_293_" class="st0" d="M739.9,167.9h-5.7v0H731c0.2-1.7,0.3-3.2,0.3-4.5c0-4-0.9-6.9-2.8-8.8c-2-2-5.1-3-9.5-3
			c-1.8,0-3.4,0.1-4.9,0.3v2.9c1.4-0.2,2.9-0.3,4.5-0.3c3.2,0,5.6,0.8,7,2.3c1.3,1.4,1.9,3.7,1.9,6.9c0,1.1-0.1,2.5-0.3,4.2H711v0
			h-3.1c-0.1-4.7-1.3-8.4-3.4-11.1c-2-2.6-5.3-4.5-9.6-5.9l-0.9,3.2c3.6,1.1,6.2,2.7,7.8,4.9c1.6,2.2,2.4,5.1,2.5,8.9h-13.1v3H711v0
			h23.1v0h9.4v-28.7h-3.7V167.9z"/>
		<rect id="XMLID_292_" x="751.3" y="142.2" class="st0" width="3.7" height="28.7"/>
	</g>
	<g id="XMLID_248_">
		<path id="XMLID_290_" class="st0" d="M324.9,197.2c-0.2-0.2-0.3-0.2-0.5-0.2h-2c-0.2,0-0.4,0-0.5,0.2c-0.1,0.1-0.2,0.3-0.2,0.4
			v16.2c0,1.1-0.1,2.2-0.3,3.1c-0.2,0.9-0.5,1.6-1,2.2c-0.4,0.6-1.1,1.1-1.8,1.3c-0.7,0.3-1.7,0.5-2.8,0.5c-1.1,0-2-0.2-2.8-0.5
			c-0.7-0.3-1.3-0.7-1.8-1.3c-0.4-0.6-0.8-1.3-0.9-2.2c-0.2-0.9-0.3-1.9-0.3-3v-16.2c0-0.2-0.1-0.3-0.2-0.4
			c-0.2-0.2-0.3-0.2-0.5-0.2h-2c-0.2,0-0.4,0-0.5,0.2c-0.1,0.1-0.2,0.3-0.2,0.4v16.2c0,3.4,0.8,5.9,2.4,7.5c1.6,1.6,3.8,2.4,6.7,2.4
			c2.9,0,5.1-0.8,6.7-2.4c1.6-1.6,2.4-4.1,2.4-7.5v-16.2C325.1,197.5,325.1,197.3,324.9,197.2"/>
		<path id="XMLID_289_" class="st0" d="M343.7,205.5c-1-1.3-2.6-1.9-4.7-1.9c-1.1,0-2,0.2-2.9,0.4c-0.9,0.3-1.8,0.7-2.8,1.3v-0.7
			c0-0.2,0-0.4-0.2-0.5c-0.2-0.2-0.3-0.2-0.5-0.2h-1.8c-0.2,0-0.3,0.1-0.5,0.2c-0.1,0.1-0.2,0.3-0.2,0.5v18.1c0,0.2,0,0.4,0.2,0.5
			c0.2,0.1,0.3,0.2,0.5,0.2h1.8c0.2,0,0.4-0.1,0.5-0.2c0.2-0.2,0.2-0.3,0.2-0.5v-15c0.9-0.4,1.7-0.7,2.5-1c0.8-0.2,1.6-0.4,2.3-0.4
			c0.7,0,1.3,0.1,1.8,0.2c0.5,0.2,0.9,0.4,1.2,0.8c0.3,0.4,0.6,0.8,0.7,1.4c0.1,0.6,0.2,1.3,0.2,2.3v11.6c0,0.2,0.1,0.4,0.2,0.5
			c0.1,0.1,0.3,0.2,0.5,0.2h1.7c0.2,0,0.4-0.1,0.5-0.2c0.2-0.2,0.2-0.3,0.2-0.5V211C345.2,208.6,344.7,206.8,343.7,205.5"/>
		<path id="XMLID_286_" class="st0" d="M353.4,196.6c-0.1-0.2-0.3-0.2-0.5-0.2h-1.8c-0.2,0-0.3,0-0.5,0.2c-0.1,0.1-0.2,0.3-0.2,0.5
			v2.9c0,0.2,0.1,0.4,0.2,0.5c0.2,0.2,0.3,0.2,0.5,0.2h1.8c0.2,0,0.4,0,0.5-0.2c0.2-0.1,0.2-0.3,0.2-0.5v-2.9
			C353.6,196.9,353.5,196.8,353.4,196.6 M353.3,204c-0.1-0.2-0.3-0.2-0.5-0.2h-1.7c-0.2,0-0.4,0.1-0.5,0.2c-0.2,0.1-0.2,0.3-0.2,0.5
			v18.1c0,0.2,0,0.4,0.2,0.5c0.1,0.1,0.3,0.2,0.5,0.2h1.7c0.2,0,0.4-0.1,0.5-0.2c0.2-0.2,0.2-0.3,0.2-0.5v-18.1
			C353.5,204.3,353.5,204.2,353.3,204"/>
		<path id="XMLID_283_" class="st0" d="M395.7,208.4c-0.3-1-0.9-1.9-1.5-2.6c-0.7-0.7-1.5-1.3-2.4-1.7c-1-0.4-2.1-0.6-3.4-0.6
			c-2.6,0-4.5,0.8-5.9,2.2c-1.3,1.5-2,3.5-2,6.1v3.2c0,1.7,0.2,3.1,0.7,4.2c0.4,1.1,1.1,2,1.8,2.6c0.8,0.7,1.6,1.1,2.6,1.4
			c0.9,0.2,2,0.4,3,0.4c1.2,0,2.3,0,3.3-0.2c1-0.1,2-0.2,3-0.4c0.3,0,0.5-0.1,0.6-0.3c0.1-0.1,0.2-0.3,0.2-0.5V221
			c0-0.2-0.1-0.3-0.2-0.4c-0.1-0.1-0.2-0.1-0.4-0.1h-0.2c-0.8,0.1-1.8,0.2-3,0.3c-1.2,0.1-2.3,0.1-3.3,0.1c-1.6,0-2.9-0.4-3.7-1.3
			c-0.8-0.9-1.2-2.4-1.2-4.5v-0.5h11.9c0.4,0,0.7-0.2,0.7-0.8v-1.9C396.2,210.6,396,209.5,395.7,208.4 M393,212.2h-9.4v-0.3
			c0-2,0.4-3.3,1.2-4.2c0.8-0.9,2-1.4,3.5-1.4c1.5,0,2.7,0.4,3.5,1.3c0.8,0.9,1.1,2.3,1.1,4.3V212.2z"/>
		<path id="XMLID_280_" class="st0" d="M414.7,196.8c-0.1-0.2-0.3-0.2-0.4-0.2h-1.8c-0.2,0-0.4,0-0.5,0.2c-0.1,0.1-0.2,0.3-0.2,0.4
			v6.6c-0.7-0.1-1.4-0.2-2.2-0.3c-0.8,0-1.4-0.1-2-0.1c-2.6,0-4.6,0.8-5.8,2.3c-1.3,1.5-1.9,3.7-1.9,6.4v2.6c0,1.3,0.2,2.5,0.4,3.6
			c0.3,1.1,0.8,2,1.4,2.8c0.7,0.8,1.5,1.3,2.4,1.8c0.9,0.4,2.1,0.6,3.4,0.6c1.1,0,2.2,0,3.3-0.2c1.1-0.1,2.2-0.2,3.3-0.4
			c0.3,0,0.5-0.1,0.6-0.3c0.1-0.1,0.1-0.3,0.1-0.5v-24.9C414.9,197.1,414.8,197,414.7,196.8 M411.7,220.7c-0.6,0.1-1.3,0.1-2.1,0.2
			c-0.8,0-1.5,0.1-2.1,0.1c-1.7,0-3-0.5-3.6-1.6c-0.6-1-1-2.5-1-4.5v-2.6c0-0.9,0.1-1.8,0.2-2.5c0.2-0.8,0.4-1.4,0.8-1.9
			c0.4-0.5,0.9-0.9,1.4-1.1c0.6-0.2,1.3-0.4,2.2-0.4c0.6,0,1.3,0,2.1,0c0.8,0,1.5,0.1,2.1,0.2V220.7z"/>
		<path id="XMLID_279_" class="st0" d="M444.9,209.8c-0.1-0.2-0.3-0.2-0.5-0.2h-1.9c-0.2,0-0.3,0-0.4,0.2c-0.1,0.1-0.2,0.3-0.2,0.5
			v10.2c-0.4,0-1,0.1-1.7,0.1c-0.7,0.1-1.7,0.1-2.8,0.1c-0.8,0-1.6-0.1-2.3-0.4c-0.7-0.3-1.3-0.8-1.9-1.4c-0.5-0.7-0.9-1.5-1.3-2.5
			c-0.3-1.1-0.4-2.3-0.4-3.7v-4.8c0-1.6,0.2-2.9,0.5-4c0.4-1.1,0.8-1.9,1.4-2.5c0.6-0.7,1.3-1.1,2-1.3c0.7-0.2,1.5-0.4,2.4-0.4
			c0.8,0,1.5,0,2,0c0.6,0,1.2,0,1.7,0c0.5,0,1,0,1.5,0c0.5,0,1,0.1,1.5,0.1h0.2c0.3,0,0.5-0.1,0.5-0.3v-1.8c0-0.2,0-0.3-0.2-0.4
			c-0.1,0-0.3-0.1-0.4-0.1c-0.7-0.1-1.5-0.2-2.6-0.3c-1.1-0.1-2.4-0.2-4.1-0.2c-1.1,0-2.3,0.2-3.4,0.5c-1.1,0.4-2.2,0.9-3.1,1.8
			c-0.9,0.9-1.6,2-2.2,3.4c-0.6,1.4-0.9,3.2-0.9,5.4v4.8c0,2,0.3,3.8,0.8,5.2c0.6,1.4,1.3,2.6,2.1,3.4c0.9,0.9,1.9,1.5,3,1.9
			c1.1,0.4,2.2,0.6,3.3,0.6c1.7,0,3.1,0,4.2-0.2c1.1-0.1,2.1-0.2,2.9-0.4c0.4-0.1,0.6-0.4,0.6-0.8v-12
			C445.1,210.2,445,210,444.9,209.8"/>
		<path id="XMLID_276_" class="st0" d="M465,208.7c-0.3-1.1-0.8-2-1.5-2.7c-0.7-0.8-1.5-1.3-2.5-1.8c-1-0.4-2.1-0.7-3.4-0.7
			c-1.3,0-2.4,0.2-3.5,0.7c-1,0.4-1.8,1-2.4,1.8c-0.7,0.7-1.2,1.7-1.5,2.7c-0.3,1.1-0.5,2.2-0.5,3.5v2.7c0,1.3,0.2,2.5,0.5,3.5
			c0.3,1.1,0.8,2,1.5,2.7c0.6,0.8,1.5,1.3,2.4,1.8c1,0.4,2.2,0.6,3.5,0.6c1.3,0,2.4-0.2,3.4-0.6c1-0.4,1.8-1,2.5-1.8
			c0.7-0.7,1.1-1.7,1.5-2.7c0.3-1.1,0.5-2.2,0.5-3.5v-2.7C465.5,210.9,465.3,209.8,465,208.7 M462.4,215c0,1.8-0.4,3.3-1.2,4.4
			c-0.8,1.1-2,1.6-3.6,1.6c-1.7,0-2.9-0.6-3.7-1.6c-0.7-1.1-1.1-2.5-1.1-4.3v-2.7c0-1.8,0.4-3.3,1.1-4.4c0.7-1.1,2-1.6,3.6-1.6
			s2.9,0.6,3.7,1.6c0.7,1.1,1.1,2.5,1.1,4.3V215z"/>
		<path id="XMLID_275_" class="st0" d="M483.4,203.8h-2c-0.3,0-0.5,0.2-0.7,0.7l-4.1,15.5c-0.1,0.4-0.2,0.7-0.4,0.8
			c-0.1,0.2-0.2,0.2-0.4,0.2c-0.2,0-0.3,0-0.4-0.2c-0.1-0.1-0.2-0.4-0.3-0.8l-4.1-15.5c-0.2-0.4-0.4-0.7-0.7-0.7h-2
			c-0.4,0-0.6,0.2-0.6,0.6c0,0.1,0,0.2,0,0.2l4.8,16.9c0.2,0.8,0.6,1.3,1.2,1.6c0.6,0.2,1.3,0.4,2,0.4c0.8,0,1.4-0.2,2-0.4
			c0.6-0.3,1-0.8,1.2-1.6l4.8-16.9c0,0,0-0.1,0-0.2C484,204,483.8,203.8,483.4,203.8"/>
		<path id="XMLID_272_" class="st0" d="M501.6,208.4c-0.3-1-0.8-1.9-1.5-2.6c-0.7-0.7-1.5-1.3-2.4-1.7c-1-0.4-2.1-0.6-3.4-0.6
			c-2.6,0-4.5,0.8-5.9,2.2c-1.3,1.5-2,3.5-2,6.1v3.2c0,1.7,0.2,3.1,0.7,4.2c0.4,1.1,1.1,2,1.8,2.6c0.7,0.7,1.6,1.1,2.6,1.4
			c1,0.2,2,0.4,3,0.4c1.2,0,2.3,0,3.3-0.2c1-0.1,2-0.2,3.1-0.4c0.3,0,0.4-0.1,0.6-0.3c0.1-0.1,0.1-0.3,0.1-0.5V221
			c0-0.2,0-0.3-0.2-0.4c-0.1-0.1-0.2-0.1-0.4-0.1h-0.2c-0.9,0.1-1.8,0.2-3,0.3c-1.2,0.1-2.3,0.1-3.3,0.1c-1.6,0-2.9-0.4-3.7-1.3
			c-0.8-0.9-1.2-2.4-1.2-4.5v-0.5h11.9c0.4,0,0.7-0.2,0.7-0.8v-1.9C502.1,210.6,501.9,209.5,501.6,208.4 M498.9,212.2h-9.4v-0.3
			c0-2,0.4-3.3,1.2-4.2c0.8-0.9,2-1.4,3.5-1.4c1.5,0,2.7,0.4,3.5,1.3c0.8,0.9,1.1,2.3,1.1,4.3V212.2z"/>
		<path id="XMLID_271_" class="st0" d="M514.4,203.6c-0.8,0-1.6,0.1-2.4,0.4c-0.9,0.2-1.7,0.7-2.6,1.3v-0.8c0-0.2,0-0.4-0.2-0.5
			c-0.1-0.2-0.3-0.2-0.4-0.2h-1.7c-0.2,0-0.4,0.1-0.5,0.2c-0.1,0.1-0.2,0.3-0.2,0.5v18.1c0,0.2,0.1,0.4,0.2,0.5
			c0.1,0.1,0.3,0.2,0.5,0.2h1.7c0.2,0,0.4-0.1,0.5-0.2c0.1-0.2,0.2-0.3,0.2-0.5v-14.9c0.9-0.5,1.7-0.9,2.5-1.1
			c0.8-0.2,1.6-0.4,2.4-0.4c0.5,0,0.8-0.2,0.8-0.6v-1.5C515.2,203.8,514.9,203.6,514.4,203.6"/>
		<path id="XMLID_270_" class="st0" d="M532.1,205.5c-1-1.3-2.6-1.9-4.7-1.9c-1.1,0-2,0.2-2.9,0.4c-0.9,0.3-1.8,0.7-2.8,1.3v-0.7
			c0-0.2-0.1-0.4-0.2-0.5c-0.1-0.2-0.3-0.2-0.5-0.2h-1.8c-0.2,0-0.3,0.1-0.5,0.2c-0.1,0.1-0.2,0.3-0.2,0.5v18.1c0,0.2,0,0.4,0.2,0.5
			c0.2,0.1,0.3,0.2,0.5,0.2h1.7c0.2,0,0.4-0.1,0.5-0.2c0.2-0.2,0.2-0.3,0.2-0.5v-15c0.8-0.4,1.6-0.7,2.4-1c0.8-0.2,1.6-0.4,2.4-0.4
			c0.6,0,1.2,0.1,1.7,0.2c0.5,0.2,0.9,0.4,1.2,0.8c0.3,0.4,0.6,0.8,0.7,1.4s0.2,1.3,0.2,2.3v11.6c0,0.2,0,0.4,0.2,0.5
			c0.1,0.1,0.3,0.2,0.5,0.2h1.7c0.2,0,0.4-0.1,0.5-0.2c0.2-0.2,0.2-0.3,0.2-0.5V211C533.5,208.6,533,206.8,532.1,205.5"/>
		<path id="XMLID_269_" class="st0" d="M561.5,207c-0.3-0.9-0.7-1.5-1.3-2c-0.5-0.5-1.1-0.9-1.8-1.1c-0.7-0.2-1.5-0.3-2.3-0.3
			c-0.9,0-1.9,0.1-2.9,0.4c-1,0.3-2,0.7-3,1.1c-0.5-0.5-1-0.9-1.6-1.1c-0.6-0.2-1.3-0.4-2-0.4c-1,0-2,0.2-2.8,0.5
			c-0.9,0.3-1.7,0.7-2.4,1.1v-0.6c0-0.2,0-0.4-0.2-0.5c-0.1-0.2-0.3-0.2-0.5-0.2h-1.7c-0.2,0-0.4,0.1-0.5,0.2
			c-0.1,0.1-0.2,0.3-0.2,0.5v18.1c0,0.2,0.1,0.4,0.2,0.5c0.1,0.1,0.2,0.2,0.4,0.2h1.9c0.2,0,0.4-0.1,0.5-0.2
			c0.1-0.2,0.2-0.3,0.2-0.5v-15c0.8-0.4,1.5-0.7,2.3-1c0.7-0.3,1.4-0.4,2.1-0.4c0.4,0,0.9,0,1.2,0.1c0.3,0.1,0.6,0.3,0.9,0.6
			c0.2,0.2,0.4,0.7,0.5,1.1c0.1,0.5,0.2,1.1,0.2,1.9v12.7c0,0.2,0,0.4,0.2,0.5c0.1,0.1,0.2,0.2,0.4,0.2h1.9c0.2,0,0.4-0.1,0.4-0.2
			c0.1-0.2,0.2-0.3,0.2-0.5V210c0-1.1-0.1-2-0.3-2.8c0.7-0.2,1.4-0.5,2.1-0.6c0.7-0.2,1.4-0.3,2-0.3c0.4,0,0.9,0,1.3,0.2
			c0.4,0.1,0.7,0.3,1,0.6c0.3,0.3,0.5,0.7,0.7,1.2c0.2,0.5,0.2,1.1,0.2,1.8v12.6c0,0.2,0,0.4,0.2,0.5c0.1,0.1,0.3,0.2,0.5,0.2h1.7
			c0.2,0,0.4-0.1,0.5-0.2c0.2-0.2,0.2-0.3,0.2-0.5v-12.6C561.9,208.9,561.8,207.8,561.5,207"/>
		<path id="XMLID_266_" class="st0" d="M581.3,208.4c-0.3-1-0.9-1.9-1.5-2.6c-0.6-0.7-1.4-1.3-2.4-1.7c-1-0.4-2.1-0.6-3.4-0.6
			c-2.6,0-4.5,0.8-5.9,2.2c-1.3,1.5-2,3.5-2,6.1v3.2c0,1.7,0.2,3.1,0.7,4.2c0.4,1.1,1.1,2,1.8,2.6c0.8,0.7,1.6,1.1,2.6,1.4
			c1,0.2,2,0.4,3,0.4c1.2,0,2.3,0,3.3-0.2c1-0.1,2-0.2,3-0.4c0.3,0,0.5-0.1,0.6-0.3c0.1-0.1,0.2-0.3,0.2-0.5V221
			c0-0.2-0.1-0.3-0.2-0.4c-0.1-0.1-0.2-0.1-0.4-0.1h-0.2c-0.8,0.1-1.8,0.2-3,0.3c-1.2,0.1-2.3,0.1-3.3,0.1c-1.6,0-2.9-0.4-3.7-1.3
			c-0.8-0.9-1.3-2.4-1.3-4.5v-0.5h11.9c0.4,0,0.7-0.2,0.7-0.8v-1.9C581.8,210.6,581.7,209.5,581.3,208.4 M578.7,212.2h-9.4v-0.3
			c0-2,0.4-3.3,1.3-4.2c0.8-0.9,2-1.4,3.5-1.4c1.5,0,2.7,0.4,3.5,1.3c0.7,0.9,1.1,2.3,1.1,4.3V212.2z"/>
		<path id="XMLID_265_" class="st0" d="M599.6,205.5c-1-1.3-2.6-1.9-4.7-1.9c-1.1,0-2,0.2-2.9,0.4c-0.9,0.3-1.8,0.7-2.8,1.3v-0.7
			c0-0.2,0-0.4-0.2-0.5c-0.2-0.2-0.3-0.2-0.5-0.2h-1.8c-0.2,0-0.4,0.1-0.5,0.2c-0.1,0.1-0.2,0.3-0.2,0.5v18.1c0,0.2,0.1,0.4,0.2,0.5
			c0.1,0.1,0.3,0.2,0.5,0.2h1.8c0.2,0,0.4-0.1,0.5-0.2c0.2-0.2,0.2-0.3,0.2-0.5v-15c0.9-0.4,1.7-0.7,2.5-1c0.8-0.2,1.6-0.4,2.3-0.4
			c0.7,0,1.3,0.1,1.8,0.2c0.5,0.2,0.9,0.4,1.2,0.8c0.3,0.4,0.6,0.8,0.7,1.4c0.1,0.6,0.2,1.3,0.2,2.3v11.6c0,0.2,0.1,0.4,0.2,0.5
			c0.1,0.1,0.3,0.2,0.5,0.2h1.7c0.2,0,0.4-0.1,0.5-0.2c0.2-0.2,0.2-0.3,0.2-0.5V211C601.1,208.6,600.6,206.8,599.6,205.5"/>
		<path id="XMLID_264_" class="st0" d="M614.9,221.1h-2c-0.7,0-1.2-0.1-1.5-0.4c-0.3-0.2-0.4-0.9-0.4-1.8v-12.4h3.9
			c0.2,0,0.3-0.1,0.5-0.2c0.1-0.2,0.2-0.3,0.2-0.5v-1.2c0-0.2-0.1-0.4-0.2-0.5c-0.2-0.2-0.3-0.2-0.5-0.2h-3.9v-3.9
			c0-0.2,0-0.3-0.2-0.4c-0.1-0.1-0.2-0.2-0.4-0.2h-0.1l-1.9,0.3c-0.4,0.1-0.7,0.3-0.7,0.7v3.5h-3.4c-0.4,0-0.7,0.2-0.7,0.7v1
			c0,0.4,0.2,0.6,0.7,0.6l3.4,0.4v12.4c0,1,0.1,1.8,0.3,2.4c0.2,0.7,0.5,1.1,0.9,1.5c0.4,0.4,0.9,0.6,1.5,0.7
			c0.6,0.1,1.3,0.2,2.2,0.2c0.3,0,0.7,0,1.1,0c0.4,0,0.8-0.1,1.2-0.1c0.4-0.1,0.7-0.3,0.7-0.7v-1.3
			C615.6,221.2,615.4,221.1,614.9,221.1"/>
		<path id="XMLID_263_" class="st0" d="M642.8,214.5c-0.2-0.6-0.5-1.2-0.9-1.8c-0.4-0.6-1.1-1.1-1.8-1.7c-0.7-0.6-1.6-1.2-2.6-1.8
			l-3.3-2c-1.3-0.8-2.3-1.5-2.9-2.2c-0.6-0.6-0.9-1.3-0.9-2.2c0-1.3,0.4-2.2,1.2-2.6c0.8-0.5,2.2-0.7,4-0.7c1,0,2.1,0,3.3,0.1
			c1.1,0,2.1,0.1,2.9,0.1h0.1c0.4,0,0.6-0.2,0.6-0.5v-1.5c0-0.3-0.2-0.5-0.6-0.6c-0.4,0-0.8-0.1-1.3-0.2c-0.5,0-1-0.1-1.6-0.1
			c-0.6,0-1.1-0.1-1.7-0.1c-0.6,0-1.1,0-1.6,0c-2.7,0-4.8,0.5-6.3,1.5c-1.5,1-2.2,2.6-2.2,4.8c0,1.4,0.4,2.6,1.2,3.7
			c0.8,1,2,2,3.7,3l3.4,2.1c0.8,0.5,1.5,0.9,2,1.3c0.5,0.4,1,0.8,1.3,1.1c0.4,0.4,0.6,0.7,0.7,1.1c0.1,0.4,0.2,0.8,0.2,1.2
			c0,0.6-0.1,1.2-0.2,1.7c-0.2,0.5-0.4,1-0.9,1.3c-0.4,0.4-0.9,0.7-1.7,0.9c-0.7,0.2-1.6,0.3-2.6,0.3h-1.3c-0.5,0-1.1,0-1.6,0
			c-0.5,0-1.1,0-1.5,0c-0.5,0-1-0.1-1.4-0.1h-0.1c-0.2,0-0.3,0-0.4,0.1c-0.1,0.1-0.2,0.2-0.2,0.4v1.4c0,0.2,0,0.3,0.1,0.4
			c0.1,0.1,0.3,0.2,0.6,0.2c0.8,0.1,1.7,0.2,2.6,0.3c0.9,0.1,2,0.2,3.3,0.2c1.7,0,3.2-0.2,4.4-0.6c1.1-0.4,2-1,2.7-1.7
			c0.7-0.7,1.1-1.4,1.3-2.3c0.3-0.9,0.4-1.7,0.4-2.6C643.1,215.8,643,215.1,642.8,214.5"/>
		<path id="XMLID_260_" class="st0" d="M661.8,208.4c-0.3-1-0.8-1.9-1.5-2.6c-0.6-0.7-1.5-1.3-2.4-1.7c-0.9-0.4-2.1-0.6-3.4-0.6
			c-2.6,0-4.5,0.8-5.9,2.2c-1.3,1.5-2,3.5-2,6.1v3.2c0,1.7,0.2,3.1,0.7,4.2c0.5,1.1,1.1,2,1.8,2.6c0.7,0.7,1.6,1.1,2.6,1.4
			c1,0.2,2,0.4,3,0.4c1.2,0,2.3,0,3.3-0.2c1-0.1,2-0.2,3.1-0.4c0.3,0,0.5-0.1,0.6-0.3c0.1-0.1,0.1-0.3,0.1-0.5V221
			c0-0.2,0-0.3-0.2-0.4c-0.1-0.1-0.2-0.1-0.4-0.1H661c-0.8,0.1-1.8,0.2-3,0.3c-1.1,0.1-2.3,0.1-3.3,0.1c-1.7,0-2.9-0.4-3.7-1.3
			c-0.9-0.9-1.3-2.4-1.3-4.5v-0.5h11.9c0.4,0,0.7-0.2,0.7-0.8v-1.9C662.3,210.6,662.1,209.5,661.8,208.4 M659.2,212.2h-9.5v-0.3
			c0-2,0.4-3.3,1.2-4.2c0.8-0.9,2-1.4,3.5-1.4c1.6,0,2.7,0.4,3.5,1.3c0.8,0.9,1.2,2.3,1.2,4.3V212.2z"/>
		<path id="XMLID_259_" class="st0" d="M674.7,203.6c-0.8,0-1.6,0.1-2.4,0.4c-0.8,0.2-1.7,0.7-2.6,1.3v-0.8c0-0.2-0.1-0.4-0.2-0.5
			c-0.1-0.2-0.3-0.2-0.5-0.2h-1.7c-0.2,0-0.4,0.1-0.5,0.2c-0.1,0.1-0.2,0.3-0.2,0.5v18.1c0,0.2,0.1,0.4,0.2,0.5
			c0.1,0.1,0.3,0.2,0.5,0.2h1.8c0.2,0,0.3-0.1,0.5-0.2c0.1-0.2,0.2-0.3,0.2-0.5v-14.9c0.9-0.5,1.8-0.9,2.5-1.1
			c0.8-0.2,1.5-0.4,2.4-0.4c0.5,0,0.7-0.2,0.7-0.6v-1.5C675.4,203.8,675.2,203.6,674.7,203.6"/>
		<path id="XMLID_258_" class="st0" d="M693.3,203.8h-2c-0.3,0-0.6,0.2-0.7,0.7l-4.1,15.5c-0.1,0.4-0.2,0.7-0.3,0.8
			c-0.1,0.2-0.2,0.2-0.4,0.2c-0.2,0-0.3,0-0.4-0.2c-0.1-0.1-0.2-0.4-0.3-0.8l-4.1-15.5c-0.1-0.4-0.4-0.7-0.7-0.7h-2
			c-0.4,0-0.6,0.2-0.6,0.6c0,0.1,0,0.2,0,0.2l4.8,16.9c0.2,0.8,0.6,1.3,1.2,1.6c0.6,0.2,1.2,0.4,2,0.4c0.8,0,1.4-0.2,2-0.4
			c0.6-0.3,1-0.8,1.2-1.6l4.8-16.9c0,0,0-0.1,0-0.2C693.9,204,693.7,203.8,693.3,203.8"/>
		<path id="XMLID_255_" class="st0" d="M701,196.6c-0.2-0.2-0.3-0.2-0.5-0.2h-1.8c-0.2,0-0.4,0-0.5,0.2c-0.1,0.1-0.2,0.3-0.2,0.5
			v2.9c0,0.2,0.1,0.4,0.2,0.5c0.1,0.2,0.3,0.2,0.5,0.2h1.8c0.2,0,0.3,0,0.5-0.2c0.1-0.1,0.2-0.3,0.2-0.5v-2.9
			C701.2,196.9,701.2,196.8,701,196.6 M701,204c-0.1-0.2-0.3-0.2-0.5-0.2h-1.7c-0.2,0-0.4,0.1-0.5,0.2c-0.2,0.1-0.2,0.3-0.2,0.5
			v18.1c0,0.2,0,0.4,0.2,0.5c0.1,0.1,0.3,0.2,0.5,0.2h1.7c0.2,0,0.4-0.1,0.5-0.2c0.2-0.2,0.2-0.3,0.2-0.5v-18.1
			C701.2,204.3,701.1,204.2,701,204"/>
		<path id="XMLID_254_" class="st0" d="M710.1,207.8c0.8-1,1.9-1.5,3.3-1.5c0.9,0,1.6,0,2.3,0.1c0.6,0,1.3,0.1,2.1,0.2h0.2
			c0.2,0,0.3,0,0.4-0.1c0.1-0.1,0.2-0.2,0.2-0.4v-1.3c0-0.2-0.1-0.4-0.2-0.5c-0.1-0.1-0.3-0.2-0.6-0.2c-0.6-0.1-1.3-0.2-2-0.3
			c-0.8-0.1-1.6-0.1-2.4-0.1c-1.2,0-2.3,0.2-3.2,0.7c-1,0.4-1.8,1-2.4,1.7c-0.7,0.8-1.1,1.7-1.5,2.7c-0.3,1.1-0.5,2.2-0.5,3.5v2.8
			c0,1.3,0.2,2.5,0.5,3.5c0.3,1.1,0.8,2,1.5,2.7c0.7,0.7,1.4,1.3,2.4,1.8c0.9,0.4,2,0.6,3.2,0.6c0.8,0,1.6,0,2.4-0.1
			c0.8,0,1.5-0.2,2-0.3c0.3,0,0.5-0.1,0.6-0.2c0.1-0.1,0.2-0.3,0.2-0.5v-1.3c0-0.2-0.1-0.3-0.2-0.4c-0.1-0.1-0.2-0.2-0.4-0.2h-0.2
			c-0.8,0.1-1.5,0.2-2.1,0.2c-0.7,0-1.4,0.1-2.3,0.1c-1.4,0-2.6-0.5-3.3-1.5c-0.8-0.9-1.1-2.4-1.1-4.4v-2.8
			C708.9,210.2,709.3,208.7,710.1,207.8"/>
		<path id="XMLID_251_" class="st0" d="M737.1,208.4c-0.3-1-0.8-1.9-1.5-2.6c-0.7-0.7-1.5-1.3-2.4-1.7c-1-0.4-2.1-0.6-3.4-0.6
			c-2.5,0-4.5,0.8-5.8,2.2c-1.4,1.5-2,3.5-2,6.1v3.2c0,1.7,0.2,3.1,0.7,4.2c0.4,1.1,1.1,2,1.8,2.6c0.8,0.7,1.6,1.1,2.6,1.4
			c1,0.2,2,0.4,3,0.4c1.2,0,2.3,0,3.3-0.2c1-0.1,2-0.2,3-0.4c0.3,0,0.5-0.1,0.6-0.3c0.1-0.1,0.2-0.3,0.2-0.5V221
			c0-0.2-0.1-0.3-0.2-0.4c-0.1-0.1-0.3-0.1-0.4-0.1h-0.2c-0.9,0.1-1.8,0.2-3,0.3c-1.2,0.1-2.3,0.1-3.3,0.1c-1.6,0-2.9-0.4-3.7-1.3
			c-0.8-0.9-1.2-2.4-1.2-4.5v-0.5h11.9c0.4,0,0.7-0.2,0.7-0.8v-1.9C737.6,210.6,737.4,209.5,737.1,208.4 M734.4,212.2H725v-0.3
			c0-2,0.4-3.3,1.2-4.2c0.8-0.9,2-1.4,3.5-1.4c1.5,0,2.7,0.4,3.5,1.3c0.8,0.9,1.1,2.3,1.1,4.3V212.2z"/>
		<path id="XMLID_250_" class="st0" d="M753.4,215.7c-0.6-0.8-1.6-1.7-3.1-2.6l-3.5-2.1c-0.8-0.5-1.4-0.9-1.8-1.3
			c-0.4-0.4-0.6-0.9-0.6-1.4c0-0.9,0.3-1.5,0.9-1.7c0.6-0.2,1.4-0.3,2.4-0.3c1,0,2,0,3.1,0.1c1,0.1,1.8,0.2,2.5,0.2h0.1
			c0.4,0,0.6-0.2,0.6-0.6v-1.2c0-0.4-0.2-0.7-0.7-0.7c-0.8-0.2-1.7-0.3-2.6-0.4c-0.9-0.1-1.9-0.1-2.9-0.1c-0.9,0-1.8,0.1-2.6,0.2
			c-0.8,0.2-1.5,0.4-2,0.8c-0.6,0.4-1,0.9-1.3,1.5c-0.3,0.6-0.5,1.4-0.5,2.3c0,1.1,0.3,2.1,1,2.9c0.7,0.8,1.5,1.5,2.6,2.2l3.6,2.2
			c1,0.6,1.8,1.1,2.1,1.5c0.4,0.4,0.6,0.9,0.6,1.4c0,1-0.3,1.6-0.9,2c-0.6,0.4-1.5,0.5-2.6,0.5c-0.3,0-0.7,0-1.1,0
			c-0.5,0-0.9,0-1.5-0.1c-0.5,0-1.1-0.1-1.5-0.1c-0.5,0-1-0.1-1.4-0.1h-0.1c-0.2,0-0.4,0-0.5,0.1c-0.1,0.1-0.2,0.2-0.2,0.4v1.2
			c0,0.4,0.2,0.6,0.7,0.7c0.4,0.1,0.9,0.2,1.4,0.2c0.5,0.1,1.1,0.1,1.5,0.2c0.5,0,1,0.1,1.5,0.1c0.4,0,0.9,0,1.2,0
			c1,0,1.9-0.1,2.7-0.3c0.8-0.2,1.5-0.5,2.1-0.9c0.6-0.4,1-1,1.3-1.6c0.3-0.6,0.5-1.4,0.5-2.3C754.3,217.4,754,216.5,753.4,215.7"/>
		<path id="XMLID_249_" class="st0" d="M364.5,201.2v2.6h3.9c0.2,0,0.3,0.1,0.4,0.2c0.1,0.1,0.2,0.2,0.2,0.4v1
			c0,0.3-0.2,0.5-0.6,0.6h-3.9v16.6c0,0.2,0,0.4-0.2,0.5c-0.2,0.1-0.3,0.2-0.5,0.2h-1.8c-0.2,0-0.4-0.1-0.5-0.2
			c-0.2-0.2-0.2-0.3-0.2-0.5V206h-3.5c-0.4,0-0.7-0.2-0.7-0.6v-1c0-0.2,0.1-0.3,0.2-0.4c0.1-0.1,0.3-0.2,0.5-0.2h3.5v-2.6
			c0-0.9,0.1-1.7,0.3-2.4c0.2-0.7,0.5-1.1,1-1.5c0.4-0.4,0.9-0.7,1.5-0.8c0.6-0.2,1.3-0.2,2.1-0.2c0.5,0,0.9,0,1.2,0.1
			c0.3,0,0.6,0.1,0.8,0.1c0.4,0.1,0.7,0.3,0.7,0.6v1.2c0,0.4-0.2,0.5-0.6,0.5h-1.7c-0.9,0-1.4,0.2-1.7,0.5
			C364.7,199.6,364.5,200.3,364.5,201.2"/>
	</g>
	<g id="XMLID_177_">
		<g id="XMLID_178_">
			<path id="XMLID_247_" class="st0" d="M112.1,218.3L112.1,218.3L112.1,218.3c-3.1-0.4-5.3-3.2-4.9-6.3l0,0
				c0.4-3.1,3.2-5.3,6.3-4.9l0,0c3.1,0.4,5.3,3.2,4.9,6.3l0,0c-0.4,2.9-2.8,5-5.6,5l0,0C112.5,218.3,112.3,218.3,112.1,218.3z"/>
			<path id="XMLID_246_" class="st0" d="M129.1,213c-0.6-3,1.4-6,4.4-6.6l0,0c3-0.6,6,1.4,6.6,4.4l0,0c0.6,3-1.4,6-4.4,6.6l0,0
				c-0.4,0.1-0.7,0.1-1.1,0.1l0,0C132,217.5,129.6,215.7,129.1,213z"/>
			<path id="XMLID_245_" class="st0" d="M89.4,211.8c-2.8-1.3-4-4.7-2.7-7.5l0,0c1.3-2.8,4.7-4,7.5-2.7l0,0c2.8,1.3,4,4.7,2.7,7.5
				l0,0c-1,2.1-3,3.3-5.1,3.3l0,0C91,212.4,90.2,212.2,89.4,211.8z"/>
			<path id="XMLID_244_" class="st0" d="M150.2,207.1c-1.5-2.7-0.5-6.1,2.2-7.6l0,0c2.7-1.5,6.1-0.5,7.6,2.2l0,0
				c1.5,2.7,0.5,6.1-2.2,7.7l0,0c-0.9,0.5-1.8,0.7-2.7,0.7l0,0C153.1,210,151.2,209,150.2,207.1z"/>
			<path id="XMLID_243_" class="st0" d="M69.8,198.7L69.8,198.7L69.8,198.7c-2.3-2.1-2.4-5.7-0.3-7.9l0,0c2.1-2.3,5.7-2.4,7.9-0.3
				l0,0c2.3,2.1,2.4,5.7,0.3,8l0,0c-1.1,1.2-2.6,1.8-4.1,1.8l0,0C72.3,200.2,70.9,199.7,69.8,198.7z"/>
			<path id="XMLID_242_" class="st0" d="M168.4,195c-2.3-2.1-2.4-5.7-0.3-7.9l0,0c2.1-2.3,5.7-2.4,7.9-0.3l0,0
				c2.3,2.1,2.4,5.7,0.3,7.9l0,0c-1.1,1.2-2.6,1.8-4.1,1.8l0,0C170.9,196.5,169.5,196,168.4,195z"/>
			<path id="XMLID_241_" class="st0" d="M213.8,214.1c-2.3-2.1-2.4-5.7-0.3-7.9l0,0c2.1-2.3,5.7-2.4,7.9-0.3l0,0
				c2.3,2.1,2.4,5.7,0.3,7.9l0,0c-1.1,1.2-2.6,1.8-4.1,1.8l0,0C216.2,215.6,214.8,215.1,213.8,214.1z"/>
			<path id="XMLID_240_" class="st0" d="M55.2,180.1c-1.5-2.7-0.5-6.1,2.2-7.6l0,0c2.7-1.5,6.1-0.5,7.7,2.2l0,0
				c1.5,2.7,0.5,6.1-2.2,7.6l0,0c-0.9,0.5-1.8,0.7-2.7,0.7l0,0C58.2,183,56.3,182,55.2,180.1z"/>
			<path id="XMLID_239_" class="st0" d="M182.1,177.9c-2.8-1.3-4-4.7-2.7-7.5l0,0c1.3-2.8,4.7-4,7.5-2.7l0,0c2.8,1.3,4,4.7,2.7,7.5
				l0,0c-0.9,2.1-3,3.2-5.1,3.2l0,0C183.7,178.4,182.9,178.3,182.1,177.9z"/>
			<path id="XMLID_238_" class="st0" d="M47.1,158c-0.6-3,1.4-6,4.4-6.6l0,0c3-0.6,6,1.4,6.6,4.4l0,0c0.6,3-1.4,6-4.4,6.6l0,0
				c-0.4,0.1-0.7,0.1-1.1,0.1l0,0C50,162.5,47.6,160.7,47.1,158z"/>
			<path id="XMLID_237_" class="st0" d="M189.7,157.4c-3.1-0.4-5.3-3.2-4.9-6.3l0,0c0,0,0-0.1,0-0.1l0,0c0,0,0-0.1,0-0.1l0,0
				c0.4-3.1,3.2-5.3,6.2-4.9l0,0c3.1,0.4,5.3,3.1,4.9,6.2l0,0l0,0l0,0c0,0,0,0.1,0,0.1l0,0c0,0,0,0.1,0,0.2l0,0
				c-0.4,2.9-2.8,4.9-5.6,4.9l0,0C190.2,157.4,190,157.4,189.7,157.4z"/>
			<path id="XMLID_236_" class="st0" d="M51.1,140.7c-3.1-0.4-5.3-3.2-4.9-6.3l0,0c0,0,0,0,0,0l0,0c0.4-3.1,3.2-5.3,6.3-4.9l0,0
				c3.1,0.4,5.3,3.2,4.9,6.3l0,0c-0.4,2.9-2.8,4.9-5.6,4.9l0,0C51.6,140.7,51.4,140.7,51.1,140.7z"/>
			<path id="XMLID_235_" class="st0" d="M184.1,130.8c-0.6-3,1.4-6,4.4-6.6l0,0c3-0.6,6,1.4,6.6,4.4l0,0l0,0l0,0
				c0.6,3-1.4,6-4.4,6.6l0,0c-0.4,0.1-0.7,0.1-1.1,0.1l0,0C187,135.4,184.6,133.5,184.1,130.8z"/>
			<path id="XMLID_234_" class="st0" d="M55.4,119.2c-2.8-1.3-4-4.6-2.7-7.4l0,0c1.3-2.8,4.6-4,7.5-2.8l0,0c2.8,1.3,4,4.7,2.7,7.5
				l0,0c-0.9,2.1-3,3.3-5.1,3.3l0,0C57,119.7,56.2,119.5,55.4,119.2z"/>
			<path id="XMLID_233_" class="st0" d="M177.1,112L177.1,112c-1.5-2.7-0.6-6.1,2.1-7.7l0,0c2.7-1.5,6.1-0.6,7.7,2.2l0,0
				c1.5,2.7,0.5,6.1-2.2,7.7l0,0c-0.9,0.5-1.8,0.7-2.7,0.7l0,0C180.1,114.9,178.2,113.9,177.1,112z"/>
			<path id="XMLID_232_" class="st0" d="M66.1,100.1c-2.3-2.1-2.4-5.7-0.3-7.9l0,0c2.1-2.3,5.7-2.4,8-0.3l0,0
				c2.3,2.1,2.4,5.7,0.3,7.9l0,0c-1.1,1.2-2.6,1.8-4.1,1.8l0,0C68.5,101.6,67.2,101.1,66.1,100.1z"/>
			<path id="XMLID_231_" class="st0" d="M164.7,96.3L164.7,96.3c-2.3-2.1-2.4-5.7-0.3-7.9l0,0c2.1-2.3,5.7-2.4,8-0.3l0,0
				c2.3,2.1,2.4,5.7,0.3,7.9l0,0c-1.1,1.2-2.6,1.8-4.1,1.8l0,0C167.1,97.7,165.8,97.3,164.7,96.3z"/>
			<path id="XMLID_230_" class="st0" d="M82.2,85.2c-1.5-2.7-0.5-6.1,2.1-7.6l0,0C87,76,90.4,77,92,79.7l0,0
				c1.5,2.7,0.5,6.1-2.2,7.6l0,0c-0.9,0.5-1.8,0.7-2.7,0.7l0,0C85.1,88.1,83.2,87,82.2,85.2z"/>
			<path id="XMLID_229_" class="st0" d="M148,85.1c-2.8-1.3-4-4.6-2.8-7.5l0,0c1.3-2.8,4.7-4,7.5-2.7l0,0c2.8,1.3,4,4.6,2.8,7.4l0,0
				c-1,2.1-3,3.3-5.1,3.3l0,0C149.6,85.6,148.8,85.4,148,85.1z"/>
			<path id="XMLID_228_" class="st0" d="M102,76c-0.6-3,1.4-6,4.4-6.6l0,0c3-0.6,6,1.4,6.6,4.4l0,0c0.6,3-1.4,6-4.4,6.6l0,0
				c-0.4,0.1-0.7,0.1-1.1,0.1l0,0C104.9,80.5,102.6,78.7,102,76z"/>
			<path id="XMLID_227_" class="st0" d="M128.7,79.6c-3.1-0.4-5.3-3.2-4.9-6.3l0,0c0.4-3.1,3.2-5.3,6.3-4.9l0,0
				c3.1,0.4,5.3,3.2,4.9,6.2l0,0c-0.4,2.9-2.8,5-5.6,5l0,0C129.1,79.7,128.9,79.7,128.7,79.6z"/>
			<path id="XMLID_226_" class="st0" d="M116.7,241.6c-3.1-0.1-5.5-2.8-5.4-5.9l0,0c0.1-3.1,2.8-5.5,5.9-5.4l0,0
				c3.1,0.1,5.5,2.8,5.4,5.9l0,0c-0.1,3-2.6,5.4-5.6,5.4l0,0C116.8,241.6,116.7,241.6,116.7,241.6z"/>
			<path id="XMLID_225_" class="st0" d="M133.7,235.4c-0.6-3,1.4-6,4.4-6.6l0,0c3-0.6,6,1.4,6.6,4.4l0,0c0.6,3-1.4,6-4.4,6.6l0,0
				c-0.4,0.1-0.7,0.1-1.1,0.1l0,0C136.5,240,134.2,238.1,133.7,235.4z"/>
			<path id="XMLID_224_" class="st0" d="M93.3,237.7L93.3,237.7L93.3,237.7c-3-0.9-4.7-4-3.8-7l0,0c0.9-3,4-4.7,7-3.8l0,0
				c3,0.9,4.7,4,3.8,7l0,0c-0.7,2.4-3,4-5.4,4l0,0C94.3,238,93.8,237.9,93.3,237.7z"/>
			<path id="XMLID_223_" class="st0" d="M155.3,229.8c-1.3-2.8-0.1-6.2,2.7-7.5l0,0c2.8-1.3,6.2-0.1,7.5,2.7l0,0
				c1.3,2.8,0.1,6.2-2.7,7.5l0,0c-0.8,0.4-1.6,0.5-2.4,0.5l0,0C158.3,233,156.3,231.8,155.3,229.8z"/>
			<path id="XMLID_222_" class="st0" d="M71.5,228.3L71.5,228.3L71.5,228.3c-2.7-1.6-3.6-5-2-7.7l0,0c1.6-2.7,5-3.6,7.7-2l0,0
				c2.7,1.6,3.6,5,2,7.7l0,0c-1,1.8-2.9,2.8-4.9,2.8l0,0C73.4,229.1,72.4,228.8,71.5,228.3z"/>
			<path id="XMLID_221_" class="st0" d="M175,219.1c-2-2.4-1.6-6,0.8-7.9l0,0c2.4-1.9,5.9-1.6,7.9,0.8l0,0c2,2.4,1.6,6-0.8,7.9l0,0
				l0,0l0,0c-1,0.8-2.3,1.3-3.5,1.3l0,0C177.7,221.2,176.1,220.5,175,219.1z"/>
			<path id="XMLID_220_" class="st0" d="M52.6,214L52.6,214L52.6,214c-2.2-2.2-2.3-5.7-0.1-7.9l0,0c2.2-2.2,5.7-2.3,8-0.1l0,0
				c2.2,2.2,2.3,5.7,0.1,8l0,0c-1.1,1.1-2.6,1.7-4,1.7l0,0C55.1,215.6,53.7,215,52.6,214z"/>
			<path id="XMLID_219_" class="st0" d="M191.5,204c-2.5-1.9-3-5.4-1.1-7.9l0,0c1.9-2.5,5.4-3,7.9-1.1l0,0c2.5,1.9,3,5.4,1.1,7.9
				l0,0c-1.1,1.5-2.8,2.2-4.5,2.2l0,0C193.7,205.1,192.5,204.8,191.5,204z"/>
			<path id="XMLID_218_" class="st0" d="M37.7,195.6c-1.6-2.6-0.9-6.1,1.8-7.8l0,0c2.6-1.6,6.1-0.9,7.8,1.8l0,0
				c1.6,2.6,0.8,6.1-1.8,7.7l0,0c-0.9,0.6-2,0.9-3,0.9l0,0C40.6,198.2,38.8,197.3,37.7,195.6z"/>
			<path id="XMLID_217_" class="st0" d="M204,185.4c-2.8-1.2-4.1-4.6-2.9-7.4l0,0c1.2-2.9,4.5-4.2,7.4-2.9l0,0
				c2.8,1.2,4.1,4.6,2.9,7.4l0,0c-0.9,2.1-3,3.4-5.2,3.4l0,0C205.5,185.9,204.7,185.7,204,185.4z"/>
			<path id="XMLID_216_" class="st0" d="M27.7,174.1c-1-3,0.6-6.1,3.6-7.1l0,0c3-1,6.1,0.6,7.1,3.6l0,0c1,3-0.6,6.1-3.6,7.1l0,0
				c-0.6,0.2-1.2,0.3-1.7,0.3l0,0C30.6,178,28.4,176.5,27.7,174.1z"/>
			<path id="XMLID_215_" class="st0" d="M211.6,164.3c-3.1-0.5-5.1-3.4-4.6-6.5v0c0.5-3.1,3.4-5.1,6.5-4.6l0,0
				c3.1,0.5,5.1,3.4,4.6,6.5l0,0c-0.5,2.7-2.9,4.7-5.5,4.7l0,0C212.3,164.4,212,164.4,211.6,164.3z"/>
			<path id="XMLID_214_" class="st0" d="M23.1,150.8L23.1,150.8L23.1,150.8c-0.2-3.1,2.1-5.8,5.2-6l0,0c3.1-0.2,5.8,2.1,6,5.2h0
				c0.2,3.1-2.1,5.8-5.2,6l0,0c-0.2,0-0.3,0-0.4,0l0,0C25.7,156,23.3,153.8,23.1,150.8z"/>
			<path id="XMLID_213_" class="st0" d="M208,136.9c0,0,0-0.1,0-0.1l0,0c0,0,0-0.1,0-0.1l0,0c-0.2-3.1,2.1-5.8,5.2-6l0,0
				c3.1-0.2,5.8,2.1,6,5.2l0,0c0,0,0,0.1,0,0.1l0,0c0,0,0,0.1,0,0.1l0,0c0.2,3.1-2.1,5.8-5.2,6l0,0c-0.1,0-0.3,0-0.4,0l0,0
				C210.7,142.1,208.2,139.9,208,136.9z"/>
			<path id="XMLID_212_" class="st0" d="M28.7,133.6c-3.1-0.5-5.1-3.4-4.6-6.5l0,0c0.5-3.1,3.4-5.1,6.5-4.6l0,0
				c3.1,0.5,5.1,3.4,4.6,6.5l0,0c-0.5,2.7-2.8,4.7-5.5,4.7l0,0C29.3,133.7,29,133.7,28.7,133.6z"/>
			<path id="XMLID_211_" class="st0" d="M203.9,116.1c-1-3,0.6-6.1,3.6-7.1l0,0c2.9-1,6.1,0.6,7.1,3.6l0,0c1,3-0.6,6.1-3.6,7.1l0,0
				c-0.6,0.2-1.2,0.3-1.8,0.3l0,0C206.8,119.9,204.6,118.4,203.9,116.1z"/>
			<path id="XMLID_210_" class="st0" d="M33.7,111.8c-2.8-1.2-4.2-4.5-2.9-7.4l0,0c1.2-2.9,4.5-4.2,7.4-2.9l0,0
				c2.9,1.2,4.2,4.5,2.9,7.4l0,0c-0.9,2.1-3,3.4-5.2,3.4l0,0C35.2,112.3,34.5,112.1,33.7,111.8z"/>
			<path id="XMLID_209_" class="st0" d="M194.9,97.1L194.9,97.1c-1.7-2.6-0.9-6.1,1.8-7.8l0,0c2.6-1.6,6.1-0.9,7.7,1.8l0,0l0,0l0,0
				c1.7,2.6,0.9,6.1-1.8,7.8l0,0c-0.9,0.6-2,0.9-3,0.9l0,0C197.8,99.7,196,98.8,194.9,97.1z"/>
			<path id="XMLID_208_" class="st0" d="M237.2,71.4L237.2,71.4c-1.7-2.6-0.9-6.1,1.8-7.8l0,0c2.6-1.6,6.1-0.9,7.7,1.8l0,0l0,0l0,0
				c1.7,2.6,0.9,6.1-1.8,7.8l0,0c-0.9,0.6-2,0.9-3,0.9l0,0C240.1,74.1,238.3,73.1,237.2,71.4z"/>
			<path id="XMLID_207_" class="st0" d="M43.8,91.8c-2.5-1.9-3-5.4-1.1-7.9l0,0c1.9-2.5,5.4-3,7.9-1.1l0,0c2.5,1.9,3,5.4,1.1,7.9
				l0,0c-1.1,1.5-2.8,2.2-4.5,2.2l0,0C46,93,44.9,92.6,43.8,91.8z"/>
			<path id="XMLID_206_" class="st0" d="M181.7,80.8c-2.2-2.2-2.3-5.7-0.1-8l0,0c2.2-2.2,5.7-2.3,8-0.1l0,0c2.2,2.1,2.3,5.7,0.1,7.9
				l0,0c-1.1,1.1-2.6,1.7-4,1.7l0,0C184.2,82.4,182.8,81.9,181.7,80.8z"/>
			<path id="XMLID_205_" class="st0" d="M10,41.9c-2-2.4-1.6-6,0.8-7.9l0,0c2.4-2,6-1.6,7.9,0.8l0,0c2,2.4,1.6,6-0.8,7.9l0,0
				c-1,0.8-2.3,1.3-3.5,1.3l0,0C12.7,44,11.1,43.3,10,41.9z"/>
			<path id="XMLID_204_" class="st0" d="M165,68.1c-2.7-1.6-3.6-5-2-7.7l0,0c1.6-2.7,5-3.6,7.7-2l0,0l0,0l0,0c2.7,1.6,3.6,5,2,7.7
				l0,0c-1,1.8-2.9,2.8-4.9,2.8l0,0C166.8,68.9,165.9,68.6,165,68.1z"/>
			<path id="XMLID_203_" class="st0" d="M76.6,61.8c-1.3-2.8-0.1-6.2,2.7-7.5l0,0c2.8-1.3,6.2-0.1,7.5,2.7l0,0
				c1.3,2.8,0.1,6.2-2.7,7.5l0,0c-0.8,0.4-1.6,0.5-2.4,0.5l0,0C79.6,65,77.6,63.9,76.6,61.8z"/>
			<path id="XMLID_202_" class="st0" d="M145.7,59.8c-3-0.9-4.7-4-3.8-7l0,0c0.9-3,4-4.7,7-3.8l0,0c3,0.9,4.7,4,3.8,7l0,0
				c-0.7,2.4-3,4-5.4,4l0,0C146.7,60,146.2,59.9,145.7,59.8z"/>
			<path id="XMLID_201_" class="st0" d="M151.3,11c-3-0.9-4.7-4-3.8-7l0,0c0.9-3,4-4.7,7-3.8l0,0c3,0.9,4.7,4,3.8,7l0,0
				c-0.7,2.4-3,4-5.4,4l0,0C152.4,11.2,151.8,11.2,151.3,11z"/>
			<path id="XMLID_200_" class="st0" d="M125,56.4c-3.1-0.1-5.5-2.8-5.4-5.9l0,0c0.1-3.1,2.8-5.5,5.9-5.4l0,0l0,0l0,0
				c3.1,0.1,5.5,2.8,5.4,5.9l0,0c-0.1,3-2.6,5.4-5.6,5.4l0,0C125.1,56.4,125.1,56.4,125,56.4z"/>
			<path id="XMLID_199_" class="st0" d="M155.7,253.9c-1.1-2.9,0.4-6.1,3.3-7.2l0,0c2.9-1.1,6.1,0.4,7.2,3.3l0,0
				c1.1,2.9-0.4,6.1-3.3,7.2l0,0c-0.6,0.2-1.3,0.4-1.9,0.4l0,0C158.6,257.6,156.5,256.1,155.7,253.9z"/>
			<path id="XMLID_198_" class="st0" d="M49.7,241.4C49.7,241.4,49.7,241.4,49.7,241.4L49.7,241.4c-2.5-1.8-3.1-5.4-1.2-7.9l0,0
				c1.8-2.5,5.4-3.1,7.9-1.2l0,0c2.5,1.8,3.1,5.3,1.2,7.9l0,0c-1.1,1.5-2.8,2.3-4.5,2.3l0,0C51.9,242.4,50.7,242.1,49.7,241.4z"/>
			<path id="XMLID_197_" class="st0" d="M32,225.5L32,225.5L32,225.5c-2.1-2.3-2-5.8,0.3-7.9l0,0c2.3-2.1,5.8-2,7.9,0.3l0,0
				c2.1,2.3,2,5.8-0.3,7.9l0,0c-1.1,1-2.4,1.5-3.8,1.5l0,0C34.6,227.3,33.1,226.7,32,225.5z"/>
			<path id="XMLID_196_" class="st0" d="M7.3,185.2c-1.1-2.9,0.4-6.1,3.3-7.2l0,0c2.9-1.1,6.1,0.4,7.2,3.3l0,0
				c1.1,2.9-0.4,6.1-3.3,7.2l0,0c-0.6,0.2-1.3,0.4-1.9,0.4l0,0C10.3,188.9,8.2,187.5,7.3,185.2z"/>
			<path id="XMLID_195_" class="st0" d="M1.4,162.2c-0.5-3.1,1.6-5.9,4.7-6.4l0,0c3.1-0.5,5.9,1.6,6.4,4.7v0
				c0.5,3.1-1.6,5.9-4.7,6.4l0,0c-0.3,0.1-0.6,0.1-0.9,0.1l0,0C4.2,167,1.8,165,1.4,162.2z"/>
			<path id="XMLID_194_" class="st0" d="M236.4,153.8c-3.1-0.1-5.5-2.7-5.4-5.8l0,0c0,0,0-0.1,0-0.1l0,0c0-0.1,0-0.1,0-0.2l0,0
				c0.1-3.1,2.7-5.5,5.8-5.4l0,0c3.1,0.1,5.5,2.7,5.4,5.8l0,0c0,0,0,0.1,0,0.1l0,0c0,0,0,0.1,0,0.1l0,0l0,0l0,0
				c-0.1,3-2.6,5.4-5.6,5.4l0,0C236.5,153.8,236.5,153.8,236.4,153.8z"/>
			<path id="XMLID_193_" class="st0" d="M5.4,144.3c-3.1-0.1-5.5-2.8-5.4-5.9l0,0c0,0,0,0,0,0l0,0c0.1-3.1,2.8-5.5,5.9-5.4l0,0
				c3.1,0.1,5.5,2.7,5.4,5.8l0,0c-0.1,3-2.6,5.4-5.6,5.4l0,0C5.6,144.3,5.5,144.3,5.4,144.3z"/>
			<path id="XMLID_192_" class="st0" d="M229.8,126.2c-0.5-3.1,1.6-5.9,4.7-6.4l0,0c3.1-0.5,5.9,1.6,6.4,4.7l0,0
				c0.5,3.1-1.6,5.9-4.7,6.4l0,0c-0.3,0-0.6,0.1-0.9,0.1l0,0C232.6,130.9,230.2,129,229.8,126.2z"/>
			<path id="XMLID_191_" class="st0" d="M7.4,121.7c-3-0.7-4.9-3.8-4.2-6.8l0,0c0.7-3,3.8-4.9,6.8-4.2l0,0c3,0.7,4.9,3.8,4.1,6.8
				l0,0c-0.6,2.6-2.9,4.3-5.5,4.3l0,0C8.3,121.9,7.9,121.9,7.4,121.7z"/>
			<path id="XMLID_190_" class="st0" d="M224.3,105.3c-1.1-2.9,0.4-6.2,3.3-7.2l0,0c2.9-1.1,6.2,0.4,7.2,3.3l0,0
				c1.1,2.9-0.4,6.1-3.3,7.2l0,0c-0.6,0.2-1.3,0.4-2,0.4l0,0C227.3,109,225.2,107.6,224.3,105.3z"/>
			<path id="XMLID_189_" class="st0" d="M13.8,100c-2.8-1.3-4-4.6-2.8-7.5l0,0c1.3-2.8,4.7-4,7.5-2.7l0,0c2.8,1.3,4,4.7,2.8,7.5l0,0
				c-1,2.1-3,3.3-5.1,3.3l0,0C15.4,100.5,14.6,100.3,13.8,100z"/>
			<path id="XMLID_188_" class="st0" d="M214.9,86c-1.6-2.6-0.8-6.1,1.8-7.7l0,0c2.7-1.6,6.1-0.8,7.7,1.9l0,0
				c1.6,2.6,0.8,6.1-1.8,7.7l0,0c-0.9,0.6-1.9,0.8-2.9,0.8l0,0C217.8,88.6,216,87.7,214.9,86z"/>
			<path id="XMLID_187_" class="st0" d="M201.9,68.8L201.9,68.8c-2.1-2.3-2-5.8,0.3-7.9l0,0c2.3-2.1,5.8-2,7.9,0.3l0,0
				c2.1,2.3,2,5.8-0.3,7.9l0,0c-1.1,1-2.4,1.5-3.8,1.5l0,0C204.5,70.6,203,70,201.9,68.8z"/>
			<path id="XMLID_186_" class="st0" d="M38.6,62.3c-2.1-2.3-2-5.8,0.3-7.9l0,0c2.3-2.1,5.8-2,7.9,0.3l0,0c2.1,2.3,2,5.8-0.3,7.9h0
				c-1.1,1-2.5,1.5-3.8,1.5l0,0C41.2,64.1,39.7,63.4,38.6,62.3z"/>
			<path id="XMLID_185_" class="st0" d="M185.8,54.4c-2.5-1.8-3.1-5.4-1.2-7.9l0,0c1.8-2.5,5.4-3.1,7.9-1.2l0,0
				c2.5,1.8,3.1,5.3,1.2,7.9l0,0c-1.1,1.5-2.8,2.3-4.6,2.3l0,0C188,55.5,186.8,55.2,185.8,54.4z"/>
			<path id="XMLID_184_" class="st0" d="M167.2,43.5L167.2,43.5c-2.8-1.3-4-4.6-2.8-7.5l0,0c1.3-2.8,4.7-4,7.5-2.7l0,0l0,0l0,0
				c2.8,1.3,4,4.6,2.8,7.5l0,0c-1,2.1-3,3.3-5.1,3.3l0,0C168.8,44,168,43.9,167.2,43.5z"/>
			<path id="XMLID_183_" class="st0" d="M68.1,38.6c-1.1-2.9,0.4-6.2,3.3-7.2l0,0l0,0l0,0c2.9-1.1,6.2,0.4,7.2,3.3l0,0
				c1.1,2.9-0.4,6.1-3.3,7.2l0,0c-0.6,0.2-1.3,0.3-1.9,0.3l0,0C71.1,42.2,68.9,40.8,68.1,38.6z"/>
			<path id="XMLID_182_" class="st0" d="M97.6,30.1c-0.5-3.1,1.6-5.9,4.7-6.4l0,0l0,0l0,0c3.1-0.5,5.9,1.6,6.4,4.7l0,0
				c0.5,3.1-1.6,5.9-4.7,6.4l0,0c-0.3,0-0.6,0.1-0.9,0.1l0,0C100.4,34.8,98,32.8,97.6,30.1z"/>
			<g id="XMLID_180_">
				<path id="XMLID_181_" class="st0" d="M144.6,173.6l-0.3,0.1c-0.4,0.1-0.9,0.2-1.4,0.2c-0.9,0-1.9-0.2-2.7-0.5c-1.6-0.6-7-4-12-7
					l-0.9-0.6l0.9-0.6c10.3-7.1,20.5-11.7,30.5-13.5c-0.9-0.5-2.8-1.2-6.4-1.2c-9.2,0-17.9,4.9-25.2,9.5l-1,0.6l-0.2-1.1
					c-1-7.3-1.6-21.3-1.7-31.7c5.9,3.7,9.8,10,10.6,17.1c0.8-2.4,1.2-4.8,1.2-7.3c0-6.5-2.7-12.7-7.5-17l-0.6-0.6l1.1,0
					c0.1,0,0.3,0,0.4,0c7.9,0,14.9,5.5,17.1,13.2c0.1-0.6,0.1-1.1,0.1-1.7c0-9.3-7-17.2-15.9-17.8l-0.7-0.1l0.5-0.5
					c2.3-2.4,5.3-3.9,8.5-4.2c-1.7-0.8-3.6-1.3-5.5-1.3c-2.8,0-5.4,0.9-7.7,2.6l-0.4,0.3l-0.1-0.5c-0.6-1.9-1.6-3.6-3-5.1
					c-1.4,1.4-2.4,3.2-3,5.1l-0.1,0.5l-0.4-0.3c-2.2-1.7-4.9-2.6-7.7-2.6c-1.9,0-3.8,0.4-5.5,1.3c3.2,0.3,6.2,1.8,8.5,4.2l0.5,0.5
					l-0.7,0.1c-8.9,0.7-16,8.5-16,17.8c0,0.6,0,1.1,0.1,1.7c2.2-7.8,9.2-13.2,17.1-13.2c0.1,0,0.3,0,0.4,0l1.1,0l-0.6,0.6
					c-4.8,4.3-7.5,10.4-7.5,17c0,2.5,0.4,5,1.2,7.3c0.8-7.1,4.7-13.4,10.6-17.1c-0.1,10.3-0.7,24.4-1.7,31.7l-0.2,1.1l-1-0.6
					c-7.4-4.6-16-9.5-25.2-9.5c-3.6,0-5.5,0.7-6.4,1.2c10,1.8,20.2,6.4,30.5,13.5l0.9,0.6l-0.9,0.6c-4.9,3.1-10.3,6.4-12,7
					c-0.9,0.3-1.9,0.5-2.7,0.5c-0.5,0-1-0.1-1.4-0.2l-0.3-0.1c-0.2-0.1-0.5-0.2-0.6-0.2c0,0.1,0,0.2,0,0.5c0,1.6,2.3,3.4,5.7,3.4
					c1.6,0,3.3-0.4,4.9-1.3c5.3-2.7,12-6.9,12.1-6.9l0.4-0.2l0.4,0.2c0.1,0,6.8,4.2,12.1,6.9c1.6,0.8,3.3,1.3,4.9,1.3
					c3.3,0,5.7-1.8,5.7-3.4c0-0.3,0-0.4,0-0.5C145.1,173.4,144.9,173.5,144.6,173.6"/>
			</g>
			<path id="XMLID_179_" class="st0" d="M149.1,36.5c-3-0.7-4.9-3.8-4.2-6.8l0,0c0.7-3,3.8-4.9,6.8-4.1l0,0c3,0.7,4.9,3.8,4.2,6.8
				l0,0c-0.6,2.6-2.9,4.3-5.5,4.3l0,0C149.9,36.6,149.5,36.6,149.1,36.5z"/>
		</g>
	</g>
	<g id="lYg6nJ_1_">
		<g id="XMLID_165_">
			<path id="XMLID_176_" class="st0" d="M302.6,74.6c0.3-2,0.5-4,1-5.9c2.6-10.8,10.7-18,21.7-19.5c6.7-0.9,13.3-0.7,19.7,2
				c8,3.4,12.6,9.6,14.5,17.9c0.1,0.3,0.1,0.5,0.1,0.8c-0.3,0-0.5,0.1-0.7,0.1c-4.8,0-9.5,0-14.3,0c-0.6,0-0.9-0.1-1.2-0.7
				c-2.5-5.7-7.6-8.4-13.9-7.6c-5.3,0.7-8.7,3.7-10.2,8.8c-1.4,4.9-1.4,9.9,0.4,14.7c1.5,3.9,4.4,6.4,8.6,7
				c4.1,0.7,8.1,0.3,11.6-2.1c1.4-0.9,2.5-2.1,3.3-3.8c-4.1,0-8,0-12.1,0c0-3.5,0-6.9,0-10.3c9.5,0,19,0,28.6,0c0,9.5,0,19,0,28.6
				c-4,0-8,0-12.1,0c0-2.2,0-4.4,0-6.7c-0.3,0.2-0.6,0.3-0.7,0.4c-4.1,5-9.6,7.1-16,7.1c-6.1,0.1-11.9-1-17.2-4.4
				c-6.1-3.9-9.2-9.8-10.6-16.7c-0.3-1.5-0.5-3-0.7-4.6C302.6,78.1,302.6,76.4,302.6,74.6z"/>
			<path id="XMLID_173_" class="st0" d="M428.1,77.2c-0.1,5-0.9,9.9-3.3,14.4c-3.3,6.3-8.4,10.4-15.2,12.4
				c-7.4,2.2-14.8,2.2-22.2-0.2c-10.1-3.3-15.6-10.5-17.4-20.8c-0.9-5.2-0.7-10.4,0.8-15.5c2.5-8.6,8.1-14.5,16.7-17.1
				c7.5-2.4,15.2-2.4,22.7,0.1c10.1,3.4,15.6,10.7,17.3,21.1C427.9,73.5,427.9,75.3,428.1,77.2z M385.5,77.2c0,0.5,0,1.1,0,1.6
				c0.2,3,0.8,5.8,2.5,8.4c2.9,4.3,7.1,5.8,12.2,5.4c4.9-0.4,8.4-2.7,10.4-7.2c2-4.4,2.1-9.1,1-13.7c-1.3-5.6-5.1-9-10.8-9.8
				c-5.8-0.8-11.1,1.7-13.5,6.7C385.9,71.2,385.4,74.2,385.5,77.2z"/>
			<path id="XMLID_172_" class="st0" d="M509.4,85.7c5.3,0,10.4,0,15.7,0c0,0.8,0,1.5,0,2.2c0.1,2.8,1.2,4.3,3.8,5.1
				c2.9,0.9,5.9,1.1,8.8,0.8c1.6-0.2,3.1-0.5,4.6-1.1c1-0.4,2-1.2,2.7-2.1c1.4-1.9,0.9-4.3-1.3-5.2c-2.4-0.9-4.9-1.7-7.4-2.1
				c-5.2-0.9-10.5-1.5-15.5-3.5c-2-0.8-3.9-1.9-5.5-3.2c-6.5-5.1-6.6-17.3,1-22.9c3.2-2.4,6.8-3.6,10.6-4.2c6.8-1,13.6-1,20.2,1
				c2,0.6,4,1.6,5.8,2.8c4.4,2.9,6.6,8,6,13.8c-5.2,0-10.4,0-15.6,0c0-0.4-0.1-0.7-0.1-1.1c0.1-2.4-1.1-3.9-3.2-4.7
				c-3.4-1.2-7-1.2-10.4,0c-1,0.4-1.9,1.2-2.5,2c-1.3,1.6-0.9,3.9,1,4.7c2.2,0.9,4.5,1.6,6.9,2.1c5,0.9,10,1.4,14.8,3
				c3.3,1.1,6.4,2.7,8.6,5.5c5.7,7.2,3.5,18.2-4.6,23c-3.4,2-7.1,3-10.9,3.4c-6.8,0.8-13.5,0.8-20.1-1c-2.4-0.7-4.7-1.7-6.8-3
				c-4.3-2.7-6.3-6.8-6.6-11.8C509.3,88.1,509.4,86.9,509.4,85.7z"/>
			<path id="XMLID_169_" class="st0" d="M627.9,104.7c-5.3,0-10.4,0-15.6,0c-1-2.4-2-4.9-2.9-7.3c-0.3-0.8-0.7-1.1-1.5-1.1
				c-7.7,0-15.3,0-23,0c-0.8,0-1.1,0.2-1.4,0.9c-0.8,2.3-1.8,4.5-2.7,6.7c-0.1,0.3-0.6,0.7-0.9,0.7c-4.9,0-9.8,0-14.7,0
				c-0.1,0-0.1-0.1-0.3-0.1c0.1-0.3,0.2-0.7,0.4-1c7.1-17.6,14.1-35.3,21.2-52.9c0.3-0.8,0.7-1.2,1.6-1.1c5.6,0,11.2,0,16.9,0
				c0.7,0,1.1,0.2,1.4,0.9c7.1,17.8,14.2,35.6,21.4,53.4C627.7,104.1,627.7,104.4,627.9,104.7z M604.6,84.9c-0.1-0.4-0.2-0.7-0.3-1
				c-2.4-6.3-4.7-12.5-7.2-18.8c-0.1-0.4-0.5-0.6-0.8-0.9c-0.3,0.3-0.7,0.5-0.8,0.9c-2.4,6.3-4.8,12.6-7.2,18.9
				c-0.1,0.3-0.2,0.6-0.3,0.9C593.6,84.9,599,84.9,604.6,84.9z"/>
			<path id="XMLID_168_" class="st0" d="M489.1,49.6c-0.2,0.5-0.3,1-0.4,1.4c-5.9,17.5-11.9,35-17.8,52.6c-0.3,1-0.8,1.2-1.7,1.2
				c-6.1-0.1-12.2,0-18.2,0c-0.7,0-1-0.2-1.3-0.9c-6-17.8-12-35.5-18-53.3c-0.1-0.2-0.1-0.5-0.3-0.9c5.2,0,10.4,0,15.7,0
				c1,3.4,2.1,6.8,3.2,10.3c3,9.7,5.9,19.4,8.9,29.1c0.2,0.5,0.2,1.2,1.1,1.2c0.9,0,0.9-0.7,1-1.2c3.9-12.8,7.9-25.6,11.8-38.4
				c0.3-0.8,0.6-1.1,1.5-1.1c4.5,0,8.9,0,13.4,0C488.2,49.6,488.6,49.6,489.1,49.6z"/>
			<path id="XMLID_167_" class="st0" d="M495.5,105.5c-4.1,0-6.9-1.8-7.7-4.9c-1.3-5.1,1.3-9.6,7.1-9.7c1,0,2.1,0.1,3.1,0.3
				c3.5,0.9,5.3,3.8,5,7.8c-0.3,3.4-2.7,5.9-6.2,6.3C496.3,105.5,495.8,105.5,495.5,105.5z"/>
		</g>
	</g>
</g>
<path id="XMLID_162_" class="st0" d="M375.7,204c-0.2-0.2-0.3-0.2-0.5-0.2h-1.8c-0.2,0-0.3,0.1-0.5,0.2c-0.1,0.1-0.2,0.3-0.2,0.5
	v18.1c0,0.2,0.1,0.4,0.2,0.5h0c0.2,0.1,0.3,0.2,0.4,0.2h1.7c0.2,0,0.4-0.1,0.5-0.2c0.1-0.2,0.2-0.3,0.2-0.5l0-18.1
	C375.9,204.3,375.8,204.2,375.7,204 M375.6,196.6c-0.1-0.1-0.1-0.1-0.2-0.2c-0.1,0-0.2,0-0.3,0h-1.8c-0.1,0-0.1,0-0.2,0
	c-0.1,0-0.2,0-0.3,0.2c-0.1,0.1-0.2,0.3-0.2,0.5v2.9c0,0.2,0.1,0.4,0.2,0.5c0.1,0.1,0.2,0.2,0.3,0.2c0.1,0,0.1,0,0.2,0h1.8
	c0.1,0,0.2,0,0.3,0c0.1,0,0.1-0.1,0.2-0.2c0.2-0.1,0.2-0.3,0.2-0.5v-2.9C375.9,196.9,375.8,196.8,375.6,196.6"/>
</svg>
