<?xml version="1.0" encoding="utf-8"?>
<!-- Generator: Adobe Illustrator 19.0.0, SVG Export Plug-In . SVG Version: 6.00 Build 0)  -->
<svg version="1.1" id="Layer_1" xmlns="http://www.w3.org/2000/svg" xmlns:xlink="http://www.w3.org/1999/xlink" x="0px" y="0px"
	 viewBox="0 0 755 257.6" style="enable-background:new 0 0 755 257.6;" xml:space="preserve">
<style type="text/css">
	.st0{fill:#A6A7AA;}
	.st1{fill:url(#XMLID_54_);}
	.st2{fill:url(#XMLID_55_);}
	.st3{fill:url(#XMLID_56_);}
	.st4{fill:url(#XMLID_57_);}
	.st5{fill:url(#XMLID_58_);}
	.st6{fill:url(#XMLID_59_);}
	.st7{fill:url(#XMLID_60_);}
	.st8{fill:url(#XMLID_61_);}
	.st9{fill:url(#XMLID_62_);}
	.st10{fill:url(#XMLID_63_);}
	.st11{fill:url(#XMLID_64_);}
	.st12{fill:url(#XMLID_65_);}
	.st13{fill:url(#XMLID_66_);}
	.st14{fill:url(#XMLID_67_);}
	.st15{fill:url(#XMLID_68_);}
	.st16{fill:url(#XMLID_69_);}
	.st17{fill:url(#XMLID_70_);}
	.st18{fill:url(#XMLID_71_);}
	.st19{fill:url(#XMLID_72_);}
	.st20{fill:url(#XMLID_73_);}
	.st21{fill:url(#XMLID_74_);}
	.st22{fill:url(#XMLID_75_);}
	.st23{fill:url(#XMLID_76_);}
	.st24{fill:url(#XMLID_77_);}
	.st25{fill:url(#XMLID_78_);}
	.st26{fill:url(#XMLID_79_);}
	.st27{fill:url(#XMLID_80_);}
	.st28{fill:url(#XMLID_81_);}
	.st29{fill:url(#XMLID_82_);}
	.st30{fill:url(#XMLID_83_);}
	.st31{fill:url(#XMLID_84_);}
	.st32{fill:url(#XMLID_85_);}
	.st33{fill:url(#XMLID_86_);}
	.st34{fill:url(#XMLID_87_);}
	.st35{fill:url(#XMLID_88_);}
	.st36{fill:url(#XMLID_89_);}
	.st37{fill:url(#XMLID_90_);}
	.st38{fill:url(#XMLID_91_);}
	.st39{fill:url(#XMLID_92_);}
	.st40{fill:url(#XMLID_93_);}
	.st41{fill:url(#XMLID_94_);}
	.st42{fill:url(#XMLID_95_);}
	.st43{fill:url(#XMLID_96_);}
	.st44{fill:url(#XMLID_97_);}
	.st45{fill:url(#XMLID_98_);}
	.st46{fill:url(#XMLID_99_);}
	.st47{fill:url(#XMLID_100_);}
	.st48{fill:url(#XMLID_101_);}
	.st49{fill:url(#XMLID_102_);}
	.st50{fill:url(#XMLID_103_);}
	.st51{fill:url(#XMLID_104_);}
	.st52{fill:url(#XMLID_105_);}
	.st53{fill:url(#XMLID_106_);}
	.st54{fill:url(#XMLID_107_);}
	.st55{fill:url(#XMLID_108_);}
	.st56{fill:url(#XMLID_109_);}
	.st57{fill:url(#XMLID_110_);}
	.st58{fill:url(#XMLID_111_);}
	.st59{fill:url(#XMLID_112_);}
	.st60{fill:url(#XMLID_113_);}
	.st61{fill:url(#XMLID_114_);}
	.st62{fill:url(#XMLID_115_);}
	.st63{fill:url(#XMLID_116_);}
	.st64{fill:url(#XMLID_117_);}
	.st65{fill:url(#XMLID_118_);}
	.st66{fill:url(#XMLID_119_);}
	.st67{fill:url(#XMLID_120_);}
	.st68{fill:url(#XMLID_121_);}
	.st69{fill:#3CA17B;}
</style>
<g id="XMLID_166_">
	<g id="XMLID_291_">
		<path id="XMLID_321_" class="st0" d="M317.7,151.3c-3.2,0-5.8,1-7.6,3c-1.7,1.8-2.6,4.2-2.6,7.1c0,6.3,3.6,9.5,10.7,9.5h8.2v-10.5
			C326.4,154.3,323.5,151.3,317.7,151.3z M322.7,167.9h-4c-4.9,0-7.4-2.3-7.4-6.9c0-2.1,0.5-3.7,1.6-4.9c1.1-1.2,2.6-1.9,4.5-1.9
			c3.6,0,5.4,2.3,5.4,6.8V167.9z"/>
		<path id="XMLID_320_" class="st0" d="M314.4,148c0.6,0,1.1-0.2,1.5-0.6c0.4-0.4,0.6-1,0.6-1.6c0-0.6-0.2-1.1-0.6-1.5
			c-0.4-0.4-0.9-0.6-1.5-0.6c-0.6,0-1.1,0.2-1.5,0.6c-0.4,0.4-0.6,0.9-0.6,1.5c0,0.6,0.2,1.2,0.6,1.6
			C313.3,147.8,313.8,148,314.4,148z"/>
		<path id="XMLID_319_" class="st0" d="M320.4,148c0.6,0,1.1-0.2,1.5-0.6c0.4-0.4,0.6-0.9,0.6-1.6c0-0.6-0.2-1.1-0.6-1.5
			c-0.4-0.4-0.9-0.6-1.5-0.6c-0.6,0-1.1,0.2-1.6,0.6c-0.4,0.4-0.6,0.9-0.6,1.5c0,0.6,0.2,1.2,0.6,1.6
			C319.3,147.8,319.8,148,320.4,148z"/>
		<path id="XMLID_318_" class="st0" d="M359.8,151.6c-1.8,0-3.4,0.1-4.9,0.3v2.9c1.4-0.2,2.9-0.3,4.5-0.3c3.2,0,5.6,0.8,7,2.3
			c1.3,1.4,1.9,3.7,1.9,6.9c0,1.1-0.1,2.5-0.3,4.2h-16.3h-0.6h-2.6c-0.1-4.7-1.3-8.4-3.4-11.1c-2-2.6-5.3-4.5-9.6-5.9l-0.9,3.2
			c3.6,1.1,6.2,2.7,7.8,4.9c1.6,2.2,2.4,5.1,2.5,8.9h-13.1v3h19.3h0.6h19.6c0.4-2.6,0.7-5.1,0.7-7.5c0-4-0.9-6.9-2.8-8.8
			C367.3,152.6,364.1,151.6,359.8,151.6z"/>
		<path id="XMLID_314_" class="st0" d="M429.7,167.9h-8.4v-7.5c0-6.1-2.9-9.1-8.7-9.1c-3.2,0-5.8,1-7.6,3c-1.7,1.8-2.5,4.1-2.5,7
			c0,2.5-0.5,4.3-1.4,5.4c-0.8,0.9-2,1.3-3.6,1.3v0h-3.1v-15.2c-2.5-1-5.2-1.4-8.2-1.4c-3.3,0-5.9,1-7.7,3c-1.7,1.8-2.5,4.2-2.5,7.1
			c0,6.3,3.6,9.5,10.7,9.5h4.1v1c0,4.2-2.6,6.4-7.8,6.4c-2.1,0-4.2-0.3-6.5-0.8l-0.3,3.1c2.1,0.4,4.3,0.6,6.4,0.6c4.1,0,7.1-1,9.2-3
			c1.8-1.7,2.6-3.9,2.6-6.5v-0.8h3.1v0h0.6c0,0,0,0,0,0h0.7v-0.1c3-0.2,4.8-1.4,5.5-3.8c1.5,2.6,4.7,3.8,9.4,3.8h19.8v-28.7h-3.7
			V167.9z M390.5,167.9h-3.6c-4.9,0-7.4-2.3-7.4-6.9c0-2,0.5-3.6,1.6-4.9c1.1-1.2,2.6-1.8,4.5-1.8c1.9,0,3.6,0.3,4.9,1V167.9z
			 M417.6,167.9h-4c-4.9,0-7.4-2.3-7.4-6.9c0-2.1,0.5-3.7,1.6-4.9c1.1-1.2,2.6-1.9,4.5-1.9c3.6,0,5.4,2.3,5.4,6.8V167.9z"/>
		<rect id="XMLID_313_" x="441.1" y="142.2" class="st0" width="3.7" height="28.7"/>
		<path id="XMLID_312_" class="st0" d="M465.4,148c0.6,0,1.1-0.2,1.5-0.6c0.4-0.4,0.6-1,0.6-1.6c0-0.6-0.2-1.1-0.6-1.5
			c-0.4-0.4-0.9-0.6-1.5-0.6c-0.6,0-1.1,0.2-1.5,0.6c-0.4,0.4-0.6,0.9-0.6,1.5c0,0.6,0.2,1.2,0.6,1.6
			C464.3,147.8,464.8,148,465.4,148z"/>
		<path id="XMLID_311_" class="st0" d="M471.4,148c0.6,0,1.1-0.2,1.5-0.6c0.4-0.4,0.6-0.9,0.6-1.6c0-0.6-0.2-1.1-0.6-1.5
			c-0.4-0.4-0.9-0.6-1.5-0.6c-0.6,0-1.1,0.2-1.6,0.6c-0.4,0.4-0.6,0.9-0.6,1.5c0,0.6,0.2,1.2,0.6,1.6
			C470.3,147.8,470.8,148,471.4,148z"/>
		<path id="XMLID_310_" class="st0" d="M490.3,174.8c-0.6,0-1.1,0.2-1.6,0.6c-0.4,0.4-0.6,0.9-0.6,1.5c0,0.6,0.2,1.1,0.6,1.6
			c0.4,0.4,0.9,0.6,1.6,0.6c0.6,0,1.1-0.2,1.5-0.7c0.4-0.4,0.6-0.9,0.6-1.6s-0.2-1.1-0.6-1.5C491.4,175,490.9,174.8,490.3,174.8z"/>
		<path id="XMLID_309_" class="st0" d="M484.3,174.8c-0.6,0-1.1,0.2-1.5,0.6c-0.4,0.4-0.6,0.9-0.6,1.5c0,0.6,0.2,1.2,0.6,1.6
			c0.4,0.4,0.9,0.6,1.5,0.6c0.6,0,1.1-0.2,1.5-0.7c0.4-0.4,0.6-0.9,0.6-1.6s-0.2-1.1-0.6-1.5C485.4,175,484.9,174.8,484.3,174.8z"/>
		<path id="XMLID_305_" class="st0" d="M509,151.3c-3.2,0-5.8,1-7.6,3c-1.7,1.8-2.6,4.1-2.6,7c0,3.3,1,5.6,3,6.9
			c-0.6-0.1-1.4-0.2-2.4-0.2h-3.2v0h-5.7v-16.2h-3.7v16.2h-5.3v0h-4.5v-15.2c-2.5-1-5.2-1.4-8.2-1.4c-3.3,0-5.9,1-7.7,3
			c-1.7,1.8-2.5,4.2-2.5,7.1c0,6.3,3.6,9.5,10.7,9.5h12.3v0h14.8v0h21.4v-10.5C517.7,154.3,514.8,151.3,509,151.3z M473.3,167.9
			h-3.6c-4.9,0-7.4-2.3-7.4-6.9c0-2,0.5-3.6,1.6-4.9c1.1-1.2,2.6-1.8,4.5-1.8c1.9,0,3.6,0.3,4.9,1V167.9z M514.1,167.9h-4
			c-4.9,0-7.4-2.3-7.4-6.9c0-2.1,0.5-3.7,1.6-4.9c1.1-1.2,2.6-1.9,4.5-1.9c3.6,0,5.4,2.3,5.4,6.8V167.9z"/>
		<path id="XMLID_302_" class="st0" d="M594.2,167.9h-5.1h-0.6h-3.1c0.2-1.7,0.3-3.2,0.3-4.5c0-4-0.9-6.9-2.8-8.8c-2-2-5.1-3-9.5-3
			c-1.8,0-3.4,0.1-4.9,0.3v2.9c1.4-0.2,2.9-0.3,4.5-0.3c3.2,0,5.6,0.8,7,2.3c1.3,1.4,1.9,3.7,1.9,6.9c0,1.1-0.1,2.5-0.3,4.2h-16.2
			h-0.6h-3.1c-0.1-4.3-1.1-7.7-2.8-10.3c-1.6-2.3-4-4.2-7.2-5.5l11.1-6.8v-3.8l-15.4,9.7v2.8c3.6,1,6.3,2.6,7.9,4.7
			c1.7,2.2,2.6,5.3,2.7,9.2h-13.1v0H541v-15.2c-2.5-1-5.2-1.4-8.2-1.4c-3.3,0-5.9,1-7.7,3c-1.7,1.8-2.5,4.2-2.5,7.1
			c0,6.3,3.6,9.5,10.7,9.5h4.1v1c0,4.2-2.6,6.4-7.8,6.4c-2.1,0-4.2-0.3-6.5-0.8l-0.3,3.1c2.1,0.4,4.3,0.6,6.4,0.6c4.1,0,7.1-1,9.2-3
			c1.8-1.7,2.6-3.9,2.6-6.5v-0.8h3.9v0h19.9h0.6h23.1h0.6h8.8v-28.7h-3.7V167.9z M537.3,167.9h-3.6c-4.9,0-7.4-2.3-7.4-6.9
			c0-2,0.5-3.6,1.6-4.9c1.1-1.2,2.6-1.8,4.5-1.8c1.9,0,3.6,0.3,4.9,1V167.9z"/>
		<rect id="XMLID_301_" x="605.6" y="142.2" class="st0" width="3.7" height="28.7"/>
		<path id="XMLID_300_" class="st0" d="M634.5,148c0.6,0,1.1-0.2,1.5-0.6c0.4-0.4,0.6-1,0.6-1.6c0-0.6-0.2-1.1-0.6-1.5
			c-0.4-0.4-0.9-0.6-1.5-0.6c-0.6,0-1.1,0.2-1.6,0.6c-0.4,0.4-0.6,0.9-0.6,1.5c0,0.6,0.2,1.2,0.6,1.6
			C633.4,147.8,633.9,148,634.5,148z"/>
		<path id="XMLID_299_" class="st0" d="M645.4,167.9h-6.9c-4.1,0-7-0.8-8.7-2.3c-1.5-1.4-2.3-3.7-2.3-7c0-2.6,0.5-4.9,1.6-7l-4,0.7
			c-0.9,1.9-1.4,4.2-1.4,6.8c0,4,1.1,6.9,3.3,8.8c2.3,2,6,3,11,3h11.1v-19.1h-3.7V167.9z"/>
		<path id="XMLID_298_" class="st0" d="M640.5,148c0.6,0,1.1-0.2,1.5-0.6c0.4-0.4,0.6-0.9,0.6-1.6c0-0.6-0.2-1.1-0.6-1.5
			c-0.4-0.4-0.9-0.6-1.5-0.6c-0.6,0-1.1,0.2-1.6,0.6c-0.4,0.4-0.7,0.9-0.7,1.5c0,0.6,0.2,1.2,0.7,1.6
			C639.4,147.8,639.9,148,640.5,148z"/>
		<path id="XMLID_295_" class="st0" d="M676.9,151.3c-3.2,0-5.8,1-7.6,3c-1.7,1.8-2.6,4.1-2.6,7c0,3.3,1,5.6,3,6.9
			c-0.6-0.1-1.4-0.2-2.4-0.2h-2.6h-0.6h-3.9v-25.7h-3.7v28.7h7.6h0.6h20.8v-10.5C685.6,154.3,682.7,151.3,676.9,151.3z M681.9,167.9
			h-4c-4.9,0-7.4-2.3-7.4-6.9c0-2.1,0.5-3.7,1.6-4.9c1.1-1.2,2.6-1.9,4.5-1.9c3.6,0,5.4,2.3,5.4,6.8V167.9z"/>
		<path id="XMLID_294_" class="st0" d="M720.1,147.4c0.6,0,1.2-0.2,1.6-0.6c0.4-0.4,0.7-0.9,0.7-1.6c0-0.6-0.2-1.2-0.7-1.6
			c-0.4-0.4-1-0.7-1.6-0.7c-0.6,0-1.1,0.2-1.6,0.7c-0.4,0.4-0.6,1-0.6,1.6c0,0.6,0.2,1.1,0.6,1.6C719,147.2,719.5,147.4,720.1,147.4
			z"/>
		<path id="XMLID_293_" class="st0" d="M739.9,167.9h-5.7v0H731c0.2-1.7,0.3-3.2,0.3-4.5c0-4-0.9-6.9-2.8-8.8c-2-2-5.1-3-9.5-3
			c-1.8,0-3.4,0.1-4.9,0.3v2.9c1.4-0.2,2.9-0.3,4.5-0.3c3.2,0,5.6,0.8,7,2.3c1.3,1.4,1.9,3.7,1.9,6.9c0,1.1-0.1,2.5-0.3,4.2H711v0
			h-3.1c-0.1-4.7-1.3-8.4-3.4-11.1c-2-2.6-5.3-4.5-9.6-5.9l-0.9,3.2c3.6,1.1,6.2,2.7,7.8,4.9c1.6,2.2,2.4,5.1,2.5,8.9h-13.1v3H711v0
			h23.1v0h9.4v-28.7h-3.7V167.9z"/>
		<rect id="XMLID_292_" x="751.3" y="142.2" class="st0" width="3.7" height="28.7"/>
	</g>
	<g id="XMLID_248_">
		<path id="XMLID_290_" class="st0" d="M324.9,197.2c-0.2-0.2-0.3-0.2-0.5-0.2h-2c-0.2,0-0.4,0-0.5,0.2c-0.1,0.1-0.2,0.3-0.2,0.4
			v16.2c0,1.1-0.1,2.2-0.3,3.1c-0.2,0.9-0.5,1.6-1,2.2c-0.4,0.6-1.1,1.1-1.8,1.3c-0.7,0.3-1.7,0.5-2.8,0.5c-1.1,0-2-0.2-2.8-0.5
			c-0.7-0.3-1.3-0.7-1.8-1.3c-0.4-0.6-0.8-1.3-0.9-2.2c-0.2-0.9-0.3-1.9-0.3-3v-16.2c0-0.2-0.1-0.3-0.2-0.4
			c-0.2-0.2-0.3-0.2-0.5-0.2h-2c-0.2,0-0.4,0-0.5,0.2c-0.1,0.1-0.2,0.3-0.2,0.4v16.2c0,3.4,0.8,5.9,2.4,7.5c1.6,1.6,3.8,2.4,6.7,2.4
			c2.9,0,5.1-0.8,6.7-2.4c1.6-1.6,2.4-4.1,2.4-7.5v-16.2C325.1,197.5,325.1,197.3,324.9,197.2"/>
		<path id="XMLID_289_" class="st0" d="M343.7,205.5c-1-1.3-2.6-1.9-4.7-1.9c-1.1,0-2,0.2-2.9,0.4c-0.9,0.3-1.8,0.7-2.8,1.3v-0.7
			c0-0.2,0-0.4-0.2-0.5c-0.2-0.2-0.3-0.2-0.5-0.2h-1.8c-0.2,0-0.3,0.1-0.5,0.2c-0.1,0.1-0.2,0.3-0.2,0.5v18.1c0,0.2,0,0.4,0.2,0.5
			c0.2,0.1,0.3,0.2,0.5,0.2h1.8c0.2,0,0.4-0.1,0.5-0.2c0.2-0.2,0.2-0.3,0.2-0.5v-15c0.9-0.4,1.7-0.7,2.5-1c0.8-0.2,1.6-0.4,2.3-0.4
			c0.7,0,1.3,0.1,1.8,0.2c0.5,0.2,0.9,0.4,1.2,0.8c0.3,0.4,0.6,0.8,0.7,1.4c0.1,0.6,0.2,1.3,0.2,2.3v11.6c0,0.2,0.1,0.4,0.2,0.5
			c0.1,0.1,0.3,0.2,0.5,0.2h1.7c0.2,0,0.4-0.1,0.5-0.2c0.2-0.2,0.2-0.3,0.2-0.5V211C345.2,208.6,344.7,206.8,343.7,205.5"/>
		<path id="XMLID_286_" class="st0" d="M353.4,196.6c-0.1-0.2-0.3-0.2-0.5-0.2h-1.8c-0.2,0-0.3,0-0.5,0.2c-0.1,0.1-0.2,0.3-0.2,0.5
			v2.9c0,0.2,0.1,0.4,0.2,0.5c0.2,0.2,0.3,0.2,0.5,0.2h1.8c0.2,0,0.4,0,0.5-0.2c0.2-0.1,0.2-0.3,0.2-0.5v-2.9
			C353.6,196.9,353.5,196.8,353.4,196.6 M353.3,204c-0.1-0.2-0.3-0.2-0.5-0.2h-1.7c-0.2,0-0.4,0.1-0.5,0.2c-0.2,0.1-0.2,0.3-0.2,0.5
			v18.1c0,0.2,0,0.4,0.2,0.5c0.1,0.1,0.3,0.2,0.5,0.2h1.7c0.2,0,0.4-0.1,0.5-0.2c0.2-0.2,0.2-0.3,0.2-0.5v-18.1
			C353.5,204.3,353.5,204.2,353.3,204"/>
		<path id="XMLID_283_" class="st0" d="M395.7,208.4c-0.3-1-0.9-1.9-1.5-2.6c-0.7-0.7-1.5-1.3-2.4-1.7c-1-0.4-2.1-0.6-3.4-0.6
			c-2.6,0-4.5,0.8-5.9,2.2c-1.3,1.5-2,3.5-2,6.1v3.2c0,1.7,0.2,3.1,0.7,4.2c0.4,1.1,1.1,2,1.8,2.6c0.8,0.7,1.6,1.1,2.6,1.4
			c0.9,0.2,2,0.4,3,0.4c1.2,0,2.3,0,3.3-0.2c1-0.1,2-0.2,3-0.4c0.3,0,0.5-0.1,0.6-0.3c0.1-0.1,0.2-0.3,0.2-0.5V221
			c0-0.2-0.1-0.3-0.2-0.4c-0.1-0.1-0.2-0.1-0.4-0.1h-0.2c-0.8,0.1-1.8,0.2-3,0.3c-1.2,0.1-2.3,0.1-3.3,0.1c-1.6,0-2.9-0.4-3.7-1.3
			c-0.8-0.9-1.2-2.4-1.2-4.5v-0.5h11.9c0.4,0,0.7-0.2,0.7-0.8v-1.9C396.2,210.6,396,209.5,395.7,208.4 M393,212.2h-9.4v-0.3
			c0-2,0.4-3.3,1.2-4.2c0.8-0.9,2-1.4,3.5-1.4c1.5,0,2.7,0.4,3.5,1.3c0.8,0.9,1.1,2.3,1.1,4.3V212.2z"/>
		<path id="XMLID_280_" class="st0" d="M414.7,196.8c-0.1-0.2-0.3-0.2-0.4-0.2h-1.8c-0.2,0-0.4,0-0.5,0.2c-0.1,0.1-0.2,0.3-0.2,0.4
			v6.6c-0.7-0.1-1.4-0.2-2.2-0.3c-0.8,0-1.4-0.1-2-0.1c-2.6,0-4.6,0.8-5.8,2.3c-1.3,1.5-1.9,3.7-1.9,6.4v2.6c0,1.3,0.2,2.5,0.4,3.6
			c0.3,1.1,0.8,2,1.4,2.8c0.7,0.8,1.5,1.3,2.4,1.8c0.9,0.4,2.1,0.6,3.4,0.6c1.1,0,2.2,0,3.3-0.2c1.1-0.1,2.2-0.2,3.3-0.4
			c0.3,0,0.5-0.1,0.6-0.3c0.1-0.1,0.1-0.3,0.1-0.5v-24.9C414.9,197.1,414.8,197,414.7,196.8 M411.7,220.7c-0.6,0.1-1.3,0.1-2.1,0.2
			c-0.8,0-1.5,0.1-2.1,0.1c-1.7,0-3-0.5-3.6-1.6c-0.6-1-1-2.5-1-4.5v-2.6c0-0.9,0.1-1.8,0.2-2.5c0.2-0.8,0.4-1.4,0.8-1.9
			c0.4-0.5,0.9-0.9,1.4-1.1c0.6-0.2,1.3-0.4,2.2-0.4c0.6,0,1.3,0,2.1,0c0.8,0,1.5,0.1,2.1,0.2V220.7z"/>
		<path id="XMLID_279_" class="st0" d="M444.9,209.8c-0.1-0.2-0.3-0.2-0.5-0.2h-1.9c-0.2,0-0.3,0-0.4,0.2c-0.1,0.1-0.2,0.3-0.2,0.5
			v10.2c-0.4,0-1,0.1-1.7,0.1c-0.7,0.1-1.7,0.1-2.8,0.1c-0.8,0-1.6-0.1-2.3-0.4c-0.7-0.3-1.3-0.8-1.9-1.4c-0.5-0.7-0.9-1.5-1.3-2.5
			c-0.3-1.1-0.4-2.3-0.4-3.7v-4.8c0-1.6,0.2-2.9,0.5-4c0.4-1.1,0.8-1.9,1.4-2.5c0.6-0.7,1.3-1.1,2-1.3c0.7-0.2,1.5-0.4,2.4-0.4
			c0.8,0,1.5,0,2,0c0.6,0,1.2,0,1.7,0c0.5,0,1,0,1.5,0c0.5,0,1,0.1,1.5,0.1h0.2c0.3,0,0.5-0.1,0.5-0.3v-1.8c0-0.2,0-0.3-0.2-0.4
			c-0.1,0-0.3-0.1-0.4-0.1c-0.7-0.1-1.5-0.2-2.6-0.3c-1.1-0.1-2.4-0.2-4.1-0.2c-1.1,0-2.3,0.2-3.4,0.5c-1.1,0.4-2.2,0.9-3.1,1.8
			c-0.9,0.9-1.6,2-2.2,3.4c-0.6,1.4-0.9,3.2-0.9,5.4v4.8c0,2,0.3,3.8,0.8,5.2c0.6,1.4,1.3,2.6,2.1,3.4c0.9,0.9,1.9,1.5,3,1.9
			c1.1,0.4,2.2,0.6,3.3,0.6c1.7,0,3.1,0,4.2-0.2c1.1-0.1,2.1-0.2,2.9-0.4c0.4-0.1,0.6-0.4,0.6-0.8v-12
			C445.1,210.2,445,210,444.9,209.8"/>
		<path id="XMLID_276_" class="st0" d="M465,208.7c-0.3-1.1-0.8-2-1.5-2.7c-0.7-0.8-1.5-1.3-2.5-1.8c-1-0.4-2.1-0.7-3.4-0.7
			c-1.3,0-2.4,0.2-3.5,0.7c-1,0.4-1.8,1-2.4,1.8c-0.7,0.7-1.2,1.7-1.5,2.7c-0.3,1.1-0.5,2.2-0.5,3.5v2.7c0,1.3,0.2,2.5,0.5,3.5
			c0.3,1.1,0.8,2,1.5,2.7c0.6,0.8,1.5,1.3,2.4,1.8c1,0.4,2.2,0.6,3.5,0.6c1.3,0,2.4-0.2,3.4-0.6c1-0.4,1.8-1,2.5-1.8
			c0.7-0.7,1.1-1.7,1.5-2.7c0.3-1.1,0.5-2.2,0.5-3.5v-2.7C465.5,210.9,465.3,209.8,465,208.7 M462.4,215c0,1.8-0.4,3.3-1.2,4.4
			c-0.8,1.1-2,1.6-3.6,1.6c-1.7,0-2.9-0.6-3.7-1.6c-0.7-1.1-1.1-2.5-1.1-4.3v-2.7c0-1.8,0.4-3.3,1.1-4.4c0.7-1.1,2-1.6,3.6-1.6
			s2.9,0.6,3.7,1.6c0.7,1.1,1.1,2.5,1.1,4.3V215z"/>
		<path id="XMLID_275_" class="st0" d="M483.4,203.8h-2c-0.3,0-0.5,0.2-0.7,0.7l-4.1,15.5c-0.1,0.4-0.2,0.7-0.4,0.8
			c-0.1,0.2-0.2,0.2-0.4,0.2c-0.2,0-0.3,0-0.4-0.2c-0.1-0.1-0.2-0.4-0.3-0.8l-4.1-15.5c-0.2-0.4-0.4-0.7-0.7-0.7h-2
			c-0.4,0-0.6,0.2-0.6,0.6c0,0.1,0,0.2,0,0.2l4.8,16.9c0.2,0.8,0.6,1.3,1.2,1.6c0.6,0.2,1.3,0.4,2,0.4c0.8,0,1.4-0.2,2-0.4
			c0.6-0.3,1-0.8,1.2-1.6l4.8-16.9c0,0,0-0.1,0-0.2C484,204,483.8,203.8,483.4,203.8"/>
		<path id="XMLID_272_" class="st0" d="M501.6,208.4c-0.3-1-0.8-1.9-1.5-2.6c-0.7-0.7-1.5-1.3-2.4-1.7c-1-0.4-2.1-0.6-3.4-0.6
			c-2.6,0-4.5,0.8-5.9,2.2c-1.3,1.5-2,3.5-2,6.1v3.2c0,1.7,0.2,3.1,0.7,4.2c0.4,1.1,1.1,2,1.8,2.6c0.7,0.7,1.6,1.1,2.6,1.4
			c1,0.2,2,0.4,3,0.4c1.2,0,2.3,0,3.3-0.2c1-0.1,2-0.2,3.1-0.4c0.3,0,0.4-0.1,0.6-0.3c0.1-0.1,0.1-0.3,0.1-0.5V221
			c0-0.2,0-0.3-0.2-0.4c-0.1-0.1-0.2-0.1-0.4-0.1h-0.2c-0.9,0.1-1.8,0.2-3,0.3c-1.2,0.1-2.3,0.1-3.3,0.1c-1.6,0-2.9-0.4-3.7-1.3
			c-0.8-0.9-1.2-2.4-1.2-4.5v-0.5h11.9c0.4,0,0.7-0.2,0.7-0.8v-1.9C502.1,210.6,501.9,209.5,501.6,208.4 M498.9,212.2h-9.4v-0.3
			c0-2,0.4-3.3,1.2-4.2c0.8-0.9,2-1.4,3.5-1.4c1.5,0,2.7,0.4,3.5,1.3c0.8,0.9,1.1,2.3,1.1,4.3V212.2z"/>
		<path id="XMLID_271_" class="st0" d="M514.4,203.6c-0.8,0-1.6,0.1-2.4,0.4c-0.9,0.2-1.7,0.7-2.6,1.3v-0.8c0-0.2,0-0.4-0.2-0.5
			c-0.1-0.2-0.3-0.2-0.4-0.2h-1.7c-0.2,0-0.4,0.1-0.5,0.2c-0.1,0.1-0.2,0.3-0.2,0.5v18.1c0,0.2,0.1,0.4,0.2,0.5
			c0.1,0.1,0.3,0.2,0.5,0.2h1.7c0.2,0,0.4-0.1,0.5-0.2c0.1-0.2,0.2-0.3,0.2-0.5v-14.9c0.9-0.5,1.7-0.9,2.5-1.1
			c0.8-0.2,1.6-0.4,2.4-0.4c0.5,0,0.8-0.2,0.8-0.6v-1.5C515.2,203.8,514.9,203.6,514.4,203.6"/>
		<path id="XMLID_270_" class="st0" d="M532.1,205.5c-1-1.3-2.6-1.9-4.7-1.9c-1.1,0-2,0.2-2.9,0.4c-0.9,0.3-1.8,0.7-2.8,1.3v-0.7
			c0-0.2-0.1-0.4-0.2-0.5c-0.1-0.2-0.3-0.2-0.5-0.2h-1.8c-0.2,0-0.3,0.1-0.5,0.2c-0.1,0.1-0.2,0.3-0.2,0.5v18.1c0,0.2,0,0.4,0.2,0.5
			c0.2,0.1,0.3,0.2,0.5,0.2h1.7c0.2,0,0.4-0.1,0.5-0.2c0.2-0.2,0.2-0.3,0.2-0.5v-15c0.8-0.4,1.6-0.7,2.4-1c0.8-0.2,1.6-0.4,2.4-0.4
			c0.6,0,1.2,0.1,1.7,0.2c0.5,0.2,0.9,0.4,1.2,0.8c0.3,0.4,0.6,0.8,0.7,1.4s0.2,1.3,0.2,2.3v11.6c0,0.2,0,0.4,0.2,0.5
			c0.1,0.1,0.3,0.2,0.5,0.2h1.7c0.2,0,0.4-0.1,0.5-0.2c0.2-0.2,0.2-0.3,0.2-0.5V211C533.5,208.6,533,206.8,532.1,205.5"/>
		<path id="XMLID_269_" class="st0" d="M561.5,207c-0.3-0.9-0.7-1.5-1.3-2c-0.5-0.5-1.1-0.9-1.8-1.1c-0.7-0.2-1.5-0.3-2.3-0.3
			c-0.9,0-1.9,0.1-2.9,0.4c-1,0.3-2,0.7-3,1.1c-0.5-0.5-1-0.9-1.6-1.1c-0.6-0.2-1.3-0.4-2-0.4c-1,0-2,0.2-2.8,0.5
			c-0.9,0.3-1.7,0.7-2.4,1.1v-0.6c0-0.2,0-0.4-0.2-0.5c-0.1-0.2-0.3-0.2-0.5-0.2h-1.7c-0.2,0-0.4,0.1-0.5,0.2
			c-0.1,0.1-0.2,0.3-0.2,0.5v18.1c0,0.2,0.1,0.4,0.2,0.5c0.1,0.1,0.2,0.2,0.4,0.2h1.9c0.2,0,0.4-0.1,0.5-0.2
			c0.1-0.2,0.2-0.3,0.2-0.5v-15c0.8-0.4,1.5-0.7,2.3-1c0.7-0.3,1.4-0.4,2.1-0.4c0.4,0,0.9,0,1.2,0.1c0.3,0.1,0.6,0.3,0.9,0.6
			c0.2,0.2,0.4,0.7,0.5,1.1c0.1,0.5,0.2,1.1,0.2,1.9v12.7c0,0.2,0,0.4,0.2,0.5c0.1,0.1,0.2,0.2,0.4,0.2h1.9c0.2,0,0.4-0.1,0.4-0.2
			c0.1-0.2,0.2-0.3,0.2-0.5V210c0-1.1-0.1-2-0.3-2.8c0.7-0.2,1.4-0.5,2.1-0.6c0.7-0.2,1.4-0.3,2-0.3c0.4,0,0.9,0,1.3,0.2
			c0.4,0.1,0.7,0.3,1,0.6c0.3,0.3,0.5,0.7,0.7,1.2c0.2,0.5,0.2,1.1,0.2,1.8v12.6c0,0.2,0,0.4,0.2,0.5c0.1,0.1,0.3,0.2,0.5,0.2h1.7
			c0.2,0,0.4-0.1,0.5-0.2c0.2-0.2,0.2-0.3,0.2-0.5v-12.6C561.9,208.9,561.8,207.8,561.5,207"/>
		<path id="XMLID_266_" class="st0" d="M581.3,208.4c-0.3-1-0.9-1.9-1.5-2.6c-0.6-0.7-1.4-1.3-2.4-1.7c-1-0.4-2.1-0.6-3.4-0.6
			c-2.6,0-4.5,0.8-5.9,2.2c-1.3,1.5-2,3.5-2,6.1v3.2c0,1.7,0.2,3.1,0.7,4.2c0.4,1.1,1.1,2,1.8,2.6c0.8,0.7,1.6,1.1,2.6,1.4
			c1,0.2,2,0.4,3,0.4c1.2,0,2.3,0,3.3-0.2c1-0.1,2-0.2,3-0.4c0.3,0,0.5-0.1,0.6-0.3c0.1-0.1,0.2-0.3,0.2-0.5V221
			c0-0.2-0.1-0.3-0.2-0.4c-0.1-0.1-0.2-0.1-0.4-0.1h-0.2c-0.8,0.1-1.8,0.2-3,0.3c-1.2,0.1-2.3,0.1-3.3,0.1c-1.6,0-2.9-0.4-3.7-1.3
			c-0.8-0.9-1.3-2.4-1.3-4.5v-0.5h11.9c0.4,0,0.7-0.2,0.7-0.8v-1.9C581.8,210.6,581.7,209.5,581.3,208.4 M578.7,212.2h-9.4v-0.3
			c0-2,0.4-3.3,1.3-4.2c0.8-0.9,2-1.4,3.5-1.4c1.5,0,2.7,0.4,3.5,1.3c0.7,0.9,1.1,2.3,1.1,4.3V212.2z"/>
		<path id="XMLID_265_" class="st0" d="M599.6,205.5c-1-1.3-2.6-1.9-4.7-1.9c-1.1,0-2,0.2-2.9,0.4c-0.9,0.3-1.8,0.7-2.8,1.3v-0.7
			c0-0.2,0-0.4-0.2-0.5c-0.2-0.2-0.3-0.2-0.5-0.2h-1.8c-0.2,0-0.4,0.1-0.5,0.2c-0.1,0.1-0.2,0.3-0.2,0.5v18.1c0,0.2,0.1,0.4,0.2,0.5
			c0.1,0.1,0.3,0.2,0.5,0.2h1.8c0.2,0,0.4-0.1,0.5-0.2c0.2-0.2,0.2-0.3,0.2-0.5v-15c0.9-0.4,1.7-0.7,2.5-1c0.8-0.2,1.6-0.4,2.3-0.4
			c0.7,0,1.3,0.1,1.8,0.2c0.5,0.2,0.9,0.4,1.2,0.8c0.3,0.4,0.6,0.8,0.7,1.4c0.1,0.6,0.2,1.3,0.2,2.3v11.6c0,0.2,0.1,0.4,0.2,0.5
			c0.1,0.1,0.3,0.2,0.5,0.2h1.7c0.2,0,0.4-0.1,0.5-0.2c0.2-0.2,0.2-0.3,0.2-0.5V211C601.1,208.6,600.6,206.8,599.6,205.5"/>
		<path id="XMLID_264_" class="st0" d="M614.9,221.1h-2c-0.7,0-1.2-0.1-1.5-0.4c-0.3-0.2-0.4-0.9-0.4-1.8v-12.4h3.9
			c0.2,0,0.3-0.1,0.5-0.2c0.1-0.2,0.2-0.3,0.2-0.5v-1.2c0-0.2-0.1-0.4-0.2-0.5c-0.2-0.2-0.3-0.2-0.5-0.2h-3.9v-3.9
			c0-0.2,0-0.3-0.2-0.4c-0.1-0.1-0.2-0.2-0.4-0.2h-0.1l-1.9,0.3c-0.4,0.1-0.7,0.3-0.7,0.7v3.5h-3.4c-0.4,0-0.7,0.2-0.7,0.7v1
			c0,0.4,0.2,0.6,0.7,0.6l3.4,0.4v12.4c0,1,0.1,1.8,0.3,2.4c0.2,0.7,0.5,1.1,0.9,1.5c0.4,0.4,0.9,0.6,1.5,0.7
			c0.6,0.1,1.3,0.2,2.2,0.2c0.3,0,0.7,0,1.1,0c0.4,0,0.8-0.1,1.2-0.1c0.4-0.1,0.7-0.3,0.7-0.7v-1.3
			C615.6,221.2,615.4,221.1,614.9,221.1"/>
		<path id="XMLID_263_" class="st0" d="M642.8,214.5c-0.2-0.6-0.5-1.2-0.9-1.8c-0.4-0.6-1.1-1.1-1.8-1.7c-0.7-0.6-1.6-1.2-2.6-1.8
			l-3.3-2c-1.3-0.8-2.3-1.5-2.9-2.2c-0.6-0.6-0.9-1.3-0.9-2.2c0-1.3,0.4-2.2,1.2-2.6c0.8-0.5,2.2-0.7,4-0.7c1,0,2.1,0,3.3,0.1
			c1.1,0,2.1,0.1,2.9,0.1h0.1c0.4,0,0.6-0.2,0.6-0.5v-1.5c0-0.3-0.2-0.5-0.6-0.6c-0.4,0-0.8-0.1-1.3-0.2c-0.5,0-1-0.1-1.6-0.1
			c-0.6,0-1.1-0.1-1.7-0.1c-0.6,0-1.1,0-1.6,0c-2.7,0-4.8,0.5-6.3,1.5c-1.5,1-2.2,2.6-2.2,4.8c0,1.4,0.4,2.6,1.2,3.7
			c0.8,1,2,2,3.7,3l3.4,2.1c0.8,0.5,1.5,0.9,2,1.3c0.5,0.4,1,0.8,1.3,1.1c0.4,0.4,0.6,0.7,0.7,1.1c0.1,0.4,0.2,0.8,0.2,1.2
			c0,0.6-0.1,1.2-0.2,1.7c-0.2,0.5-0.4,1-0.9,1.3c-0.4,0.4-0.9,0.7-1.7,0.9c-0.7,0.2-1.6,0.3-2.6,0.3h-1.3c-0.5,0-1.1,0-1.6,0
			c-0.5,0-1.1,0-1.5,0c-0.5,0-1-0.1-1.4-0.1h-0.1c-0.2,0-0.3,0-0.4,0.1c-0.1,0.1-0.2,0.2-0.2,0.4v1.4c0,0.2,0,0.3,0.1,0.4
			c0.1,0.1,0.3,0.2,0.6,0.2c0.8,0.1,1.7,0.2,2.6,0.3c0.9,0.1,2,0.2,3.3,0.2c1.7,0,3.2-0.2,4.4-0.6c1.1-0.4,2-1,2.7-1.7
			c0.7-0.7,1.1-1.4,1.3-2.3c0.3-0.9,0.4-1.7,0.4-2.6C643.1,215.8,643,215.1,642.8,214.5"/>
		<path id="XMLID_260_" class="st0" d="M661.8,208.4c-0.3-1-0.8-1.9-1.5-2.6c-0.6-0.7-1.5-1.3-2.4-1.7c-0.9-0.4-2.1-0.6-3.4-0.6
			c-2.6,0-4.5,0.8-5.9,2.2c-1.3,1.5-2,3.5-2,6.1v3.2c0,1.7,0.2,3.1,0.7,4.2c0.5,1.1,1.1,2,1.8,2.6c0.7,0.7,1.6,1.1,2.6,1.4
			c1,0.2,2,0.4,3,0.4c1.2,0,2.3,0,3.3-0.2c1-0.1,2-0.2,3.1-0.4c0.3,0,0.5-0.1,0.6-0.3c0.1-0.1,0.1-0.3,0.1-0.5V221
			c0-0.2,0-0.3-0.2-0.4c-0.1-0.1-0.2-0.1-0.4-0.1H661c-0.8,0.1-1.8,0.2-3,0.3c-1.1,0.1-2.3,0.1-3.3,0.1c-1.7,0-2.9-0.4-3.7-1.3
			c-0.9-0.9-1.3-2.4-1.3-4.5v-0.5h11.9c0.4,0,0.7-0.2,0.7-0.8v-1.9C662.3,210.6,662.1,209.5,661.8,208.4 M659.2,212.2h-9.5v-0.3
			c0-2,0.4-3.3,1.2-4.2c0.8-0.9,2-1.4,3.5-1.4c1.6,0,2.7,0.4,3.5,1.3c0.8,0.9,1.2,2.3,1.2,4.3V212.2z"/>
		<path id="XMLID_259_" class="st0" d="M674.7,203.6c-0.8,0-1.6,0.1-2.4,0.4c-0.8,0.2-1.7,0.7-2.6,1.3v-0.8c0-0.2-0.1-0.4-0.2-0.5
			c-0.1-0.2-0.3-0.2-0.5-0.2h-1.7c-0.2,0-0.4,0.1-0.5,0.2c-0.1,0.1-0.2,0.3-0.2,0.5v18.1c0,0.2,0.1,0.4,0.2,0.5
			c0.1,0.1,0.3,0.2,0.5,0.2h1.8c0.2,0,0.3-0.1,0.5-0.2c0.1-0.2,0.2-0.3,0.2-0.5v-14.9c0.9-0.5,1.8-0.9,2.5-1.1
			c0.8-0.2,1.5-0.4,2.4-0.4c0.5,0,0.7-0.2,0.7-0.6v-1.5C675.4,203.8,675.2,203.6,674.7,203.6"/>
		<path id="XMLID_258_" class="st0" d="M693.3,203.8h-2c-0.3,0-0.6,0.2-0.7,0.7l-4.1,15.5c-0.1,0.4-0.2,0.7-0.3,0.8
			c-0.1,0.2-0.2,0.2-0.4,0.2c-0.2,0-0.3,0-0.4-0.2c-0.1-0.1-0.2-0.4-0.3-0.8l-4.1-15.5c-0.1-0.4-0.4-0.7-0.7-0.7h-2
			c-0.4,0-0.6,0.2-0.6,0.6c0,0.1,0,0.2,0,0.2l4.8,16.9c0.2,0.8,0.6,1.3,1.2,1.6c0.6,0.2,1.2,0.4,2,0.4c0.8,0,1.4-0.2,2-0.4
			c0.6-0.3,1-0.8,1.2-1.6l4.8-16.9c0,0,0-0.1,0-0.2C693.9,204,693.7,203.8,693.3,203.8"/>
		<path id="XMLID_255_" class="st0" d="M701,196.6c-0.2-0.2-0.3-0.2-0.5-0.2h-1.8c-0.2,0-0.4,0-0.5,0.2c-0.1,0.1-0.2,0.3-0.2,0.5
			v2.9c0,0.2,0.1,0.4,0.2,0.5c0.1,0.2,0.3,0.2,0.5,0.2h1.8c0.2,0,0.3,0,0.5-0.2c0.1-0.1,0.2-0.3,0.2-0.5v-2.9
			C701.2,196.9,701.2,196.8,701,196.6 M701,204c-0.1-0.2-0.3-0.2-0.5-0.2h-1.7c-0.2,0-0.4,0.1-0.5,0.2c-0.2,0.1-0.2,0.3-0.2,0.5
			v18.1c0,0.2,0,0.4,0.2,0.5c0.1,0.1,0.3,0.2,0.5,0.2h1.7c0.2,0,0.4-0.1,0.5-0.2c0.2-0.2,0.2-0.3,0.2-0.5v-18.1
			C701.2,204.3,701.1,204.2,701,204"/>
		<path id="XMLID_254_" class="st0" d="M710.1,207.8c0.8-1,1.9-1.5,3.3-1.5c0.9,0,1.6,0,2.3,0.1c0.6,0,1.3,0.1,2.1,0.2h0.2
			c0.2,0,0.3,0,0.4-0.1c0.1-0.1,0.2-0.2,0.2-0.4v-1.3c0-0.2-0.1-0.4-0.2-0.5c-0.1-0.1-0.3-0.2-0.6-0.2c-0.6-0.1-1.3-0.2-2-0.3
			c-0.8-0.1-1.6-0.1-2.4-0.1c-1.2,0-2.3,0.2-3.2,0.7c-1,0.4-1.8,1-2.4,1.7c-0.7,0.8-1.1,1.7-1.5,2.7c-0.3,1.1-0.5,2.2-0.5,3.5v2.8
			c0,1.3,0.2,2.5,0.5,3.5c0.3,1.1,0.8,2,1.5,2.7c0.7,0.7,1.4,1.3,2.4,1.8c0.9,0.4,2,0.6,3.2,0.6c0.8,0,1.6,0,2.4-0.1
			c0.8,0,1.5-0.2,2-0.3c0.3,0,0.5-0.1,0.6-0.2c0.1-0.1,0.2-0.3,0.2-0.5v-1.3c0-0.2-0.1-0.3-0.2-0.4c-0.1-0.1-0.2-0.2-0.4-0.2h-0.2
			c-0.8,0.1-1.5,0.2-2.1,0.2c-0.7,0-1.4,0.1-2.3,0.1c-1.4,0-2.6-0.5-3.3-1.5c-0.8-0.9-1.1-2.4-1.1-4.4v-2.8
			C708.9,210.2,709.3,208.7,710.1,207.8"/>
		<path id="XMLID_251_" class="st0" d="M737.1,208.4c-0.3-1-0.8-1.9-1.5-2.6c-0.7-0.7-1.5-1.3-2.4-1.7c-1-0.4-2.1-0.6-3.4-0.6
			c-2.5,0-4.5,0.8-5.8,2.2c-1.4,1.5-2,3.5-2,6.1v3.2c0,1.7,0.2,3.1,0.7,4.2c0.4,1.1,1.1,2,1.8,2.6c0.8,0.7,1.6,1.1,2.6,1.4
			c1,0.2,2,0.4,3,0.4c1.2,0,2.3,0,3.3-0.2c1-0.1,2-0.2,3-0.4c0.3,0,0.5-0.1,0.6-0.3c0.1-0.1,0.2-0.3,0.2-0.5V221
			c0-0.2-0.1-0.3-0.2-0.4c-0.1-0.1-0.3-0.1-0.4-0.1h-0.2c-0.9,0.1-1.8,0.2-3,0.3c-1.2,0.1-2.3,0.1-3.3,0.1c-1.6,0-2.9-0.4-3.7-1.3
			c-0.8-0.9-1.2-2.4-1.2-4.5v-0.5h11.9c0.4,0,0.7-0.2,0.7-0.8v-1.9C737.6,210.6,737.4,209.5,737.1,208.4 M734.4,212.2H725v-0.3
			c0-2,0.4-3.3,1.2-4.2c0.8-0.9,2-1.4,3.5-1.4c1.5,0,2.7,0.4,3.5,1.3c0.8,0.9,1.1,2.3,1.1,4.3V212.2z"/>
		<path id="XMLID_250_" class="st0" d="M753.4,215.7c-0.6-0.8-1.6-1.7-3.1-2.6l-3.5-2.1c-0.8-0.5-1.4-0.9-1.8-1.3
			c-0.4-0.4-0.6-0.9-0.6-1.4c0-0.9,0.3-1.5,0.9-1.7c0.6-0.2,1.4-0.3,2.4-0.3c1,0,2,0,3.1,0.1c1,0.1,1.8,0.2,2.5,0.2h0.1
			c0.4,0,0.6-0.2,0.6-0.6v-1.2c0-0.4-0.2-0.7-0.7-0.7c-0.8-0.2-1.7-0.3-2.6-0.4c-0.9-0.1-1.9-0.1-2.9-0.1c-0.9,0-1.8,0.1-2.6,0.2
			c-0.8,0.2-1.5,0.4-2,0.8c-0.6,0.4-1,0.9-1.3,1.5c-0.3,0.6-0.5,1.4-0.5,2.3c0,1.1,0.3,2.1,1,2.9c0.7,0.8,1.5,1.5,2.6,2.2l3.6,2.2
			c1,0.6,1.8,1.1,2.1,1.5c0.4,0.4,0.6,0.9,0.6,1.4c0,1-0.3,1.6-0.9,2c-0.6,0.4-1.5,0.5-2.6,0.5c-0.3,0-0.7,0-1.1,0
			c-0.5,0-0.9,0-1.5-0.1c-0.5,0-1.1-0.1-1.5-0.1c-0.5,0-1-0.1-1.4-0.1h-0.1c-0.2,0-0.4,0-0.5,0.1c-0.1,0.1-0.2,0.2-0.2,0.4v1.2
			c0,0.4,0.2,0.6,0.7,0.7c0.4,0.1,0.9,0.2,1.4,0.2c0.5,0.1,1.1,0.1,1.5,0.2c0.5,0,1,0.1,1.5,0.1c0.4,0,0.9,0,1.2,0
			c1,0,1.9-0.1,2.7-0.3c0.8-0.2,1.5-0.5,2.1-0.9c0.6-0.4,1-1,1.3-1.6c0.3-0.6,0.5-1.4,0.5-2.3C754.3,217.4,754,216.5,753.4,215.7"/>
		<path id="XMLID_249_" class="st0" d="M364.5,201.2v2.6h3.9c0.2,0,0.3,0.1,0.4,0.2c0.1,0.1,0.2,0.2,0.2,0.4v1
			c0,0.3-0.2,0.5-0.6,0.6h-3.9v16.6c0,0.2,0,0.4-0.2,0.5c-0.2,0.1-0.3,0.2-0.5,0.2h-1.8c-0.2,0-0.4-0.1-0.5-0.2
			c-0.2-0.2-0.2-0.3-0.2-0.5V206h-3.5c-0.4,0-0.7-0.2-0.7-0.6v-1c0-0.2,0.1-0.3,0.2-0.4c0.1-0.1,0.3-0.2,0.5-0.2h3.5v-2.6
			c0-0.9,0.1-1.7,0.3-2.4c0.2-0.7,0.5-1.1,1-1.5c0.4-0.4,0.9-0.7,1.5-0.8c0.6-0.2,1.3-0.2,2.1-0.2c0.5,0,0.9,0,1.2,0.1
			c0.3,0,0.6,0.1,0.8,0.1c0.4,0.1,0.7,0.3,0.7,0.6v1.2c0,0.4-0.2,0.5-0.6,0.5h-1.7c-0.9,0-1.4,0.2-1.7,0.5
			C364.7,199.6,364.5,200.3,364.5,201.2"/>
	</g>
	<g id="XMLID_177_">
		<g id="XMLID_178_">
			<linearGradient id="XMLID_54_" gradientUnits="userSpaceOnUse" x1="230.3546" y1="292.8199" x2="-57.4372" y2="96.7313">
				<stop  offset="2.066799e-05" style="stop-color:#464D9F"/>
				<stop  offset="0.5677" style="stop-color:#0BAADD"/>
				<stop  offset="0.6089" style="stop-color:#23A8C8"/>
				<stop  offset="0.6666" style="stop-color:#2FA6B0"/>
				<stop  offset="0.7265" style="stop-color:#35A49C"/>
				<stop  offset="0.7881" style="stop-color:#39A28D"/>
				<stop  offset="0.8523" style="stop-color:#3BA183"/>
				<stop  offset="0.9205" style="stop-color:#3CA17D"/>
				<stop  offset="1" style="stop-color:#3CA17B"/>
			</linearGradient>
			<path id="XMLID_247_" class="st1" d="M112.1,218.3L112.1,218.3L112.1,218.3c-3.1-0.4-5.3-3.2-4.9-6.3l0,0
				c0.4-3.1,3.2-5.3,6.3-4.9l0,0c3.1,0.4,5.3,3.2,4.9,6.3l0,0c-0.4,2.9-2.8,5-5.6,5l0,0C112.5,218.3,112.3,218.3,112.1,218.3z"/>
			<linearGradient id="XMLID_55_" gradientUnits="userSpaceOnUse" x1="237.6411" y1="282.1259" x2="-50.1507" y2="86.0372">
				<stop  offset="2.066799e-05" style="stop-color:#464D9F"/>
				<stop  offset="0.5677" style="stop-color:#0BAADD"/>
				<stop  offset="0.6089" style="stop-color:#23A8C8"/>
				<stop  offset="0.6666" style="stop-color:#2FA6B0"/>
				<stop  offset="0.7265" style="stop-color:#35A49C"/>
				<stop  offset="0.7881" style="stop-color:#39A28D"/>
				<stop  offset="0.8523" style="stop-color:#3BA183"/>
				<stop  offset="0.9205" style="stop-color:#3CA17D"/>
				<stop  offset="1" style="stop-color:#3CA17B"/>
			</linearGradient>
			<path id="XMLID_246_" class="st2" d="M129.1,213c-0.6-3,1.4-6,4.4-6.6l0,0c3-0.6,6,1.4,6.6,4.4l0,0c0.6,3-1.4,6-4.4,6.6l0,0
				c-0.4,0.1-0.7,0.1-1.1,0.1l0,0C132,217.5,129.6,215.7,129.1,213z"/>
			<linearGradient id="XMLID_56_" gradientUnits="userSpaceOnUse" x1="226.4624" y1="298.5323" x2="-61.3294" y2="102.4437">
				<stop  offset="2.066799e-05" style="stop-color:#464D9F"/>
				<stop  offset="0.5677" style="stop-color:#0BAADD"/>
				<stop  offset="0.6089" style="stop-color:#23A8C8"/>
				<stop  offset="0.6666" style="stop-color:#2FA6B0"/>
				<stop  offset="0.7265" style="stop-color:#35A49C"/>
				<stop  offset="0.7881" style="stop-color:#39A28D"/>
				<stop  offset="0.8523" style="stop-color:#3BA183"/>
				<stop  offset="0.9205" style="stop-color:#3CA17D"/>
				<stop  offset="1" style="stop-color:#3CA17B"/>
			</linearGradient>
			<path id="XMLID_245_" class="st3" d="M89.4,211.8c-2.8-1.3-4-4.7-2.7-7.5l0,0c1.3-2.8,4.7-4,7.5-2.7l0,0c2.8,1.3,4,4.7,2.7,7.5
				l0,0c-1,2.1-3,3.3-5.1,3.3l0,0C91,212.4,90.2,212.2,89.4,211.8z"/>
			<linearGradient id="XMLID_57_" gradientUnits="userSpaceOnUse" x1="247.639" y1="267.4522" x2="-40.1528" y2="71.3636">
				<stop  offset="2.066799e-05" style="stop-color:#464D9F"/>
				<stop  offset="0.5677" style="stop-color:#0BAADD"/>
				<stop  offset="0.6089" style="stop-color:#23A8C8"/>
				<stop  offset="0.6666" style="stop-color:#2FA6B0"/>
				<stop  offset="0.7265" style="stop-color:#35A49C"/>
				<stop  offset="0.7881" style="stop-color:#39A28D"/>
				<stop  offset="0.8523" style="stop-color:#3BA183"/>
				<stop  offset="0.9205" style="stop-color:#3CA17D"/>
				<stop  offset="1" style="stop-color:#3CA17B"/>
			</linearGradient>
			<path id="XMLID_244_" class="st4" d="M150.2,207.1c-1.5-2.7-0.5-6.1,2.2-7.6l0,0c2.7-1.5,6.1-0.5,7.6,2.2l0,0
				c1.5,2.7,0.5,6.1-2.2,7.7l0,0c-0.9,0.5-1.8,0.7-2.7,0.7l0,0C153.1,210,151.2,209,150.2,207.1z"/>
			<linearGradient id="XMLID_58_" gradientUnits="userSpaceOnUse" x1="226.3839" y1="298.6475" x2="-61.4079" y2="102.5589">
				<stop  offset="2.066799e-05" style="stop-color:#464D9F"/>
				<stop  offset="0.5677" style="stop-color:#0BAADD"/>
				<stop  offset="0.6089" style="stop-color:#23A8C8"/>
				<stop  offset="0.6666" style="stop-color:#2FA6B0"/>
				<stop  offset="0.7265" style="stop-color:#35A49C"/>
				<stop  offset="0.7881" style="stop-color:#39A28D"/>
				<stop  offset="0.8523" style="stop-color:#3BA183"/>
				<stop  offset="0.9205" style="stop-color:#3CA17D"/>
				<stop  offset="1" style="stop-color:#3CA17B"/>
			</linearGradient>
			<path id="XMLID_243_" class="st5" d="M69.8,198.7L69.8,198.7L69.8,198.7c-2.3-2.1-2.4-5.7-0.3-7.9l0,0c2.1-2.3,5.7-2.4,7.9-0.3
				l0,0c2.3,2.1,2.4,5.7,0.3,8l0,0c-1.1,1.2-2.6,1.8-4.1,1.8l0,0C72.3,200.2,70.9,199.7,69.8,198.7z"/>
			<linearGradient id="XMLID_59_" gradientUnits="userSpaceOnUse" x1="259.3516" y1="250.2621" x2="-28.4402" y2="54.1735">
				<stop  offset="2.066799e-05" style="stop-color:#464D9F"/>
				<stop  offset="0.5677" style="stop-color:#0BAADD"/>
				<stop  offset="0.6089" style="stop-color:#23A8C8"/>
				<stop  offset="0.6666" style="stop-color:#2FA6B0"/>
				<stop  offset="0.7265" style="stop-color:#35A49C"/>
				<stop  offset="0.7881" style="stop-color:#39A28D"/>
				<stop  offset="0.8523" style="stop-color:#3BA183"/>
				<stop  offset="0.9205" style="stop-color:#3CA17D"/>
				<stop  offset="1" style="stop-color:#3CA17B"/>
			</linearGradient>
			<path id="XMLID_242_" class="st6" d="M168.4,195c-2.3-2.1-2.4-5.7-0.3-7.9l0,0c2.1-2.3,5.7-2.4,7.9-0.3l0,0
				c2.3,2.1,2.4,5.7,0.3,7.9l0,0c-1.1,1.2-2.6,1.8-4.1,1.8l0,0C170.9,196.5,169.5,196,168.4,195z"/>
			<linearGradient id="XMLID_60_" gradientUnits="userSpaceOnUse" x1="264.8391" y1="242.2083" x2="-22.9527" y2="46.1197">
				<stop  offset="2.066799e-05" style="stop-color:#464D9F"/>
				<stop  offset="0.5677" style="stop-color:#0BAADD"/>
				<stop  offset="0.6089" style="stop-color:#23A8C8"/>
				<stop  offset="0.6666" style="stop-color:#2FA6B0"/>
				<stop  offset="0.7265" style="stop-color:#35A49C"/>
				<stop  offset="0.7881" style="stop-color:#39A28D"/>
				<stop  offset="0.8523" style="stop-color:#3BA183"/>
				<stop  offset="0.9205" style="stop-color:#3CA17D"/>
				<stop  offset="1" style="stop-color:#3CA17B"/>
			</linearGradient>
			<path id="XMLID_241_" class="st7" d="M213.8,214.1c-2.3-2.1-2.4-5.7-0.3-7.9l0,0c2.1-2.3,5.7-2.4,7.9-0.3l0,0
				c2.3,2.1,2.4,5.7,0.3,7.9l0,0c-1.1,1.2-2.6,1.8-4.1,1.8l0,0C216.2,215.6,214.8,215.1,213.8,214.1z"/>
			<linearGradient id="XMLID_61_" gradientUnits="userSpaceOnUse" x1="230.099" y1="293.1951" x2="-57.6928" y2="97.1065">
				<stop  offset="2.066799e-05" style="stop-color:#464D9F"/>
				<stop  offset="0.5677" style="stop-color:#0BAADD"/>
				<stop  offset="0.6089" style="stop-color:#23A8C8"/>
				<stop  offset="0.6666" style="stop-color:#2FA6B0"/>
				<stop  offset="0.7265" style="stop-color:#35A49C"/>
				<stop  offset="0.7881" style="stop-color:#39A28D"/>
				<stop  offset="0.8523" style="stop-color:#3BA183"/>
				<stop  offset="0.9205" style="stop-color:#3CA17D"/>
				<stop  offset="1" style="stop-color:#3CA17B"/>
			</linearGradient>
			<path id="XMLID_240_" class="st8" d="M55.2,180.1c-1.5-2.7-0.5-6.1,2.2-7.6l0,0c2.7-1.5,6.1-0.5,7.7,2.2l0,0
				c1.5,2.7,0.5,6.1-2.2,7.6l0,0c-0.9,0.5-1.8,0.7-2.7,0.7l0,0C58.2,183,56.3,182,55.2,180.1z"/>
			<linearGradient id="XMLID_62_" gradientUnits="userSpaceOnUse" x1="271.6485" y1="232.2144" x2="-16.1433" y2="36.1257">
				<stop  offset="2.066799e-05" style="stop-color:#464D9F"/>
				<stop  offset="0.5677" style="stop-color:#0BAADD"/>
				<stop  offset="0.6089" style="stop-color:#23A8C8"/>
				<stop  offset="0.6666" style="stop-color:#2FA6B0"/>
				<stop  offset="0.7265" style="stop-color:#35A49C"/>
				<stop  offset="0.7881" style="stop-color:#39A28D"/>
				<stop  offset="0.8523" style="stop-color:#3BA183"/>
				<stop  offset="0.9205" style="stop-color:#3CA17D"/>
				<stop  offset="1" style="stop-color:#3CA17B"/>
			</linearGradient>
			<path id="XMLID_239_" class="st9" d="M182.1,177.9c-2.8-1.3-4-4.7-2.7-7.5l0,0c1.3-2.8,4.7-4,7.5-2.7l0,0c2.8,1.3,4,4.7,2.7,7.5
				l0,0c-0.9,2.1-3,3.2-5.1,3.2l0,0C183.7,178.4,182.9,178.3,182.1,177.9z"/>
			<linearGradient id="XMLID_63_" gradientUnits="userSpaceOnUse" x1="237.2419" y1="282.7118" x2="-50.5499" y2="86.6231">
				<stop  offset="2.066799e-05" style="stop-color:#464D9F"/>
				<stop  offset="0.5677" style="stop-color:#0BAADD"/>
				<stop  offset="0.6089" style="stop-color:#23A8C8"/>
				<stop  offset="0.6666" style="stop-color:#2FA6B0"/>
				<stop  offset="0.7265" style="stop-color:#35A49C"/>
				<stop  offset="0.7881" style="stop-color:#39A28D"/>
				<stop  offset="0.8523" style="stop-color:#3BA183"/>
				<stop  offset="0.9205" style="stop-color:#3CA17D"/>
				<stop  offset="1" style="stop-color:#3CA17B"/>
			</linearGradient>
			<path id="XMLID_238_" class="st10" d="M47.1,158c-0.6-3,1.4-6,4.4-6.6l0,0c3-0.6,6,1.4,6.6,4.4l0,0c0.6,3-1.4,6-4.4,6.6l0,0
				c-0.4,0.1-0.7,0.1-1.1,0.1l0,0C50,162.5,47.6,160.7,47.1,158z"/>
			<linearGradient id="XMLID_64_" gradientUnits="userSpaceOnUse" x1="283.3703" y1="215.0108" x2="-4.4215" y2="18.9222">
				<stop  offset="2.066799e-05" style="stop-color:#464D9F"/>
				<stop  offset="0.5677" style="stop-color:#0BAADD"/>
				<stop  offset="0.6089" style="stop-color:#23A8C8"/>
				<stop  offset="0.6666" style="stop-color:#2FA6B0"/>
				<stop  offset="0.7265" style="stop-color:#35A49C"/>
				<stop  offset="0.7881" style="stop-color:#39A28D"/>
				<stop  offset="0.8523" style="stop-color:#3BA183"/>
				<stop  offset="0.9205" style="stop-color:#3CA17D"/>
				<stop  offset="1" style="stop-color:#3CA17B"/>
			</linearGradient>
			<path id="XMLID_237_" class="st11" d="M189.7,157.4c-3.1-0.4-5.3-3.2-4.9-6.3l0,0c0,0,0-0.1,0-0.1l0,0c0,0,0-0.1,0-0.1l0,0
				c0.4-3.1,3.2-5.3,6.2-4.9l0,0c3.1,0.4,5.3,3.1,4.9,6.2l0,0l0,0l0,0c0,0,0,0.1,0,0.1l0,0c0,0,0,0.1,0,0.2l0,0
				c-0.4,2.9-2.8,4.9-5.6,4.9l0,0C190.2,157.4,190,157.4,189.7,157.4z"/>
			<linearGradient id="XMLID_65_" gradientUnits="userSpaceOnUse" x1="247.1395" y1="268.1854" x2="-40.6523" y2="72.0968">
				<stop  offset="2.066799e-05" style="stop-color:#464D9F"/>
				<stop  offset="0.5677" style="stop-color:#0BAADD"/>
				<stop  offset="0.6089" style="stop-color:#23A8C8"/>
				<stop  offset="0.6666" style="stop-color:#2FA6B0"/>
				<stop  offset="0.7265" style="stop-color:#35A49C"/>
				<stop  offset="0.7881" style="stop-color:#39A28D"/>
				<stop  offset="0.8523" style="stop-color:#3BA183"/>
				<stop  offset="0.9205" style="stop-color:#3CA17D"/>
				<stop  offset="1" style="stop-color:#3CA17B"/>
			</linearGradient>
			<path id="XMLID_236_" class="st12" d="M51.1,140.7c-3.1-0.4-5.3-3.2-4.9-6.3l0,0c0,0,0,0,0,0l0,0c0.4-3.1,3.2-5.3,6.3-4.9l0,0
				c3.1,0.4,5.3,3.2,4.9,6.3l0,0c-0.4,2.9-2.8,4.9-5.6,4.9l0,0C51.6,140.7,51.4,140.7,51.1,140.7z"/>
			<linearGradient id="XMLID_66_" gradientUnits="userSpaceOnUse" x1="293.314" y1="200.4168" x2="5.5222" y2="4.3282">
				<stop  offset="2.066799e-05" style="stop-color:#464D9F"/>
				<stop  offset="0.5677" style="stop-color:#0BAADD"/>
				<stop  offset="0.6089" style="stop-color:#23A8C8"/>
				<stop  offset="0.6666" style="stop-color:#2FA6B0"/>
				<stop  offset="0.7265" style="stop-color:#35A49C"/>
				<stop  offset="0.7881" style="stop-color:#39A28D"/>
				<stop  offset="0.8523" style="stop-color:#3BA183"/>
				<stop  offset="0.9205" style="stop-color:#3CA17D"/>
				<stop  offset="1" style="stop-color:#3CA17B"/>
			</linearGradient>
			<path id="XMLID_235_" class="st13" d="M184.1,130.8c-0.6-3,1.4-6,4.4-6.6l0,0c3-0.6,6,1.4,6.6,4.4l0,0l0,0l0,0
				c0.6,3-1.4,6-4.4,6.6l0,0c-0.4,0.1-0.7,0.1-1.1,0.1l0,0C187,135.4,184.6,133.5,184.1,130.8z"/>
			<linearGradient id="XMLID_67_" gradientUnits="userSpaceOnUse" x1="258.8017" y1="251.0692" x2="-28.9901" y2="54.9806">
				<stop  offset="2.066799e-05" style="stop-color:#464D9F"/>
				<stop  offset="0.5677" style="stop-color:#0BAADD"/>
				<stop  offset="0.6089" style="stop-color:#23A8C8"/>
				<stop  offset="0.6666" style="stop-color:#2FA6B0"/>
				<stop  offset="0.7265" style="stop-color:#35A49C"/>
				<stop  offset="0.7881" style="stop-color:#39A28D"/>
				<stop  offset="0.8523" style="stop-color:#3BA183"/>
				<stop  offset="0.9205" style="stop-color:#3CA17D"/>
				<stop  offset="1" style="stop-color:#3CA17B"/>
			</linearGradient>
			<path id="XMLID_234_" class="st14" d="M55.4,119.2c-2.8-1.3-4-4.6-2.7-7.4l0,0c1.3-2.8,4.6-4,7.5-2.8l0,0c2.8,1.3,4,4.7,2.7,7.5
				l0,0c-0.9,2.1-3,3.3-5.1,3.3l0,0C57,119.7,56.2,119.5,55.4,119.2z"/>
			<linearGradient id="XMLID_68_" gradientUnits="userSpaceOnUse" x1="300.4437" y1="189.9529" x2="12.6519" y2="-6.1358">
				<stop  offset="2.066799e-05" style="stop-color:#464D9F"/>
				<stop  offset="0.5677" style="stop-color:#0BAADD"/>
				<stop  offset="0.6089" style="stop-color:#23A8C8"/>
				<stop  offset="0.6666" style="stop-color:#2FA6B0"/>
				<stop  offset="0.7265" style="stop-color:#35A49C"/>
				<stop  offset="0.7881" style="stop-color:#39A28D"/>
				<stop  offset="0.8523" style="stop-color:#3BA183"/>
				<stop  offset="0.9205" style="stop-color:#3CA17D"/>
				<stop  offset="1" style="stop-color:#3CA17B"/>
			</linearGradient>
			<path id="XMLID_233_" class="st15" d="M177.1,112L177.1,112c-1.5-2.7-0.6-6.1,2.1-7.7l0,0c2.7-1.5,6.1-0.6,7.7,2.2l0,0
				c1.5,2.7,0.5,6.1-2.2,7.7l0,0c-0.9,0.5-1.8,0.7-2.7,0.7l0,0C180.1,114.9,178.2,113.9,177.1,112z"/>
			<linearGradient id="XMLID_69_" gradientUnits="userSpaceOnUse" x1="271.0955" y1="233.0261" x2="-16.6963" y2="36.9375">
				<stop  offset="2.066799e-05" style="stop-color:#464D9F"/>
				<stop  offset="0.5677" style="stop-color:#0BAADD"/>
				<stop  offset="0.6089" style="stop-color:#23A8C8"/>
				<stop  offset="0.6666" style="stop-color:#2FA6B0"/>
				<stop  offset="0.7265" style="stop-color:#35A49C"/>
				<stop  offset="0.7881" style="stop-color:#39A28D"/>
				<stop  offset="0.8523" style="stop-color:#3BA183"/>
				<stop  offset="0.9205" style="stop-color:#3CA17D"/>
				<stop  offset="1" style="stop-color:#3CA17B"/>
			</linearGradient>
			<path id="XMLID_232_" class="st16" d="M66.1,100.1c-2.3-2.1-2.4-5.7-0.3-7.9l0,0c2.1-2.3,5.7-2.4,8-0.3l0,0
				c2.3,2.1,2.4,5.7,0.3,7.9l0,0c-1.1,1.2-2.6,1.8-4.1,1.8l0,0C68.5,101.6,67.2,101.1,66.1,100.1z"/>
			<linearGradient id="XMLID_70_" gradientUnits="userSpaceOnUse" x1="304.1381" y1="184.5308" x2="16.3463" y2="-11.5579">
				<stop  offset="2.066799e-05" style="stop-color:#464D9F"/>
				<stop  offset="0.5677" style="stop-color:#0BAADD"/>
				<stop  offset="0.6089" style="stop-color:#23A8C8"/>
				<stop  offset="0.6666" style="stop-color:#2FA6B0"/>
				<stop  offset="0.7265" style="stop-color:#35A49C"/>
				<stop  offset="0.7881" style="stop-color:#39A28D"/>
				<stop  offset="0.8523" style="stop-color:#3BA183"/>
				<stop  offset="0.9205" style="stop-color:#3CA17D"/>
				<stop  offset="1" style="stop-color:#3CA17B"/>
			</linearGradient>
			<path id="XMLID_231_" class="st17" d="M164.7,96.3L164.7,96.3c-2.3-2.1-2.4-5.7-0.3-7.9l0,0c2.1-2.3,5.7-2.4,8-0.3l0,0
				c2.3,2.1,2.4,5.7,0.3,7.9l0,0c-1.1,1.2-2.6,1.8-4.1,1.8l0,0C167.1,97.7,165.8,97.3,164.7,96.3z"/>
			<linearGradient id="XMLID_71_" gradientUnits="userSpaceOnUse" x1="282.8161" y1="215.8241" x2="-4.9757" y2="19.7355">
				<stop  offset="2.066799e-05" style="stop-color:#464D9F"/>
				<stop  offset="0.5677" style="stop-color:#0BAADD"/>
				<stop  offset="0.6089" style="stop-color:#23A8C8"/>
				<stop  offset="0.6666" style="stop-color:#2FA6B0"/>
				<stop  offset="0.7265" style="stop-color:#35A49C"/>
				<stop  offset="0.7881" style="stop-color:#39A28D"/>
				<stop  offset="0.8523" style="stop-color:#3BA183"/>
				<stop  offset="0.9205" style="stop-color:#3CA17D"/>
				<stop  offset="1" style="stop-color:#3CA17B"/>
			</linearGradient>
			<path id="XMLID_230_" class="st18" d="M82.2,85.2c-1.5-2.7-0.5-6.1,2.1-7.6l0,0C87,76,90.4,77,92,79.7l0,0
				c1.5,2.7,0.5,6.1-2.2,7.6l0,0c-0.9,0.5-1.8,0.7-2.7,0.7l0,0C85.1,88.1,83.2,87,82.2,85.2z"/>
			<linearGradient id="XMLID_72_" gradientUnits="userSpaceOnUse" x1="304.0364" y1="184.6799" x2="16.2446" y2="-11.4087">
				<stop  offset="2.066799e-05" style="stop-color:#464D9F"/>
				<stop  offset="0.5677" style="stop-color:#0BAADD"/>
				<stop  offset="0.6089" style="stop-color:#23A8C8"/>
				<stop  offset="0.6666" style="stop-color:#2FA6B0"/>
				<stop  offset="0.7265" style="stop-color:#35A49C"/>
				<stop  offset="0.7881" style="stop-color:#39A28D"/>
				<stop  offset="0.8523" style="stop-color:#3BA183"/>
				<stop  offset="0.9205" style="stop-color:#3CA17D"/>
				<stop  offset="1" style="stop-color:#3CA17B"/>
			</linearGradient>
			<path id="XMLID_229_" class="st19" d="M148,85.1c-2.8-1.3-4-4.6-2.8-7.5l0,0c1.3-2.8,4.7-4,7.5-2.7l0,0c2.8,1.3,4,4.6,2.8,7.4
				l0,0c-1,2.1-3,3.3-5.1,3.3l0,0C149.6,85.6,148.8,85.4,148,85.1z"/>
			<linearGradient id="XMLID_73_" gradientUnits="userSpaceOnUse" x1="292.8257" y1="201.1336" x2="5.0338" y2="5.0449">
				<stop  offset="2.066799e-05" style="stop-color:#464D9F"/>
				<stop  offset="0.5677" style="stop-color:#0BAADD"/>
				<stop  offset="0.6089" style="stop-color:#23A8C8"/>
				<stop  offset="0.6666" style="stop-color:#2FA6B0"/>
				<stop  offset="0.7265" style="stop-color:#35A49C"/>
				<stop  offset="0.7881" style="stop-color:#39A28D"/>
				<stop  offset="0.8523" style="stop-color:#3BA183"/>
				<stop  offset="0.9205" style="stop-color:#3CA17D"/>
				<stop  offset="1" style="stop-color:#3CA17B"/>
			</linearGradient>
			<path id="XMLID_228_" class="st20" d="M102,76c-0.6-3,1.4-6,4.4-6.6l0,0c3-0.6,6,1.4,6.6,4.4l0,0c0.6,3-1.4,6-4.4,6.6l0,0
				c-0.4,0.1-0.7,0.1-1.1,0.1l0,0C104.9,80.5,102.6,78.7,102,76z"/>
			<linearGradient id="XMLID_74_" gradientUnits="userSpaceOnUse" x1="300.1245" y1="190.4212" x2="12.3328" y2="-5.6674">
				<stop  offset="2.066799e-05" style="stop-color:#464D9F"/>
				<stop  offset="0.5677" style="stop-color:#0BAADD"/>
				<stop  offset="0.6089" style="stop-color:#23A8C8"/>
				<stop  offset="0.6666" style="stop-color:#2FA6B0"/>
				<stop  offset="0.7265" style="stop-color:#35A49C"/>
				<stop  offset="0.7881" style="stop-color:#39A28D"/>
				<stop  offset="0.8523" style="stop-color:#3BA183"/>
				<stop  offset="0.9205" style="stop-color:#3CA17D"/>
				<stop  offset="1" style="stop-color:#3CA17B"/>
			</linearGradient>
			<path id="XMLID_227_" class="st21" d="M128.7,79.6c-3.1-0.4-5.3-3.2-4.9-6.3l0,0c0.4-3.1,3.2-5.3,6.3-4.9l0,0
				c3.1,0.4,5.3,3.2,4.9,6.2l0,0c-0.4,2.9-2.8,5-5.6,5l0,0C129.1,79.7,128.9,79.7,128.7,79.6z"/>
			<linearGradient id="XMLID_75_" gradientUnits="userSpaceOnUse" x1="220.8118" y1="306.8255" x2="-66.98" y2="110.7369">
				<stop  offset="2.066799e-05" style="stop-color:#464D9F"/>
				<stop  offset="0.5677" style="stop-color:#0BAADD"/>
				<stop  offset="0.6089" style="stop-color:#23A8C8"/>
				<stop  offset="0.6666" style="stop-color:#2FA6B0"/>
				<stop  offset="0.7265" style="stop-color:#35A49C"/>
				<stop  offset="0.7881" style="stop-color:#39A28D"/>
				<stop  offset="0.8523" style="stop-color:#3BA183"/>
				<stop  offset="0.9205" style="stop-color:#3CA17D"/>
				<stop  offset="1" style="stop-color:#3CA17B"/>
			</linearGradient>
			<path id="XMLID_226_" class="st22" d="M116.7,241.6c-3.1-0.1-5.5-2.8-5.4-5.9l0,0c0.1-3.1,2.8-5.5,5.9-5.4l0,0
				c3.1,0.1,5.5,2.8,5.4,5.9l0,0c-0.1,3-2.6,5.4-5.6,5.4l0,0C116.8,241.6,116.7,241.6,116.7,241.6z"/>
			<linearGradient id="XMLID_76_" gradientUnits="userSpaceOnUse" x1="228.6597" y1="295.3074" x2="-59.1321" y2="99.2188">
				<stop  offset="2.066799e-05" style="stop-color:#464D9F"/>
				<stop  offset="0.5677" style="stop-color:#0BAADD"/>
				<stop  offset="0.6089" style="stop-color:#23A8C8"/>
				<stop  offset="0.6666" style="stop-color:#2FA6B0"/>
				<stop  offset="0.7265" style="stop-color:#35A49C"/>
				<stop  offset="0.7881" style="stop-color:#39A28D"/>
				<stop  offset="0.8523" style="stop-color:#3BA183"/>
				<stop  offset="0.9205" style="stop-color:#3CA17D"/>
				<stop  offset="1" style="stop-color:#3CA17B"/>
			</linearGradient>
			<path id="XMLID_225_" class="st23" d="M133.7,235.4c-0.6-3,1.4-6,4.4-6.6l0,0c3-0.6,6,1.4,6.6,4.4l0,0c0.6,3-1.4,6-4.4,6.6l0,0
				c-0.4,0.1-0.7,0.1-1.1,0.1l0,0C136.5,240,134.2,238.1,133.7,235.4z"/>
			<linearGradient id="XMLID_77_" gradientUnits="userSpaceOnUse" x1="215.5343" y1="314.571" x2="-72.2575" y2="118.4824">
				<stop  offset="2.066799e-05" style="stop-color:#464D9F"/>
				<stop  offset="0.5677" style="stop-color:#0BAADD"/>
				<stop  offset="0.6089" style="stop-color:#23A8C8"/>
				<stop  offset="0.6666" style="stop-color:#2FA6B0"/>
				<stop  offset="0.7265" style="stop-color:#35A49C"/>
				<stop  offset="0.7881" style="stop-color:#39A28D"/>
				<stop  offset="0.8523" style="stop-color:#3BA183"/>
				<stop  offset="0.9205" style="stop-color:#3CA17D"/>
				<stop  offset="1" style="stop-color:#3CA17B"/>
			</linearGradient>
			<path id="XMLID_224_" class="st24" d="M93.3,237.7L93.3,237.7L93.3,237.7c-3-0.9-4.7-4-3.8-7l0,0c0.9-3,4-4.7,7-3.8l0,0
				c3,0.9,4.7,4,3.8,7l0,0c-0.7,2.4-3,4-5.4,4l0,0C94.3,238,93.8,237.9,93.3,237.7z"/>
			<linearGradient id="XMLID_78_" gradientUnits="userSpaceOnUse" x1="238.6246" y1="280.6823" x2="-49.1671" y2="84.5937">
				<stop  offset="2.066799e-05" style="stop-color:#464D9F"/>
				<stop  offset="0.5677" style="stop-color:#0BAADD"/>
				<stop  offset="0.6089" style="stop-color:#23A8C8"/>
				<stop  offset="0.6666" style="stop-color:#2FA6B0"/>
				<stop  offset="0.7265" style="stop-color:#35A49C"/>
				<stop  offset="0.7881" style="stop-color:#39A28D"/>
				<stop  offset="0.8523" style="stop-color:#3BA183"/>
				<stop  offset="0.9205" style="stop-color:#3CA17D"/>
				<stop  offset="1" style="stop-color:#3CA17B"/>
			</linearGradient>
			<path id="XMLID_223_" class="st25" d="M155.3,229.8c-1.3-2.8-0.1-6.2,2.7-7.5l0,0c2.8-1.3,6.2-0.1,7.5,2.7l0,0
				c1.3,2.8,0.1,6.2-2.7,7.5l0,0c-0.8,0.4-1.6,0.5-2.4,0.5l0,0C158.3,233,156.3,231.8,155.3,229.8z"/>
			<linearGradient id="XMLID_79_" gradientUnits="userSpaceOnUse" x1="213.1658" y1="318.0473" x2="-74.626" y2="121.9586">
				<stop  offset="2.066799e-05" style="stop-color:#464D9F"/>
				<stop  offset="0.5677" style="stop-color:#0BAADD"/>
				<stop  offset="0.6089" style="stop-color:#23A8C8"/>
				<stop  offset="0.6666" style="stop-color:#2FA6B0"/>
				<stop  offset="0.7265" style="stop-color:#35A49C"/>
				<stop  offset="0.7881" style="stop-color:#39A28D"/>
				<stop  offset="0.8523" style="stop-color:#3BA183"/>
				<stop  offset="0.9205" style="stop-color:#3CA17D"/>
				<stop  offset="1" style="stop-color:#3CA17B"/>
			</linearGradient>
			<path id="XMLID_222_" class="st26" d="M71.5,228.3L71.5,228.3L71.5,228.3c-2.7-1.6-3.6-5-2-7.7l0,0c1.6-2.7,5-3.6,7.7-2l0,0
				c2.7,1.6,3.6,5,2,7.7l0,0c-1,1.8-2.9,2.8-4.9,2.8l0,0C73.4,229.1,72.4,228.8,71.5,228.3z"/>
			<linearGradient id="XMLID_80_" gradientUnits="userSpaceOnUse" x1="250.1421" y1="263.7785" x2="-37.6497" y2="67.6899">
				<stop  offset="2.066799e-05" style="stop-color:#464D9F"/>
				<stop  offset="0.5677" style="stop-color:#0BAADD"/>
				<stop  offset="0.6089" style="stop-color:#23A8C8"/>
				<stop  offset="0.6666" style="stop-color:#2FA6B0"/>
				<stop  offset="0.7265" style="stop-color:#35A49C"/>
				<stop  offset="0.7881" style="stop-color:#39A28D"/>
				<stop  offset="0.8523" style="stop-color:#3BA183"/>
				<stop  offset="0.9205" style="stop-color:#3CA17D"/>
				<stop  offset="1" style="stop-color:#3CA17B"/>
			</linearGradient>
			<path id="XMLID_221_" class="st27" d="M175,219.1c-2-2.4-1.6-6,0.8-7.9l0,0c2.4-1.9,5.9-1.6,7.9,0.8l0,0c2,2.4,1.6,6-0.8,7.9l0,0
				l0,0l0,0c-1,0.8-2.3,1.3-3.5,1.3l0,0C177.7,221.2,176.1,220.5,175,219.1z"/>
			<linearGradient id="XMLID_81_" gradientUnits="userSpaceOnUse" x1="213.8161" y1="317.0928" x2="-73.9757" y2="121.0042">
				<stop  offset="2.066799e-05" style="stop-color:#464D9F"/>
				<stop  offset="0.5677" style="stop-color:#0BAADD"/>
				<stop  offset="0.6089" style="stop-color:#23A8C8"/>
				<stop  offset="0.6666" style="stop-color:#2FA6B0"/>
				<stop  offset="0.7265" style="stop-color:#35A49C"/>
				<stop  offset="0.7881" style="stop-color:#39A28D"/>
				<stop  offset="0.8523" style="stop-color:#3BA183"/>
				<stop  offset="0.9205" style="stop-color:#3CA17D"/>
				<stop  offset="1" style="stop-color:#3CA17B"/>
			</linearGradient>
			<path id="XMLID_220_" class="st28" d="M52.6,214L52.6,214L52.6,214c-2.2-2.2-2.3-5.7-0.1-7.9l0,0c2.2-2.2,5.7-2.3,8-0.1l0,0
				c2.2,2.2,2.3,5.7,0.1,8l0,0c-1.1,1.1-2.6,1.7-4,1.7l0,0C55.1,215.6,53.7,215,52.6,214z"/>
			<linearGradient id="XMLID_82_" gradientUnits="userSpaceOnUse" x1="262.5375" y1="245.5863" x2="-25.2543" y2="49.4976">
				<stop  offset="2.066799e-05" style="stop-color:#464D9F"/>
				<stop  offset="0.5677" style="stop-color:#0BAADD"/>
				<stop  offset="0.6089" style="stop-color:#23A8C8"/>
				<stop  offset="0.6666" style="stop-color:#2FA6B0"/>
				<stop  offset="0.7265" style="stop-color:#35A49C"/>
				<stop  offset="0.7881" style="stop-color:#39A28D"/>
				<stop  offset="0.8523" style="stop-color:#3BA183"/>
				<stop  offset="0.9205" style="stop-color:#3CA17D"/>
				<stop  offset="1" style="stop-color:#3CA17B"/>
			</linearGradient>
			<path id="XMLID_219_" class="st29" d="M191.5,204c-2.5-1.9-3-5.4-1.1-7.9l0,0c1.9-2.5,5.4-3,7.9-1.1l0,0c2.5,1.9,3,5.4,1.1,7.9
				l0,0c-1.1,1.5-2.8,2.2-4.5,2.2l0,0C193.7,205.1,192.5,204.8,191.5,204z"/>
			<linearGradient id="XMLID_83_" gradientUnits="userSpaceOnUse" x1="217.4391" y1="311.7755" x2="-70.3527" y2="115.6869">
				<stop  offset="2.066799e-05" style="stop-color:#464D9F"/>
				<stop  offset="0.5677" style="stop-color:#0BAADD"/>
				<stop  offset="0.6089" style="stop-color:#23A8C8"/>
				<stop  offset="0.6666" style="stop-color:#2FA6B0"/>
				<stop  offset="0.7265" style="stop-color:#35A49C"/>
				<stop  offset="0.7881" style="stop-color:#39A28D"/>
				<stop  offset="0.8523" style="stop-color:#3BA183"/>
				<stop  offset="0.9205" style="stop-color:#3CA17D"/>
				<stop  offset="1" style="stop-color:#3CA17B"/>
			</linearGradient>
			<path id="XMLID_218_" class="st30" d="M37.7,195.6c-1.6-2.6-0.9-6.1,1.8-7.8l0,0c2.6-1.6,6.1-0.9,7.8,1.8l0,0
				c1.6,2.6,0.8,6.1-1.8,7.7l0,0c-0.9,0.6-2,0.9-3,0.9l0,0C40.6,198.2,38.8,197.3,37.7,195.6z"/>
			<linearGradient id="XMLID_84_" gradientUnits="userSpaceOnUse" x1="275.0948" y1="227.1564" x2="-12.6969" y2="31.0677">
				<stop  offset="2.066799e-05" style="stop-color:#464D9F"/>
				<stop  offset="0.5677" style="stop-color:#0BAADD"/>
				<stop  offset="0.6089" style="stop-color:#23A8C8"/>
				<stop  offset="0.6666" style="stop-color:#2FA6B0"/>
				<stop  offset="0.7265" style="stop-color:#35A49C"/>
				<stop  offset="0.7881" style="stop-color:#39A28D"/>
				<stop  offset="0.8523" style="stop-color:#3BA183"/>
				<stop  offset="0.9205" style="stop-color:#3CA17D"/>
				<stop  offset="1" style="stop-color:#3CA17B"/>
			</linearGradient>
			<path id="XMLID_217_" class="st31" d="M204,185.4c-2.8-1.2-4.1-4.6-2.9-7.4l0,0c1.2-2.9,4.5-4.2,7.4-2.9l0,0
				c2.8,1.2,4.1,4.6,2.9,7.4l0,0c-0.9,2.1-3,3.4-5.2,3.4l0,0C205.5,185.9,204.7,185.7,204,185.4z"/>
			<linearGradient id="XMLID_85_" gradientUnits="userSpaceOnUse" x1="223.8487" y1="302.3683" x2="-63.9431" y2="106.2797">
				<stop  offset="2.066799e-05" style="stop-color:#464D9F"/>
				<stop  offset="0.5677" style="stop-color:#0BAADD"/>
				<stop  offset="0.6089" style="stop-color:#23A8C8"/>
				<stop  offset="0.6666" style="stop-color:#2FA6B0"/>
				<stop  offset="0.7265" style="stop-color:#35A49C"/>
				<stop  offset="0.7881" style="stop-color:#39A28D"/>
				<stop  offset="0.8523" style="stop-color:#3BA183"/>
				<stop  offset="0.9205" style="stop-color:#3CA17D"/>
				<stop  offset="1" style="stop-color:#3CA17B"/>
			</linearGradient>
			<path id="XMLID_216_" class="st32" d="M27.7,174.1c-1-3,0.6-6.1,3.6-7.1l0,0c3-1,6.1,0.6,7.1,3.6l0,0c1,3-0.6,6.1-3.6,7.1l0,0
				c-0.6,0.2-1.2,0.3-1.7,0.3l0,0C30.6,178,28.4,176.5,27.7,174.1z"/>
			<linearGradient id="XMLID_86_" gradientUnits="userSpaceOnUse" x1="287.0786" y1="209.5682" x2="-0.7131" y2="13.4796">
				<stop  offset="2.066799e-05" style="stop-color:#464D9F"/>
				<stop  offset="0.5677" style="stop-color:#0BAADD"/>
				<stop  offset="0.6089" style="stop-color:#23A8C8"/>
				<stop  offset="0.6666" style="stop-color:#2FA6B0"/>
				<stop  offset="0.7265" style="stop-color:#35A49C"/>
				<stop  offset="0.7881" style="stop-color:#39A28D"/>
				<stop  offset="0.8523" style="stop-color:#3BA183"/>
				<stop  offset="0.9205" style="stop-color:#3CA17D"/>
				<stop  offset="1" style="stop-color:#3CA17B"/>
			</linearGradient>
			<path id="XMLID_215_" class="st33" d="M211.6,164.3c-3.1-0.5-5.1-3.4-4.6-6.5v0c0.5-3.1,3.4-5.1,6.5-4.6l0,0
				c3.1,0.5,5.1,3.4,4.6,6.5l0,0c-0.5,2.7-2.9,4.7-5.5,4.7l0,0C212.3,164.4,212,164.4,211.6,164.3z"/>
			<linearGradient id="XMLID_87_" gradientUnits="userSpaceOnUse" x1="232.672" y1="289.4188" x2="-55.1198" y2="93.3302">
				<stop  offset="2.066799e-05" style="stop-color:#464D9F"/>
				<stop  offset="0.5677" style="stop-color:#0BAADD"/>
				<stop  offset="0.6089" style="stop-color:#23A8C8"/>
				<stop  offset="0.6666" style="stop-color:#2FA6B0"/>
				<stop  offset="0.7265" style="stop-color:#35A49C"/>
				<stop  offset="0.7881" style="stop-color:#39A28D"/>
				<stop  offset="0.8523" style="stop-color:#3BA183"/>
				<stop  offset="0.9205" style="stop-color:#3CA17D"/>
				<stop  offset="1" style="stop-color:#3CA17B"/>
			</linearGradient>
			<path id="XMLID_214_" class="st34" d="M23.1,150.8L23.1,150.8L23.1,150.8c-0.2-3.1,2.1-5.8,5.2-6l0,0c3.1-0.2,5.8,2.1,6,5.2h0
				c0.2,3.1-2.1,5.8-5.2,6l0,0c-0.2,0-0.3,0-0.4,0l0,0C25.7,156,23.3,153.8,23.1,150.8z"/>
			<linearGradient id="XMLID_88_" gradientUnits="userSpaceOnUse" x1="297.84" y1="193.7742" x2="10.0482" y2="-2.3144">
				<stop  offset="2.066799e-05" style="stop-color:#464D9F"/>
				<stop  offset="0.5677" style="stop-color:#0BAADD"/>
				<stop  offset="0.6089" style="stop-color:#23A8C8"/>
				<stop  offset="0.6666" style="stop-color:#2FA6B0"/>
				<stop  offset="0.7265" style="stop-color:#35A49C"/>
				<stop  offset="0.7881" style="stop-color:#39A28D"/>
				<stop  offset="0.8523" style="stop-color:#3BA183"/>
				<stop  offset="0.9205" style="stop-color:#3CA17D"/>
				<stop  offset="1" style="stop-color:#3CA17B"/>
			</linearGradient>
			<path id="XMLID_213_" class="st35" d="M208,136.9c0,0,0-0.1,0-0.1l0,0c0,0,0-0.1,0-0.1l0,0c-0.2-3.1,2.1-5.8,5.2-6l0,0
				c3.1-0.2,5.8,2.1,6,5.2l0,0c0,0,0,0.1,0,0.1l0,0c0,0,0,0.1,0,0.1l0,0c0.2,3.1-2.1,5.8-5.2,6l0,0c-0.1,0-0.3,0-0.4,0l0,0
				C210.7,142.1,208.2,139.9,208,136.9z"/>
			<linearGradient id="XMLID_89_" gradientUnits="userSpaceOnUse" x1="243.3714" y1="273.7156" x2="-44.4203" y2="77.627">
				<stop  offset="2.066799e-05" style="stop-color:#464D9F"/>
				<stop  offset="0.5677" style="stop-color:#0BAADD"/>
				<stop  offset="0.6089" style="stop-color:#23A8C8"/>
				<stop  offset="0.6666" style="stop-color:#2FA6B0"/>
				<stop  offset="0.7265" style="stop-color:#35A49C"/>
				<stop  offset="0.7881" style="stop-color:#39A28D"/>
				<stop  offset="0.8523" style="stop-color:#3BA183"/>
				<stop  offset="0.9205" style="stop-color:#3CA17D"/>
				<stop  offset="1" style="stop-color:#3CA17B"/>
			</linearGradient>
			<path id="XMLID_212_" class="st36" d="M28.7,133.6c-3.1-0.5-5.1-3.4-4.6-6.5l0,0c0.5-3.1,3.4-5.1,6.5-4.6l0,0
				c3.1,0.5,5.1,3.4,4.6,6.5l0,0c-0.5,2.7-2.8,4.7-5.5,4.7l0,0C29.3,133.7,29,133.7,28.7,133.6z"/>
			<linearGradient id="XMLID_90_" gradientUnits="userSpaceOnUse" x1="306.7055" y1="180.7626" x2="18.9137" y2="-15.326">
				<stop  offset="2.066799e-05" style="stop-color:#464D9F"/>
				<stop  offset="0.5677" style="stop-color:#0BAADD"/>
				<stop  offset="0.6089" style="stop-color:#23A8C8"/>
				<stop  offset="0.6666" style="stop-color:#2FA6B0"/>
				<stop  offset="0.7265" style="stop-color:#35A49C"/>
				<stop  offset="0.7881" style="stop-color:#39A28D"/>
				<stop  offset="0.8523" style="stop-color:#3BA183"/>
				<stop  offset="0.9205" style="stop-color:#3CA17D"/>
				<stop  offset="1" style="stop-color:#3CA17B"/>
			</linearGradient>
			<path id="XMLID_211_" class="st37" d="M203.9,116.1c-1-3,0.6-6.1,3.6-7.1l0,0c2.9-1,6.1,0.6,7.1,3.6l0,0c1,3-0.6,6.1-3.6,7.1l0,0
				c-0.6,0.2-1.2,0.3-1.8,0.3l0,0C206.8,119.9,204.6,118.4,203.9,116.1z"/>
			<linearGradient id="XMLID_91_" gradientUnits="userSpaceOnUse" x1="255.3504" y1="256.1345" x2="-32.4414" y2="60.0459">
				<stop  offset="2.066799e-05" style="stop-color:#464D9F"/>
				<stop  offset="0.5677" style="stop-color:#0BAADD"/>
				<stop  offset="0.6089" style="stop-color:#23A8C8"/>
				<stop  offset="0.6666" style="stop-color:#2FA6B0"/>
				<stop  offset="0.7265" style="stop-color:#35A49C"/>
				<stop  offset="0.7881" style="stop-color:#39A28D"/>
				<stop  offset="0.8523" style="stop-color:#3BA183"/>
				<stop  offset="0.9205" style="stop-color:#3CA17D"/>
				<stop  offset="1" style="stop-color:#3CA17B"/>
			</linearGradient>
			<path id="XMLID_210_" class="st38" d="M33.7,111.8c-2.8-1.2-4.2-4.5-2.9-7.4l0,0c1.2-2.9,4.5-4.2,7.4-2.9l0,0
				c2.9,1.2,4.2,4.5,2.9,7.4l0,0c-0.9,2.1-3,3.4-5.2,3.4l0,0C35.2,112.3,34.5,112.1,33.7,111.8z"/>
			<linearGradient id="XMLID_92_" gradientUnits="userSpaceOnUse" x1="313.0978" y1="171.3809" x2="25.306" y2="-24.7078">
				<stop  offset="2.066799e-05" style="stop-color:#464D9F"/>
				<stop  offset="0.5677" style="stop-color:#0BAADD"/>
				<stop  offset="0.6089" style="stop-color:#23A8C8"/>
				<stop  offset="0.6666" style="stop-color:#2FA6B0"/>
				<stop  offset="0.7265" style="stop-color:#35A49C"/>
				<stop  offset="0.7881" style="stop-color:#39A28D"/>
				<stop  offset="0.8523" style="stop-color:#3BA183"/>
				<stop  offset="0.9205" style="stop-color:#3CA17D"/>
				<stop  offset="1" style="stop-color:#3CA17B"/>
			</linearGradient>
			<path id="XMLID_209_" class="st39" d="M194.9,97.1L194.9,97.1c-1.7-2.6-0.9-6.1,1.8-7.8l0,0c2.6-1.6,6.1-0.9,7.7,1.8l0,0l0,0l0,0
				c1.7,2.6,0.9,6.1-1.8,7.8l0,0c-0.9,0.6-2,0.9-3,0.9l0,0C197.8,99.7,196,98.8,194.9,97.1z"/>
			<linearGradient id="XMLID_93_" gradientUnits="userSpaceOnUse" x1="338.4455" y1="134.179" x2="50.6537" y2="-61.9096">
				<stop  offset="2.066799e-05" style="stop-color:#464D9F"/>
				<stop  offset="0.5677" style="stop-color:#0BAADD"/>
				<stop  offset="0.6089" style="stop-color:#23A8C8"/>
				<stop  offset="0.6666" style="stop-color:#2FA6B0"/>
				<stop  offset="0.7265" style="stop-color:#35A49C"/>
				<stop  offset="0.7881" style="stop-color:#39A28D"/>
				<stop  offset="0.8523" style="stop-color:#3BA183"/>
				<stop  offset="0.9205" style="stop-color:#3CA17D"/>
				<stop  offset="1" style="stop-color:#3CA17B"/>
			</linearGradient>
			<path id="XMLID_208_" class="st40" d="M237.2,71.4L237.2,71.4c-1.7-2.6-0.9-6.1,1.8-7.8l0,0c2.6-1.6,6.1-0.9,7.7,1.8l0,0l0,0l0,0
				c1.7,2.6,0.9,6.1-1.8,7.8l0,0c-0.9,0.6-2,0.9-3,0.9l0,0C240.1,74.1,238.3,73.1,237.2,71.4z"/>
			<linearGradient id="XMLID_94_" gradientUnits="userSpaceOnUse" x1="267.9068" y1="237.7059" x2="-19.8844" y2="41.6176">
				<stop  offset="2.066799e-05" style="stop-color:#464D9F"/>
				<stop  offset="0.5677" style="stop-color:#0BAADD"/>
				<stop  offset="0.6089" style="stop-color:#23A8C8"/>
				<stop  offset="0.6666" style="stop-color:#2FA6B0"/>
				<stop  offset="0.7265" style="stop-color:#35A49C"/>
				<stop  offset="0.7881" style="stop-color:#39A28D"/>
				<stop  offset="0.8523" style="stop-color:#3BA183"/>
				<stop  offset="0.9205" style="stop-color:#3CA17D"/>
				<stop  offset="1" style="stop-color:#3CA17B"/>
			</linearGradient>
			<path id="XMLID_207_" class="st41" d="M43.8,91.8c-2.5-1.9-3-5.4-1.1-7.9l0,0c1.9-2.5,5.4-3,7.9-1.1l0,0c2.5,1.9,3,5.4,1.1,7.9
				l0,0c-1.1,1.5-2.8,2.2-4.5,2.2l0,0C46,93,44.9,92.6,43.8,91.8z"/>
			<linearGradient id="XMLID_95_" gradientUnits="userSpaceOnUse" x1="316.7069" y1="166.0839" x2="28.9151" y2="-30.0047">
				<stop  offset="2.066799e-05" style="stop-color:#464D9F"/>
				<stop  offset="0.5677" style="stop-color:#0BAADD"/>
				<stop  offset="0.6089" style="stop-color:#23A8C8"/>
				<stop  offset="0.6666" style="stop-color:#2FA6B0"/>
				<stop  offset="0.7265" style="stop-color:#35A49C"/>
				<stop  offset="0.7881" style="stop-color:#39A28D"/>
				<stop  offset="0.8523" style="stop-color:#3BA183"/>
				<stop  offset="0.9205" style="stop-color:#3CA17D"/>
				<stop  offset="1" style="stop-color:#3CA17B"/>
			</linearGradient>
			<path id="XMLID_206_" class="st42" d="M181.7,80.8c-2.2-2.2-2.3-5.7-0.1-8l0,0c2.2-2.2,5.7-2.3,8-0.1l0,0
				c2.2,2.1,2.3,5.7,0.1,7.9l0,0c-1.1,1.1-2.6,1.7-4,1.7l0,0C184.2,82.4,182.8,81.9,181.7,80.8z"/>
			<linearGradient id="XMLID_96_" gradientUnits="userSpaceOnUse" x1="280.2551" y1="219.5829" x2="-7.5367" y2="23.4943">
				<stop  offset="2.066799e-05" style="stop-color:#464D9F"/>
				<stop  offset="0.5677" style="stop-color:#0BAADD"/>
				<stop  offset="0.6089" style="stop-color:#23A8C8"/>
				<stop  offset="0.6666" style="stop-color:#2FA6B0"/>
				<stop  offset="0.7265" style="stop-color:#35A49C"/>
				<stop  offset="0.7881" style="stop-color:#39A28D"/>
				<stop  offset="0.8523" style="stop-color:#3BA183"/>
				<stop  offset="0.9205" style="stop-color:#3CA17D"/>
				<stop  offset="1" style="stop-color:#3CA17B"/>
			</linearGradient>
			<path id="XMLID_205_" class="st43" d="M10,41.9c-2-2.4-1.6-6,0.8-7.9l0,0c2.4-2,6-1.6,7.9,0.8l0,0c2,2.4,1.6,6-0.8,7.9l0,0
				c-1,0.8-2.3,1.3-3.5,1.3l0,0C12.7,44,11.1,43.3,10,41.9z"/>
			<linearGradient id="XMLID_97_" gradientUnits="userSpaceOnUse" x1="317.3397" y1="165.1552" x2="29.5479" y2="-30.9334">
				<stop  offset="2.066799e-05" style="stop-color:#464D9F"/>
				<stop  offset="0.5677" style="stop-color:#0BAADD"/>
				<stop  offset="0.6089" style="stop-color:#23A8C8"/>
				<stop  offset="0.6666" style="stop-color:#2FA6B0"/>
				<stop  offset="0.7265" style="stop-color:#35A49C"/>
				<stop  offset="0.7881" style="stop-color:#39A28D"/>
				<stop  offset="0.8523" style="stop-color:#3BA183"/>
				<stop  offset="0.9205" style="stop-color:#3CA17D"/>
				<stop  offset="1" style="stop-color:#3CA17B"/>
			</linearGradient>
			<path id="XMLID_204_" class="st44" d="M165,68.1c-2.7-1.6-3.6-5-2-7.7l0,0c1.6-2.7,5-3.6,7.7-2l0,0l0,0l0,0c2.7,1.6,3.6,5,2,7.7
				l0,0c-1,1.8-2.9,2.8-4.9,2.8l0,0C166.8,68.9,165.9,68.6,165,68.1z"/>
			<linearGradient id="XMLID_98_" gradientUnits="userSpaceOnUse" x1="291.8289" y1="202.5965" x2="4.0371" y2="6.5078">
				<stop  offset="2.066799e-05" style="stop-color:#464D9F"/>
				<stop  offset="0.5677" style="stop-color:#0BAADD"/>
				<stop  offset="0.6089" style="stop-color:#23A8C8"/>
				<stop  offset="0.6666" style="stop-color:#2FA6B0"/>
				<stop  offset="0.7265" style="stop-color:#35A49C"/>
				<stop  offset="0.7881" style="stop-color:#39A28D"/>
				<stop  offset="0.8523" style="stop-color:#3BA183"/>
				<stop  offset="0.9205" style="stop-color:#3CA17D"/>
				<stop  offset="1" style="stop-color:#3CA17B"/>
			</linearGradient>
			<path id="XMLID_203_" class="st45" d="M76.6,61.8c-1.3-2.8-0.1-6.2,2.7-7.5l0,0c2.8-1.3,6.2-0.1,7.5,2.7l0,0
				c1.3,2.8,0.1,6.2-2.7,7.5l0,0c-0.8,0.4-1.6,0.5-2.4,0.5l0,0C79.6,65,77.6,63.9,76.6,61.8z"/>
			<linearGradient id="XMLID_99_" gradientUnits="userSpaceOnUse" x1="314.9542" y1="168.6563" x2="27.1624" y2="-27.4323">
				<stop  offset="2.066799e-05" style="stop-color:#464D9F"/>
				<stop  offset="0.5677" style="stop-color:#0BAADD"/>
				<stop  offset="0.6089" style="stop-color:#23A8C8"/>
				<stop  offset="0.6666" style="stop-color:#2FA6B0"/>
				<stop  offset="0.7265" style="stop-color:#35A49C"/>
				<stop  offset="0.7881" style="stop-color:#39A28D"/>
				<stop  offset="0.8523" style="stop-color:#3BA183"/>
				<stop  offset="0.9205" style="stop-color:#3CA17D"/>
				<stop  offset="1" style="stop-color:#3CA17B"/>
			</linearGradient>
			<path id="XMLID_202_" class="st46" d="M145.7,59.8c-3-0.9-4.7-4-3.8-7l0,0c0.9-3,4-4.7,7-3.8l0,0c3,0.9,4.7,4,3.8,7l0,0
				c-0.7,2.4-3,4-5.4,4l0,0C146.7,60,146.2,59.9,145.7,59.8z"/>
			<linearGradient id="XMLID_100_" gradientUnits="userSpaceOnUse" x1="339.4328" y1="132.7301" x2="51.641" y2="-63.3586">
				<stop  offset="2.066799e-05" style="stop-color:#464D9F"/>
				<stop  offset="0.5677" style="stop-color:#0BAADD"/>
				<stop  offset="0.6089" style="stop-color:#23A8C8"/>
				<stop  offset="0.6666" style="stop-color:#2FA6B0"/>
				<stop  offset="0.7265" style="stop-color:#35A49C"/>
				<stop  offset="0.7881" style="stop-color:#39A28D"/>
				<stop  offset="0.8523" style="stop-color:#3BA183"/>
				<stop  offset="0.9205" style="stop-color:#3CA17D"/>
				<stop  offset="1" style="stop-color:#3CA17B"/>
			</linearGradient>
			<path id="XMLID_201_" class="st47" d="M151.3,11c-3-0.9-4.7-4-3.8-7l0,0c0.9-3,4-4.7,7-3.8l0,0c3,0.9,4.7,4,3.8,7l0,0
				c-0.7,2.4-3,4-5.4,4l0,0C152.4,11.2,151.8,11.2,151.3,11z"/>
			<linearGradient id="XMLID_101_" gradientUnits="userSpaceOnUse" x1="309.6652" y1="176.4188" x2="21.8734" y2="-19.6698">
				<stop  offset="2.066799e-05" style="stop-color:#464D9F"/>
				<stop  offset="0.5677" style="stop-color:#0BAADD"/>
				<stop  offset="0.6089" style="stop-color:#23A8C8"/>
				<stop  offset="0.6666" style="stop-color:#2FA6B0"/>
				<stop  offset="0.7265" style="stop-color:#35A49C"/>
				<stop  offset="0.7881" style="stop-color:#39A28D"/>
				<stop  offset="0.8523" style="stop-color:#3BA183"/>
				<stop  offset="0.9205" style="stop-color:#3CA17D"/>
				<stop  offset="1" style="stop-color:#3CA17B"/>
			</linearGradient>
			<path id="XMLID_200_" class="st48" d="M125,56.4c-3.1-0.1-5.5-2.8-5.4-5.9l0,0c0.1-3.1,2.8-5.5,5.9-5.4l0,0l0,0l0,0
				c3.1,0.1,5.5,2.8,5.4,5.9l0,0c-0.1,3-2.6,5.4-5.6,5.4l0,0C125.1,56.4,125.1,56.4,125,56.4z"/>
			<linearGradient id="XMLID_102_" gradientUnits="userSpaceOnUse" x1="227.3715" y1="297.198" x2="-60.4202" y2="101.1094">
				<stop  offset="2.066799e-05" style="stop-color:#464D9F"/>
				<stop  offset="0.5677" style="stop-color:#0BAADD"/>
				<stop  offset="0.6089" style="stop-color:#23A8C8"/>
				<stop  offset="0.6666" style="stop-color:#2FA6B0"/>
				<stop  offset="0.7265" style="stop-color:#35A49C"/>
				<stop  offset="0.7881" style="stop-color:#39A28D"/>
				<stop  offset="0.8523" style="stop-color:#3BA183"/>
				<stop  offset="0.9205" style="stop-color:#3CA17D"/>
				<stop  offset="1" style="stop-color:#3CA17B"/>
			</linearGradient>
			<path id="XMLID_199_" class="st49" d="M155.7,253.9c-1.1-2.9,0.4-6.1,3.3-7.2l0,0c2.9-1.1,6.1,0.4,7.2,3.3l0,0
				c1.1,2.9-0.4,6.1-3.3,7.2l0,0c-0.6,0.2-1.3,0.4-1.9,0.4l0,0C158.6,257.6,156.5,256.1,155.7,253.9z"/>
			<linearGradient id="XMLID_103_" gradientUnits="userSpaceOnUse" x1="200.1945" y1="337.0847" x2="-87.5972" y2="140.996">
				<stop  offset="2.066799e-05" style="stop-color:#464D9F"/>
				<stop  offset="0.5677" style="stop-color:#0BAADD"/>
				<stop  offset="0.6089" style="stop-color:#23A8C8"/>
				<stop  offset="0.6666" style="stop-color:#2FA6B0"/>
				<stop  offset="0.7265" style="stop-color:#35A49C"/>
				<stop  offset="0.7881" style="stop-color:#39A28D"/>
				<stop  offset="0.8523" style="stop-color:#3BA183"/>
				<stop  offset="0.9205" style="stop-color:#3CA17D"/>
				<stop  offset="1" style="stop-color:#3CA17B"/>
			</linearGradient>
			<path id="XMLID_198_" class="st50" d="M49.7,241.4C49.7,241.4,49.7,241.4,49.7,241.4L49.7,241.4c-2.5-1.8-3.1-5.4-1.2-7.9l0,0
				c1.8-2.5,5.4-3.1,7.9-1.2l0,0c2.5,1.8,3.1,5.3,1.2,7.9l0,0c-1.1,1.5-2.8,2.3-4.5,2.3l0,0C51.9,242.4,50.7,242.1,49.7,241.4z"/>
			<linearGradient id="XMLID_104_" gradientUnits="userSpaceOnUse" x1="201.855" y1="334.6476" x2="-85.9367" y2="138.559">
				<stop  offset="2.066799e-05" style="stop-color:#464D9F"/>
				<stop  offset="0.5677" style="stop-color:#0BAADD"/>
				<stop  offset="0.6089" style="stop-color:#23A8C8"/>
				<stop  offset="0.6666" style="stop-color:#2FA6B0"/>
				<stop  offset="0.7265" style="stop-color:#35A49C"/>
				<stop  offset="0.7881" style="stop-color:#39A28D"/>
				<stop  offset="0.8523" style="stop-color:#3BA183"/>
				<stop  offset="0.9205" style="stop-color:#3CA17D"/>
				<stop  offset="1" style="stop-color:#3CA17B"/>
			</linearGradient>
			<path id="XMLID_197_" class="st51" d="M32,225.5L32,225.5L32,225.5c-2.1-2.3-2-5.8,0.3-7.9l0,0c2.3-2.1,5.8-2,7.9,0.3l0,0
				c2.1,2.3,2,5.8-0.3,7.9l0,0c-1.1,1-2.4,1.5-3.8,1.5l0,0C34.6,227.3,33.1,226.7,32,225.5z"/>
			<linearGradient id="XMLID_105_" gradientUnits="userSpaceOnUse" x1="212.2904" y1="319.332" x2="-75.5014" y2="123.2434">
				<stop  offset="2.066799e-05" style="stop-color:#464D9F"/>
				<stop  offset="0.5677" style="stop-color:#0BAADD"/>
				<stop  offset="0.6089" style="stop-color:#23A8C8"/>
				<stop  offset="0.6666" style="stop-color:#2FA6B0"/>
				<stop  offset="0.7265" style="stop-color:#35A49C"/>
				<stop  offset="0.7881" style="stop-color:#39A28D"/>
				<stop  offset="0.8523" style="stop-color:#3BA183"/>
				<stop  offset="0.9205" style="stop-color:#3CA17D"/>
				<stop  offset="1" style="stop-color:#3CA17B"/>
			</linearGradient>
			<path id="XMLID_196_" class="st52" d="M7.3,185.2c-1.1-2.9,0.4-6.1,3.3-7.2l0,0c2.9-1.1,6.1,0.4,7.2,3.3l0,0
				c1.1,2.9-0.4,6.1-3.3,7.2l0,0c-0.6,0.2-1.3,0.4-1.9,0.4l0,0C10.3,188.9,8.2,187.5,7.3,185.2z"/>
			<linearGradient id="XMLID_106_" gradientUnits="userSpaceOnUse" x1="220.6931" y1="306.9997" x2="-67.0986" y2="110.911">
				<stop  offset="2.066799e-05" style="stop-color:#464D9F"/>
				<stop  offset="0.5677" style="stop-color:#0BAADD"/>
				<stop  offset="0.6089" style="stop-color:#23A8C8"/>
				<stop  offset="0.6666" style="stop-color:#2FA6B0"/>
				<stop  offset="0.7265" style="stop-color:#35A49C"/>
				<stop  offset="0.7881" style="stop-color:#39A28D"/>
				<stop  offset="0.8523" style="stop-color:#3BA183"/>
				<stop  offset="0.9205" style="stop-color:#3CA17D"/>
				<stop  offset="1" style="stop-color:#3CA17B"/>
			</linearGradient>
			<path id="XMLID_195_" class="st53" d="M1.4,162.2c-0.5-3.1,1.6-5.9,4.7-6.4l0,0c3.1-0.5,5.9,1.6,6.4,4.7v0
				c0.5,3.1-1.6,5.9-4.7,6.4l0,0c-0.3,0.1-0.6,0.1-0.9,0.1l0,0C4.2,167,1.8,165,1.4,162.2z"/>
			<linearGradient id="XMLID_107_" gradientUnits="userSpaceOnUse" x1="299.7021" y1="191.0412" x2="11.9103" y2="-5.0474">
				<stop  offset="2.066799e-05" style="stop-color:#464D9F"/>
				<stop  offset="0.5677" style="stop-color:#0BAADD"/>
				<stop  offset="0.6089" style="stop-color:#23A8C8"/>
				<stop  offset="0.6666" style="stop-color:#2FA6B0"/>
				<stop  offset="0.7265" style="stop-color:#35A49C"/>
				<stop  offset="0.7881" style="stop-color:#39A28D"/>
				<stop  offset="0.8523" style="stop-color:#3BA183"/>
				<stop  offset="0.9205" style="stop-color:#3CA17D"/>
				<stop  offset="1" style="stop-color:#3CA17B"/>
			</linearGradient>
			<path id="XMLID_194_" class="st54" d="M236.4,153.8c-3.1-0.1-5.5-2.7-5.4-5.8l0,0c0,0,0-0.1,0-0.1l0,0c0-0.1,0-0.1,0-0.2l0,0
				c0.1-3.1,2.7-5.5,5.8-5.4l0,0c3.1,0.1,5.5,2.7,5.4,5.8l0,0c0,0,0,0.1,0,0.1l0,0c0,0,0,0.1,0,0.1l0,0l0,0l0,0
				c-0.1,3-2.6,5.4-5.6,5.4l0,0C236.5,153.8,236.5,153.8,236.4,153.8z"/>
			<linearGradient id="XMLID_108_" gradientUnits="userSpaceOnUse" x1="230.8097" y1="292.152" x2="-56.9821" y2="96.0633">
				<stop  offset="2.066799e-05" style="stop-color:#464D9F"/>
				<stop  offset="0.5677" style="stop-color:#0BAADD"/>
				<stop  offset="0.6089" style="stop-color:#23A8C8"/>
				<stop  offset="0.6666" style="stop-color:#2FA6B0"/>
				<stop  offset="0.7265" style="stop-color:#35A49C"/>
				<stop  offset="0.7881" style="stop-color:#39A28D"/>
				<stop  offset="0.8523" style="stop-color:#3BA183"/>
				<stop  offset="0.9205" style="stop-color:#3CA17D"/>
				<stop  offset="1" style="stop-color:#3CA17B"/>
			</linearGradient>
			<path id="XMLID_193_" class="st55" d="M5.4,144.3c-3.1-0.1-5.5-2.8-5.4-5.9l0,0c0,0,0,0,0,0l0,0c0.1-3.1,2.8-5.5,5.9-5.4l0,0
				c3.1,0.1,5.5,2.7,5.4,5.8l0,0c-0.1,3-2.6,5.4-5.6,5.4l0,0C5.6,144.3,5.5,144.3,5.4,144.3z"/>
			<linearGradient id="XMLID_109_" gradientUnits="userSpaceOnUse" x1="309.8701" y1="176.1181" x2="22.0783" y2="-19.9705">
				<stop  offset="2.066799e-05" style="stop-color:#464D9F"/>
				<stop  offset="0.5677" style="stop-color:#0BAADD"/>
				<stop  offset="0.6089" style="stop-color:#23A8C8"/>
				<stop  offset="0.6666" style="stop-color:#2FA6B0"/>
				<stop  offset="0.7265" style="stop-color:#35A49C"/>
				<stop  offset="0.7881" style="stop-color:#39A28D"/>
				<stop  offset="0.8523" style="stop-color:#3BA183"/>
				<stop  offset="0.9205" style="stop-color:#3CA17D"/>
				<stop  offset="1" style="stop-color:#3CA17B"/>
			</linearGradient>
			<path id="XMLID_192_" class="st56" d="M229.8,126.2c-0.5-3.1,1.6-5.9,4.7-6.4l0,0c3.1-0.5,5.9,1.6,6.4,4.7l0,0
				c0.5,3.1-1.6,5.9-4.7,6.4l0,0c-0.3,0-0.6,0.1-0.9,0.1l0,0C232.6,130.9,230.2,129,229.8,126.2z"/>
			<linearGradient id="XMLID_110_" gradientUnits="userSpaceOnUse" x1="242.2374" y1="275.38" x2="-45.5544" y2="79.2913">
				<stop  offset="2.066799e-05" style="stop-color:#464D9F"/>
				<stop  offset="0.5677" style="stop-color:#0BAADD"/>
				<stop  offset="0.6089" style="stop-color:#23A8C8"/>
				<stop  offset="0.6666" style="stop-color:#2FA6B0"/>
				<stop  offset="0.7265" style="stop-color:#35A49C"/>
				<stop  offset="0.7881" style="stop-color:#39A28D"/>
				<stop  offset="0.8523" style="stop-color:#3BA183"/>
				<stop  offset="0.9205" style="stop-color:#3CA17D"/>
				<stop  offset="1" style="stop-color:#3CA17B"/>
			</linearGradient>
			<path id="XMLID_191_" class="st57" d="M7.4,121.7c-3-0.7-4.9-3.8-4.2-6.8l0,0c0.7-3,3.8-4.9,6.8-4.2l0,0c3,0.7,4.9,3.8,4.1,6.8
				l0,0c-0.6,2.6-2.9,4.3-5.5,4.3l0,0C8.3,121.9,7.9,121.9,7.4,121.7z"/>
			<linearGradient id="XMLID_111_" gradientUnits="userSpaceOnUse" x1="318.2619" y1="163.8017" x2="30.4701" y2="-32.2869">
				<stop  offset="2.066799e-05" style="stop-color:#464D9F"/>
				<stop  offset="0.5677" style="stop-color:#0BAADD"/>
				<stop  offset="0.6089" style="stop-color:#23A8C8"/>
				<stop  offset="0.6666" style="stop-color:#2FA6B0"/>
				<stop  offset="0.7265" style="stop-color:#35A49C"/>
				<stop  offset="0.7881" style="stop-color:#39A28D"/>
				<stop  offset="0.8523" style="stop-color:#3BA183"/>
				<stop  offset="0.9205" style="stop-color:#3CA17D"/>
				<stop  offset="1" style="stop-color:#3CA17B"/>
			</linearGradient>
			<path id="XMLID_190_" class="st58" d="M224.3,105.3c-1.1-2.9,0.4-6.2,3.3-7.2l0,0c2.9-1.1,6.2,0.4,7.2,3.3l0,0
				c1.1,2.9-0.4,6.1-3.3,7.2l0,0c-0.6,0.2-1.3,0.4-2,0.4l0,0C227.3,109,225.2,107.6,224.3,105.3z"/>
			<linearGradient id="XMLID_112_" gradientUnits="userSpaceOnUse" x1="254.5541" y1="257.3033" x2="-33.2377" y2="61.2147">
				<stop  offset="2.066799e-05" style="stop-color:#464D9F"/>
				<stop  offset="0.5677" style="stop-color:#0BAADD"/>
				<stop  offset="0.6089" style="stop-color:#23A8C8"/>
				<stop  offset="0.6666" style="stop-color:#2FA6B0"/>
				<stop  offset="0.7265" style="stop-color:#35A49C"/>
				<stop  offset="0.7881" style="stop-color:#39A28D"/>
				<stop  offset="0.8523" style="stop-color:#3BA183"/>
				<stop  offset="0.9205" style="stop-color:#3CA17D"/>
				<stop  offset="1" style="stop-color:#3CA17B"/>
			</linearGradient>
			<path id="XMLID_189_" class="st59" d="M13.8,100c-2.8-1.3-4-4.6-2.8-7.5l0,0c1.3-2.8,4.7-4,7.5-2.7l0,0c2.8,1.3,4,4.7,2.8,7.5
				l0,0c-1,2.1-3,3.3-5.1,3.3l0,0C15.4,100.5,14.6,100.3,13.8,100z"/>
			<linearGradient id="XMLID_113_" gradientUnits="userSpaceOnUse" x1="324.6049" y1="154.4924" x2="36.8131" y2="-41.5962">
				<stop  offset="2.066799e-05" style="stop-color:#464D9F"/>
				<stop  offset="0.5677" style="stop-color:#0BAADD"/>
				<stop  offset="0.6089" style="stop-color:#23A8C8"/>
				<stop  offset="0.6666" style="stop-color:#2FA6B0"/>
				<stop  offset="0.7265" style="stop-color:#35A49C"/>
				<stop  offset="0.7881" style="stop-color:#39A28D"/>
				<stop  offset="0.8523" style="stop-color:#3BA183"/>
				<stop  offset="0.9205" style="stop-color:#3CA17D"/>
				<stop  offset="1" style="stop-color:#3CA17B"/>
			</linearGradient>
			<path id="XMLID_188_" class="st60" d="M214.9,86c-1.6-2.6-0.8-6.1,1.8-7.7l0,0c2.7-1.6,6.1-0.8,7.7,1.9l0,0
				c1.6,2.6,0.8,6.1-1.8,7.7l0,0c-0.9,0.6-1.9,0.8-2.9,0.8l0,0C217.8,88.6,216,87.7,214.9,86z"/>
			<linearGradient id="XMLID_114_" gradientUnits="userSpaceOnUse" x1="328.6725" y1="148.5226" x2="40.8796" y2="-47.5668">
				<stop  offset="2.066799e-05" style="stop-color:#464D9F"/>
				<stop  offset="0.5677" style="stop-color:#0BAADD"/>
				<stop  offset="0.6089" style="stop-color:#23A8C8"/>
				<stop  offset="0.6666" style="stop-color:#2FA6B0"/>
				<stop  offset="0.7265" style="stop-color:#35A49C"/>
				<stop  offset="0.7881" style="stop-color:#39A28D"/>
				<stop  offset="0.8523" style="stop-color:#3BA183"/>
				<stop  offset="0.9205" style="stop-color:#3CA17D"/>
				<stop  offset="1" style="stop-color:#3CA17B"/>
			</linearGradient>
			<path id="XMLID_187_" class="st61" d="M201.9,68.8L201.9,68.8c-2.1-2.3-2-5.8,0.3-7.9l0,0c2.3-2.1,5.8-2,7.9,0.3l0,0
				c2.1,2.3,2,5.8-0.3,7.9l0,0c-1.1,1-2.4,1.5-3.8,1.5l0,0C204.5,70.6,203,70,201.9,68.8z"/>
			<linearGradient id="XMLID_115_" gradientUnits="userSpaceOnUse" x1="279.9327" y1="220.056" x2="-7.8591" y2="23.9674">
				<stop  offset="2.066799e-05" style="stop-color:#464D9F"/>
				<stop  offset="0.5677" style="stop-color:#0BAADD"/>
				<stop  offset="0.6089" style="stop-color:#23A8C8"/>
				<stop  offset="0.6666" style="stop-color:#2FA6B0"/>
				<stop  offset="0.7265" style="stop-color:#35A49C"/>
				<stop  offset="0.7881" style="stop-color:#39A28D"/>
				<stop  offset="0.8523" style="stop-color:#3BA183"/>
				<stop  offset="0.9205" style="stop-color:#3CA17D"/>
				<stop  offset="1" style="stop-color:#3CA17B"/>
			</linearGradient>
			<path id="XMLID_186_" class="st62" d="M38.6,62.3c-2.1-2.3-2-5.8,0.3-7.9l0,0c2.3-2.1,5.8-2,7.9,0.3l0,0c2.1,2.3,2,5.8-0.3,7.9h0
				c-1.1,1-2.5,1.5-3.8,1.5l0,0C41.2,64.1,39.7,63.4,38.6,62.3z"/>
			<linearGradient id="XMLID_116_" gradientUnits="userSpaceOnUse" x1="330.3152" y1="146.1116" x2="42.5234" y2="-49.9771">
				<stop  offset="2.066799e-05" style="stop-color:#464D9F"/>
				<stop  offset="0.5677" style="stop-color:#0BAADD"/>
				<stop  offset="0.6089" style="stop-color:#23A8C8"/>
				<stop  offset="0.6666" style="stop-color:#2FA6B0"/>
				<stop  offset="0.7265" style="stop-color:#35A49C"/>
				<stop  offset="0.7881" style="stop-color:#39A28D"/>
				<stop  offset="0.8523" style="stop-color:#3BA183"/>
				<stop  offset="0.9205" style="stop-color:#3CA17D"/>
				<stop  offset="1" style="stop-color:#3CA17B"/>
			</linearGradient>
			<path id="XMLID_185_" class="st63" d="M185.8,54.4c-2.5-1.8-3.1-5.4-1.2-7.9l0,0c1.8-2.5,5.4-3.1,7.9-1.2l0,0
				c2.5,1.8,3.1,5.3,1.2,7.9l0,0c-1.1,1.5-2.8,2.3-4.6,2.3l0,0C188,55.5,186.8,55.2,185.8,54.4z"/>
			<linearGradient id="XMLID_117_" gradientUnits="userSpaceOnUse" x1="329.4669" y1="147.3566" x2="41.6751" y2="-48.732">
				<stop  offset="2.066799e-05" style="stop-color:#464D9F"/>
				<stop  offset="0.5677" style="stop-color:#0BAADD"/>
				<stop  offset="0.6089" style="stop-color:#23A8C8"/>
				<stop  offset="0.6666" style="stop-color:#2FA6B0"/>
				<stop  offset="0.7265" style="stop-color:#35A49C"/>
				<stop  offset="0.7881" style="stop-color:#39A28D"/>
				<stop  offset="0.8523" style="stop-color:#3BA183"/>
				<stop  offset="0.9205" style="stop-color:#3CA17D"/>
				<stop  offset="1" style="stop-color:#3CA17B"/>
			</linearGradient>
			<path id="XMLID_184_" class="st64" d="M167.2,43.5L167.2,43.5c-2.8-1.3-4-4.6-2.8-7.5l0,0c1.3-2.8,4.7-4,7.5-2.7l0,0l0,0l0,0
				c2.8,1.3,4,4.6,2.8,7.5l0,0c-1,2.1-3,3.3-5.1,3.3l0,0C168.8,44,168,43.9,167.2,43.5z"/>
			<linearGradient id="XMLID_118_" gradientUnits="userSpaceOnUse" x1="299.8051" y1="190.8901" x2="12.0133" y2="-5.1985">
				<stop  offset="2.066799e-05" style="stop-color:#464D9F"/>
				<stop  offset="0.5677" style="stop-color:#0BAADD"/>
				<stop  offset="0.6089" style="stop-color:#23A8C8"/>
				<stop  offset="0.6666" style="stop-color:#2FA6B0"/>
				<stop  offset="0.7265" style="stop-color:#35A49C"/>
				<stop  offset="0.7881" style="stop-color:#39A28D"/>
				<stop  offset="0.8523" style="stop-color:#3BA183"/>
				<stop  offset="0.9205" style="stop-color:#3CA17D"/>
				<stop  offset="1" style="stop-color:#3CA17B"/>
			</linearGradient>
			<path id="XMLID_183_" class="st65" d="M68.1,38.6c-1.1-2.9,0.4-6.2,3.3-7.2l0,0l0,0l0,0c2.9-1.1,6.2,0.4,7.2,3.3l0,0
				c1.1,2.9-0.4,6.1-3.3,7.2l0,0c-0.6,0.2-1.3,0.3-1.9,0.3l0,0C71.1,42.2,68.9,40.8,68.1,38.6z"/>
			<linearGradient id="XMLID_119_" gradientUnits="userSpaceOnUse" x1="312.6858" y1="171.9856" x2="24.894" y2="-24.1031">
				<stop  offset="2.066799e-05" style="stop-color:#464D9F"/>
				<stop  offset="0.5677" style="stop-color:#0BAADD"/>
				<stop  offset="0.6089" style="stop-color:#23A8C8"/>
				<stop  offset="0.6666" style="stop-color:#2FA6B0"/>
				<stop  offset="0.7265" style="stop-color:#35A49C"/>
				<stop  offset="0.7881" style="stop-color:#39A28D"/>
				<stop  offset="0.8523" style="stop-color:#3BA183"/>
				<stop  offset="0.9205" style="stop-color:#3CA17D"/>
				<stop  offset="1" style="stop-color:#3CA17B"/>
			</linearGradient>
			<path id="XMLID_182_" class="st66" d="M97.6,30.1c-0.5-3.1,1.6-5.9,4.7-6.4l0,0l0,0l0,0c3.1-0.5,5.9,1.6,6.4,4.7l0,0
				c0.5,3.1-1.6,5.9-4.7,6.4l0,0c-0.3,0-0.6,0.1-0.9,0.1l0,0C100.4,34.8,98,32.8,97.6,30.1z"/>
			<g id="XMLID_180_">
				<linearGradient id="XMLID_120_" gradientUnits="userSpaceOnUse" x1="263.6288" y1="240.4699" x2="-24.163" y2="44.3813">
					<stop  offset="2.066799e-05" style="stop-color:#464D9F"/>
					<stop  offset="0.5677" style="stop-color:#0BAADD"/>
					<stop  offset="0.6089" style="stop-color:#23A8C8"/>
					<stop  offset="0.6666" style="stop-color:#2FA6B0"/>
					<stop  offset="0.7265" style="stop-color:#35A49C"/>
					<stop  offset="0.7881" style="stop-color:#39A28D"/>
					<stop  offset="0.8523" style="stop-color:#3BA183"/>
					<stop  offset="0.9205" style="stop-color:#3CA17D"/>
					<stop  offset="1" style="stop-color:#3CA17B"/>
				</linearGradient>
				<path id="XMLID_181_" class="st67" d="M144.6,173.6l-0.3,0.1c-0.4,0.1-0.9,0.2-1.4,0.2c-0.9,0-1.9-0.2-2.7-0.5
					c-1.6-0.6-7-4-12-7l-0.9-0.6l0.9-0.6c10.3-7.1,20.5-11.7,30.5-13.5c-0.9-0.5-2.8-1.2-6.4-1.2c-9.2,0-17.9,4.9-25.2,9.5l-1,0.6
					l-0.2-1.1c-1-7.3-1.6-21.3-1.7-31.7c5.9,3.7,9.8,10,10.6,17.1c0.8-2.4,1.2-4.8,1.2-7.3c0-6.5-2.7-12.7-7.5-17l-0.6-0.6l1.1,0
					c0.1,0,0.3,0,0.4,0c7.9,0,14.9,5.5,17.1,13.2c0.1-0.6,0.1-1.1,0.1-1.7c0-9.3-7-17.2-15.9-17.8l-0.7-0.1l0.5-0.5
					c2.3-2.4,5.3-3.9,8.5-4.2c-1.7-0.8-3.6-1.3-5.5-1.3c-2.8,0-5.4,0.9-7.7,2.6l-0.4,0.3l-0.1-0.5c-0.6-1.9-1.6-3.6-3-5.1
					c-1.4,1.4-2.4,3.2-3,5.1l-0.1,0.5l-0.4-0.3c-2.2-1.7-4.9-2.6-7.7-2.6c-1.9,0-3.8,0.4-5.5,1.3c3.2,0.3,6.2,1.8,8.5,4.2l0.5,0.5
					l-0.7,0.1c-8.9,0.7-16,8.5-16,17.8c0,0.6,0,1.1,0.1,1.7c2.2-7.8,9.2-13.2,17.1-13.2c0.1,0,0.3,0,0.4,0l1.1,0l-0.6,0.6
					c-4.8,4.3-7.5,10.4-7.5,17c0,2.5,0.4,5,1.2,7.3c0.8-7.1,4.7-13.4,10.6-17.1c-0.1,10.3-0.7,24.4-1.7,31.7l-0.2,1.1l-1-0.6
					c-7.4-4.6-16-9.5-25.2-9.5c-3.6,0-5.5,0.7-6.4,1.2c10,1.8,20.2,6.4,30.5,13.5l0.9,0.6l-0.9,0.6c-4.9,3.1-10.3,6.4-12,7
					c-0.9,0.3-1.9,0.5-2.7,0.5c-0.5,0-1-0.1-1.4-0.2l-0.3-0.1c-0.2-0.1-0.5-0.2-0.6-0.2c0,0.1,0,0.2,0,0.5c0,1.6,2.3,3.4,5.7,3.4
					c1.6,0,3.3-0.4,4.9-1.3c5.3-2.7,12-6.9,12.1-6.9l0.4-0.2l0.4,0.2c0.1,0,6.8,4.2,12.1,6.9c1.6,0.8,3.3,1.3,4.9,1.3
					c3.3,0,5.7-1.8,5.7-3.4c0-0.3,0-0.4,0-0.5C145.1,173.4,144.9,173.5,144.6,173.6"/>
			</g>
			<linearGradient id="XMLID_121_" gradientUnits="userSpaceOnUse" x1="326.836" y1="151.2179" x2="39.0442" y2="-44.8708">
				<stop  offset="2.066799e-05" style="stop-color:#464D9F"/>
				<stop  offset="0.5677" style="stop-color:#0BAADD"/>
				<stop  offset="0.6089" style="stop-color:#23A8C8"/>
				<stop  offset="0.6666" style="stop-color:#2FA6B0"/>
				<stop  offset="0.7265" style="stop-color:#35A49C"/>
				<stop  offset="0.7881" style="stop-color:#39A28D"/>
				<stop  offset="0.8523" style="stop-color:#3BA183"/>
				<stop  offset="0.9205" style="stop-color:#3CA17D"/>
				<stop  offset="1" style="stop-color:#3CA17B"/>
			</linearGradient>
			<path id="XMLID_179_" class="st68" d="M149.1,36.5c-3-0.7-4.9-3.8-4.2-6.8l0,0c0.7-3,3.8-4.9,6.8-4.1l0,0c3,0.7,4.9,3.8,4.2,6.8
				l0,0c-0.6,2.6-2.9,4.3-5.5,4.3l0,0C149.9,36.6,149.5,36.6,149.1,36.5z"/>
		</g>
	</g>
	<g id="lYg6nJ_1_">
		<g id="XMLID_165_">
			<path id="XMLID_176_" class="st69" d="M302.6,74.6c0.3-2,0.5-4,1-5.9c2.6-10.8,10.7-18,21.7-19.5c6.7-0.9,13.3-0.7,19.7,2
				c8,3.4,12.6,9.6,14.5,17.9c0.1,0.3,0.1,0.5,0.1,0.8c-0.3,0-0.5,0.1-0.7,0.1c-4.8,0-9.5,0-14.3,0c-0.6,0-0.9-0.1-1.2-0.7
				c-2.5-5.7-7.6-8.4-13.9-7.6c-5.3,0.7-8.7,3.7-10.2,8.8c-1.4,4.9-1.4,9.9,0.4,14.7c1.5,3.9,4.4,6.4,8.6,7
				c4.1,0.7,8.1,0.3,11.6-2.1c1.4-0.9,2.5-2.1,3.3-3.8c-4.1,0-8,0-12.1,0c0-3.5,0-6.9,0-10.3c9.5,0,19,0,28.6,0c0,9.5,0,19,0,28.6
				c-4,0-8,0-12.1,0c0-2.2,0-4.4,0-6.7c-0.3,0.2-0.6,0.3-0.7,0.4c-4.1,5-9.6,7.1-16,7.1c-6.1,0.1-11.9-1-17.2-4.4
				c-6.1-3.9-9.2-9.8-10.6-16.7c-0.3-1.5-0.5-3-0.7-4.6C302.6,78.1,302.6,76.4,302.6,74.6z"/>
			<path id="XMLID_173_" class="st69" d="M428.1,77.2c-0.1,5-0.9,9.9-3.3,14.4c-3.3,6.3-8.4,10.4-15.2,12.4
				c-7.4,2.2-14.8,2.2-22.2-0.2c-10.1-3.3-15.6-10.5-17.4-20.8c-0.9-5.2-0.7-10.4,0.8-15.5c2.5-8.6,8.1-14.5,16.7-17.1
				c7.5-2.4,15.2-2.4,22.7,0.1c10.1,3.4,15.6,10.7,17.3,21.1C427.9,73.5,427.9,75.3,428.1,77.2z M385.5,77.2c0,0.5,0,1.1,0,1.6
				c0.2,3,0.8,5.8,2.5,8.4c2.9,4.3,7.1,5.8,12.2,5.4c4.9-0.4,8.4-2.7,10.4-7.2c2-4.4,2.1-9.1,1-13.7c-1.3-5.6-5.1-9-10.8-9.8
				c-5.8-0.8-11.1,1.7-13.5,6.7C385.9,71.2,385.4,74.2,385.5,77.2z"/>
			<path id="XMLID_172_" class="st69" d="M509.4,85.7c5.3,0,10.4,0,15.7,0c0,0.8,0,1.5,0,2.2c0.1,2.8,1.2,4.3,3.8,5.1
				c2.9,0.9,5.9,1.1,8.8,0.8c1.6-0.2,3.1-0.5,4.6-1.1c1-0.4,2-1.2,2.7-2.1c1.4-1.9,0.9-4.3-1.3-5.2c-2.4-0.9-4.9-1.7-7.4-2.1
				c-5.2-0.9-10.5-1.5-15.5-3.5c-2-0.8-3.9-1.9-5.5-3.2c-6.5-5.1-6.6-17.3,1-22.9c3.2-2.4,6.8-3.6,10.6-4.2c6.8-1,13.6-1,20.2,1
				c2,0.6,4,1.6,5.8,2.8c4.4,2.9,6.6,8,6,13.8c-5.2,0-10.4,0-15.6,0c0-0.4-0.1-0.7-0.1-1.1c0.1-2.4-1.1-3.9-3.2-4.7
				c-3.4-1.2-7-1.2-10.4,0c-1,0.4-1.9,1.2-2.5,2c-1.3,1.6-0.9,3.9,1,4.7c2.2,0.9,4.5,1.6,6.9,2.1c5,0.9,10,1.4,14.8,3
				c3.3,1.1,6.4,2.7,8.6,5.5c5.7,7.2,3.5,18.2-4.6,23c-3.4,2-7.1,3-10.9,3.4c-6.8,0.8-13.5,0.8-20.1-1c-2.4-0.7-4.7-1.7-6.8-3
				c-4.3-2.7-6.3-6.8-6.6-11.8C509.3,88.1,509.4,86.9,509.4,85.7z"/>
			<path id="XMLID_169_" class="st69" d="M627.9,104.7c-5.3,0-10.4,0-15.6,0c-1-2.4-2-4.9-2.9-7.3c-0.3-0.8-0.7-1.1-1.5-1.1
				c-7.7,0-15.3,0-23,0c-0.8,0-1.1,0.2-1.4,0.9c-0.8,2.3-1.8,4.5-2.7,6.7c-0.1,0.3-0.6,0.7-0.9,0.7c-4.9,0-9.8,0-14.7,0
				c-0.1,0-0.1-0.1-0.3-0.1c0.1-0.3,0.2-0.7,0.4-1c7.1-17.6,14.1-35.3,21.2-52.9c0.3-0.8,0.7-1.2,1.6-1.1c5.6,0,11.2,0,16.9,0
				c0.7,0,1.1,0.2,1.4,0.9c7.1,17.8,14.2,35.6,21.4,53.4C627.7,104.1,627.7,104.4,627.9,104.7z M604.6,84.9c-0.1-0.4-0.2-0.7-0.3-1
				c-2.4-6.3-4.7-12.5-7.2-18.8c-0.1-0.4-0.5-0.6-0.8-0.9c-0.3,0.3-0.7,0.5-0.8,0.9c-2.4,6.3-4.8,12.6-7.2,18.9
				c-0.1,0.3-0.2,0.6-0.3,0.9C593.6,84.9,599,84.9,604.6,84.9z"/>
			<path id="XMLID_168_" class="st69" d="M489.1,49.6c-0.2,0.5-0.3,1-0.4,1.4c-5.9,17.5-11.9,35-17.8,52.6c-0.3,1-0.8,1.2-1.7,1.2
				c-6.1-0.1-12.2,0-18.2,0c-0.7,0-1-0.2-1.3-0.9c-6-17.8-12-35.5-18-53.3c-0.1-0.2-0.1-0.5-0.3-0.9c5.2,0,10.4,0,15.7,0
				c1,3.4,2.1,6.8,3.2,10.3c3,9.7,5.9,19.4,8.9,29.1c0.2,0.5,0.2,1.2,1.1,1.2c0.9,0,0.9-0.7,1-1.2c3.9-12.8,7.9-25.6,11.8-38.4
				c0.3-0.8,0.6-1.1,1.5-1.1c4.5,0,8.9,0,13.4,0C488.2,49.6,488.6,49.6,489.1,49.6z"/>
			<path id="XMLID_167_" class="st69" d="M495.5,105.5c-4.1,0-6.9-1.8-7.7-4.9c-1.3-5.1,1.3-9.6,7.1-9.7c1,0,2.1,0.1,3.1,0.3
				c3.5,0.9,5.3,3.8,5,7.8c-0.3,3.4-2.7,5.9-6.2,6.3C496.3,105.5,495.8,105.5,495.5,105.5z"/>
		</g>
	</g>
</g>
<path id="XMLID_162_" class="st0" d="M375.7,204c-0.2-0.2-0.3-0.2-0.5-0.2h-1.8c-0.2,0-0.3,0.1-0.5,0.2c-0.1,0.1-0.2,0.3-0.2,0.5
	v18.1c0,0.2,0.1,0.4,0.2,0.5h0c0.2,0.1,0.3,0.2,0.4,0.2h1.7c0.2,0,0.4-0.1,0.5-0.2c0.1-0.2,0.2-0.3,0.2-0.5l0-18.1
	C375.9,204.3,375.8,204.2,375.7,204 M375.6,196.6c-0.1-0.1-0.1-0.1-0.2-0.2c-0.1,0-0.2,0-0.3,0h-1.8c-0.1,0-0.1,0-0.2,0
	c-0.1,0-0.2,0-0.3,0.2c-0.1,0.1-0.2,0.3-0.2,0.5v2.9c0,0.2,0.1,0.4,0.2,0.5c0.1,0.1,0.2,0.2,0.3,0.2c0.1,0,0.1,0,0.2,0h1.8
	c0.1,0,0.2,0,0.3,0c0.1,0,0.1-0.1,0.2-0.2c0.2-0.1,0.2-0.3,0.2-0.5v-2.9C375.9,196.9,375.8,196.8,375.6,196.6"/>
</svg>
