<?xml version="1.0" encoding="UTF-8"?>
<svg width="29px" height="20px" viewBox="0 0 29 20" version="1.1" xmlns="http://www.w3.org/2000/svg" xmlns:xlink="http://www.w3.org/1999/xlink">
    <!-- Generator: sketchtool 51.3 (57544) - http://www.bohemiancoding.com/sketch -->
    <title>48AC71D7-C0DA-4CF9-8860-3BB6E23EFB88@1.5x</title>
    <desc>Created with sketchtool.</desc>
    <defs></defs>
    <g id="Page-1" stroke="none" stroke-width="1" fill="none" fill-rule="evenodd">
        <g id="EventsDetails" transform="translate(-1061.000000, -911.000000)" fill="#3A884B" fill-rule="nonzero" stroke="#3A884B" stroke-width="0.5">
            <g id="Mail" transform="translate(1062.000000, 911.000000)">
                <path d="M21.970375,15.226087 C21.86275,15.226087 21.755125,15.1869565 21.671125,15.1078261 L16.636375,10.413913 C16.4605,10.2504348 16.45175,9.97478261 16.617125,9.8 C16.7825,9.62347826 17.058125,9.61565217 17.23575,9.78086957 L22.2705,14.4747826 C22.446375,14.6382609 22.455125,14.913913 22.28975,15.0886957 C22.203125,15.18 22.087625,15.226087 21.970375,15.226087 Z" id="Shape"></path>
                <path d="M5.16425,15.226087 C5.047875,15.226087 4.9315,15.18 4.844875,15.0886957 C4.6795,14.913913 4.68825,14.6382609 4.864125,14.4747826 L9.900625,9.78086957 C10.077375,9.6173913 10.35475,9.62434783 10.51925,9.8 C10.684625,9.97478261 10.675875,10.2504348 10.5,10.413913 L5.4635,15.1078261 C5.3795,15.1869565 5.271875,15.226087 5.16425,15.226087 Z" id="Shape"></path>
                <path d="M24.948,19.5904348 L2.1875,19.5904348 C0.98175,19.5904348 0,18.6156522 0,17.4165217 L0,2.59304348 C0,1.39391304 0.98175,0.419130435 2.1875,0.419130435 L24.948,0.419130435 C26.15375,0.419130435 27.1355,1.39391304 27.1355,2.59304348 L27.1355,17.4165217 C27.1355,18.6156522 26.15375,19.5904348 24.948,19.5904348 Z M2.1875,1.28869565 C1.463875,1.28869565 0.875,1.87391304 0.875,2.59304348 L0.875,17.4165217 C0.875,18.1356522 1.463875,18.7208696 2.1875,18.7208696 L24.948,18.7208696 C25.671625,18.7208696 26.2605,18.1356522 26.2605,17.4165217 L26.2605,2.59304348 C26.2605,1.87391304 25.671625,1.28869565 24.948,1.28869565 L2.1875,1.28869565 Z" id="Shape"></path>
                <path d="M13.56775,12.1895652 C12.985875,12.1895652 12.404,11.9973913 11.96125,11.613913 L0.72625,1.87391304 C0.54425,1.71652174 0.525,1.44173913 0.683375,1.26 C0.8435,1.07913043 1.119125,1.0626087 1.301125,1.21826087 L12.536125,10.9573913 C13.09525,11.4417391 14.04025,11.4417391 14.5985,10.9573913 L25.8195,1.23391304 C26.000625,1.07652174 26.27625,1.09391304 26.43725,1.27565217 C26.595625,1.4573913 26.57725,1.73130435 26.39525,1.88956522 L15.17425,11.6130435 C14.730625,11.9973913 14.149625,12.1895652 13.56775,12.1895652 Z" id="Shape"></path>
            </g>
        </g>
    </g>
</svg>