<?xml version="1.0" encoding="UTF-8"?>
<svg width="18px" height="28px" viewBox="0 0 18 28" version="1.1" xmlns="http://www.w3.org/2000/svg" xmlns:xlink="http://www.w3.org/1999/xlink">
    <!-- Generator: sketchtool 51.3 (57544) - http://www.bohemiancoding.com/sketch -->
    <title>F8FA2F34-31A8-4B6E-A4FA-FFD3C438EF16@1.5x</title>
    <desc>Created with sketchtool.</desc>
    <defs></defs>
    <g id="Page-1" stroke="none" stroke-width="1" fill="none" fill-rule="evenodd">
        <g id="Home_2" transform="translate(-1097.000000, -2355.000000)" fill="#6A6A6A">
            <g id="MapArrowColor" transform="translate(1097.000000, 2355.000000)">
                <g id="Group-4">
                    <path d="M12.6521818,22.3147273 C12.3782909,22.2516 12.1049091,22.4216364 12.0412727,22.6955273 C11.9776364,22.9694182 12.1476727,23.2428 12.4215636,23.3064364 C14.3810545,23.7615636 15.2724727,24.4753091 15.2724727,24.9452 C15.2724727,25.7755273 12.6944364,26.9815636 8.65429091,26.9815636 C4.61465455,26.9815636 2.03610909,25.7755273 2.03610909,24.9452 C2.03610909,24.4681818 2.94636364,23.7483273 4.94301818,23.2942182 C5.21741818,23.2316 5.38898182,22.9592364 5.32636364,22.6848364 C5.26476364,22.4109455 4.99341818,22.2378545 4.71749091,22.3014909 C2.36650909,22.8355273 1.01792727,23.7997455 1.01792727,24.9452 C1.01792727,26.9291273 4.95269091,27.9997455 8.65429091,27.9997455 C12.3564,27.9997455 16.2906545,26.9291273 16.2906545,24.9452 C16.2906545,23.8109455 14.9644727,22.8523273 12.6521818,22.3147273" id="Fill-1"></path>
                    <path d="M15.5809818,12.4088364 C13.4896364,17.2034545 9.87661818,21.7404727 8.70316364,23.1506545 C7.51596364,21.7440364 3.85203636,17.206 1.75305455,12.3920364 C1.26534545,11.3764 1.01843636,10.2798182 1.01843636,9.13385455 C1.01843636,4.93945455 4.45429091,1.52701818 8.6772,1.52701818 C12.9001091,1.52701818 16.3354545,4.93945455 16.3354545,9.13385455 C16.3354545,10.2609818 16.0839636,11.3575636 15.5809818,12.4088364 M8.6772,0.508836364 C3.89276364,0.508836364 0.000254545456,4.37843636 0.000254545456,9.13385455 C0.000254545456,10.4340727 0.280763636,11.6782909 0.827527273,12.8161091 C3.40149091,18.7200364 8.12636364,24.0492 8.32643636,24.2732 C8.42265455,24.3816364 8.56112727,24.4432364 8.70621818,24.4432364 C8.8452,24.4376364 8.99181818,24.3801091 9.08854545,24.2701455 C9.28556364,24.0461455 13.9391636,18.7185091 16.5065091,12.8324 C17.0690545,11.6584364 17.3536364,10.4142182 17.3536364,9.13385455 C17.3536364,4.37843636 13.4616364,0.508836364 8.6772,0.508836364" id="Fill-3"></path>
                    <path d="M8.67689455,13.1200364 C6.98722182,13.1200364 5.61216727,11.7454909 5.61216727,10.0553091 C5.61216727,8.36563636 6.98722182,6.99109091 8.67689455,6.99109091 C10.3665673,6.99109091 11.7416218,8.36563636 11.7416218,10.0553091 C11.7416218,11.7454909 10.3665673,13.1200364 8.67689455,13.1200364 M8.67689455,5.97290909 C6.42569455,5.97290909 4.59398545,7.80461818 4.59398545,10.0553091 C4.59398545,12.3065091 6.42569455,14.1382182 8.67689455,14.1382182 C10.9280945,14.1382182 12.7598036,12.3065091 12.7598036,10.0553091 C12.7598036,7.80461818 10.9280945,5.97290909 8.67689455,5.97290909" id="Fill-6"></path>
                </g>
            </g>
        </g>
    </g>
</svg>