<?xml version="1.0" encoding="UTF-8"?>
<svg width="46px" height="46px" viewBox="0 0 46 46" version="1.1" xmlns="http://www.w3.org/2000/svg" xmlns:xlink="http://www.w3.org/1999/xlink">
    <!-- Generator: Sketch 51.3 (57544) - http://www.bohemiancoding.com/sketch -->
    <title>CTA8@1.5x</title>
    <desc>Created with Sketch.</desc>
    <defs>
        <linearGradient x1="94.6234953%" y1="50%" x2="5.66269137%" y2="55.7266874%" id="linearGradient-1">
            <stop stop-color="#0A6C6E" offset="0%"></stop>
            <stop stop-color="#349D80" offset="100%"></stop>
        </linearGradient>
    </defs>
    <g id="Page-1" stroke="none" stroke-width="1" fill="none" fill-rule="evenodd">
        <g id="Home_2" transform="translate(-903.000000, -961.000000)" fill="url(#linearGradient-1)">
            <g id="CTA8" transform="translate(903.000000, 961.000000)">
                <path d="M37.9622282,3.09425217 C40.1116978,3.09425217 41.8602933,4.8429248 41.8602933,6.99224003 L41.8602933,8.86764261 C42.2163257,9.38258915 42.551751,9.91127377 42.8636364,10.4545455 L42.8636364,6.99224003 C42.8636364,4.28969686 40.6649258,2.09090909 37.9622282,2.09090909 L34.5,2.09090909 C35.0432717,2.40287161 35.5718791,2.73821974 36.0869028,3.09425217 L37.9622282,3.09425217 Z" id="Fill-1"></path>
                <path d="M6.99231721,41.860284 C4.8429248,41.860284 3.09425217,40.1115953 3.09425217,37.962183 L3.09425217,36.0868403 C2.73829692,35.571889 2.40287161,35.0432767 2.09090909,34.5 L2.09090909,37.962183 C2.09090909,40.6649055 4.28969686,42.8636364 6.99231721,42.8636364 L10.4545455,42.8636364 C9.91127377,42.5517481 9.38266633,42.2163197 8.86771979,41.860284 L6.99231721,41.860284 Z" id="Fill-3"></path>
                <path d="M41.860284,37.962183 C41.860284,40.1115953 40.1116724,41.860284 37.962183,41.860284 L36.0868403,41.860284 C35.571889,42.2163197 35.0432767,42.5517481 34.5,42.8636364 L37.962183,42.8636364 C40.6649055,42.8636364 42.8636364,40.6649055 42.8636364,37.962183 L42.8636364,34.5 C42.5517481,35.0432767 42.2163197,35.571889 41.860284,36.0868403 L41.860284,37.962183 Z" id="Fill-5"></path>
                <path d="M3.09424291,6.99224003 C3.09424291,4.84284762 4.8428994,3.09425217 6.99227198,3.09425217 L8.86765725,3.09425217 C9.38267622,2.73821974 9.9112016,2.40279443 10.4545455,2.09090909 L6.99227198,2.09090909 C4.28967657,2.09090909 2.09090909,4.28961968 2.09090909,6.99224003 L2.09090909,10.4545455 C2.40286873,9.91127377 2.73829094,9.38258915 3.09424291,8.86764261 L3.09424291,6.99224003 Z" id="Fill-7"></path>
                <path d="M27.4730903,43.8991386 L26.4163072,33.9538899 L26.416145,33.9538899 C28.152219,33.4084614 29.7429915,32.4496818 31.0665259,31.1261474 C32.3899792,29.8026131 33.348921,28.2119217 33.8942684,26.4758476 L43.8395171,27.5327118 C42.0839721,35.7078935 35.6483531,42.1435125 27.4730903,43.8991386 Z M16.0212808,29.9787436 C14.1651362,28.1225989 13.1428328,25.6547436 13.1428328,23.0298229 C13.1428328,20.4048212 14.1651362,17.9369658 16.0211996,16.0808212 C17.8773443,14.2246765 20.3452808,13.2024543 22.9702014,13.2024543 C25.5952032,13.2024543 28.0629774,14.2246765 29.919122,16.0808212 C31.7752667,17.9369658 32.79757,20.4048212 32.79757,23.0298229 C32.79757,25.6547436 31.7752667,28.1225989 29.919122,29.9787436 C28.0629774,31.8348882 25.5952032,32.8571915 22.9702014,32.8571915 C20.3452808,32.8571915 17.8773443,31.8348882 16.0212808,29.9787436 Z M18.4673937,43.9001122 C18.8276864,43.9774279 19.1913055,44.0457383 19.5580074,44.1047189 C19.1913055,44.0459005 18.8276864,43.9774279 18.4673937,43.9001122 Z M2.10064233,27.5327118 L12.0461344,26.4758476 L12.0461344,26.4757665 C12.5914818,28.2118406 13.5503425,29.8025319 14.8738769,31.1261474 C16.1974113,32.4496007 17.7881026,33.4084614 19.5240956,33.9538899 L18.4672314,43.900031 C10.2918875,42.1444049 3.8561873,35.7079746 2.10064233,27.5327118 Z M18.4673125,2.16018272 L19.5240956,12.1056748 C17.7881026,12.6511034 16.1974113,13.609964 14.8738769,14.9334984 C13.5504236,16.2569517 12.5914818,17.8478053 12.0461344,19.5837171 L2.0999933,18.5268529 C3.85553827,10.3514279 10.2920497,3.91580882 18.4673125,2.16018272 Z M1.89530547,19.6176289 C1.95412381,19.250927 2.02259647,18.8872268 2.09991217,18.5270152 C2.02259647,18.8872268 1.95428607,19.250927 1.89530547,19.6176289 Z M26.4163072,12.1056748 L27.4730903,2.1604261 C35.6483531,3.9160522 42.0839721,10.3517524 43.8395171,18.526934 L33.8942684,19.5837171 C33.348921,17.8478053 32.3899792,16.2569517 31.0665259,14.9334984 C29.7429915,13.6098829 28.152219,12.6511034 26.416145,12.1056748 L26.4163072,12.1056748 Z M44.1346635,14.0882991 C42.9776053,11.3528 41.3216053,8.8964649 39.2125824,6.78744198 C37.1035594,4.67841905 34.6472243,3.02233792 31.9117252,1.86536085 C29.0787905,0.66717037 26.0704554,0.0595971781 22.9702014,0.0595971781 C19.8699474,0.0595971781 16.8616123,0.66717037 14.0286776,1.86536085 C11.2931785,3.02233792 8.83684339,4.67841905 6.72782046,6.78744198 C4.61879753,8.8964649 2.96279753,11.3528 1.80573933,14.0882991 C0.607629982,16.9212339 -2.43386231e-05,19.929569 -2.43386231e-05,23.0298229 C-2.43386231e-05,26.1300769 0.607629982,29.138412 1.80573933,31.9713467 C2.96279753,34.7067647 4.61879753,37.163181 6.72782046,39.2722039 C8.83684339,41.3812268 11.2931785,43.0372268 14.0286776,44.194285 C16.8616123,45.3923944 19.8699474,46.0000487 22.9702014,46.0000487 C26.0704554,46.0000487 29.0787905,45.3923944 31.9117252,44.194285 C34.6472243,43.0372268 37.1035594,41.3812268 39.2125824,39.2722039 C41.3216053,37.163181 42.9776053,34.7067647 44.1346635,31.9713467 C45.332854,29.138412 45.9404272,26.1300769 45.9404272,23.0298229 C45.9404272,19.929569 45.332854,16.9212339 44.1346635,14.0882991 Z" id="Fill-9"></path>
            </g>
        </g>
    </g>
</svg>