<?xml version="1.0" encoding="UTF-8"?>
<svg width="30px" height="27px" viewBox="0 0 30 27" version="1.1" xmlns="http://www.w3.org/2000/svg" xmlns:xlink="http://www.w3.org/1999/xlink">
    <!-- Generator: sketchtool 51.3 (57544) - http://www.bohemiancoding.com/sketch -->
    <title>D5F2C6BD-C8DA-4859-B840-CCDF427659B6@1.5x</title>
    <desc>Created with sketchtool.</desc>
    <defs></defs>
    <g id="Page-1" stroke="none" stroke-width="1" fill="none" fill-rule="evenodd">
        <g id="EventsDetails" transform="translate(-1236.000000, -905.000000)" fill="#3A884B" stroke="#3A884B" stroke-width="0.2">
            <g id="COnt" transform="translate(1237.000000, 906.000000)">
                <path d="M14,4.2052008 C19.431138,4.2052008 20.5101946,5.30213155 20.6713303,5.52202699 C20.7201528,5.58860978 20.7530319,5.66665169 20.7672748,5.74956186 L21.1981038,8.26030947 C21.1991667,8.26630117 21.200017,8.27229287 21.2008673,8.27835947 C21.2537289,8.66205306 21.5702606,8.95145224 21.9371739,8.95145224 L26.19983,8.95145224 C26.4369985,8.95145224 26.6533342,8.84734643 26.8091554,8.65845804 C26.9649057,8.46949475 27.0327896,8.22870325 27.0003357,7.98042212 L26.8238943,6.63109094 C26.8233274,6.62734613 26.8229022,6.62352642 26.8224771,6.61970671 C26.3715238,2.51209575 19.9031367,1.04854776 14,1.04854776 C10.7183302,1.04854776 7.68282817,1.49927351 5.4524378,2.31773993 C2.7707399,3.301802 1.332919,4.74430414 1.17894015,6.60502704 C1.17823155,6.613715 1.17731037,6.62240297 1.17610575,6.63109094 L0.999664266,7.98042212 C0.967210372,8.22870325 1.03509428,8.46949475 1.19084463,8.65845804 C1.34666584,8.84734643 1.56300152,8.95145224 1.80017005,8.95145224 L6.06289698,8.95145224 C6.42981022,8.95145224 6.74634199,8.66212795 6.79913271,8.27835947 C6.79998303,8.27236777 6.80083335,8.26630117 6.80189625,8.26030947 L7.2327961,5.74948696 C7.24767671,5.66268219 7.28310673,5.58119504 7.33575573,5.51273986 C7.5033397,5.29434234 8.61272436,4.2052008 14,4.2052008 M26.19983,10 L21.9371739,10 C21.0842317,10 20.3479251,9.32975329 20.2205896,8.43923666 L19.823986,6.12838718 C19.4994471,5.91478303 18.1582084,5.25374856 14,5.25374856 C9.87013563,5.25374856 8.51011904,5.91515751 8.17537625,6.132132 L7.77948125,8.43908686 C7.65214577,9.3296784 6.91591004,10 6.06289698,10 L1.80017005,10 C1.27956139,10 0.78488751,9.76205455 0.442916997,9.34720412 C0.101017343,8.93235369 -0.0543078466,8.38186612 0.0169773454,7.83684597 L0.191859904,6.50009737 C0.385874671,4.22939229 2.09204252,2.44094429 5.12704854,1.32716188 C7.45933563,0.471322219 10.6104812,0 14,0 C17.4161621,0 20.576307,0.480010186 22.8981776,1.35165296 C25.8600561,2.46348807 27.5574373,4.24115101 27.8072898,6.49298222 L27.9830227,7.83684597 C28.0543078,8.38186612 27.8989827,8.93235369 27.557083,9.34720412 C27.2151125,9.76205455 26.7204386,10 26.19983,10" id="Fill-1"></path>
                <path d="M11.7283546,7.03213991 C11.323693,7.03213991 10.9734885,7.34229795 10.9137938,7.75353197 L10.626441,9.73325004 C10.4487917,10.9561884 9.48901189,11.9006701 8.29224678,12.0300562 L5.38392102,12.344564 C4.27239314,12.4647346 3.35910638,13.338441 3.16294596,14.4690765 L2.04402799,20.9187714 C1.91258472,21.6764358 2.11305005,22.4494348 2.5939803,23.0394502 C3.07498229,23.6294657 3.78034187,23.9678601 4.52932454,23.9678601 L24.470746,23.9678601 C25.2197287,23.9678601 25.9250883,23.6294657 26.4060185,23.0394502 C26.8869488,22.4494348 27.0873424,21.6764358 26.9558991,20.9187714 L25.8370529,14.4690765 C25.6408924,13.338441 24.7276057,12.4647346 23.6160778,12.344564 L20.7076803,12.0300562 C19.5109869,11.9006701 18.5512072,10.9561884 18.3735579,9.73325004 L18.0861333,7.75353197 C18.0265103,7.34229795 17.6763059,7.03213991 17.2716443,7.03213991 L11.7283546,7.03213991 Z M24.470746,25 L4.52932454,25 C3.48229857,25 2.49618708,24.526985 1.82397531,23.7021578 C1.15162005,22.8773306 0.871442124,21.7968275 1.0551183,20.7376308 L2.17403628,14.287936 C2.44818733,12.7073612 3.72495202,11.4861185 5.27880946,11.3181009 L8.18720696,11.0036668 C8.9284408,10.9234548 9.52294893,10.3384526 9.63286765,9.58093568 L9.92029217,7.60129134 C10.0528117,6.68836359 10.830135,6 11.7283546,6 L17.2716443,6 C18.1699356,6 18.9471872,6.68843732 19.0797067,7.60129134 L19.3671312,9.58093568 C19.4770499,10.3384526 20.071558,10.9234548 20.8127919,11.0036668 L23.7211176,11.3181009 C25.2750468,11.4861185 26.5518115,12.7073612 26.8259626,14.287936 L27.9448805,20.7376308 C28.1285567,21.7968275 27.8483788,22.8773306 27.176167,23.7021578 C26.5038835,24.526985 25.517772,25 24.470746,25 Z" id="Fill-4"></path>
                <path d="M14.5,13.0082178 C12.5746487,13.0082178 11.0082258,14.5746281 11.0082258,16.499964 C11.0082258,18.4253719 12.5746487,19.9917822 14.5,19.9917822 C16.4253513,19.9917822 17.9917742,18.4253719 17.9917742,16.499964 C17.9917742,14.5746281 16.4253513,13.0082178 14.5,13.0082178 M14.5,21 C12.0186842,21 10,18.981332 10,16.499964 C10,14.018668 12.0186842,12 14.5,12 C16.9813158,12 19,14.018668 19,16.499964 C19,18.981332 16.9813158,21 14.5,21" id="Fill-6"></path>
            </g>
        </g>
    </g>
</svg>