<?xml version="1.0" encoding="UTF-8"?>
<svg width="26px" height="26px" viewBox="0 0 26 26" version="1.1" xmlns="http://www.w3.org/2000/svg" xmlns:xlink="http://www.w3.org/1999/xlink">
    <!-- Generator: sketchtool 51.3 (57544) - http://www.bohemiancoding.com/sketch -->
    <title>AD587698-A245-453A-928F-35C413397ED6@1.5x</title>
    <desc>Created with sketchtool.</desc>
    <defs></defs>
    <g id="Page-1" stroke="none" stroke-width="1" fill="none" fill-rule="evenodd">
        <g id="Service-Page_1" transform="translate(-917.000000, -366.000000)" fill="#7DB442" fill-rule="nonzero" stroke="#7DB442">
            <g id="Label" transform="translate(918.000000, 367.000000)">
                <path d="M23.8807124,0.117303421 C23.7216622,-0.0391011404 23.4645785,-0.0391011404 23.3055284,0.117303421 L21.7976026,1.60014667 L12.3265918,1.60014667 L0.420201609,13.404891 C0.149287503,13.6712987 0,14.0261091 0,14.4029201 C0,14.7797311 0.149287503,15.1345414 0.420201609,15.4009492 L8.74531888,23.587588 C9.02477532,23.862396 9.39128224,24 9.75860272,24 C10.1275503,24 10.4964979,23.861196 10.7792086,23.5835879 L22.3727866,11.8748463 L22.3727866,2.16576317 L23.8807124,0.682919918 C24.0397625,0.526515357 24.0397625,0.273707983 23.8807124,0.117303421 Z M21.5592307,11.5500369 L10.1999568,23.0219715 C9.95751713,23.2603784 9.56294253,23.2603784 9.32050288,23.0219715 L0.995385613,14.8353327 C0.752945962,14.5969257 0.752945962,14.2089144 0.996605947,13.9693074 L12.6658446,2.40017 L20.9840467,2.40017 L19.0180889,4.33342639 C18.6963276,4.12382028 18.3119224,4.00021667 17.8982292,4.00021667 C16.7767425,4.00021667 15.8643396,4.89744284 15.8643396,6.00027501 C15.8643396,7.10310717 16.7767425,8.00033334 17.8982292,8.00033334 C19.019716,8.00033334 19.9321189,7.10310717 19.9321189,6.00027501 C19.9321189,5.59346314 19.8064245,5.21545212 19.5932729,4.89904289 L21.5592307,2.9657865 L21.5592307,11.5500369 Z M19.1185631,6.00027501 C19.1185631,6.66189431 18.57104,7.20031001 17.8982292,7.20031001 C17.2254185,7.20031001 16.6778954,6.66189431 16.6778954,6.00027501 C16.6778954,5.33865571 17.2254185,4.80024001 17.8982292,4.80024001 C18.0861607,4.80024001 18.2618887,4.84584134 18.4209389,4.92064352 L17.6106372,5.71746676 C17.4515871,5.87387132 17.4515871,6.12667869 17.6106372,6.28308326 C17.6899589,6.36108553 17.7940941,6.40028668 17.8982292,6.40028668 C18.0023644,6.40028668 18.1064995,6.36108553 18.1858212,6.28308326 L18.9961229,5.48626002 C19.0725972,5.64266458 19.1185631,5.81546962 19.1185631,6.00027501 Z" id="Shape"></path>
            </g>
        </g>
    </g>
</svg>