<?xml version="1.0" encoding="UTF-8"?>
<svg width="25px" height="25px" viewBox="0 0 25 25" version="1.1" xmlns="http://www.w3.org/2000/svg" xmlns:xlink="http://www.w3.org/1999/xlink">
    <!-- Generator: sketchtool 51.3 (57544) - http://www.bohemiancoding.com/sketch -->
    <title>50289036-9BA1-4D3F-A1F8-08B53AB7F6D3@1.5x</title>
    <desc>Created with sketchtool.</desc>
    <defs></defs>
    <g id="Page-1" stroke="none" stroke-width="1" fill="none" fill-rule="evenodd">
        <g id="Service-Page_1" transform="translate(-781.000000, -364.000000)" fill="#D1A53C" fill-rule="nonzero" stroke="#D1A53C">
            <g id="TIme" transform="translate(782.000000, 365.000000)">
                <path d="M11.5,0 C5.1589,0 0,5.1589 0,11.5 C0,17.8411 5.1589,23 11.5,23 C17.8411,23 23,17.8411 23,11.5 C23,5.1589 17.8411,0 11.5,0 Z M11.5,22.2333333 C5.58171667,22.2333333 0.766666667,17.4182833 0.766666667,11.5 C0.766666667,5.58171667 5.58171667,0.766666667 11.5,0.766666667 C17.4182833,0.766666667 22.2333333,5.58171667 22.2333333,11.5 C22.2333333,17.4182833 17.4182833,22.2333333 11.5,22.2333333 Z" id="Shape"></path>
                <path d="M12.6111111,3 C12.3964444,3 12.2222222,3.17192308 12.2222222,3.38461538 L12.2222222,12.2307692 L6.38888889,12.2307692 C6.17422222,12.2307692 6,12.4026923 6,12.6153846 C6,12.8280769 6.17422222,13 6.38888889,13 L12.6111111,13 C12.8257778,13 13,12.8280769 13,12.6153846 L13,3.38461538 C13,3.17192308 12.8257778,3 12.6111111,3 Z" id="Shape"></path>
            </g>
        </g>
    </g>
</svg>