<?xml version="1.0" encoding="UTF-8"?>
<svg width="29px" height="39px" viewBox="0 0 29 39" version="1.1" xmlns="http://www.w3.org/2000/svg" xmlns:xlink="http://www.w3.org/1999/xlink">
    <!-- Generator: sketchtool 51.3 (57544) - http://www.bohemiancoding.com/sketch -->
    <title>A4F293F6-7552-4EA4-835B-181C5F9445B2@1.5x</title>
    <desc>Created with sketchtool.</desc>
    <defs>
        <path d="M13.2203158,23.9389298 C13.2203158,24.6482281 13.7955088,25.2236491 14.5050351,25.2236491 C15.2143333,25.2236491 15.7897544,24.6482281 15.7897544,23.9389298 C15.7897544,23.2294035 15.2143333,22.6544386 14.5050351,22.6544386 C13.7955088,22.6544386 13.2203158,23.2294035 13.2203158,23.9389298" id="path-1"></path>
        <path d="M10.4946491,10.3434386 C10.4946491,11.0529649 11.069614,11.6281579 11.7789123,11.6281579 C12.4886667,11.6281579 13.0634035,11.0529649 13.0634035,10.3434386 C13.0634035,9.63414035 12.4886667,9.05917544 11.7789123,9.05917544 C11.069614,9.05917544 10.4946491,9.63414035 10.4946491,10.3434386" id="path-3"></path>
        <path d="M13.2203158,10.1069298 C13.2203158,10.8164561 13.7955088,11.3916491 14.5050351,11.3916491 C15.2143333,11.3916491 15.7897544,10.8164561 15.7897544,10.1069298 C15.7897544,9.39763158 15.2143333,8.8224386 14.5050351,8.8224386 C13.7955088,8.8224386 13.2203158,9.39763158 13.2203158,10.1069298" id="path-5"></path>
        <path d="M13.2203158,12.8097895 C13.2203158,13.5190877 13.7955088,14.0945088 14.5050351,14.0945088 C15.2143333,14.0945088 15.7897544,13.5190877 15.7897544,12.8097895 C15.7897544,12.1004912 15.2143333,11.5250702 14.5050351,11.5250702 C13.7955088,11.5250702 13.2203158,12.1004912 13.2203158,12.8097895" id="path-7"></path>
        <path d="M13.2203158,15.5922456 C13.2203158,16.3015439 13.7955088,16.8765088 14.5050351,16.8765088 C15.2143333,16.8765088 15.7897544,16.3015439 15.7897544,15.5922456 C15.7897544,14.8827193 15.2143333,14.3077544 14.5050351,14.3077544 C13.7955088,14.3077544 13.2203158,14.8827193 13.2203158,15.5922456" id="path-9"></path>
        <path d="M13.2203158,18.3744737 C13.2203158,19.084 13.7955088,19.6587368 14.5050351,19.6587368 C15.2143333,19.6587368 15.7897544,19.084 15.7897544,18.3744737 C15.7897544,17.6649474 15.2143333,17.0897544 14.5050351,17.0897544 C13.7955088,17.0897544 13.2203158,17.6649474 13.2203158,18.3744737" id="path-11"></path>
        <path d="M13.2203158,21.1567018 C13.2203158,21.866 13.7955088,22.441193 14.5050351,22.441193 C15.2143333,22.441193 15.7897544,21.866 15.7897544,21.1567018 C15.7897544,20.4474035 15.2143333,19.8719825 14.5050351,19.8719825 C13.7955088,19.8719825 13.2203158,20.4474035 13.2203158,21.1567018" id="path-13"></path>
        <path d="M14.7930877,7.87298246 C14.7930877,8.46436842 15.2729474,8.94422807 15.8645614,8.94422807 C16.4564035,8.94422807 16.9360351,8.46436842 16.9360351,7.87298246 C16.9360351,7.28114035 16.4564035,6.8012807 15.8645614,6.8012807 C15.2729474,6.8012807 14.7930877,7.28114035 14.7930877,7.87298246" id="path-15"></path>
        <path d="M12.0735789,7.87298246 C12.0735789,8.46436842 12.5532105,8.94422807 13.1450526,8.94422807 C13.7366667,8.94422807 14.2162982,8.46436842 14.2162982,7.87298246 C14.2162982,7.28114035 13.7366667,6.8012807 13.1450526,6.8012807 C12.5532105,6.8012807 12.0735789,7.28114035 12.0735789,7.87298246" id="path-17"></path>
        <path d="M16.0016316,13.0419649 C16.0016316,13.6429298 16.4892456,14.1296316 17.0897544,14.1296316 C17.6902632,14.1296316 18.1774211,13.6429298 18.1774211,13.0419649 C18.1774211,12.4414561 17.6902632,11.9545263 17.0897544,11.9545263 C16.4892456,11.9545263 16.0016316,12.4414561 16.0016316,13.0419649" id="path-19"></path>
        <path d="M10.8326491,13.0419649 C10.8326491,13.6429298 11.3193509,14.1296316 11.9203158,14.1296316 C12.5210526,14.1296316 13.0079825,13.6429298 13.0079825,13.0419649 C13.0079825,12.4414561 12.5210526,11.9545263 11.9203158,11.9545263 C11.3193509,11.9545263 10.8326491,12.4414561 10.8326491,13.0419649" id="path-21"></path>
        <path d="M10.6538421,5.61736842 C10.6538421,6.19917544 11.124807,6.67059649 11.7068421,6.67059649 C12.288193,6.67059649 12.7600702,6.19917544 12.7600702,5.61736842 C12.7600702,5.03601754 12.288193,4.56436842 11.7068421,4.56436842 C11.124807,4.56436842 10.6538421,5.03601754 10.6538421,5.61736842" id="path-23"></path>
        <path d="M16.2497719,5.61736842 C16.2497719,6.19917544 16.7216491,6.67059649 17.3027719,6.67059649 C17.8850351,6.67059649 18.3564561,6.19917544 18.3564561,5.61736842 C18.3564561,5.03601754 17.8850351,4.56436842 17.3027719,4.56436842 C16.7216491,4.56436842 16.2497719,5.03601754 16.2497719,5.61736842" id="path-25"></path>
        <path d="M17.9461579,8.36150877 C17.9461579,8.96201754 18.4333158,9.44917544 19.0340526,9.44917544 C19.6343333,9.44917544 20.1214912,8.96201754 20.1214912,8.36150877 C20.1214912,7.76077193 19.6343333,7.27384211 19.0340526,7.27384211 C18.4333158,7.27384211 17.9461579,7.76077193 17.9461579,8.36150877" id="path-27"></path>
        <path d="M8.88835088,8.36150877 C8.88835088,8.96201754 9.3752807,9.44917544 9.97601754,9.44917544 C10.5767544,9.44917544 11.0636842,8.96201754 11.0636842,8.36150877 C11.0636842,7.76077193 10.5767544,7.27384211 9.97601754,7.27384211 C9.3752807,7.27384211 8.88835088,7.76077193 8.88835088,8.36150877" id="path-29"></path>
        <path d="M8.17221053,11.5417193 C8.17221053,12.1967368 8.70315789,12.7276842 9.35817544,12.7276842 C10.0129649,12.7276842 10.5441404,12.1967368 10.5441404,11.5417193 C10.5441404,10.8864737 10.0129649,10.3555263 9.35817544,10.3555263 C8.70315789,10.3555263 8.17221053,10.8864737 8.17221053,11.5417193" id="path-31"></path>
        <path d="M18.4654737,11.5417193 C18.4654737,12.1967368 18.9966491,12.7276842 19.6514386,12.7276842 C20.3069123,12.7276842 20.8380877,12.1967368 20.8380877,11.5417193 C20.8380877,10.8864737 20.3069123,10.3555263 19.6514386,10.3555263 C18.9966491,10.3555263 18.4654737,10.8864737 18.4654737,11.5417193" id="path-33"></path>
        <path d="M13.6062105,5.62078947 C13.6062105,6.11661404 14.0089825,6.51938596 14.5050351,6.51938596 C15.0010877,6.51938596 15.4034035,6.11661404 15.4034035,5.62078947 C15.4034035,5.12450877 15.0010877,4.72242105 14.5050351,4.72242105 C14.0089825,4.72242105 13.6062105,5.12450877 13.6062105,5.62078947" id="path-35"></path>
        <path d="M13.7546842,3.63429825 C13.7546842,4.04824561 14.0901754,4.38442105 14.5050351,4.38442105 C14.9194386,4.38442105 15.2549298,4.04824561 15.2549298,3.63429825 C15.2549298,3.21966667 14.9194386,2.8837193 14.5050351,2.8837193 C14.0901754,2.8837193 13.7546842,3.21966667 13.7546842,3.63429825" id="path-37"></path>
        <path d="M13.9558421,1.80449123 C13.9558421,2.10782456 14.2014737,2.35368421 14.5050351,2.35368421 C14.8083684,2.35368421 15.054,2.10782456 15.054,1.80449123 C15.054,1.50138596 14.8083684,1.25552632 14.5050351,1.25552632 C14.2014737,1.25552632 13.9558421,1.50138596 13.9558421,1.80449123" id="path-39"></path>
        <path d="M14.1371579,0.367877193 C14.1371579,0.571315789 14.3018246,0.736210526 14.5050351,0.736210526 C14.7082456,0.736210526 14.8729123,0.571315789 14.8729123,0.367877193 C14.8729123,0.164666667 14.7082456,0 14.5050351,0 C14.3018246,0 14.1371579,0.164666667 14.1371579,0.367877193" id="path-41"></path>
        <path d="M18.2180175,4.01517544 C18.2180175,4.42980702 18.554193,4.76552632 18.9685965,4.76552632 C19.3827719,4.76552632 19.7189474,4.42980702 19.7189474,4.01517544 C19.7189474,3.601 19.3827719,3.26505263 18.9685965,3.26505263 C18.554193,3.26505263 18.2180175,3.601 18.2180175,4.01517544" id="path-43"></path>
        <path d="M20.1812456,3.36357895 C20.1812456,3.66668421 20.4271053,3.91277193 20.7306667,3.91277193 C21.0337719,3.91277193 21.2794035,3.66668421 21.2794035,3.36357895 C21.2794035,3.06001754 21.0337719,2.81415789 20.7306667,2.81415789 C20.4271053,2.81415789 20.1812456,3.06001754 20.1812456,3.36357895" id="path-45"></path>
        <path d="M21.7373684,2.96445614 C21.7373684,3.16766667 21.9024912,3.3325614 22.1054737,3.3325614 C22.3086842,3.3325614 22.4731228,3.16766667 22.4731228,2.96445614 C22.4731228,2.76101754 22.3086842,2.59635088 22.1054737,2.59635088 C21.9024912,2.59635088 21.7373684,2.76101754 21.7373684,2.96445614" id="path-47"></path>
        <path d="M9.29135088,4.01517544 C9.29135088,4.42980702 9.62707018,4.76552632 10.0412456,4.76552632 C10.4558772,4.76552632 10.7915965,4.42980702 10.7915965,4.01517544 C10.7915965,3.601 10.4558772,3.26505263 10.0412456,3.26505263 C9.62707018,3.26505263 9.29135088,3.601 9.29135088,4.01517544" id="path-49"></path>
        <path d="M7.73021053,3.36357895 C7.73021053,3.66668421 7.97607018,3.91277193 8.27940351,3.91277193 C8.58273684,3.91277193 8.82859649,3.66668421 8.82859649,3.36357895 C8.82859649,3.06001754 8.58273684,2.81415789 8.27940351,2.81415789 C7.97607018,2.81415789 7.73021053,3.06001754 7.73021053,3.36357895" id="path-51"></path>
        <path d="M6.53649123,2.96445614 C6.53649123,3.16766667 6.70115789,3.3325614 6.90436842,3.3325614 C7.10757895,3.3325614 7.27224561,3.16766667 7.27224561,2.96445614 C7.27224561,2.76101754 7.10757895,2.59635088 6.90436842,2.59635088 C6.70115789,2.59635088 6.53649123,2.76101754 6.53649123,2.96445614" id="path-53"></path>
        <path d="M20.468386,7.2325614 C20.468386,7.72405263 20.8675088,8.12294737 21.359,8.12294737 C21.8507193,8.12294737 22.249386,7.72405263 22.249386,7.2325614 C22.249386,6.74061404 21.8507193,6.34217544 21.359,6.34217544 C20.8675088,6.34217544 20.468386,6.74061404 20.468386,7.2325614" id="path-55"></path>
        <path d="M22.8868421,6.94450877 C22.8868421,7.31694737 23.188807,7.61914035 23.5612456,7.61914035 C23.9339123,7.61914035 24.2363333,7.31694737 24.2363333,6.94450877 C24.2363333,6.57184211 23.9339123,6.26987719 23.5612456,6.26987719 C23.188807,6.26987719 22.8868421,6.57184211 22.8868421,6.94450877" id="path-57"></path>
        <path d="M24.8313684,7.65745614 C24.8313684,7.86066667 24.9962632,8.0255614 25.1992456,8.0255614 C25.4026842,8.0255614 25.5675789,7.86066667 25.5675789,7.65745614 C25.5675789,7.45424561 25.4026842,7.28957895 25.1992456,7.28957895 C24.9962632,7.28957895 24.8313684,7.45424561 24.8313684,7.65745614" id="path-59"></path>
        <path d="M6.76045614,7.2325614 C6.76045614,7.72405263 7.15935088,8.12294737 7.65084211,8.12294737 C8.14278947,8.12294737 8.54168421,7.72405263 8.54168421,7.2325614 C8.54168421,6.74061404 8.14278947,6.34217544 7.65084211,6.34217544 C7.15935088,6.34217544 6.76045614,6.74061404 6.76045614,7.2325614" id="path-61"></path>
        <path d="M4.77373684,6.94450877 C4.77373684,7.31694737 5.07570175,7.61914035 5.44814035,7.61914035 C5.82126316,7.61914035 6.12322807,7.31694737 6.12322807,6.94450877 C6.12322807,6.57184211 5.82126316,6.26987719 5.44814035,6.26987719 C5.07570175,6.26987719 4.77373684,6.57184211 4.77373684,6.94450877" id="path-63"></path>
        <path d="M3.44226316,7.65745614 C3.44226316,7.86066667 3.60738596,8.0255614 3.81036842,8.0255614 C4.01380702,8.0255614 4.17870175,7.86066667 4.17870175,7.65745614 C4.17870175,7.45424561 4.01380702,7.28957895 3.81036842,7.28957895 C3.60738596,7.28957895 3.44226316,7.45424561 3.44226316,7.65745614" id="path-65"></path>
        <path d="M21.3254737,11.7556491 C21.3254737,12.2900175 21.7581228,12.7228947 22.2924912,12.7228947 C22.8264035,12.7228947 23.2592807,12.2900175 23.2592807,11.7556491 C23.2592807,11.2215088 22.8264035,10.7886316 22.2924912,10.7886316 C21.7581228,10.7886316 21.3254737,11.2215088 21.3254737,11.7556491" id="path-67"></path>
        <path d="M23.5774386,12.3160175 C23.5774386,12.7345263 23.9163509,13.0736667 24.3350877,13.0736667 C24.7531404,13.0736667 25.0922807,12.7345263 25.0922807,12.3160175 C25.0922807,11.8979649 24.7531404,11.5588246 24.3350877,11.5588246 C23.9163509,11.5588246 23.5774386,11.8979649 23.5774386,12.3160175" id="path-69"></path>
        <path d="M25.0799649,13.39 C25.0799649,13.6905965 25.324,13.9350877 25.6248246,13.9350877 C25.9261053,13.9350877 26.1701404,13.6905965 26.1701404,13.39 C26.1701404,13.0889474 25.9261053,12.8449123 25.6248246,12.8449123 C25.324,12.8449123 25.0799649,13.0889474 25.0799649,13.39" id="path-71"></path>
        <path d="M26.0750351,14.391 C26.0750351,14.5944386 26.2397018,14.7591053 26.4429123,14.7591053 C26.6404211,14.7591053 26.8016667,14.6037895 26.8107895,14.4083333 L26.8107895,14.3736667 C26.8016667,14.1784386 26.6404211,14.0228947 26.4429123,14.0228947 C26.2397018,14.0228947 26.0750351,14.1877895 26.0750351,14.391" id="path-73"></path>
        <path d="M5.75033333,11.7556491 C5.75033333,12.2900175 6.1834386,12.7228947 6.71735088,12.7228947 C7.25149123,12.7228947 7.68459649,12.2900175 7.68459649,11.7556491 C7.68459649,11.2215088 7.25149123,10.7886316 6.71735088,10.7886316 C6.1834386,10.7886316 5.75033333,11.2215088 5.75033333,11.7556491" id="path-75"></path>
        <path d="M3.9175614,12.3160175 C3.9175614,12.7345263 4.25647368,13.0736667 4.67498246,13.0736667 C5.09349123,13.0736667 5.43217544,12.7345263 5.43217544,12.3160175 C5.43217544,11.8979649 5.09349123,11.5588246 4.67498246,11.5588246 C4.25647368,11.5588246 3.9175614,11.8979649 3.9175614,12.3160175" id="path-77"></path>
        <path d="M2.83970175,13.39 C2.83970175,13.6905965 3.08373684,13.9350877 3.3845614,13.9350877 C3.68561404,13.9350877 3.92964912,13.6905965 3.92964912,13.39 C3.92964912,13.0889474 3.68561404,12.8449123 3.3845614,12.8449123 C3.08373684,12.8449123 2.83970175,13.0889474 2.83970175,13.39" id="path-79"></path>
        <path d="M2.19882456,14.391 C2.19882456,14.5944386 2.3637193,14.7591053 2.56670175,14.7591053 C2.77014035,14.7591053 2.93503509,14.5944386 2.93503509,14.391 C2.93503509,14.1877895 2.77014035,14.0228947 2.56670175,14.0228947 C2.3637193,14.0228947 2.19882456,14.1877895 2.19882456,14.391" id="path-81"></path>
        <path d="M18.1115088,14.2110526 C18.1115088,14.6797368 18.4914737,15.0597018 18.9597018,15.0597018 C19.428614,15.0597018 19.8083509,14.6797368 19.8083509,14.2110526 C19.8083509,13.7425965 19.428614,13.3628596 18.9597018,13.3628596 C18.4914737,13.3628596 18.1115088,13.7425965 18.1115088,14.2110526" id="path-83"></path>
        <path d="M19.4929298,15.6709298 C19.4929298,16.0885263 19.831614,16.4267544 20.2494386,16.4267544 C20.6665789,16.4267544 21.0052632,16.0885263 21.0052632,15.6709298 C21.0052632,15.2535614 20.6665789,14.9151053 20.2494386,14.9151053 C19.831614,14.9151053 19.4929298,15.2535614 19.4929298,15.6709298" id="path-85"></path>
        <path d="M20.2549123,17.2158772 C20.2549123,17.4834035 20.471807,17.7000702 20.7393333,17.7000702 C21.0066316,17.7000702 21.2232982,17.4834035 21.2232982,17.2158772 C21.2232982,16.9483509 21.0066316,16.7316842 20.7393333,16.7316842 C20.471807,16.7316842 20.2549123,16.9483509 20.2549123,17.2158772" id="path-87"></path>
        <path d="M20.520386,18.6071053 C20.520386,18.8103158 20.6852807,18.9749825 20.8884912,18.9749825 C21.0917018,18.9749825 21.2563684,18.8103158 21.2563684,18.6071053 C21.2563684,18.4036667 21.0917018,18.239 20.8884912,18.239 C20.6852807,18.239 20.520386,18.4036667 20.520386,18.6071053" id="path-89"></path>
        <path d="M9.2017193,14.2110526 C9.2017193,14.6797368 9.58122807,15.0597018 10.0499123,15.0597018 C10.5185965,15.0597018 10.8985614,14.6797368 10.8985614,14.2110526 C10.8985614,13.7425965 10.5185965,13.3628596 10.0499123,13.3628596 C9.58122807,13.3628596 9.2017193,13.7425965 9.2017193,14.2110526" id="path-91"></path>
        <path d="M8.00480702,15.6709298 C8.00480702,16.0885263 8.34326316,16.4267544 8.76085965,16.4267544 C9.17822807,16.4267544 9.51668421,16.0885263 9.51668421,15.6709298 C9.51668421,15.2535614 9.17822807,14.9151053 8.76085965,14.9151053 C8.34326316,14.9151053 8.00480702,15.2535614 8.00480702,15.6709298" id="path-93"></path>
        <path d="M7.78654386,17.2158772 C7.78654386,17.4834035 8.00321053,17.7000702 8.27096491,17.7000702 C8.53803509,17.7000702 8.75470175,17.4834035 8.75470175,17.2158772 C8.75470175,16.9483509 8.53803509,16.7316842 8.27096491,16.7316842 C8.00321053,16.7316842 7.78654386,16.9483509 7.78654386,17.2158772" id="path-95"></path>
        <path d="M7.75324561,18.6071053 C7.75324561,18.8103158 7.91791228,18.9749825 8.12112281,18.9749825 C8.3245614,18.9749825 8.489,18.8103158 8.489,18.6071053 C8.489,18.4036667 8.3245614,18.239 8.12112281,18.239 C7.91791228,18.239 7.75324561,18.4036667 7.75324561,18.6071053" id="path-97"></path>
        <path d="M13.1154035,28.3185614 C13.1154035,27.5513333 13.7371228,26.9289298 14.5050351,26.9289298 C15.2722632,26.9289298 15.8946667,27.5513333 15.8946667,28.3185614 C15.8946667,29.0862456 15.2722632,29.7084211 14.5050351,29.7084211 C13.7371228,29.7084211 13.1154035,29.0862456 13.1154035,28.3185614 Z" id="path-99"></path>
        <path d="M15.6232632,26.5336842 C15.6232632,25.766 16.2454386,25.1438246 17.0131228,25.1438246 C17.7805789,25.1438246 18.4027544,25.766 18.4027544,26.5336842 C18.4027544,27.3013684 17.7805789,27.9233158 17.0131228,27.9233158 C16.2454386,27.9233158 15.6232632,27.3013684 15.6232632,26.5336842 Z" id="path-101"></path>
        <path d="M21.1286491,23.9888772 C21.1286491,23.3434386 21.6518421,22.8202456 22.2972807,22.8202456 C22.9424912,22.8202456 23.4656842,23.3434386 23.4656842,23.9888772 C23.4656842,24.6340877 22.9424912,25.1570526 22.2972807,25.1570526 C21.6518421,25.1570526 21.1286491,24.6340877 21.1286491,23.9888772 Z" id="path-103"></path>
        <path d="M23.7813333,23.3172105 C23.7813333,22.8809123 24.1350702,22.5274035 24.5715965,22.5274035 C25.0072105,22.5274035 25.3609474,22.8809123 25.3609474,23.3172105 C25.3609474,23.7532807 25.0072105,24.1067895 24.5715965,24.1067895 C24.1350702,24.1067895 23.7813333,23.7532807 23.7813333,23.3172105 Z" id="path-105"></path>
        <path d="M26.2683423,22.3766491 L26.3013772,22.3766491 C26.6180572,22.3854046 26.8721404,22.6451419 26.8721404,22.9641579 C26.8721404,23.2884737 26.6091754,23.5514386 26.2848596,23.5514386 C25.9605439,23.5514386 25.697807,23.2884737 25.697807,22.9641579 C25.697807,22.6451419 25.9516698,22.3854046 26.2683423,22.3766491 Z" id="path-107"></path>
        <path d="M27.5551712,22.418614 L27.5849122,22.418614 C27.8409959,22.426476 28.0462456,22.6366045 28.0462456,22.8943684 C28.0462456,23.1575614 27.833,23.3705789 27.5700351,23.3705789 C27.3072982,23.3705789 27.0945088,23.1575614 27.0945088,22.8943684 C27.0945088,22.6366045 27.2993194,22.426476 27.5551712,22.418614 Z" id="path-109"></path>
        <path d="M28.2738596,23.0622281 C28.2738596,22.8592456 28.4382982,22.694807 28.6412807,22.694807 C28.8444912,22.694807 29.0087018,22.8592456 29.0087018,23.0622281 C29.0087018,23.2656667 28.8444912,23.4301053 28.6412807,23.4301053 C28.4382982,23.4301053 28.2738596,23.2656667 28.2738596,23.0622281 Z" id="path-111"></path>
        <path d="M10.6073158,26.5229649 C10.6073158,25.7552807 11.2290351,25.1331053 11.9969474,25.1331053 C12.7644035,25.1331053 13.386807,25.7552807 13.386807,26.5229649 C13.386807,27.290193 12.7644035,27.9128246 11.9969474,27.9128246 C11.2290351,27.9128246 10.6073158,27.290193 10.6073158,26.5229649 Z" id="path-113"></path>
        <path d="M15.5516491,30.2386842 C15.5516491,29.5104561 16.1423509,28.9199825 16.8705789,28.9199825 C17.5994912,28.9199825 18.1897368,29.5104561 18.1897368,30.2386842 C18.1897368,30.9673684 17.5994912,31.5580702 16.8705789,31.5580702 C16.1423509,31.5580702 15.5516491,30.9673684 15.5516491,30.2386842 Z" id="path-115"></path>
        <path d="M19.8906842,32.268945 L19.8906842,32.3141511 C19.8786581,32.9096864 19.3925571,33.3883333 18.7945789,33.3883333 C18.1885965,33.3883333 17.6973333,32.8975263 17.6973333,32.2915439 C17.6973333,31.6857895 18.1885965,31.1949825 18.7945789,31.1949825 C19.3925571,31.1949825 19.8786581,31.6736294 19.8906842,32.268945 Z" id="path-117"></path>
        <path d="M22.2557719,32.1015614 C22.2557719,31.6682281 22.6067719,31.3174561 23.0405614,31.3174561 C23.4734386,31.3174561 23.8244386,31.6682281 23.8244386,32.1015614 C23.8244386,32.5346667 23.4734386,32.8858947 23.0405614,32.8858947 C22.6067719,32.8858947 22.2557719,32.5346667 22.2557719,32.1015614 Z" id="path-119"></path>
        <path d="M21.3556132,31.8607193 L21.3938406,31.8607193 C21.8181166,31.87086 22.1588421,32.2178806 22.1588421,32.6448246 C22.1588421,33.0777018 21.8078421,33.4291579 21.3747368,33.4291579 C20.9411754,33.4291579 20.5901754,33.0777018 20.5901754,32.6448246 C20.5901754,32.2178806 20.9309009,31.87086 21.3556132,31.8607193 Z" id="path-121"></path>
        <path d="M20.3051419,33.2911754 L20.3433496,33.2911754 C20.7676388,33.3013161 21.108807,33.6483368 21.108807,34.0752807 C21.108807,34.508386 20.7573509,34.859614 20.3242456,34.859614 C19.8911404,34.859614 19.5401404,34.508386 19.5401404,34.0752807 C19.5401404,33.6483368 19.8808658,33.3013161 20.3051419,33.2911754 Z" id="path-123"></path>
        <path d="M21.7520855,34.5624386 L21.7938093,34.5624386 C22.3003006,34.573523 22.7075789,34.9872414 22.7075789,35.4968421 C22.7075789,36.0127368 22.2890702,36.4310175 21.7729474,36.4310175 C21.2568246,36.4310175 20.8383158,36.0127368 20.8383158,35.4968421 C20.8383158,34.9872414 21.2455941,34.573523 21.7520855,34.5624386 Z" id="path-125"></path>
        <path d="M22.9380617,36.2554035 L22.9797627,36.2554035 C23.4862473,36.2664939 23.8930877,36.6806494 23.8930877,37.1895789 C23.8930877,37.7057018 23.4750351,38.1239825 22.9589123,38.1239825 C22.4427895,38.1239825 22.0245088,37.7057018 22.0245088,37.1895789 C22.0245088,36.6806494 22.4315711,36.2664939 22.9380617,36.2554035 Z" id="path-127"></path>
        <path d="M24.0700702,37.5608772 C24.0700702,36.8885263 24.615614,36.3434386 25.2877368,36.3434386 C25.9607719,36.3434386 26.5058596,36.8885263 26.5058596,37.5608772 C26.5058596,38.2336842 25.9607719,38.7787719 25.2877368,38.7787719 C24.615614,38.7787719 24.0700702,38.2336842 24.0700702,37.5608772 Z" id="path-129"></path>
        <path d="M19.1372007,34.5676842 L19.1753958,34.5676842 C19.5996748,34.5778282 19.9404035,34.9250682 19.9404035,35.3517895 C19.9404035,35.7848947 19.5894035,36.1358947 19.1562982,36.1358947 C18.723193,36.1358947 18.372193,35.7848947 18.372193,35.3517895 C18.372193,34.9250682 18.7129217,34.5778282 19.1372007,34.5676842 Z" id="path-131"></path>
        <path d="M16.6249474,35.8225263 C16.6249474,35.3894211 16.9759474,35.0384211 17.4092807,35.0384211 C17.842386,35.0384211 18.193386,35.3894211 18.193386,35.8225263 C18.193386,36.2556316 17.842386,36.6068596 17.4092807,36.6068596 C16.9759474,36.6068596 16.6249474,36.2556316 16.6249474,35.8225263 Z" id="path-133"></path>
        <path d="M7.58566821,31.8607193 L7.62388574,31.8607193 C8.04838647,31.87086 8.38933333,32.2178806 8.38933333,32.6448246 C8.38933333,33.0777018 8.03810526,33.4291579 7.60477193,33.4291579 C7.17166667,33.4291579 6.82066667,33.0777018 6.82066667,32.6448246 C6.82066667,32.2178806 7.16139214,31.87086 7.58566821,31.8607193 Z" id="path-135"></path>
        <path d="M8.63594101,33.2911754 L8.67414875,33.2911754 C9.09864295,33.3013161 9.43936842,33.6483368 9.43936842,34.0752807 C9.43936842,34.508386 9.08836842,34.859614 8.65503509,34.859614 C8.22215789,34.859614 7.87070175,34.508386 7.87070175,34.0752807 C7.87070175,33.6483368 8.21187001,33.3013161 8.63594101,33.2911754 Z" id="path-137"></path>
        <path d="M6.27238596,35.4759679 C6.28332158,34.9759894 6.68615091,34.5733713 7.18591859,34.5624386 L7.22764224,34.5624386 C7.73391468,34.573523 8.14119298,34.9872414 8.14119298,35.4968421 C8.14119298,36.0127368 7.72268421,36.4310175 7.20678947,36.4310175 C6.69741183,36.4310175 6.28347341,36.0239582 6.27238596,35.5176891 L6.27238596,35.4759679 Z" id="path-139"></path>
        <path d="M5.08642105,37.1687374 C5.09735972,36.6693887 5.50040919,36.2663422 5.99997389,36.2554035 L6.04166612,36.2554035 C6.54794376,36.2664939 6.95522807,36.6806494 6.95522807,37.1895789 C6.95522807,37.7057018 6.5367193,38.1239825 6.02082456,38.1239825 C5.51167002,38.1239825 5.09751151,37.7169201 5.08642105,37.2104295 L5.08642105,37.1687374 Z" id="path-141"></path>
        <path d="M2.47364912,37.5608772 C2.47364912,36.8885263 3.01873684,36.3434386 3.69131579,36.3434386 C4.36389474,36.3434386 4.9094386,36.8885263 4.9094386,37.5608772 C4.9094386,38.2336842 4.36389474,38.7787719 3.69131579,38.7787719 C3.01873684,38.7787719 2.47364912,38.2336842 2.47364912,37.5608772 Z" id="path-143"></path>
        <path d="M9.80388486,34.5676842 L9.84209013,34.5676842 C10.2665937,34.5778282 10.6075439,34.9250682 10.6075439,35.3517895 C10.6075439,35.7848947 10.2563158,36.1358947 9.82298246,36.1358947 C9.38987719,36.1358947 9.03887719,35.7848947 9.03887719,35.3517895 C9.03887719,34.9250682 9.37960594,34.5778282 9.80388486,34.5676842 Z" id="path-145"></path>
        <path d="M10.7861228,35.8225263 C10.7861228,35.3894211 11.1371228,35.0384211 11.5706842,35.0384211 C12.0033333,35.0384211 12.3543333,35.3894211 12.3543333,35.8225263 C12.3543333,36.2556316 12.0033333,36.6068596 11.5706842,36.6068596 C11.1371228,36.6068596 10.7861228,36.2556316 10.7861228,35.8225263 Z" id="path-147"></path>
    </defs>
    <g id="Page-1" stroke="none" stroke-width="1" fill="none" fill-rule="evenodd">
        <g id="Home_1" transform="translate(-1100.000000, -423.000000)">
            <g id="Tree" transform="translate(1100.000000, 423.000000)">
                <path d="M8.14497895,25.2316316 C8.14497895,25.9411579 8.71994386,26.5163509 9.42924211,26.5163509 C10.1389965,26.5163509 10.7137333,25.9411579 10.7137333,25.2316316 C10.7137333,24.5223333 10.1389965,23.9473684 9.42924211,23.9473684 C8.71994386,23.9473684 8.14497895,24.5223333 8.14497895,25.2316316" id="Fill-2484-Copy" fill="#E7C48A"></path>
                <path d="M18.1800667,25.2316316 C18.1800667,25.9411579 18.7550316,26.5163509 19.4643298,26.5163509 C20.1740842,26.5163509 20.7488211,25.9411579 20.7488211,25.2316316 C20.7488211,24.5223333 20.1740842,23.9473684 19.4643298,23.9473684 C18.7550316,23.9473684 18.1800667,24.5223333 18.1800667,25.2316316" id="Fill-2484-Copy-2" fill="#E7C48A"></path>
                <mask id="mask-2" fill="white">
                    <use xlink:href="#path-1"></use>
                </mask>
                <g id="Clip-2503"></g>
                <path d="M13.2203158,23.9389298 C13.2203158,24.6482281 13.7955088,25.2236491 14.5050351,25.2236491 C15.2143333,25.2236491 15.7897544,24.6482281 15.7897544,23.9389298 C15.7897544,23.2294035 15.2143333,22.6544386 14.5050351,22.6544386 C13.7955088,22.6544386 13.2203158,23.2294035 13.2203158,23.9389298" id="Fill-2502" fill="#CADA44"></path>
                <path d="M5.75024211,24.2212807 C5.75024211,24.8762982 6.28118947,25.4072456 6.93620702,25.4072456 C7.59099649,25.4072456 8.12217193,24.8762982 8.12217193,24.2212807 C8.12217193,23.5660351 7.59099649,23.0350877 6.93620702,23.0350877 C6.28118947,23.0350877 5.75024211,23.5660351 5.75024211,24.2212807" id="Fill-2529-Copy" fill="#E7C48A"></path>
                <path d="M9.17129474,32.2037368 C9.17129474,32.8587544 9.70224211,33.3897018 10.3572596,33.3897018 C11.0120491,33.3897018 11.5432246,32.8587544 11.5432246,32.2037368 C11.5432246,31.5484912 11.0120491,31.0175439 10.3572596,31.0175439 C9.70224211,31.0175439 9.17129474,31.5484912 9.17129474,32.2037368" id="Fill-2529-Copy-3" fill="#DAB764"></path>
                <path d="M20.8028737,24.2212807 C20.8028737,24.8762982 21.3338211,25.4072456 21.9888386,25.4072456 C22.6436281,25.4072456 23.1748035,24.8762982 23.1748035,24.2212807 C23.1748035,23.5660351 22.6436281,23.0350877 21.9888386,23.0350877 C21.3338211,23.0350877 20.8028737,23.5660351 20.8028737,24.2212807" id="Fill-2529-Copy-2" fill="#E7C48A"></path>
                <path d="M3.69761053,23.5459649 C3.69761053,24.0803333 4.13071579,24.5132105 4.66462807,24.5132105 C5.19876842,24.5132105 5.63187368,24.0803333 5.63187368,23.5459649 C5.63187368,23.0118246 5.19876842,22.5789474 4.66462807,22.5789474 C4.13071579,22.5789474 3.69761053,23.0118246 3.69761053,23.5459649" id="Fill-2595-Copy" fill="#E7C48A"></path>
                <path d="M2.1011193,22.9951754 C2.1011193,23.4136842 2.44003158,23.7528246 2.85854035,23.7528246 C3.27704912,23.7528246 3.61573333,23.4136842 3.61573333,22.9951754 C3.61573333,22.5771228 3.27704912,22.2379825 2.85854035,22.2379825 C2.44003158,22.2379825 2.1011193,22.5771228 2.1011193,22.9951754" id="Fill-2598-Copy" fill="#E7C48A"></path>
                <path d="M5.06603158,32.002807 C5.06603158,32.4213158 5.40494386,32.7604561 5.82345263,32.7604561 C6.2419614,32.7604561 6.58064561,32.4213158 6.58064561,32.002807 C6.58064561,31.5847544 6.2419614,31.245614 5.82345263,31.245614 C5.40494386,31.245614 5.06603158,31.5847544 5.06603158,32.002807" id="Fill-2598-Copy-3" fill="#D7B054"></path>
                <path d="M0.915151602,22.8959649 C0.915151602,23.1965614 1.15918669,23.4410526 1.46001125,23.4410526 C1.76106388,23.4410526 2.00509897,23.1965614 2.00509897,22.8959649 C2.00509897,22.5949123 1.76106388,22.3508772 1.46001125,22.3508772 C1.15918669,22.3508772 0.915151602,22.5949123 0.915151602,22.8959649" id="Fill-2601-Copy" fill="#E7C48A"></path>
                <path d="M0,22.9470526 C0,23.1504912 0.164894737,23.3151579 0.367877193,23.3151579 C0.571315789,23.3151579 0.736210526,23.1504912 0.736210526,22.9470526 C0.736210526,22.7438421 0.571315789,22.5789474 0.367877193,22.5789474 C0.164894737,22.5789474 0,22.7438421 0,22.9470526" id="Fill-2604-Copy" fill="#E7C48A"></path>
                <path d="M15.9462105,10.3434386 C15.9462105,11.0529649 16.5214035,11.6281579 17.2309298,11.6281579 C17.9402281,11.6281579 18.515193,11.0529649 18.515193,10.3434386 C18.515193,9.63414035 17.9402281,9.05917544 17.2309298,9.05917544 C16.5214035,9.05917544 15.9462105,9.63414035 15.9462105,10.3434386" id="Clip-2482" fill="#D8D8D8"></path>
                <path d="M15.9462105,10.3434386 C15.9462105,11.0529649 16.5214035,11.6281579 17.2309298,11.6281579 C17.9402281,11.6281579 18.515193,11.0529649 18.515193,10.3434386 C18.515193,9.63414035 17.9402281,9.05917544 17.2309298,9.05917544 C16.5214035,9.05917544 15.9462105,9.63414035 15.9462105,10.3434386" id="Fill-2481" fill="#5AB148"></path>
                <mask id="mask-4" fill="white">
                    <use xlink:href="#path-3"></use>
                </mask>
                <use id="Clip-2485" fill="#D8D8D8" xlink:href="#path-3"></use>
                <path d="M10.4946491,10.3434386 C10.4946491,11.0529649 11.069614,11.6281579 11.7789123,11.6281579 C12.4886667,11.6281579 13.0634035,11.0529649 13.0634035,10.3434386 C13.0634035,9.63414035 12.4886667,9.05917544 11.7789123,9.05917544 C11.069614,9.05917544 10.4946491,9.63414035 10.4946491,10.3434386" id="Fill-2484" fill="#5AB148"></path>
                <mask id="mask-6" fill="white">
                    <use xlink:href="#path-5"></use>
                </mask>
                <use id="Clip-2488" fill="#D8D8D8" xlink:href="#path-5"></use>
                <path d="M13.2203158,10.1069298 C13.2203158,10.8164561 13.7955088,11.3916491 14.5050351,11.3916491 C15.2143333,11.3916491 15.7897544,10.8164561 15.7897544,10.1069298 C15.7897544,9.39763158 15.2143333,8.8224386 14.5050351,8.8224386 C13.7955088,8.8224386 13.2203158,9.39763158 13.2203158,10.1069298" id="Fill-2487" fill="#5AB148"></path>
                <mask id="mask-8" fill="white">
                    <use xlink:href="#path-7"></use>
                </mask>
                <use id="Clip-2491" fill="#91C73E" xlink:href="#path-7"></use>
                <path d="M14.5050351,14.0945088 C15.2143333,14.0945088 15.7897544,13.5190877 15.7897544,12.8097895 C15.7897544,12.1004912 15.2143333,11.5250702 14.5050351,11.5250702 C13.7955088,11.5250702 13.2203158,12.1004912 13.2203158,12.8097895 C13.2203158,13.5190877 13.7955088,14.0945088 14.5050351,14.0945088 Z" id="Fill-2490" fill="#91C73E"></path>
                <mask id="mask-10" fill="white">
                    <use xlink:href="#path-9"></use>
                </mask>
                <use id="Clip-2494" fill="#91C73E" xlink:href="#path-9"></use>
                <path d="M13.2203158,15.5922456 C13.2203158,16.3015439 13.7955088,16.8765088 14.5050351,16.8765088 C15.2143333,16.8765088 15.7897544,16.3015439 15.7897544,15.5922456 C15.7897544,14.8827193 15.2143333,14.3077544 14.5050351,14.3077544 C13.7955088,14.3077544 13.2203158,14.8827193 13.2203158,15.5922456" id="Fill-2493" fill="#91C73E"></path>
                <mask id="mask-12" fill="white">
                    <use xlink:href="#path-11"></use>
                </mask>
                <use id="Clip-2497" fill="#91C73E" xlink:href="#path-11"></use>
                <path d="M13.2203158,18.3744737 C13.2203158,19.084 13.7955088,19.6587368 14.5050351,19.6587368 C15.2143333,19.6587368 15.7897544,19.084 15.7897544,18.3744737 C15.7897544,17.6649474 15.2143333,17.0897544 14.5050351,17.0897544 C13.7955088,17.0897544 13.2203158,17.6649474 13.2203158,18.3744737" id="Fill-2496" fill="#ADD037"></path>
                <mask id="mask-14" fill="white">
                    <use xlink:href="#path-13"></use>
                </mask>
                <use id="Clip-2500" fill="#D8D8D8" xlink:href="#path-13"></use>
                <path d="M13.2203158,21.1567018 C13.2203158,21.866 13.7955088,22.441193 14.5050351,22.441193 C15.2143333,22.441193 15.7897544,21.866 15.7897544,21.1567018 C15.7897544,20.4474035 15.2143333,19.8719825 14.5050351,19.8719825 C13.7955088,19.8719825 13.2203158,20.4474035 13.2203158,21.1567018" id="Fill-2499" fill="#CBDA48"></path>
                <mask id="mask-16" fill="white">
                    <use xlink:href="#path-15"></use>
                </mask>
                <use id="Clip-2506" fill="#D8D8D8" xlink:href="#path-15"></use>
                <path d="M14.7930877,7.87298246 C14.7930877,8.46436842 15.2729474,8.94422807 15.8645614,8.94422807 C16.4564035,8.94422807 16.9360351,8.46436842 16.9360351,7.87298246 C16.9360351,7.28114035 16.4564035,6.8012807 15.8645614,6.8012807 C15.2729474,6.8012807 14.7930877,7.28114035 14.7930877,7.87298246" id="Fill-2505" fill="#5AB148"></path>
                <mask id="mask-18" fill="white">
                    <use xlink:href="#path-17"></use>
                </mask>
                <use id="Clip-2509" fill="#D8D8D8" xlink:href="#path-17"></use>
                <path d="M12.0735789,7.87298246 C12.0735789,8.46436842 12.5532105,8.94422807 13.1450526,8.94422807 C13.7366667,8.94422807 14.2162982,8.46436842 14.2162982,7.87298246 C14.2162982,7.28114035 13.7366667,6.8012807 13.1450526,6.8012807 C12.5532105,6.8012807 12.0735789,7.28114035 12.0735789,7.87298246" id="Fill-2508" fill="#5AB148"></path>
                <mask id="mask-20" fill="white">
                    <use xlink:href="#path-19"></use>
                </mask>
                <use id="Clip-2512" fill="#91C73E" xlink:href="#path-19"></use>
                <path d="M16.0016316,13.0419649 C16.0016316,13.6429298 16.4892456,14.1296316 17.0897544,14.1296316 C17.6902632,14.1296316 18.1774211,13.6429298 18.1774211,13.0419649 C18.1774211,12.4414561 17.6902632,11.9545263 17.0897544,11.9545263 C16.4892456,11.9545263 16.0016316,12.4414561 16.0016316,13.0419649" id="Fill-2511" fill="#91C73E"></path>
                <mask id="mask-22" fill="white">
                    <use xlink:href="#path-21"></use>
                </mask>
                <use id="Clip-2515" fill="#91C73E" xlink:href="#path-21"></use>
                <path d="M10.8326491,13.0419649 C10.8326491,13.6429298 11.3193509,14.1296316 11.9203158,14.1296316 C12.5210526,14.1296316 13.0079825,13.6429298 13.0079825,13.0419649 C13.0079825,12.4414561 12.5210526,11.9545263 11.9203158,11.9545263 C11.3193509,11.9545263 10.8326491,12.4414561 10.8326491,13.0419649" id="Fill-2514" fill="#91C73E"></path>
                <mask id="mask-24" fill="white">
                    <use xlink:href="#path-23"></use>
                </mask>
                <use id="Clip-2518" fill="#D8D8D8" xlink:href="#path-23"></use>
                <path d="M10.6538421,5.61736842 C10.6538421,6.19917544 11.124807,6.67059649 11.7068421,6.67059649 C12.288193,6.67059649 12.7600702,6.19917544 12.7600702,5.61736842 C12.7600702,5.03601754 12.288193,4.56436842 11.7068421,4.56436842 C11.124807,4.56436842 10.6538421,5.03601754 10.6538421,5.61736842" id="Fill-2517" fill="#009544"></path>
                <mask id="mask-26" fill="white">
                    <use xlink:href="#path-25"></use>
                </mask>
                <use id="Clip-2521" fill="#D8D8D8" xlink:href="#path-25"></use>
                <path d="M16.2497719,5.61736842 C16.2497719,6.19917544 16.7216491,6.67059649 17.3027719,6.67059649 C17.8850351,6.67059649 18.3564561,6.19917544 18.3564561,5.61736842 C18.3564561,5.03601754 17.8850351,4.56436842 17.3027719,4.56436842 C16.7216491,4.56436842 16.2497719,5.03601754 16.2497719,5.61736842" id="Fill-2520" fill="#009544"></path>
                <mask id="mask-28" fill="white">
                    <use xlink:href="#path-27"></use>
                </mask>
                <use id="Clip-2524" fill="#D8D8D8" xlink:href="#path-27"></use>
                <path d="M17.9461579,8.36150877 C17.9461579,8.96201754 18.4333158,9.44917544 19.0340526,9.44917544 C19.6343333,9.44917544 20.1214912,8.96201754 20.1214912,8.36150877 C20.1214912,7.76077193 19.6343333,7.27384211 19.0340526,7.27384211 C18.4333158,7.27384211 17.9461579,7.76077193 17.9461579,8.36150877" id="Fill-2523" fill="#5AB148"></path>
                <mask id="mask-30" fill="white">
                    <use xlink:href="#path-29"></use>
                </mask>
                <use id="Clip-2527" fill="#D8D8D8" xlink:href="#path-29"></use>
                <path d="M8.88835088,8.36150877 C8.88835088,8.96201754 9.3752807,9.44917544 9.97601754,9.44917544 C10.5767544,9.44917544 11.0636842,8.96201754 11.0636842,8.36150877 C11.0636842,7.76077193 10.5767544,7.27384211 9.97601754,7.27384211 C9.3752807,7.27384211 8.88835088,7.76077193 8.88835088,8.36150877" id="Fill-2526" fill="#5AB148"></path>
                <mask id="mask-32" fill="white">
                    <use xlink:href="#path-31"></use>
                </mask>
                <use id="Clip-2530" fill="#D8D8D8" xlink:href="#path-31"></use>
                <path d="M8.17221053,11.5417193 C8.17221053,12.1967368 8.70315789,12.7276842 9.35817544,12.7276842 C10.0129649,12.7276842 10.5441404,12.1967368 10.5441404,11.5417193 C10.5441404,10.8864737 10.0129649,10.3555263 9.35817544,10.3555263 C8.70315789,10.3555263 8.17221053,10.8864737 8.17221053,11.5417193" id="Fill-2529" fill="#5AB148"></path>
                <mask id="mask-34" fill="white">
                    <use xlink:href="#path-33"></use>
                </mask>
                <use id="Clip-2533" fill="#D8D8D8" xlink:href="#path-33"></use>
                <path d="M18.4654737,11.5417193 C18.4654737,12.1967368 18.9966491,12.7276842 19.6514386,12.7276842 C20.3069123,12.7276842 20.8380877,12.1967368 20.8380877,11.5417193 C20.8380877,10.8864737 20.3069123,10.3555263 19.6514386,10.3555263 C18.9966491,10.3555263 18.4654737,10.8864737 18.4654737,11.5417193" id="Fill-2532" fill="#5AB148"></path>
                <mask id="mask-36" fill="white">
                    <use xlink:href="#path-35"></use>
                </mask>
                <use id="Clip-2536" fill="#D8D8D8" xlink:href="#path-35"></use>
                <path d="M13.6062105,5.62078947 C13.6062105,6.11661404 14.0089825,6.51938596 14.5050351,6.51938596 C15.0010877,6.51938596 15.4034035,6.11661404 15.4034035,5.62078947 C15.4034035,5.12450877 15.0010877,4.72242105 14.5050351,4.72242105 C14.0089825,4.72242105 13.6062105,5.12450877 13.6062105,5.62078947" id="Fill-2535" fill="#009544"></path>
                <mask id="mask-38" fill="white">
                    <use xlink:href="#path-37"></use>
                </mask>
                <use id="Clip-2539" fill="#D8D8D8" xlink:href="#path-37"></use>
                <path d="M13.7546842,3.63429825 C13.7546842,4.04824561 14.0901754,4.38442105 14.5050351,4.38442105 C14.9194386,4.38442105 15.2549298,4.04824561 15.2549298,3.63429825 C15.2549298,3.21966667 14.9194386,2.8837193 14.5050351,2.8837193 C14.0901754,2.8837193 13.7546842,3.21966667 13.7546842,3.63429825" id="Fill-2538" fill="#009544"></path>
                <mask id="mask-40" fill="white">
                    <use xlink:href="#path-39"></use>
                </mask>
                <use id="Clip-2542" fill="#D8D8D8" xlink:href="#path-39"></use>
                <path d="M13.9558421,1.80449123 C13.9558421,2.10782456 14.2014737,2.35368421 14.5050351,2.35368421 C14.8083684,2.35368421 15.054,2.10782456 15.054,1.80449123 C15.054,1.50138596 14.8083684,1.25552632 14.5050351,1.25552632 C14.2014737,1.25552632 13.9558421,1.50138596 13.9558421,1.80449123" id="Fill-2541" fill="#009544"></path>
                <mask id="mask-42" fill="white">
                    <use xlink:href="#path-41"></use>
                </mask>
                <use id="Clip-2545" fill="#D8D8D8" xlink:href="#path-41"></use>
                <path d="M14.1371579,0.367877193 C14.1371579,0.571315789 14.3018246,0.736210526 14.5050351,0.736210526 C14.7082456,0.736210526 14.8729123,0.571315789 14.8729123,0.367877193 C14.8729123,0.164666667 14.7082456,0 14.5050351,0 C14.3018246,0 14.1371579,0.164666667 14.1371579,0.367877193" id="Fill-2544" fill="#009544"></path>
                <mask id="mask-44" fill="white">
                    <use xlink:href="#path-43"></use>
                </mask>
                <use id="Clip-2548" fill="#D8D8D8" xlink:href="#path-43"></use>
                <path d="M18.2180175,4.01517544 C18.2180175,4.42980702 18.554193,4.76552632 18.9685965,4.76552632 C19.3827719,4.76552632 19.7189474,4.42980702 19.7189474,4.01517544 C19.7189474,3.601 19.3827719,3.26505263 18.9685965,3.26505263 C18.554193,3.26505263 18.2180175,3.601 18.2180175,4.01517544" id="Fill-2547" fill="#009544"></path>
                <mask id="mask-46" fill="white">
                    <use xlink:href="#path-45"></use>
                </mask>
                <use id="Clip-2551" fill="#D8D8D8" xlink:href="#path-45"></use>
                <path d="M20.1812456,3.36357895 C20.1812456,3.66668421 20.4271053,3.91277193 20.7306667,3.91277193 C21.0337719,3.91277193 21.2794035,3.66668421 21.2794035,3.36357895 C21.2794035,3.06001754 21.0337719,2.81415789 20.7306667,2.81415789 C20.4271053,2.81415789 20.1812456,3.06001754 20.1812456,3.36357895" id="Fill-2550" fill="#009544"></path>
                <mask id="mask-48" fill="white">
                    <use xlink:href="#path-47"></use>
                </mask>
                <use id="Clip-2554" fill="#D8D8D8" xlink:href="#path-47"></use>
                <path d="M21.7373684,2.96445614 C21.7373684,3.16766667 21.9024912,3.3325614 22.1054737,3.3325614 C22.3086842,3.3325614 22.4731228,3.16766667 22.4731228,2.96445614 C22.4731228,2.76101754 22.3086842,2.59635088 22.1054737,2.59635088 C21.9024912,2.59635088 21.7373684,2.76101754 21.7373684,2.96445614" id="Fill-2553" fill="#009544"></path>
                <mask id="mask-50" fill="white">
                    <use xlink:href="#path-49"></use>
                </mask>
                <use id="Clip-2557" fill="#D8D8D8" xlink:href="#path-49"></use>
                <path d="M9.29135088,4.01517544 C9.29135088,4.42980702 9.62707018,4.76552632 10.0412456,4.76552632 C10.4558772,4.76552632 10.7915965,4.42980702 10.7915965,4.01517544 C10.7915965,3.601 10.4558772,3.26505263 10.0412456,3.26505263 C9.62707018,3.26505263 9.29135088,3.601 9.29135088,4.01517544" id="Fill-2556" fill="#009544"></path>
                <mask id="mask-52" fill="white">
                    <use xlink:href="#path-51"></use>
                </mask>
                <use id="Clip-2560" fill="#D8D8D8" xlink:href="#path-51"></use>
                <path d="M7.73021053,3.36357895 C7.73021053,3.66668421 7.97607018,3.91277193 8.27940351,3.91277193 C8.58273684,3.91277193 8.82859649,3.66668421 8.82859649,3.36357895 C8.82859649,3.06001754 8.58273684,2.81415789 8.27940351,2.81415789 C7.97607018,2.81415789 7.73021053,3.06001754 7.73021053,3.36357895" id="Fill-2559" fill="#009544"></path>
                <mask id="mask-54" fill="white">
                    <use xlink:href="#path-53"></use>
                </mask>
                <use id="Clip-2563" fill="#D8D8D8" xlink:href="#path-53"></use>
                <path d="M6.53649123,2.96445614 C6.53649123,3.16766667 6.70115789,3.3325614 6.90436842,3.3325614 C7.10757895,3.3325614 7.27224561,3.16766667 7.27224561,2.96445614 C7.27224561,2.76101754 7.10757895,2.59635088 6.90436842,2.59635088 C6.70115789,2.59635088 6.53649123,2.76101754 6.53649123,2.96445614" id="Fill-2562" fill="#009544"></path>
                <mask id="mask-56" fill="white">
                    <use xlink:href="#path-55"></use>
                </mask>
                <use id="Clip-2566" fill="#D8D8D8" xlink:href="#path-55"></use>
                <path d="M20.468386,7.2325614 C20.468386,7.72405263 20.8675088,8.12294737 21.359,8.12294737 C21.8507193,8.12294737 22.249386,7.72405263 22.249386,7.2325614 C22.249386,6.74061404 21.8507193,6.34217544 21.359,6.34217544 C20.8675088,6.34217544 20.468386,6.74061404 20.468386,7.2325614" id="Fill-2565" fill="#5AB148"></path>
                <mask id="mask-58" fill="white">
                    <use xlink:href="#path-57"></use>
                </mask>
                <use id="Clip-2569" fill="#D8D8D8" xlink:href="#path-57"></use>
                <path d="M22.8868421,6.94450877 C22.8868421,7.31694737 23.188807,7.61914035 23.5612456,7.61914035 C23.9339123,7.61914035 24.2363333,7.31694737 24.2363333,6.94450877 C24.2363333,6.57184211 23.9339123,6.26987719 23.5612456,6.26987719 C23.188807,6.26987719 22.8868421,6.57184211 22.8868421,6.94450877" id="Fill-2568" fill="#5AB148"></path>
                <mask id="mask-60" fill="white">
                    <use xlink:href="#path-59"></use>
                </mask>
                <use id="Clip-2572" fill="#D8D8D8" xlink:href="#path-59"></use>
                <path d="M24.8313684,7.65745614 C24.8313684,7.86066667 24.9962632,8.0255614 25.1992456,8.0255614 C25.4026842,8.0255614 25.5675789,7.86066667 25.5675789,7.65745614 C25.5675789,7.45424561 25.4026842,7.28957895 25.1992456,7.28957895 C24.9962632,7.28957895 24.8313684,7.45424561 24.8313684,7.65745614" id="Fill-2571" fill="#5AB148"></path>
                <mask id="mask-62" fill="white">
                    <use xlink:href="#path-61"></use>
                </mask>
                <use id="Clip-2575" fill="#D8D8D8" xlink:href="#path-61"></use>
                <path d="M6.76045614,7.2325614 C6.76045614,7.72405263 7.15935088,8.12294737 7.65084211,8.12294737 C8.14278947,8.12294737 8.54168421,7.72405263 8.54168421,7.2325614 C8.54168421,6.74061404 8.14278947,6.34217544 7.65084211,6.34217544 C7.15935088,6.34217544 6.76045614,6.74061404 6.76045614,7.2325614" id="Fill-2574" fill="#5AB148"></path>
                <mask id="mask-64" fill="white">
                    <use xlink:href="#path-63"></use>
                </mask>
                <use id="Clip-2578" fill="#D8D8D8" xlink:href="#path-63"></use>
                <path d="M4.77373684,6.94450877 C4.77373684,7.31694737 5.07570175,7.61914035 5.44814035,7.61914035 C5.82126316,7.61914035 6.12322807,7.31694737 6.12322807,6.94450877 C6.12322807,6.57184211 5.82126316,6.26987719 5.44814035,6.26987719 C5.07570175,6.26987719 4.77373684,6.57184211 4.77373684,6.94450877" id="Fill-2577" fill="#5AB148"></path>
                <mask id="mask-66" fill="white">
                    <use xlink:href="#path-65"></use>
                </mask>
                <use id="Clip-2581" fill="#D8D8D8" xlink:href="#path-65"></use>
                <path d="M3.44226316,7.65745614 C3.44226316,7.86066667 3.60738596,8.0255614 3.81036842,8.0255614 C4.01380702,8.0255614 4.17870175,7.86066667 4.17870175,7.65745614 C4.17870175,7.45424561 4.01380702,7.28957895 3.81036842,7.28957895 C3.60738596,7.28957895 3.44226316,7.45424561 3.44226316,7.65745614" id="Fill-2580" fill="#5AB148"></path>
                <mask id="mask-68" fill="white">
                    <use xlink:href="#path-67"></use>
                </mask>
                <use id="Clip-2584" fill="#D8D8D8" xlink:href="#path-67"></use>
                <path d="M21.3254737,11.7556491 C21.3254737,12.2900175 21.7581228,12.7228947 22.2924912,12.7228947 C22.8264035,12.7228947 23.2592807,12.2900175 23.2592807,11.7556491 C23.2592807,11.2215088 22.8264035,10.7886316 22.2924912,10.7886316 C21.7581228,10.7886316 21.3254737,11.2215088 21.3254737,11.7556491" id="Fill-2583" fill="#5AB148"></path>
                <mask id="mask-70" fill="white">
                    <use xlink:href="#path-69"></use>
                </mask>
                <use id="Clip-2587" fill="#D8D8D8" xlink:href="#path-69"></use>
                <path d="M23.5774386,12.3160175 C23.5774386,12.7345263 23.9163509,13.0736667 24.3350877,13.0736667 C24.7531404,13.0736667 25.0922807,12.7345263 25.0922807,12.3160175 C25.0922807,11.8979649 24.7531404,11.5588246 24.3350877,11.5588246 C23.9163509,11.5588246 23.5774386,11.8979649 23.5774386,12.3160175" id="Fill-2586" fill="#5AB148"></path>
                <mask id="mask-72" fill="white">
                    <use xlink:href="#path-71"></use>
                </mask>
                <use id="Clip-2590" fill="#D8D8D8" xlink:href="#path-71"></use>
                <path d="M25.0799649,13.39 C25.0799649,13.6905965 25.324,13.9350877 25.6248246,13.9350877 C25.9261053,13.9350877 26.1701404,13.6905965 26.1701404,13.39 C26.1701404,13.0889474 25.9261053,12.8449123 25.6248246,12.8449123 C25.324,12.8449123 25.0799649,13.0889474 25.0799649,13.39" id="Fill-2589" fill="#5AB148"></path>
                <mask id="mask-74" fill="white">
                    <use xlink:href="#path-73"></use>
                </mask>
                <use id="Clip-2593" fill="#D8D8D8" xlink:href="#path-73"></use>
                <path d="M26.0750351,14.391 C26.0750351,14.5944386 26.2397018,14.7591053 26.4429123,14.7591053 C26.6404211,14.7591053 26.8016667,14.6037895 26.8107895,14.4083333 L26.8107895,14.3736667 C26.8016667,14.1784386 26.6404211,14.0228947 26.4429123,14.0228947 C26.2397018,14.0228947 26.0750351,14.1877895 26.0750351,14.391" id="Fill-2592" fill="#5AB148"></path>
                <mask id="mask-76" fill="white">
                    <use xlink:href="#path-75"></use>
                </mask>
                <use id="Clip-2596" fill="#D8D8D8" xlink:href="#path-75"></use>
                <path d="M5.75033333,11.7556491 C5.75033333,12.2900175 6.1834386,12.7228947 6.71735088,12.7228947 C7.25149123,12.7228947 7.68459649,12.2900175 7.68459649,11.7556491 C7.68459649,11.2215088 7.25149123,10.7886316 6.71735088,10.7886316 C6.1834386,10.7886316 5.75033333,11.2215088 5.75033333,11.7556491" id="Fill-2595" fill="#5AB148"></path>
                <mask id="mask-78" fill="white">
                    <use xlink:href="#path-77"></use>
                </mask>
                <use id="Clip-2599" fill="#D8D8D8" xlink:href="#path-77"></use>
                <path d="M3.9175614,12.3160175 C3.9175614,12.7345263 4.25647368,13.0736667 4.67498246,13.0736667 C5.09349123,13.0736667 5.43217544,12.7345263 5.43217544,12.3160175 C5.43217544,11.8979649 5.09349123,11.5588246 4.67498246,11.5588246 C4.25647368,11.5588246 3.9175614,11.8979649 3.9175614,12.3160175" id="Fill-2598" fill="#5AB148"></path>
                <mask id="mask-80" fill="white">
                    <use xlink:href="#path-79"></use>
                </mask>
                <use id="Clip-2602" fill="#D8D8D8" xlink:href="#path-79"></use>
                <path d="M2.83970175,13.39 C2.83970175,13.6905965 3.08373684,13.9350877 3.3845614,13.9350877 C3.68561404,13.9350877 3.92964912,13.6905965 3.92964912,13.39 C3.92964912,13.0889474 3.68561404,12.8449123 3.3845614,12.8449123 C3.08373684,12.8449123 2.83970175,13.0889474 2.83970175,13.39" id="Fill-2601" fill="#5AB148"></path>
                <mask id="mask-82" fill="white">
                    <use xlink:href="#path-81"></use>
                </mask>
                <use id="Clip-2605" fill="#D8D8D8" xlink:href="#path-81"></use>
                <path d="M2.19882456,14.391 C2.19882456,14.5944386 2.3637193,14.7591053 2.56670175,14.7591053 C2.77014035,14.7591053 2.93503509,14.5944386 2.93503509,14.391 C2.93503509,14.1877895 2.77014035,14.0228947 2.56670175,14.0228947 C2.3637193,14.0228947 2.19882456,14.1877895 2.19882456,14.391" id="Fill-2604" fill="#5AB148"></path>
                <mask id="mask-84" fill="white">
                    <use xlink:href="#path-83"></use>
                </mask>
                <use id="Clip-2608" fill="#91C73E" xlink:href="#path-83"></use>
                <path d="M18.1115088,14.2110526 C18.1115088,14.6797368 18.4914737,15.0597018 18.9597018,15.0597018 C19.428614,15.0597018 19.8083509,14.6797368 19.8083509,14.2110526 C19.8083509,13.7425965 19.428614,13.3628596 18.9597018,13.3628596 C18.4914737,13.3628596 18.1115088,13.7425965 18.1115088,14.2110526" id="Fill-2607" fill="#91C73E"></path>
                <mask id="mask-86" fill="white">
                    <use xlink:href="#path-85"></use>
                </mask>
                <use id="Clip-2611" fill="#91C73E" xlink:href="#path-85"></use>
                <path d="M19.4929298,15.6709298 C19.4929298,16.0885263 19.831614,16.4267544 20.2494386,16.4267544 C20.6665789,16.4267544 21.0052632,16.0885263 21.0052632,15.6709298 C21.0052632,15.2535614 20.6665789,14.9151053 20.2494386,14.9151053 C19.831614,14.9151053 19.4929298,15.2535614 19.4929298,15.6709298" id="Fill-2610" fill="#91C73E"></path>
                <mask id="mask-88" fill="white">
                    <use xlink:href="#path-87"></use>
                </mask>
                <use id="Clip-2614" fill="#91C73E" xlink:href="#path-87"></use>
                <path d="M20.2549123,17.2158772 C20.2549123,17.4834035 20.471807,17.7000702 20.7393333,17.7000702 C21.0066316,17.7000702 21.2232982,17.4834035 21.2232982,17.2158772 C21.2232982,16.9483509 21.0066316,16.7316842 20.7393333,16.7316842 C20.471807,16.7316842 20.2549123,16.9483509 20.2549123,17.2158772" id="Fill-2613" fill="#91C73E"></path>
                <mask id="mask-90" fill="white">
                    <use xlink:href="#path-89"></use>
                </mask>
                <use id="Clip-2617" fill="#91C73E" xlink:href="#path-89"></use>
                <path d="M20.520386,18.6071053 C20.520386,18.8103158 20.6852807,18.9749825 20.8884912,18.9749825 C21.0917018,18.9749825 21.2563684,18.8103158 21.2563684,18.6071053 C21.2563684,18.4036667 21.0917018,18.239 20.8884912,18.239 C20.6852807,18.239 20.520386,18.4036667 20.520386,18.6071053" id="Fill-2616" fill="#91C73E"></path>
                <mask id="mask-92" fill="white">
                    <use xlink:href="#path-91"></use>
                </mask>
                <use id="Clip-2620" fill="#91C73E" xlink:href="#path-91"></use>
                <path d="M9.2017193,14.2110526 C9.2017193,14.6797368 9.58122807,15.0597018 10.0499123,15.0597018 C10.5185965,15.0597018 10.8985614,14.6797368 10.8985614,14.2110526 C10.8985614,13.7425965 10.5185965,13.3628596 10.0499123,13.3628596 C9.58122807,13.3628596 9.2017193,13.7425965 9.2017193,14.2110526" id="Fill-2619" fill="#91C73E"></path>
                <mask id="mask-94" fill="white">
                    <use xlink:href="#path-93"></use>
                </mask>
                <use id="Clip-2623" fill="#91C73E" xlink:href="#path-93"></use>
                <path d="M8.00480702,15.6709298 C8.00480702,16.0885263 8.34326316,16.4267544 8.76085965,16.4267544 C9.17822807,16.4267544 9.51668421,16.0885263 9.51668421,15.6709298 C9.51668421,15.2535614 9.17822807,14.9151053 8.76085965,14.9151053 C8.34326316,14.9151053 8.00480702,15.2535614 8.00480702,15.6709298" id="Fill-2622" fill="#91C73E"></path>
                <mask id="mask-96" fill="white">
                    <use xlink:href="#path-95"></use>
                </mask>
                <use id="Clip-2626" fill="#91C73E" xlink:href="#path-95"></use>
                <path d="M7.78654386,17.2158772 C7.78654386,17.4834035 8.00321053,17.7000702 8.27096491,17.7000702 C8.53803509,17.7000702 8.75470175,17.4834035 8.75470175,17.2158772 C8.75470175,16.9483509 8.53803509,16.7316842 8.27096491,16.7316842 C8.00321053,16.7316842 7.78654386,16.9483509 7.78654386,17.2158772" id="Fill-2625" fill="#91C73E"></path>
                <mask id="mask-98" fill="white">
                    <use xlink:href="#path-97"></use>
                </mask>
                <use id="Clip-2629" fill="#91C73E" xlink:href="#path-97"></use>
                <path d="M7.75324561,18.6071053 C7.75324561,18.8103158 7.91791228,18.9749825 8.12112281,18.9749825 C8.3245614,18.9749825 8.489,18.8103158 8.489,18.6071053 C8.489,18.4036667 8.3245614,18.239 8.12112281,18.239 C7.91791228,18.239 7.75324561,18.4036667 7.75324561,18.6071053" id="Fill-2628" fill="#91C73E"></path>
                <mask id="mask-100" fill="white">
                    <use xlink:href="#path-99"></use>
                </mask>
                <g id="Clip-2632"></g>
                <mask id="mask-102" fill="white">
                    <use xlink:href="#path-101"></use>
                </mask>
                <g id="Clip-2635"></g>
                <mask id="mask-104" fill="white">
                    <use xlink:href="#path-103"></use>
                </mask>
                <g id="Clip-2641"></g>
                <mask id="mask-106" fill="white">
                    <use xlink:href="#path-105"></use>
                </mask>
                <g id="Clip-2644"></g>
                <mask id="mask-108" fill="white">
                    <use xlink:href="#path-107"></use>
                </mask>
                <g id="Clip-2647"></g>
                <mask id="mask-110" fill="white">
                    <use xlink:href="#path-109"></use>
                </mask>
                <g id="Clip-2650"></g>
                <mask id="mask-112" fill="white">
                    <use xlink:href="#path-111"></use>
                </mask>
                <g id="Clip-2653"></g>
                <mask id="mask-114" fill="white">
                    <use xlink:href="#path-113"></use>
                </mask>
                <g id="Clip-2656"></g>
                <path d="M0.000912280702,23.0517368 C0.000912280702,22.8485263 0.165350877,22.6836316 0.368333333,22.6836316 C0.57154386,22.6836316 0.736210526,22.8485263 0.736210526,23.0517368 C0.736210526,23.2547193 0.57154386,23.419386 0.368333333,23.419386 C0.165350877,23.419386 0.000912280702,23.2547193 0.000912280702,23.0517368 Z" id="Clip-2674" mask="url(#mask-114)"></path>
                <mask id="mask-116" fill="white">
                    <use xlink:href="#path-115"></use>
                </mask>
                <g id="Clip-2677"></g>
                <mask id="mask-118" fill="white">
                    <use xlink:href="#path-117"></use>
                </mask>
                <g id="Clip-2680"></g>
                <mask id="mask-120" fill="white">
                    <use xlink:href="#path-119"></use>
                </mask>
                <g id="Clip-2683"></g>
                <mask id="mask-122" fill="white">
                    <use xlink:href="#path-121"></use>
                </mask>
                <g id="Clip-2686"></g>
                <mask id="mask-124" fill="white">
                    <use xlink:href="#path-123"></use>
                </mask>
                <g id="Clip-2689"></g>
                <mask id="mask-126" fill="white">
                    <use xlink:href="#path-125"></use>
                </mask>
                <g id="Clip-2692"></g>
                <mask id="mask-128" fill="white">
                    <use xlink:href="#path-127"></use>
                </mask>
                <g id="Clip-2695"></g>
                <mask id="mask-130" fill="white">
                    <use xlink:href="#path-129"></use>
                </mask>
                <g id="Clip-2698"></g>
                <mask id="mask-132" fill="white">
                    <use xlink:href="#path-131"></use>
                </mask>
                <g id="Clip-2701"></g>
                <mask id="mask-134" fill="white">
                    <use xlink:href="#path-133"></use>
                </mask>
                <g id="Clip-2704"></g>
                <mask id="mask-136" fill="white">
                    <use xlink:href="#path-135"></use>
                </mask>
                <g id="Clip-2716"></g>
                <mask id="mask-138" fill="white">
                    <use xlink:href="#path-137"></use>
                </mask>
                <g id="Clip-2719"></g>
                <mask id="mask-140" fill="white">
                    <use xlink:href="#path-139"></use>
                </mask>
                <g id="Clip-2722"></g>
                <mask id="mask-142" fill="white">
                    <use xlink:href="#path-141"></use>
                </mask>
                <g id="Clip-2725"></g>
                <mask id="mask-144" fill="white">
                    <use xlink:href="#path-143"></use>
                </mask>
                <g id="Clip-2728"></g>
                <mask id="mask-146" fill="white">
                    <use xlink:href="#path-145"></use>
                </mask>
                <g id="Clip-2731"></g>
                <mask id="mask-148" fill="white">
                    <use xlink:href="#path-147"></use>
                </mask>
                <g id="Clip-2734"></g>
                <path d="M28.2807018,22.9470526 C28.2807018,23.1504912 28.4455965,23.3151579 28.6485789,23.3151579 C28.8520175,23.3151579 29.0169123,23.1504912 29.0169123,22.9470526 C29.0169123,22.7438421 28.8520175,22.5789474 28.6485789,22.5789474 C28.4455965,22.5789474 28.2807018,22.7438421 28.2807018,22.9470526" id="Fill-2604-Copy-2" fill="#E7C48A"></path>
                <path d="M28.281614,23.0517368 C28.281614,22.8485263 28.4460526,22.6836316 28.6490351,22.6836316 C28.8522456,22.6836316 29.0169123,22.8485263 29.0169123,23.0517368 C29.0169123,23.2547193 28.8522456,23.419386 28.6490351,23.419386 C28.4460526,23.419386 28.281614,23.2547193 28.281614,23.0517368 Z" id="Clip-2674-Copy"></path>
                <path d="M27.0063852,22.8959649 C27.0063852,23.1965614 27.2504203,23.4410526 27.5512449,23.4410526 C27.8522975,23.4410526 28.0963326,23.1965614 28.0963326,22.8959649 C28.0963326,22.5949123 27.8522975,22.3508772 27.5512449,22.3508772 C27.2504203,22.3508772 27.0063852,22.5949123 27.0063852,22.8959649" id="Fill-2601-Copy-2" fill="#E7C48A"></path>
                <path d="M25.3642772,22.9951754 C25.3642772,23.4136842 25.7031895,23.7528246 26.1216982,23.7528246 C26.540207,23.7528246 26.8788912,23.4136842 26.8788912,22.9951754 C26.8788912,22.5771228 26.540207,22.2379825 26.1216982,22.2379825 C25.7031895,22.2379825 25.3642772,22.5771228 25.3642772,22.9951754" id="Fill-2598-Copy-2" fill="#E7C48A"></path>
                <path d="M23.3116456,23.5459649 C23.3116456,24.0803333 23.7447509,24.5132105 24.2786632,24.5132105 C24.8128035,24.5132105 25.2459088,24.0803333 25.2459088,23.5459649 C25.2459088,23.0118246 24.8128035,22.5789474 24.2786632,22.5789474 C23.7447509,22.5789474 23.3116456,23.0118246 23.3116456,23.5459649" id="Fill-2595-Copy-2" fill="#E7C48A"></path>
                <path d="M10.767786,26.3719825 C10.767786,27.0815088 11.3427509,27.6567018 12.0520491,27.6567018 C12.7618035,27.6567018 13.3365404,27.0815088 13.3365404,26.3719825 C13.3365404,25.6626842 12.7618035,25.0877193 12.0520491,25.0877193 C11.3427509,25.0877193 10.767786,25.6626842 10.767786,26.3719825" id="Fill-2484-Copy-3" fill="#E7C48A"></path>
                <path d="M15.5572596,26.3719825 C15.5572596,27.0815088 16.1322246,27.6567018 16.8415228,27.6567018 C17.5512772,27.6567018 18.126014,27.0815088 18.126014,26.3719825 C18.126014,25.6626842 17.5512772,25.0877193 16.8415228,25.0877193 C16.1322246,25.0877193 15.5572596,25.6626842 15.5572596,26.3719825" id="Fill-2484-Copy-4" fill="#E7C48A"></path>
                <path d="M13.2765579,28.1965439 C13.2765579,28.9060702 13.8515228,29.4812632 14.5608211,29.4812632 C15.2705754,29.4812632 15.8453123,28.9060702 15.8453123,28.1965439 C15.8453123,27.4872456 15.2705754,26.9122807 14.5608211,26.9122807 C13.8515228,26.9122807 13.2765579,27.4872456 13.2765579,28.1965439" id="Fill-2484-Copy-5" fill="#E7C48A"></path>
                <path d="M10.9958561,30.2491754 C10.9958561,30.9587018 11.5708211,31.5338947 12.2801193,31.5338947 C12.9898737,31.5338947 13.5646105,30.9587018 13.5646105,30.2491754 C13.5646105,29.5398772 12.9898737,28.9649123 12.2801193,28.9649123 C11.5708211,28.9649123 10.9958561,29.5398772 10.9958561,30.2491754" id="Fill-2484-Copy-6" fill="#E7C48A"></path>
                <path d="M15.5572596,30.2491754 C15.5572596,30.9587018 16.1322246,31.5338947 16.8415228,31.5338947 C17.5512772,31.5338947 18.126014,30.9587018 18.126014,30.2491754 C18.126014,29.5398772 17.5512772,28.9649123 16.8415228,28.9649123 C16.1322246,28.9649123 15.5572596,29.5398772 15.5572596,30.2491754" id="Fill-2484-Copy-7" fill="#E7C48A"></path>
                <path d="M17.6098912,32.2037368 C17.6098912,32.8587544 18.1408386,33.3897018 18.7958561,33.3897018 C19.4506456,33.3897018 19.9818211,32.8587544 19.9818211,32.2037368 C19.9818211,31.5484912 19.4506456,31.0175439 18.7958561,31.0175439 C18.1408386,31.0175439 17.6098912,31.5484912 17.6098912,32.2037368" id="Fill-2529-Copy-4" fill="#DAB764"></path>
                <path d="M2.51164561,37.6774211 C2.51164561,38.3324386 3.04259298,38.863386 3.69761053,38.863386 C4.3524,38.863386 4.88357544,38.3324386 4.88357544,37.6774211 C4.88357544,37.0221754 4.3524,36.4912281 3.69761053,36.4912281 C3.04259298,36.4912281 2.51164561,37.0221754 2.51164561,37.6774211" id="Fill-2529-Copy-5" fill="#D2AA66"></path>
                <path d="M24.1783123,37.6774211 C24.1783123,38.3324386 24.7092596,38.863386 25.3642772,38.863386 C26.0190667,38.863386 26.5502421,38.3324386 26.5502421,37.6774211 C26.5502421,37.0221754 26.0190667,36.4912281 25.3642772,36.4912281 C24.7092596,36.4912281 24.1783123,37.0221754 24.1783123,37.6774211" id="Fill-2529-Copy-6" fill="#D2AA66"></path>
                <path d="M22.3993649,32.002807 C22.3993649,32.4213158 22.7382772,32.7604561 23.156786,32.7604561 C23.5752947,32.7604561 23.9139789,32.4213158 23.9139789,32.002807 C23.9139789,31.5847544 23.5752947,31.245614 23.156786,31.245614 C22.7382772,31.245614 22.3993649,31.5847544 22.3993649,32.002807" id="Fill-2598-Copy-4" fill="#D7B054"></path>
                <path d="M20.5748035,32.6870175 C20.5748035,33.1055263 20.9137158,33.4446667 21.3322246,33.4446667 C21.7507333,33.4446667 22.0894175,33.1055263 22.0894175,32.6870175 C22.0894175,32.2689649 21.7507333,31.9298246 21.3322246,31.9298246 C20.9137158,31.9298246 20.5748035,32.2689649 20.5748035,32.6870175" id="Fill-2598-Copy-5" fill="#D7B054"></path>
                <path d="M6.89059298,32.6870175 C6.89059298,33.1055263 7.22950526,33.4446667 7.64801404,33.4446667 C8.06652281,33.4446667 8.40520702,33.1055263 8.40520702,32.6870175 C8.40520702,32.2689649 8.06652281,31.9298246 7.64801404,31.9298246 C7.22950526,31.9298246 6.89059298,32.2689649 6.89059298,32.6870175" id="Fill-2598-Copy-6" fill="#D7B054"></path>
                <path d="M7.80287368,34.0554386 C7.80287368,34.4739474 8.14178596,34.8130877 8.56029474,34.8130877 C8.97880351,34.8130877 9.31748772,34.4739474 9.31748772,34.0554386 C9.31748772,33.637386 8.97880351,33.2982456 8.56029474,33.2982456 C8.14178596,33.2982456 7.80287368,33.637386 7.80287368,34.0554386" id="Fill-2598-Copy-7" fill="#D7B054"></path>
                <path d="M9.17129474,35.4238596 C9.17129474,35.8423684 9.51020702,36.1815088 9.92871579,36.1815088 C10.3472246,36.1815088 10.6859088,35.8423684 10.6859088,35.4238596 C10.6859088,35.005807 10.3472246,34.6666667 9.92871579,34.6666667 C9.51020702,34.6666667 9.17129474,35.005807 9.17129474,35.4238596" id="Fill-2598-Copy-9" fill="#D7B054"></path>
                <path d="M18.5221719,35.4238596 C18.5221719,35.8423684 18.8610842,36.1815088 19.279593,36.1815088 C19.6981018,36.1815088 20.036786,35.8423684 20.036786,35.4238596 C20.036786,35.005807 19.6981018,34.6666667 19.279593,34.6666667 C18.8610842,34.6666667 18.5221719,35.005807 18.5221719,35.4238596" id="Fill-2598-Copy-10" fill="#D7B054"></path>
                <path d="M16.6976105,35.88 C16.6976105,36.2985088 17.0365228,36.6376491 17.4550316,36.6376491 C17.8735404,36.6376491 18.2122246,36.2985088 18.2122246,35.88 C18.2122246,35.4619474 17.8735404,35.122807 17.4550316,35.122807 C17.0365228,35.122807 16.6976105,35.4619474 16.6976105,35.88" id="Fill-2598-Copy-11" fill="#D7B054"></path>
                <path d="M19.6625228,34.0554386 C19.6625228,34.4739474 20.0014351,34.8130877 20.4199439,34.8130877 C20.8384526,34.8130877 21.1771368,34.4739474 21.1771368,34.0554386 C21.1771368,33.637386 20.8384526,33.2982456 20.4199439,33.2982456 C20.0014351,33.2982456 19.6625228,33.637386 19.6625228,34.0554386" id="Fill-2598-Copy-8" fill="#D7B054"></path>
                <path d="M10.9958561,35.88 C10.9958561,36.2985088 11.3347684,36.6376491 11.7532772,36.6376491 C12.171786,36.6376491 12.5104702,36.2985088 12.5104702,35.88 C12.5104702,35.4619474 12.171786,35.122807 11.7532772,35.122807 C11.3347684,35.122807 10.9958561,35.4619474 10.9958561,35.88" id="Fill-2598-Copy-12" fill="#D7B054"></path>
                <path d="M6.20638246,35.6336842 C6.20638246,36.1680526 6.63948772,36.6009298 7.1734,36.6009298 C7.70754035,36.6009298 8.14064561,36.1680526 8.14064561,35.6336842 C8.14064561,35.0995439 7.70754035,34.6666667 7.1734,34.6666667 C6.63948772,34.6666667 6.20638246,35.0995439 6.20638246,35.6336842" id="Fill-2595-Copy-3" fill="#D2AA66"></path>
                <path d="M5.06603158,37.4582456 C5.06603158,37.992614 5.49913684,38.4254912 6.03304912,38.4254912 C6.56718947,38.4254912 7.00029474,37.992614 7.00029474,37.4582456 C7.00029474,36.9241053 6.56718947,36.4912281 6.03304912,36.4912281 C5.49913684,36.4912281 5.06603158,36.9241053 5.06603158,37.4582456" id="Fill-2595-Copy-4" fill="#D2AA66"></path>
                <path d="M20.8028737,35.6336842 C20.8028737,36.1680526 21.2359789,36.6009298 21.7698912,36.6009298 C22.3040316,36.6009298 22.7371368,36.1680526 22.7371368,35.6336842 C22.7371368,35.0995439 22.3040316,34.6666667 21.7698912,34.6666667 C21.2359789,34.6666667 20.8028737,35.0995439 20.8028737,35.6336842" id="Fill-2595-Copy-6" fill="#D2AA66"></path>
                <path d="M22.1712947,37.4582456 C22.1712947,37.992614 22.6044,38.4254912 23.1383123,38.4254912 C23.6724526,38.4254912 24.1055579,37.992614 24.1055579,37.4582456 C24.1055579,36.9241053 23.6724526,36.4912281 23.1383123,36.4912281 C22.6044,36.4912281 22.1712947,36.9241053 22.1712947,37.4582456" id="Fill-2595-Copy-5" fill="#D2AA66"></path>
            </g>
        </g>
    </g>
</svg>