<?xml version="1.0" encoding="UTF-8"?>
<svg width="32px" height="21px" viewBox="0 0 32 21" version="1.1" xmlns="http://www.w3.org/2000/svg" xmlns:xlink="http://www.w3.org/1999/xlink">
    <!-- Generator: sketchtool 51.3 (57544) - http://www.bohemiancoding.com/sketch -->
    <title>8EF06C07-A94F-49BE-9DE3-1A5E0A30BCCC@1.5x</title>
    <desc>Created with sketchtool.</desc>
    <defs></defs>
    <g id="Page-1" stroke="none" stroke-width="1" fill="none" fill-rule="evenodd">
        <g id="EventsDetails" transform="translate(-830.000000, -910.000000)" fill="#3A884B">
            <g id="Id" transform="translate(830.000000, 910.000000)">
                <path d="M9.05172414,9.4137931 C10.8514427,9.4137931 12.3103448,8.11695267 12.3103448,6.51726621 C12.3103448,4.91753009 10.8514427,3.62068966 9.05172414,3.62068966 C7.25200558,3.62068966 5.79310345,4.91753009 5.79310345,6.51726621 C5.79310345,8.11695267 7.25200558,9.4137931 9.05172414,9.4137931" id="Fill-1"></path>
                <path d="M11.4435517,9.4137931 C10.7976388,9.95452768 9.96359483,10.2797885 9.05471121,10.2797885 C8.14593621,10.2797885 7.31227241,9.95517508 6.66635948,9.41449445 C4.93185,10.3019617 3.70992155,12.1119092 3.62590345,14.2339 C3.62590345,14.2339 3.62068966,16.0127727 3.62068966,16.031601 C3.62068966,16.77648 6.05129483,17.3793103 9.04797672,17.3793103 C12.0437897,17.3793103 14.4737974,16.7769116 14.4752095,16.0301444 L14.4827586,14.2328749 C14.3987948,12.1108842 13.1781698,10.3012064 11.4435517,9.4137931" id="Fill-3"></path>
                <path d="M30.2689655,18.375 C30.2689655,18.954915 29.7934772,19.425 29.2068966,19.425 L2.65517241,19.425 C2.06859172,19.425 1.59310345,18.954915 1.59310345,18.375 L1.59310345,2.625 C1.59310345,2.045085 2.06859172,1.575 2.65517241,1.575 L29.2068966,1.575 C29.7934772,1.575 30.2689655,2.045085 30.2689655,2.625 L30.2689655,18.375 Z M29.737931,0 L2.12413793,0 C0.951029655,0 0,0.9402225 0,2.1 L0,18.9 C0,20.05983 0.951029655,21 2.12413793,21 L29.737931,21 C30.9110924,21 31.862069,20.05983 31.862069,18.9 L31.862069,2.1 C31.862069,0.9402225 30.9110924,0 29.737931,0 Z" id="Fill-5"></path>
                <path d="M27.7147335,7.96551724 L17.1818182,7.96551724 C16.8909517,7.96551724 16.6551724,8.12761552 16.6551724,8.32758621 C16.6551724,8.5275569 16.8909517,8.68965517 17.1818182,8.68965517 L27.7147335,8.68965517 C28.0055473,8.68965517 28.2413793,8.5275569 28.2413793,8.32758621 C28.2413793,8.12761552 28.0055473,7.96551724 27.7147335,7.96551724" id="Fill-7"></path>
                <path d="M27.7147335,11.5862069 L17.1818182,11.5862069 C16.8909517,11.5862069 16.6551724,11.7483414 16.6551724,11.9482759 C16.6551724,12.1482103 16.8909517,12.3103448 17.1818182,12.3103448 L27.7147335,12.3103448 C28.0055473,12.3103448 28.2413793,12.1482103 28.2413793,11.9482759 C28.2413793,11.7483414 28.0055473,11.5862069 27.7147335,11.5862069" id="Fill-9"></path>
                <path d="M27.7147335,15.2068966 L17.1818182,15.2068966 C16.8909517,15.2068966 16.6551724,15.369031 16.6551724,15.5689655 C16.6551724,15.7689 16.8909517,15.9310345 17.1818182,15.9310345 L27.7147335,15.9310345 C28.0055473,15.9310345 28.2413793,15.7689 28.2413793,15.5689655 C28.2413793,15.369031 28.0055473,15.2068966 27.7147335,15.2068966" id="Fill-11"></path>
                <path d="M27.7147335,4.34482759 L17.1818182,4.34482759 C16.8909517,4.34482759 16.6551724,4.50692586 16.6551724,4.70689655 C16.6551724,4.90686724 16.8909517,5.06896552 17.1818182,5.06896552 L27.7147335,5.06896552 C28.0055473,5.06896552 28.2413793,4.90686724 28.2413793,4.70689655 C28.2413793,4.50692586 28.0055473,4.34482759 27.7147335,4.34482759" id="Fill-13"></path>
            </g>
        </g>
    </g>
</svg>