<?xml version="1.0" encoding="UTF-8"?>
<svg width="80px" height="55px" viewBox="0 0 80 55" version="1.1" xmlns="http://www.w3.org/2000/svg" xmlns:xlink="http://www.w3.org/1999/xlink">
    <!-- Generator: sketchtool 51.2 (57519) - http://www.bohemiancoding.com/sketch -->
    <title>6BDEE7AD-DADC-44C4-9BD3-D4973F88D622@1.5x</title>
    <desc>Created with sketchtool.</desc>
    <defs></defs>
    <g id="Page-1" stroke="none" stroke-width="1" fill="none" fill-rule="evenodd">
        <g id="Service-Indicator" transform="translate(-50.000000, -10.000000)">
            <g id="Vision2030Color" transform="translate(50.000000, 10.000000)">
                <path d="M27.2941176,36 C26.8235294,36.25 26.4705882,36.375 26,36.625 C26.2352941,37.125 26.4705882,37.5 26.7058824,38 C27.1764706,37.75 27.6470588,37.5 28,37.25 C27.7647059,36.875 27.5294118,36.375 27.2941176,36" id="Shape" fill="#E4DF1F"></path>
                <path d="M3.34394904,23.7665057 L0.191082803,21.266027 C0.191082803,21.266027 3.15286624,16.5535863 8.40764331,17.0344476 C8.40764331,17.0344476 12.8980892,17.2267921 14.3312102,20.8813379 C14.3312102,20.8813379 15.8598726,25.7861231 12.3248408,28.9598077 C12.3248408,28.9598077 6.59235669,33.9607651 4.39490446,35.2110045 L7.07006369,34.0569374 L15,34.0569374 L15,38 L0,38 L0,34.2492819 L8.31210191,27.5172238 C10.0318471,26.0746399 11.3694268,23.1894722 9.26751592,21.4583715 C8.69426752,20.9775102 8.02547771,20.7851657 7.1656051,20.9775102 C5.54140127,21.266027 4.10828025,22.8047831 3.34394904,23.7665057" id="Shape" fill="#9E9EA0"></path>
                <path d="M43.0372919,20.7350154 L43.0372919,17 L56.6163853,17 L56.6163853,20.3519369 L51.5242252,25.427727 C51.5242252,25.427727 55.7676919,25.9065751 56.8049838,29.9288994 C57.9365749,34.5258413 53.976006,38.3566263 49.261043,37.9735478 C49.261043,37.9735478 45.2061748,38.1650871 42,34.3343021 L44.8289778,31.556983 C44.8289778,31.556983 46.9035615,34.3343021 49.9211378,33.9512236 C49.9211378,33.9512236 52.5615171,33.9512236 52.6558163,31.556983 C52.8444149,28.492355 49.1667437,28.3008157 46.9035615,28.5881246 L46.2434667,25.8108055 L52.7501156,19.2027014 L50.2040356,20.7350154 L43.0372919,20.7350154 L43.0372919,20.7350154 Z" id="Shape" fill="#9E9EA0"></path>
                <path d="M69,16 C75.0353982,16 80,20.9107143 80,27 C80,33.0892857 75.0353982,38 69,38 C62.9646018,38 58,33.0892857 58,27 C58.0973451,20.9107143 62.9646018,16 69,16 M69,20.2232143 C72.5044248,20.2232143 75.3274336,23.2678571 75.3274336,27 C75.3274336,30.7321429 72.5044248,33.7767857 69,33.7767857 C65.4955752,33.7767857 62.6725664,30.7321429 62.6725664,27 C62.6725664,23.2678571 65.5929204,20.2232143 69,20.2232143" id="Shape" fill="#9E9EA0"></path>
                <path d="M29,19 C29.375,18.6470588 29.625,18.4117647 30,18.0588235 C29.625,17.7058824 29.375,17.3529412 29,17 C28.625,17.3529412 28.25,17.7058824 28,18.0588235 C28.25,18.2941176 28.625,18.6470588 29,19" id="Shape" fill="#E4DF1F"></path>
                <path d="M29,15 C29.3636364,14.6666667 29.6363636,14.4166667 30,14.0833333 C29.6363636,13.75 29.3636364,13.3333333 29,13 C28.6363636,13.3333333 28.2727273,13.6666667 28,14.0833333 C28.3636364,14.4166667 28.6363636,14.6666667 29,15" id="Shape" fill="#8FC640"></path>
                <path d="M30.8421053,17 C31.2631579,16.7 31.5789474,16.5 32,16.2 C31.6842105,15.8 31.4736842,15.4 31.1578947,15 C30.7368421,15.3 30.3157895,15.6 30,15.9 C30.2105263,16.3 30.5263158,16.7 30.8421053,17" id="Shape" fill="#9E9EA0"></path>
                <path d="M32.2857143,20 C32.2142857,19.75 32.0714286,19.5 32,19.25 C32.2142857,19.1666667 32.5,19.0833333 32.7142857,19 C32.7857143,19.25 32.9285714,19.5 33,19.8333333 C32.7857143,19.8333333 32.5,19.9166667 32.2857143,20" id="Shape" fill="#56C6D0"></path>
                <path d="M31.4166667,20.9263158 C31.3333333,20.7578947 31.1666667,20.5052632 31,20.3368421 C31.25,20.2526316 31.4166667,20.0842105 31.6666667,20 C31.8333333,20.2526316 31.9166667,20.4210526 32,20.6736842 C31.8333333,20.7578947 31.5833333,20.8421053 31.4166667,20.9263158" id="Shape" fill="#8FC640"></path>
                <path d="M31.7058824,19 C31.4705882,18.625 31.2352941,18.125 31,17.75 C31.4705882,17.5 31.8235294,17.25 32.2941176,17 C32.5294118,17.5 32.7647059,18 33,18.375 C32.5294118,18.625 32.1764706,18.875 31.7058824,19" id="Shape" fill="#8FC640"></path>
                <path d="M30.875,19 C30.625,18.7857143 30.25,18.6428571 30,18.4285714 C30.375,18.2857143 30.75,18.1428571 31.125,18 C31.375,18.2142857 31.625,18.4285714 32,18.6428571 C31.625,18.7857143 31.25,18.9285714 30.875,19" id="Shape" fill="#56C6D0"></path>
                <path d="M28.1578947,17 C28.4736842,16.6842105 28.6842105,16.2631579 29,15.9473684 C28.5789474,15.6315789 28.2631579,15.3157895 27.8421053,15 C27.5263158,15.4210526 27.3157895,15.8421053 27,16.2631579 C27.4210526,16.4736842 27.8421053,16.7894737 28.1578947,17" id="Shape" fill="#174991"></path>
                <path d="M29,36 C29.375,36.3529412 29.625,36.5882353 30,36.9411765 C29.625,37.2941176 29.375,37.6470588 29,38 C28.625,37.6470588 28.25,37.2941176 28,36.9411765 C28.25,36.5882353 28.625,36.2352941 29,36" id="Shape" fill="#25B8EB"></path>
                <path d="M29,39 C29.3636364,39.3333333 29.6363636,39.5833333 30,39.9166667 C29.6363636,40.25 29.3636364,40.6666667 29,41 C28.6363636,40.6666667 28.2727273,40.3333333 28,39.9166667 C28.3636364,39.5833333 28.6363636,39.25 29,39" id="Shape" fill="#E4DF1F"></path>
                <path d="M30.8421053,37 C31.2631579,37.3 31.5789474,37.5 32,37.8 C31.6842105,38.2 31.4736842,38.6 31.1578947,39 C30.7368421,38.7 30.3157895,38.4 30,38.1 C30.2105263,37.7 30.5263158,37.4 30.8421053,37" id="Shape" fill="#56C6D0"></path>
                <path d="M28.1578947,37 C28.4736842,37.3157895 28.6842105,37.7368421 29,38.0526316 C28.5789474,38.3684211 28.2631579,38.6842105 27.8421053,39 C27.5263158,38.5789474 27.3157895,38.1578947 27,37.7368421 C27.4210526,37.5263158 27.8421053,37.3157895 28.1578947,37" id="Shape" fill="#8FC640"></path>
                <path d="M34.2142857,20 C34.5,19.9230769 34.7142857,19.9230769 35,19.9230769 C35,19.6153846 34.9285714,19.3076923 34.8571429,19 C34.5714286,19.0769231 34.2857143,19.0769231 34,19.1538462 C34.1428571,19.4615385 34.1428571,19.7692308 34.2142857,20" id="Shape" fill="#E4DF1F"></path>
                <path d="M36.3157895,18 C36.8421053,17.8947368 37.3684211,17.7894737 38,17.7894737 C38,17.1578947 37.8947368,16.6315789 37.7894737,16 C37.1578947,16.1052632 36.6315789,16.2105263 36,16.4210526 C36.1052632,16.8421053 36.2105263,17.4736842 36.3157895,18" id="Shape" fill="#25B8EB"></path>
                <path d="M36.1333333,19 L37,19 L37,18 C36.6666667,18 36.3333333,18 36,18.0714286 C36.0666667,18.3571429 36.1333333,18.6428571 36.1333333,19" id="Shape" fill="#56C6D0"></path>
                <path d="M36,21.8 C36,21.5333333 36.0769231,21.2666667 36.0769231,21 C36.3846154,21 36.6923077,21.0666667 37,21.1333333 C36.9230769,21.4 36.9230769,21.6666667 36.8461538,22 C36.6153846,21.9333333 36.3076923,21.8666667 36,21.8" id="Shape" fill="#9E9EA0"></path>
                <path d="M35.0835294,21.8333333 C35.0835294,21.5833333 35,21.25 35,21 C35.3341176,21 35.5847059,21 35.9188235,21.0833333 L35.9188235,22 C35.5847059,21.8333333 35.3341176,21.8333333 35.0835294,21.8333333" id="Shape" fill="#8FC640"></path>
                <path d="M33.2505882,21.7578947 C33.1670588,21.5052632 33.0835294,21.3368421 33,21.0842105 C33.2505882,21 33.5011765,21 33.7517647,21 C33.8352941,21.2526316 33.8352941,21.5052632 33.9188235,21.7578947 C33.7517647,21.6736842 33.5011765,21.6736842 33.2505882,21.7578947" id="Shape" fill="#9E9EA0"></path>
                <path d="M33.4705882,18 C33.9411765,17.8823529 34.4117647,17.7647059 35,17.6470588 C34.8823529,17.0588235 34.7647059,16.5882353 34.5294118,16 C34.0588235,16.2352941 33.4705882,16.3529412 33,16.5882353 C33.1176471,16.9411765 33.3529412,17.4117647 33.4705882,18" id="Shape" fill="#174991"></path>
                <path d="M23.8571429,34 C23.9285714,34.3076923 23.9285714,34.5384615 24,34.8461538 C23.7142857,34.9230769 23.4285714,35 23.1428571,35 C23.0714286,34.6923077 23.0714286,34.3846154 23,34.0769231 C23.3571429,34.0769231 23.5714286,34.0769231 23.8571429,34" id="Shape" fill="#E4DF1F"></path>
                <path d="M23.8352941,33.1666667 C23.8352941,33.4166667 23.9188235,33.75 23.9188235,34 C23.5847059,34 23.3341176,34 23,33.9166667 L23,33 C23.2505882,33.0833333 23.5847059,33.0833333 23.8352941,33.1666667" id="Shape" fill="#25B8EB"></path>
                <path d="M22.6842105,37 C22.7894737,37.5263158 22.8947368,38.0526316 23,38.5789474 C22.3684211,38.7894737 21.8421053,38.8947368 21.2105263,39 C21.1052632,38.3684211 21.1052632,37.8421053 21,37.2105263 C21.5263158,37.2105263 22.1578947,37.1052632 22.6842105,37" id="Shape" fill="#25B8EB"></path>
                <path d="M24.4117647,36 C24.5294118,36.4444444 24.7647059,36.8888889 25,37.4444444 C24.5294118,37.6666667 23.9411765,37.7777778 23.4705882,38 C23.3529412,37.4444444 23.1176471,37 23,36.4444444 C23.4705882,36.3333333 23.9411765,36.2222222 24.4117647,36" id="Shape" fill="#56C6D0"></path>
                <path d="M27.5333333,35 C27.3333333,35.1428571 27.1333333,35.2142857 27,35.3571429 C27.1333333,35.5714286 27.2666667,35.7857143 27.4,36 C27.6,35.8571429 27.8,35.7142857 28,35.5714286 C27.8666667,35.3571429 27.6666667,35.1428571 27.5333333,35" id="Shape" fill="#9E9EA0"></path>
                <path d="M27.6153846,34 C27.3846154,34.0842105 27.2307692,34.1684211 27,34.2526316 C27.0769231,34.5052632 27.2307692,34.6736842 27.3846154,34.9263158 C27.6153846,34.8421053 27.8461538,34.6736842 28,34.5894737 C27.8461538,34.3368421 27.7692308,34.1684211 27.6153846,34" id="Shape" fill="#9E9EA0"></path>
                <path d="M25.6666667,34 C25.4666667,34.0833333 25.2,34.1666667 25,34.1666667 C25.0666667,34.4166667 25.2,34.75 25.2666667,35 C25.5333333,34.9166667 25.7333333,34.8333333 26,34.6666667 C25.8666667,34.5 25.8,34.25 25.6666667,34" id="Shape" fill="#174991"></path>
                <path d="M25.6682353,33 L25,33 C25,33.2526316 25.0835294,33.5052632 25.1670588,33.7578947 C25.4176471,33.7578947 25.6682353,33.6736842 25.9188235,33.6736842 C25.8352941,33.4210526 25.7517647,33.2526316 25.6682353,33" id="Shape" fill="#8FC640"></path>
                <path d="M21.9333333,35 C21.9333333,35.2857143 21.9333333,35.6428571 22,35.9285714 C21.6666667,36 21.3333333,36 21,36 L21,35 C21.3333333,35 21.6,35 21.9333333,35" id="Shape" fill="#8FC640"></path>
                <path d="M38,24.25 C38.375,24.5 38.875,24.75 39.25,25 C39.5,24.5 39.75,24.125 40,23.625 C39.5,23.375 39.125,23.125 38.625,23 C38.375,23.5 38.125,23.875 38,24.25" id="Shape" fill="#E4DF1F"></path>
                <path d="M35,22.7578947 C35.2505882,22.8421053 35.4176471,22.8421053 35.6682353,22.9263158 C35.6682353,22.6736842 35.7517647,22.4210526 35.7517647,22.1684211 C35.5011765,22.0842105 35.2505882,22.0842105 35,22 L35,22.7578947" id="Shape" fill="#8FC640"></path>
                <path d="M36,23.6923077 C36.2307692,23.7692308 36.4615385,23.9230769 36.7692308,24 C36.8461538,23.7692308 36.9230769,23.4615385 37,23.2307692 C36.6923077,23.1538462 36.4615385,23.0769231 36.1538462,23 C36.0769231,23.2307692 36.0769231,23.4615385 36,23.6923077" id="Shape" fill="#25B8EB"></path>
                <path d="M41,23.3636364 C41.4347826,23.5454545 41.7826087,23.8181818 42.2173913,24 C42.4782609,23.5454545 42.7391304,23.0909091 43,22.6363636 C42.5652174,22.4545455 42.1304348,22.1818182 41.6086957,22 C41.4347826,22.4545455 41.173913,22.9090909 41,23.3636364" id="Shape" fill="#174991"></path>
                <path d="M39,25.1578947 C39.4,25.4736842 39.7,25.6842105 40.1,26 C40.4,25.5789474 40.7,25.2631579 41,24.8421053 C40.6,24.5263158 40.2,24.3157895 39.8,24 C39.5,24.4210526 39.2,24.8421053 39,25.1578947" id="Shape" fill="#8FC640"></path>
                <path d="M38,22.4444444 C38.4705882,22.5555556 38.9411765,22.7777778 39.4117647,23 C39.6470588,22.5555556 39.8823529,22 40,21.4444444 C39.5294118,21.3333333 38.9411765,21.1111111 38.3529412,21 C38.2352941,21.5555556 38.1176471,22 38,22.4444444" id="Shape" fill="#56C6D0"></path>
                <path d="M21,29.75 C20.75,30.125 20.625,30.625 20.375,31 C19.875,30.75 19.5,30.625 19,30.375 C19.25,29.875 19.5,29.5 19.75,29 C20.125,29.375 20.625,29.625 21,29.75" id="Shape" fill="#56C6D0"></path>
                <path d="M22.9188235,26.5 C22.7517647,26.6428571 22.5847059,26.7857143 22.5011765,27 C22.3341176,26.8571429 22.1670588,26.7142857 22,26.5 C22.1670588,26.3571429 22.3341176,26.1428571 22.5011765,26 C22.5847059,26.1428571 22.7517647,26.3571429 22.9188235,26.5" id="Shape" fill="#8FC640"></path>
                <path d="M21,28.875 C20.8461538,29.25 20.6923077,29.625 20.6153846,30 C20.3846154,29.75 20.1538462,29.5 20,29.125 C20.1538462,28.75 20.3076923,28.375 20.5384615,28 C20.6153846,28.375 20.7692308,28.625 21,28.875" id="Shape" fill="#E4DF1F"></path>
                <path d="M18,30.7272727 C17.826087,31.1818182 17.5652174,31.5454545 17.3913043,32 C16.9565217,31.8181818 16.4347826,31.6363636 16,31.3636364 C16.2608696,30.9090909 16.5217391,30.4545455 16.7826087,30 C17.2173913,30.2727273 17.5652174,30.4545455 18,30.7272727" id="Shape" fill="#56C6D0"></path>
                <path d="M20,31.5555556 C19.8888889,32 19.6666667,32.5555556 19.5555556,33 C19,32.8888889 18.5555556,32.7777778 18,32.5555556 C18.2222222,32 18.3333333,31.5555556 18.5555556,31 C19.1111111,31.2222222 19.5555556,31.3333333 20,31.5555556" id="Shape" fill="#E4DF1F"></path>
                <path d="M23.7517647,31.1684211 C23.5011765,31.0842105 23.3341176,31.0842105 23.0835294,31 C23.0835294,31.2526316 23,31.5052632 23,31.7578947 C23.2505882,31.8421053 23.5011765,31.8421053 23.7517647,31.9263158 C23.6682353,31.6736842 23.6682353,31.4210526 23.7517647,31.1684211" id="Shape" fill="#9E9EA0"></path>
                <path d="M22,32.2142857 C21.6923077,32.1428571 21.3846154,32.0714286 21.1538462,32 C21.0769231,32.2857143 21.0769231,32.5714286 21,32.8571429 C21.3076923,32.9285714 21.6153846,32.9285714 22,33 C21.9230769,32.7142857 22,32.4285714 22,32.2142857" id="Shape" fill="#9E9EA0"></path>
                <path d="M22,30.3076923 C21.7692308,30.2307692 21.4615385,30.0769231 21.2307692,30 C21.1538462,30.2307692 21.0769231,30.5384615 21,30.7692308 C21.3076923,30.8461538 21.5384615,30.9230769 21.8461538,31 C21.8461538,30.8461538 21.9230769,30.5384615 22,30.3076923" id="Shape" fill="#8FC640"></path>
                <path d="M22.9188235,29.3846154 C22.7517647,29.2307692 22.5011765,29.1538462 22.3341176,29 C22.2505882,29.2307692 22.0835294,29.3846154 22,29.6153846 C22.2505882,29.7692308 22.4176471,29.8461538 22.6682353,30 C22.7517647,29.8461538 22.8352941,29.6153846 22.9188235,29.3846154" id="Shape" fill="#174991"></path>
                <path d="M19,28.8421053 C18.7894737,29.2631579 18.4736842,29.5789474 18.2631579,30 C17.8421053,29.7894737 17.4210526,29.4736842 17,29.1578947 C17.3157895,28.7368421 17.6315789,28.3157895 17.9473684,28 C18.1578947,28.3157895 18.5789474,28.5263158 19,28.8421053" id="Shape" fill="#25B8EB"></path>
                <path d="M38,29.75 C38.25,30.125 38.375,30.625 38.625,31 C39.125,30.75 39.5,30.625 40,30.375 C39.75,29.875 39.5,29.5 39.25,29 C38.75,29.375 38.375,29.5 38,29.75" id="Shape" fill="#174991"></path>
                <path d="M37,26.125 C37.1538462,26.375 37.3846154,26.625 37.5384615,27 C37.6923077,26.625 37.8461538,26.25 38,25.875 C37.7692308,25.625 37.6153846,25.375 37.3846154,25 C37.3076923,25.375 37.1538462,25.75 37,26.125" id="Shape" fill="#9E9EA0"></path>
                <path d="M36,26.5 C36.1670588,26.6428571 36.3341176,26.7857143 36.4176471,27 C36.5847059,26.8571429 36.7517647,26.7142857 36.9188235,26.5 C36.7517647,26.3571429 36.5847059,26.2142857 36.4176471,26 C36.3341176,26.1428571 36.1670588,26.3571429 36,26.5" id="Shape" fill="#56C6D0"></path>
                <path d="M38,27 C38.3529412,27.3333333 38.5882353,27.6666667 38.9411765,28 C39.2941176,27.6666667 39.6470588,27.3333333 40,27 C39.6470588,26.6666667 39.2941176,26.3333333 38.9411765,26 C38.7058824,26.3333333 38.3529412,26.6666667 38,27" id="Shape" fill="#E4DF1F"></path>
                <path d="M37,28.875 C37.1538462,29.25 37.3076923,29.625 37.3846154,30 C37.6153846,29.75 37.8461538,29.5 38,29.125 C37.8461538,28.75 37.6923077,28.375 37.4615385,28 C37.3846154,28.375 37.1538462,28.625 37,28.875" id="Shape" fill="#174991"></path>
                <path d="M41,30.7272727 C41.173913,31.1818182 41.4347826,31.5454545 41.6086957,32 C42.0434783,31.8181818 42.5652174,31.6363636 43,31.3636364 C42.7391304,30.9090909 42.4782609,30.4545455 42.2173913,30 C41.7826087,30.2727273 41.4347826,30.5454545 41,30.7272727" id="Shape" fill="#25B8EB"></path>
                <path d="M36,24.6666667 C36.1670588,24.75 36.4176471,24.9166667 36.5847059,25 C36.6682353,24.75 36.7517647,24.5 36.8352941,24.3333333 C36.5847059,24.25 36.4176471,24.0833333 36.1670588,24 C36.1670588,24.1666667 36.0835294,24.4166667 36,24.6666667" id="Shape" fill="#8FC640"></path>
                <path d="M39,31.5555556 C39.1111111,32 39.3333333,32.4444444 39.4444444,33 C40,32.8888889 40.4444444,32.7777778 41,32.5555556 C40.7777778,32 40.6666667,31.5555556 40.4444444,31 C39.8888889,31.2222222 39.4444444,31.4444444 39,31.5555556" id="Shape" fill="#56C6D0"></path>
                <path d="M39,28.8421053 C39.3157895,29.2631579 39.5263158,29.5789474 39.7368421,30 C40.1578947,29.7894737 40.5789474,29.4736842 41,29.1578947 C40.6842105,28.7368421 40.3684211,28.4210526 40.0526316,28 C39.7368421,28.3157895 39.4210526,28.6315789 39,28.8421053" id="Shape" fill="#56C6D0"></path>
                <path d="M21,24.25 C20.625,24.5 20.125,24.75 19.75,25 C19.5,24.625 19.25,24.125 19,23.625 C19.5,23.375 19.875,23.125 20.375,23 C20.625,23.375 20.875,23.75 21,24.25" id="Shape" fill="#25B8EB"></path>
                <path d="M18,23.2727273 C17.5652174,23.4545455 17.2173913,23.7272727 16.7826087,24 C16.5217391,23.5454545 16.2608696,23.0909091 16,22.6363636 C16.4347826,22.3636364 16.8695652,22.1818182 17.3913043,22 C17.5652174,22.4545455 17.826087,22.9090909 18,23.2727273" id="Shape" fill="#56C6D0"></path>
                <path d="M19,25.1578947 C18.6,25.4736842 18.3,25.6842105 17.9,26 C17.6,25.5789474 17.3,25.2631579 17,24.8421053 C17.4,24.5263158 17.8,24.2105263 18.2,24 C18.5,24.3157895 18.7,24.7368421 19,25.1578947" id="Shape" fill="#8FC640"></path>
                <path d="M21,27 C20.6470588,26.6666667 20.4117647,26.3333333 20.0588235,26 C19.7058824,26.3333333 19.3529412,26.6666667 19,27 C19.3529412,27.3333333 19.7058824,27.6666667 20.0588235,28 C20.4117647,27.6666667 20.6470588,27.3333333 21,27" id="Shape" fill="#174991"></path>
                <path d="M21,26.125 C20.8461538,25.75 20.6923077,25.375 20.6153846,25 C20.3846154,25.25 20.1538462,25.5 20,25.875 C20.1538462,26.25 20.3076923,26.625 20.5384615,27 C20.6923077,26.75 20.8461538,26.5 21,26.125" id="Shape" fill="#56C6D0"></path>
                <path d="M20,22.4444444 C19.5294118,22.5555556 19.0588235,22.7777778 18.5882353,23 C18.3529412,22.5555556 18.1176471,22 18,21.4444444 C18.4705882,21.3333333 19.0588235,21.1111111 19.6470588,21 C19.7647059,21.4444444 19.8823529,22 20,22.4444444" id="Shape" fill="#174991"></path>
                <path d="M34.1538462,34 C34.0769231,34.3076923 34.0769231,34.5384615 34,34.8461538 C34.3076923,34.9230769 34.6153846,35 34.9230769,35 C35,34.6923077 35,34.3846154 35,34.0769231 C34.7692308,34.0769231 34.4615385,34.0769231 34.1538462,34" id="Shape" fill="#8FC640"></path>
                <path d="M36,30.3076923 C36.0833333,30.5384615 36.0833333,30.7692308 36.1666667,31 C36.4166667,30.9230769 36.75,30.8461538 37,30.7692308 C36.9166667,30.5384615 36.8333333,30.2307692 36.75,30 C36.5,30.0769231 36.25,30.1538462 36,30.3076923" id="Shape" fill="#E4DF1F"></path>
                <path d="M35,31.2526316 L35,31.9263158 C35.2505882,31.8421053 35.5011765,31.8421053 35.7517647,31.7578947 C35.7517647,31.5052632 35.6682353,31.2526316 35.6682353,31 C35.5011765,31.1684211 35.2505882,31.1684211 35,31.2526316" id="Shape" fill="#56C6D0"></path>
                <path d="M36,32.2 C36,32.4666667 36.0769231,32.7333333 36.0769231,33 C36.3846154,32.9333333 36.6923077,32.9333333 37,32.8666667 C36.9230769,32.6 36.9230769,32.3333333 36.8461538,32 C36.5384615,32.0666667 36.3076923,32.1333333 36,32.2" id="Shape" fill="#8FC640"></path>
                <path d="M35.0835294,33.1666667 C35.0835294,33.4166667 35.0835294,33.75 35,34 C35.3341176,34 35.5847059,34 35.9188235,33.9166667 L35.9188235,33 C35.6682353,33.0833333 35.4176471,33.1666667 35.0835294,33.1666667" id="Shape" fill="#9E9EA0"></path>
                <path d="M36.3157895,37 C36.2105263,37.5263158 36.1052632,38.0526316 36,38.5789474 C36.6315789,38.6842105 37.1578947,38.8947368 37.7894737,39 C37.8947368,38.3684211 37.8947368,37.8421053 38,37.2105263 C37.3684211,37.1052632 36.8421053,37.1052632 36.3157895,37" id="Shape" fill="#8FC640"></path>
                <path d="M36,29.3846154 C36.0835294,29.6153846 36.1670588,29.7692308 36.2505882,30 C36.5011765,29.9230769 36.6682353,29.7692308 36.9188235,29.6153846 C36.8352941,29.3846154 36.6682353,29.2307692 36.5847059,29 C36.4176471,29.1538462 36.1670588,29.3076923 36,29.3846154" id="Shape" fill="#9E9EA0"></path>
                <path d="M34.4705882,36 C34.3529412,36.4444444 34.1176471,36.8888889 34,37.4444444 C34.4705882,37.6666667 35.0588235,37.7777778 35.5294118,38 C35.6470588,37.4444444 35.8823529,37 36,36.4444444 C35.4117647,36.2222222 34.9411765,36.1111111 34.4705882,36" id="Shape" fill="#56C6D0"></path>
                <path d="M30.4666667,35 C30.6666667,35.1428571 30.8666667,35.2142857 31,35.3571429 C30.8666667,35.5714286 30.7333333,35.7857143 30.6,36 C30.4,35.8571429 30.2,35.7142857 30,35.5714286 C30.2,35.3571429 30.3333333,35.1428571 30.4666667,35" id="Shape" fill="#E4DF1F"></path>
                <path d="M31.3333333,34 C31.5833333,34.0842105 31.75,34.1684211 32,34.2526316 C31.9166667,34.5052632 31.75,34.6736842 31.6666667,34.9263158 C31.4166667,34.8421053 31.1666667,34.7578947 31,34.5894737 C31.0833333,34.4210526 31.25,34.2526316 31.3333333,34" id="Shape" fill="#9E9EA0"></path>
                <path d="M31.7058824,36 C32.1764706,36.1333333 32.5294118,36.2 33,36.2666667 C32.7647059,36.5333333 32.5294118,36.8 32.2941176,37 C31.8235294,36.8666667 31.3529412,36.7333333 31,36.6 C31.2352941,36.4 31.4705882,36.2 31.7058824,36" id="Shape" fill="#9E9EA0"></path>
                <path d="M32.3333333,34 C32.5333333,34.0833333 32.8,34.1666667 33,34.1666667 C32.9333333,34.4166667 32.8666667,34.75 32.7333333,35 C32.4666667,34.9166667 32.2666667,34.8333333 32,34.75 C32.1333333,34.5 32.2666667,34.25 32.3333333,34" id="Shape" fill="#8FC640"></path>
                <path d="M29.4615385,34 C29.6153846,34.1684211 29.7692308,34.3368421 30,34.4210526 C29.8461538,34.5894737 29.6923077,34.7578947 29.4615385,34.9263158 C29.3076923,34.7578947 29.1538462,34.5894737 29,34.4210526 C29.1538462,34.3368421 29.3076923,34.1684211 29.4615385,34" id="Shape" fill="#174991"></path>
                <path d="M33.2505882,33 L33.9188235,33 C33.9188235,33.2526316 33.8352941,33.5052632 33.7517647,33.7578947 C33.5011765,33.7578947 33.2505882,33.6736842 33,33.6736842 C33.0835294,33.5052632 33.1670588,33.2526316 33.2505882,33" id="Shape" fill="#9E9EA0"></path>
                <path d="M36.0666667,35 C36.0666667,35.2857143 36.0666667,35.6428571 36,35.9285714 C36.3333333,35.9285714 36.6666667,36 37,36 C37,35.6428571 37,35.3571429 36.9333333,35 C36.6666667,35 36.3333333,35 36.0666667,35" id="Shape" fill="#174991"></path>
                <path d="M23.8461538,20 C23.5384615,19.9230769 23.3076923,19.9230769 23,19.9230769 C23,19.6153846 23.0769231,19.3076923 23.0769231,19 C23.3846154,19.0769231 23.6923077,19.0769231 24,19.1538462 C24,19.4615385 23.9230769,19.6923077 23.8461538,20" id="Shape" fill="#E4DF1F"></path>
                <path d="M27.5333333,19 C27.3333333,18.8571429 27.1333333,18.7857143 27,18.6428571 C27.1333333,18.4285714 27.2666667,18.2142857 27.4,18 C27.6,18.1428571 27.8,18.2857143 28,18.4285714 C27.8666667,18.5714286 27.6666667,18.7857143 27.5333333,19" id="Shape" fill="#E4DF1F"></path>
                <path d="M27.6666667,20.9263158 C27.4166667,20.8421053 27.25,20.7578947 27,20.6736842 C27.0833333,20.4210526 27.25,20.2526316 27.3333333,20 C27.5833333,20.0842105 27.8333333,20.1684211 28,20.3368421 C27.9166667,20.5052632 27.8333333,20.7578947 27.6666667,20.9263158" id="Shape" fill="#9E9EA0"></path>
                <path d="M26.2941176,18 C25.8235294,17.8666667 25.4705882,17.8 25,17.7333333 C25.2352941,17.4666667 25.4705882,17.2 25.7058824,17 C26.1764706,17.1333333 26.6470588,17.2666667 27,17.4 C26.6470588,17.5333333 26.4117647,17.7333333 26.2941176,18" id="Shape" fill="#25B8EB"></path>
                <path d="M25.6666667,20 C25.4666667,19.9166667 25.2,19.8333333 25,19.8333333 C25.0666667,19.5833333 25.1333333,19.25 25.2666667,19 C25.5333333,19.0833333 25.7333333,19.1666667 26,19.25 C25.8,19.5 25.7333333,19.75 25.6666667,20" id="Shape" fill="#8FC640"></path>
                <path d="M22.6842105,18 C22.1578947,17.8947368 21.6315789,17.8947368 21,17.7894737 C21,17.1578947 21.1052632,16.6315789 21.2105263,16 C21.8421053,16.1052632 22.3684211,16.2105263 23,16.4210526 C22.7894737,16.8421053 22.6842105,17.3684211 22.6842105,18" id="Shape" fill="#8FC640"></path>
                <path d="M29.5384615,19.9263158 C29.3846154,19.7578947 29.2307692,19.5894737 29,19.5052632 C29.1538462,19.3368421 29.3076923,19.1684211 29.5384615,19 C29.6923077,19.1684211 29.8461538,19.3368421 30,19.5052632 C29.9230769,19.6736842 29.7692308,19.7578947 29.5384615,19.9263158" id="Shape" fill="#8FC640"></path>
                <path d="M21.9333333,19 L21.0666667,19 C21.0666667,18.6428571 21,18.3571429 21,18 C21.3333333,18 21.6666667,18 22,18.0714286 C21.9333333,18.4285714 21.9333333,18.7142857 21.9333333,19" id="Shape" fill="#9E9EA0"></path>
                <path d="M22,23.6923077 C21.9166667,23.4615385 21.9166667,23.2307692 21.8333333,23 C21.5833333,23.0769231 21.25,23.1538462 21,23.2307692 C21.0833333,23.4615385 21.1666667,23.7692308 21.25,24 C21.5,23.8461538 21.75,23.7692308 22,23.6923077" id="Shape" fill="#E4DF1F"></path>
                <path d="M23.7517647,23.6736842 L23.7517647,23 C23.5011765,23.0842105 23.2505882,23.0842105 23,23.1684211 C23,23.4210526 23.0835294,23.6736842 23.0835294,23.9263158 C23.3341176,23.8421053 23.5847059,23.7578947 23.7517647,23.6736842" id="Shape" fill="#8FC640"></path>
                <path d="M22,21.8 C22,21.5333333 21.9230769,21.2666667 21.9230769,21 C21.6153846,21.0666667 21.3076923,21.0666667 21,21.1333333 C21.0769231,21.4 21.0769231,21.6666667 21.1538462,22 C21.3846154,21.9333333 21.6923077,21.8666667 22,21.8" id="Shape" fill="#8FC640"></path>
                <path d="M23.8352941,21.8333333 C23.8352941,21.5833333 23.8352941,21.25 23.9188235,21 C23.5847059,21 23.3341176,21 23,21.0833333 L23,22 C23.3341176,21.9166667 23.5847059,21.9166667 23.8352941,21.8333333" id="Shape" fill="#56C6D0"></path>
                <path d="M22.9188235,24.6153846 C22.8352941,24.3846154 22.7517647,24.2307692 22.6682353,24 C22.4176471,24.0769231 22.2505882,24.2307692 22,24.3846154 C22.0835294,24.6153846 22.2505882,24.7692308 22.3341176,25 C22.5011765,24.8461538 22.6682353,24.7692308 22.9188235,24.6153846" id="Shape" fill="#9E9EA0"></path>
                <path d="M24.7517647,21.7578947 C24.8352941,21.5052632 24.9188235,21.3368421 24.9188235,21.0842105 C24.6682353,21.0842105 24.4176471,21 24.1670588,21 C24.0835294,21.2526316 24.0835294,21.5052632 24,21.7578947 C24.2505882,21.7578947 24.5011765,21.7578947 24.7517647,21.7578947" id="Shape" fill="#174991"></path>
                <path d="M24.5294118,18 C24.0588235,17.8823529 23.5882353,17.7647059 23,17.6470588 C23.1176471,17.0588235 23.2352941,16.5882353 23.4705882,16 C23.9411765,16.1176471 24.5294118,16.3529412 25,16.5882353 C24.8823529,17.0588235 24.6470588,17.5294118 24.5294118,18" id="Shape" fill="#56C6D0"></path>
                <path d="M0,54.787234 L0,50.212766 L0.573849879,50.212766 L0.573849879,52.5531915 L2.6779661,50.212766 L3.44309927,50.212766 L1.53026634,52.1276596 L3.34745763,54.893617 L2.58232446,54.893617 L1.14769976,52.5531915 L0.478208232,53.2978723 L0.478208232,54.893617 L0,54.893617 L0,54.787234 Z M75.0786925,54.787234 L76.7046005,50.212766 L77.2784504,50.212766 L79,54.787234 L78.3305085,54.787234 L77.8523002,53.4042553 L76.1307506,53.4042553 L75.6525424,54.787234 L75.0786925,54.787234 Z M76.2263923,52.9787234 L77.6610169,52.9787234 L77.1828087,51.7021277 C77.0871671,51.2765957 76.9915254,50.9574468 76.8958838,50.7446809 C76.8002421,51.0638298 76.8002421,51.3829787 76.7046005,51.5957447 L76.2263923,52.9787234 Z M74.0266344,50.212766 L74.6004843,50.212766 L74.6004843,54.787234 L74.0266344,54.787234 L74.0266344,50.212766 Z M70.0096852,54.787234 L70.0096852,50.212766 L71.5399516,50.212766 C71.8268765,50.212766 72.1138015,50.212766 72.3050847,50.3191489 C72.496368,50.4255319 72.6876513,50.5319149 72.783293,50.7446809 C72.8789346,50.9574468 72.9745763,51.1702128 72.9745763,51.3829787 C72.9745763,51.5957447 72.9745763,51.8085106 72.783293,51.9148936 C72.6876513,52.1276596 72.496368,52.2340426 72.3050847,52.3404255 C72.5920097,52.4468085 72.783293,52.5531915 72.8789346,52.7659574 C72.9745763,52.9787234 73.0702179,53.1914894 73.0702179,53.5106383 C73.0702179,53.7234043 73.0702179,53.9361702 72.9745763,54.1489362 C72.8789346,54.3617021 72.783293,54.4680851 72.6876513,54.5744681 C72.5920097,54.6808511 72.4007264,54.787234 72.2094431,54.787234 C72.0181598,54.787234 71.8268765,54.893617 71.5399516,54.893617 L70.0096852,54.893617 L70.0096852,54.787234 Z M70.5835351,52.1276596 L71.4443099,52.1276596 C71.7312349,52.1276596 71.8268765,52.1276596 71.9225182,52.0212766 C72.0181598,52.0212766 72.2094431,51.9148936 72.2094431,51.8085106 C72.3050847,51.7021277 72.3050847,51.5957447 72.3050847,51.3829787 C72.3050847,51.2765957 72.3050847,51.0638298 72.2094431,50.9574468 C72.1138015,50.8510638 72.0181598,50.7446809 71.9225182,50.7446809 C71.8268765,50.7446809 71.6355932,50.6382979 71.2530266,50.6382979 L70.3922518,50.6382979 L70.3922518,52.1276596 L70.5835351,52.1276596 Z M70.5835351,54.2553191 L71.6355932,54.2553191 L72.0181598,54.2553191 C72.1138015,54.2553191 72.2094431,54.1489362 72.3050847,54.1489362 C72.4007264,54.0425532 72.496368,54.0425532 72.496368,53.9361702 C72.5920097,53.8297872 72.5920097,53.7234043 72.5920097,53.5106383 C72.5920097,53.2978723 72.5920097,53.1914894 72.496368,53.0851064 C72.4007264,52.9787234 72.3050847,52.8723404 72.2094431,52.7659574 C72.1138015,52.7659574 71.8268765,52.6595745 71.6355932,52.6595745 L70.6791768,52.6595745 L70.6791768,54.2553191 L70.5835351,54.2553191 Z M65.7058111,54.787234 L67.3317191,50.212766 L67.905569,50.212766 L69.6271186,54.787234 L68.9576271,54.787234 L68.4794189,53.4042553 L66.7578692,53.4042553 L66.279661,54.787234 L65.7058111,54.787234 Z M66.8535109,52.9787234 L68.2881356,52.9787234 L67.8099274,51.7021277 C67.7142857,51.2765957 67.6186441,50.9574468 67.5230024,50.7446809 C67.4273608,51.0638298 67.4273608,51.3829787 67.3317191,51.5957447 L66.8535109,52.9787234 Z M61.9757869,54.787234 L61.9757869,50.212766 L63.7929782,50.212766 C64.1755448,50.212766 64.4624697,50.212766 64.653753,50.3191489 C64.8450363,50.4255319 65.0363196,50.5319149 65.1319613,50.7446809 C65.2276029,50.9574468 65.3232446,51.1702128 65.3232446,51.4893617 C65.3232446,51.8085106 65.2276029,52.1276596 65.0363196,52.3404255 C64.8450363,52.5531915 64.5581114,52.6595745 64.1755448,52.7659574 C64.3668281,52.8723404 64.4624697,52.8723404 64.4624697,52.9787234 C64.653753,53.1914894 64.7493947,53.2978723 64.940678,53.6170213 L65.7058111,54.893617 L65.0363196,54.893617 L64.4624697,53.9361702 C64.2711864,53.6170213 64.1755448,53.4042553 64.0799031,53.2978723 C63.9842615,53.1914894 63.8886199,53.0851064 63.7929782,52.9787234 C63.6973366,52.8723404 63.6016949,52.8723404 63.5060533,52.8723404 L63.2191283,52.8723404 L62.5496368,52.8723404 L62.5496368,54.893617 L61.9757869,54.893617 L61.9757869,54.787234 Z M62.5496368,52.2340426 L63.6973366,52.2340426 C63.9842615,52.2340426 64.1755448,52.2340426 64.2711864,52.1276596 C64.3668281,52.0212766 64.5581114,52.0212766 64.5581114,51.8085106 C64.653753,51.7021277 64.653753,51.5957447 64.653753,51.3829787 C64.653753,51.1702128 64.5581114,50.9574468 64.4624697,50.8510638 C64.3668281,50.7446809 64.0799031,50.6382979 63.7929782,50.6382979 L62.4539952,50.6382979 L62.4539952,52.2340426 L62.5496368,52.2340426 Z M57.6719128,54.787234 L59.2978208,50.212766 L59.8716707,50.212766 L61.5932203,54.787234 L60.9237288,54.787234 L60.4455206,53.4042553 L58.7239709,53.4042553 L58.2457627,54.787234 L57.6719128,54.787234 Z M58.8196126,52.9787234 L60.2542373,52.9787234 L59.7760291,51.7021277 C59.6803874,51.2765957 59.5847458,50.9574468 59.4891041,50.7446809 C59.3934625,51.0638298 59.3934625,51.3829787 59.2978208,51.5957447 L58.8196126,52.9787234 Z M55.2808717,50.212766 L55.8547215,50.212766 L55.8547215,54.787234 L55.2808717,54.787234 L55.2808717,50.212766 Z M50.9769976,54.787234 L50.9769976,50.212766 L52.4116223,50.212766 C52.6985472,50.212766 52.9854722,50.212766 53.1767554,50.3191489 C53.3680387,50.4255319 53.6549637,50.5319149 53.7506053,50.6382979 C53.9418886,50.8510638 54.1331719,51.0638298 54.2288136,51.3829787 C54.3244552,51.7021277 54.4200969,52.0212766 54.4200969,52.4468085 C54.4200969,52.7659574 54.4200969,53.0851064 54.3244552,53.4042553 C54.2288136,53.7234043 54.1331719,53.9361702 54.0375303,54.0425532 C53.9418886,54.2553191 53.7506053,54.3617021 53.6549637,54.4680851 C53.559322,54.5744681 53.3680387,54.6808511 53.1767554,54.6808511 C52.9854722,54.6808511 52.7941889,54.787234 52.5072639,54.787234 L50.9769976,54.787234 Z M51.5508475,54.2553191 L52.4116223,54.2553191 C52.6985472,54.2553191 52.8898305,54.2553191 53.0811138,54.1489362 C53.2723971,54.0425532 53.3680387,54.0425532 53.4636804,53.9361702 C53.559322,53.8297872 53.6549637,53.6170213 53.7506053,53.2978723 C53.846247,53.0851064 53.846247,52.7659574 53.846247,52.4468085 C53.846247,51.9148936 53.7506053,51.5957447 53.6549637,51.3829787 C53.559322,51.1702128 53.3680387,50.9574468 53.1767554,50.8510638 C52.9854722,50.7446809 52.7941889,50.7446809 52.5072639,50.7446809 L51.6464891,50.7446809 L51.6464891,54.2553191 L51.5508475,54.2553191 Z M49.5423729,50.212766 L50.1162228,50.212766 L50.1162228,52.8723404 C50.1162228,53.2978723 50.1162228,53.7234043 50.0205811,53.9361702 C49.9249395,54.2553191 49.7336562,54.4680851 49.5423729,54.5744681 C49.2554479,54.787234 48.968523,54.787234 48.5859564,54.787234 C48.2033898,54.787234 47.9164649,54.6808511 47.62954,54.5744681 C47.342615,54.4680851 47.2469734,54.2553191 47.0556901,53.9361702 C46.9600484,53.6170213 46.8644068,53.2978723 46.8644068,52.7659574 L46.8644068,50.106383 L47.4382567,50.106383 L47.4382567,52.7659574 C47.4382567,53.1914894 47.4382567,53.5106383 47.5338983,53.6170213 C47.62954,53.8297872 47.7251816,53.9361702 47.9164649,54.0425532 C48.1077482,54.1489362 48.2990315,54.1489362 48.4903148,54.1489362 C48.8728814,54.1489362 49.1598063,54.0425532 49.3510896,53.8297872 C49.5423729,53.6170213 49.6380145,53.1914894 49.6380145,52.6595745 L49.6380145,50.212766 L49.5423729,50.212766 Z M42.464891,54.787234 L44.090799,50.212766 L44.6646489,50.212766 L46.3861985,54.787234 L45.716707,54.787234 L45.2384988,53.4042553 L43.5169492,53.4042553 L43.0387409,54.787234 L42.464891,54.787234 Z M43.6125908,52.9787234 L45.0472155,52.9787234 L44.5690073,51.7021277 C44.4733656,51.2765957 44.377724,50.9574468 44.2820823,50.7446809 C44.1864407,51.0638298 44.1864407,51.3829787 44.090799,51.5957447 L43.6125908,52.9787234 Z M38.8305085,53.2978723 L39.3087167,53.2978723 C39.3087167,53.5106383 39.4043584,53.7234043 39.5,53.8297872 C39.5956416,53.9361702 39.6912833,54.1489362 39.8825666,54.1489362 C40.0738499,54.2553191 40.2651332,54.2553191 40.5520581,54.2553191 C40.7433414,54.2553191 40.9346247,54.2553191 41.125908,54.1489362 C41.3171913,54.0425532 41.4128329,53.9361702 41.5084746,53.8297872 C41.6041162,53.7234043 41.6041162,53.6170213 41.6041162,53.4042553 C41.6041162,53.2978723 41.6041162,53.0851064 41.5084746,52.9787234 C41.4128329,52.8723404 41.3171913,52.7659574 41.125908,52.6595745 C41.0302663,52.6595745 40.7433414,52.5531915 40.3607748,52.4468085 C39.9782082,52.3404255 39.6912833,52.2340426 39.5956416,52.1276596 C39.4043584,52.0212766 39.2130751,51.9148936 39.1174334,51.7021277 C39.0217918,51.4893617 38.9261501,51.3829787 38.9261501,51.1702128 C38.9261501,50.9574468 39.0217918,50.7446809 39.1174334,50.5319149 C39.2130751,50.3191489 39.4043584,50.212766 39.5956416,50.106383 C39.7869249,50 40.0738499,50 40.3607748,50 C40.6476998,50 40.9346247,50.106383 41.2215496,50.212766 C41.4128329,50.3191489 41.6041162,50.5319149 41.7953995,50.7446809 C41.8910412,50.9574468 41.9866828,51.1702128 41.9866828,51.4893617 L41.4128329,51.4893617 C41.4128329,51.1702128 41.3171913,50.9574468 41.125908,50.8510638 C40.9346247,50.7446809 40.7433414,50.6382979 40.3607748,50.6382979 C40.0738499,50.6382979 39.7869249,50.7446809 39.5956416,50.8510638 C39.4043584,50.9574468 39.4043584,51.1702128 39.4043584,51.3829787 C39.4043584,51.5957447 39.5,51.7021277 39.5956416,51.8085106 C39.6912833,51.9148936 39.9782082,52.0212766 40.4564165,52.1276596 C40.9346247,52.2340426 41.2215496,52.3404255 41.4128329,52.4468085 C41.6997579,52.5531915 41.7953995,52.7659574 41.9866828,52.8723404 C42.0823245,53.0851064 42.1779661,53.2978723 42.1779661,53.5106383 C42.1779661,53.7234043 42.0823245,53.9361702 41.9866828,54.2553191 C41.8910412,54.4680851 41.6997579,54.6808511 41.4128329,54.787234 C41.2215496,54.893617 40.9346247,55 40.6476998,55 C40.2651332,55 39.9782082,54.893617 39.6912833,54.787234 C39.4043584,54.6808511 39.2130751,54.4680851 39.1174334,54.2553191 C38.9261501,53.9361702 38.8305085,53.6170213 38.8305085,53.2978723 L38.8305085,53.2978723 Z M33.8571429,54.787234 L33.8571429,50.212766 L36.6307506,50.212766 L36.6307506,50.7446809 L34.3353511,50.7446809 L34.3353511,52.1276596 L36.248184,52.1276596 L36.248184,52.6595745 L34.3353511,52.6595745 L34.3353511,54.787234 L33.8571429,54.787234 Z M29.1707022,52.5531915 C29.1707022,51.8085106 29.3619855,51.1702128 29.7445521,50.7446809 C30.1271186,50.3191489 30.6053269,50.106383 31.1791768,50.106383 C31.5617433,50.106383 31.9443099,50.212766 32.2312349,50.4255319 C32.5181598,50.6382979 32.8050847,50.9574468 32.9007264,51.2765957 C33.0920097,51.5957447 33.1876513,52.0212766 33.1876513,52.5531915 C33.1876513,52.9787234 33.0920097,53.4042553 32.9007264,53.8297872 C32.7094431,54.1489362 32.5181598,54.4680851 32.1355932,54.6808511 C31.8486683,54.893617 31.4661017,55 31.0835351,55 C30.7009685,55 30.3184019,54.893617 30.031477,54.6808511 C29.7445521,54.4680851 29.4576271,54.1489362 29.3619855,53.8297872 C29.2663438,53.4042553 29.1707022,52.9787234 29.1707022,52.5531915 L29.1707022,52.5531915 Z M29.7445521,52.5531915 C29.7445521,53.0851064 29.8401937,53.5106383 30.1271186,53.8297872 C30.4140436,54.1489362 30.7009685,54.3617021 31.1791768,54.3617021 C31.5617433,54.3617021 31.9443099,54.1489362 32.2312349,53.8297872 C32.5181598,53.5106383 32.6138015,53.0851064 32.6138015,52.4468085 C32.6138015,52.0212766 32.5181598,51.7021277 32.4225182,51.4893617 C32.3268765,51.1702128 32.1355932,50.9574468 31.9443099,50.8510638 C31.7530266,50.7446809 31.4661017,50.6382979 31.1791768,50.6382979 C30.7966102,50.6382979 30.4140436,50.7446809 30.1271186,51.0638298 C29.9358354,51.3829787 29.7445521,51.9148936 29.7445521,52.5531915 L29.7445521,52.5531915 Z M22.8583535,54.787234 L22.8583535,50.212766 L23.7191283,50.212766 L24.6755448,53.5106383 C24.7711864,53.8297872 24.8668281,54.0425532 24.8668281,54.1489362 C24.8668281,53.9361702 24.9624697,53.7234043 25.0581114,53.4042553 L26.0145278,50.212766 L26.779661,50.212766 L26.779661,54.787234 L26.2058111,54.787234 L26.2058111,50.9574468 L24.9624697,54.787234 L24.4842615,54.787234 L23.2409201,50.8510638 L23.2409201,54.787234 L22.8583535,54.787234 L22.8583535,54.787234 Z M18.1719128,52.5531915 C18.1719128,51.8085106 18.3631961,51.1702128 18.7457627,50.7446809 C19.1283293,50.3191489 19.6065375,50.106383 20.1803874,50.106383 C20.562954,50.106383 20.9455206,50.212766 21.2324455,50.4255319 C21.5193705,50.6382979 21.8062954,50.9574468 21.901937,51.2765957 C22.0932203,51.5957447 22.188862,52.0212766 22.188862,52.5531915 C22.188862,52.9787234 22.0932203,53.4042553 21.901937,53.8297872 C21.7106538,54.1489362 21.5193705,54.4680851 21.1368039,54.6808511 C20.8498789,54.893617 20.4673123,55 20.0847458,55 C19.7021792,55 19.3196126,54.893617 19.0326877,54.6808511 C18.7457627,54.4680851 18.4588378,54.1489362 18.3631961,53.8297872 C18.2675545,53.4042553 18.1719128,52.9787234 18.1719128,52.5531915 L18.1719128,52.5531915 Z M18.7457627,52.5531915 C18.7457627,53.0851064 18.8414044,53.5106383 19.1283293,53.8297872 C19.4152542,54.1489362 19.7021792,54.3617021 20.1803874,54.3617021 C20.562954,54.3617021 20.9455206,54.1489362 21.2324455,53.8297872 C21.5193705,53.5106383 21.6150121,53.0851064 21.6150121,52.4468085 C21.6150121,52.0212766 21.5193705,51.7021277 21.4237288,51.4893617 C21.3280872,51.1702128 21.1368039,50.9574468 20.9455206,50.8510638 C20.7542373,50.7446809 20.4673123,50.6382979 20.1803874,50.6382979 C19.7978208,50.6382979 19.4152542,50.7446809 19.1283293,51.0638298 C18.937046,51.3829787 18.7457627,51.9148936 18.7457627,52.5531915 L18.7457627,52.5531915 Z M14.1549637,54.787234 L14.1549637,50.212766 L15.5895884,50.212766 C15.8765133,50.212766 16.1634383,50.212766 16.3547215,50.3191489 C16.5460048,50.4255319 16.8329298,50.5319149 16.9285714,50.6382979 C17.1198547,50.8510638 17.311138,51.0638298 17.4067797,51.3829787 C17.5024213,51.7021277 17.598063,52.0212766 17.598063,52.4468085 C17.598063,52.7659574 17.598063,53.0851064 17.5024213,53.4042553 C17.4067797,53.7234043 17.311138,53.9361702 17.2154964,54.0425532 C17.1198547,54.2553191 16.9285714,54.3617021 16.8329298,54.4680851 C16.7372881,54.5744681 16.5460048,54.6808511 16.3547215,54.6808511 C16.1634383,54.6808511 15.972155,54.787234 15.68523,54.787234 L14.1549637,54.787234 Z M14.7288136,54.2553191 L15.5895884,54.2553191 C15.8765133,54.2553191 16.0677966,54.2553191 16.2590799,54.1489362 C16.4503632,54.0425532 16.5460048,54.0425532 16.6416465,53.9361702 C16.7372881,53.8297872 16.8329298,53.6170213 16.9285714,53.2978723 C17.0242131,53.0851064 17.0242131,52.7659574 17.0242131,52.4468085 C17.0242131,51.9148936 16.9285714,51.5957447 16.8329298,51.3829787 C16.7372881,51.1702128 16.5460048,50.9574468 16.3547215,50.8510638 C16.1634383,50.7446809 15.972155,50.7446809 15.68523,50.7446809 L14.8244552,50.7446809 L14.8244552,54.2553191 L14.7288136,54.2553191 Z M11.5726392,52.9787234 L11.5726392,52.4468085 L13.2941889,52.4468085 L13.2941889,54.1489362 C13.0072639,54.3617021 12.720339,54.5744681 12.433414,54.6808511 C12.1464891,54.787234 11.8595642,54.893617 11.5726392,54.893617 C11.1900726,54.893617 10.8075061,54.787234 10.4249395,54.5744681 C10.1380145,54.3617021 9.85108959,54.1489362 9.6598063,53.7234043 C9.468523,53.4042553 9.37288136,52.9787234 9.37288136,52.4468085 C9.37288136,52.0212766 9.468523,51.5957447 9.6598063,51.1702128 C9.85108959,50.7446809 10.0423729,50.5319149 10.4249395,50.3191489 C10.7118644,50.106383 11.094431,50 11.4769976,50 C11.7639225,50 12.0508475,50.106383 12.3377724,50.212766 C12.6246973,50.3191489 12.8159806,50.4255319 12.9116223,50.6382979 C13.0072639,50.8510638 13.1985472,51.0638298 13.1985472,51.3829787 L12.720339,51.4893617 C12.6246973,51.2765957 12.6246973,51.0638298 12.5290557,50.9574468 C12.433414,50.8510638 12.3377724,50.7446809 12.1464891,50.6382979 C11.9552058,50.5319149 11.7639225,50.5319149 11.5726392,50.5319149 C11.2857143,50.5319149 11.094431,50.5319149 10.9031477,50.6382979 C10.7118644,50.7446809 10.6162228,50.8510638 10.4249395,50.9574468 C10.3292978,51.0638298 10.2336562,51.2765957 10.1380145,51.3829787 C10.0423729,51.7021277 9.94673123,52.0212766 9.94673123,52.3404255 C9.94673123,52.7659574 10.0423729,53.0851064 10.1380145,53.4042553 C10.2336562,53.7234043 10.4249395,53.9361702 10.7118644,54.0425532 C10.9987893,54.1489362 11.1900726,54.2553191 11.4769976,54.2553191 C11.6682809,54.2553191 11.9552058,54.2553191 12.1464891,54.1489362 C12.3377724,54.0425532 12.5290557,53.9361702 12.6246973,53.8297872 L12.6246973,52.9787234 L11.5726392,52.9787234 L11.5726392,52.9787234 Z M5.45157385,54.787234 L5.45157385,50.212766 L6.02542373,50.212766 L8.2251816,53.8297872 L8.2251816,50.212766 L8.79903148,50.212766 L8.79903148,54.787234 L8.2251816,54.787234 L6.02542373,51.1702128 L6.02542373,54.787234 L5.45157385,54.787234 Z M3.92130751,50.212766 L4.49515738,50.212766 L4.49515738,54.787234 L3.92130751,54.787234 L3.92130751,50.212766 Z" id="Shape" fill="#9E9EA0"></path>
                <path d="M29.5,21 C29.5948276,21.2003866 29.7844828,21.6011599 29.7844828,21.9017399 C29.7844828,21.9017399 30.3534483,20.8998067 31.4913793,21.7013533 C31.4913793,21.7013533 30.5431034,21.6011599 30.2586207,22.1021266 C30.2586207,22.1021266 31.7758621,21.7013533 32.0603448,23.2042531 C32.0603448,23.2042531 31.3965517,22.4027065 30.7327586,22.5028999 C30.7327586,22.5028999 32.1551724,23.0038665 31.7758621,24.6069597 C31.7758621,24.6069597 31.6810345,23.2042531 30.637931,23.0038665 C30.637931,23.0038665 31.5862069,23.8054131 31.2068966,25.4085063 C31.2068966,25.4085063 31.2068966,24.2061864 30.5431034,23.7052198 C30.5431034,23.7052198 31.0172414,24.9075396 30.2586207,26.0096662 C30.2586207,26.0096662 30.637931,24.6069597 29.9741379,24.105993 C29.9741379,24.105993 29.6896552,23.9056064 29.6896552,24.406573 C29.6896552,24.406573 29.5948276,27.3121794 29.7844828,28.8150793 C29.7844828,28.8150793 32.5344828,26.3102462 35,28.0135327 C35,28.0135327 32.6293103,26.8112128 29.8793103,29.5164325 L31.6810345,31.2197191 C31.7758621,31.1195257 31.8706897,31.0193324 32.0603448,31.0193324 C32.3448276,31.0193324 32.5344828,31.2197191 32.5344828,31.520299 C32.5344828,32.121459 31.6810345,32.121459 31.3965517,31.7206857 L29.5,29.8170125 L29.5,29.8170125 L29.5,29.8170125 L27.6034483,31.7206857 C27.3189655,32.121459 26.4655172,32.121459 26.4655172,31.520299 C26.4655172,31.2197191 26.6551724,31.0193324 26.9396552,31.0193324 C27.1293103,31.0193324 27.2241379,31.1195257 27.3189655,31.2197191 L29.1206897,29.5164325 C26.3706897,26.8112128 24,28.0135327 24,28.0135327 C26.3706897,26.3102462 29.2155172,28.8150793 29.2155172,28.8150793 C29.3103448,27.4123727 29.3103448,24.406573 29.3103448,24.406573 C29.3103448,23.9056064 29.0258621,24.105993 29.0258621,24.105993 C28.362069,24.6069597 28.7413793,26.0096662 28.7413793,26.0096662 C27.9827586,24.9075396 28.4568966,23.7052198 28.4568966,23.7052198 C27.7931034,24.3063797 27.7931034,25.4085063 27.7931034,25.4085063 C27.4137931,23.8054131 28.362069,23.0038665 28.362069,23.0038665 C27.4137931,23.2042531 27.2241379,24.6069597 27.2241379,24.6069597 C26.8448276,23.0038665 28.2672414,22.5028999 28.2672414,22.5028999 C27.6034483,22.4027065 26.9396552,23.2042531 26.9396552,23.2042531 C27.2241379,21.7013533 28.7413793,22.1021266 28.7413793,22.1021266 C28.5517241,21.6011599 27.5086207,21.7013533 27.5086207,21.7013533 C28.6465517,20.8998067 29.2155172,21.9017399 29.2155172,21.9017399 C29.2155172,21.6011599 29.4051724,21.2003866 29.5,21" id="Shape" fill="#9E9EA0"></path>
                <path d="M4.18536585,48.5522388 L4.75609756,48.5522388 L4.75609756,48.0149254 L4.18536585,48.0149254 L4.18536585,48.5522388 Z M2.94878049,43.0895522 L2.37804878,43.0895522 L2.37804878,43.6268657 L2.94878049,43.6268657 L2.94878049,43.0895522 Z M5.13658537,48.5522388 L5.70731707,48.5522388 L5.70731707,48.0149254 L5.13658537,48.0149254 L5.13658537,48.5522388 Z M2.09268293,43.0895522 L1.52195122,43.0895522 L1.52195122,43.6268657 L2.09268293,43.6268657 L2.09268293,43.0895522 Z M8.84634146,44.6119403 C8.75121951,44.4328358 8.56097561,44.3432836 8.37073171,44.2537313 C8.1804878,44.1641791 7.9902439,44.1641791 7.8,44.1641791 L7.4195122,44.1641791 L7.4195122,44.6119403 L7.89512195,44.6119403 C7.9902439,44.6119403 8.08536585,44.6119403 8.27560976,44.7014925 C8.37073171,44.7910448 8.46585366,44.7910448 8.56097561,44.880597 C8.65609756,44.9701493 8.65609756,45.0597015 8.75121951,45.1492537 L8.75121951,45.5074627 L8.75121951,46.9402985 L6.37317073,46.9402985 L6.37317073,47.3880597 L9.32195122,47.3880597 L9.32195122,45.5074627 C9.32195122,45.3283582 9.32195122,45.1492537 9.22682927,44.9701493 C9.03658537,44.880597 8.94146341,44.7014925 8.84634146,44.6119403 L8.84634146,44.6119403 Z M28.9170732,47.4776119 L29.3926829,47.4776119 L29.3926829,43.0895522 L28.9170732,43.0895522 L28.9170732,47.4776119 Z M26.8243902,47.0298507 L26.8243902,47.0298507 L25.9682927,47.0298507 C25.6829268,47.0298507 25.397561,47.0298507 25.2073171,46.9402985 C25.0170732,46.8507463 24.9219512,46.761194 24.8268293,46.5820896 C24.8268293,46.4925373 24.9219512,46.3134328 24.9219512,46.1343284 L24.9219512,44.6119403 L24.4463415,44.6119403 L24.4463415,46.2238806 C24.4463415,46.4925373 24.3512195,46.761194 24.1609756,46.9402985 C23.9707317,47.119403 23.7804878,47.2089552 23.4,47.2089552 C23.2097561,47.2089552 23.1146341,47.2089552 23.0195122,47.119403 C22.9243902,47.119403 22.8292683,47.0298507 22.7341463,46.9402985 C22.6390244,46.8507463 22.5439024,46.761194 22.5439024,46.6716418 C22.4487805,46.5820896 22.4487805,46.4925373 22.4487805,46.3134328 L22.4487805,44.6119403 L21.9731707,44.6119403 L21.9731707,46.3134328 C21.9731707,46.4925373 21.9731707,46.5820896 21.8780488,46.6716418 C21.8780488,46.761194 21.7829268,46.8507463 21.6878049,46.9402985 C21.5926829,47.0298507 21.497561,47.0298507 21.402439,47.119403 C21.3073171,47.119403 21.2121951,47.2089552 21.1170732,47.2089552 L20.0707317,47.2089552 L20.0707317,44.7014925 L19.595122,44.7014925 L19.595122,47.2089552 L16.9317073,47.2089552 L17.7878049,45.1492537 C17.6926829,45.0597015 17.502439,44.9701493 17.3121951,44.7910448 C17.1219512,44.7014925 17.0268293,44.6119403 16.8365854,44.5223881 C16.6463415,44.4328358 16.4560976,44.3432836 16.3609756,44.3432836 C16.1707317,44.3432836 15.9804878,44.2537313 15.8853659,44.2537313 C15.695122,44.2537313 15.504878,44.2537313 15.4097561,44.3432836 C15.3146341,44.4328358 15.0292683,44.4328358 14.9341463,44.5223881 C14.7439024,44.6119403 14.6487805,44.7014925 14.4585366,44.7910448 C14.2682927,44.880597 14.1731707,44.9701493 13.9829268,45.1492537 L14.9341463,47.2089552 L13.1268293,47.2089552 L13.1268293,44.4328358 L12.2707317,44.4328358 C11.9853659,44.4328358 11.7,44.4328358 11.4146341,44.5223881 C11.1292683,44.6119403 10.9390244,44.7014925 10.7487805,44.880597 C10.5585366,45.0597015 10.3682927,45.238806 10.2731707,45.4179104 C10.1780488,45.5970149 10.0829268,45.8656716 10.0829268,46.0447761 C10.0829268,46.3134328 10.1780488,46.5820896 10.2731707,46.761194 C10.3682927,46.9402985 10.5585366,47.119403 10.7487805,47.2985075 C10.9390244,47.3880597 11.1292683,47.5671642 11.4146341,47.5671642 C11.7,47.6567164 11.9853659,47.6567164 12.2707317,47.6567164 L12.5560976,47.6567164 L12.5560976,47.7462687 C12.5560976,48.0149254 12.4609756,48.1940299 12.3658537,48.2835821 C12.1756098,48.3731343 11.9853659,48.4626866 11.7,48.4626866 L11.2243902,48.4626866 C11.1292683,48.4626866 10.9390244,48.3731343 10.7487805,48.2835821 L10.5585366,48.7313433 C10.7487805,48.8208955 10.9390244,48.8208955 11.0341463,48.9104478 C11.2243902,48.9104478 11.3195122,49 11.5097561,49 C11.9853659,49 12.3658537,48.9104478 12.6512195,48.641791 C12.8414634,48.4626866 13.0317073,48.1044776 13.0317073,47.7462687 L13.0317073,47.6567164 L21.1170732,47.6567164 C21.402439,47.6567164 21.5926829,47.5671642 21.7829268,47.4776119 C21.9731707,47.3880597 22.1634146,47.2089552 22.2585366,47.0298507 C22.3536585,47.2089552 22.5439024,47.3880597 22.7341463,47.4776119 C22.9243902,47.5671642 23.2097561,47.6567164 23.495122,47.6567164 C23.7804878,47.6567164 24.0658537,47.5671642 24.2560976,47.4776119 C24.4463415,47.3880597 24.6365854,47.2089552 24.7317073,47.0298507 C24.7317073,47.119403 24.8268293,47.2089552 24.9219512,47.2089552 C25.0170732,47.2985075 25.0170732,47.2985075 25.1121951,47.3880597 C25.2073171,47.4776119 25.302439,47.4776119 25.4926829,47.4776119 L25.8731707,47.4776119 L25.8731707,47.4776119 L27.395122,47.4776119 L27.395122,43.0895522 L26.9195122,43.0895522 L26.9195122,47.0298507 L26.8243902,47.0298507 Z M39.3804878,48.5522388 L39.9512195,48.5522388 L39.9512195,48.0149254 L39.3804878,48.0149254 L39.3804878,48.5522388 Z M44.4219512,47.0298507 L43.6609756,45.1492537 C43.8512195,44.9701493 44.0414634,44.880597 44.2317073,44.7910448 C44.4219512,44.7014925 44.7073171,44.7014925 44.897561,44.7014925 C45.0878049,44.7014925 45.3731707,44.7014925 45.5634146,44.7910448 C45.8487805,44.880597 46.0390244,44.9701493 46.1341463,45.1492537 L45.2780488,47.0298507 L44.4219512,47.0298507 Z M48.1317073,47.0298507 L45.9439024,47.0298507 L46.895122,44.9701493 C46.8,44.880597 46.6097561,44.7910448 46.4195122,44.6119403 C46.2292683,44.5223881 46.1341463,44.4328358 45.9439024,44.3432836 C45.7536585,44.2537313 45.6585366,44.2537313 45.4682927,44.1641791 C45.2780488,44.1641791 45.0878049,44.0746269 44.9926829,44.0746269 C44.802439,44.0746269 44.6121951,44.0746269 44.5170732,44.1641791 C44.3268293,44.1641791 44.1365854,44.2537313 44.0414634,44.3432836 C43.8512195,44.4328358 43.7560976,44.5223881 43.5658537,44.6119403 C43.3756098,44.7014925 43.2804878,44.7910448 43.0902439,44.9701493 C44.0414634,46.9402985 44.0414634,47.0298507 44.0414634,47.0298507 L42.1390244,47.0298507 L42.1390244,44.1641791 L41.6634146,44.1641791 L41.6634146,47.5671642 L41.6634146,47.9253731 C41.6634146,48.0149254 41.6634146,48.1044776 41.5682927,48.1044776 C41.5682927,48.1940299 41.4731707,48.1940299 41.3780488,48.1940299 L41.1878049,48.1940299 L41.0926829,48.1940299 L40.997561,48.1940299 L40.902439,48.641791 C41.0926829,48.641791 41.1878049,48.7313433 41.2829268,48.7313433 C41.4731707,48.7313433 41.6634146,48.7313433 41.7585366,48.641791 C41.8536585,48.5522388 41.9487805,48.5522388 42.0439024,48.3731343 C42.1390244,48.2835821 42.1390244,48.1044776 42.2341463,48.0149254 L42.2341463,47.4776119 L42.2341463,47.3880597 L48.8926829,47.3880597 L48.8926829,43 L48.4170732,43 L48.4170732,47.0298507 L48.1317073,47.0298507 Z M37.4780488,48.5522388 L38.0487805,48.5522388 L38.0487805,48.0149254 L37.4780488,48.0149254 L37.4780488,48.5522388 Z M34.3390244,47.0298507 L33.8634146,47.0298507 C33.6731707,47.0298507 33.4829268,47.0298507 33.2926829,46.9402985 C33.102439,46.8507463 33.0073171,46.8507463 32.8170732,46.6716418 C32.7219512,46.5820896 32.6268293,46.4925373 32.5317073,46.3134328 C32.4365854,46.1343284 32.4365854,45.9552239 32.4365854,45.8656716 C32.4365854,45.6865672 32.4365854,45.5074627 32.5317073,45.4179104 C32.6268293,45.3283582 32.7219512,45.1492537 32.8170732,45.0597015 C32.9121951,44.9701493 33.102439,44.880597 33.2926829,44.7910448 C33.4829268,44.7014925 33.6731707,44.7014925 33.7682927,44.7014925 L34.2439024,44.7014925 L34.2439024,47.0298507 L34.3390244,47.0298507 Z M39.8560976,44.1641791 L39.3804878,44.1641791 L39.3804878,47.0298507 L37.4780488,47.0298507 L37.4780488,44.1641791 L37.002439,44.1641791 L37.002439,47.0298507 L34.9097561,47.0298507 L34.9097561,44.1641791 L34.0536585,44.1641791 C33.7682927,44.1641791 33.4829268,44.2537313 33.197561,44.2537313 C32.9121951,44.3432836 32.7219512,44.4328358 32.5317073,44.6119403 C32.3414634,44.7910448 32.1512195,44.9701493 32.0560976,45.1492537 C31.9609756,45.3283582 31.8658537,45.5970149 31.8658537,45.7761194 C31.8658537,46.0447761 31.9609756,46.3134328 32.0560976,46.4925373 C32.1512195,46.6716418 32.3414634,46.8507463 32.5317073,47.0298507 C32.7219512,47.119403 32.9121951,47.2089552 33.197561,47.2985075 C33.4829268,47.3880597 33.6731707,47.3880597 34.0536585,47.3880597 L39.9512195,47.3880597 L39.9512195,44.1641791 L39.8560976,44.1641791 Z M36.6219512,48.5522388 L37.1926829,48.5522388 L37.1926829,48.0149254 L36.6219512,48.0149254 L36.6219512,48.5522388 Z M34.8146341,43.1791045 L34.3390244,43.1791045 L34.3390244,43.7164179 L34.9097561,43.7164179 L34.9097561,43.1791045 L34.8146341,43.1791045 Z M33.9585366,43.1791045 L33.3878049,43.1791045 L33.3878049,43.7164179 L33.9585366,43.7164179 L33.9585366,43.1791045 Z M50.1292683,47.4776119 L50.604878,47.4776119 L50.604878,43.0895522 L50.1292683,43.0895522 L50.1292683,47.4776119 Z M73.2439024,47.0298507 C73.1487805,47.2089552 73.0536585,47.2985075 72.9585366,47.4776119 C72.8634146,47.5671642 72.6731707,47.6567164 72.5780488,47.7462687 C72.3878049,47.8358209 72.197561,47.8358209 72.0073171,47.8358209 C71.8170732,47.8358209 71.6268293,47.8358209 71.4365854,47.7462687 C71.2463415,47.6567164 71.1512195,47.5671642 71.0560976,47.4776119 C70.9609756,47.3880597 70.8658537,47.2089552 70.7707317,47.0298507 C70.6756098,46.8507463 70.6756098,46.6716418 70.6756098,46.5820896 C70.6756098,46.4029851 70.6756098,46.2238806 70.7707317,46.0447761 C70.8658537,45.8656716 70.9609756,45.7761194 71.0560976,45.5970149 C71.1512195,45.5074627 71.3414634,45.4179104 71.4365854,45.3283582 C71.6268293,45.238806 71.8170732,45.238806 72.0073171,45.238806 C72.197561,45.238806 72.3878049,45.238806 72.5780488,45.3283582 C72.7682927,45.4179104 72.8634146,45.5074627 73.0536585,45.5970149 C73.1487805,45.6865672 73.2439024,45.8656716 73.3390244,46.0447761 C73.4341463,46.2238806 73.4341463,46.4029851 73.4341463,46.5820896 C73.3390244,46.761194 73.3390244,46.9402985 73.2439024,47.0298507 L73.2439024,47.0298507 Z M68.202439,47.0298507 C68.1073171,47.2089552 68.0121951,47.2985075 67.9170732,47.4776119 C67.8219512,47.5671642 67.6317073,47.6567164 67.4414634,47.7462687 C67.2512195,47.8358209 67.0609756,47.8358209 66.8707317,47.8358209 C66.6804878,47.8358209 66.4902439,47.8358209 66.3,47.7462687 C66.1097561,47.6567164 66.0146341,47.5671642 65.9195122,47.4776119 C65.8243902,47.3880597 65.7292683,47.2089552 65.6341463,47.0298507 C65.5390244,46.8507463 65.5390244,46.6716418 65.5390244,46.5820896 C65.5390244,46.4029851 65.5390244,46.2238806 65.6341463,46.0447761 C65.7292683,45.8656716 65.8243902,45.7761194 65.9195122,45.5970149 C66.0146341,45.5074627 66.204878,45.4179104 66.3,45.3283582 C66.4902439,45.238806 66.6804878,45.238806 66.8707317,45.238806 C67.0609756,45.238806 67.2512195,45.238806 67.4414634,45.3283582 C67.6317073,45.4179104 67.7268293,45.5074627 67.9170732,45.5970149 C68.0121951,45.6865672 68.1073171,45.8656716 68.202439,46.0447761 C68.297561,46.2238806 68.297561,46.4029851 68.297561,46.5820896 C68.297561,46.761194 68.297561,46.9402985 68.202439,47.0298507 L68.202439,47.0298507 Z M55.6463415,47.2985075 L55.1707317,47.2985075 C54.9804878,47.2985075 54.7902439,47.2985075 54.6,47.2089552 C54.4097561,47.119403 54.3146341,47.119403 54.1243902,46.9402985 C54.0292683,46.8507463 53.9341463,46.761194 53.8390244,46.5820896 C53.7439024,46.4029851 53.7439024,46.2238806 53.7439024,46.1343284 C53.7439024,45.9552239 53.7439024,45.7761194 53.8390244,45.6865672 C53.9341463,45.5970149 54.0292683,45.4179104 54.1243902,45.3283582 C54.2195122,45.238806 54.4097561,45.1492537 54.6,45.0597015 C54.7902439,44.9701493 54.9804878,44.9701493 55.0756098,44.9701493 L55.5512195,44.9701493 L55.5512195,47.2985075 L55.6463415,47.2985075 Z M75.5268293,47.2985075 L73.7195122,47.2985075 C73.8146341,47.0298507 73.9097561,46.8507463 73.9097561,46.5820896 C73.9097561,46.3134328 73.8146341,46.1343284 73.7195122,45.8656716 C73.6243902,45.6865672 73.5292683,45.4179104 73.3390244,45.3283582 C73.1487805,45.1492537 72.9585366,45.0597015 72.7682927,44.9701493 C72.5780488,44.880597 72.2926829,44.880597 72.0073171,44.880597 C71.7219512,44.880597 71.5317073,44.880597 71.2463415,44.9701493 C71.0560976,45.0597015 70.8658537,45.1492537 70.6756098,45.3283582 C70.4853659,45.5074627 70.3902439,45.6865672 70.295122,45.8656716 C70.2,46.0447761 70.104878,46.3134328 70.104878,46.5820896 L70.104878,46.9402985 C70.104878,47.0298507 70.2,47.119403 70.2,47.2985075 L68.5829268,47.2985075 C68.6780488,47.0298507 68.7731707,46.8507463 68.7731707,46.5820896 C68.7731707,46.3134328 68.6780488,46.1343284 68.5829268,45.8656716 C68.4878049,45.6865672 68.3926829,45.4179104 68.202439,45.3283582 C68.0121951,45.1492537 67.8219512,45.0597015 67.6317073,44.9701493 C67.4414634,44.880597 67.1560976,44.880597 66.8707317,44.880597 C66.5853659,44.880597 66.395122,44.880597 66.1097561,44.9701493 C65.9195122,45.0597015 65.7292683,45.1492537 65.5390244,45.3283582 C65.3487805,45.5074627 65.2536585,45.6865672 65.1585366,45.8656716 C65.0634146,46.0447761 65.0634146,46.3134328 65.0634146,46.5820896 L65.0634146,46.9402985 C65.0634146,47.0298507 65.1585366,47.119403 65.1585366,47.2985075 L63.5414634,47.2985075 L63.5414634,43.4477612 L63.0658537,43.4477612 L63.0658537,47.2985075 L61.4487805,47.2985075 L61.4487805,46.5820896 C61.4487805,46.4029851 61.4487805,46.2238806 61.3536585,46.0447761 C61.2585366,45.8656716 61.2585366,45.6865672 61.0682927,45.5970149 C60.9731707,45.5074627 60.7829268,45.3283582 60.5926829,45.238806 C60.402439,45.1492537 60.2121951,45.1492537 59.9268293,45.1492537 L57.6439024,45.1492537 L58.595122,43.358209 L58.0243902,43.358209 L57.0731707,45.0597015 C57.0731707,45.1492537 57.0731707,45.238806 57.1682927,45.3283582 C57.1682927,45.4179104 57.2634146,45.5074627 57.3585366,45.5074627 L60.0219512,45.5074627 C60.2121951,45.5074627 60.3073171,45.5074627 60.402439,45.5970149 C60.497561,45.5970149 60.5926829,45.6865672 60.6878049,45.7761194 C60.7829268,45.8656716 60.7829268,45.9552239 60.8780488,46.0447761 L60.8780488,46.4029851 L60.8780488,47.119403 L56.1219512,47.119403 L56.1219512,44.2537313 L55.2658537,44.2537313 C54.9804878,44.2537313 54.695122,44.3432836 54.4097561,44.3432836 C54.1243902,44.4328358 53.9341463,44.5223881 53.7439024,44.7014925 C53.5536585,44.880597 53.4585366,45.0597015 53.3634146,45.238806 C53.2682927,45.4179104 53.1731707,45.6865672 53.1731707,45.8656716 C53.1731707,46.1343284 53.2682927,46.4029851 53.3634146,46.5820896 C53.4585366,46.761194 53.6487805,46.9402985 53.8390244,47.119403 C54.0292683,47.2089552 54.2195122,47.2985075 54.504878,47.3880597 C54.7902439,47.4776119 55.0756098,47.4776119 55.3609756,47.4776119 L65.6341463,47.4776119 C65.8243902,47.6567164 66.0146341,47.8358209 66.204878,47.9253731 C66.4902439,48.0149254 66.6804878,48.1044776 66.9658537,48.1044776 C67.2512195,48.1044776 67.5365854,48.1044776 67.7268293,47.9253731 C68.0121951,47.8358209 68.202439,47.7462687 68.297561,47.4776119 L70.5804878,47.4776119 C70.7707317,47.6567164 70.9609756,47.8358209 71.1512195,47.9253731 C71.4365854,48.0149254 71.6268293,48.1044776 71.9121951,48.1044776 C72.197561,48.1044776 72.4829268,48.1044776 72.6731707,47.9253731 C72.9585366,47.8358209 73.1487805,47.7462687 73.2439024,47.4776119 L75.9073171,47.4776119 L75.9073171,43.0895522 L75.4317073,43.0895522 L75.4317073,47.2985075 L75.5268293,47.2985075 Z M77.5243902,47.7462687 L78,47.7462687 L78,43.358209 L77.5243902,43.358209 L77.5243902,47.7462687 Z M55.2658537,43.4477612 L54.695122,43.4477612 L54.695122,43.9850746 L55.2658537,43.9850746 L55.2658537,43.4477612 Z M56.1219512,43.4477612 L55.5512195,43.4477612 L55.5512195,43.9850746 L56.1219512,43.9850746 L56.1219512,43.4477612 Z M5.51707317,44.1641791 L5.04146341,44.1641791 L5.04146341,46.9402985 L2.94878049,46.9402985 L2.94878049,44.1641791 L2.09268293,44.1641791 C1.80731707,44.1641791 1.52195122,44.1641791 1.23658537,44.2537313 C0.951219512,44.3432836 0.76097561,44.4328358 0.570731707,44.6119403 C0.380487805,44.7910448 0.285365854,44.9701493 0.190243902,45.1492537 C0.0951219512,45.3283582 0,45.5970149 0,45.7761194 C0,46.0447761 0.0951219512,46.3134328 0.190243902,46.4925373 C0.285365854,46.6716418 0.475609756,46.8507463 0.665853659,47.0298507 C0.856097561,47.119403 1.04634146,47.2985075 1.33170732,47.2985075 C1.61707317,47.3880597 1.90243902,47.3880597 2.18780488,47.3880597 L5.61219512,47.3880597 L5.61219512,44.1641791 L5.51707317,44.1641791 Z M2.47317073,47.0298507 L1.99756098,47.0298507 C1.80731707,47.0298507 1.61707317,47.0298507 1.42682927,46.9402985 C1.23658537,46.8507463 1.14146341,46.8507463 0.951219512,46.6716418 C0.856097561,46.5820896 0.76097561,46.4925373 0.665853659,46.3134328 C0.570731707,46.1343284 0.570731707,46.0447761 0.570731707,45.8656716 C0.570731707,45.6865672 0.570731707,45.5074627 0.665853659,45.4179104 C0.76097561,45.238806 0.856097561,45.1492537 0.951219512,45.0597015 C1.04634146,44.9701493 1.23658537,44.880597 1.42682927,44.7910448 C1.61707317,44.7014925 1.80731707,44.7014925 1.90243902,44.7014925 L2.37804878,44.7014925 L2.37804878,47.0298507 L2.47317073,47.0298507 Z M12.4609756,47.0298507 L11.9853659,47.0298507 C11.795122,47.0298507 11.604878,47.0298507 11.4146341,46.9402985 C11.2243902,46.8507463 11.1292683,46.8507463 10.9390244,46.6716418 C10.8439024,46.5820896 10.6536585,46.4925373 10.6536585,46.3134328 C10.5585366,46.1343284 10.5585366,46.0447761 10.5585366,45.8656716 C10.5585366,45.6865672 10.5585366,45.5074627 10.6536585,45.4179104 C10.7487805,45.238806 10.8439024,45.1492537 10.9390244,45.0597015 C11.0341463,44.9701493 11.2243902,44.880597 11.4146341,44.7910448 C11.604878,44.7014925 11.795122,44.7014925 11.9853659,44.7014925 L12.4609756,44.7014925 L12.4609756,47.0298507 Z M15.3146341,47.0298507 L14.4585366,45.1492537 C14.6487805,44.9701493 14.8390244,44.880597 15.0292683,44.7910448 C15.2195122,44.7014925 15.4097561,44.7014925 15.695122,44.7014925 C15.8853659,44.7014925 16.1707317,44.7014925 16.3609756,44.7910448 C16.5512195,44.880597 16.7414634,44.9701493 16.9317073,45.1492537 L16.1707317,47.0298507 L15.3146341,47.0298507 Z" id="Shape" fill="#9E9EA0"></path>
                <path d="M63.6833333,12.1397059 L64.5333333,12.1397059 L64.5333333,13 L63.6833333,13 L63.6833333,12.1397059 Z M65.4777778,12.1397059 L66.3277778,12.1397059 L66.3277778,13 L65.4777778,13 L65.4777778,12.1397059 Z M47.9111111,1.91176471 L47.0611111,1.91176471 L47.0611111,1.05147059 L47.9111111,1.05147059 L47.9111111,1.91176471 Z M69.2555556,8.22058824 C69.6333333,8.50735294 70.0111111,8.60294118 70.3888889,8.79411765 C70.8611111,8.88970588 71.3333333,8.98529412 71.8055556,8.98529412 L71.9944444,8.98529412 L72.2777778,8.31617647 L72.2777778,9.17647059 C72.2777778,9.65441176 72.0888889,9.94117647 71.9,10.2279412 C71.6166667,10.4191176 71.2388889,10.5147059 70.7666667,10.5147059 C70.4833333,10.5147059 70.2944444,10.5147059 70.0111111,10.4191176 C69.8222222,10.3235294 69.5388889,10.3235294 69.2555556,10.1323529 L68.9722222,10.9926471 C69.35,11.0882353 69.6333333,11.1838235 69.9166667,11.2794118 C70.2,11.375 70.4833333,11.375 70.6722222,11.375 C71.5222222,11.375 72.1833333,11.1838235 72.5611111,10.8014706 C72.9388889,10.4191176 73.1277778,9.84558824 73.1277778,9.17647059 L73.1277778,2.96323529 L71.7111111,2.96323529 C71.1444444,2.96323529 70.6722222,3.05882353 70.2,3.15441176 C69.7277778,3.34558824 69.35,3.53676471 69.0666667,3.82352941 C68.6888889,4.11029412 68.5,4.39705882 68.3111111,4.77941176 C68.1222222,5.16176471 68.0277778,5.54411765 68.0277778,6.02205882 C68.0277778,6.5 68.1222222,6.97794118 68.3111111,7.36029412 C68.5944444,7.64705882 68.8777778,7.93382353 69.2555556,8.22058824 L69.2555556,8.22058824 Z M69.2555556,4.97058824 C69.35,4.68382353 69.5388889,4.49264706 69.8222222,4.30147059 C70.0111111,4.11029412 70.2944444,3.91911765 70.5777778,3.82352941 C70.8611111,3.72794118 71.1444444,3.63235294 71.4277778,3.63235294 L72.8444444,3.63235294 L72.3722222,3.91911765 L72.3722222,7.93382353 L71.4277778,7.93382353 C71.05,7.93382353 70.7666667,7.93382353 70.4833333,7.83823529 C70.2,7.74264706 69.9166667,7.55147059 69.7277778,7.45588235 C69.5388889,7.26470588 69.35,7.07352941 69.2555556,6.78676471 C69.1611111,6.5 69.0666667,6.21323529 69.0666667,5.92647059 C68.9722222,5.54411765 69.0666667,5.25735294 69.2555556,4.97058824 L69.2555556,4.97058824 Z M49.7055556,1.91176471 L48.8555556,1.91176471 L48.8555556,1.05147059 L49.7055556,1.05147059 L49.7055556,1.91176471 Z M75.4888889,11.375 C75.2055556,11.375 75.0166667,11.375 74.7333333,11.2794118 L74.9222222,10.4191176 C75.0166667,10.4191176 75.1111111,10.4191176 75.2055556,10.5147059 L75.3944444,10.5147059 C75.5833333,10.5147059 75.6777778,10.5147059 75.7722222,10.4191176 C75.8666667,10.4191176 75.9611111,10.3235294 76.0555556,10.2279412 C76.15,10.1323529 76.15,9.94117647 76.15,9.75 L76.15,9.08088235 L76.15,2.86764706 L77,2.86764706 L77,9.08088235 C77,9.46323529 77,9.75 76.9055556,10.0367647 C76.8111111,10.3235294 76.7166667,10.5147059 76.6222222,10.8014706 C76.5277778,10.9926471 76.3388889,11.1838235 76.15,11.2794118 C76.0555556,11.2794118 75.7722222,11.375 75.4888889,11.375 L75.4888889,11.375 Z M47.25,11.2794118 L49.0444444,11.2794118 L49.0444444,10.6102941 C49.0444444,10.6102941 49.0444444,10.7058824 49.1388889,10.7058824 C49.2333333,10.8970588 49.4222222,11.0882353 49.7055556,11.1838235 C49.8944444,11.2794118 50.1777778,11.375 50.4611111,11.375 L66.6111111,11.375 L66.6111111,2.96323529 L65.7611111,2.96323529 L65.7611111,10.5147059 L64.8166667,10.5147059 L50.4611111,10.5147059 C50.2722222,10.5147059 50.1777778,10.5147059 49.9888889,10.4191176 C49.8944444,10.3235294 49.8,10.3235294 49.7055556,10.1323529 C49.6111111,10.0367647 49.6111111,9.84558824 49.5166667,9.65441176 L49.5166667,8.98529412 L49.5166667,2.77205882 L47.1555556,2.77205882 C44.7,2.77205882 43,4.68382353 43,6.97794118 L43,6.97794118 C43.1888889,9.27205882 44.7944444,11.2794118 47.25,11.2794118 L47.25,11.2794118 Z M44.1333333,6.97794118 C44.1333333,5.16176471 45.4555556,3.63235294 47.25,3.63235294 L49.3277778,3.63235294 L48.7611111,3.91911765 L48.7611111,8.98529412 C48.7611111,9.36764706 48.7611111,9.65441176 48.8555556,9.94117647 C48.8555556,10.1323529 48.95,10.2279412 48.95,10.4191176 L47.25,10.4191176 C45.4555556,10.3235294 44.1333333,8.88970588 44.1333333,6.97794118 L44.1333333,6.97794118 Z M72.1833333,0 L72.9388889,0 L72.9388889,0.669117647 L72.2777778,0.669117647 C72.0888889,0.669117647 71.9944444,0.764705882 71.9944444,0.955882353 L71.9944444,1.24264706 L73.1277778,1.24264706 L73.1277778,1.91176471 L71.2388889,1.91176471 L71.2388889,0.955882353 C71.2388889,0.477941176 71.7111111,0 72.1833333,0 L72.1833333,0 Z" id="Shape" fill="#9E9EA0"></path>
                <path d="M38.057971,3.1978022 L39,3.1978022 L39,11.9010989 L38.2463768,11.9010989 L32.4057971,4.08791209 L32.8768116,5.37362637 L32.8768116,11.9010989 L31.9347826,11.9010989 L31.9347826,3.1978022 L32.7826087,3.1978022 L38.4347826,10.7142857 L38.057971,9.62637363 L38.057971,3.1978022 Z M3.57971014,11.9010989 L0,3.0989011 L1.03623188,3.0989011 L1.50724638,4.38461538 L3.95652174,10.5164835 L4.23913043,11.1098901 L4.14492754,10.1208791 L6.97101449,3 L8.00724638,3 L4.42753623,11.8021978 L3.57971014,11.8021978 L3.57971014,11.9010989 Z M19.4057971,3.1978022 L20.3478261,3.1978022 L20.3478261,11.9010989 L19.4057971,11.9010989 L19.4057971,3.1978022 Z M29.4855072,7.54945055 C29.4855072,9.52747253 28.1666667,11.1098901 26.2826087,11.1098901 C24.3985507,11.1098901 22.9855072,9.52747253 22.9855072,7.54945055 L22.9855072,7.54945055 C22.9855072,5.57142857 24.3043478,3.98901099 26.1884058,3.98901099 C28.0724638,3.89010989 29.4855072,5.57142857 29.4855072,7.54945055 L29.4855072,7.54945055 Z M26.1884058,3 C23.6449275,3 21.9492754,5.07692308 21.9492754,7.45054945 L21.9492754,7.45054945 C21.9492754,9.82417582 23.6449275,11.9010989 26.1884058,11.9010989 C28.7318841,11.9010989 30.4275362,9.82417582 30.4275362,7.45054945 L30.4275362,7.45054945 C30.4275362,5.07692308 28.7318841,3 26.1884058,3 L26.1884058,3 Z M17.8985507,9.52747253 L17.8985507,9.52747253 C17.8985507,11.010989 16.673913,12 15.0724638,12 C13.7536232,12 12.7173913,11.5054945 11.6811594,10.6153846 L12.2463768,9.92307692 C13.0942029,10.7142857 13.942029,11.1098901 15.0724638,11.1098901 C16.2028986,11.1098901 16.9565217,10.5164835 16.9565217,9.62637363 L16.9565217,9.62637363 C16.9565217,8.83516484 16.5797101,8.34065934 14.7898551,7.94505495 C12.9057971,7.54945055 12.057971,6.85714286 12.057971,5.47252747 L12.057971,5.47252747 C12.057971,4.08791209 13.1884058,3.0989011 14.7898551,3.0989011 C16.0144928,3.0989011 16.8623188,3.49450549 17.7101449,4.18681319 L17.1449275,4.97802198 C16.3913043,4.28571429 15.6376812,3.98901099 14.7898551,3.98901099 C13.7536232,3.98901099 13,4.58241758 13,5.37362637 L13,5.37362637 C13,6.16483516 13.4710145,6.65934066 15.2608696,7.05494505 C17.0507246,7.45054945 17.8985507,8.14285714 17.8985507,9.52747253 L17.8985507,9.52747253 Z M10.2681159,11.9010989 L9.32608696,11.9010989 L9.32608696,3.1978022 L10.2681159,3.1978022 L10.2681159,11.9010989 Z" id="Shape" fill="#9E9EA0"></path>
            </g>
        </g>
    </g>
</svg>