<?xml version="1.0" encoding="UTF-8"?>
<svg width="29px" height="48px" viewBox="0 0 29 48" version="1.1" xmlns="http://www.w3.org/2000/svg" xmlns:xlink="http://www.w3.org/1999/xlink">
    <!-- Generator: sketchtool 51.3 (57544) - http://www.bohemiancoding.com/sketch -->
    <title>08140E0B-B1C3-4125-883E-C07A18B0AAFE@1.5x</title>
    <desc>Created with sketchtool.</desc>
    <defs></defs>
    <g id="Page-1" stroke="none" stroke-width="1" fill="none" fill-rule="evenodd">
        <g id="About_KSA" transform="translate(-1273.000000, -869.000000)" fill="#7DB442">
            <g id="Marker2" transform="translate(1273.000000, 869.000000)">
                <path d="M14.4333,30.5619394 C9.38536667,30.5619394 5.29298333,26.4567273 5.29298333,21.3929697 C5.29298333,16.3292121 9.38536667,12.224 14.4333,12.224 C19.4812333,12.224 23.5731333,16.3292121 23.5731333,21.3929697 C23.5731333,26.4567273 19.4812333,30.5619394 14.4333,30.5619394 Z M28.8661167,0.483393939 L28.5471167,0 L14.4333,8.61090909 L0.2407,0 L0,0.483393939 L5.12381667,13.424 C3.2973,15.5694545 2.19191667,18.3505455 2.19191667,21.3929697 C2.19191667,27.0753939 6.0407,31.8545455 11.26505,33.2552727 C12.3211333,38.0693333 13.3772167,42.8843636 14.4333,47.6989091 C15.4898667,42.8843636 16.5454667,38.0693333 17.6010667,33.2552727 C22.8259,31.8545455 26.6746833,27.0753939 26.6746833,21.3929697 C26.6746833,18.3505455 25.5693,15.5694545 23.7423,13.424 L28.8661167,0.483393939 Z" id="Fill-1"></path>
            </g>
        </g>
    </g>
</svg>