<?xml version="1.0" encoding="UTF-8"?>
<svg width="96px" height="96px" viewBox="0 0 96 96" version="1.1" xmlns="http://www.w3.org/2000/svg" xmlns:xlink="http://www.w3.org/1999/xlink">
    <!-- Generator: sketchtool 51.3 (57544) - http://www.bohemiancoding.com/sketch -->
    <title>5A133CFC-7474-4C89-81DA-44B67B540CE6@1.5x</title>
    <desc>Created with sketchtool.</desc>
    <defs></defs>
    <g id="Page-1" stroke="none" stroke-width="1" fill="none" fill-rule="evenodd">
        <g id="About_More" transform="translate(-663.000000, -2291.000000)">
            <g id="c3" transform="translate(663.000000, 2291.000000)">
                <circle id="Oval-2-Copy-2" fill="#B7CA54" cx="48" cy="48" r="48"></circle>
                <g id="Group-16" transform="translate(22.000000, 18.000000)" fill="#FFFFFF" fill-rule="nonzero">
                    <path d="M50.447324,25.7963512 L47.0524003,23.5210733 C46.8354489,23.3756335 46.5638221,23.3395065 46.3163925,23.4235614 L39.9778493,25.5772082 L38.1259885,24.5151358 C37.7222551,24.2836744 37.2085529,24.4249735 36.9784218,24.830652 C36.7480847,25.2363305 36.8886346,25.7528745 37.2922651,25.9843359 L38.1914755,26.5000518 L32.6091217,29.7015893 L29.1922661,27.7183295 L29.1922661,25.2818775 L32.6092247,23.2985143 L34.3695479,24.3081041 C34.7729724,24.539462 35.2868805,24.3983699 35.5170117,23.9925879 C35.7471428,23.5869093 35.6066959,23.0703654 35.2030654,22.838904 L34.2966473,22.3190475 L38.7350381,19.7429526 L44.1953761,21.2139125 C44.2682767,21.2335805 44.3416921,21.242897 44.413666,21.242897 C44.7851708,21.242897 45.1250648,20.9937344 45.2256635,20.6157981 C45.3459289,20.1645726 45.0796563,19.7009252 44.6308233,19.5799152 L40.7957159,18.5468272 L43.672098,16.877324 L46.4272879,17.6195325 C46.5001885,17.6392005 46.573604,17.6485169 46.6455779,17.6485169 C47.0170827,17.6485169 47.3569766,17.3993543 47.4575753,17.021418 C47.5778407,16.5701925 47.3115682,16.1064416 46.8627352,15.9855351 L45.7327758,15.6811986 L47.9308115,14.405366 C48.3332064,14.1718343 48.4709762,13.6545657 48.2386827,13.2501294 C48.0064922,12.845486 47.4917604,12.7070854 47.0895714,12.9406171 L44.8914327,14.2164496 L45.1941556,13.0805705 C45.314421,12.629345 45.0481484,12.1655941 44.5993155,12.0446876 C44.1503795,11.9236776 43.6891905,12.191473 43.5689251,12.6426985 L42.830652,15.4124715 L39.9547847,17.0818713 L40.982395,13.2264243 C41.1026604,12.7751988 40.8363879,12.3114479 40.3875549,12.1905414 C39.9386189,12.0695314 39.4774299,12.3373268 39.3571645,12.7885523 L37.8942099,18.2778931 L33.4556131,20.854195 L33.4894893,14.2787662 L38.5139681,9.83700554 C38.7099142,9.66382356 38.8148375,9.40917463 38.7979509,9.14748662 L38.5353852,5.05405675 C38.517366,4.7718726 38.3600324,4.5174307 38.1165156,4.37613159 C37.8726898,4.23462546 37.5752183,4.225102 37.3230522,4.35045967 L33.6655628,6.16861166 C33.4317248,6.28485993 33.2648153,6.50348536 33.2136408,6.76061867 L31.8996794,13.3561296 L26.2523534,16.6733978 L26.2523534,11.521001 L30.2497368,7.50251661 C30.5783044,7.1721976 30.5783044,6.63681374 30.2497368,6.30649474 C29.9211692,5.97627925 29.3886241,5.97617573 29.0599536,6.30649474 L26.2521475,9.12864674 L26.2521475,5.78964021 L28.2690643,3.76197219 C28.5976319,3.43165319 28.5976319,2.89616581 28.2690643,2.56584681 C27.9404968,2.23563132 27.4079516,2.2355278 27.0792811,2.56584681 L26.2521475,3.39738945 L26.2521475,0.845724308 C26.2521475,0.378660896 25.8755973,0 25.4109074,0 C24.9462175,0 24.5696673,0.378660896 24.5696673,0.845724308 L24.5696673,3.39738945 L23.7425338,2.56584681 C23.4137602,2.23542429 22.8812151,2.23563132 22.5527505,2.56584681 C22.2241829,2.89616581 22.2241829,3.43165319 22.5527505,3.76197219 L24.5696673,5.78964021 L24.5696673,9.12864674 L21.7621702,6.30608068 C21.4334996,5.97576167 20.9009545,5.97576167 20.572387,6.30608068 C20.2438194,6.63639968 20.2438194,7.17188705 20.572387,7.50210254 L24.5697703,11.520587 L24.5697703,16.6729837 L18.9224444,13.3558191 L17.60838,6.76030813 C17.5572054,6.50317481 17.390296,6.28454938 17.156458,6.16830111 L13.4989686,4.35014912 C13.2469055,4.22489497 12.949125,4.23441843 12.7055052,4.37582105 C12.4618854,4.51722367 12.3047578,4.77166557 12.2866356,5.0537462 L12.0240698,9.14717607 C12.0073892,9.40886408 12.1121066,9.66351301 12.3080527,9.83669499 L17.3325315,14.2784556 L17.3664077,20.8538845 L12.9278109,18.2775826 L11.4647533,12.7882418 C11.3445909,12.3370163 10.8832989,12.0692208 10.4343629,12.1902308 C9.98552995,12.3111373 9.71925739,12.7748882 9.8395228,13.2261137 L10.8671331,17.0815607 L7.99075101,15.4120574 L7.2524779,12.6422845 C7.13231546,12.191059 6.67102347,11.9232635 6.22208752,12.0442735 C5.77325454,12.16518 5.50698198,12.6289309 5.62724739,13.0801564 L5.92997025,14.2160356 L3.73193454,12.9405136 C3.32923075,12.7068783 2.81480781,12.8455895 2.58272028,13.2500259 C2.35042682,13.6545657 2.48829958,14.1717308 2.8905915,14.405366 L5.08862722,15.6811986 L3.95866779,15.9855351 C3.5098348,16.1064416 3.24356224,16.5701925 3.36382765,17.021418 C3.46442637,17.3992508 3.80442328,17.6485169 4.17582511,17.6485169 C4.24790198,17.6485169 4.32121446,17.6392005 4.39411506,17.6195325 L7.14930501,16.877324 L10.0256871,18.5468272 L6.19057963,19.5799152 C5.74174665,19.7008217 5.47547409,20.1645726 5.5957395,20.6157981 C5.69633822,20.9936308 6.03633513,21.242897 6.40773695,21.242897 C6.47991679,21.242897 6.5531263,21.2335805 6.62602691,21.2139125 L12.0863649,19.7429526 L16.5247557,22.3190475 L10.8435536,25.5773117 L4.50490751,23.4235614 C4.25768384,23.3395065 3.98595403,23.3756335 3.76889968,23.5210733 L0.374593804,25.7963512 C0.140549902,25.9531776 0,26.217143 0,26.5000518 C0,26.782857 0.140549902,27.0469259 0.374593804,27.2037524 L3.76951748,29.4790302 C3.90934661,29.5728156 4.07203441,29.6211575 4.23626671,29.6211575 C4.32677467,29.6211575 4.41759153,29.6064582 4.50552532,29.5766457 L10.8441714,27.4228954 L16.5253735,30.6811595 L12.0869827,33.2572544 L6.62664471,31.7862945 C6.1776058,31.665595 5.71651974,31.9330799 5.59625433,32.384409 C5.47598892,32.8356344 5.74226148,33.2992818 6.19109447,33.4202918 L10.0262019,34.4533798 L7.14971688,36.1228831 L4.39452693,35.3806746 C3.94559098,35.2600786 3.48440196,35.52746 3.36413655,35.9786855 C3.24387114,36.429911 3.5101437,36.8936619 3.95897669,37.0145684 L5.08893612,37.3189049 L2.8909004,38.5947375 C2.48850552,38.8282692 2.35073572,39.3455378 2.58302919,39.7500776 C2.7388182,40.0213926 3.02156547,40.1730433 3.31234417,40.1730433 C3.45505638,40.1730433 3.59982793,40.1365022 3.73224344,40.05959 L5.93038212,38.7837574 L5.62765926,39.9196366 C5.50739385,40.3708621 5.77366641,40.834613 6.22249939,40.9555194 C6.2954,40.9751875 6.36881544,40.9845039 6.44078935,40.9845039 C6.81229414,40.9845039 7.15218808,40.7352378 7.2527868,40.357405 L7.99105991,37.587632 L10.867442,35.9181287 L9.8398317,39.7736792 C9.71956629,40.2249047 9.98583885,40.6885521 10.4346718,40.8095621 C10.5075724,40.8292301 10.5809879,40.8385466 10.6529618,40.8385466 C11.0244666,40.8385466 11.3643605,40.589384 11.4649592,40.2114477 L12.9280168,34.7221069 L17.3666136,32.145805 L17.3327375,38.7212338 L12.3082587,43.1629945 C12.1123125,43.3361764 12.0073892,43.5908254 12.0242758,43.8525134 L12.2868415,47.9459433 C12.3048607,48.2281274 12.4621943,48.4825693 12.7057111,48.6239719 C12.8355525,48.6993314 12.9808388,48.7373218 13.1263312,48.7373218 C13.2539072,48.7373218 13.3813803,48.7082338 13.4991745,48.6497474 L17.156664,46.8316989 C17.3905019,46.7154506 17.5574114,46.4968252 17.6085859,46.2396919 L18.9225473,39.6441809 L24.5698733,36.3270163 L24.5698733,41.4793095 L20.5724899,45.4977939 C20.2439223,45.8281129 20.2439223,46.3636003 20.5724899,46.6938158 C20.9011605,47.0241348 21.4337056,47.0242383 21.7622732,46.6938158 L24.5697703,43.8713533 L24.5697703,47.2103598 L22.5528535,49.2380278 C22.2242859,49.5683468 22.2242859,50.1038342 22.5528535,50.4340497 C22.881524,50.7643687 23.4140691,50.7643687 23.7426367,50.4340497 L24.5697703,49.602507 L24.5697703,52.1542757 C24.5697703,52.6213391 24.9463205,53 25.4110104,53 C25.8757003,53 26.2522505,52.6213391 26.2522505,52.1542757 L26.2522505,49.6026106 L27.0793841,50.4341532 C27.2437193,50.5992609 27.4591262,50.6818666 27.6743272,50.6818666 C27.8895281,50.6818666 28.104935,50.5993645 28.2692703,50.4341532 C28.5978378,50.1038342 28.5978378,49.5683468 28.2692703,49.2381313 L26.2521475,47.2104633 L26.2521475,43.8714568 L29.0596447,46.6939193 C29.2239799,46.8590271 29.4391809,46.9416327 29.6545878,46.9416327 C29.8698917,46.9416327 30.0851956,46.8591306 30.2495309,46.6939193 C30.5780984,46.3636003 30.5780984,45.8281129 30.2495309,45.4978975 L26.2521475,41.479413 L26.2521475,36.3271198 L31.8994734,39.6442845 L33.2134348,46.2397954 C33.2646094,46.4969287 33.4315189,46.7155541 33.6653568,46.8318024 L37.3228462,48.6499544 C37.4406404,48.7084408 37.5683195,48.7375288 37.6956896,48.7375288 C37.8411819,48.7375288 37.9865713,48.699642 38.1163096,48.624179 C38.3599295,48.4827763 38.5170571,48.2283344 38.5351792,47.9461503 L38.797745,43.8527204 C38.8144256,43.5911359 38.7097082,43.3363835 38.5137621,43.1632015 L33.4892833,38.7214409 L33.4554072,32.146012 L37.894004,34.7223139 L39.3570615,40.2116547 C39.4576602,40.5894875 39.7976572,40.8387536 40.169059,40.8387536 C40.2411359,40.8387536 40.3144483,40.8294372 40.3873489,40.8097692 C40.8361819,40.6888627 41.1024545,40.2251118 40.9821891,39.7738863 L39.9545788,35.9183358 L42.8308579,37.587839 L43.569131,40.357612 C43.6697297,40.7354448 44.0097266,40.9847109 44.3811285,40.9847109 C44.4533083,40.9847109 44.5265178,40.9753945 44.5994184,40.9557265 C45.0482514,40.83482 45.314524,40.3710691 45.1942586,39.9198436 L44.8915357,38.7839644 L47.0896744,40.059797 C47.2222958,40.1367093 47.3668614,40.1732503 47.5095736,40.1732503 C47.8003523,40.1732503 48.0830996,40.0214961 48.2388886,39.7502847 C48.4711821,39.3457448 48.3333093,38.8285797 47.9310174,38.5949445 L45.7329817,37.319112 L46.8629411,37.0147754 C47.3117741,36.8938689 47.5780467,36.430118 47.4577813,35.9788925 C47.3375158,35.527667 46.8762239,35.2603892 46.4273909,35.3808816 L43.6722009,36.1230901 L40.7958189,34.4535868 L44.6309263,33.4204989 C45.0797593,33.2995924 45.3460319,32.8358415 45.2257664,32.384616 C45.105604,31.9333905 44.644312,31.6658021 44.1953761,31.7865015 L38.7350381,33.2574614 L34.2966473,30.6813666 L39.9778493,27.4231024 L46.3164955,29.5768527 C46.4043263,29.6067688 46.4952461,29.6213645 46.5856511,29.6213645 C46.7498834,29.6213645 46.9124682,29.5731261 47.0524003,29.4792373 L50.447324,27.2039594 C50.6813679,27.0471329 50.8219178,26.7831675 50.8219178,26.5002588 C50.8219178,26.21735 50.6813679,25.9531776 50.447324,25.7963512 Z M34.7820335,7.50044629 L36.9375439,6.42895396 L37.0923032,8.84139032 L33.963858,11.6070227 L34.7820335,7.50044629 Z M13.7295116,8.84139032 L13.884271,6.42895396 L16.0397813,7.50044629 L16.8579568,11.6070227 L13.7295116,8.84139032 Z M4.35838553,27.8410993 L2.35773747,26.5000518 L4.35848849,25.1590042 L8.30500618,26.5000518 L4.35838553,27.8410993 Z M16.0397813,45.4996572 L13.884271,46.5711496 L13.7295116,44.1586097 L16.8579568,41.3929773 L16.0397813,45.4996572 Z M26.2521475,18.6321243 L31.801243,15.3727214 L31.7679846,21.8336618 L28.351026,23.817025 L26.2522505,22.5988508 L26.2522505,18.6321243 L26.2521475,18.6321243 Z M24.5696673,18.6321243 L24.5696673,22.5987473 L22.4708918,23.8169215 L19.0539332,21.8335583 L19.0205719,15.3726179 L24.5696673,18.6321243 Z M18.2126931,29.7015893 L12.6303393,26.5000518 L18.2126931,23.2985143 L21.6295487,25.281774 L21.6295487,27.718226 L18.2126931,29.7015893 Z M19.0205719,37.6273821 L19.0539332,31.1664417 L22.4708918,29.1830785 L24.5695644,30.4012527 L24.5695644,34.3678757 L24.5696673,34.3678757 L19.0205719,37.6273821 Z M25.4109074,28.9365038 L23.3121319,27.7183295 L23.3121319,25.2818775 L25.4109074,24.0635997 L27.509683,25.281774 L27.509683,27.718226 L25.4109074,28.9365038 Z M26.2521475,34.3679792 L26.2521475,30.4013563 L28.3508201,29.183182 L31.7677787,31.1665452 L31.801037,37.6274856 L26.2521475,34.3679792 Z M37.0923032,44.1587132 L36.9375439,46.5711496 L34.7820335,45.4996572 L33.963858,41.3931844 L37.0923032,44.1587132 Z M46.4634293,27.8410993 L42.5168087,26.5000518 L46.4634293,25.1590042 L48.4640774,26.5000518 L46.4634293,27.8410993 Z" id="Shape"></path>
                </g>
            </g>
        </g>
    </g>
</svg>