<?xml version="1.0" encoding="UTF-8"?>
<svg width="96px" height="96px" viewBox="0 0 96 96" version="1.1" xmlns="http://www.w3.org/2000/svg" xmlns:xlink="http://www.w3.org/1999/xlink">
    <!-- Generator: sketchtool 51.3 (57544) - http://www.bohemiancoding.com/sketch -->
    <title>97CC249A-F156-4EB6-974B-B9E9BA3DCADA@1.5x</title>
    <desc>Created with sketchtool.</desc>
    <defs></defs>
    <g id="Page-1" stroke="none" stroke-width="1" fill="none" fill-rule="evenodd">
        <g id="About_More" transform="translate(-1145.000000, -2291.000000)">
            <g id="C1" transform="translate(1145.000000, 2291.000000)">
                <circle id="Oval-2" fill="#FD9B75" cx="48" cy="48" r="48"></circle>
                <g id="Group-14" transform="translate(22.000000, 20.000000)" fill="#FFFFFF" fill-rule="nonzero">
                    <path d="M48.8817525,13.5157292 C48.6398009,13.0208068 48.1061831,12.852874 47.6900503,13.1406362 L43.4336272,16.0669345 C43.0174945,16.3546967 42.8762958,16.9893484 43.1182475,17.4842708 C43.3601991,17.9791932 43.8938169,18.147126 44.3099497,17.8593638 L48.5663728,14.9330655 C48.9825055,14.6451601 49.1237042,14.0106516 48.8817525,13.5157292 Z" id="Shape"></path>
                    <path d="M48.5663728,39.0669345 L44.3099497,36.1406362 C43.8938169,35.852874 43.3601991,36.0208068 43.1182475,36.5157292 C42.8762958,37.0106516 43.0174945,37.6453033 43.4336272,37.9330655 L47.6900503,40.8593638 C48.1061831,41.147126 48.6398009,40.9791932 48.8817525,40.4842708 C49.1237042,39.9892052 48.9825055,39.3546967 48.5663728,39.0669345 Z" id="Shape"></path>
                    <path d="M27.0740427,46.0025229 C26.5232414,45.9655887 26.0437284,46.3385256 26.002796,46.8355271 C25.9990874,46.8800217 25.9990874,46.9246403 26.002796,46.9691349 L26.002796,52.0308651 C25.9618637,52.5278665 26.3751707,52.9605428 26.9259719,52.9974771 C27.4767732,53.0344113 27.9562862,52.6614744 27.9972185,52.1644729 C28.0009272,52.1199783 28.0009272,52.0753597 27.9972185,52.0308651 L27.9972185,46.9691349 C28.0380135,46.4722574 27.6247066,46.0394572 27.0740427,46.0025229 Z" id="Shape"></path>
                    <path d="M9.56637275,16.0669345 L5.30994965,13.1406362 C4.89381688,12.852874 4.36019914,13.0208068 4.11824748,13.5157292 C3.87629583,14.0106516 4.01749448,14.6453033 4.43362725,14.9330655 L8.69005035,17.8593638 C9.10618312,18.147126 9.63980086,17.9791932 9.88175252,17.4842708 C10.1237042,16.9892052 9.98250552,16.3546967 9.56637275,16.0669345 Z" id="Shape"></path>
                    <path d="M27.0740377,0.00254908839 C26.5232316,-0.0347679783 26.0437142,0.342034216 26.0027815,0.844186691 C25.9990728,0.889142486 25.9990728,0.934223506 26.0027815,0.979179301 L26.0027815,6.09337059 C26.0058034,6.59289334 26.4493329,6.99724505 26.9972545,7 C27.5495717,7 27.9972219,6.59189154 27.9972219,6.08836159 L27.9972219,0.979304526 C28.0380173,0.477152051 27.6247066,0.0398661551 27.0740377,0.00254908839 Z" id="Shape"></path>
                    <path d="M17.8592026,8.69005035 L14.935282,4.43362725 C14.6471898,4.01749448 14.0118104,3.87629583 13.5163206,4.11824748 C13.0208307,4.36019914 12.8527053,4.89381688 13.1407974,5.30994965 L16.064718,9.56637275 C16.3528102,9.98250552 16.9881896,10.1237042 17.4836794,9.88175252 C17.9791693,9.63968049 18.1472947,9.10618312 17.8592026,8.69005035 Z" id="Shape"></path>
                    <path d="M27.0691223,18.0028164 C27.01955,17.9990612 26.9698395,17.9990612 26.9202671,18.0028164 C21.9936837,18.0028164 18,22.0253337 18,26.9874861 C18,27.5467331 18.4500178,28 19.0052561,28 C19.5582851,27.9969402 20.0049888,27.5445078 20.0049888,26.9874861 C20.001951,23.1438277 23.0931135,20.0253407 26.9092203,20.0222809 C26.9129486,20.0222809 26.9165388,20.0222809 26.9202671,20.0222809 C27.4739865,20.0637272 27.9560399,19.6452307 27.9971891,19.0875136 C28.0383384,18.5297965 27.6228417,18.0441236 27.0691223,18.0028164 Z" id="Shape"></path>
                    <path d="M52.997428,26.9259719 C52.9636919,26.4321738 52.6025774,26.0394703 52.148215,26.002796 L46.9879926,26.002796 C46.4813204,25.9618637 46.040225,26.3751707 46.002572,26.9259719 C45.9649191,27.4767732 46.3451128,27.9562862 46.8517849,27.9972185 C46.8971454,28.0009272 46.9427585,28.0009272 46.9881189,27.9972185 L52.1483414,27.9972185 C52.6548872,27.9564235 53.0350809,27.4767732 52.997428,26.9259719 Z" id="Shape"></path>
                    <path d="M6.14821506,26.0027815 C6.10285463,25.9990728 6.05736785,25.9990728 6.01200742,26.0027815 L0.851784943,26.0027815 C0.345112755,26.0437138 -0.0350809137,26.5233642 0.00257203191,27.0740281 C0.0363080604,27.5678262 0.397422552,27.9605297 0.851784943,27.997204 L6.01200742,27.997204 C6.51867961,28.0381363 6.95977502,27.6248293 6.99742797,27.0740281 C7.03508091,26.5232268 6.65488724,26.0435765 6.14821506,26.0027815 Z" id="Shape"></path>
                    <path d="M26.0019656,13 C18.2699926,12.9989517 12.0011795,19.2660589 12.0000001,26.9980288 C11.999476,30.712535 13.4752154,34.2750382 16.1021154,36.901151 C18.724036,39.5296224 22.2854924,41.0047061 25.9980345,40.9999887 C33.7300075,41.001037 39.9989517,34.7339298 40,27.0019599 C40.0010483,19.26999 33.7339386,13.0010483 26.0019656,13 Z M34.5521341,35.5698149 C29.8278548,40.2940923 22.1682142,40.2940923 17.443935,35.5698149 C15.1713592,33.29724 13.8964996,30.2138081 13.9006928,26.9999944 C13.8961065,23.7906359 15.1713592,20.7119213 17.443935,18.4458982 L17.443935,18.4616227 C22.1682142,13.7373453 29.8278548,13.7373453 34.5521341,18.4616227 C39.2765444,23.1859001 39.2765444,30.8455376 34.5521341,35.5698149 Z" id="Shape"></path>
                    <path d="M40.8613828,47.693252 C40.8605239,47.6919281 40.8596651,47.6906041 40.8586631,47.6894006 L37.9327867,43.4335672 C37.645066,43.0174921 37.0105058,42.876313 36.5156548,43.1182311 C36.0208038,43.3601492 35.8528952,43.893693 36.1406159,44.3097682 L39.0664922,48.5656015 C39.3530678,48.9811952 39.9857671,49.1233372 40.4807612,48.8833448 C40.9767574,48.6429913 41.1472426,48.1101696 40.8613828,47.693252 Z" id="Shape"></path>
                    <path d="M40.4844856,4.11818958 C39.9897695,3.87635641 39.3553822,4.01748591 39.0677399,4.4334149 L36.1426607,8.68775365 C35.8530149,9.10272012 36.018445,9.6364375 36.5118732,9.87983476 C36.512875,9.88031602 36.5137336,9.88079728 36.5147353,9.88127854 C37.0090222,10.123593 37.6434095,9.98318536 37.9316242,9.567497 C37.9324829,9.56617353 37.9334846,9.56485007 37.9343432,9.56364692 L40.8594224,5.30930817 C41.1470647,4.89325887 40.9792018,4.36002275 40.4844856,4.11818958 Z" id="Shape"></path>
                    <path d="M17.4842708,43.1182475 C16.9893484,42.8762958 16.3546967,43.0174945 16.0669345,43.4336272 L13.1406362,47.6900503 C12.852874,48.1061831 13.0208068,48.6398009 13.5157292,48.8817525 C14.0106516,49.1237042 14.6453033,48.9825055 14.9330655,48.5663728 L17.8593638,44.3099497 C18.147126,43.8936965 17.9791932,43.3601991 17.4842708,43.1182475 Z" id="Shape"></path>
                    <path d="M9.88175252,36.5157292 C9.63980086,36.0208068 9.10618312,35.852874 8.69005035,36.1406362 L4.43362725,39.0669345 C4.01749448,39.3546967 3.87629583,39.9893484 4.11824748,40.4842708 C4.36019914,40.9791932 4.89381688,41.147126 5.30994965,40.8593638 L9.56637275,37.9330655 C9.98250552,37.6451601 10.1237042,37.0106516 9.88175252,36.5157292 Z" id="Shape"></path>
                </g>
            </g>
        </g>
    </g>
</svg>