<?xml version="1.0" encoding="UTF-8"?>
<svg width="67px" height="67px" viewBox="0 0 67 67" version="1.1" xmlns="http://www.w3.org/2000/svg" xmlns:xlink="http://www.w3.org/1999/xlink">
    <!-- Generator: sketchtool 51.3 (57544) - http://www.bohemiancoding.com/sketch -->
    <title>38D5CCC4-4BF6-468E-A060-80DC97F0C35F@3x</title>
    <desc>Created with sketchtool.</desc>
    <defs></defs>
    <g id="Page-1" stroke="none" stroke-width="1" fill="none" fill-rule="evenodd">
        <g id="About_KSA" transform="translate(-1117.000000, -3720.000000)" stroke="#D1A53C" stroke-width="2">
            <g id="Icon4" transform="translate(1118.000000, 3721.000000)">
                <polyline id="Stroke-1" points="21.0638298 32.2978723 0 32.2978723 0 0 64.5957447 0 64.5957447 32.2978723 49.1489362 32.2978723"></polyline>
                <path d="M49.1489362,26.6808511 L54.7659574,26.6808511 C54.7659574,24.354 56.6518723,22.4680851 58.9787234,22.4680851 L58.9787234,9.82978723 C56.6518723,9.82978723 54.7659574,7.94387234 54.7659574,5.61702128 L9.82978723,5.61702128 C9.82978723,7.94387234 8.42553191,9.82978723 5.61702128,9.82978723 L5.61702128,22.4680851 C7.94387234,22.4680851 9.82978723,24.354 9.82978723,26.6808511 L21.0638298,26.6808511" id="Stroke-3"></path>
                <path d="M15.4468085,16.8510638 L18.2553191,16.8510638" id="Stroke-5" stroke-linejoin="round"></path>
                <path d="M44.9361702,16.8510638 L47.7446809,16.8510638" id="Stroke-7" stroke-linejoin="round"></path>
                <path d="M25.801795,19.6581721 C25.4633695,18.7973636 25.2751993,17.8466827 25.2766035,16.8468529 C25.2780078,12.969704 28.1103908,9.8269806 31.6013695,9.82978911 C35.0923482,9.83119337 37.9205184,12.975321 37.9177099,16.85247 C37.9177099,17.8522998 37.7295397,18.8015763 37.3897099,19.6609806" id="Stroke-9" stroke-linejoin="round"></path>
                <path d="M28.6599872,28.0851064 C28.6599872,26.5334043 27.4031787,25.2765957 25.8514766,25.2765957 C24.2997744,25.2765957 23.0429659,26.5334043 23.0429659,28.0851064 L23.0429659,41.7695745 C23.0429659,45.54 21.0952638,46.9779574 21.0952638,46.9779574 C21.0952638,46.9779574 20.221817,46.6156596 18.9467531,43.4153617 C16.8909234,38.2519149 12.6135617,39.1394043 11.6460297,40.2122553 C10.6799021,41.2837021 11.4115191,42.9084255 13.8563276,46.7504681 C15.5245829,49.3694043 16.4513914,55.2672766 19.1068383,57.5997447 C21.7622851,59.933617 23.0429659,61.104766 23.0429659,62.5820426 L23.0429659,66" id="Stroke-11" stroke-linejoin="round"></path>
                <path d="M35.106383,40.7234043 L35.106383,22.4680851 C35.106383,20.916383 33.8495745,19.6595745 32.2978723,19.6595745 C30.7461702,19.6595745 29.4893617,20.916383 29.4893617,22.4680851 L29.4893617,40.7234043" id="Stroke-13" stroke-linejoin="round"></path>
                <path d="M40.7234043,32.2978723 L40.7234043,26.6808511 C40.7234043,25.1291489 39.4665957,23.8723404 37.9148936,23.8723404 C36.3631915,23.8723404 35.106383,25.1291489 35.106383,26.6808511" id="Stroke-15" stroke-linejoin="round"></path>
                <path d="M43.5319149,66 L43.5319149,62.2422128 C43.5319149,60.1035319 46.3404255,59.0320851 46.3404255,54.7280426 L46.3404255,32.2978723 C46.3404255,30.7461702 45.083617,29.4893617 43.5319149,29.4893617 C41.9802128,29.4893617 40.7234043,30.7461702 40.7234043,32.2978723 L40.7234043,40.7234043" id="Stroke-17" stroke-linejoin="round"></path>
            </g>
        </g>
    </g>
</svg>