<?xml version="1.0" encoding="UTF-8"?>
<svg width="61px" height="69px" viewBox="0 0 61 69" version="1.1" xmlns="http://www.w3.org/2000/svg" xmlns:xlink="http://www.w3.org/1999/xlink">
    <!-- Generator: Sketch 51.3 (57544) - http://www.bohemiancoding.com/sketch -->
    <title>Group@1.5x</title>
    <desc>Created with Sketch.</desc>
    <defs></defs>
    <g id="Page-1" stroke="none" stroke-width="1" fill="none" fill-rule="evenodd">
        <g id="About_KSA" transform="translate(-1216.000000, -3716.000000)" fill="#D3CB69">
            <g id="Group" transform="translate(1216.000000, 3716.000000)">
                <path d="M33.8706724,61.1952672 C33.1824569,60.3642931 32.2069397,59.7837414 31.0993707,59.5975603 L31.0993707,51.1230517 C30.846569,51.1343534 30.5919828,51.142681 30.3362069,51.142681 C30.0810259,51.142681 29.8270345,51.1343534 29.5748276,51.1230517 L29.5748276,59.5975603 C28.466069,59.7837414 27.4905517,60.3642931 26.802931,61.1946724 L8.98249138,50.9065345 C9.16867241,50.408069 9.27514655,49.8709397 9.27514655,49.3076379 C9.27514655,48.6991293 9.15380172,48.1185776 8.93787931,47.5862069 L16.2566379,43.3676897 C15.9853966,42.938819 15.7343793,42.4968621 15.5029914,42.0424138 L8.13367241,46.2894828 C7.452,45.5120431 6.5139569,44.9683707 5.451,44.7899224 L5.451,24.1024138 C6.55737931,23.9156379 7.53349138,23.3362759 8.21992241,22.5064914 L15.6035172,26.7618879 C15.8408534,26.3104138 16.0984138,25.8720259 16.3756034,25.4467241 L8.98130172,21.1853793 C9.16807759,20.6857241 9.27514655,20.148 9.27514655,19.5841034 C9.27514655,19.0547069 9.18056897,18.5479138 9.0152069,18.074431 L26.8017414,7.80473276 C27.4905517,8.6357069 28.466069,9.21625862 29.5748276,9.40243966 L29.5748276,17.8769483 C29.8270345,17.8656466 30.0810259,17.8579138 30.3362069,17.8579138 C30.5919828,17.8579138 30.846569,17.8656466 31.0993707,17.8769483 L31.0993707,9.40243966 C32.2069397,9.21625862 33.1824569,8.6357069 33.8706724,7.80473276 L51.6572069,18.074431 C51.4918448,18.5479138 51.3972672,19.0547069 51.3972672,19.5841034 C51.3972672,20.148 51.5043362,20.6857241 51.6911121,21.1853793 L44.298,25.4467241 C44.574,25.8720259 44.8315603,26.3104138 45.0700862,26.7612931 L52.4524914,22.5064914 C53.1401121,23.3362759 54.1150345,23.9156379 55.2226034,24.1024138 L55.2226034,44.7899224 C54.1596466,44.9683707 53.2204138,45.5120431 52.5387414,46.2894828 L45.1700172,42.0424138 C44.9392241,42.4968621 44.6882069,42.938819 44.4169655,43.3682845 L51.7357241,47.5862069 C51.5192069,48.1185776 51.3972672,48.6991293 51.3972672,49.3076379 C51.3972672,49.8709397 51.5043362,50.408069 51.6899224,50.9065345 L33.8706724,61.1952672 Z M33.3989741,64.1158707 C33.3989741,65.8045862 32.0255172,67.1780431 30.3373966,67.1780431 C28.6480862,67.1780431 27.2746293,65.8045862 27.2746293,64.1158707 C27.2746293,62.4271552 28.6480862,61.0531034 30.3373966,61.0531034 C32.0255172,61.0531034 33.3989741,62.4271552 33.3989741,64.1158707 Z M1.62566379,49.3076379 C1.62566379,47.6189224 3.00031034,46.2454655 4.68843103,46.2454655 C6.37714655,46.2454655 7.75060345,47.6189224 7.75060345,49.3076379 C7.75060345,50.9969483 6.37714655,52.3704052 4.68843103,52.3704052 C3.00031034,52.3704052 1.62566379,50.9969483 1.62566379,49.3076379 Z M1.62566379,19.5841034 C1.62566379,17.8953879 3.00031034,16.5213362 4.68843103,16.5213362 C6.37714655,16.5213362 7.75060345,17.8953879 7.75060345,19.5841034 C7.75060345,21.2722241 6.37714655,22.6462759 4.68843103,22.6462759 C3.00031034,22.6462759 1.62566379,21.2722241 1.62566379,19.5841034 Z M27.2746293,4.88412931 C27.2746293,3.19600862 28.6480862,1.8219569 30.3373966,1.8219569 C32.0255172,1.8219569 33.3989741,3.19600862 33.3989741,4.88412931 C33.3989741,6.57284483 32.0255172,7.94689655 30.3373966,7.94689655 C28.6480862,7.94689655 27.2746293,6.57284483 27.2746293,4.88412931 Z M55.9845776,16.5213362 C57.6726983,16.5213362 59.04675,17.8953879 59.04675,19.5841034 C59.04675,21.2722241 57.6726983,22.6462759 55.9845776,22.6462759 C54.2952672,22.6462759 52.9218103,21.2722241 52.9218103,19.5841034 C52.9218103,17.8953879 54.2952672,16.5213362 55.9845776,16.5213362 Z M52.9218103,49.3076379 C52.9218103,47.6189224 54.2952672,46.2454655 55.9845776,46.2454655 C57.6726983,46.2454655 59.04675,47.6189224 59.04675,49.3076379 C59.04675,50.9969483 57.6726983,52.3704052 55.9845776,52.3704052 C54.2952672,52.3704052 52.9218103,50.9969483 52.9218103,49.3076379 Z M56.7471466,44.7899224 L56.7471466,24.1024138 C58.9135086,23.7371897 60.5712931,21.8527759 60.5712931,19.5841034 C60.5712931,17.0548966 58.5137845,14.9967931 55.9845776,14.9967931 C54.5296293,14.9967931 53.2346897,15.6796552 52.3930086,16.7384483 L34.6308621,6.48302586 C34.8164483,5.98456034 34.9235172,5.44743103 34.9235172,4.88412931 C34.9235172,2.35492241 32.8660086,0.297413793 30.3373966,0.297413793 C27.807,0.297413793 25.7494914,2.35492241 25.7494914,4.88412931 C25.7494914,5.44743103 25.8559655,5.98456034 26.0427414,6.48362069 L8.27940517,16.7390431 C7.43891379,15.6796552 6.14278448,14.9967931 4.68843103,14.9967931 C2.15981897,14.9967931 0.10112069,17.0548966 0.10112069,19.5841034 C0.10112069,21.8527759 1.7595,23.7371897 3.9264569,24.1024138 L3.9264569,44.7899224 C1.7595,45.1545517 0.10112069,47.0389655 0.10112069,49.3076379 C0.10112069,51.8374397 2.15981897,53.8949483 4.68843103,53.8949483 C6.10887931,53.8949483 7.38062069,53.2453966 8.22230172,52.2282414 L26.0427414,62.5169741 C25.8559655,63.0154397 25.7494914,63.552569 25.7494914,64.1158707 C25.7494914,66.6450776 27.807,68.7025862 30.3373966,68.7025862 C32.8660086,68.7025862 34.9235172,66.6450776 34.9235172,64.1158707 C34.9235172,63.552569 34.8164483,63.0154397 34.6308621,62.5169741 L52.4501121,52.2288362 C53.2917931,53.2453966 54.5635345,53.8949483 55.9845776,53.8949483 C58.5137845,53.8949483 60.5712931,51.8374397 60.5712931,49.3076379 C60.5712931,47.0389655 58.9135086,45.1545517 56.7471466,44.7899224 Z" id="Fill-4"></path>
                <path d="M30.3368017,18.747181 C21.6505345,18.747181 14.5833879,25.8137328 14.5833879,34.5 C14.5833879,43.1862672 21.6505345,50.252819 30.3368017,50.252819 C39.0224741,50.252819 46.0896207,43.1862672 46.0896207,34.5 C46.0896207,25.8137328 39.0224741,18.747181 30.3368017,18.747181 Z M30.3368017,52.0313534 C20.6696638,52.0313534 12.8048534,44.1665431 12.8048534,34.5 C12.8048534,24.8328621 20.6696638,16.9686466 30.3368017,16.9686466 C40.0033448,16.9686466 47.8681552,24.8328621 47.8681552,34.5 C47.8681552,44.1665431 40.0033448,52.0313534 30.3368017,52.0313534 Z" id="Fill-5"></path>
                <path d="M29.9222069,51.9207155 C23.4766552,48.4826121 19.4722759,41.8056724 19.4722759,34.496431 C19.4722759,27.1919483 23.4766552,20.5179828 29.9222069,17.0798793 L30.3385862,17.8602931 L31.2302328,17.8567241 L31.2302328,18.3980172 L30.7591293,18.6490345 C24.8941293,21.7778276 21.2508103,27.8498276 21.2508103,34.496431 C21.2508103,41.1471983 24.8941293,47.2233621 30.7591293,50.3515603 L31.2302328,50.6025776 L31.2302328,51.1361379 L30.3385862,51.1403017 L29.9222069,51.9207155" id="Fill-6"></path>
                <path d="M30.760319,51.9201207 L30.3498879,51.1527931 L29.7039052,50.5151379 L29.7966983,50.42175 L29.9210172,50.3521552 C35.7818534,47.2138448 39.4227931,41.1382759 39.4227931,34.496431 C39.4227931,27.8516121 35.7824483,21.7790172 29.9216121,18.6484397 L29.8050259,18.5865776 L29.7122328,18.4931897 L30.3498879,17.8472069 L30.7597241,17.0798793 C37.2005172,20.5197672 41.2013276,27.1937328 41.2013276,34.496431 C41.2013276,41.7949655 37.2005172,48.4719052 30.760319,51.9201207" id="Fill-7"></path>
                <path d="M30.3326379,27.3115086 C25.9939655,27.3115086 21.8271983,25.7108276 18.5996638,22.8039052 L19.789319,21.4827931 C22.6902931,24.094681 26.4347328,25.5329741 30.3326379,25.5329741 C34.2358966,25.5329741 37.9833103,24.094681 40.8836897,21.4827931 L42.0739397,22.8039052 C38.8458103,25.7108276 34.6766638,27.3115086 30.3326379,27.3115086" id="Fill-8"></path>
                <path d="M40.8825,47.5249397 C37.9856897,44.9082931 34.2388707,43.4670259 30.3326379,43.4670259 C26.4317586,43.4670259 22.6879138,44.9082931 19.7905086,47.5249397 L18.5984741,46.2050172 C21.8230345,43.2921466 25.9903966,41.6884914 30.3326379,41.6884914 C34.6802328,41.6884914 38.8499741,43.2921466 42.0745345,46.2050172 L40.8825,47.5249397" id="Fill-9"></path>
                <polygon id="Fill-10" points="13.6941207 35.3892672 46.9788879 35.3892672 46.9788879 33.6107328 13.6941207 33.6107328"></polygon>
                <polygon id="Fill-11" points="29.4475345 51.1420862 31.226069 51.1420862 31.226069 17.8579138 29.4475345 17.8579138"></polygon>
            </g>
        </g>
    </g>
</svg>