<?xml version="1.0" encoding="UTF-8"?>
<svg width="63px" height="65px" viewBox="0 0 63 65" version="1.1" xmlns="http://www.w3.org/2000/svg" xmlns:xlink="http://www.w3.org/1999/xlink">
    <!-- Generator: sketchtool 51.3 (57544) - http://www.bohemiancoding.com/sketch -->
    <title>BFD21638-E4D9-4283-9A0B-2B6C69A984CB@3x</title>
    <desc>Created with sketchtool.</desc>
    <defs>
        <path d="M33.9827983,12.680217 L27.0134967,15.1154897 C26.6272228,15.2503317 26.5130663,15.7518175 26.8019974,16.0463051 L27.3988857,16.6546723 C27.6059604,16.8661802 27.6152522,17.2057655 27.4201241,17.4285478 L5.10030622,42.8884221 L4.05431364,44.0821567 L3.56229006,44.6431714 C3.18840523,45.0697951 3.06539934,45.6668879 3.24061637,46.2107655 L3.24371364,46.2184321 C3.26672194,46.2910393 3.2888453,46.3600387 3.31096866,46.4272342 C3.42733755,46.7884663 3.52246801,47.080699 3.59193537,47.291305 C3.76670993,47.8216533 3.93219268,48.3217861 4.57200032,48.5567449 C4.67553766,48.5946269 4.82022445,48.6424304 5.00783056,48.7015083 C5.31755764,48.7993702 5.744981,48.9278985 6.30116233,49.0952107 C6.83831757,49.2566603 7.63210381,49.4952268 8.13651648,49.6580293 C8.81835851,51.2048784 10.5767234,55.3304108 10.7320294,56.0289733 C10.7930898,56.3884015 10.9877754,56.7099477 11.2758216,56.9268674 C11.9766897,57.4554118 12.3908391,58.5395591 12.8288816,59.6877451 C13.1952445,60.646521 13.5739965,61.6382181 14.1832739,62.5049948 C14.3876938,62.7958746 14.6929962,62.998814 15.0372357,63.0709702 C15.5876649,63.1864202 16.0920776,63.2432432 16.5672874,63.2432432 L16.9389599,63.2427923 C17.3716929,63.2423413 17.7765504,63.0249707 18.0216773,62.6605817 L19.3287255,60.7168733 C20.5039185,60.3849546 24.5334678,60.2090738 26.536517,60.1211334 C29.0280501,60.0119971 29.8727201,59.9650956 30.3359833,59.8243909 C30.6173924,59.7387054 30.8647316,59.5650795 31.0430459,59.3278659 L35.8712486,52.8996479 C36.8433491,52.3936523 40.5963563,50.5455509 43.667079,49.0334269 C46.8524007,47.4649309 49.8607356,45.9830224 50.5120474,45.6375744 C50.814695,45.4765758 51.0487601,45.2077939 51.1699962,44.8830909 C51.6686567,43.5400831 52.1929804,42.1086839 52.638545,40.6723239 C52.6805793,40.53658 52.7013753,40.3981303 52.7027027,40.2605825 L52.7027027,40.231269 C52.699163,39.8727427 52.5619981,39.5254909 52.3146589,39.2630226 C51.9668797,38.7511644 51.0443355,36.6870452 51.0872548,35.7666024 C51.1217672,35.0206873 50.5819572,34.3753401 49.8536561,34.2914585 C49.4324273,34.243204 48.1997135,34.0204216 47.0085917,33.8044039 C45.706853,33.5689942 44.3723718,33.3277218 43.4480577,33.189723 C42.9816972,31.8534799 42.3542787,28.7345269 42.2967579,27.8862402 C42.3140142,27.7550061 42.3131292,27.6197132 42.2932182,27.4848712 C42.2215385,26.9996206 41.9082717,26.5865262 41.465362,26.3939592 C40.9848426,26.1847062 40.7215745,26.2694897 39.93885,26.5238404 C39.6012475,26.6329767 39.1486035,26.780897 38.6818005,26.9351309 C38.2787129,27.06862 37.9278363,27.1854229 37.6300559,27.2855396 C37.4446621,26.6902507 37.2066147,25.6994555 36.9698947,24.1886845 C36.6707869,22.2760935 36.5566303,20.697225 36.5778688,20.3662083 C36.6645923,19.7113905 36.2955747,19.0831803 35.6907219,18.8509275 L35.6862973,18.8491236 C35.1486995,18.6028904 34.5190686,18.8802409 34.3274803,19.4489222 C33.9748339,20.4965405 33.8575801,21.6113542 33.9845682,22.7112857 C34.0766014,23.5081611 34.1841209,24.3920749 34.263765,24.8836392 C34.9044576,28.8247222 35.5747955,29.7632041 36.2039839,30.1902788 C36.5831784,30.4473354 37.0619279,30.4991977 37.4853691,30.3282776 C37.6796122,30.2502587 38.7649844,29.8863207 39.7317753,29.5674804 L39.7322178,29.5674804 C39.8096495,30.0184568 39.9034526,30.5068643 40.0056625,30.9957227 C40.4600764,33.1667232 40.9193574,34.6125537 41.3702315,35.2926261 C41.6051816,35.6466426 41.9843761,35.8739347 42.4020652,35.9104638 C43.0631112,35.9690908 44.9812067,36.3158916 46.5223202,36.5950461 C47.2315952,36.7235743 47.8899864,36.8426321 48.4289115,36.9350823 C48.5545722,37.5565278 48.7762483,38.2532864 49.0926124,39.0203973 C49.2828733,39.4817462 49.5222481,40.0138984 49.7802065,40.4675806 C49.4638424,41.4380819 49.1178331,42.3959559 48.760762,43.3637513 C47.6307006,43.9337855 45.0073123,45.225833 42.4573736,46.4818023 C36.433182,49.4483253 34.5093344,50.4030424 34.2066868,50.5978642 C34.0681945,50.6871575 33.9460736,50.8008036 33.846076,50.9342926 L29.1815862,57.143787 C28.5515129,57.1965513 27.3922487,57.2470606 26.4174933,57.2899034 C24.6290407,57.3683733 22.6020982,57.4567647 20.9477132,57.6200181 C19.9972935,57.7133703 19.2787267,57.8216046 18.7499784,57.9501329 C18.3685716,58.043034 18.0787556,58.1476606 17.836726,58.2779928 C17.3823121,58.5246769 17.1424949,58.847125 17.0181616,59.1402597 L16.1788012,60.3876605 C16.1699518,60.3872095 16.167297,60.3872095 16.1580052,60.3867585 C15.8872153,59.8830179 15.6589022,59.2841212 15.4204123,58.6595188 C14.9407778,57.4044514 14.4040651,55.9992089 13.3328518,54.9899236 C13.3293121,54.9858648 13.3266573,54.9813551 13.3248874,54.9768453 C13.1514403,54.4388304 12.7642814,53.4024866 11.8558962,51.2481722 C11.4452866,50.2749651 11.0625524,49.3933061 10.8714065,48.9545061 C10.737339,48.6464892 10.6253948,48.3930404 10.5466356,48.2158067 C10.3625692,47.8009084 10.2169975,47.4730485 9.75948635,47.2471093 C9.45639628,47.0982871 8.82057084,46.8976026 7.05733886,46.3677053 L30.0461672,20.1921314 C30.2576666,19.95131 30.6244719,19.9409375 30.8483604,20.1695826 L31.3819759,20.7130092 C31.670907,21.0074968 32.1629305,20.8915958 32.2952283,20.4974424 L34.6845514,13.3950146 C34.8128669,13.0148415 34.5243783,12.6486486 34.1650949,12.6486486 C34.1058042,12.6486486 34.0447438,12.6585701 33.9827983,12.680217" id="path-1"></path>
        <path d="M7.95321477,3.17806693 C7.49198281,3.24787118 7.03119647,3.31900084 6.57130141,3.39057229 C6.32085468,3.42945061 6.06996232,3.46832893 5.81951559,3.50676545 C5.80926599,3.50853265 5.79946202,3.51029984 5.78921242,3.51162524 C4.41353795,3.75417294 3.13189241,3.92426559 1.87074606,4.03118096 C1.86450718,4.03162276 1.85826829,4.03206456 1.85202941,4.03294816 C1.13589436,4.10319422 -0.0646456562,4.9306839 -0.270083276,6.02413664 C-0.304397152,6.20659966 -0.285680492,6.50304685 -0.237106305,6.68241728 C0.0824138114,7.85539385 0.374304573,9.90755061 0.50442992,11.4830061 C-0.454576063,11.9040407 -1.99379849,12.7505277 -4.68543238,14.3935785 C-4.68988873,14.3909277 -4.69389944,14.3891605 -4.69835579,14.3869515 C-5.00896321,14.238507 -5.43409876,14.0352795 -5.96262158,14.0268853 C-6.44078766,14.0193747 -7.13731478,14.1709118 -7.75362764,14.9343406 C-7.94837002,15.1760047 -8.05755054,15.4755445 -8.06200689,15.784362 C-8.07136522,16.4249707 -8.16049217,17.068672 -8.24649967,17.6916087 C-8.40960199,18.8698869 -8.57805193,20.0883687 -8.22154413,21.3289406 C-8.06824577,21.8621921 -7.60389436,22.2474409 -7.0490791,22.3154779 C-6.6836586,22.3600996 -6.33027025,22.4449251 -5.95638269,22.5341685 C-5.61235266,22.6163431 -5.24113892,22.7051447 -4.82892677,22.7700892 C-4.48355984,23.6779863 -3.90378903,25.3431271 -3.21572898,27.3678923 C-2.94389178,28.1684322 -2.65467483,29.0250807 -2.35654518,29.9135386 L-2.35119756,29.9285598 C-2.12303257,30.6084886 -1.23933886,30.7905098 -0.757162058,30.2563747 L0.311915708,29.072795 L12.1773866,15.9314811 C12.329348,15.7627139 12.5931638,15.7556451 12.7540379,15.9155764 L13.59094,16.7443915 C13.7986058,16.9502698 14.1524398,16.8694206 14.24736,16.593738 L16.8427368,9.0915477 C16.9496891,8.78184654 16.6506682,8.48495755 16.3382782,8.59143113 L8.76961763,11.164469 C8.49154155,11.2585722 8.40999039,11.6093607 8.61721055,11.8152391 L9.50536061,12.6957446 C9.65420261,12.8433055 9.66088714,13.0809934 9.52051219,13.2365067 L-1.07222583,24.9901296 C-1.86545568,22.6910072 -2.3837289,21.2816681 -2.60922008,20.8425198 C-2.84005888,20.3932101 -3.29906267,20.1029481 -3.80753192,20.0852762 C-4.33026149,20.0671624 -4.77946131,19.9598052 -5.29951707,19.8352179 C-5.40914322,19.8087099 -5.519215,19.7826438 -5.63151496,19.7565776 C-5.63552567,19.2524849 -5.55753959,18.6874238 -5.47197772,18.0684633 C-5.43097932,17.7720161 -5.38730711,17.457897 -5.35076506,17.1300821 C-5.14666435,17.2020953 -4.91582555,17.2630636 -4.65691176,17.2913387 C-4.35744521,17.3235901 -4.05530485,17.2595292 -3.79549979,17.1084339 C-3.70325339,17.0545344 -3.53881417,16.9538042 -3.28925871,16.8018253 C0.435802168,14.5252347 1.62564695,13.9840308 2.00488212,13.8766736 C2.46254901,13.8643032 2.89882543,13.6305915 3.15684795,13.2228109 C3.30970067,12.9815886 3.37699152,12.69707 3.36674192,12.4125514 C3.31282012,10.8967388 3.02895078,8.47833056 2.65640013,6.74736175 C3.821735,6.63337758 5.00756907,6.46902832 6.2647047,6.24812878 C6.51114072,6.21013406 6.75802237,6.17169754 7.00445839,6.13370281 C7.30125113,6.08731391 7.59848951,6.04136681 7.89572789,5.9954197 C8.55214788,6.36918173 9.79457756,7.08489625 11.3868305,8.00516374 C11.7963689,8.24196805 12.2896865,8.29012415 12.7384407,8.13814527 L14.7112658,7.46705246 C15.0334597,7.35792808 15.0762406,6.92408138 14.783013,6.75443053 C11.62168,4.92626591 9.38102851,3.63223639 8.84314737,3.336231 C8.63459031,3.22136324 8.40063206,3.16216216 8.16400001,3.16216216 C8.09403535,3.16216216 8.02317943,3.16746375 7.95321477,3.17806693" id="path-3"></path>
    </defs>
    <g id="Page-1" stroke="none" stroke-width="1" fill="none" fill-rule="evenodd">
        <g id="About_KSA" transform="translate(-795.000000, -3721.000000)">
            <g id="Icon5" transform="translate(804.000000, 3722.000000)">
                <path d="M33.2100724,0.0230745863 L25.7478436,2.65764941 C25.4736617,2.75447218 25.3928132,3.11325938 25.5975709,3.32409775 L26.7347226,4.49547234 L0.229156801,35.0394379 C0.0151719103,35.2860193 -0.0555705278,35.6321381 0.045050704,35.9470383 C0.328020456,36.8360885 0.604399298,37.7065886 0.87199026,38.5494897 C1.0235812,39.0281742 1.62203586,39.1571205 1.94806623,38.7815929 L29.1078897,7.53950795 C29.2581625,7.36667478 29.517405,7.35943569 29.6764656,7.52322001 L30.5016476,8.37200283 C30.7068446,8.58284121 31.0548447,8.50004416 31.1493144,8.21771981 L33.7079058,0.535239913 C33.798421,0.262416863 33.5941027,0 33.3396936,0 C33.2975118,0 33.2540118,0.00723908589 33.2100724,0.0230745863" id="Fill-1" stroke="#FFFFFF" stroke-width="0.7" fill="#3A884B"></path>
                <mask id="mask-2" fill="white">
                    <use xlink:href="#path-1"></use>
                </mask>
                <use id="Clip-5" stroke="#FFFFFF" stroke-width="0.7" fill="#3A884B" xlink:href="#path-1"></use>
                <path d="M33.9827983,12.680217 L27.0134967,15.1154897 C26.6272228,15.2503317 26.5130663,15.7518175 26.8019974,16.0463051 L27.3988857,16.6546723 C27.6059604,16.8661802 27.6152522,17.2057655 27.4201241,17.4285478 L5.10030622,42.8884221 L4.05431364,44.0821567 L3.56229006,44.6431714 C3.18840523,45.0697951 3.06539934,45.6668879 3.24061637,46.2107655 L3.24371364,46.2184321 C3.26672194,46.2910393 3.2888453,46.3600387 3.31096866,46.4272342 C3.42733755,46.7884663 3.52246801,47.080699 3.59193537,47.291305 C3.76670993,47.8216533 3.93219268,48.3217861 4.57200032,48.5567449 C4.67553766,48.5946269 4.82022445,48.6424304 5.00783056,48.7015083 C5.31755764,48.7993702 5.744981,48.9278985 6.30116233,49.0952107 C6.83831757,49.2566603 7.63210381,49.4952268 8.13651648,49.6580293 C8.81835851,51.2048784 10.5767234,55.3304108 10.7320294,56.0289733 C10.7930898,56.3884015 10.9877754,56.7099477 11.2758216,56.9268674 C11.9766897,57.4554118 12.3908391,58.5395591 12.8288816,59.6877451 C13.1952445,60.646521 13.5739965,61.6382181 14.1832739,62.5049948 C14.3876938,62.7958746 14.6929962,62.998814 15.0372357,63.0709702 C15.5876649,63.1864202 16.0920776,63.2432432 16.5672874,63.2432432 L16.9389599,63.2427923 C17.3716929,63.2423413 17.7765504,63.0249707 18.0216773,62.6605817 L19.3287255,60.7168733 C20.5039185,60.3849546 24.5334678,60.2090738 26.536517,60.1211334 C29.0280501,60.0119971 29.8727201,59.9650956 30.3359833,59.8243909 C30.6173924,59.7387054 30.8647316,59.5650795 31.0430459,59.3278659 L35.8712486,52.8996479 C36.8433491,52.3936523 40.5963563,50.5455509 43.667079,49.0334269 C46.8524007,47.4649309 49.8607356,45.9830224 50.5120474,45.6375744 C50.814695,45.4765758 51.0487601,45.2077939 51.1699962,44.8830909 C51.6686567,43.5400831 52.1929804,42.1086839 52.638545,40.6723239 C52.6805793,40.53658 52.7013753,40.3981303 52.7027027,40.2605825 L52.7027027,40.231269 C52.699163,39.8727427 52.5619981,39.5254909 52.3146589,39.2630226 C51.9668797,38.7511644 51.0443355,36.6870452 51.0872548,35.7666024 C51.1217672,35.0206873 50.5819572,34.3753401 49.8536561,34.2914585 C49.4324273,34.243204 48.1997135,34.0204216 47.0085917,33.8044039 C45.706853,33.5689942 44.3723718,33.3277218 43.4480577,33.189723 C42.9816972,31.8534799 42.3542787,28.7345269 42.2967579,27.8862402 C42.3140142,27.7550061 42.3131292,27.6197132 42.2932182,27.4848712 C42.2215385,26.9996206 41.9082717,26.5865262 41.465362,26.3939592 C40.9848426,26.1847062 40.7215745,26.2694897 39.93885,26.5238404 C39.6012475,26.6329767 39.1486035,26.780897 38.6818005,26.9351309 C38.2787129,27.06862 37.9278363,27.1854229 37.6300559,27.2855396 C37.4446621,26.6902507 37.2066147,25.6994555 36.9698947,24.1886845 C36.6707869,22.2760935 36.5566303,20.697225 36.5778688,20.3662083 C36.6645923,19.7113905 36.2955747,19.0831803 35.6907219,18.8509275 L35.6862973,18.8491236 C35.1486995,18.6028904 34.5190686,18.8802409 34.3274803,19.4489222 C33.9748339,20.4965405 33.8575801,21.6113542 33.9845682,22.7112857 C34.0766014,23.5081611 34.1841209,24.3920749 34.263765,24.8836392 C34.9044576,28.8247222 35.5747955,29.7632041 36.2039839,30.1902788 C36.5831784,30.4473354 37.0619279,30.4991977 37.4853691,30.3282776 C37.6796122,30.2502587 38.7649844,29.8863207 39.7317753,29.5674804 L39.7322178,29.5674804 C39.8096495,30.0184568 39.9034526,30.5068643 40.0056625,30.9957227 C40.4600764,33.1667232 40.9193574,34.6125537 41.3702315,35.2926261 C41.6051816,35.6466426 41.9843761,35.8739347 42.4020652,35.9104638 C43.0631112,35.9690908 44.9812067,36.3158916 46.5223202,36.5950461 C47.2315952,36.7235743 47.8899864,36.8426321 48.4289115,36.9350823 C48.5545722,37.5565278 48.7762483,38.2532864 49.0926124,39.0203973 C49.2828733,39.4817462 49.5222481,40.0138984 49.7802065,40.4675806 C49.4638424,41.4380819 49.1178331,42.3959559 48.760762,43.3637513 C47.6307006,43.9337855 45.0073123,45.225833 42.4573736,46.4818023 C36.433182,49.4483253 34.5093344,50.4030424 34.2066868,50.5978642 C34.0681945,50.6871575 33.9460736,50.8008036 33.846076,50.9342926 L29.1815862,57.143787 C28.5515129,57.1965513 27.3922487,57.2470606 26.4174933,57.2899034 C24.6290407,57.3683733 22.6020982,57.4567647 20.9477132,57.6200181 C19.9972935,57.7133703 19.2787267,57.8216046 18.7499784,57.9501329 C18.3685716,58.043034 18.0787556,58.1476606 17.836726,58.2779928 C17.3823121,58.5246769 17.1424949,58.847125 17.0181616,59.1402597 L16.1788012,60.3876605 C16.1699518,60.3872095 16.167297,60.3872095 16.1580052,60.3867585 C15.8872153,59.8830179 15.6589022,59.2841212 15.4204123,58.6595188 C14.9407778,57.4044514 14.4040651,55.9992089 13.3328518,54.9899236 C13.3293121,54.9858648 13.3266573,54.9813551 13.3248874,54.9768453 C13.1514403,54.4388304 12.7642814,53.4024866 11.8558962,51.2481722 C11.4452866,50.2749651 11.0625524,49.3933061 10.8714065,48.9545061 C10.737339,48.6464892 10.6253948,48.3930404 10.5466356,48.2158067 C10.3625692,47.8009084 10.2169975,47.4730485 9.75948635,47.2471093 C9.45639628,47.0982871 8.82057084,46.8976026 7.05733886,46.3677053 L30.0461672,20.1921314 C30.2576666,19.95131 30.6244719,19.9409375 30.8483604,20.1695826 L31.3819759,20.7130092 C31.670907,21.0074968 32.1629305,20.8915958 32.2952283,20.4974424 L34.6845514,13.3950146 C34.8128669,13.0148415 34.5243783,12.6486486 34.1650949,12.6486486 C34.1058042,12.6486486 34.0447438,12.6585701 33.9827983,12.680217" id="Fill-4" stroke="#FFFFFF" stroke-width="0.7" fill="#3A884B" mask="url(#mask-2)"></path>
                <mask id="mask-4" fill="white">
                    <use xlink:href="#path-3"></use>
                </mask>
                <use id="Clip-8" stroke="#FFFFFF" stroke-width="0.7" fill="#3A884B" xlink:href="#path-3"></use>
                <path d="M7.95321477,3.17806693 C7.49198281,3.24787118 7.03119647,3.31900084 6.57130141,3.39057229 C6.32085468,3.42945061 6.06996232,3.46832893 5.81951559,3.50676545 C5.80926599,3.50853265 5.79946202,3.51029984 5.78921242,3.51162524 C4.41353795,3.75417294 3.13189241,3.92426559 1.87074606,4.03118096 C1.86450718,4.03162276 1.85826829,4.03206456 1.85202941,4.03294816 C1.13589436,4.10319422 -0.0646456562,4.9306839 -0.270083276,6.02413664 C-0.304397152,6.20659966 -0.285680492,6.50304685 -0.237106305,6.68241728 C0.0824138114,7.85539385 0.374304573,9.90755061 0.50442992,11.4830061 C-0.454576063,11.9040407 -1.99379849,12.7505277 -4.68543238,14.3935785 C-4.68988873,14.3909277 -4.69389944,14.3891605 -4.69835579,14.3869515 C-5.00896321,14.238507 -5.43409876,14.0352795 -5.96262158,14.0268853 C-6.44078766,14.0193747 -7.13731478,14.1709118 -7.75362764,14.9343406 C-7.94837002,15.1760047 -8.05755054,15.4755445 -8.06200689,15.784362 C-8.07136522,16.4249707 -8.16049217,17.068672 -8.24649967,17.6916087 C-8.40960199,18.8698869 -8.57805193,20.0883687 -8.22154413,21.3289406 C-8.06824577,21.8621921 -7.60389436,22.2474409 -7.0490791,22.3154779 C-6.6836586,22.3600996 -6.33027025,22.4449251 -5.95638269,22.5341685 C-5.61235266,22.6163431 -5.24113892,22.7051447 -4.82892677,22.7700892 C-4.48355984,23.6779863 -3.90378903,25.3431271 -3.21572898,27.3678923 C-2.94389178,28.1684322 -2.65467483,29.0250807 -2.35654518,29.9135386 L-2.35119756,29.9285598 C-2.12303257,30.6084886 -1.23933886,30.7905098 -0.757162058,30.2563747 L0.311915708,29.072795 L12.1773866,15.9314811 C12.329348,15.7627139 12.5931638,15.7556451 12.7540379,15.9155764 L13.59094,16.7443915 C13.7986058,16.9502698 14.1524398,16.8694206 14.24736,16.593738 L16.8427368,9.0915477 C16.9496891,8.78184654 16.6506682,8.48495755 16.3382782,8.59143113 L8.76961763,11.164469 C8.49154155,11.2585722 8.40999039,11.6093607 8.61721055,11.8152391 L9.50536061,12.6957446 C9.65420261,12.8433055 9.66088714,13.0809934 9.52051219,13.2365067 L-1.07222583,24.9901296 C-1.86545568,22.6910072 -2.3837289,21.2816681 -2.60922008,20.8425198 C-2.84005888,20.3932101 -3.29906267,20.1029481 -3.80753192,20.0852762 C-4.33026149,20.0671624 -4.77946131,19.9598052 -5.29951707,19.8352179 C-5.40914322,19.8087099 -5.519215,19.7826438 -5.63151496,19.7565776 C-5.63552567,19.2524849 -5.55753959,18.6874238 -5.47197772,18.0684633 C-5.43097932,17.7720161 -5.38730711,17.457897 -5.35076506,17.1300821 C-5.14666435,17.2020953 -4.91582555,17.2630636 -4.65691176,17.2913387 C-4.35744521,17.3235901 -4.05530485,17.2595292 -3.79549979,17.1084339 C-3.70325339,17.0545344 -3.53881417,16.9538042 -3.28925871,16.8018253 C0.435802168,14.5252347 1.62564695,13.9840308 2.00488212,13.8766736 C2.46254901,13.8643032 2.89882543,13.6305915 3.15684795,13.2228109 C3.30970067,12.9815886 3.37699152,12.69707 3.36674192,12.4125514 C3.31282012,10.8967388 3.02895078,8.47833056 2.65640013,6.74736175 C3.821735,6.63337758 5.00756907,6.46902832 6.2647047,6.24812878 C6.51114072,6.21013406 6.75802237,6.17169754 7.00445839,6.13370281 C7.30125113,6.08731391 7.59848951,6.04136681 7.89572789,5.9954197 C8.55214788,6.36918173 9.79457756,7.08489625 11.3868305,8.00516374 C11.7963689,8.24196805 12.2896865,8.29012415 12.7384407,8.13814527 L14.7112658,7.46705246 C15.0334597,7.35792808 15.0762406,6.92408138 14.783013,6.75443053 C11.62168,4.92626591 9.38102851,3.63223639 8.84314737,3.336231 C8.63459031,3.22136324 8.40063206,3.16216216 8.16400001,3.16216216 C8.09403535,3.16216216 8.02317943,3.16746375 7.95321477,3.17806693" id="Fill-7" stroke="#FFFFFF" stroke-width="0.7" fill="#3A884B" mask="url(#mask-4)"></path>
            </g>
        </g>
    </g>
</svg>