<?xml version="1.0" encoding="UTF-8"?>
<svg width="72px" height="55px" viewBox="0 0 72 55" version="1.1" xmlns="http://www.w3.org/2000/svg" xmlns:xlink="http://www.w3.org/1999/xlink">
    <!-- Generator: sketchtool 51.3 (57544) - http://www.bohemiancoding.com/sketch -->
    <title>F4EFFDE2-3014-4032-ADA1-308EDA512763@3x</title>
    <desc>Created with sketchtool.</desc>
    <defs></defs>
    <g id="Page-1" stroke="none" stroke-width="1" fill="none" fill-rule="evenodd">
        <g id="About_KSA" transform="translate(-479.000000, -3725.000000)" stroke="#7DB442" stroke-width="2">
            <g id="Icon6" transform="translate(479.000000, 3726.000000)">
                <path d="M41,27.0044991 C41.0014974,30.3179982 43.6892936,33.0029975 47.0029944,32.9999975 C50.3166953,32.9999975 53.0014968,30.3119982 52.9999994,26.9999991 C53.0014968,23.6879999 50.3166953,21.0015006 47.0029944,21.0000006 C43.6892936,20.9985006 41.0014974,23.6834999 41,27.0044991 Z" id="Stroke-2" stroke-linejoin="round"></path>
                <polyline id="Stroke-4" points="15 20 15 10 57 10"></polyline>
                <path d="M61,38 L26.5,38 C26.5,35.5145 24.4855,33.5 22,33.5 L22,21.5 C25,21.5 26.5,19.4855 26.5,17 L56.5,17" id="Stroke-6"></path>
                <path d="M50,3 L32,3" id="Stroke-8"></path>
                <path d="M29,3 L26,3" id="Stroke-10"></path>
                <path d="M67,53 L49,53" id="Stroke-12"></path>
                <path d="M45,53 L42,53" id="Stroke-14"></path>
                <path d="M39,53 L36,53" id="Stroke-16"></path>
                <path d="M33,53 L30,53" id="Stroke-18"></path>
                <path d="M20,21 L6,21" id="Stroke-20"></path>
                <path d="M71,38.7931034 L71,6.20689655 C71,2.77913793 68.2892973,0 64.9459459,0 L67.972973,0 L60.4054054,0 L60.4054054,32.5862069 L64.9459459,32.5862069 C68.2892973,32.5862069 71,35.3653448 71,38.7931034 C71,42.2208621 68.2892973,45 64.9459459,45 L15,45 L15,24.8275862" id="Stroke-22"></path>
                <path d="M10,29 L0,29" id="Stroke-24"></path>
            </g>
        </g>
    </g>
</svg>