<?xml version="1.0" encoding="UTF-8"?>
<svg width="96px" height="96px" viewBox="0 0 96 96" version="1.1" xmlns="http://www.w3.org/2000/svg" xmlns:xlink="http://www.w3.org/1999/xlink">
    <!-- Generator: sketchtool 51.3 (57544) - http://www.bohemiancoding.com/sketch -->
    <title>25B7530C-366B-44CA-B532-DE1CA09C780F@1.5x</title>
    <desc>Created with sketchtool.</desc>
    <defs></defs>
    <g id="Page-1" stroke="none" stroke-width="1" fill="none" fill-rule="evenodd">
        <g id="About_More" transform="translate(-903.000000, -2291.000000)">
            <g id="c2" transform="translate(903.000000, 2291.000000)">
                <circle id="Oval-2-Copy" fill="#D9D37F" cx="48" cy="48" r="48"></circle>
                <g id="Group-15" transform="translate(24.000000, 22.000000)" fill="#FFFFFF" fill-rule="nonzero">
                    <path d="M46.9581353,0.603287232 C46.8488969,0.265976496 46.544498,0.0327751583 46.194017,0.0180085264 C44.6710128,-0.0459802118 39.1401511,-0.0691053145 31.9046189,2.3292186 C25.1128334,4.58052629 19.2473716,8.25676753 14.942459,12.9604506 C7.2920043,21.3197573 7.10942005,28.9812246 7.68149902,32.8042963 C7.75098936,33.2690273 8.17986499,33.5886923 8.63894184,33.5182026 C9.09829409,33.4478985 9.4141676,33.0141868 9.34458547,32.5495487 C8.81776242,29.0290536 9.00484473,21.9530508 16.1767616,14.1167057 C20.2879825,9.62467772 25.9077037,6.10771179 32.4285044,3.94639697 C35.1769069,3.03541651 37.834155,2.44911622 40.179844,2.10465434 C39.1679656,2.57997272 38.0911866,3.14779151 36.9890717,3.82454904 C36.5919579,4.06833777 36.4655534,4.59167092 36.7065205,4.99343475 C36.8647786,5.25719094 37.1420973,5.40290695 37.4262091,5.40290695 C37.5749203,5.40290695 37.7254673,5.36297204 37.8618777,5.27938733 C39.6902906,4.15665894 41.4580256,3.35164533 42.8765648,2.79905753 C41.9839307,3.81126835 41.1286579,5.0144238 40.4455964,6.46108937 C39.0387154,9.44051275 38.5645838,12.9800465 38.995938,17.2819658 C39.4660305,21.9698606 39.0350435,26.3692024 37.7497936,30.0044872 C36.286182,34.1436948 33.7619478,37.276914 30.2473156,39.3171239 C22.9964533,43.5260784 15.8781459,43.2231302 13.1850052,40.4984545 C11.8527552,39.1506046 10.8247205,37.5123443 10.1296335,35.6294594 C9.967061,35.1892466 9.48273997,34.965704 9.04753034,35.1300872 C8.61241251,35.2944705 8.3914571,35.7846484 8.55393781,36.2248612 C9.21221418,38.0079088 10.1407409,39.5978757 11.3181294,40.9653215 C6.62197792,44.0977978 0.87888152,44.2969151 0.818295493,44.2985868 C0.354261603,44.3113103 -0.0118248771,44.7019295 0.000292328354,45.1714898 C0.0123177368,45.6337132 0.386298759,46 0.840602167,46 C0.848037725,46 0.855656877,45.9999071 0.863184231,45.9998143 C1.13582135,45.9925702 7.38159818,45.7850016 12.5364593,42.1866798 C14.1653973,43.4917158 16.643274,44.2224319 19.4932958,44.222339 C19.5792178,44.222339 19.665966,44.2216889 19.7525306,44.2202958 C22.2961339,44.1811967 26.3267571,43.5546829 31.084229,40.793137 C34.9558597,38.5457299 37.7312506,35.1087267 39.3333838,30.5776925 C40.7025362,26.7053987 41.1645506,22.0484302 40.6693975,17.1103385 C39.7964997,8.40508395 43.0444616,4.47883156 46.6844884,1.53274919 C46.9582271,1.31078536 47.0673738,0.940505095 46.9581353,0.603287232 Z" id="Shape"></path>
                    <path d="M34.3495537,5.11632372 C34.0649509,4.74282684 33.5465512,4.68275325 33.1915396,4.98217514 C30.8060018,6.99383615 28.8765478,9.32071793 27.436089,11.9183566 C27.2666762,10.9498947 27.2179385,9.9217376 27.217399,9.43443202 C27.217399,8.95573541 26.8486293,8.56766951 26.3935346,8.56766951 C25.93844,8.56766951 25.5696703,8.95573541 25.5696703,9.43443202 C25.5696703,9.75769414 25.594129,12.4221233 26.3571163,14.1192257 C25.2957682,16.5058973 24.3025809,18.8905821 23.3414059,21.2006244 C22.9704781,22.0921732 22.602158,22.9769105 22.2348271,23.8495384 C21.6378357,22.5791949 20.9358155,20.4553335 21.1439846,17.7541034 C21.1806728,17.2770151 20.8429262,16.8587705 20.3893601,16.8200774 C19.9372329,16.782425 19.5383394,17.1368118 19.5015613,17.6139948 C19.1800007,21.7868858 20.7191936,24.7314376 21.4001721,25.8103971 C20.252499,28.4713258 19.1007795,30.9688733 17.8907006,33.1284005 C17.247849,31.5399035 16.3406271,28.7524891 16.3406271,25.6676395 C16.3406271,25.1889429 15.9717675,24.800877 15.5167627,24.800877 C15.061758,24.800877 14.6928984,25.1889429 14.6928984,25.6676395 C14.6928984,29.9497037 16.2322712,33.6045428 16.8422114,34.8849143 C16.1296703,35.9999179 15.3933,36.989855 14.6225794,37.8185866 C14.3046156,38.1608642 14.3101908,38.7095678 14.6354383,39.0443716 C14.7956791,39.2093611 15.0037583,39.2916667 15.2115678,39.2916667 C15.4253122,39.2916667 15.6390565,39.2046309 15.8004663,39.0312217 C17.9993262,36.6671605 19.8914626,33.1914068 21.7113918,29.2115081 C22.9937678,29.195993 26.167471,28.8752852 29.183631,26.3454777 C29.5394519,26.0470964 29.5979012,25.501704 29.3141976,25.1274503 C29.0306739,24.7532911 28.5123641,24.6916093 28.1565432,24.9900851 C26.0598345,26.7486803 23.8470366,27.2721246 22.5120563,27.420653 C23.2923085,25.6403935 24.0655468,23.782748 24.8506549,21.8960589 C25.266094,20.8977968 25.6878276,19.885344 26.1174744,18.8657959 C26.1387859,18.8659851 26.1585687,18.8666473 26.1807794,18.8666473 C27.2487817,18.8666473 29.3686004,18.5935254 31.6897541,16.7840332 C32.0552866,16.4990858 32.1320799,15.9562476 31.8613251,15.5716821 C31.5905702,15.1871165 31.0742388,15.1064192 30.7088861,15.3912721 C29.177966,16.5847025 27.7909208,16.976931 26.8715594,17.0926317 C27.2478825,16.216598 27.6310397,15.3381992 28.0238185,14.4612194 C29.4087954,11.3693691 31.494174,8.63531142 34.2217747,6.33510799 C34.577056,6.03530768 34.6341564,5.4898206 34.3495537,5.11632372 Z" id="Shape"></path>
                    <path d="M27.6793119,34.8725081 C27.4295035,34.4882052 26.9232122,34.3843248 26.5485442,34.6405571 C24.6655035,35.9281086 21.9015035,36.4522576 19.914339,36.6651303 C19.4664283,36.7130541 19.1414193,37.1244681 19.1881416,37.5838971 C19.231927,38.0137504 19.5858593,38.3333333 19.9980831,38.3333333 C20.0264725,38.3333333 20.0549508,38.3318728 20.0838741,38.3287692 C22.2535669,38.0962705 25.2934507,37.5091361 27.4532651,36.0322629 C27.8277552,35.7761219 27.9291202,35.2568109 27.6793119,34.8725081 Z" id="Shape"></path>
                </g>
            </g>
        </g>
    </g>
</svg>