<?xml version="1.0" encoding="UTF-8"?>
<svg width="96px" height="96px" viewBox="0 0 96 96" version="1.1" xmlns="http://www.w3.org/2000/svg" xmlns:xlink="http://www.w3.org/1999/xlink">
    <!-- Generator: sketchtool 51.3 (57544) - http://www.bohemiancoding.com/sketch -->
    <title>4E5D9B21-257B-4FAF-9D1A-128979164E0E@1.5x</title>
    <desc>Created with sketchtool.</desc>
    <defs></defs>
    <g id="Page-1" stroke="none" stroke-width="1" fill="none" fill-rule="evenodd">
        <g id="About_More" transform="translate(-423.000000, -2291.000000)">
            <g id="c4" transform="translate(423.000000, 2291.000000)">
                <circle id="Oval-2-Copy-4" fill="#90BE5F" cx="48" cy="48" r="48"></circle>
                <g id="Group-17" transform="translate(22.000000, 18.000000)" fill="#FFFFFF" fill-rule="nonzero">
                    <path d="M51.614529,16.3925788 C51.3351828,16.1368467 50.9201892,16.1003456 50.6008086,16.3035162 C44.4738667,20.2005961 40.8945892,18.1775378 40.7513376,18.0934168 C40.4256946,17.8933909 40.0068989,17.9396631 39.7322495,18.2053909 C38.7312774,19.1733996 35.7426753,21.5804492 33.5109247,21.5803369 C33.4181075,21.5803369 33.3265204,21.5761814 33.2364989,21.5675335 C33.1635871,21.5605702 33.1455828,21.5490022 33.1078968,21.4849849 C32.4326796,20.3360432 33.9357591,15.1796199 35.7156129,11.0610626 C35.8218495,10.8152138 35.8052989,10.5330886 35.6707699,10.3013909 C35.5363527,10.0698056 35.300172,9.91627646 35.0346925,9.88797408 C32.1562409,9.58136501 29.9310882,8.16624622 28.4212989,5.68192657 C27.1294624,3.55655292 26.8387097,1.42241901 26.8387097,0.842332613 C26.8387097,0.377140389 26.4631914,0 26,0 C25.5368086,0 25.1612903,0.377140389 25.1612903,0.842332613 C25.1612903,1.42241901 24.8705376,3.55655292 23.5787011,5.68203888 C22.0689118,8.16635853 19.8437591,9.58147732 16.9653075,9.88808639 C16.699828,9.91627646 16.4636473,10.0699179 16.3292301,10.3015032 C16.1948129,10.5330886 16.1781505,10.8152138 16.2844989,11.0611749 C18.0646882,15.1787214 19.5678796,20.3348078 18.8921032,21.4848726 C18.854529,21.5488898 18.8364129,21.5604579 18.7635011,21.5674212 C16.5148645,21.7821598 13.3122237,19.2130454 12.2677505,18.2052786 C11.9929892,17.9395508 11.5741935,17.8935032 11.2486624,18.0933045 C11.2127656,18.1152052 7.59636129,20.2451836 1.3991914,16.3034039 C1.07992258,16.100121 0.664929032,16.1368467 0.385470968,16.3924665 C0.106124731,16.6480864 0.0315354839,17.0598186 0.203415054,17.397987 C0.238529032,17.4671706 3.7100043,24.3662117 2.81470968,28.5168898 C2.78116129,28.6723283 2.72144516,29.2028855 3.36233118,29.502419 C3.41891613,29.5288121 3.50211613,29.566324 3.60768172,29.6138315 C7.96897204,31.5764665 8.95216344,32.8033521 9.1499871,33.3600778 C9.17917419,33.4420648 9.1887914,33.5067559 9.18677849,33.5603283 L3.14683871,37.8931749 C2.83931183,38.1137538 2.71663656,38.5136933 2.84736344,38.8698315 C2.97797849,39.2259698 3.32923011,39.4498056 3.70631398,39.417797 C3.73315269,39.4154384 6.42708817,39.1848639 9.26427527,39.1447689 C13.8089634,39.0803024 15.0323613,39.5573996 15.3188645,39.7233952 C15.1667785,40.8094428 13.4633032,45.1938402 11.8109333,49.0256674 C11.6708129,49.3505832 11.7479742,49.7288467 12.0040602,49.9722246 C12.1634151,50.1237322 12.3708559,50.2029114 12.5808688,50.2027991 C12.7082409,50.2027991 12.8366194,50.1737106 12.9557161,50.1138488 C13.0036903,50.0898143 17.8020043,47.7140994 22.2961462,48.3963888 C22.8226323,48.4765788 23.0759226,48.1096587 23.2797849,47.815067 C23.3832258,47.665581 23.5279312,47.4517408 23.6999226,47.1947732 C24.0002925,46.7460907 24.4145032,46.120743 24.9310366,45.335689 C25.0079742,45.2187732 25.0849118,45.1018575 25.1611785,44.9857279 L25.1611785,51.1576674 C25.1611785,51.6228596 25.5366968,52 25.9998882,52 C26.4630796,52 26.8385978,51.6228596 26.8385978,51.1576674 L26.8385978,44.9859525 C26.9148645,45.1019698 26.9918022,45.2188855 27.0687398,45.3359136 C27.5853849,46.1208553 27.9995957,46.7463153 28.2998538,47.1949978 C28.471957,47.4519654 28.6166624,47.6659179 28.7199914,47.8152916 C28.9238538,48.1098834 29.1775914,48.475905 29.7036301,48.3966134 C34.1832344,47.716121 38.9965333,50.0903758 39.0440602,50.1140734 C39.163157,50.1739352 39.2914237,50.2030238 39.4189075,50.2030238 C39.6288086,50.2030238 39.8363613,50.1238445 39.9957161,49.9724492 C40.2518022,49.7290713 40.3288516,49.3508078 40.188843,49.025892 C38.5364731,45.1941771 36.8329978,40.8096674 36.6809118,39.7236199 C36.9675269,39.5575119 38.1898065,39.080527 42.7355011,39.1449935 C45.5726882,39.1849762 48.2665118,39.4156631 48.2934624,39.4180216 C48.6704344,39.4504795 49.0217978,39.2261944 49.1524129,38.8700562 C49.2831398,38.5139179 49.1604645,38.1139784 48.8529376,37.8933996 L42.8129978,33.5605529 C42.8109849,33.5069806 42.8206022,33.4422894 42.8497892,33.3603024 C43.0477247,32.8035767 44.0309161,31.5766911 48.3920946,29.6140562 C48.4976602,29.5665486 48.5808602,29.5290367 48.6374452,29.5026436 C49.2783312,29.2031102 49.2186151,28.6725529 49.1850667,28.5171145 C48.2910022,24.3731749 51.7612473,17.4671706 51.7962495,17.3980994 C51.9683527,17.0600432 51.8937634,16.648311 51.614529,16.3925788 Z M47.4330581,28.2007343 C43.7446366,29.8876458 41.7833978,31.3503844 41.2702194,32.7938056 C41.066357,33.367378 41.0949849,33.9446566 41.3530839,34.4630842 C41.4142538,34.5859525 41.5044989,34.6919741 41.6157677,34.7718272 L45.4875871,37.5493909 C44.5124473,37.5018834 43.3877935,37.4623499 42.2614624,37.4554989 C36.2454538,37.4203456 35.2260301,38.3220907 35.0201548,39.3039136 C34.9484731,39.6461253 34.8283699,40.2189114 36.766572,45.1295983 C37.1441032,46.0863758 37.5284559,47.0255205 37.8507441,47.8012527 C35.9737118,47.1310929 32.9828731,46.3379525 29.9672086,46.664216 C29.3664688,45.7790929 27.8743484,43.507041 26.8387097,41.9214341 L26.8387097,38.9909028 L42.6181935,26.6648812 C42.983871,26.3792743 43.0497376,25.8500648 42.7652473,25.4829201 C42.4808688,25.1157754 41.9539355,25.0495119 41.5883699,25.3352311 L26.8387097,36.8566566 L26.8387097,18.2625572 L30.1715183,14.9153521 C30.4990624,14.5863931 30.4990624,14.0530281 30.1715183,13.7241814 C29.8439742,13.3952225 29.3129032,13.3952225 28.985471,13.7241814 L26.8387097,15.8801037 L26.8387097,11.6241901 C26.8387097,11.1589978 26.4631914,10.7818575 26,10.7818575 C25.5368086,10.7818575 25.1612903,11.1589978 25.1612903,11.6241901 L25.1612903,15.8801037 L23.014529,13.7240691 C22.6869849,13.3951102 22.155914,13.3951102 21.8284817,13.7240691 C21.5009376,14.0530281 21.5009376,14.5863931 21.8284817,14.9152397 L25.1612903,18.2625572 L25.1612903,36.8566566 L10.4117419,25.3351188 C10.0461763,25.0495119 9.51913118,25.1156631 9.23486452,25.4828078 C8.95048602,25.8500648 9.01635269,26.379162 9.38191828,26.6647689 L25.1612903,38.9907905 L25.1612903,41.9213218 C24.1257634,43.507041 22.6335312,45.7789806 22.0329032,46.6641037 C19.0162323,46.3372786 16.0261763,47.1308683 14.1492559,47.8011404 C14.4714323,47.0255205 14.8557849,46.0861512 15.233428,45.129486 C17.1716301,40.2187991 17.0515269,39.646013 16.9798452,39.3038013 C16.7740817,38.3220907 15.7521978,37.420121 9.73853763,37.4553866 C8.61220645,37.4623499 7.48755269,37.5017711 6.5124129,37.5492786 L10.3842323,34.7717149 C10.4955011,34.6918618 10.5857462,34.5858402 10.6469161,34.4629719 C10.9051269,33.9445443 10.933643,33.3672657 10.7297806,32.7936933 C10.2166022,31.3501598 8.25536344,29.8874212 4.56694194,28.200622 C4.93966452,25.1691231 3.70631398,21.370203 2.73978495,18.9687689 C7.20809462,21.0808898 10.3049462,20.3074039 11.5362839,19.8126739 C11.9761032,20.1991361 12.7200946,20.8162851 13.6252301,21.422203 C15.644843,22.7744276 17.4269333,23.3876458 18.9226323,23.2445616 C19.5261677,23.1868337 20.0284989,22.8659611 20.3368086,22.3411317 C21.2428387,20.7992138 20.3642065,17.5415205 19.6244645,15.2252181 C19.1383484,13.7031793 18.5993376,12.2952484 18.2384688,11.3951879 C22.6739011,10.4972613 24.9345032,7.2647257 26,4.53938661 C27.0654968,7.2647257 29.3262108,10.4972613 33.7615312,11.3951879 C33.4006624,12.2951361 32.8616516,13.703067 32.3755355,15.2252181 C31.6357935,17.5415205 30.7572731,20.7991015 31.6631914,22.3411317 C31.9716129,22.8659611 32.4738323,23.1868337 33.0773677,23.2445616 C34.5722839,23.3874212 36.355157,22.7744276 38.3747699,21.422203 C39.2797935,20.8161728 40.0237849,20.1991361 40.4636043,19.8126739 C41.6952774,20.3075162 44.7916817,21.0813391 49.2601032,18.9686566 C48.2937978,21.370203 47.0603355,25.1691231 47.4330581,28.2007343 Z" id="Shape"></path>
                </g>
            </g>
        </g>
    </g>
</svg>