<?xml version="1.0" encoding="UTF-8"?>
<svg width="55px" height="47px" viewBox="0 0 55 47" version="1.1" xmlns="http://www.w3.org/2000/svg" xmlns:xlink="http://www.w3.org/1999/xlink">
    <!-- Generator: sketchtool 51.3 (57544) - http://www.bohemiancoding.com/sketch -->
    <title>88513F04-AA02-4BE0-9E00-4F926455AABF@3x</title>
    <desc>Created with sketchtool.</desc>
    <defs></defs>
    <g id="Page-1" stroke="none" stroke-width="1" fill="none" fill-rule="evenodd">
        <g id="About_KSA" transform="translate(-1124.000000, -3529.000000)" stroke="#3A884B" stroke-width="2">
            <g id="Icon1" transform="translate(1125.000000, 3530.000000)">
                <path d="M8.76190476,44.0159474 C8.76190476,44.5049802 8.34286741,44.9047619 7.83046344,44.9047619 L3.12199992,44.9047619 C2.60951354,44.9047619 2.19047619,44.5049802 2.19047619,44.0159474 L2.19047619,31.5552452 C2.19047619,31.066527 2.60951354,30.6666667 3.12199992,30.6666667 L7.83046344,30.6666667 C8.34286741,30.6666667 8.76190476,31.066527 8.76190476,31.5552452 L8.76190476,44.0159474 Z" id="Stroke-1"></path>
                <path d="M36.1428571,42.9442497 C36.1428571,43.4203304 35.7238198,43.8095238 35.2113334,43.8095238 L30.5029523,43.8095238 C29.9904659,43.8095238 29.5714286,43.4203304 29.5714286,42.9442497 L29.5714286,27.1507587 C29.5714286,26.6749843 29.9904659,26.2857143 30.5029523,26.2857143 L35.2113334,26.2857143 C35.7238198,26.2857143 36.1428571,26.6749843 36.1428571,27.1507587 L36.1428571,42.9442497 Z" id="Stroke-3"></path>
                <path d="M23,42.9323744 C23,43.414989 22.5809627,43.8095238 22.0684763,43.8095238 L17.3600952,43.8095238 C16.8476088,43.8095238 16.4285714,43.414989 16.4285714,42.9323744 L16.4285714,19.4959642 C16.4285714,19.0136601 16.8476088,18.6190476 17.3600952,18.6190476 L22.0684763,18.6190476 C22.5809627,18.6190476 23,19.0136601 23,19.4959642 L23,42.9323744 Z" id="Stroke-5"></path>
                <path d="M50.3809524,44.0169075 C50.3809524,44.505412 49.9619203,44.9047619 49.4494403,44.9047619 L44.7410359,44.9047619 C44.2286383,44.9047619 43.8095238,44.505412 43.8095238,44.0169075 L43.8095238,14.0304759 C43.8095238,13.5423641 44.2286383,13.1428571 44.7410359,13.1428571 L49.4494403,13.1428571 C49.9619203,13.1428571 50.3809524,13.5423641 50.3809524,14.0304759 L50.3809524,44.0169075 Z" id="Stroke-7"></path>
                <path d="M0,44.9047619 L52.5714286,44.9047619" id="Stroke-9" stroke-linecap="round"></path>
                <path d="M1.0952381,20.2618658 C1.0952381,22.3789969 2.81149677,24.0952381 4.9286493,24.0952381 C7.04572396,24.0952381 8.76190476,22.3789969 8.76190476,20.2618658 C8.76190476,18.1448127 7.04572396,16.4285714 4.9286493,16.4285714 C2.81149677,16.4285714 1.0952381,18.1448127 1.0952381,20.2618658 Z" id="Stroke-11"></path>
                <path d="M28.4761905,18.0714675 C28.4761905,20.1885207 30.1924317,21.9047619 32.3095627,21.9047619 C34.4266159,21.9047619 36.1428571,20.1885207 36.1428571,18.0714675 C36.1428571,15.9544144 34.4266159,14.2380952 32.3095627,14.2380952 C30.1924317,14.2380952 28.4761905,15.9544144 28.4761905,18.0714675 Z" id="Stroke-13"></path>
                <path d="M42.7142857,3.8332944 C42.7142857,5.95042542 44.430527,7.66666667 46.547658,7.66666667 C48.6647111,7.66666667 50.3809524,5.95042542 50.3809524,3.8332944 C50.3809524,1.71624124 48.6647111,0 46.547658,0 C44.430527,0 42.7142857,1.71624124 42.7142857,3.8332944 Z" id="Stroke-15"></path>
                <path d="M15.3333333,10.4047619 C15.3333333,12.5218366 17.049592,14.2380952 19.1666667,14.2380952 C21.2838192,14.2380952 23,12.5218366 23,10.4047619 C23,8.28768725 21.2838192,6.57142857 19.1666667,6.57142857 C17.049592,6.57142857 15.3333333,8.28768725 15.3333333,10.4047619 Z" id="Stroke-17"></path>
                <path d="M7.66666667,18.6190476 L15.3333333,12.047619" id="Stroke-19"></path>
                <path d="M23,9.85714286 L29.5714286,15.3333333" id="Stroke-21"></path>
                <path d="M36.1428571,15.3333333 L43.8095238,6.57142857" id="Stroke-23"></path>
            </g>
        </g>
    </g>
</svg>