<?xml version="1.0" encoding="UTF-8"?>
<svg width="82px" height="46px" viewBox="0 0 82 46" version="1.1" xmlns="http://www.w3.org/2000/svg" xmlns:xlink="http://www.w3.org/1999/xlink">
    <!-- Generator: sketchtool 51.3 (57544) - http://www.bohemiancoding.com/sketch -->
    <title>FB2C9FBB-2E7D-46B2-B1A0-329D7ED7EB51@3x</title>
    <desc>Created with sketchtool.</desc>
    <defs>
        <polygon id="path-1" points="0 46 82 46 82 0 0 0"></polygon>
    </defs>
    <g id="Page-1" stroke="none" stroke-width="1" fill="none" fill-rule="evenodd">
        <g id="About_KSA" transform="translate(-481.000000, -3523.000000)">
            <g id="Icon3" transform="translate(481.000000, 3523.000000)">
                <path d="M57,42 L55,42 L55,31 C55,24.626 50.794,20 45,20 L37,20 C31.206,20 27,24.626 27,31 L27,42 L25,42 L25,31 C25,23.589 30.159,18 37,18 L45,18 C51.841,18 57,23.589 57,31 L57,42 Z" id="Fill-1" fill="#D1A53C"></path>
                <path d="M41,2 C37.691,2 35,4.691 35,8 C35,11.309 37.691,14 41,14 C44.309,14 47,11.309 47,8 C47,4.691 44.309,2 41,2 M41,16 C36.589,16 33,12.411 33,8 C33,3.589 36.589,0 41,0 C45.411,0 49,3.589 49,8 C49,12.411 45.411,16 41,16" id="Fill-3" fill="#D1A53C"></path>
                <mask id="mask-2" fill="white">
                    <use xlink:href="#path-1"></use>
                </mask>
                <g id="Clip-6"></g>
                <polygon id="Fill-5" fill="#D1A53C" mask="url(#mask-2)" points="40 28 42 28 42 26 40 26"></polygon>
                <polygon id="Fill-7" fill="#D1A53C" mask="url(#mask-2)" points="14 46 68 46 68 44 14 44"></polygon>
                <path d="M32.8281,44 L49.1721,44 L49.1911,41.594 L50.9951,32.55 C51.0191,32.414 50.9801,32.26 50.8851,32.145 C50.8291,32.079 50.7321,32 50.5891,32 L31.4111,32 C31.2671,32 31.1711,32.079 31.1151,32.145 C31.0191,32.26 30.9801,32.414 31.0091,32.568 L32.8281,41.789 L32.8281,44 Z M51.1721,46 L30.8281,46 L30.8281,41.888 L29.0441,32.94 C28.9071,32.184 29.1041,31.433 29.5811,30.862 C30.0401,30.314 30.7071,30 31.4111,30 L50.5891,30 C51.2931,30 51.9601,30.314 52.4191,30.862 C52.8951,31.433 53.0931,32.184 52.9601,32.922 L51.1721,41.888 L51.1721,46 Z" id="Fill-8" fill="#D1A53C" mask="url(#mask-2)"></path>
                <path d="M82,42 L80,42 L80,34 C80,28.785 76.403,25 71.447,25 L64.553,25 C62.548,25 60.716,25.616 59.257,26.781 L58.009,25.219 C59.826,23.768 62.089,23 64.553,23 L71.447,23 C77.463,23 82,27.729 82,34 L82,42 Z" id="Fill-9" fill="#D1A53C" mask="url(#mask-2)"></path>
                <path d="M68,9 C65.051,9 64,11.583 64,14 C64,16.417 65.051,19 68,19 C70.949,19 72,16.417 72,14 C72,11.583 70.949,9 68,9 M68,21 C64.411,21 62,18.186 62,14 C62,9.813 64.411,7 68,7 C71.589,7 74,9.813 74,14 C74,18.186 71.589,21 68,21" id="Fill-10" fill="#D1A53C" mask="url(#mask-2)"></path>
                <polygon id="Fill-11" fill="#D1A53C" mask="url(#mask-2)" points="67 34 69 34 69 32 67 32"></polygon>
                <polygon id="Fill-12" fill="#D1A53C" mask="url(#mask-2)" points="67 39 69 39 69 37 67 37"></polygon>
                <polygon id="Fill-13" fill="#D1A53C" mask="url(#mask-2)" points="76.9736 42 74.9736 42 74.9736 35 77.9736 35 77.9736 37 76.9736 37"></polygon>
                <path d="M2,42 L0,42 L0,34 C0,27.729 4.537,23 10.553,23 L17.447,23 C19.911,23 22.174,23.768 23.991,25.219 L22.743,26.781 C21.284,25.616 19.452,25 17.447,25 L10.553,25 C5.597,25 2,28.785 2,34 L2,42 Z" id="Fill-14" fill="#D1A53C" mask="url(#mask-2)"></path>
                <path d="M14,9 C11.051,9 10,11.583 10,14 C10,16.417 11.051,19 14,19 C16.949,19 18,16.417 18,14 C18,11.583 16.949,9 14,9 M14,21 C10.411,21 8,18.186 8,14 C8,9.813 10.411,7 14,7 C17.589,7 20,9.813 20,14 C20,18.186 17.589,21 14,21" id="Fill-15" fill="#D1A53C" mask="url(#mask-2)"></path>
                <polygon id="Fill-16" fill="#D1A53C" mask="url(#mask-2)" points="13 34 15 34 15 32 13 32"></polygon>
                <polygon id="Fill-17" fill="#D1A53C" mask="url(#mask-2)" points="13 39 15 39 15 37 13 37"></polygon>
                <polygon id="Fill-18" fill="#D1A53C" mask="url(#mask-2)" points="7.0264 42 5.0264 42 5.0264 37 4.0264 37 4.0264 35 7.0264 35"></polygon>
            </g>
        </g>
    </g>
</svg>