<?xml version="1.0" encoding="UTF-8"?>
<svg width="24px" height="33px" viewBox="0 0 24 33" version="1.1" xmlns="http://www.w3.org/2000/svg" xmlns:xlink="http://www.w3.org/1999/xlink">
    <!-- Generator: sketchtool 51.3 (57544) - http://www.bohemiancoding.com/sketch -->
    <title>64B4BBF4-CDD0-47C2-9827-2276FCB338B1@1.5x</title>
    <desc>Created with sketchtool.</desc>
    <defs></defs>
    <g id="Page-1" stroke="none" stroke-width="1" fill="none" fill-rule="evenodd">
        <g id="About_KSA" transform="translate(-1275.000000, -773.000000)" fill-rule="nonzero">
            <g id="Marker" transform="translate(1275.000000, 773.000000)">
                <path d="M20.2469568,3.38515624 C18.0068775,1.20231203 15.0283514,0 11.860575,0 C8.69218023,0 5.71427256,1.20231203 3.47419332,3.38515624 C-0.67137576,7.42420147 -1.18655688,15.0237778 2.35848295,19.6281206 L11.860575,33 L21.3484424,19.6468031 C24.907707,15.0237778 24.3925258,7.42420147 20.2469568,3.38515624 Z" id="Shape" fill="#7DB442"></path>
                <path d="M12,7 C9.79485714,7 8,8.79485714 8,11 C8,13.2051429 9.79485714,15 12,15 C14.2051429,15 16,13.2051429 16,11 C16,8.79485714 14.2051429,7 12,7 Z" id="Shape" fill="#FFFFFF"></path>
            </g>
        </g>
    </g>
</svg>