<?xml version="1.0" encoding="UTF-8"?>
<svg width="40px" height="39px" viewBox="0 0 40 39" version="1.1" xmlns="http://www.w3.org/2000/svg" xmlns:xlink="http://www.w3.org/1999/xlink">
    <!-- Generator: sketchtool 51.3 (57544) - http://www.bohemiancoding.com/sketch -->
    <title>4F154B0D-741A-4991-AA34-F1B1F6CB7895@1.5x</title>
    <desc>Created with sketchtool.</desc>
    <defs>
        <polygon id="path-1" points="0 38.8691613 39.8462827 38.8691613 39.8462827 0 0 0"></polygon>
    </defs>
    <g id="Page-1" stroke="none" stroke-width="1" fill="none" fill-rule="evenodd">
        <g id="About_KSA" transform="translate(-496.000000, -984.000000)">
            <g id="Marker6" transform="translate(496.000000, 984.000000)">
                <path d="M30.2546597,35.4354839 L9.57445026,35.4354839 C8.79748691,35.4354839 8.16753927,36.0659839 8.16753927,36.8443065 L8.16753927,37.5190484 C8.16753927,38.2969516 8.79748691,38.9274516 9.57445026,38.9274516 L30.2546597,38.9274516 C31.031623,38.9274516 31.6615707,38.2969516 31.6615707,37.5190484 L31.6615707,36.8443065 C31.6615707,36.0659839 31.031623,35.4354839 30.2546597,35.4354839" id="Fill-1" fill="#7DB442"></path>
                <path d="M27.9687958,30.6129032 L11.6686911,30.6129032 C10.8917277,30.6129032 10.2617801,31.2434032 10.2617801,32.0217258 L10.2617801,32.6964677 C10.2617801,33.474371 10.8917277,34.104871 11.6686911,34.104871 L27.9687958,34.104871 C28.7457592,34.104871 29.3757068,33.474371 29.3757068,32.6964677 L29.3757068,32.0217258 C29.3757068,31.2434032 28.7457592,30.6129032 27.9687958,30.6129032" id="Fill-3" fill="#7DB442"></path>
                <path d="M22.2157068,2.05735484 L22.2157068,2.36222581 L17.591623,2.36222581 L17.591623,2.05735484 C17.591623,0.920483871 18.5176963,0 19.6594764,0 L20.1543455,0 C21.2959162,0 22.2157068,0.920483871 22.2157068,2.05735484" id="Fill-5" fill="#7DB442"></path>
                <mask id="mask-2" fill="white">
                    <use xlink:href="#path-1"></use>
                </mask>
                <g id="Clip-8"></g>
                <polygon id="Fill-7" fill="#7DB442" mask="url(#mask-2)" points="17.591623 29.3303065 22.2157068 29.3303065 22.2157068 6.70967742 17.591623 6.70967742"></polygon>
                <path d="M26.1962304,20.8316613 L32.3298429,6.68891935 L38.4634555,20.8316613 L26.1962304,20.8316613 Z M19.9231414,5.37445161 C19.5107853,5.37445161 19.1681675,5.03770968 19.1681675,4.61877419 C19.1681675,4.20591935 19.5107853,3.86309677 19.9231414,3.86309677 C20.3415707,3.86309677 20.6779058,4.20591935 20.6779058,4.61877419 C20.6779058,5.03770968 20.3415707,5.37445161 19.9231414,5.37445161 Z M13.6498429,20.8316613 L1.3826178,20.8316613 L7.51623037,6.68891935 L13.6498429,20.8316613 Z M39.8272251,20.7872097 L33.420733,6.00935484 C33.991623,5.99027419 34.4546597,5.5268871 34.4546597,4.94251613 L34.4546597,4.42796774 C34.4546597,3.83751613 33.9725654,3.35483871 33.3828272,3.35483871 L6.81863874,3.35483871 C6.22240838,3.35483871 5.74659686,3.83751613 5.74659686,4.42796774 L5.74659686,4.94251613 C5.74659686,5.4126129 6.03832461,5.7998871 6.45696335,5.94582258 L0.0188481675,20.7872097 L0,20.8316613 C0.741989529,24.3055968 3.82471204,26.9156613 7.51623037,26.9156613 C11.2079581,26.9156613 14.2904712,24.3055968 15.0326702,20.8316613 L15.0136126,20.7872097 L8.60732984,6.01564516 L31.2452356,6.01564516 L24.8387435,20.7872097 L24.8198953,20.8316613 C25.5618848,24.3055968 28.6383246,26.9156613 32.3298429,26.9156613 C36.0213613,26.9156613 39.1040838,24.3055968 39.8460733,20.8316613 L39.8272251,20.7872097 Z" id="Fill-9" fill="#7DB442" mask="url(#mask-2)"></path>
            </g>
        </g>
    </g>
</svg>